<svg width="28" height="28" viewBox="0 0 28 28" fill="none" xmlns="http://www.w3.org/2000/svg">
<path d="M14 2C17.1144 4.75543 21.1793 6.19009 25.3333 6C25.9381 8.05735 26.1232 10.2153 25.8775 12.3456C25.6318 14.4759 24.9604 16.535 23.9032 18.4007C22.846 20.2664 21.4245 21.9005 19.7233 23.206C18.022 24.5114 16.0757 25.4616 14 26C11.9243 25.4616 9.97798 24.5114 8.27673 23.206C6.57548 21.9005 5.15402 20.2664 4.0968 18.4007C3.03958 16.535 2.36818 14.4759 2.1225 12.3456C1.87683 10.2153 2.06188 8.05735 2.66667 6C6.82071 6.19009 10.8856 4.75543 14 2Z" stroke="#55276F" stroke-width="3" stroke-linecap="round" stroke-linejoin="round"/>
</svg>
