<svg width="48" height="48" viewBox="0 0 48 48" fill="none" xmlns="http://www.w3.org/2000/svg">
<g clip-path="url(#clip0_43_87)">
<path d="M12 8H32L40 16V36C40 37.0609 39.5786 38.0783 38.8284 38.8284C38.0783 39.5786 37.0609 40 36 40H12C10.9391 40 9.92172 39.5786 9.17157 38.8284C8.42143 38.0783 8 37.0609 8 36V12C8 10.9391 8.42143 9.92172 9.17157 9.17157C9.92172 8.42143 10.9391 8 12 8Z" stroke="#FEFEFE" stroke-width="3" stroke-linecap="round" stroke-linejoin="round"/>
<path d="M20 28C20 29.0609 20.4214 30.0783 21.1716 30.8284C21.9217 31.5786 22.9391 32 24 32C25.0609 32 26.0783 31.5786 26.8284 30.8284C27.5786 30.0783 28 29.0609 28 28C28 26.9391 27.5786 25.9217 26.8284 25.1716C26.0783 24.4214 25.0609 24 24 24C22.9391 24 21.9217 24.4214 21.1716 25.1716C20.4214 25.9217 20 26.9391 20 28Z" stroke="#FEFEFE" stroke-width="3" stroke-linecap="round" stroke-linejoin="round"/>
<path d="M28 8V16H16V8" stroke="#FEFEFE" stroke-width="3" stroke-linecap="round" stroke-linejoin="round"/>
</g>
<defs>
<clipPath id="clip0_43_87">
<rect width="48" height="48" fill="white"/>
</clipPath>
</defs>
</svg>
