<svg width="452" height="474" viewBox="0 0 452 474" fill="none" xmlns="http://www.w3.org/2000/svg">
<path d="M448 222.467H443V199.415H448V222.467Z" fill="#271406"/>
<path d="M103.5 383.836V379.326H77.5V375.317H72.5V383.836H103.5Z" fill="#271406"/>
<path d="M448 222.467H443V199.415H448V222.467Z" stroke="#B27C40" stroke-width="0.5"/>
<path d="M103.5 383.836V379.326H77.5V375.317H72.5V383.836H103.5Z" stroke="#B27C40" stroke-width="0.5"/>
<path d="M158 417.913H113.5V379.327H128.5V350.259H77.5V365.794H16V333.723H31V320.898H1.5V266.068H8.5V238.002H1V205.931H35V192.898H2.5V176.363H8.5V160.828H16V145.793H78V160.828H91V125.745H76V63.6055H138V78.1387H165.539V18.001H265V78.1387H308V63.6055H393V90.377L392.849 90.5234L377 105.913V125.745H375V146.295H437V163.832H427V164.837H451.5V189.391H407.5V231.99H451.5V309.164H444.5V316.389L444.354 316.535L436.854 324.052L436.707 324.199H385V329.213H392V346.249H295V363.792H310V417.412H250V455.499H158V417.913ZM248.5 64.1055V35.0391H219V64.1055H248.5ZM319.5 165.337V146.794H334.5V102.192L327 94.6748H279.5V110.211H234V94.6748H204V121.236H200.5V128.252H204V153.811H211V146.794H298V172.854L319.5 165.337ZM151.5 259.051V232.991H196V192.398H158.5V138.776H173.5V128.252H177V121.236H173.5V110.211H129.5V192.398H62.5V206.431L77 221.465H92.5V225.475H95V221.465H129.5V259.051H151.5ZM308.5 296.637V282.604H301V248.025H383.5V188.891H369V195.906H282V162.831H256.5V296.637H308.5ZM225 326.706V267.57L222 266.067V253.037L225 251.032V191.396H233.5V177.364H212V203.424L214 206.932L212 209.938V222.468L214 225.976L212 228.982V241.511L214 244.518L212 247.524V260.555H196V241.511H174.5V267.57H114.5V304.154H196V279.097L197.5 277.594H210.5L212 280.601V326.706H225ZM46.5 266.568V238.003H18V266.568H46.5ZM98.5 334.223V267.57L95 252.536V248.527H92.5V305.156H55V334.223H98.5ZM360.5 330.214V323.699H353L345.5 316.182V271.078H324.5V330.214H360.5ZM272 386.342L278.5 379.326V312.173H242V349.759H196.5L181.5 334.724V320.19H144.5V386.342H272Z" fill="#271406"/>
<path d="M158 417.913H158.5V417.413H158V417.913ZM113.5 417.913H113V418.413H113.5V417.913ZM113.5 379.327V378.827H113V379.327H113.5ZM128.5 379.327V379.827H129V379.327H128.5ZM128.5 350.259H129V349.759H128.5V350.259ZM77.5 350.259V349.759H77V350.259H77.5ZM77.5 365.794V366.294H78V365.794H77.5ZM16 365.794H15.5V366.294H16V365.794ZM16 333.723V333.223H15.5V333.723H16ZM31 333.723V334.223H31.5V333.723H31ZM31 320.898H31.5V320.398H31V320.898ZM1.5 320.898H1V321.398H1.5V320.898ZM1.5 266.068V265.568H1V266.068H1.5ZM8.5 266.068V266.568H9V266.068H8.5ZM8.5 238.002H9V237.502H8.5V238.002ZM1 238.002H0.5V238.502H1V238.002ZM1 205.931V205.431H0.5V205.931H1ZM35 205.931V206.431H35.5V205.931H35ZM35 192.898H35.5V192.398H35V192.898ZM2.5 192.898H2V193.398H2.5V192.898ZM2.5 176.363V175.863H2V176.363H2.5ZM8.5 176.363V176.863H9V176.363H8.5ZM8.5 160.828V160.328H8V160.828H8.5ZM16 160.828V161.328H16.5V160.828H16ZM16 145.793V145.293H15.5V145.793H16ZM78 145.793H78.5V145.293H78V145.793ZM78 160.828H77.5V161.328H78V160.828ZM91 160.828V161.328H91.5V160.828H91ZM91 125.745H91.5V125.245H91V125.745ZM76 125.745H75.5V126.245H76V125.745ZM76 63.6055V63.1055H75.5V63.6055H76ZM138 63.6055H138.5V63.1055H138V63.6055ZM138 78.1387H137.5V78.6387H138V78.1387ZM165.539 78.1387V78.6387H166.039V78.1387H165.539ZM165.539 18.001V17.501H165.039V18.001H165.539ZM265 18.001H265.5V17.501H265V18.001ZM265 78.1387H264.5V78.6387H265V78.1387ZM308 78.1387V78.6387H308.5V78.1387H308ZM308 63.6055V63.1055H307.5V63.6055H308ZM393 63.6055H393.5V63.1055H393V63.6055ZM393 90.377L393.348 90.7363L393.5 90.5889V90.377H393ZM392.849 90.5234L392.501 90.1641L392.5 90.1647L392.849 90.5234ZM377 105.913L376.652 105.554L376.5 105.702V105.913H377ZM377 125.745V126.245H377.5V125.745H377ZM375 125.745V125.245H374.5V125.745H375ZM375 146.295H374.5V146.795H375V146.295ZM437 146.295H437.5V145.795H437V146.295ZM437 163.832V164.332H437.5V163.832H437ZM427 163.832V163.332H426.5V163.832H427ZM427 164.837H426.5V165.337H427V164.837ZM451.5 164.837H452V164.337H451.5V164.837ZM451.5 189.391V189.891H452V189.391H451.5ZM407.5 189.391V188.891H407V189.391H407.5ZM407.5 231.99H407V232.49H407.5V231.99ZM451.5 231.99H452V231.49H451.5V231.99ZM451.5 309.164V309.664H452V309.164H451.5ZM444.5 309.164V308.664H444V309.164H444.5ZM444.5 316.389L444.854 316.742L445 316.596V316.389H444.5ZM444.354 316.535L444 316.182L444 316.182L444.354 316.535ZM436.854 324.052L436.5 323.699L436.499 323.699L436.854 324.052ZM436.707 324.199V324.699H436.915L437.062 324.552L436.707 324.199ZM385 324.199V323.699H384.5V324.199H385ZM385 329.213H384.5V329.713H385V329.213ZM392 329.213H392.5V328.713H392V329.213ZM392 346.249V346.749H392.5V346.249H392ZM295 346.249V345.749H294.5V346.249H295ZM295 363.792H294.5V364.292H295V363.792ZM310 363.792H310.5V363.292H310V363.792ZM310 417.412V417.912H310.5V417.412H310ZM250 417.412V416.912H249.5V417.412H250ZM250 455.499V455.999H250.5V455.499H250ZM158 455.499H157.5V455.999H158V455.499ZM248.5 64.1055V64.6055H249V64.1055H248.5ZM248.5 35.0391H249V34.5391H248.5V35.0391ZM219 35.0391V34.5391H218.5V35.0391H219ZM219 64.1055H218.5V64.6055H219V64.1055ZM319.5 165.337L319.665 165.809L320 165.692V165.337H319.5ZM319.5 146.794V146.294H319V146.794H319.5ZM334.5 146.794V147.294H335V146.794H334.5ZM334.5 102.192H335V101.986L334.854 101.839L334.5 102.192ZM327 94.6748L327.354 94.3217L327.207 94.1748H327V94.6748ZM279.5 94.6748V94.1748H279V94.6748H279.5ZM279.5 110.211V110.711H280V110.211H279.5ZM234 110.211H233.5V110.711H234V110.211ZM234 94.6748H234.5V94.1748H234V94.6748ZM204 94.6748V94.1748H203.5V94.6748H204ZM204 121.236V121.736H204.5V121.236H204ZM200.5 121.236V120.736H200V121.236H200.5ZM200.5 128.252H200V128.752H200.5V128.252ZM204 128.252H204.5V127.752H204V128.252ZM204 153.811H203.5V154.311H204V153.811ZM211 153.811V154.311H211.5V153.811H211ZM211 146.794V146.294H210.5V146.794H211ZM298 146.794H298.5V146.294H298V146.794ZM298 172.854H297.5V173.558L298.165 173.326L298 172.854ZM151.5 259.051V259.551H152V259.051H151.5ZM151.5 232.991V232.491H151V232.991H151.5ZM196 232.991V233.491H196.5V232.991H196ZM196 192.398H196.5V191.898H196V192.398ZM158.5 192.398H158V192.898H158.5V192.398ZM158.5 138.776V138.276H158V138.776H158.5ZM173.5 138.776V139.276H174V138.776H173.5ZM173.5 128.252V127.752H173V128.252H173.5ZM177 128.252V128.752H177.5V128.252H177ZM177 121.236H177.5V120.736H177V121.236ZM173.5 121.236H173V121.736H173.5V121.236ZM173.5 110.211H174V109.711H173.5V110.211ZM129.5 110.211V109.711H129V110.211H129.5ZM129.5 192.398V192.898H130V192.398H129.5ZM62.5 192.398V191.898H62V192.398H62.5ZM62.5 206.431H62V206.632L62.1401 206.778L62.5 206.431ZM77 221.465L76.6401 221.812L76.7876 221.965H77V221.465ZM92.5 221.465H93V220.965H92.5V221.465ZM92.5 225.475H92V225.975H92.5V225.475ZM95 225.475V225.975H95.5V225.475H95ZM95 221.465V220.965H94.5V221.465H95ZM129.5 221.465H130V220.965H129.5V221.465ZM129.5 259.051H129V259.551H129.5V259.051ZM308.5 296.637V297.137H309V296.637H308.5ZM308.5 282.604H309V282.104H308.5V282.604ZM301 282.604H300.5V283.104H301V282.604ZM301 248.025V247.525H300.5V248.025H301ZM383.5 248.025V248.525H384V248.025H383.5ZM383.5 188.891H384V188.391H383.5V188.891ZM369 188.891V188.391H368.5V188.891H369ZM369 195.906V196.406H369.5V195.906H369ZM282 195.906H281.5V196.406H282V195.906ZM282 162.831H282.5V162.331H282V162.831ZM256.5 162.831V162.331H256V162.831H256.5ZM256.5 296.637H256V297.137H256.5V296.637ZM225 326.706V327.206H225.5V326.706H225ZM225 267.57H225.5V267.262L225.224 267.123L225 267.57ZM222 266.067H221.5V266.376L221.776 266.514L222 266.067ZM222 253.037L221.722 252.621L221.5 252.77V253.037H222ZM225 251.032L225.278 251.448L225.5 251.299V251.032H225ZM225 191.396V190.896H224.5V191.396H225ZM233.5 191.396V191.896H234V191.396H233.5ZM233.5 177.364H234V176.864H233.5V177.364ZM212 177.364V176.864H211.5V177.364H212ZM212 203.424H211.5V203.556L211.566 203.671L212 203.424ZM214 206.932L214.416 207.209L214.587 206.952L214.434 206.684L214 206.932ZM212 209.938L211.584 209.662L211.5 209.787V209.938H212ZM212 222.468H211.5V222.6L211.566 222.715L212 222.468ZM214 225.976L214.416 226.252L214.587 225.996L214.434 225.728L214 225.976ZM212 228.982L211.584 228.706L211.5 228.831V228.982H212ZM212 241.511H211.5V241.662L211.584 241.788L212 241.511ZM214 244.518L214.416 244.794L214.601 244.518L214.416 244.241L214 244.518ZM212 247.524L211.584 247.248L211.5 247.373V247.524H212ZM212 260.555V261.055H212.5V260.555H212ZM196 260.555H195.5V261.055H196V260.555ZM196 241.511H196.5V241.011H196V241.511ZM174.5 241.511V241.011H174V241.511H174.5ZM174.5 267.57V268.07H175V267.57H174.5ZM114.5 267.57V267.07H114V267.57H114.5ZM114.5 304.154H114V304.654H114.5V304.154ZM196 304.154V304.654H196.5V304.154H196ZM196 279.097L195.646 278.743L195.5 278.89V279.097H196ZM197.5 277.594V277.094H197.293L197.146 277.241L197.5 277.594ZM210.5 277.594L210.947 277.371L210.809 277.094H210.5V277.594ZM212 280.601H212.5V280.483L212.447 280.377L212 280.601ZM212 326.706H211.5V327.206H212V326.706ZM46.5 266.568V267.068H47V266.568H46.5ZM46.5 238.003H47V237.503H46.5V238.003ZM18 238.003V237.503H17.5V238.003H18ZM18 266.568H17.5V267.068H18V266.568ZM98.5 334.223V334.723H99V334.223H98.5ZM98.5 267.57H99V267.513L98.987 267.457L98.5 267.57ZM95 252.536H94.5V252.594L94.513 252.65L95 252.536ZM95 248.527H95.5V248.027H95V248.527ZM92.5 248.527V248.027H92V248.527H92.5ZM92.5 305.156V305.656H93V305.156H92.5ZM55 305.156V304.656H54.5V305.156H55ZM55 334.223H54.5V334.723H55V334.223ZM360.5 330.214V330.714H361V330.214H360.5ZM360.5 323.699H361V323.199H360.5V323.699ZM353 323.699L352.646 324.052L352.793 324.199H353V323.699ZM345.5 316.182H345V316.388L345.146 316.535L345.5 316.182ZM345.5 271.078H346V270.578H345.5V271.078ZM324.5 271.078V270.578H324V271.078H324.5ZM324.5 330.214H324V330.714H324.5V330.214ZM272 386.342V386.842H272.218L272.367 386.682L272 386.342ZM278.5 379.326L278.867 379.666L279 379.522V379.326H278.5ZM278.5 312.173H279V311.673H278.5V312.173ZM242 312.173V311.673H241.5V312.173H242ZM242 349.759V350.259H242.5V349.759H242ZM196.5 349.759L196.146 350.112L196.293 350.259H196.5V349.759ZM181.5 334.724H181V334.93L181.146 335.077L181.5 334.724ZM181.5 320.19H182V319.69H181.5V320.19ZM144.5 320.19V319.69H144V320.19H144.5ZM144.5 386.342H144V386.842H144.5V386.342ZM158 417.913V417.413H113.5V417.913V418.413H158V417.913ZM113.5 417.913H114V379.327H113.5H113V417.913H113.5ZM113.5 379.327V379.827H128.5V379.327V378.827H113.5V379.327ZM128.5 379.327H129V350.259H128.5H128V379.327H128.5ZM128.5 350.259V349.759H77.5V350.259V350.759H128.5V350.259ZM77.5 350.259H77V365.794H77.5H78V350.259H77.5ZM77.5 365.794V365.294H16V365.794V366.294H77.5V365.794ZM16 365.794H16.5V333.723H16H15.5V365.794H16ZM16 333.723V334.223H31V333.723V333.223H16V333.723ZM31 333.723H31.5V320.898H31H30.5V333.723H31ZM31 320.898V320.398H1.5V320.898V321.398H31V320.898ZM1.5 320.898H2V266.068H1.5H1V320.898H1.5ZM1.5 266.068V266.568H8.5V266.068V265.568H1.5V266.068ZM8.5 266.068H9V238.002H8.5H8V266.068H8.5ZM8.5 238.002V237.502H1V238.002V238.502H8.5V238.002ZM1 238.002H1.5V205.931H1H0.5V238.002H1ZM1 205.931V206.431H35V205.931V205.431H1V205.931ZM35 205.931H35.5V192.898H35H34.5V205.931H35ZM35 192.898V192.398H2.5V192.898V193.398H35V192.898ZM2.5 192.898H3V176.363H2.5H2V192.898H2.5ZM2.5 176.363V176.863H8.5V176.363V175.863H2.5V176.363ZM8.5 176.363H9V160.828H8.5H8V176.363H8.5ZM8.5 160.828V161.328H16V160.828V160.328H8.5V160.828ZM16 160.828H16.5V145.793H16H15.5V160.828H16ZM16 145.793V146.293H78V145.793V145.293H16V145.793ZM78 145.793H77.5V160.828H78H78.5V145.793H78ZM78 160.828V161.328H91V160.828V160.328H78V160.828ZM91 160.828H91.5V125.745H91H90.5V160.828H91ZM91 125.745V125.245H76V125.745V126.245H91V125.745ZM76 125.745H76.5V63.6055H76H75.5V125.745H76ZM76 63.6055V64.1055H138V63.6055V63.1055H76V63.6055ZM138 63.6055H137.5V78.1387H138H138.5V63.6055H138ZM138 78.1387V78.6387H165.539V78.1387V77.6387H138V78.1387ZM165.539 78.1387H166.039V18.001H165.539H165.039V78.1387H165.539ZM165.539 18.001V18.501H265V18.001V17.501H165.539V18.001ZM265 18.001H264.5V78.1387H265H265.5V18.001H265ZM265 78.1387V78.6387H308V78.1387V77.6387H265V78.1387ZM308 78.1387H308.5V63.6055H308H307.5V78.1387H308ZM308 63.6055V64.1055H393V63.6055V63.1055H308V63.6055ZM393 63.6055H392.5V90.377H393H393.5V63.6055H393ZM393 90.377L392.652 90.0177L392.501 90.1641L392.849 90.5234L393.196 90.8827L393.348 90.7363L393 90.377ZM392.849 90.5234L392.5 90.1647L376.652 105.554L377 105.913L377.348 106.272L393.197 90.8821L392.849 90.5234ZM377 105.913H376.5V125.745H377H377.5V105.913H377ZM377 125.745V125.245H375V125.745V126.245H377V125.745ZM375 125.745H374.5V146.295H375H375.5V125.745H375ZM375 146.295V146.795H437V146.295V145.795H375V146.295ZM437 146.295H436.5V163.832H437H437.5V146.295H437ZM437 163.832V163.332H427V163.832V164.332H437V163.832ZM427 163.832H426.5V164.837H427H427.5V163.832H427ZM427 164.837V165.337H451.5V164.837V164.337H427V164.837ZM451.5 164.837H451V189.391H451.5H452V164.837H451.5ZM451.5 189.391V188.891H407.5V189.391V189.891H451.5V189.391ZM407.5 189.391H407V231.99H407.5H408V189.391H407.5ZM407.5 231.99V232.49H451.5V231.99V231.49H407.5V231.99ZM451.5 231.99H451V309.164H451.5H452V231.99H451.5ZM451.5 309.164V308.664H444.5V309.164V309.664H451.5V309.164ZM444.5 309.164H444V316.389H444.5H445V309.164H444.5ZM444.5 316.389L444.146 316.035L444 316.182L444.354 316.535L444.707 316.889L444.854 316.742L444.5 316.389ZM444.354 316.535L444 316.182L436.5 323.699L436.854 324.052L437.207 324.405L444.707 316.888L444.354 316.535ZM436.854 324.052L436.499 323.699L436.352 323.847L436.707 324.199L437.062 324.552L437.208 324.404L436.854 324.052ZM436.707 324.199V323.699H385V324.199V324.699H436.707V324.199ZM385 324.199H384.5V329.213H385H385.5V324.199H385ZM385 329.213V329.713H392V329.213V328.713H385V329.213ZM392 329.213H391.5V346.249H392H392.5V329.213H392ZM392 346.249V345.749H295V346.249V346.749H392V346.249ZM295 346.249H294.5V363.792H295H295.5V346.249H295ZM295 363.792V364.292H310V363.792V363.292H295V363.792ZM310 363.792H309.5V417.412H310H310.5V363.792H310ZM310 417.412V416.912H250V417.412V417.912H310V417.412ZM250 417.412H249.5V455.499H250H250.5V417.412H250ZM250 455.499V454.999H158V455.499V455.999H250V455.499ZM158 455.499H158.5V417.913H158H157.5V455.499H158ZM248.5 64.1055H249V35.0391H248.5H248V64.1055H248.5ZM248.5 35.0391V34.5391H219V35.0391V35.5391H248.5V35.0391ZM219 35.0391H218.5V64.1055H219H219.5V35.0391H219ZM219 64.1055V64.6055H248.5V64.1055V63.6055H219V64.1055ZM319.5 165.337H320V146.794H319.5H319V165.337H319.5ZM319.5 146.794V147.294H334.5V146.794V146.294H319.5V146.794ZM334.5 146.794H335V102.192H334.5H334V146.794H334.5ZM334.5 102.192L334.854 101.839L327.354 94.3217L327 94.6748L326.646 95.0279L334.146 102.546L334.5 102.192ZM327 94.6748V94.1748H279.5V94.6748V95.1748H327V94.6748ZM279.5 94.6748H279V110.211H279.5H280V94.6748H279.5ZM279.5 110.211V109.711H234V110.211V110.711H279.5V110.211ZM234 110.211H234.5V94.6748H234H233.5V110.211H234ZM234 94.6748V94.1748H204V94.6748V95.1748H234V94.6748ZM204 94.6748H203.5V121.236H204H204.5V94.6748H204ZM204 121.236V120.736H200.5V121.236V121.736H204V121.236ZM200.5 121.236H200V128.252H200.5H201V121.236H200.5ZM200.5 128.252V128.752H204V128.252V127.752H200.5V128.252ZM204 128.252H203.5V153.811H204H204.5V128.252H204ZM204 153.811V154.311H211V153.811V153.311H204V153.811ZM211 153.811H211.5V146.794H211H210.5V153.811H211ZM211 146.794V147.294H298V146.794V146.294H211V146.794ZM298 146.794H297.5V172.854H298H298.5V146.794H298ZM298 172.854L298.165 173.326L319.665 165.809L319.5 165.337L319.335 164.865L297.835 172.382L298 172.854ZM151.5 259.051H152V232.991H151.5H151V259.051H151.5ZM151.5 232.991V233.491H196V232.991V232.491H151.5V232.991ZM196 232.991H196.5V192.398H196H195.5V232.991H196ZM196 192.398V191.898H158.5V192.398V192.898H196V192.398ZM158.5 192.398H159V138.776H158.5H158V192.398H158.5ZM158.5 138.776V139.276H173.5V138.776V138.276H158.5V138.776ZM173.5 138.776H174V128.252H173.5H173V138.776H173.5ZM173.5 128.252V128.752H177V128.252V127.752H173.5V128.252ZM177 128.252H177.5V121.236H177H176.5V128.252H177ZM177 121.236V120.736H173.5V121.236V121.736H177V121.236ZM173.5 121.236H174V110.211H173.5H173V121.236H173.5ZM173.5 110.211V109.711H129.5V110.211V110.711H173.5V110.211ZM129.5 110.211H129V192.398H129.5H130V110.211H129.5ZM129.5 192.398V191.898H62.5V192.398V192.898H129.5V192.398ZM62.5 192.398H62V206.431H62.5H63V192.398H62.5ZM62.5 206.431L62.1401 206.778L76.6401 221.812L77 221.465L77.3599 221.118L62.8599 206.084L62.5 206.431ZM77 221.465V221.965H92.5V221.465V220.965H77V221.465ZM92.5 221.465H92V225.475H92.5H93V221.465H92.5ZM92.5 225.475V225.975H95V225.475V224.975H92.5V225.475ZM95 225.475H95.5V221.465H95H94.5V225.475H95ZM95 221.465V221.965H129.5V221.465V220.965H95V221.465ZM129.5 221.465H129V259.051H129.5H130V221.465H129.5ZM129.5 259.051V259.551H151.5V259.051V258.551H129.5V259.051ZM308.5 296.637H309V282.604H308.5H308V296.637H308.5ZM308.5 282.604V282.104H301V282.604V283.104H308.5V282.604ZM301 282.604H301.5V248.025H301H300.5V282.604H301ZM301 248.025V248.525H383.5V248.025V247.525H301V248.025ZM383.5 248.025H384V188.891H383.5H383V248.025H383.5ZM383.5 188.891V188.391H369V188.891V189.391H383.5V188.891ZM369 188.891H368.5V195.906H369H369.5V188.891H369ZM369 195.906V195.406H282V195.906V196.406H369V195.906ZM282 195.906H282.5V162.831H282H281.5V195.906H282ZM282 162.831V162.331H256.5V162.831V163.331H282V162.831ZM256.5 162.831H256V296.637H256.5H257V162.831H256.5ZM256.5 296.637V297.137H308.5V296.637V296.137H256.5V296.637ZM225 326.706H225.5V267.57H225H224.5V326.706H225ZM225 267.57L225.224 267.123L222.224 265.62L222 266.067L221.776 266.514L224.776 268.017L225 267.57ZM222 266.067H222.5V253.037H222H221.5V266.067H222ZM222 253.037L222.278 253.453L225.278 251.448L225 251.032L224.722 250.617L221.722 252.621L222 253.037ZM225 251.032H225.5V191.396H225H224.5V251.032H225ZM225 191.396V191.896H233.5V191.396V190.896H225V191.396ZM233.5 191.396H234V177.364H233.5H233V191.396H233.5ZM233.5 177.364V176.864H212V177.364V177.864H233.5V177.364ZM212 177.364H211.5V203.424H212H212.5V177.364H212ZM212 203.424L211.566 203.671L213.566 207.179L214 206.932L214.434 206.684L212.434 203.176L212 203.424ZM214 206.932L213.584 206.655L211.584 209.662L212 209.938L212.416 210.215L214.416 207.209L214 206.932ZM212 209.938H211.5V222.468H212H212.5V209.938H212ZM212 222.468L211.566 222.715L213.566 226.223L214 225.976L214.434 225.728L212.434 222.22L212 222.468ZM214 225.976L213.584 225.699L211.584 228.706L212 228.982L212.416 229.259L214.416 226.252L214 225.976ZM212 228.982H211.5V241.511H212H212.5V228.982H212ZM212 241.511L211.584 241.788L213.584 244.794L214 244.518L214.416 244.241L212.416 241.234L212 241.511ZM214 244.518L213.584 244.241L211.584 247.248L212 247.524L212.416 247.801L214.416 244.794L214 244.518ZM212 247.524H211.5V260.555H212H212.5V247.524H212ZM212 260.555V260.055H196V260.555V261.055H212V260.555ZM196 260.555H196.5V241.511H196H195.5V260.555H196ZM196 241.511V241.011H174.5V241.511V242.011H196V241.511ZM174.5 241.511H174V267.57H174.5H175V241.511H174.5ZM174.5 267.57V267.07H114.5V267.57V268.07H174.5V267.57ZM114.5 267.57H114V304.154H114.5H115V267.57H114.5ZM114.5 304.154V304.654H196V304.154V303.654H114.5V304.154ZM196 304.154H196.5V279.097H196H195.5V304.154H196ZM196 279.097L196.354 279.45L197.854 277.947L197.5 277.594L197.146 277.241L195.646 278.743L196 279.097ZM197.5 277.594V278.094H210.5V277.594V277.094H197.5V277.594ZM210.5 277.594L210.053 277.817L211.553 280.824L212 280.601L212.447 280.377L210.947 277.371L210.5 277.594ZM212 280.601H211.5V326.706H212H212.5V280.601H212ZM212 326.706V327.206H225V326.706V326.206H212V326.706ZM46.5 266.568H47V238.003H46.5H46V266.568H46.5ZM46.5 238.003V237.503H18V238.003V238.503H46.5V238.003ZM18 238.003H17.5V266.568H18H18.5V238.003H18ZM18 266.568V267.068H46.5V266.568V266.068H18V266.568ZM98.5 334.223H99V267.57H98.5H98V334.223H98.5ZM98.5 267.57L98.987 267.457L95.487 252.423L95 252.536L94.513 252.65L98.013 267.684L98.5 267.57ZM95 252.536H95.5V248.527H95H94.5V252.536H95ZM95 248.527V248.027H92.5V248.527V249.027H95V248.527ZM92.5 248.527H92V305.156H92.5H93V248.527H92.5ZM92.5 305.156V304.656H55V305.156V305.656H92.5V305.156ZM55 305.156H54.5V334.223H55H55.5V305.156H55ZM55 334.223V334.723H98.5V334.223V333.723H55V334.223ZM360.5 330.214H361V323.699H360.5H360V330.214H360.5ZM360.5 323.699V323.199H353V323.699V324.199H360.5V323.699ZM353 323.699L353.354 323.346L345.854 315.829L345.5 316.182L345.146 316.535L352.646 324.052L353 323.699ZM345.5 316.182H346V271.078H345.5H345V316.182H345.5ZM345.5 271.078V270.578H324.5V271.078V271.578H345.5V271.078ZM324.5 271.078H324V330.214H324.5H325V271.078H324.5ZM324.5 330.214V330.714H360.5V330.214V329.714H324.5V330.214ZM272 386.342L272.367 386.682L278.867 379.666L278.5 379.326L278.133 378.986L271.633 386.002L272 386.342ZM278.5 379.326H279V312.173H278.5H278V379.326H278.5ZM278.5 312.173V311.673H242V312.173V312.673H278.5V312.173ZM242 312.173H241.5V349.759H242H242.5V312.173H242ZM242 349.759V349.259H196.5V349.759V350.259H242V349.759ZM196.5 349.759L196.854 349.406L181.854 334.37L181.5 334.724L181.146 335.077L196.146 350.112L196.5 349.759ZM181.5 334.724H182V320.19H181.5H181V334.724H181.5ZM181.5 320.19V319.69H144.5V320.19V320.69H181.5V320.19ZM144.5 320.19H144V386.342H144.5H145V320.19H144.5ZM144.5 386.342V386.842H272V386.342V385.842H144.5V386.342Z" fill="#B27C40"/>
<path d="M225 191.396H212M225 281.101H212M196 278.596V260.053M113.5 379.326C113.1 379.326 89.3333 379.326 77.5 379.326V365.294M358 163.332V165.337H400.5V163.332H358ZM358 163.332V159.323M358 150.302V125.245H360.5M372.5 125.245H377M417 164.335V171.351H410V164.335M256.5 244.518H241.5V237.502H256.5M277.5 379.827L282.5 385.34L278 389.85L273 385.34M222 326.706V334.223H215V326.706M31.5 365.795V357.777M31.5 357.777H16M31.5 357.777V349.758H16M1 213.948H17V205.93M1 205.93V192.399H2.5M181.5 177.364V169.346H173.5M114.5 180.371V173.355M69.5 192.399V184.881H62.5V192.399M72.5 216.454L66.5 222.467L61.5 217.456L67 211.442M333.5 101.19L344 90.6661L339.5 85.6547L328.5 96.1787M308.5 296.136V307.662H301.5V296.637M383.5 247.525V270.076H376V248.026M443 225.474V196.408H414.5V225.474H443Z" stroke="#B27C40"/>
<path d="M376 262.058H369.5V259.051M369.5 247.525V259.051M369.5 259.051C369.9 259.051 374 259.051 376 259.051M426.5 163.833H400.5M358 159.323V149.3M334 146.293V160.827H327M319.5 160.827H327M319.5 164.836H327V160.827M298 172.353V195.406M211 149.801H218.5V146.293M211 153.309V161.829H204V153.309M173.5 161.829V176.863H212M253 237.001V232.991M256.5 228.982H253V232.991M253 232.991H249.5V237.001M250 417.413C248.4 417.413 228.333 417.413 218.5 417.413M243 454.999V449.486H230.5V454.999M212 454.999V449.486H199.5V454.999M181 454.999V449.486H169V454.999M162 454.999V449.987H158M113.5 409.896H158.5M151.5 385.841V390.351M144.5 385.841V394.36H151.5V390.351M151.5 390.351H155.5V385.841" stroke="#B27C40" stroke-width="0.5"/>
<path d="M421 292.628H425.5V308.163H353.5V293.129H345.5M421 292.628H406.5V285.612H410.5M421 292.628V285.612M421 285.612H413.75M421 285.612V270.076M413.75 285.612V278.094M413.75 285.612H410.5M413.75 278.094H410.5V285.612M413.75 278.094V270.076H421M421 270.076V248.026H435.5V292.628H432V308.163H451.5" stroke="#B27C40"/>
<path d="M128.5 379.326H130M143 379.326H144.5M128.5 350.259H130.5M143 350.259H144.5M98.5 304.154H100.5M113 304.154H114.5" stroke="#B27C40"/>
<path d="M125.5 304.154V307.662H121.5M121.5 307.662V304.154M121.5 307.662V311.671H114.5V304.154M46.5 266.568H69V281.603H24.5V266.568" stroke="#B27C40" stroke-width="0.5"/>
<path d="M69 266.568C69 265.766 69 261.891 69 260.053H61.5M54 260.053V266.568M54 260.053H61.5M54 260.053V256.545M46.5 252.035H54V256.545M61.5 260.053V256.545H54M92.5 248.026V225.474M114.5 192.399V132.261M103 87.6592V93.6729H118V87.6592M103 87.6592V83.1489H118V87.158V87.6592M103 87.6592H118M50.5 145.291V161.328H46.5M8.5 161.328H28.5M46.5 161.328V145.291M46.5 161.328H35.5M35.5 161.328V158.822H28.5V161.328M35.5 161.328H28.5" stroke="#B27C40" stroke-width="0.5"/>
<path d="M234 64.1054V94.6753M393 81.6455H387V68.6157H377V63.1031" stroke="#B27C40" stroke-width="0.5"/>
<path d="M432.5 293.129H436V263.562H451V307.662H432.5V293.129ZM376.499 263.562H376.5V270.577H384V263.562H420.5V269.575H413.248V277.594H409.999V285.11H406V293.129H425V307.662H376.499V263.562Z" fill="#F08234" fill-opacity="0.23"/>
<path d="M391.289 286.589V278.589H394.352C394.93 278.589 395.41 278.68 395.793 278.862C396.178 279.042 396.466 279.288 396.656 279.601C396.849 279.913 396.945 280.267 396.945 280.663C396.945 280.989 396.883 281.267 396.758 281.499C396.633 281.728 396.465 281.914 396.254 282.058C396.043 282.201 395.807 282.304 395.547 282.366V282.444C395.831 282.46 396.103 282.547 396.363 282.706C396.626 282.862 396.841 283.084 397.008 283.37C397.174 283.657 397.258 284.003 397.258 284.409C397.258 284.823 397.158 285.196 396.957 285.526C396.757 285.854 396.454 286.114 396.051 286.304C395.647 286.494 395.139 286.589 394.527 286.589H391.289ZM392.738 285.378H394.297C394.823 285.378 395.202 285.278 395.434 285.077C395.668 284.874 395.785 284.614 395.785 284.296C395.785 284.059 395.727 283.845 395.609 283.655C395.492 283.463 395.326 283.312 395.109 283.202C394.893 283.09 394.635 283.034 394.336 283.034H392.738V285.378ZM392.738 281.991H394.172C394.422 281.991 394.647 281.946 394.848 281.854C395.048 281.761 395.206 281.629 395.32 281.46C395.438 281.288 395.496 281.085 395.496 280.851C395.496 280.541 395.387 280.285 395.168 280.085C394.952 279.884 394.63 279.784 394.203 279.784H392.738V281.991Z" fill="white"/>
<path d="M8.5 297.639H2V266.568H8.5V297.639Z" fill="#F08234" fill-opacity="0.23"/>
<path d="M8.5 244.518H17.5V266.568H24.2568V281.846H69.2568V266.568H69.2461V259.812H46V259.797H61.7441V256.317H46V256.305H54.2334V251.793H46V244.518H76.5V297.639H8.5V244.518Z" fill="#F08234" fill-opacity="0.23"/>
<path d="M51.6836 295.609H53.2305L50.4141 287.609H48.625L45.8047 295.609H47.3516L49.4883 289.25H49.5508L51.6836 295.609ZM51.6328 292.473H47.4141V293.637H51.6328V292.473Z" fill="white"/>
</svg>
