<svg width="452" height="474" viewBox="0 0 452 474" fill="none" xmlns="http://www.w3.org/2000/svg">
<path d="M4.5 251.533H9.5V274.585H4.5V251.533Z" fill="#271406"/>
<path d="M349 90.1638V94.6741H375V98.6833H380V90.1638H349Z" fill="#271406"/>
<path d="M4.5 251.533H9.5V274.585H4.5V251.533Z" stroke="#B27C40" stroke-width="0.5"/>
<path d="M349 90.1638V94.6741H375V98.6833H380V90.1638H349Z" stroke="#B27C40" stroke-width="0.5"/>
<path d="M294.5 56.0869H339V94.6729H324V123.741H375V108.206H436.5V140.277H421.5V153.102H451V207.932H444V235.998H451.5V268.069H417.5V281.102H450V297.637H444V313.172H436.5V328.207H374.5V313.172H361.5V348.255H376.5V410.395H314.5V395.861H286.961V455.999H187.5V395.861H144.5V410.395H59.5V383.623L59.6514 383.477L75.5 368.087V348.255H77.5V327.705H15.5V310.168H25.5V309.163H1V284.609H45V242.01H1V164.836H8V157.611L8.14648 157.465L15.6465 149.948L15.793 149.801H67.5V144.787H60.5V127.751H157.5V110.208H142.5V56.5879H202.5V18.501H294.5V56.0869ZM204 409.895V438.961H233.5V409.895H204ZM133 308.663V327.206H118V371.808L125.5 379.325H173V363.789H218.5V379.325H248.5V352.764H252V345.748H248.5V320.189H241.5V327.206H154.5V301.146L133 308.663ZM301 214.949V241.009H256.5V281.602H294V335.224H279V345.748H275.5V352.764H279V363.789H323V281.602H390V267.569L375.5 252.535H360V248.525H357.5V252.535H323V214.949H301ZM144 177.363V191.396H151.5V225.975H69V285.109H83.5V278.094H170.5V311.169H196V177.363H144ZM227.5 147.294V206.43L230.5 207.933V220.963L227.5 222.968V282.604H219V296.636H240.5V270.576L238.5 267.068L240.5 264.062V251.532L238.5 248.024L240.5 245.018V232.489L238.5 229.482L240.5 226.476V213.445H256.5V232.489H278V206.43H338V169.846H256.5V194.903L255 196.406H242L240.5 193.399V147.294H227.5ZM406 207.432V235.997H434.5V207.432H406ZM354 139.777V206.43L357.5 221.464V225.473H360V168.844H397.5V139.777H354ZM92 143.786V150.301H99.5L107 157.818V202.922H128V143.786H92ZM180.5 87.6582L174 94.6738V161.827H210.5V124.241H256L271 139.276V153.81H308V87.6582H180.5Z" fill="#271406"/>
<path d="M294.5 56.0869H294V56.5869H294.5V56.0869ZM339 56.0869H339.5V55.5869H339V56.0869ZM339 94.6729V95.1729H339.5V94.6729H339ZM324 94.6729V94.1729H323.5V94.6729H324ZM324 123.741H323.5V124.241H324V123.741ZM375 123.741V124.241H375.5V123.741H375ZM375 108.206V107.706H374.5V108.206H375ZM436.5 108.206H437V107.706H436.5V108.206ZM436.5 140.277V140.777H437V140.277H436.5ZM421.5 140.277V139.777H421V140.277H421.5ZM421.5 153.102H421V153.602H421.5V153.102ZM451 153.102H451.5V152.602H451V153.102ZM451 207.932V208.432H451.5V207.932H451ZM444 207.932V207.432H443.5V207.932H444ZM444 235.998H443.5V236.498H444V235.998ZM451.5 235.998H452V235.498H451.5V235.998ZM451.5 268.069V268.569H452V268.069H451.5ZM417.5 268.069V267.569H417V268.069H417.5ZM417.5 281.102H417V281.602H417.5V281.102ZM450 281.102H450.5V280.602H450V281.102ZM450 297.637V298.137H450.5V297.637H450ZM444 297.637V297.137H443.5V297.637H444ZM444 313.172V313.672H444.5V313.172H444ZM436.5 313.172V312.672H436V313.172H436.5ZM436.5 328.207V328.707H437V328.207H436.5ZM374.5 328.207H374V328.707H374.5V328.207ZM374.5 313.172H375V312.672H374.5V313.172ZM361.5 313.172V312.672H361V313.172H361.5ZM361.5 348.255H361V348.755H361.5V348.255ZM376.5 348.255H377V347.755H376.5V348.255ZM376.5 410.395V410.895H377V410.395H376.5ZM314.5 410.395H314V410.895H314.5V410.395ZM314.5 395.861H315V395.361H314.5V395.861ZM286.961 395.861V395.361H286.461V395.861H286.961ZM286.961 455.999V456.499H287.461V455.999H286.961ZM187.5 455.999H187V456.499H187.5V455.999ZM187.5 395.861H188V395.361H187.5V395.861ZM144.5 395.861V395.361H144V395.861H144.5ZM144.5 410.395V410.895H145V410.395H144.5ZM59.5 410.395H59V410.895H59.5V410.395ZM59.5 383.623L59.1523 383.264L59 383.411V383.623H59.5ZM59.6514 383.477L59.9991 383.836L59.9997 383.835L59.6514 383.477ZM75.5 368.087L75.8483 368.446L76 368.298V368.087H75.5ZM75.5 348.255V347.755H75V348.255H75.5ZM77.5 348.255V348.755H78V348.255H77.5ZM77.5 327.705H78V327.205H77.5V327.705ZM15.5 327.705H15V328.205H15.5V327.705ZM15.5 310.168V309.668H15V310.168H15.5ZM25.5 310.168V310.668H26V310.168H25.5ZM25.5 309.163H26V308.663H25.5V309.163ZM1 309.163H0.5V309.663H1V309.163ZM1 284.609V284.109H0.5V284.609H1ZM45 284.609V285.109H45.5V284.609H45ZM45 242.01H45.5V241.51H45V242.01ZM1 242.01H0.5V242.51H1V242.01ZM1 164.836V164.336H0.5V164.836H1ZM8 164.836V165.336H8.5V164.836H8ZM8 157.611L7.64645 157.258L7.5 157.404V157.611H8ZM8.14648 157.465L8.50004 157.818L8.50043 157.818L8.14648 157.465ZM15.6465 149.948L16.0004 150.301L16.0012 150.301L15.6465 149.948ZM15.793 149.801V149.301H15.5849L15.4382 149.448L15.793 149.801ZM67.5 149.801V150.301H68V149.801H67.5ZM67.5 144.787H68V144.287H67.5V144.787ZM60.5 144.787H60V145.287H60.5V144.787ZM60.5 127.751V127.251H60V127.751H60.5ZM157.5 127.751V128.251H158V127.751H157.5ZM157.5 110.208H158V109.708H157.5V110.208ZM142.5 110.208H142V110.708H142.5V110.208ZM142.5 56.5879V56.0879H142V56.5879H142.5ZM202.5 56.5879V57.0879H203V56.5879H202.5ZM202.5 18.501V18.001H202V18.501H202.5ZM294.5 18.501H295V18.001H294.5V18.501ZM204 409.895V409.395H203.5V409.895H204ZM204 438.961H203.5V439.461H204V438.961ZM233.5 438.961V439.461H234V438.961H233.5ZM233.5 409.895H234V409.395H233.5V409.895ZM133 308.663L132.835 308.191L132.5 308.308V308.663H133ZM133 327.206V327.706H133.5V327.206H133ZM118 327.206V326.706H117.5V327.206H118ZM118 371.808H117.5V372.014L117.646 372.161L118 371.808ZM125.5 379.325L125.146 379.678L125.293 379.825H125.5V379.325ZM173 379.325V379.825H173.5V379.325H173ZM173 363.789V363.289H172.5V363.789H173ZM218.5 363.789H219V363.289H218.5V363.789ZM218.5 379.325H218V379.825H218.5V379.325ZM248.5 379.325V379.825H249V379.325H248.5ZM248.5 352.764V352.264H248V352.764H248.5ZM252 352.764V353.264H252.5V352.764H252ZM252 345.748H252.5V345.248H252V345.748ZM248.5 345.748H248V346.248H248.5V345.748ZM248.5 320.189H249V319.689H248.5V320.189ZM241.5 320.189V319.689H241V320.189H241.5ZM241.5 327.206V327.706H242V327.206H241.5ZM154.5 327.206H154V327.706H154.5V327.206ZM154.5 301.146H155V300.442L154.335 300.674L154.5 301.146ZM301 214.949V214.449H300.5V214.949H301ZM301 241.009V241.509H301.5V241.009H301ZM256.5 241.009V240.509H256V241.009H256.5ZM256.5 281.602H256V282.102H256.5V281.602ZM294 281.602H294.5V281.102H294V281.602ZM294 335.224V335.724H294.5V335.224H294ZM279 335.224V334.724H278.5V335.224H279ZM279 345.748V346.248H279.5V345.748H279ZM275.5 345.748V345.248H275V345.748H275.5ZM275.5 352.764H275V353.264H275.5V352.764ZM279 352.764H279.5V352.264H279V352.764ZM279 363.789H278.5V364.289H279V363.789ZM323 363.789V364.289H323.5V363.789H323ZM323 281.602V281.102H322.5V281.602H323ZM390 281.602V282.102H390.5V281.602H390ZM390 267.569H390.5V267.368L390.36 267.222L390 267.569ZM375.5 252.535L375.86 252.188L375.712 252.035H375.5V252.535ZM360 252.535H359.5V253.035H360V252.535ZM360 248.525H360.5V248.025H360V248.525ZM357.5 248.525V248.025H357V248.525H357.5ZM357.5 252.535V253.035H358V252.535H357.5ZM323 252.535H322.5V253.035H323V252.535ZM323 214.949H323.5V214.449H323V214.949ZM144 177.363V176.863H143.5V177.363H144ZM144 191.396H143.5V191.896H144V191.396ZM151.5 191.396H152V190.896H151.5V191.396ZM151.5 225.975V226.475H152V225.975H151.5ZM69 225.975V225.475H68.5V225.975H69ZM69 285.109H68.5V285.609H69V285.109ZM83.5 285.109V285.609H84V285.109H83.5ZM83.5 278.094V277.594H83V278.094H83.5ZM170.5 278.094H171V277.594H170.5V278.094ZM170.5 311.169H170V311.669H170.5V311.169ZM196 311.169V311.669H196.5V311.169H196ZM196 177.363H196.5V176.863H196V177.363ZM227.5 147.294V146.794H227V147.294H227.5ZM227.5 206.43H227V206.738L227.276 206.877L227.5 206.43ZM230.5 207.933H231V207.624L230.724 207.486L230.5 207.933ZM230.5 220.963L230.778 221.379L231 221.23V220.963H230.5ZM227.5 222.968L227.222 222.552L227 222.701V222.968H227.5ZM227.5 282.604V283.104H228V282.604H227.5ZM219 282.604V282.104H218.5V282.604H219ZM219 296.636H218.5V297.136H219V296.636ZM240.5 296.636V297.136H241V296.636H240.5ZM240.5 270.576H241V270.444L240.934 270.329L240.5 270.576ZM238.5 267.068L238.084 266.791L237.913 267.048L238.066 267.316L238.5 267.068ZM240.5 264.062L240.916 264.338L241 264.213V264.062H240.5ZM240.5 251.532H241V251.4L240.934 251.285L240.5 251.532ZM238.5 248.024L238.084 247.748L237.913 248.004L238.066 248.272L238.5 248.024ZM240.5 245.018L240.916 245.294L241 245.169V245.018H240.5ZM240.5 232.489H241V232.338L240.916 232.212L240.5 232.489ZM238.5 229.482L238.084 229.206L237.899 229.482L238.084 229.759L238.5 229.482ZM240.5 226.476L240.916 226.752L241 226.627V226.476H240.5ZM240.5 213.445V212.945H240V213.445H240.5ZM256.5 213.445H257V212.945H256.5V213.445ZM256.5 232.489H256V232.989H256.5V232.489ZM278 232.489V232.989H278.5V232.489H278ZM278 206.43V205.93H277.5V206.43H278ZM338 206.43V206.93H338.5V206.43H338ZM338 169.846H338.5V169.346H338V169.846ZM256.5 169.846V169.346H256V169.846H256.5ZM256.5 194.903L256.854 195.257L257 195.11V194.903H256.5ZM255 196.406V196.906H255.207L255.354 196.759L255 196.406ZM242 196.406L241.553 196.629L241.691 196.906H242V196.406ZM240.5 193.399H240V193.517L240.053 193.623L240.5 193.399ZM240.5 147.294H241V146.794H240.5V147.294ZM406 207.432V206.932H405.5V207.432H406ZM406 235.997H405.5V236.497H406V235.997ZM434.5 235.997V236.497H435V235.997H434.5ZM434.5 207.432H435V206.932H434.5V207.432ZM354 139.777V139.277H353.5V139.777H354ZM354 206.43H353.5V206.487L353.513 206.543L354 206.43ZM357.5 221.464H358V221.406L357.987 221.35L357.5 221.464ZM357.5 225.473H357V225.973H357.5V225.473ZM360 225.473V225.973H360.5V225.473H360ZM360 168.844V168.344H359.5V168.844H360ZM397.5 168.844V169.344H398V168.844H397.5ZM397.5 139.777H398V139.277H397.5V139.777ZM92 143.786V143.286H91.5V143.786H92ZM92 150.301H91.5V150.801H92V150.301ZM99.5 150.301L99.854 149.948L99.7074 149.801H99.5V150.301ZM107 157.818H107.5V157.612L107.354 157.465L107 157.818ZM107 202.922H106.5V203.422H107V202.922ZM128 202.922V203.422H128.5V202.922H128ZM128 143.786H128.5V143.286H128V143.786ZM180.5 87.6582V87.1582H180.282L180.133 87.3184L180.5 87.6582ZM174 94.6738L173.633 94.334L173.5 94.4778V94.6738H174ZM174 161.827H173.5V162.327H174V161.827ZM210.5 161.827V162.327H211V161.827H210.5ZM210.5 124.241V123.741H210V124.241H210.5ZM256 124.241L256.354 123.888L256.207 123.741H256V124.241ZM271 139.276H271.5V139.07L271.354 138.923L271 139.276ZM271 153.81H270.5V154.31H271V153.81ZM308 153.81V154.31H308.5V153.81H308ZM308 87.6582H308.5V87.1582H308V87.6582ZM294.5 56.0869V56.5869H339V56.0869V55.5869H294.5V56.0869ZM339 56.0869H338.5V94.6729H339H339.5V56.0869H339ZM339 94.6729V94.1729H324V94.6729V95.1729H339V94.6729ZM324 94.6729H323.5V123.741H324H324.5V94.6729H324ZM324 123.741V124.241H375V123.741V123.241H324V123.741ZM375 123.741H375.5V108.206H375H374.5V123.741H375ZM375 108.206V108.706H436.5V108.206V107.706H375V108.206ZM436.5 108.206H436V140.277H436.5H437V108.206H436.5ZM436.5 140.277V139.777H421.5V140.277V140.777H436.5V140.277ZM421.5 140.277H421V153.102H421.5H422V140.277H421.5ZM421.5 153.102V153.602H451V153.102V152.602H421.5V153.102ZM451 153.102H450.5V207.932H451H451.5V153.102H451ZM451 207.932V207.432H444V207.932V208.432H451V207.932ZM444 207.932H443.5V235.998H444H444.5V207.932H444ZM444 235.998V236.498H451.5V235.998V235.498H444V235.998ZM451.5 235.998H451V268.069H451.5H452V235.998H451.5ZM451.5 268.069V267.569H417.5V268.069V268.569H451.5V268.069ZM417.5 268.069H417V281.102H417.5H418V268.069H417.5ZM417.5 281.102V281.602H450V281.102V280.602H417.5V281.102ZM450 281.102H449.5V297.637H450H450.5V281.102H450ZM450 297.637V297.137H444V297.637V298.137H450V297.637ZM444 297.637H443.5V313.172H444H444.5V297.637H444ZM444 313.172V312.672H436.5V313.172V313.672H444V313.172ZM436.5 313.172H436V328.207H436.5H437V313.172H436.5ZM436.5 328.207V327.707H374.5V328.207V328.707H436.5V328.207ZM374.5 328.207H375V313.172H374.5H374V328.207H374.5ZM374.5 313.172V312.672H361.5V313.172V313.672H374.5V313.172ZM361.5 313.172H361V348.255H361.5H362V313.172H361.5ZM361.5 348.255V348.755H376.5V348.255V347.755H361.5V348.255ZM376.5 348.255H376V410.395H376.5H377V348.255H376.5ZM376.5 410.395V409.895H314.5V410.395V410.895H376.5V410.395ZM314.5 410.395H315V395.861H314.5H314V410.395H314.5ZM314.5 395.861V395.361H286.961V395.861V396.361H314.5V395.861ZM286.961 395.861H286.461V455.999H286.961H287.461V395.861H286.961ZM286.961 455.999V455.499H187.5V455.999V456.499H286.961V455.999ZM187.5 455.999H188V395.861H187.5H187V455.999H187.5ZM187.5 395.861V395.361H144.5V395.861V396.361H187.5V395.861ZM144.5 395.861H144V410.395H144.5H145V395.861H144.5ZM144.5 410.395V409.895H59.5V410.395V410.895H144.5V410.395ZM59.5 410.395H60V383.623H59.5H59V410.395H59.5ZM59.5 383.623L59.8477 383.982L59.9991 383.836L59.6514 383.477L59.3037 383.117L59.1523 383.264L59.5 383.623ZM59.6514 383.477L59.9997 383.835L75.8483 368.446L75.5 368.087L75.1517 367.728L59.303 383.118L59.6514 383.477ZM75.5 368.087H76V348.255H75.5H75V368.087H75.5ZM75.5 348.255V348.755H77.5V348.255V347.755H75.5V348.255ZM77.5 348.255H78V327.705H77.5H77V348.255H77.5ZM77.5 327.705V327.205H15.5V327.705V328.205H77.5V327.705ZM15.5 327.705H16V310.168H15.5H15V327.705H15.5ZM15.5 310.168V310.668H25.5V310.168V309.668H15.5V310.168ZM25.5 310.168H26V309.163H25.5H25V310.168H25.5ZM25.5 309.163V308.663H1V309.163V309.663H25.5V309.163ZM1 309.163H1.5V284.609H1H0.5V309.163H1ZM1 284.609V285.109H45V284.609V284.109H1V284.609ZM45 284.609H45.5V242.01H45H44.5V284.609H45ZM45 242.01V241.51H1V242.01V242.51H45V242.01ZM1 242.01H1.5V164.836H1H0.5V242.01H1ZM1 164.836V165.336H8V164.836V164.336H1V164.836ZM8 164.836H8.5V157.611H8H7.5V164.836H8ZM8 157.611L8.35355 157.965L8.50004 157.818L8.14648 157.465L7.79293 157.111L7.64645 157.258L8 157.611ZM8.14648 157.465L8.50043 157.818L16.0004 150.301L15.6465 149.948L15.2925 149.595L7.79254 157.112L8.14648 157.465ZM15.6465 149.948L16.0012 150.301L16.1477 150.153L15.793 149.801L15.4382 149.448L15.2918 149.596L15.6465 149.948ZM15.793 149.801V150.301H67.5V149.801V149.301H15.793V149.801ZM67.5 149.801H68V144.787H67.5H67V149.801H67.5ZM67.5 144.787V144.287H60.5V144.787V145.287H67.5V144.787ZM60.5 144.787H61V127.751H60.5H60V144.787H60.5ZM60.5 127.751V128.251H157.5V127.751V127.251H60.5V127.751ZM157.5 127.751H158V110.208H157.5H157V127.751H157.5ZM157.5 110.208V109.708H142.5V110.208V110.708H157.5V110.208ZM142.5 110.208H143V56.5879H142.5H142V110.208H142.5ZM142.5 56.5879V57.0879H202.5V56.5879V56.0879H142.5V56.5879ZM202.5 56.5879H203V18.501H202.5H202V56.5879H202.5ZM202.5 18.501V19.001H294.5V18.501V18.001H202.5V18.501ZM294.5 18.501H294V56.0869H294.5H295V18.501H294.5ZM204 409.895H203.5V438.961H204H204.5V409.895H204ZM204 438.961V439.461H233.5V438.961V438.461H204V438.961ZM233.5 438.961H234V409.895H233.5H233V438.961H233.5ZM233.5 409.895V409.395H204V409.895V410.395H233.5V409.895ZM133 308.663H132.5V327.206H133H133.5V308.663H133ZM133 327.206V326.706H118V327.206V327.706H133V327.206ZM118 327.206H117.5V371.808H118H118.5V327.206H118ZM118 371.808L117.646 372.161L125.146 379.678L125.5 379.325L125.854 378.972L118.354 371.454L118 371.808ZM125.5 379.325V379.825H173V379.325V378.825H125.5V379.325ZM173 379.325H173.5V363.789H173H172.5V379.325H173ZM173 363.789V364.289H218.5V363.789V363.289H173V363.789ZM218.5 363.789H218V379.325H218.5H219V363.789H218.5ZM218.5 379.325V379.825H248.5V379.325V378.825H218.5V379.325ZM248.5 379.325H249V352.764H248.5H248V379.325H248.5ZM248.5 352.764V353.264H252V352.764V352.264H248.5V352.764ZM252 352.764H252.5V345.748H252H251.5V352.764H252ZM252 345.748V345.248H248.5V345.748V346.248H252V345.748ZM248.5 345.748H249V320.189H248.5H248V345.748H248.5ZM248.5 320.189V319.689H241.5V320.189V320.689H248.5V320.189ZM241.5 320.189H241V327.206H241.5H242V320.189H241.5ZM241.5 327.206V326.706H154.5V327.206V327.706H241.5V327.206ZM154.5 327.206H155V301.146H154.5H154V327.206H154.5ZM154.5 301.146L154.335 300.674L132.835 308.191L133 308.663L133.165 309.135L154.665 301.618L154.5 301.146ZM301 214.949H300.5V241.009H301H301.5V214.949H301ZM301 241.009V240.509H256.5V241.009V241.509H301V241.009ZM256.5 241.009H256V281.602H256.5H257V241.009H256.5ZM256.5 281.602V282.102H294V281.602V281.102H256.5V281.602ZM294 281.602H293.5V335.224H294H294.5V281.602H294ZM294 335.224V334.724H279V335.224V335.724H294V335.224ZM279 335.224H278.5V345.748H279H279.5V335.224H279ZM279 345.748V345.248H275.5V345.748V346.248H279V345.748ZM275.5 345.748H275V352.764H275.5H276V345.748H275.5ZM275.5 352.764V353.264H279V352.764V352.264H275.5V352.764ZM279 352.764H278.5V363.789H279H279.5V352.764H279ZM279 363.789V364.289H323V363.789V363.289H279V363.789ZM323 363.789H323.5V281.602H323H322.5V363.789H323ZM323 281.602V282.102H390V281.602V281.102H323V281.602ZM390 281.602H390.5V267.569H390H389.5V281.602H390ZM390 267.569L390.36 267.222L375.86 252.188L375.5 252.535L375.14 252.882L389.64 267.916L390 267.569ZM375.5 252.535V252.035H360V252.535V253.035H375.5V252.535ZM360 252.535H360.5V248.525H360H359.5V252.535H360ZM360 248.525V248.025H357.5V248.525V249.025H360V248.525ZM357.5 248.525H357V252.535H357.5H358V248.525H357.5ZM357.5 252.535V252.035H323V252.535V253.035H357.5V252.535ZM323 252.535H323.5V214.949H323H322.5V252.535H323ZM323 214.949V214.449H301V214.949V215.449H323V214.949ZM144 177.363H143.5V191.396H144H144.5V177.363H144ZM144 191.396V191.896H151.5V191.396V190.896H144V191.396ZM151.5 191.396H151V225.975H151.5H152V191.396H151.5ZM151.5 225.975V225.475H69V225.975V226.475H151.5V225.975ZM69 225.975H68.5V285.109H69H69.5V225.975H69ZM69 285.109V285.609H83.5V285.109V284.609H69V285.109ZM83.5 285.109H84V278.094H83.5H83V285.109H83.5ZM83.5 278.094V278.594H170.5V278.094V277.594H83.5V278.094ZM170.5 278.094H170V311.169H170.5H171V278.094H170.5ZM170.5 311.169V311.669H196V311.169V310.669H170.5V311.169ZM196 311.169H196.5V177.363H196H195.5V311.169H196ZM196 177.363V176.863H144V177.363V177.863H196V177.363ZM227.5 147.294H227V206.43H227.5H228V147.294H227.5ZM227.5 206.43L227.276 206.877L230.276 208.38L230.5 207.933L230.724 207.486L227.724 205.983L227.5 206.43ZM230.5 207.933H230V220.963H230.5H231V207.933H230.5ZM230.5 220.963L230.222 220.547L227.222 222.552L227.5 222.968L227.778 223.383L230.778 221.379L230.5 220.963ZM227.5 222.968H227V282.604H227.5H228V222.968H227.5ZM227.5 282.604V282.104H219V282.604V283.104H227.5V282.604ZM219 282.604H218.5V296.636H219H219.5V282.604H219ZM219 296.636V297.136H240.5V296.636V296.136H219V296.636ZM240.5 296.636H241V270.576H240.5H240V296.636H240.5ZM240.5 270.576L240.934 270.329L238.934 266.821L238.5 267.068L238.066 267.316L240.066 270.824L240.5 270.576ZM238.5 267.068L238.916 267.345L240.916 264.338L240.5 264.062L240.084 263.785L238.084 266.791L238.5 267.068ZM240.5 264.062H241V251.532H240.5H240V264.062H240.5ZM240.5 251.532L240.934 251.285L238.934 247.777L238.5 248.024L238.066 248.272L240.066 251.78L240.5 251.532ZM238.5 248.024L238.916 248.301L240.916 245.294L240.5 245.018L240.084 244.741L238.084 247.748L238.5 248.024ZM240.5 245.018H241V232.489H240.5H240V245.018H240.5ZM240.5 232.489L240.916 232.212L238.916 229.206L238.5 229.482L238.084 229.759L240.084 232.766L240.5 232.489ZM238.5 229.482L238.916 229.759L240.916 226.752L240.5 226.476L240.084 226.199L238.084 229.206L238.5 229.482ZM240.5 226.476H241V213.445H240.5H240V226.476H240.5ZM240.5 213.445V213.945H256.5V213.445V212.945H240.5V213.445ZM256.5 213.445H256V232.489H256.5H257V213.445H256.5ZM256.5 232.489V232.989H278V232.489V231.989H256.5V232.489ZM278 232.489H278.5V206.43H278H277.5V232.489H278ZM278 206.43V206.93H338V206.43V205.93H278V206.43ZM338 206.43H338.5V169.846H338H337.5V206.43H338ZM338 169.846V169.346H256.5V169.846V170.346H338V169.846ZM256.5 169.846H256V194.903H256.5H257V169.846H256.5ZM256.5 194.903L256.146 194.55L254.646 196.053L255 196.406L255.354 196.759L256.854 195.257L256.5 194.903ZM255 196.406V195.906H242V196.406V196.906H255V196.406ZM242 196.406L242.447 196.183L240.947 193.176L240.5 193.399L240.053 193.623L241.553 196.629L242 196.406ZM240.5 193.399H241V147.294H240.5H240V193.399H240.5ZM240.5 147.294V146.794H227.5V147.294V147.794H240.5V147.294ZM406 207.432H405.5V235.997H406H406.5V207.432H406ZM406 235.997V236.497H434.5V235.997V235.497H406V235.997ZM434.5 235.997H435V207.432H434.5H434V235.997H434.5ZM434.5 207.432V206.932H406V207.432V207.932H434.5V207.432ZM354 139.777H353.5V206.43H354H354.5V139.777H354ZM354 206.43L353.513 206.543L357.013 221.577L357.5 221.464L357.987 221.35L354.487 206.316L354 206.43ZM357.5 221.464H357V225.473H357.5H358V221.464H357.5ZM357.5 225.473V225.973H360V225.473V224.973H357.5V225.473ZM360 225.473H360.5V168.844H360H359.5V225.473H360ZM360 168.844V169.344H397.5V168.844V168.344H360V168.844ZM397.5 168.844H398V139.777H397.5H397V168.844H397.5ZM397.5 139.777V139.277H354V139.777V140.277H397.5V139.777ZM92 143.786H91.5V150.301H92H92.5V143.786H92ZM92 150.301V150.801H99.5V150.301V149.801H92V150.301ZM99.5 150.301L99.146 150.654L106.646 158.171L107 157.818L107.354 157.465L99.854 149.948L99.5 150.301ZM107 157.818H106.5V202.922H107H107.5V157.818H107ZM107 202.922V203.422H128V202.922V202.422H107V202.922ZM128 202.922H128.5V143.786H128H127.5V202.922H128ZM128 143.786V143.286H92V143.786V144.286H128V143.786ZM180.5 87.6582L180.133 87.3184L173.633 94.334L174 94.6738L174.367 95.0136L180.867 87.998L180.5 87.6582ZM174 94.6738H173.5V161.827H174H174.5V94.6738H174ZM174 161.827V162.327H210.5V161.827V161.327H174V161.827ZM210.5 161.827H211V124.241H210.5H210V161.827H210.5ZM210.5 124.241V124.741H256V124.241V123.741H210.5V124.241ZM256 124.241L255.646 124.594L270.646 139.63L271 139.276L271.354 138.923L256.354 123.888L256 124.241ZM271 139.276H270.5V153.81H271H271.5V139.276H271ZM271 153.81V154.31H308V153.81V153.31H271V153.81ZM308 153.81H308.5V87.6582H308H307.5V153.81H308ZM308 87.6582V87.1582H180.5V87.6582V88.1582H308V87.6582Z" fill="#B27C40"/>
<path d="M227.5 282.604H240.5M227.5 192.899H240.5M256.5 195.404V213.947M339 94.6741C339.4 94.6741 363.167 94.6741 375 94.6741V108.706M94.5 310.668V308.663H52V310.668H94.5ZM94.5 310.668V314.677M94.5 323.698V348.755H92M80 348.755H75.5M35.5 309.666V302.649H42.5V309.666M196 229.482H211V236.498H196M175 94.173L170 88.6604L174.5 84.1501L179.5 88.6604M230.5 147.294V139.777H237.5V147.294M421 108.205V116.223M421 116.223H436.5M421 116.223V124.242H436.5M451.5 260.052H435.5V268.07M451.5 268.07V281.601H450M271 296.636V304.654H279M338 293.629V300.645M383 281.601V289.119H390V281.601M380 257.546L386 251.533L391 256.544L385.5 262.558M119 372.81L108.5 383.334L113 388.345L124 377.821M144 177.864V166.338H151V177.363M69 226.475V203.924H76.5V225.974M9.5 248.526V277.592H38V248.526H9.5Z" stroke="#B27C40"/>
<path d="M76.5 211.942H83V214.949M83 226.475V214.949M83 214.949C82.6 214.949 78.5 214.949 76.5 214.949M26 310.167H52M94.5 314.677V324.7M118.5 327.707V313.174H125.5M133 313.174H125.5M133 309.164H125.5V313.174M154.5 301.647V278.595M241.5 324.199H234V327.707M241.5 320.691V312.171H248.5V320.691M279 312.171V297.137H240.5M199.5 236.999V241.009M196 245.018H199.5V241.009M199.5 241.009H203V236.999M202.5 56.5871C204.1 56.5871 224.167 56.5871 234 56.5871M209.5 19.0011V24.5137H222V19.0011M240.5 19.0011V24.5137H253V19.0011M271.5 19.0011V24.5137H283.5V19.0011M290.5 19.0011V24.0126H294.5M339 64.1042H294M301 88.1592V83.6489M308 88.1592V79.6397H301V83.6489M301 83.6489H297V88.1592" stroke="#B27C40" stroke-width="0.5"/>
<path d="M31.5 181.372H27V165.837H99V180.871H107M31.5 181.372H46V188.388H42M31.5 181.372V188.388M31.5 188.388H38.75M31.5 188.388V203.924M38.75 188.388V195.906M38.75 188.388H42M38.75 195.906H42V188.388M38.75 195.906V203.924H31.5M31.5 203.924V225.974H17V181.372H20.5V165.837H1" stroke="#B27C40"/>
<path d="M324 94.6741H322.5M309.5 94.6741H308M324 123.741H322M309.5 123.741H308M354 169.846H352M339.5 169.846H338" stroke="#B27C40"/>
<path d="M327 169.846V166.338H331M331 166.338V169.846M331 166.338V162.329H338V169.846M406 207.432H383.5V192.397H428V207.432" stroke="#B27C40" stroke-width="0.5"/>
<path d="M383.5 207.432C383.5 208.234 383.5 212.109 383.5 213.947H391M398.5 213.947V207.432M398.5 213.947H391M398.5 213.947V217.455M406 221.965H398.5V217.455M391 213.947V217.455H398.5M360 225.974V248.526M338 281.601V341.739M349.5 386.341V380.327H334.5V386.341M349.5 386.341V390.851H334.5V386.842V386.341M349.5 386.341H334.5M402 328.709V312.672H406M444 312.672H424M406 312.672V328.709M406 312.672H417M417 312.672V315.178H424V312.672M417 312.672H424" stroke="#B27C40" stroke-width="0.5"/>
<path d="M218.5 409.895V379.325M59.5 392.355H65.5V405.384H75.5V410.897" stroke="#B27C40" stroke-width="0.5"/>
<path d="M20 180.871H16.5V210.439H1.5V166.338H20V180.871ZM76.001 210.439H76V203.423H68.5V210.439H32V204.425H39.252V196.406H42.501V188.89H46.5V180.871H27.5V166.338H76.001V210.439Z" fill="#F08234" fill-opacity="0.23"/>
<path d="M54.7891 196.381V188.381H57.8516C58.4297 188.381 58.9102 188.473 59.293 188.655C59.6784 188.835 59.9661 189.081 60.1563 189.393C60.349 189.706 60.4453 190.06 60.4453 190.456C60.4453 190.781 60.3828 191.06 60.2578 191.292C60.1328 191.521 59.9648 191.707 59.7539 191.85C59.543 191.993 59.3073 192.096 59.0469 192.159V192.237C59.3307 192.253 59.6029 192.34 59.8633 192.499C60.1263 192.655 60.3411 192.876 60.5078 193.163C60.6745 193.449 60.7578 193.796 60.7578 194.202C60.7578 194.616 60.6576 194.988 60.457 195.319C60.2565 195.647 59.9544 195.906 59.5508 196.096C59.1471 196.286 58.6393 196.381 58.0273 196.381H54.7891ZM56.2383 195.171H57.7969C58.3229 195.171 58.7018 195.07 58.9336 194.87C59.168 194.667 59.2852 194.406 59.2852 194.088C59.2852 193.851 59.2266 193.638 59.1094 193.448C58.9922 193.255 58.8255 193.104 58.6094 192.995C58.3932 192.883 58.1354 192.827 57.8359 192.827H56.2383V195.171ZM56.2383 191.784H57.6719C57.9219 191.784 58.1471 191.738 58.3477 191.647C58.5482 191.553 58.7057 191.422 58.8203 191.253C58.9375 191.081 58.9961 190.878 58.9961 190.643C58.9961 190.333 58.8867 190.078 58.668 189.878C58.4518 189.677 58.1302 189.577 57.7031 189.577H56.2383V191.784Z" fill="white"/>
<path d="M444 176.361H450.5V207.432H444V176.361Z" fill="#F08234" fill-opacity="0.23"/>
<path d="M444 229.482H435V207.432H428.243V192.154H383.243V207.432H383.254V214.188H406.5V214.203H390.756V217.683H406.5V217.695H398.267V222.207H406.5V229.482H376V176.361H444V229.482Z" fill="#F08234" fill-opacity="0.23"/>
<path d="M400.816 187.361H399.27L402.086 179.361H403.875L406.695 187.361H405.148L403.012 181.001H402.949L400.816 187.361ZM400.867 184.224H405.086V185.388H400.867V184.224Z" fill="white"/>
</svg>
