<svg width="354" height="473" viewBox="0 0 354 473" fill="none" xmlns="http://www.w3.org/2000/svg">
<path fill-rule="evenodd" clip-rule="evenodd" d="M60 231V233H55V255V266.5V289.5H96.5V384.774H122V427.5H137.5L147 417V415H162V374.5H216.5H226V366.5H249.5V337.5H244V320H245.5H279L279.442 289.5V283.5V249.5V247.5V244.5H276H274H270V241H326V235.5H335V241H353V224.5H319.256V210H329.5H334.5H340V199V178.5V173.5V150V145V142V141.5V136.5V128.5H280.699V93.5H238.5V88.5H222V93.5H218.257V52H167.5V93.5H94.5V116.5H99.5V119.271H59.5H54.5H26V130.5H23.5V125H1V165.5H19H23.5V162.5V160.5H26V171.5V173.5V184.5H99.5V187H70H64H57.5V231H60ZM238.5 108.5V144.5H253.5V143.5H247V127.5H266.5V108.5H238.5ZM278.5 181.5V189.5H275V183.5H262V181.5H270.5V162.5L264.5 153.5V144.5H261V143H267V142H303V144.5H283.5V181.5H278.5ZM71 230.945L71 233H100.5V241H116.5V233H147.5V210.5H164.081V210H147.5V187H161.5V166.5L151 177H130V157H128V172.5H119.5V184.5H111V187H122.5L122.5 216H90.8437V207.5H75V231L71 230.945ZM114 253V328.5H153.5V326.5H184.5V337.5H230V315.5H184.5V272.5L179 267H147.5V264.5H124.5V253H114ZM210.5 294.5V227H224V235.5H247V212.5H241.5V208H275.5V201.5H278.5V210H304.5V224.5H270V215.5H255.5V241.5H259V244.5H249.5V294.5H210.5ZM193.5 210.5H176.5V209.5H193.5V187H182V170.5H196V149.5H185L180 145V139.5L185 134H208V116.5H219V108.5H222V159.5H244V182H252.5V184H227V208H232.361V212.5H193.5V210.5ZM125 116.5V108.5H136V116.5H167.5V143.5H161.5V142H130V147.5H128V135.5H114V119.5H111.5V116.5H125Z" fill="#271406"/>
<path d="M60 233V233.5H60.5V233H60ZM60 231H60.5V230.5H60V231ZM55 233V232.5H54.5V233H55ZM55 289.5H54.5V290H55V289.5ZM96.5 289.5H97V289H96.5V289.5ZM96.5 384.774H96V385.274H96.5V384.774ZM122 384.774H122.5V384.274H122V384.774ZM122 427.5H121.5V428H122V427.5ZM137.5 427.5V428H137.722L137.871 427.835L137.5 427.5ZM147 417L147.371 417.335L147.5 417.193V417H147ZM147 415V414.5H146.5V415H147ZM162 415V415.5H162.5V415H162ZM162 374.5V374H161.5V374.5H162ZM226 374.5V375H226.5V374.5H226ZM226 366.5V366H225.5V366.5H226ZM249.5 366.5V367H250V366.5H249.5ZM249.5 337.5H250V337H249.5V337.5ZM244 337.5H243.5V338H244V337.5ZM244 320V319.5H243.5V320H244ZM279 320V320.5H279.493L279.5 320.007L279 320ZM279.442 289.5L279.942 289.507V289.5H279.442ZM279.442 244.5H279.942V244H279.442V244.5ZM270 244.5H269.5V245H270V244.5ZM270 241V240.5H269.5V241H270ZM326 241V241.5H326.5V241H326ZM326 235.5V235H325.5V235.5H326ZM335 235.5H335.5V235H335V235.5ZM335 241H334.5V241.5H335V241ZM353 241V241.5H353.5V241H353ZM353 224.5H353.5V224H353V224.5ZM319.256 224.5H318.756V225H319.256V224.5ZM319.256 210V209.5H318.756V210H319.256ZM340 210V210.5H340.5V210H340ZM340 128.5H340.5V128H340V128.5ZM280.699 128.5H280.199V129H280.699V128.5ZM280.699 93.5H281.199V93H280.699V93.5ZM238.5 93.5H238V94H238.5V93.5ZM238.5 88.5H239V88H238.5V88.5ZM222 88.5V88H221.5V88.5H222ZM222 93.5V94H222.5V93.5H222ZM218.257 93.5H217.757V94H218.257V93.5ZM218.257 52H218.757V51.5H218.257V52ZM167.5 52V51.5H167V52H167.5ZM167.5 93.5V94H168V93.5H167.5ZM94.5 93.5V93H94V93.5H94.5ZM94.5 116.5H94V117H94.5V116.5ZM99.5 116.5H100V116H99.5V116.5ZM99.5 119.271V119.771H100V119.271H99.5ZM26 119.271V118.771H25.5V119.271H26ZM26 130.5V131H26.5V130.5H26ZM23.5 130.5H23V131H23.5V130.5ZM23.5 125H24V124.5H23.5V125ZM1 125V124.5H0.5V125H1ZM1 165.5H0.5V166H1V165.5ZM23.5 165.5V166H24V165.5H23.5ZM23.5 160.5V160H23V160.5H23.5ZM26 160.5H26.5V160H26V160.5ZM26 184.5H25.5V185H26V184.5ZM99.5 184.5H100V184H99.5V184.5ZM99.5 187V187.5H100V187H99.5ZM57.5 187V186.5H57V187H57.5ZM57.5 231H57V231.5H57.5V231ZM238.5 144.5H238V145H238.5V144.5ZM238.5 108.5V108H238V108.5H238.5ZM253.5 144.5V145H254V144.5H253.5ZM253.5 143.5H254V143H253.5V143.5ZM247 143.5H246.5V144H247V143.5ZM247 127.5V127H246.5V127.5H247ZM266.5 127.5V128H267V127.5H266.5ZM266.5 108.5H267V108H266.5V108.5ZM278.5 189.5V190H279V189.5H278.5ZM278.5 181.5V181H278V181.5H278.5ZM275 189.5H274.5V190H275V189.5ZM275 183.5H275.5V183H275V183.5ZM262 183.5H261.5V184H262V183.5ZM262 181.5V181H261.5V181.5H262ZM270.5 181.5V182H271V181.5H270.5ZM270.5 162.5H271V162.349L270.916 162.223L270.5 162.5ZM264.5 153.5H264V153.651L264.084 153.777L264.5 153.5ZM264.5 144.5H265V144H264.5V144.5ZM261 144.5H260.5V145H261V144.5ZM261 143V142.5H260.5V143H261ZM267 143V143.5H267.5V143H267ZM267 142V141.5H266.5V142H267ZM303 142H303.5V141.5H303V142ZM303 144.5V145H303.5V144.5H303ZM283.5 144.5V144H283V144.5H283.5ZM283.5 181.5V182H284V181.5H283.5ZM71 233L70.5 233L70.5 233.5H71V233ZM71 230.945L71.0069 230.445L70.5 230.438L70.5 230.945L71 230.945ZM100.5 233H101V232.5H100.5V233ZM100.5 241H100V241.5H100.5V241ZM116.5 241V241.5H117V241H116.5ZM116.5 233V232.5H116V233H116.5ZM147.5 233V233.5H148V233H147.5ZM147.5 210.5V210H147V210.5H147.5ZM164.081 210.5V211H164.581V210.5H164.081ZM164.081 210H164.581V209.5H164.081V210ZM147.5 210H147V210.5H147.5V210ZM147.5 187V186.5H147V187H147.5ZM161.5 187V187.5H162V187H161.5ZM161.5 166.5H162V165.293L161.146 166.146L161.5 166.5ZM151 177V177.5H151.207L151.354 177.354L151 177ZM130 177H129.5V177.5H130V177ZM130 157H130.5V156.5H130V157ZM128 157V156.5H127.5V157H128ZM128 172.5V173H128.5V172.5H128ZM119.5 172.5V172H119V172.5H119.5ZM119.5 184.5V185H120V184.5H119.5ZM111 184.5V184H110.5V184.5H111ZM111 187H110.5V187.5H111V187ZM122.5 187L123 187L123 186.5H122.5V187ZM122.5 216V216.5H123L123 216L122.5 216ZM90.8437 216H90.3437V216.5H90.8437V216ZM90.8437 207.5H91.3437V207H90.8437V207.5ZM75 207.5V207H74.5V207.5H75ZM75 231L74.9931 231.5L75.5 231.507V231H75ZM114 328.5H113.5V329H114V328.5ZM114 253V252.5H113.5V253H114ZM153.5 328.5V329H154V328.5H153.5ZM153.5 326.5V326H153V326.5H153.5ZM184.5 326.5H185V326H184.5V326.5ZM184.5 337.5H184V338H184.5V337.5ZM230 337.5V338H230.5V337.5H230ZM230 315.5H230.5V315H230V315.5ZM184.5 315.5H184V316H184.5V315.5ZM184.5 272.5H185V272.293L184.854 272.146L184.5 272.5ZM179 267L179.354 266.646L179.207 266.5H179V267ZM147.5 267H147V267.5H147.5V267ZM147.5 264.5H148V264H147.5V264.5ZM124.5 264.5H124V265H124.5V264.5ZM124.5 253H125V252.5H124.5V253ZM210.5 227V226.5H210V227H210.5ZM210.5 294.5H210V295H210.5V294.5ZM224 227H224.5V226.5H224V227ZM224 235.5H223.5V236H224V235.5ZM247 235.5V236H247.5V235.5H247ZM247 212.5H247.5V212H247V212.5ZM241.5 212.5H241V213H241.5V212.5ZM241.5 208V207.5H241V208H241.5ZM275.5 208V208.5H276V208H275.5ZM275.5 201.5V201H275V201.5H275.5ZM278.5 201.5H279V201H278.5V201.5ZM278.5 210H278V210.5H278.5V210ZM304.5 210H305V209.5H304.5V210ZM304.5 224.5V225H305V224.5H304.5ZM270 224.5H269.5V225H270V224.5ZM270 215.5H270.5V215H270V215.5ZM255.5 215.5V215H255V215.5H255.5ZM255.5 241.5H255V242H255.5V241.5ZM259 241.5H259.5V241H259V241.5ZM259 244.5V245H259.5V244.5H259ZM249.5 244.5V244H249V244.5H249.5ZM249.5 294.5V295H250V294.5H249.5ZM176.5 210.5H176V211H176.5V210.5ZM193.5 210.5H194V210H193.5V210.5ZM176.5 209.5V209H176V209.5H176.5ZM193.5 209.5V210H194V209.5H193.5ZM193.5 187H194V186.5H193.5V187ZM182 187H181.5V187.5H182V187ZM182 170.5V170H181.5V170.5H182ZM196 170.5V171H196.5V170.5H196ZM196 149.5H196.5V149H196V149.5ZM185 149.5L184.666 149.872L184.808 150H185V149.5ZM180 145H179.5V145.223L179.666 145.372L180 145ZM180 139.5L179.63 139.164L179.5 139.307V139.5H180ZM185 134V133.5H184.779L184.63 133.664L185 134ZM208 134V134.5H208.5V134H208ZM208 116.5V116H207.5V116.5H208ZM219 116.5V117H219.5V116.5H219ZM219 108.5V108H218.5V108.5H219ZM222 108.5H222.5V108H222V108.5ZM222 159.5H221.5V160H222V159.5ZM244 159.5H244.5V159H244V159.5ZM244 182H243.5V182.5H244V182ZM252.5 182H253V181.5H252.5V182ZM252.5 184V184.5H253V184H252.5ZM227 184V183.5H226.5V184H227ZM227 208H226.5V208.5H227V208ZM232.361 208H232.861V207.5H232.361V208ZM232.361 212.5V213H232.861V212.5H232.361ZM193.5 212.5H193V213H193.5V212.5ZM125 108.5V108H124.5V108.5H125ZM125 116.5V117H125.5V116.5H125ZM136 108.5H136.5V108H136V108.5ZM136 116.5H135.5V117H136V116.5ZM167.5 116.5H168V116H167.5V116.5ZM167.5 143.5V144H168V143.5H167.5ZM161.5 143.5H161V144H161.5V143.5ZM161.5 142H162V141.5H161.5V142ZM130 142V141.5H129.5V142H130ZM130 147.5V148H130.5V147.5H130ZM128 147.5H127.5V148H128V147.5ZM128 135.5H128.5V135H128V135.5ZM114 135.5H113.5V136H114V135.5ZM114 119.5H114.5V119H114V119.5ZM111.5 119.5H111V120H111.5V119.5ZM111.5 116.5V116H111V116.5H111.5ZM184.5 337.5H184V338H184.5V337.5ZM184.5 326.5H185V326H184.5V326.5ZM153.5 326.5V326H153V326.5H153.5ZM153.5 328.5V329H154V328.5H153.5ZM114 328.5H113.5V329H114V328.5ZM114 253V252.5H113.5V253H114ZM124.5 253H125V252.5H124.5V253ZM124.5 264.5H124V265H124.5V264.5ZM179.5 267L179.854 266.646L179.707 266.5H179.5V267ZM184.5 272H185V271.793L184.854 271.646L184.5 272ZM184.5 315.5H184V316H184.5V315.5ZM230 315.5H230.5V315H230V315.5ZM230 337.5V338H230.5V337.5H230ZM244 307V306.5H243.5V307H244ZM245.5 307H246V306.5H245.5V307ZM65.5 255H66V254.5H65.5V255ZM65.5 266.5V267H66V266.5H65.5ZM147.5 267H147V267.5H147.5V267ZM168 261V260.5H167.5V261H168ZM173 261H173.5V260.5H173V261ZM199.5 294.5V295H200.006L200 294.494L199.5 294.5ZM199 255.5L199.5 255.494L199.494 255H199V255.5ZM199.5 241V241.5H200V241H199.5ZM232 212L232.009 212.5L232.5 212.491V212H232ZM232 207.5H232.5V207H232V207.5ZM227 207.5H226.5V208H227V207.5ZM227 184V183.5H226.5V184H227ZM252.5 184V184.5H253V184H252.5ZM252.5 182H253V181.5H252.5V182ZM244.5 182L244 182.011L244.011 182.5H244.5V182ZM244 159.5L244.5 159.489L244.489 159H244V159.5ZM222 159.5H221.5V160H222V159.5ZM222 108.5H222.5V108H222V108.5ZM219 108.5V108H218.5V108.5H219ZM219 116.5V117H219.5V116.5H219ZM208 134V134.5H208.5V134H208ZM185 134V133.5H184.779L184.63 133.664L185 134ZM180 139.5L179.63 139.164L179.5 139.307V139.5H180ZM180 145H179.5V145.223L179.666 145.372L180 145ZM185 149.5L184.666 149.872L184.808 150H185V149.5ZM196 149.5H196.5V149H196V149.5ZM196 170.5V171H196.5V170.5H196ZM182 170.5V170H181.5V170.5H182ZM182 187H181.5V187.5H182V187ZM193.5 187H194V186.5H193.5V187ZM193.5 209.5V210H194V209.5H193.5ZM176.5 209.5V209H176V209.5H176.5ZM176.5 210.5H176V211H176.5V210.5ZM193.5 210.5H194V210H193.5V210.5ZM193.5 212.5H193V212.999L193.499 213L193.5 212.5ZM136 116.5H135.5V117H136V116.5ZM125 108.5V108H124.5V108.5H125ZM125 116.5V117H125.5V116.5H125ZM111.5 116.5V116H111V116.5H111.5ZM111.5 119.5H111V120H111.5V119.5ZM114 119.5H114.5V119H114V119.5ZM114 135.5H113.5V136H114V135.5ZM128 135.5H128.5V135H128V135.5ZM128 147.5H127.5V148H128V147.5ZM130 147.5V148H130.5V147.5H130ZM130 142.028V141.528H129.5V142.028H130ZM161.5 142.028H162V141.528H161.5V142.028ZM114 144V143.5H113.5V144H114ZM114 163.75H113.5V164.25H114V163.75ZM128 157V156.5H127.5V157H128ZM130 157H130.5V156.5H130V157ZM130 177H129.5V177.5H130V177ZM151 177V177.5H151.207L151.354 177.354L151 177ZM161.5 187V187.5H162V187H161.5ZM147.5 187V186.5H147V187H147.5ZM147.5 233H148V232.5H147.5V233ZM116.5 233V232.5H116V233H116.5ZM116.5 241V241.5H117V241H116.5ZM100.5 241H100V241.5H100.5V241ZM100.5 233H101V232.5H100.5V233ZM71 233H70.5V233.5H71V233ZM71 231V230.5H70.5V231H71ZM75 231V231.5H75.5V231H75ZM75 207.5V207H74.5V207.5H75ZM90.7352 207.5H91.2352V207H90.7352V207.5ZM90.7352 216H90.2352V216.5H90.7352V216ZM122.5 216V216.5H123V216H122.5ZM122.5 187H123V186.5H122.5V187ZM111 187H110.5V187.5H111V187ZM111 184.5V184H110.5V184.5H111ZM119.5 172.5V172H119V172.5H119.5ZM128 172.5V173H128.5V172.5H128ZM249.5 244.5V244H249V244.5H249.5ZM259 244.5V245H259.5V244.5H259ZM259 241.5H259.5V241H259V241.5ZM255.5 241.5H255V242H255.5V241.5ZM255.5 215.5V215H255V215.5H255.5ZM270 215.5H270.5V215H270V215.5ZM304.5 224.5V225H305V224.5H304.5ZM304.5 210H305V209.5H304.5V210ZM278.5 210H278V210.5H278.5V210ZM278.5 201.5H279V201H278.5V201.5ZM275.5 201.5V201H275V201.5H275.5ZM275.5 207.5L275.507 208L276 207.993V207.5H275.5ZM241.5 208L241.493 207.5L241 207.507V208H241.5ZM241.5 212.5H241V213H241.5V212.5ZM247 212.5H247.5V212H247V212.5ZM247 235.5V236H247.5V235.5H247ZM224 235.5H223.5V236H224V235.5ZM224 227H224.5V226.5H224V227ZM210.5 227V226.5H210V227H210.5ZM26 136.5H26.5V136H26V136.5ZM23.5 136.5V136H23V136.5H23.5ZM23.5 154.5H23V155H23.5V154.5ZM26 154.5V155H26.5V154.5H26ZM46 145.74V145.24H45.5V145.74H46ZM52 145.74H52.5V145.24H52V145.74ZM52.5 151L52.0528 150.776L52 150.882V151H52.5ZM52.5 155.5V156H53V155.5H52.5ZM47.5 155.5H47V156H47.5V155.5ZM47.5 151.5H48V151.293L47.8536 151.146L47.5 151.5ZM46 150H45.5V150.207L45.6464 150.354L46 150ZM88.5 171.5H89V171H88.5V171.5ZM88.5 173.5L88.504 174L89 173.996V173.5H88.5ZM76 132.5V132H75.5V132.5H76ZM88.5 132.5V133H89V132.5H88.5ZM76 171.5H75.5V172H76V171.5ZM88 161V161.5H88.5V161H88ZM88 146H88.5V145.856L88.4232 145.734L88 146ZM85.5 142.028L85.9232 141.762L85.5 141.09L85.0768 141.762L85.5 142.028ZM83 146L82.5768 145.734L82.5 145.856V146H83ZM83 161H82.5V161.5H83V161ZM119 165.5H118.5V166H119V165.5ZM64 193H63.5V193.5H64V193ZM70 196V196.5H70.5V196H70ZM189.5 300V300.5H190V300H189.5ZM210.5 300H210V300.5H210.5V300ZM215.5 300V300.5H216V300H215.5ZM249.5 294.5V295H250V294.5H249.5ZM274 283.5V283H273.5V283.5H274ZM216.5 366.5V366H216V366.5H216.5ZM335 145V144.5H334.5V145H335ZM335 150H334.5V150.5H335V150ZM335 136.5V136H334.5V136.5H335ZM335 141.5H334.5V142H335V141.5ZM335 173.5V173H334.5V173.5H335ZM335 178.5H334.5V179H335V178.5ZM329.5 199V198.5H329V199H329.5ZM315.5 159.5V159H315V159.5H315.5ZM315.5 164.5H315V165H315.5V164.5ZM320.5 159.5H321V159H320.5V159.5ZM325.5 161.5H326V161H325.5V161.5ZM325.5 166.5V167H326V166.5H325.5ZM320.5 166.5H320V167H320.5V166.5ZM292.5 156.5V156H292V156.5H292.5ZM298 156.5H298.5V156H298V156.5ZM298 172.5V173H298.5V172.5H298ZM292.5 172.5H292V173H292.5V172.5ZM205.5 218.5L205.489 219L206 219.011V218.5H205.5ZM251 150.5H250.5V151H251V150.5ZM261 153.5H260.5V154H261V153.5ZM119.5 184.5V185H120V184.5H119.5ZM116.5 181.5L116.418 181.007L116.066 181.066L116.007 181.418L116.5 181.5ZM20.5 163L20.4178 162.507L20.19 162.545L20.0713 162.743L20.5 163ZM268 176.5L268.396 176.195L268.355 176.141L268.3 176.1L268 176.5ZM264 175V174.5H263.5V175H264ZM266 175L266.3 174.6L266.167 174.5H266V175ZM275 189.5H274.5V190H275V189.5ZM275 183.5H275.5V183H275V183.5ZM262 183.5H261.5V184H262V183.5ZM262 181.5V181H261.5V181.5H262ZM270.5 181.5V182H271V181.5H270.5ZM270.5 162H271V161.841L270.908 161.712L270.5 162ZM264.5 144.5H265V144H264.5V144.5ZM261 144.5H260.5V145H261V144.5ZM261 143V142.5H260.5V143H261ZM267 143V143.5H267.5V143H267ZM267 142V141.5H266.5V142H267ZM303 144.5V145H303.5V144.5H303ZM283.5 144.5V144H283V144.5H283.5ZM283.5 181.5V182H284V181.5H283.5ZM278.5 181.5V181H278V181.5H278.5ZM278.5 189.5V190H279V189.5H278.5ZM253.5 144.5V145H254V144.5H253.5ZM239 108.5V108H238.509L238.5 108.491L239 108.5ZM266.5 108.5H267V108H266.5V108.5ZM266.5 127.5V128H267V127.5H266.5ZM247 127.5V127H246.5V127.5H247ZM247 143.5H246.5V144H247V143.5ZM253.5 143.5H254V143H253.5V143.5ZM255 267H255.5V266.5H255V267ZM255 272V272.5H255.5V272H255ZM270 224.5H269.5V225H270V224.5ZM153 204.5H153.5V204H153V204.5ZM153 210.5H152.5V211H153V210.5ZM155.5 207.5V207H155V207.5H155.5ZM161 207.5H161.5V207H161V207.5ZM161.5 216.5V217H162V216.5H161.5ZM157 216.5H156.5V217H157V216.5ZM167.5 143.5V144H168V143.5H167.5ZM54.5 124.5H54V125H54.5V124.5ZM59.5 124.5V125H60V124.5H59.5ZM74.5 171.5V172H75V171.5H74.5ZM68.5 167V166.5H68V167H68.5ZM74.5 131V130.5H74V131H74.5ZM63.5 171.5V171H63V171.5H63.5ZM63.5 173.7L63.4973 174.2L63.504 174.2L63.5 173.7ZM52 148.5H51.5V148.651L51.584 148.777L52 148.5ZM53 150L53.4472 150.224L53.577 149.964L53.416 149.723L53 150ZM67 196H66.5V196.5H67V196ZM271 289.5H270.5V290H271V289.5ZM271 286.5V286H270.5V286.5H271ZM274 249.5H273.5V250H274V249.5ZM276 247.5H275.5V248H276V247.5ZM233.5 139V138.5H233V139H233.5ZM233.5 144.5H233V145H233.5V144.5ZM88.5 131H89V130.5H88.5V131ZM60.5 233V231H59.5V233H60.5ZM55 233.5H60V232.5H55V233.5ZM55.5 255V233H54.5V255H55.5ZM55.5 266.5V255H54.5V266.5H55.5ZM55.5 289.5V266.5H54.5V289.5H55.5ZM96.5 289H55V290H96.5V289ZM97 384.774V289.5H96V384.774H97ZM122 384.274H96.5V385.274H122V384.274ZM122.5 427.5V384.774H121.5V427.5H122.5ZM137.5 427H122V428H137.5V427ZM146.629 416.665L137.129 427.165L137.871 427.835L147.371 417.335L146.629 416.665ZM146.5 415V417H147.5V415H146.5ZM162 414.5H147V415.5H162V414.5ZM161.5 374.5V415H162.5V374.5H161.5ZM216.5 374H162V375H216.5V374ZM226 374H216.5V375H226V374ZM225.5 366.5V374.5H226.5V366.5H225.5ZM249.5 366H226V367H249.5V366ZM249 337.5V366.5H250V337.5H249ZM244 338H249.5V337H244V338ZM243.5 320V337.5H244.5V320H243.5ZM245.5 319.5H244V320.5H245.5V319.5ZM279 319.5H245.5V320.5H279V319.5ZM278.942 289.493L278.5 319.993L279.5 320.007L279.942 289.507L278.942 289.493ZM278.942 283.5V289.5H279.942V283.5H278.942ZM278.942 249.5V283.5H279.942V249.5H278.942ZM278.942 247.5V249.5H279.942V247.5H278.942ZM278.942 244.5V247.5H279.942V244.5H278.942ZM276 245H279.442V244H276V245ZM274 245H276V244H274V245ZM270 245H274V244H270V245ZM269.5 241V244.5H270.5V241H269.5ZM326 240.5H270V241.5H326V240.5ZM325.5 235.5V241H326.5V235.5H325.5ZM335 235H326V236H335V235ZM335.5 241V235.5H334.5V241H335.5ZM353 240.5H335V241.5H353V240.5ZM352.5 224.5V241H353.5V224.5H352.5ZM319.256 225H353V224H319.256V225ZM318.756 210V224.5H319.756V210H318.756ZM329.5 209.5H319.256V210.5H329.5V209.5ZM334.5 209.5H329.5V210.5H334.5V209.5ZM340 209.5H334.5V210.5H340V209.5ZM339.5 199V210H340.5V199H339.5ZM339.5 178.5V199H340.5V178.5H339.5ZM339.5 173.5V178.5H340.5V173.5H339.5ZM339.5 150V173.5H340.5V150H339.5ZM339.5 145V150H340.5V145H339.5ZM339.5 142V145H340.5V142H339.5ZM339.5 141.5V142H340.5V141.5H339.5ZM339.5 136.5V141.5H340.5V136.5H339.5ZM339.5 128.5V136.5H340.5V128.5H339.5ZM280.699 129H340V128H280.699V129ZM280.199 93.5V128.5H281.199V93.5H280.199ZM238.5 94H280.699V93H238.5V94ZM238 88.5V93.5H239V88.5H238ZM222 89H238.5V88H222V89ZM222.5 93.5V88.5H221.5V93.5H222.5ZM218.257 94H222V93H218.257V94ZM217.757 52V93.5H218.757V52H217.757ZM167.5 52.5H218.257V51.5H167.5V52.5ZM168 93.5V52H167V93.5H168ZM94.5 94H167.5V93H94.5V94ZM95 116.5V93.5H94V116.5H95ZM99.5 116H94.5V117H99.5V116ZM100 119.271V116.5H99V119.271H100ZM59.5 119.771H99.5V118.771H59.5V119.771ZM54.5 119.771H59.5V118.771H54.5V119.771ZM26 119.771H54.5V118.771H26V119.771ZM26.5 130.5V119.271H25.5V130.5H26.5ZM23.5 131H26V130H23.5V131ZM23 125V130.5H24V125H23ZM1 125.5H23.5V124.5H1V125.5ZM1.5 165.5V125H0.5V165.5H1.5ZM19 165H1V166H19V165ZM23.5 165H19V166H23.5V165ZM23 162.5V165.5H24V162.5H23ZM23 160.5V162.5H24V160.5H23ZM26 160H23.5V161H26V160ZM26.5 171.5V160.5H25.5V171.5H26.5ZM26.5 173.5V171.5H25.5V173.5H26.5ZM26.5 184.5V173.5H25.5V184.5H26.5ZM99.5 184H26V185H99.5V184ZM100 187V184.5H99V187H100ZM70 187.5H99.5V186.5H70V187.5ZM64 187.5H70V186.5H64V187.5ZM57.5 187.5H64V186.5H57.5V187.5ZM58 231V187H57V231H58ZM60 230.5H57.5V231.5H60V230.5ZM239 144.5V108.5H238V144.5H239ZM253.5 144H238.5V145H253.5V144ZM253 143.5V144.5H254V143.5H253ZM247 144H253.5V143H247V144ZM246.5 127.5V143.5H247.5V127.5H246.5ZM266.5 127H247V128H266.5V127ZM266 108.5V127.5H267V108.5H266ZM238.5 109H266.5V108H238.5V109ZM279 189.5V181.5H278V189.5H279ZM275 190H278.5V189H275V190ZM274.5 183.5V189.5H275.5V183.5H274.5ZM262 184H275V183H262V184ZM261.5 181.5V183.5H262.5V181.5H261.5ZM270.5 181H262V182H270.5V181ZM270 162.5V181.5H271V162.5H270ZM264.084 153.777L270.084 162.777L270.916 162.223L264.916 153.223L264.084 153.777ZM264 144.5V153.5H265V144.5H264ZM261 145H264.5V144H261V145ZM260.5 143V144.5H261.5V143H260.5ZM267 142.5H261V143.5H267V142.5ZM266.5 142V143H267.5V142H266.5ZM303 141.5H267V142.5H303V141.5ZM303.5 144.5V142H302.5V144.5H303.5ZM283.5 145H303V144H283.5V145ZM284 181.5V144.5H283V181.5H284ZM278.5 182H283.5V181H278.5V182ZM71.5 233L71.5 230.945L70.5 230.945L70.5 233L71.5 233ZM100.5 232.5H71V233.5H100.5V232.5ZM101 241V233H100V241H101ZM116.5 240.5H100.5V241.5H116.5V240.5ZM116 233V241H117V233H116ZM147.5 232.5H116.5V233.5H147.5V232.5ZM147 210.5V233H148V210.5H147ZM164.081 210H147.5V211H164.081V210ZM163.581 210V210.5H164.581V210H163.581ZM147.5 210.5H164.081V209.5H147.5V210.5ZM147 187V210H148V187H147ZM161.5 186.5H147.5V187.5H161.5V186.5ZM161 166.5V187H162V166.5H161ZM151.354 177.354L161.854 166.854L161.146 166.146L150.646 176.646L151.354 177.354ZM130 177.5H151V176.5H130V177.5ZM129.5 157V177H130.5V157H129.5ZM128 157.5H130V156.5H128V157.5ZM128.5 172.5V157H127.5V172.5H128.5ZM119.5 173H128V172H119.5V173ZM120 184.5V172.5H119V184.5H120ZM111 185H119.5V184H111V185ZM111.5 187V184.5H110.5V187H111.5ZM122.5 186.5H111V187.5H122.5V186.5ZM123 216L123 187L122 187L122 216L123 216ZM90.8437 216.5H122.5V215.5H90.8437V216.5ZM90.3437 207.5V216H91.3437V207.5H90.3437ZM75 208H90.8437V207H75V208ZM75.5 231V207.5H74.5V231H75.5ZM70.9931 231.445L74.9931 231.5L75.0069 230.5L71.0069 230.445L70.9931 231.445ZM114.5 328.5V253H113.5V328.5H114.5ZM153.5 328H114V329H153.5V328ZM153 326.5V328.5H154V326.5H153ZM184.5 326H153.5V327H184.5V326ZM185 337.5V326.5H184V337.5H185ZM230 337H184.5V338H230V337ZM229.5 315.5V337.5H230.5V315.5H229.5ZM184.5 316H230V315H184.5V316ZM184 272.5V315.5H185V272.5H184ZM178.646 267.354L184.146 272.854L184.854 272.146L179.354 266.646L178.646 267.354ZM147.5 267.5H179V266.5H147.5V267.5ZM147 264.5V267H148V264.5H147ZM124.5 265H147.5V264H124.5V265ZM124 253V264.5H125V253H124ZM114 253.5H124.5V252.5H114V253.5ZM210 227V294.5H211V227H210ZM224 226.5H210.5V227.5H224V226.5ZM224.5 235.5V227H223.5V235.5H224.5ZM247 235H224V236H247V235ZM246.5 212.5V235.5H247.5V212.5H246.5ZM241.5 213H247V212H241.5V213ZM241 208V212.5H242V208H241ZM275.5 207.5H241.5V208.5H275.5V207.5ZM275 201.5V208H276V201.5H275ZM278.5 201H275.5V202H278.5V201ZM279 210V201.5H278V210H279ZM304.5 209.5H278.5V210.5H304.5V209.5ZM305 224.5V210H304V224.5H305ZM270 225H304.5V224H270V225ZM269.5 215.5V224.5H270.5V215.5H269.5ZM255.5 216H270V215H255.5V216ZM256 241.5V215.5H255V241.5H256ZM259 241H255.5V242H259V241ZM259.5 244.5V241.5H258.5V244.5H259.5ZM249.5 245H259V244H249.5V245ZM250 294.5V244.5H249V294.5H250ZM210.5 295H249.5V294H210.5V295ZM176.5 211H193.5V210H176.5V211ZM176 209.5V210.5H177V209.5H176ZM193.5 209H176.5V210H193.5V209ZM193 187V209.5H194V187H193ZM182 187.5H193.5V186.5H182V187.5ZM181.5 170.5V187H182.5V170.5H181.5ZM196 170H182V171H196V170ZM195.5 149.5V170.5H196.5V149.5H195.5ZM185 150H196V149H185V150ZM179.666 145.372L184.666 149.872L185.334 149.128L180.334 144.628L179.666 145.372ZM179.5 139.5V145H180.5V139.5H179.5ZM184.63 133.664L179.63 139.164L180.37 139.836L185.37 134.336L184.63 133.664ZM208 133.5H185V134.5H208V133.5ZM207.5 116.5V134H208.5V116.5H207.5ZM219 116H208V117H219V116ZM218.5 108.5V116.5H219.5V108.5H218.5ZM222 108H219V109H222V108ZM222.5 159.5V108.5H221.5V159.5H222.5ZM244 159H222V160H244V159ZM244.5 182V159.5H243.5V182H244.5ZM252.5 181.5H244V182.5H252.5V181.5ZM253 184V182H252V184H253ZM227 184.5H252.5V183.5H227V184.5ZM227.5 208V184H226.5V208H227.5ZM232.361 207.5H227V208.5H232.361V207.5ZM232.861 212.5V208H231.861V212.5H232.861ZM193.5 213H232.361V212H193.5V213ZM193 210.5V212.5H194V210.5H193ZM124.5 108.5V116.5H125.5V108.5H124.5ZM136 108H125V109H136V108ZM136.5 116.5V108.5H135.5V116.5H136.5ZM167.5 116H136V117H167.5V116ZM168 143.5V116.5H167V143.5H168ZM161.5 144H167.5V143H161.5V144ZM161 142V143.5H162V142H161ZM130 142.5H161.5V141.5H130V142.5ZM130.5 147.5V142H129.5V147.5H130.5ZM128 148H130V147H128V148ZM127.5 135.5V147.5H128.5V135.5H127.5ZM114 136H128V135H114V136ZM113.5 119.5V135.5H114.5V119.5H113.5ZM111.5 120H114V119H111.5V120ZM111 116.5V119.5H112V116.5H111ZM125 116H111.5V117H125V116ZM185 337.5V326.5H184V337.5H185ZM184.5 326H153.5V327H184.5V326ZM153 326.5V328.5H154V326.5H153ZM153.5 328H114V329H153.5V328ZM114.5 328.5V253H113.5V328.5H114.5ZM114 253.5H124.5V252.5H114V253.5ZM124 253V264.5H125V253H124ZM124.5 265H147.5V264H124.5V265ZM148 264.5V253H147V264.5H148ZM179.146 267.354L184.146 272.354L184.854 271.646L179.854 266.646L179.146 267.354ZM184.5 316H230V315H184.5V316ZM229.5 315.5V337.5H230.5V315.5H229.5ZM230 337H184.5V338H230V337ZM244.5 320V307H243.5V320H244.5ZM244 307.5H245.5V306.5H244V307.5ZM245 307V320H246V307H245ZM55 255.5H65.5V254.5H55V255.5ZM65 255V266.5H66V255H65ZM65.5 266H55V267H65.5V266ZM147.5 267.5H168V266.5H147.5V267.5ZM168.5 267V261H167.5V267H168.5ZM168 261.5H173V260.5H168V261.5ZM168 267.5H173V266.5H168V267.5ZM173 267.5H179.5V266.5H173V267.5ZM172.5 261V267H173.5V261H172.5ZM184 272V294.5H185V272H184ZM184.5 295H189.5V294H184.5V295ZM189.5 295H199.5V294H189.5V295ZM200 294.494L199.5 255.494L198.5 255.506L199 294.506L200 294.494ZM199 255H185V256H199V255ZM185 241.5H199.5V240.5H185V241.5ZM232.5 212V207.5H231.5V212H232.5ZM232 207H227V208H232V207ZM227.5 207.5V184H226.5V207.5H227.5ZM227 184.5H252.5V183.5H227V184.5ZM253 184V182H252V184H253ZM252.5 181.5H244.5V182.5H252.5V181.5ZM245 181.989L244.5 159.489L243.5 159.511L244 182.011L245 181.989ZM244 159H222V160H244V159ZM222.5 159.5V108.5H221.5V159.5H222.5ZM222 108H219V109H222V108ZM218.5 108.5V116.5H219.5V108.5H218.5ZM202.5 117H208V116H202.5V117ZM207.5 116.5V134H208.5V116.5H207.5ZM208 133.5H185V134.5H208V133.5ZM184.63 133.664L179.63 139.164L180.37 139.836L185.37 134.336L184.63 133.664ZM179.5 139.5V145H180.5V139.5H179.5ZM179.666 145.372L184.666 149.872L185.334 149.128L180.334 144.628L179.666 145.372ZM185 150H196V149H185V150ZM195.5 149.5V170.5H196.5V149.5H195.5ZM196 170H182V171H196V170ZM181.5 170.5V187H182.5V170.5H181.5ZM182 187.5H193.5V186.5H182V187.5ZM193 187V209.5H194V187H193ZM193.5 209H176.5V210H193.5V209ZM176 209.5V210.5H177V209.5H176ZM176.5 211H193.5V210H176.5V211ZM193 210.5V212.5H194V210.5H193ZM193.499 213L199.499 213.011L199.501 212.011L193.501 212L193.499 213ZM136.5 116.5V108.5H135.5V116.5H136.5ZM136 109H167.5V108H136V109ZM136 108H125V109H136V108ZM124.5 108.5V116.5H125.5V108.5H124.5ZM125 116H111.5V117H125V116ZM111 116.5V119.5H112V116.5H111ZM111.5 120H114V119H111.5V120ZM113.5 119.5V135.5H114.5V119.5H113.5ZM114 136H128V135H114V136ZM127.5 135.5V147.5H128.5V135.5H127.5ZM128 148H130V147H128V148ZM130.5 147.5V142.028H129.5V147.5H130.5ZM130 142.528H161.5V141.528H130V142.528ZM121.5 143.5H114V144.5H121.5V143.5ZM113.5 144V163.75H114.5V144H113.5ZM128.5 163.75V157H127.5V163.75H128.5ZM128 157.5H130V156.5H128V157.5ZM129.5 157V177H130.5V157H129.5ZM130 177.5H151V176.5H130V177.5ZM151.354 177.354L161.854 166.854L161.146 166.146L150.646 176.646L151.354 177.354ZM162 166.5V161.5H161V166.5H162ZM161.5 186.5H147.5V187.5H161.5V186.5ZM148 243.5V233H147V243.5H148ZM147.5 232.5H116.5V233.5H147.5V232.5ZM116 233V241H117V233H116ZM116.5 240.5H100.5V241.5H116.5V240.5ZM101 241V233H100V241H101ZM100.5 232.5H71V233.5H100.5V232.5ZM71.5 233V231H70.5V233H71.5ZM71 231.5H75V230.5H71V231.5ZM75.5 231V207.5H74.5V231H75.5ZM75 208H90.7352V207H75V208ZM90.2352 207.5V216H91.2352V207.5H90.2352ZM90.7352 216.5H122.5V215.5H90.7352V216.5ZM123 216V187H122V216H123ZM122.5 186.5H111V187.5H122.5V186.5ZM111.5 187V184.5H110.5V187H111.5ZM119.5 173H128V172H119.5V173ZM249.5 245H259V244H249.5V245ZM259.5 244.5V241.5H258.5V244.5H259.5ZM259 241H255.5V242H259V241ZM256 241.5V215.5H255V241.5H256ZM255.5 216H270V215H255.5V216ZM305 224.5V210H304V224.5H305ZM304.5 209.5H278.5V210.5H304.5V209.5ZM279 210V201.5H278V210H279ZM278.5 201H275.5V202H278.5V201ZM275 201.5V207.5H276V201.5H275ZM275.493 207L241.493 207.5L241.507 208.5L275.507 208L275.493 207ZM241 208V212.5H242V208H241ZM241.5 213H247V212H241.5V213ZM246.5 212.5V235.5H247.5V212.5H246.5ZM247 235H224V236H247V235ZM224.5 235.5V227H223.5V235.5H224.5ZM224 226.5H210.5V227.5H224V226.5ZM210 227V294.5H211V227H210ZM26 136H23.5V137H26V136ZM23 136.5V154.5H24V136.5H23ZM23.5 155H26V154H23.5V155ZM26.5 154.5V136.5H25.5V154.5H26.5ZM46 146.24H52V145.24H46V146.24ZM52 151V155.5H53V151H52ZM52.5 155H47.5V156H52.5V155ZM48 155.5V151.5H47V155.5H48ZM47.8536 151.146L46.3536 149.646L45.6464 150.354L47.1464 151.854L47.8536 151.146ZM46.5 150V145.74H45.5V150H46.5ZM88 171.5V173.5H89V171.5H88ZM76 133H88.5V132H76V133ZM76.5 171.5V132.5H75.5V171.5H76.5ZM88.5 161V146H87.5V161H88.5ZM88.4232 145.734L85.9232 141.762L85.0768 142.295L87.5768 146.266L88.4232 145.734ZM85.0768 141.762L82.5768 145.734L83.4232 146.266L85.9232 142.295L85.0768 141.762ZM82.5 146V161H83.5V146H82.5ZM83 161.5H88V160.5H83V161.5ZM128.5 172.5V165.5H127.5V172.5H128.5ZM128.5 165.5V163.75H127.5V165.5H128.5ZM119 166H128V165H119V166ZM63.5 187V193H64.5V187H63.5ZM69.5 193V196H70.5V193H69.5ZM184 300V315.5H185V300H184ZM184.5 300.5H189.5V299.5H184.5V300.5ZM190 300V294.5H189V300H190ZM184 294.5V300H185V294.5H184ZM210 294.5V300H211V294.5H210ZM210.5 300.5H215.5V299.5H210.5V300.5ZM210.5 295H215.5V294H210.5V295ZM215.5 295H249.5V294H215.5V295ZM216 300V294.5H215V300H216ZM279.442 283H274V284H279.442V283ZM274 290H279.442V289H274V290ZM226 366H216.5V367H226V366ZM216 366.5V374.5H217V366.5H216ZM340 144.5H335V145.5H340V144.5ZM334.5 145V150H335.5V145H334.5ZM335 150.5H340V149.5H335V150.5ZM340 136H335V137H340V136ZM334.5 136.5V141.5H335.5V136.5H334.5ZM335 142H340V141H335V142ZM340 173H335V174H340V173ZM334.5 173.5V178.5H335.5V173.5H334.5ZM335 179H340V178H335V179ZM334 199V210H335V199H334ZM334.5 199.5H340V198.5H334.5V199.5ZM329.5 199.5H334.5V198.5H329.5V199.5ZM329 199V210H330V199H329ZM315 159.5V164.5H316V159.5H315ZM315.5 165H320.5V164H315.5V165ZM320.5 159H315.5V160H320.5V159ZM321 164.5V161.5H320V164.5H321ZM321 161.5V159.5H320V161.5H321ZM320.5 162H325.5V161H320.5V162ZM325 161.5V166.5H326V161.5H325ZM325.5 166H320.5V167H325.5V166ZM321 166.5V164.5H320V166.5H321ZM292.5 157H298V156H292.5V157ZM297.5 156.5V172.5H298.5V156.5H297.5ZM298 172H292.5V173H298V172ZM293 172.5V156.5H292V172.5H293ZM200 241V218.368H199V241H200ZM200 218.368V212.511H199V218.368H200ZM199.489 218.868L205.489 219L205.511 218L199.511 217.868L199.489 218.868ZM199.501 213.011L205.501 213L205.499 212L199.499 212.011L199.501 213.011ZM205.509 213L232.009 212.5L231.991 211.5L205.491 212L205.509 213ZM206 218.5V212.5H205V218.5H206ZM250.5 144V144.5H251.5V144H250.5ZM250.5 144.5V150.5H251.5V144.5H250.5ZM251 151H261V150H251V151ZM261 151H264.5V150H261V151ZM260.5 150.5V153.5H261.5V150.5H260.5ZM261 154H264.5V153H261V154ZM111 185H116V184H111V185ZM116 185H119.5V184H116V185ZM116.493 184.582L116.993 181.582L116.007 181.418L115.507 184.418L116.493 184.582ZM120 184.5V181H119V184.5H120ZM120 181V172.5H119V181H120ZM116.582 181.993L119.582 181.493L119.418 180.507L116.418 181.007L116.582 181.993ZM147 187V204.5H148V187H147ZM147 204.5V210.5H148V204.5H147ZM19.4287 165.757L20.9287 163.257L20.0713 162.743L18.5713 165.243L19.4287 165.757ZM20.5822 163.493L23.5822 162.993L23.4178 162.007L20.4178 162.507L20.5822 163.493ZM264.5 181.5V178H263.5V181.5H264.5ZM264.176 178.468L268.176 176.968L267.824 176.032L263.824 177.532L264.176 178.468ZM267.604 176.805L270.104 180.055L270.896 179.445L268.396 176.195L267.604 176.805ZM264.5 178V175H263.5V178H264.5ZM264 175.5H265V174.5H264V175.5ZM265 175.5H266V174.5H265V175.5ZM265.7 175.4L267.7 176.9L268.3 176.1L266.3 174.6L265.7 175.4ZM275.5 189.5V183.5H274.5V189.5H275.5ZM275 183H262V184H275V183ZM262.5 183.5V181.5H261.5V183.5H262.5ZM262 182H264V181H262V182ZM264 182H270.5V181H264V182ZM271 181.5V179.75H270V181.5H271ZM271 179.75V162H270V179.75H271ZM270.908 161.712L264.908 153.212L264.092 153.788L270.092 162.288L270.908 161.712ZM264 150.5V153.5H265V150.5H264ZM265 150.5V144.5H264V150.5H265ZM264.5 144H261V145H264.5V144ZM261.5 144.5V143H260.5V144.5H261.5ZM261 143.5H267V142.5H261V143.5ZM267.5 143V142H266.5V143H267.5ZM267 142.5H303V141.5H267V142.5ZM302.5 142V144.5H303.5V142H302.5ZM303 144H283.5V145H303V144ZM283 144.5V181.5H284V144.5H283ZM283.5 181H278.5V182H283.5V181ZM278 181.5V189.5H279V181.5H278ZM278.5 189H275V190H278.5V189ZM253.5 144H251V145H253.5V144ZM251 144H238.5V145H251V144ZM239 137.009L239.5 108.509L238.5 108.491L238 136.991L239 137.009ZM239 109H266.5V108H239V109ZM266 108.5V127.5H267V108.5H266ZM266.5 127H247V128H266.5V127ZM246.5 127.5V143.5H247.5V127.5H246.5ZM247 144H253.5V143H247V144ZM253 143.5V144.5H254V143.5H253ZM250 267V244.5H249V267H250ZM249.5 267.5H255V266.5H249.5V267.5ZM254.5 267V272H255.5V267H254.5ZM250 294.5V272H249V294.5H250ZM250 272V267H249V272H250ZM255 271.5H249.5V272.5H255V271.5ZM269.5 215.5V224.5H270.5V215.5H269.5ZM304.5 224H270V225H304.5V224ZM148 267V264.5H147V267H148ZM114 164.25H119V163.25H114V164.25ZM119 164.25H128V163.25H119V164.25ZM119.5 165.5V163.75H118.5V165.5H119.5ZM162 187V166.5H161V187H162ZM147.5 205H153V204H147.5V205ZM152.5 204.5V210.5H153.5V204.5H152.5ZM153 211H155.5V210H153V211ZM156 210.5V207.5H155V210.5H156ZM155.5 208H161V207H155.5V208ZM160.5 207.5V210.5H161.5V207.5H160.5ZM161.5 211H164V210H161.5V211ZM161 210.5V216.5H162V210.5H161ZM161.5 216H157V217H161.5V216ZM155.5 211H157V210H155.5V211ZM157 211H161V210H157V211ZM161 211H161.5V210H161V211ZM157.5 216.5V210.5H156.5V216.5H157.5ZM219 116H208V117H219V116ZM161 142.028V143.5H162V142.028H161ZM161 143.5V147.028H162V143.5H161ZM161.5 144H167.5V143H161.5V144ZM189.5 116H167.5V117H189.5V116ZM167.5 116H136V117H167.5V116ZM168 143.5V116.5H167V143.5H168ZM54 119.271V124.5H55V119.271H54ZM54.5 125H59.5V124H54.5V125ZM60 124.5V119.271H59V124.5H60ZM76 172H88.5V171H76V172ZM74.5 171H68.5V172H74.5V171ZM69 171.5V167H68V171.5H69ZM75 171.5V167H74V171.5H75ZM75 167V131H74V167H75ZM68.5 167.5H74.5V166.5H68.5V167.5ZM68.5 171H63.5V172H68.5V171ZM88.496 173L63.496 173.2L63.504 174.2L88.504 174L88.496 173ZM63.5027 173.2L26.0027 173L25.9973 174L63.4973 174.2L63.5027 173.2ZM63 171.5V173.7H64V171.5H63ZM51.5 145.74V148.5H52.5V145.74H51.5ZM51.584 148.777L52.584 150.277L53.416 149.723L52.416 148.223L51.584 148.777ZM52.5528 149.776L52.0528 150.776L52.9472 151.224L53.4472 150.224L52.5528 149.776ZM70 195.5H67V196.5H70V195.5ZM64 193.5H67V192.5H64V193.5ZM67 193.5H70V192.5H67V193.5ZM67.5 196V193H66.5V196H67.5ZM70.5 193V187H69.5V193H70.5ZM274 289H271V290H274V289ZM271.5 289.5V286.5H270.5V289.5H271.5ZM273.5 283.5V286.5H274.5V283.5H273.5ZM273.5 286.5V289.5H274.5V286.5H273.5ZM271 287H274V286H271V287ZM273.5 244.5V249.5H274.5V244.5H273.5ZM274 250H279.442V249H274V250ZM275.5 244.5V247.5H276.5V244.5H275.5ZM276 248H279.442V247H276V248ZM238.5 138.5H233.5V139.5H238.5V138.5ZM233 139V144.5H234V139H233ZM233.5 145H238.5V144H233.5V145ZM89 132.5V131H88V132.5H89ZM88.5 130.5H74.5V131.5H88.5V130.5ZM303 142.5H340V141.5H303V142.5Z" fill="#B27C40"/>
<circle cx="193" cy="86" r="2.5" stroke="#B27C40"/>
<path d="M173 247.5C173 248.881 171.881 250 170.5 250C169.119 250 168 248.881 168 247.5C168 246.119 169.119 245 170.5 245C171.881 245 173 246.119 173 247.5Z" stroke="#B27C40"/>
<circle cx="141.5" cy="351.5" r="4" stroke="#B27C40"/>
<circle cx="114" cy="380" r="4.5" stroke="#B27C40"/>
</svg>
