<svg width="451" height="514" viewBox="0 0 451 514" fill="none" xmlns="http://www.w3.org/2000/svg">
<path fill-rule="evenodd" clip-rule="evenodd" d="M76.3757 245.995V248.542H70.0029V276.564V291.211V320.507H122.897V441.859H155.399V496.279H175.155L187.263 482.905V480.358H206.382V428.772H275.845H287.954V418.583H317.906V381.645H310.896V359.355H312.808H355.506L356.069 320.507V312.865V269.558V267.011V263.19H351.682H349.133H344.035V258.732H415.41V251.726H426.882V258.732H449.824V237.715H406.815V219.247H419.871H426.244H433.254V205.236V179.125V172.756V142.824V136.455V132.634V131.997V125.629V115.439H357.672V70.8591H303.886V64.4905H282.855V70.8591H278.085V18H213.392V70.8591H120.348V100.154H126.721V103.684H75.7384H69.3656H33.0405V117.986H29.854V110.981H1.1763V162.566H24.1185H29.854V158.745V156.198H33.0405V170.209V172.756V186.767H126.721V189.951H89.1214H81.474H73.1893V245.995H76.3757ZM303.886 89.9648V135.818H323.004V134.545H314.72V114.165H339.574V89.9648H303.886ZM354.868 182.946V193.135H350.407V185.493H333.838V182.946H344.672V158.745L337.025 147.282V135.818H332.564V133.908H340.211V132.634H386.095V135.818H361.241V182.946H354.868ZM90.3959 245.925L90.396 248.542H127.996V258.732H148.389V248.542H187.9V219.883H209.034V219.247H187.9V189.951H205.744V163.84L192.361 177.214H165.595V151.74H163.046V171.482H152.212V186.767H141.379V189.951H156.036V226.889H115.688V216.062H95.4942V245.995L90.3959 245.925ZM145.202 274.016V370.182H195.548V367.634H235.059V381.645H293.052V353.623H235.059V298.854L228.049 291.848H187.9V288.664H158.585V274.016H145.202ZM268.198 326.875V240.9H285.405V251.726H314.72V222.431H307.71V216.699H351.045V208.42H354.868V219.247H388.007V237.715H344.035V226.252H325.553V259.369H330.014V263.19H317.906V326.875H268.198ZM246.53 219.883H224.863V218.61H246.53V189.951H231.873V168.935H249.717V142.187H235.697L229.324 136.455V129.45L235.697 122.444H265.012V100.154H279.032V89.9648H282.855V154.924H310.896V183.583H321.73V186.13H289.228V216.699H296.061V222.431H246.53V219.883ZM159.223 100.154V89.9648H173.243V100.154H213.392V134.545H205.744V132.634H165.595V139.64H163.046V124.355H145.202V103.976H142.016V100.154H159.223Z" fill="#271406"/>
<path d="M76.3757 248.542V249.042H76.8757V248.542H76.3757ZM76.3757 245.995H76.8757V245.495H76.3757V245.995ZM70.0029 248.542V248.042H69.5029V248.542H70.0029ZM70.0029 320.507H69.5029V321.007H70.0029V320.507ZM122.897 320.507H123.397V320.007H122.897V320.507ZM122.897 441.859H122.397V442.359H122.897V441.859ZM155.399 441.859H155.899V441.359H155.399V441.859ZM155.399 496.279H154.899V496.779H155.399V496.279ZM175.155 496.279V496.779H175.376L175.525 496.615L175.155 496.279ZM187.263 482.905L187.634 483.241L187.763 483.098V482.905H187.263ZM187.263 480.358V479.858H186.763V480.358H187.263ZM206.382 480.358V480.858H206.882V480.358H206.382ZM206.382 428.772V428.272H205.882V428.772H206.382ZM287.954 428.772V429.272H288.454V428.772H287.954ZM287.954 418.583V418.083H287.454V418.583H287.954ZM317.906 418.583V419.083H318.406V418.583H317.906ZM317.906 381.645H318.406V381.145H317.906V381.645ZM310.896 381.645H310.396V382.145H310.896V381.645ZM310.896 359.355V358.855H310.396V359.355H310.896ZM355.506 359.355V359.855H355.999L356.006 359.362L355.506 359.355ZM356.069 320.507L356.569 320.514V320.507H356.069ZM356.069 263.19H356.569V262.69H356.069V263.19ZM344.035 263.19H343.535V263.69H344.035V263.19ZM344.035 258.732V258.232H343.535V258.732H344.035ZM415.41 258.732V259.232H415.91V258.732H415.41ZM415.41 251.726V251.226H414.91V251.726H415.41ZM426.882 251.726H427.382V251.226H426.882V251.726ZM426.882 258.732H426.382V259.232H426.882V258.732ZM449.824 258.732V259.232H450.324V258.732H449.824ZM449.824 237.715H450.324V237.215H449.824V237.715ZM406.815 237.715H406.315V238.215H406.815V237.715ZM406.815 219.247V218.747H406.315V219.247H406.815ZM433.254 219.247V219.747H433.754V219.247H433.254ZM433.254 115.439H433.754V114.939H433.254V115.439ZM357.672 115.439H357.172V115.939H357.672V115.439ZM357.672 70.8591H358.172V70.3591H357.672V70.8591ZM303.886 70.8591H303.386V71.3591H303.886V70.8591ZM303.886 64.4905H304.386V63.9905H303.886V64.4905ZM282.855 64.4905V63.9905H282.355V64.4905H282.855ZM282.855 70.8591V71.3591H283.355V70.8591H282.855ZM278.085 70.8591H277.585V71.3591H278.085V70.8591ZM278.085 18H278.585V17.5H278.085V18ZM213.392 18V17.5H212.892V18H213.392ZM213.392 70.8591V71.3591H213.892V70.8591H213.392ZM120.348 70.8591V70.3591H119.848V70.8591H120.348ZM120.348 100.154H119.848V100.654H120.348V100.154ZM126.721 100.154H127.221V99.6545H126.721V100.154ZM126.721 103.684V104.184H127.221V103.684H126.721ZM33.0405 103.684V103.184H32.5405V103.684H33.0405ZM33.0405 117.986V118.486H33.5405V117.986H33.0405ZM29.854 117.986H29.354V118.486H29.854V117.986ZM29.854 110.981H30.354V110.481H29.854V110.981ZM1.1763 110.981V110.481H0.6763V110.981H1.1763ZM1.1763 162.566H0.6763V163.066H1.1763V162.566ZM29.854 162.566V163.066H30.354V162.566H29.854ZM29.854 156.198V155.698H29.354V156.198H29.854ZM33.0405 156.198H33.5405V155.698H33.0405V156.198ZM33.0405 186.767H32.5405V187.267H33.0405V186.767ZM126.721 186.767H127.221V186.267H126.721V186.767ZM126.721 189.951V190.451H127.221V189.951H126.721ZM73.1893 189.951V189.451H72.6893V189.951H73.1893ZM73.1893 245.995H72.6893V246.495H73.1893V245.995ZM303.886 135.818H303.386V136.318H303.886V135.818ZM303.886 89.9648V89.4648H303.386V89.9648H303.886ZM323.004 135.818V136.318H323.504V135.818H323.004ZM323.004 134.545H323.504V134.045H323.004V134.545ZM314.72 134.545H314.22V135.045H314.72V134.545ZM314.72 114.165V113.665H314.22V114.165H314.72ZM339.574 114.165V114.665H340.074V114.165H339.574ZM339.574 89.9648H340.074V89.4648H339.574V89.9648ZM354.868 193.135V193.635H355.368V193.135H354.868ZM354.868 182.946V182.446H354.368V182.946H354.868ZM350.407 193.135H349.907V193.635H350.407V193.135ZM350.407 185.493H350.907V184.993H350.407V185.493ZM333.838 185.493H333.338V185.993H333.838V185.493ZM333.838 182.946V182.446H333.338V182.946H333.838ZM344.672 182.946V183.446H345.172V182.946H344.672ZM344.672 158.745H345.172V158.594L345.088 158.468L344.672 158.745ZM337.025 147.282H336.525V147.433L336.609 147.559L337.025 147.282ZM337.025 135.818H337.525V135.318H337.025V135.818ZM332.564 135.818H332.064V136.318H332.564V135.818ZM332.564 133.908V133.408H332.064V133.908H332.564ZM340.211 133.908V134.408H340.711V133.908H340.211ZM340.211 132.634V132.134H339.711V132.634H340.211ZM386.095 132.634H386.595V132.134H386.095V132.634ZM386.095 135.818V136.318H386.595V135.818H386.095ZM361.241 135.818V135.318H360.741V135.818H361.241ZM361.241 182.946V183.446H361.741V182.946H361.241ZM90.396 248.542H89.896V249.042H90.396V248.542ZM90.3959 245.925L90.4028 245.425L89.8959 245.418V245.925H90.3959ZM127.996 248.542H128.496V248.042H127.996V248.542ZM127.996 258.732H127.496V259.232H127.996V258.732ZM148.389 258.732V259.232H148.889V258.732H148.389ZM148.389 248.542V248.042H147.889V248.542H148.389ZM187.9 248.542V249.042H188.4V248.542H187.9ZM187.9 219.883V219.383H187.4V219.883H187.9ZM209.034 219.883V220.383H209.534V219.883H209.034ZM209.034 219.247H209.534V218.747H209.034V219.247ZM187.9 219.247H187.4V219.747H187.9V219.247ZM187.9 189.951V189.451H187.4V189.951H187.9ZM205.744 189.951V190.451H206.244V189.951H205.744ZM205.744 163.84H206.244V162.634L205.391 163.486L205.744 163.84ZM192.361 177.214V177.714H192.568L192.715 177.568L192.361 177.214ZM165.595 177.214H165.095V177.714H165.595V177.214ZM165.595 151.74H166.095V151.24H165.595V151.74ZM163.046 151.74V151.24H162.546V151.74H163.046ZM163.046 171.482V171.982H163.546V171.482H163.046ZM152.212 171.482V170.982H151.712V171.482H152.212ZM152.212 186.767V187.267H152.712V186.767H152.212ZM141.379 186.767V186.267H140.879V186.767H141.379ZM141.379 189.951H140.879V190.451H141.379V189.951ZM156.036 189.951H156.536V189.451H156.036V189.951ZM156.036 226.889V227.389H156.536V226.889H156.036ZM115.688 226.889H115.188V227.389H115.688V226.889ZM115.688 216.062H116.188V215.562H115.688V216.062ZM95.4942 216.062V215.562H94.9942V216.062H95.4942ZM95.4942 245.995L95.4874 246.495L95.9942 246.501V245.995H95.4942ZM145.202 370.182H144.702V370.682H145.202V370.182ZM145.202 274.016V273.516H144.702V274.016H145.202ZM195.548 370.182V370.682H196.048V370.182H195.548ZM195.548 367.634V367.134H195.048V367.634H195.548ZM235.059 367.634H235.559V367.134H235.059V367.634ZM235.059 381.645H234.559V382.145H235.059V381.645ZM293.052 381.645V382.145H293.552V381.645H293.052ZM293.052 353.623H293.552V353.123H293.052V353.623ZM235.059 353.623H234.559V354.123H235.059V353.623ZM235.059 298.854H235.559V298.646L235.413 298.5L235.059 298.854ZM228.049 291.848L228.403 291.495L228.256 291.348H228.049V291.848ZM187.9 291.848H187.4V292.348H187.9V291.848ZM187.9 288.664H188.4V288.164H187.9V288.664ZM158.585 288.664H158.085V289.164H158.585V288.664ZM158.585 274.016H159.085V273.516H158.585V274.016ZM268.198 240.9V240.4H267.698V240.9H268.198ZM268.198 326.875H267.698V327.375H268.198V326.875ZM285.405 240.9H285.905V240.4H285.405V240.9ZM285.405 251.726H284.905V252.226H285.405V251.726ZM314.72 251.726V252.226H315.22V251.726H314.72ZM314.72 222.431H315.22V221.931H314.72V222.431ZM307.71 222.431H307.21V222.931H307.71V222.431ZM307.71 216.699V216.199H307.21V216.699H307.71ZM351.045 216.699V217.199H351.545V216.699H351.045ZM351.045 208.42V207.92H350.545V208.42H351.045ZM354.868 208.42H355.368V207.92H354.868V208.42ZM354.868 219.247H354.368V219.747H354.868V219.247ZM388.007 219.247H388.507V218.747H388.007V219.247ZM388.007 237.715V238.215H388.507V237.715H388.007ZM344.035 237.715H343.535V238.215H344.035V237.715ZM344.035 226.252H344.535V225.752H344.035V226.252ZM325.553 226.252V225.752H325.053V226.252H325.553ZM325.553 259.369H325.053V259.869H325.553V259.369ZM330.014 259.369H330.514V258.869H330.014V259.369ZM330.014 263.19V263.69H330.514V263.19H330.014ZM317.906 263.19V262.69H317.406V263.19H317.906ZM317.906 326.875V327.375H318.406V326.875H317.906ZM224.863 219.883H224.363V220.383H224.863V219.883ZM246.53 219.883H247.03V219.383H246.53V219.883ZM224.863 218.61V218.11H224.363V218.61H224.863ZM246.53 218.61V219.11H247.03V218.61H246.53ZM246.53 189.951H247.03V189.451H246.53V189.951ZM231.873 189.951H231.373V190.451H231.873V189.951ZM231.873 168.935V168.435H231.373V168.935H231.873ZM249.717 168.935V169.435H250.217V168.935H249.717ZM249.717 142.187H250.217V141.687H249.717V142.187ZM235.697 142.187L235.362 142.559L235.505 142.687H235.697V142.187ZM229.324 136.455H228.824V136.678L228.989 136.827L229.324 136.455ZM229.324 129.45L228.954 129.113L228.824 129.256V129.45H229.324ZM235.697 122.444V121.944H235.475L235.327 122.108L235.697 122.444ZM265.012 122.444V122.944H265.512V122.444H265.012ZM265.012 100.154V99.6545H264.512V100.154H265.012ZM279.032 100.154V100.654H279.532V100.154H279.032ZM279.032 89.9648V89.4648H278.532V89.9648H279.032ZM282.855 89.9648H283.355V89.4648H282.855V89.9648ZM282.855 154.924H282.355V155.424H282.855V154.924ZM310.896 154.924H311.396V154.424H310.896V154.924ZM310.896 183.583H310.396V184.083H310.896V183.583ZM321.73 183.583H322.23V183.083H321.73V183.583ZM321.73 186.13V186.63H322.23V186.13H321.73ZM289.228 186.13V185.63H288.728V186.13H289.228ZM289.228 216.699H288.728V217.199H289.228V216.699ZM296.061 216.699H296.561V216.199H296.061V216.699ZM296.061 222.431V222.931H296.561V222.431H296.061ZM246.53 222.431H246.03V222.931H246.53V222.431ZM159.223 89.9648V89.4648H158.723V89.9648H159.223ZM159.223 100.154V100.654H159.723V100.154H159.223ZM173.243 89.9648H173.743V89.4648H173.243V89.9648ZM173.243 100.154H172.743V100.654H173.243V100.154ZM213.392 100.154H213.892V99.6545H213.392V100.154ZM213.392 134.545V135.045H213.892V134.545H213.392ZM205.744 134.545H205.244V135.045H205.744V134.545ZM205.744 132.634H206.244V132.134H205.744V132.634ZM165.595 132.634V132.134H165.095V132.634H165.595ZM165.595 139.64V140.14H166.095V139.64H165.595ZM163.046 139.64H162.546V140.14H163.046V139.64ZM163.046 124.355H163.546V123.855H163.046V124.355ZM145.202 124.355H144.702V124.855H145.202V124.355ZM145.202 103.976H145.702V103.476H145.202V103.976ZM142.016 103.976H141.516V104.476H142.016V103.976ZM142.016 100.154V99.6545H141.516V100.154H142.016ZM235.059 381.645H234.559V382.145H235.059V381.645ZM235.059 367.634H235.559V367.134H235.059V367.634ZM195.548 367.634V367.134H195.048V367.634H195.548ZM195.548 370.182V370.682H196.048V370.182H195.548ZM145.202 370.182H144.702V370.682H145.202V370.182ZM145.202 274.016V273.516H144.702V274.016H145.202ZM158.585 274.016H159.085V273.516H158.585V274.016ZM158.585 288.664H158.085V289.164H158.585V288.664ZM228.686 291.848L229.04 291.495L228.893 291.348H228.686V291.848ZM235.059 298.217H235.559V298.01L235.413 297.863L235.059 298.217ZM235.059 353.623H234.559V354.123H235.059V353.623ZM293.052 353.623H293.552V353.123H293.052V353.623ZM293.052 381.645V382.145H293.552V381.645H293.052ZM310.896 342.797V342.297H310.396V342.797H310.896ZM312.808 342.797H313.308V342.297H312.808V342.797ZM83.3858 276.564H83.8858V276.064H83.3858V276.564ZM83.3858 291.211V291.711H83.8858V291.211H83.3858ZM187.9 291.848H187.4V292.348H187.9V291.848ZM214.029 284.206V283.706H213.529V284.206H214.029ZM220.402 284.206H220.902V283.706H220.402V284.206ZM254.178 326.875V327.375H254.684L254.678 326.869L254.178 326.875ZM253.54 277.201L254.04 277.194L254.034 276.701H253.54V277.201ZM254.178 258.732V259.232H254.678V258.732H254.178ZM295.601 221.794L295.611 222.294L296.101 222.285V221.794H295.601ZM295.601 216.062H296.101V215.562H295.601V216.062ZM289.228 216.062H288.728V216.562H289.228V216.062ZM289.228 186.13V185.63H288.728V186.13H289.228ZM321.73 186.13V186.63H322.23V186.13H321.73ZM321.73 183.583H322.23V183.083H321.73V183.583ZM311.533 183.583L311.033 183.594L311.044 184.083H311.533V183.583ZM310.896 154.924L311.396 154.913L311.385 154.424H310.896V154.924ZM282.855 154.924H282.355V155.424H282.855V154.924ZM282.855 89.9648H283.355V89.4648H282.855V89.9648ZM279.032 89.9648V89.4648H278.532V89.9648H279.032ZM279.032 100.154V100.654H279.532V100.154H279.032ZM265.012 122.444V122.944H265.512V122.444H265.012ZM235.697 122.444V121.944H235.475L235.327 122.108L235.697 122.444ZM229.324 129.45L228.954 129.113L228.824 129.256V129.45H229.324ZM229.324 136.455H228.824V136.678L228.989 136.827L229.324 136.455ZM235.697 142.187L235.362 142.559L235.505 142.687H235.697V142.187ZM249.717 142.187H250.217V141.687H249.717V142.187ZM249.717 168.935V169.435H250.217V168.935H249.717ZM231.873 168.935V168.435H231.373V168.935H231.873ZM231.873 189.951H231.373V190.451H231.873V189.951ZM246.53 189.951H247.03V189.451H246.53V189.951ZM246.53 218.61V219.11H247.03V218.61H246.53ZM224.863 218.61V218.11H224.363V218.61H224.863ZM224.863 219.883H224.363V220.383H224.863V219.883ZM246.53 219.883H247.03V219.383H246.53V219.883ZM246.53 222.431H246.03V222.93L246.529 222.931L246.53 222.431ZM173.243 100.154H172.743V100.654H173.243V100.154ZM159.223 89.9648V89.4648H158.723V89.9648H159.223ZM159.223 100.154V100.654H159.723V100.154H159.223ZM142.016 100.154V99.6545H141.516V100.154H142.016ZM142.016 103.976H141.516V104.476H142.016V103.976ZM145.202 103.976H145.702V103.476H145.202V103.976ZM145.202 124.355H144.702V124.855H145.202V124.355ZM163.046 124.355H163.546V123.855H163.046V124.355ZM163.046 139.64H162.546V140.14H163.046V139.64ZM165.595 139.64V140.14H166.095V139.64H165.595ZM165.595 132.67V132.17H165.095V132.67H165.595ZM205.744 132.67H206.244V132.17H205.744V132.67ZM145.202 135.182V134.682H144.702V135.182H145.202ZM145.202 160.337H144.702V160.837H145.202V160.337ZM163.046 151.74V151.24H162.546V151.74H163.046ZM165.595 151.74H166.095V151.24H165.595V151.74ZM165.595 177.214H165.095V177.714H165.595V177.214ZM192.361 177.214V177.714H192.568L192.715 177.568L192.361 177.214ZM205.744 189.951V190.451H206.244V189.951H205.744ZM187.9 189.951V189.451H187.4V189.951H187.9ZM187.9 248.542H188.4V248.042H187.9V248.542ZM148.389 248.542V248.042H147.889V248.542H148.389ZM148.389 258.732V259.232H148.889V258.732H148.389ZM127.996 258.732H127.496V259.232H127.996V258.732ZM127.996 248.542H128.496V248.042H127.996V248.542ZM90.396 248.542H89.896V249.042H90.396V248.542ZM90.396 245.995V245.495H89.896V245.995H90.396ZM95.4942 245.995V246.495H95.9942V245.995H95.4942ZM95.4942 216.062V215.562H94.9942V216.062H95.4942ZM115.55 216.062H116.05V215.562H115.55V216.062ZM115.55 226.889H115.05V227.389H115.55V226.889ZM156.036 226.889V227.389H156.536V226.889H156.036ZM156.036 189.951H156.536V189.451H156.036V189.951ZM141.379 189.951H140.879V190.451H141.379V189.951ZM141.379 186.767V186.267H140.879V186.767H141.379ZM152.212 171.482V170.982H151.712V171.482H152.212ZM163.046 171.482V171.982H163.546V171.482H163.046ZM317.906 263.19V262.69H317.406V263.19H317.906ZM330.014 263.19V263.69H330.514V263.19H330.014ZM330.014 259.369H330.514V258.869H330.014V259.369ZM325.553 259.369H325.053V259.869H325.553V259.369ZM325.553 226.252V225.752H325.053V226.252H325.553ZM344.035 226.252H344.535V225.752H344.035V226.252ZM388.007 237.715V238.215H388.507V237.715H388.007ZM388.007 219.247H388.507V218.747H388.007V219.247ZM354.868 219.247H354.368V219.747H354.868V219.247ZM354.868 208.42H355.368V207.92H354.868V208.42ZM351.045 208.42V207.92H350.545V208.42H351.045ZM351.045 216.062L351.052 216.562L351.545 216.555V216.062H351.045ZM307.71 216.699L307.702 216.199L307.21 216.206V216.699H307.71ZM307.71 222.431H307.21V222.931H307.71V222.431ZM314.72 222.431H315.22V221.931H314.72V222.431ZM314.72 251.726V252.226H315.22V251.726H314.72ZM285.405 251.726H284.905V252.226H285.405V251.726ZM285.405 240.9H285.905V240.4H285.405V240.9ZM268.198 240.9V240.4H267.698V240.9H268.198ZM33.0405 125.629H33.5405V125.129H33.0405V125.629ZM29.854 125.629V125.129H29.354V125.629H29.854ZM29.854 148.556H29.354V149.056H29.854V148.556ZM33.0405 148.556V149.056H33.5405V148.556H33.0405ZM58.5318 137.398V136.898H58.0318V137.398H58.5318ZM66.1792 137.398H66.6792V136.898H66.1792V137.398ZM66.8165 144.098L66.3693 143.874L66.3165 143.979V144.098H66.8165ZM66.8165 149.829V150.329H67.3165V149.829H66.8165ZM60.4436 149.829H59.9436V150.329H60.4436V149.829ZM60.4436 144.734H60.9436V144.527L60.7971 144.381L60.4436 144.734ZM58.5318 142.824H58.0318V143.031L58.1784 143.178L58.5318 142.824ZM112.701 170.209H113.201V169.709H112.701V170.209ZM112.701 172.756L112.705 173.256L113.201 173.252V172.756H112.701ZM96.7688 120.534V120.034H96.2688V120.534H96.7688ZM112.701 120.534V121.034H113.201V120.534H112.701ZM96.7688 170.209H96.2688V170.709H96.7688V170.209ZM112.064 156.835V157.335H112.564V156.835H112.064ZM112.064 137.729H112.564V137.585L112.487 137.463L112.064 137.729ZM108.877 132.67L109.3 132.404L108.877 131.732L108.454 132.404L108.877 132.67ZM105.691 137.729L105.268 137.463L105.191 137.585V137.729H105.691ZM105.691 156.835H105.191V157.335H105.691V156.835ZM151.575 162.566H151.075V163.066H151.575V162.566ZM81.474 197.594H80.974V198.094H81.474V197.594ZM89.1214 201.415V201.915H89.6214V201.415H89.1214ZM241.432 333.881V334.381H241.932V333.881H241.432ZM268.198 333.881H267.698V334.381H268.198V333.881ZM274.571 333.881V334.381H275.071V333.881H274.571ZM317.906 326.875V327.375H318.406V326.875H317.906ZM349.133 312.865V312.365H348.633V312.865H349.133ZM275.845 418.583V418.083H275.345V418.583H275.845ZM426.882 136.455V135.955H426.382V136.455H426.882ZM426.882 142.824H426.382V143.324H426.882V142.824ZM426.882 125.629V125.129H426.382V125.629H426.882ZM426.882 131.997H426.382V132.497H426.882V131.997ZM426.882 172.756V172.256H426.382V172.756H426.882ZM426.882 179.125H426.382V179.625H426.882V179.125ZM419.871 205.236V204.736H419.371V205.236H419.871ZM402.027 154.924V154.424H401.527V154.924H402.027ZM402.027 161.293H401.527V161.793H402.027V161.293ZM408.4 154.924H408.9V154.424H408.4V154.924ZM414.773 157.472H415.273V156.972H414.773V157.472ZM414.773 163.84V164.34H415.273V163.84H414.773ZM408.4 163.84H407.9V164.34H408.4V163.84ZM372.712 151.103V150.603H372.212V151.103H372.712ZM379.723 151.103H380.223V150.603H379.723V151.103ZM379.723 171.482V171.982H380.223V171.482H379.723ZM372.712 171.482H372.212V171.982H372.712V171.482ZM261.825 230.073L261.814 230.573L262.325 230.584V230.073H261.825ZM319.818 143.461H319.318V143.961H319.818V143.461ZM332.564 147.282H332.064V147.782H332.564V147.282ZM152.212 186.767V187.267H152.712V186.767H152.212ZM148.389 182.946L148.307 182.453L147.954 182.511L147.896 182.864L148.389 182.946ZM26.0303 159.382L25.9482 158.889L25.7205 158.927L25.6017 159.125L26.0303 159.382ZM341.486 176.577L341.882 176.272L341.84 176.218L341.785 176.177L341.486 176.577ZM336.387 174.667V174.167H335.887V174.667H336.387ZM338.936 174.667L339.236 174.267L339.103 174.167H338.936V174.667ZM350.408 193.135H349.908V193.635H350.408V193.135ZM350.408 185.493H350.908V184.993H350.408V185.493ZM333.838 185.493H333.338V185.993H333.838V185.493ZM333.838 182.946V182.446H333.338V182.946H333.838ZM344.672 182.946V183.446H345.172V182.946H344.672ZM344.672 158.108H345.172V157.95L345.08 157.82L344.672 158.108ZM337.025 135.818H337.525V135.318H337.025V135.818ZM332.564 135.818H332.064V136.318H332.564V135.818ZM332.564 133.908V133.408H332.064V133.908H332.564ZM340.211 133.908V134.408H340.711V133.908H340.211ZM340.211 132.634V132.134H339.711V132.634H340.211ZM386.095 135.818V136.318H386.595V135.818H386.095ZM361.241 135.818V135.318H360.741V135.818H361.241ZM361.241 182.946V183.446H361.741V182.946H361.241ZM354.868 182.946V182.446H354.368V182.946H354.868ZM354.868 193.135V193.635H355.368V193.135H354.868ZM323.004 135.818V136.318H323.504V135.818H323.004ZM304.523 89.9648V89.4648H304.032L304.023 89.956L304.523 89.9648ZM339.574 89.9648H340.074V89.4648H339.574V89.9648ZM339.574 114.165V114.665H340.074V114.165H339.574ZM314.72 114.165V113.665H314.22V114.165H314.72ZM314.72 134.545H314.22V135.045H314.72V134.545ZM323.004 134.545H323.504V134.045H323.004V134.545ZM324.916 291.848H325.416V291.348H324.916V291.848ZM324.916 298.217V298.717H325.416V298.217H324.916ZM344.035 237.715H343.535V238.215H344.035V237.715ZM194.91 212.241H195.41V211.741H194.91V212.241ZM194.91 219.883H194.41V220.383H194.91V219.883ZM198.097 216.062V215.562H197.597V216.062H198.097ZM205.107 216.062H205.607V215.562H205.107V216.062ZM205.744 227.526V228.026H206.244V227.526H205.744ZM200.009 227.526H199.509V228.026H200.009V227.526ZM213.392 134.545V135.045H213.892V134.545H213.392ZM69.3656 110.344H68.8656V110.844H69.3656V110.344ZM75.7384 110.344V110.844H76.2384V110.344H75.7384ZM94.8569 170.209V170.709H95.3569V170.209H94.8569ZM87.2095 164.477V163.977H86.7095V164.477H87.2095ZM94.8569 118.623V118.123H94.3569V118.623H94.8569ZM80.8367 170.209V169.709H80.3367V170.209H80.8367ZM80.8367 173.011L80.834 173.511L80.8407 173.511L80.8367 173.011ZM66.1792 140.913H65.6792V141.065L65.7633 141.191L66.1792 140.913ZM67.4538 142.824L67.9009 143.048L68.0308 142.788L67.8697 142.546L67.4538 142.824ZM85.2977 201.415H84.7977V201.915H85.2977V201.415ZM345.309 320.507H344.809V321.007H345.309V320.507ZM345.309 316.686V316.186H344.809V316.686H345.309ZM349.133 269.558H348.633V270.058H349.133V269.558ZM351.682 267.011H351.182V267.511H351.682V267.011ZM297.513 128.813V128.313H297.013V128.813H297.513ZM297.513 135.818H297.013V136.318H297.513V135.818ZM112.701 118.623H113.201V118.123H112.701V118.623ZM76.8757 248.542V245.995H75.8757V248.542H76.8757ZM70.0029 249.042H76.3757V248.042H70.0029V249.042ZM70.5029 276.564V248.542H69.5029V276.564H70.5029ZM70.5029 291.211V276.564H69.5029V291.211H70.5029ZM70.5029 320.507V291.211H69.5029V320.507H70.5029ZM122.897 320.007H70.0029V321.007H122.897V320.007ZM123.397 441.859V320.507H122.397V441.859H123.397ZM155.399 441.359H122.897V442.359H155.399V441.359ZM155.899 496.279V441.859H154.899V496.279H155.899ZM175.155 495.779H155.399V496.779H175.155V495.779ZM186.892 482.57L174.784 495.944L175.525 496.615L187.634 483.241L186.892 482.57ZM186.763 480.358V482.905H187.763V480.358H186.763ZM206.382 479.858H187.263V480.858H206.382V479.858ZM205.882 428.772V480.358H206.882V428.772H205.882ZM275.845 428.272H206.382V429.272H275.845V428.272ZM287.954 428.272H275.845V429.272H287.954V428.272ZM287.454 418.583V428.772H288.454V418.583H287.454ZM317.906 418.083H287.954V419.083H317.906V418.083ZM317.406 381.645V418.583H318.406V381.645H317.406ZM310.896 382.145H317.906V381.145H310.896V382.145ZM310.396 359.355V381.645H311.396V359.355H310.396ZM312.808 358.855H310.896V359.855H312.808V358.855ZM355.506 358.855H312.808V359.855H355.506V358.855ZM355.569 320.5L355.006 359.348L356.006 359.362L356.569 320.514L355.569 320.5ZM355.569 312.865V320.507H356.569V312.865H355.569ZM355.569 269.558V312.865H356.569V269.558H355.569ZM355.569 267.011V269.558H356.569V267.011H355.569ZM355.569 263.19V267.011H356.569V263.19H355.569ZM351.682 263.69H356.069V262.69H351.682V263.69ZM349.133 263.69H351.682V262.69H349.133V263.69ZM344.035 263.69H349.133V262.69H344.035V263.69ZM343.535 258.732V263.19H344.535V258.732H343.535ZM415.41 258.232H344.035V259.232H415.41V258.232ZM414.91 251.726V258.732H415.91V251.726H414.91ZM426.882 251.226H415.41V252.226H426.882V251.226ZM427.382 258.732V251.726H426.382V258.732H427.382ZM449.824 258.232H426.882V259.232H449.824V258.232ZM449.324 237.715V258.732H450.324V237.715H449.324ZM406.815 238.215H449.824V237.215H406.815V238.215ZM406.315 219.247V237.715H407.315V219.247H406.315ZM419.871 218.747H406.815V219.747H419.871V218.747ZM426.244 218.747H419.871V219.747H426.244V218.747ZM433.254 218.747H426.244V219.747H433.254V218.747ZM432.754 205.236V219.247H433.754V205.236H432.754ZM432.754 179.125V205.236H433.754V179.125H432.754ZM432.754 172.756V179.125H433.754V172.756H432.754ZM432.754 142.824V172.756H433.754V142.824H432.754ZM432.754 136.455V142.824H433.754V136.455H432.754ZM432.754 132.634V136.455H433.754V132.634H432.754ZM432.754 131.997V132.634H433.754V131.997H432.754ZM432.754 125.629V131.997H433.754V125.629H432.754ZM432.754 115.439V125.629H433.754V115.439H432.754ZM357.672 115.939H433.254V114.939H357.672V115.939ZM357.172 70.8591V115.439H358.172V70.8591H357.172ZM303.886 71.3591H357.672V70.3591H303.886V71.3591ZM303.386 64.4905V70.8591H304.386V64.4905H303.386ZM282.855 64.9905H303.886V63.9905H282.855V64.9905ZM283.355 70.8591V64.4905H282.355V70.8591H283.355ZM278.085 71.3591H282.855V70.3591H278.085V71.3591ZM277.585 18V70.8591H278.585V18H277.585ZM213.392 18.5H278.085V17.5H213.392V18.5ZM213.892 70.8591V18H212.892V70.8591H213.892ZM120.348 71.3591H213.392V70.3591H120.348V71.3591ZM120.848 100.154V70.8591H119.848V100.154H120.848ZM126.721 99.6545H120.348V100.654H126.721V99.6545ZM127.221 103.684V100.154H126.221V103.684H127.221ZM75.7384 104.184H126.721V103.184H75.7384V104.184ZM69.3656 104.184H75.7384V103.184H69.3656V104.184ZM33.0405 104.184H69.3656V103.184H33.0405V104.184ZM33.5405 117.986V103.684H32.5405V117.986H33.5405ZM29.854 118.486H33.0405V117.486H29.854V118.486ZM29.354 110.981V117.986H30.354V110.981H29.354ZM1.1763 111.481H29.854V110.481H1.1763V111.481ZM1.6763 162.566V110.981H0.6763V162.566H1.6763ZM24.1185 162.066H1.1763V163.066H24.1185V162.066ZM29.854 162.066H24.1185V163.066H29.854V162.066ZM29.354 158.745V162.566H30.354V158.745H29.354ZM29.354 156.198V158.745H30.354V156.198H29.354ZM33.0405 155.698H29.854V156.698H33.0405V155.698ZM33.5405 170.209V156.198H32.5405V170.209H33.5405ZM33.5405 172.756V170.209H32.5405V172.756H33.5405ZM33.5405 186.767V172.756H32.5405V186.767H33.5405ZM126.721 186.267H33.0405V187.267H126.721V186.267ZM127.221 189.951V186.767H126.221V189.951H127.221ZM89.1214 190.451H126.721V189.451H89.1214V190.451ZM81.474 190.451H89.1214V189.451H81.474V190.451ZM73.1893 190.451H81.474V189.451H73.1893V190.451ZM73.6893 245.995V189.951H72.6893V245.995H73.6893ZM76.3757 245.495H73.1893V246.495H76.3757V245.495ZM304.386 135.818V89.9648H303.386V135.818H304.386ZM323.004 135.318H303.886V136.318H323.004V135.318ZM322.504 134.545V135.818H323.504V134.545H322.504ZM314.72 135.045H323.004V134.045H314.72V135.045ZM314.22 114.165V134.545H315.22V114.165H314.22ZM339.574 113.665H314.72V114.665H339.574V113.665ZM339.074 89.9648V114.165H340.074V89.9648H339.074ZM303.886 90.4648H339.574V89.4648H303.886V90.4648ZM355.368 193.135V182.946H354.368V193.135H355.368ZM350.407 193.635H354.868V192.635H350.407V193.635ZM349.907 185.493V193.135H350.907V185.493H349.907ZM333.838 185.993H350.407V184.993H333.838V185.993ZM333.338 182.946V185.493H334.338V182.946H333.338ZM344.672 182.446H333.838V183.446H344.672V182.446ZM344.172 158.745V182.946H345.172V158.745H344.172ZM336.609 147.559L344.256 159.023L345.088 158.468L337.44 147.004L336.609 147.559ZM336.525 135.818V147.282H337.525V135.818H336.525ZM332.564 136.318H337.025V135.318H332.564V136.318ZM332.064 133.908V135.818H333.064V133.908H332.064ZM340.211 133.408H332.564V134.408H340.211V133.408ZM339.711 132.634V133.908H340.711V132.634H339.711ZM386.095 132.134H340.211V133.134H386.095V132.134ZM386.595 135.818V132.634H385.595V135.818H386.595ZM361.241 136.318H386.095V135.318H361.241V136.318ZM361.741 182.946V135.818H360.741V182.946H361.741ZM354.868 183.446H361.241V182.446H354.868V183.446ZM90.896 248.542L90.8959 245.925H89.8959L89.896 248.542H90.896ZM127.996 248.042H90.396V249.042H127.996V248.042ZM128.496 258.732V248.542H127.496V258.732H128.496ZM148.389 258.232H127.996V259.232H148.389V258.232ZM147.889 248.542V258.732H148.889V248.542H147.889ZM187.9 248.042H148.389V249.042H187.9V248.042ZM187.4 219.883V248.542H188.4V219.883H187.4ZM209.034 219.383H187.9V220.383H209.034V219.383ZM208.534 219.247V219.883H209.534V219.247H208.534ZM187.9 219.747H209.034V218.747H187.9V219.747ZM187.4 189.951V219.247H188.4V189.951H187.4ZM205.744 189.451H187.9V190.451H205.744V189.451ZM205.244 163.84V189.951H206.244V163.84H205.244ZM192.715 177.568L206.098 164.194L205.391 163.486L192.008 176.86L192.715 177.568ZM165.595 177.714H192.361V176.714H165.595V177.714ZM165.095 151.74V177.214H166.095V151.74H165.095ZM163.046 152.24H165.595V151.24H163.046V152.24ZM163.546 171.482V151.74H162.546V171.482H163.546ZM152.212 171.982H163.046V170.982H152.212V171.982ZM152.712 186.767V171.482H151.712V186.767H152.712ZM141.379 187.267H152.212V186.267H141.379V187.267ZM141.879 189.951V186.767H140.879V189.951H141.879ZM156.036 189.451H141.379V190.451H156.036V189.451ZM156.536 226.889V189.951H155.536V226.889H156.536ZM115.688 227.389H156.036V226.389H115.688V227.389ZM115.188 216.062V226.889H116.188V216.062H115.188ZM95.4942 216.562H115.688V215.562H95.4942V216.562ZM95.9942 245.995V216.062H94.9942V245.995H95.9942ZM90.3891 246.425L95.4874 246.495L95.5011 245.495L90.4028 245.425L90.3891 246.425ZM145.702 370.182V274.016H144.702V370.182H145.702ZM195.548 369.682H145.202V370.682H195.548V369.682ZM195.048 367.634V370.182H196.048V367.634H195.048ZM235.059 367.134H195.548V368.134H235.059V367.134ZM235.559 381.645V367.634H234.559V381.645H235.559ZM293.052 381.145H235.059V382.145H293.052V381.145ZM292.552 353.623V381.645H293.552V353.623H292.552ZM235.059 354.123H293.052V353.123H235.059V354.123ZM234.559 298.854V353.623H235.559V298.854H234.559ZM227.696 292.202L234.706 299.207L235.413 298.5L228.403 291.495L227.696 292.202ZM187.9 292.348H228.049V291.348H187.9V292.348ZM187.4 288.664V291.848H188.4V288.664H187.4ZM158.585 289.164H187.9V288.164H158.585V289.164ZM158.085 274.016V288.664H159.085V274.016H158.085ZM145.202 274.516H158.585V273.516H145.202V274.516ZM267.698 240.9V326.875H268.698V240.9H267.698ZM285.405 240.4H268.198V241.4H285.405V240.4ZM285.905 251.726V240.9H284.905V251.726H285.905ZM314.72 251.226H285.405V252.226H314.72V251.226ZM314.22 222.431V251.726H315.22V222.431H314.22ZM307.71 222.931H314.72V221.931H307.71V222.931ZM307.21 216.699V222.431H308.21V216.699H307.21ZM351.045 216.199H307.71V217.199H351.045V216.199ZM350.545 208.42V216.699H351.545V208.42H350.545ZM354.868 207.92H351.045V208.92H354.868V207.92ZM355.368 219.247V208.42H354.368V219.247H355.368ZM388.007 218.747H354.868V219.747H388.007V218.747ZM388.507 237.715V219.247H387.507V237.715H388.507ZM344.035 238.215H388.007V237.215H344.035V238.215ZM343.535 226.252V237.715H344.535V226.252H343.535ZM325.553 226.752H344.035V225.752H325.553V226.752ZM326.053 259.369V226.252H325.053V259.369H326.053ZM330.014 258.869H325.553V259.869H330.014V258.869ZM330.514 263.19V259.369H329.514V263.19H330.514ZM317.906 263.69H330.014V262.69H317.906V263.69ZM318.406 326.875V263.19H317.406V326.875H318.406ZM268.198 327.375H317.906V326.375H268.198V327.375ZM224.863 220.383H246.53V219.383H224.863V220.383ZM224.363 218.61V219.883H225.363V218.61H224.363ZM246.53 218.11H224.863V219.11H246.53V218.11ZM246.03 189.951V218.61H247.03V189.951H246.03ZM231.873 190.451H246.53V189.451H231.873V190.451ZM231.373 168.935V189.951H232.373V168.935H231.373ZM249.717 168.435H231.873V169.435H249.717V168.435ZM249.217 142.187V168.935H250.217V142.187H249.217ZM235.697 142.687H249.717V141.687H235.697V142.687ZM228.989 136.827L235.362 142.559L236.031 141.815L229.658 136.084L228.989 136.827ZM228.824 129.45V136.455H229.824V129.45H228.824ZM235.327 122.108L228.954 129.113L229.694 129.786L236.066 122.781L235.327 122.108ZM265.012 121.944H235.697V122.944H265.012V121.944ZM264.512 100.154V122.444H265.512V100.154H264.512ZM279.032 99.6545H265.012V100.654H279.032V99.6545ZM278.532 89.9648V100.154H279.532V89.9648H278.532ZM282.855 89.4648H279.032V90.4648H282.855V89.4648ZM283.355 154.924V89.9648H282.355V154.924H283.355ZM310.896 154.424H282.855V155.424H310.896V154.424ZM311.396 183.583V154.924H310.396V183.583H311.396ZM321.73 183.083H310.896V184.083H321.73V183.083ZM322.23 186.13V183.583H321.23V186.13H322.23ZM289.228 186.63H321.73V185.63H289.228V186.63ZM289.728 216.699V186.13H288.728V216.699H289.728ZM296.061 216.199H289.228V217.199H296.061V216.199ZM296.561 222.431V216.699H295.561V222.431H296.561ZM246.53 222.931H296.061V221.931H246.53V222.931ZM246.03 219.883V222.431H247.03V219.883H246.03ZM158.723 89.9648V100.154H159.723V89.9648H158.723ZM173.243 89.4648H159.223V90.4648H173.243V89.4648ZM173.743 100.154V89.9648H172.743V100.154H173.743ZM213.392 99.6545H173.243V100.654H213.392V99.6545ZM213.892 134.545V100.154H212.892V134.545H213.892ZM205.744 135.045H213.392V134.045H205.744V135.045ZM205.244 132.634V134.545H206.244V132.634H205.244ZM165.595 133.134H205.744V132.134H165.595V133.134ZM166.095 139.64V132.634H165.095V139.64H166.095ZM163.046 140.14H165.595V139.14H163.046V140.14ZM162.546 124.355V139.64H163.546V124.355H162.546ZM145.202 124.855H163.046V123.855H145.202V124.855ZM144.702 103.976V124.355H145.702V103.976H144.702ZM142.016 104.476H145.202V103.476H142.016V104.476ZM141.516 100.154V103.976H142.516V100.154H141.516ZM159.223 99.6545H142.016V100.654H159.223V99.6545ZM235.559 381.645V367.634H234.559V381.645H235.559ZM235.059 367.134H195.548V368.134H235.059V367.134ZM195.048 367.634V370.182H196.048V367.634H195.048ZM195.548 369.682H145.202V370.682H195.548V369.682ZM145.702 370.182V274.016H144.702V370.182H145.702ZM145.202 274.516H158.585V273.516H145.202V274.516ZM158.085 274.016V288.664H159.085V274.016H158.085ZM158.585 289.164H187.9V288.164H158.585V289.164ZM188.4 288.664V274.016H187.4V288.664H188.4ZM228.333 292.202L234.706 298.57L235.413 297.863L229.04 291.495L228.333 292.202ZM235.059 354.123H293.052V353.123H235.059V354.123ZM292.552 353.623V381.645H293.552V353.623H292.552ZM293.052 381.145H235.059V382.145H293.052V381.145ZM311.396 359.355V342.797H310.396V359.355H311.396ZM310.896 343.297H312.808V342.297H310.896V343.297ZM312.308 342.797V359.355H313.308V342.797H312.308ZM70.0029 277.064H83.3858V276.064H70.0029V277.064ZM82.8858 276.564V291.211H83.8858V276.564H82.8858ZM83.3858 290.711H70.0029V291.711H83.3858V290.711ZM187.9 292.348H214.029V291.348H187.9V292.348ZM214.529 291.848V284.206H213.529V291.848H214.529ZM214.029 284.706H220.402V283.706H214.029V284.706ZM214.029 292.348H220.402V291.348H214.029V292.348ZM220.402 292.348H228.686V291.348H220.402V292.348ZM219.902 284.206V291.848H220.902V284.206H219.902ZM234.559 298.217V326.875H235.559V298.217H234.559ZM235.059 327.375H241.432V326.375H235.059V327.375ZM241.432 327.375H254.178V326.375H241.432V327.375ZM254.678 326.869L254.04 277.194L253.041 277.207L253.678 326.882L254.678 326.869ZM253.54 276.701H235.697V277.701H253.54V276.701ZM235.697 259.232H254.178V258.232H235.697V259.232ZM296.101 221.794V216.062H295.101V221.794H296.101ZM295.601 215.562H289.228V216.562H295.601V215.562ZM289.728 216.062V186.13H288.728V216.062H289.728ZM289.228 186.63H321.73V185.63H289.228V186.63ZM322.23 186.13V183.583H321.23V186.13H322.23ZM321.73 183.083H311.533V184.083H321.73V183.083ZM312.033 183.572L311.396 154.913L310.396 154.935L311.033 183.594L312.033 183.572ZM310.896 154.424H282.855V155.424H310.896V154.424ZM283.355 154.924V89.9648H282.355V154.924H283.355ZM282.855 89.4648H279.032V90.4648H282.855V89.4648ZM278.532 89.9648V100.154H279.532V89.9648H278.532ZM258.001 100.654H265.012V99.6545H258.001V100.654ZM264.512 100.154V122.444H265.512V100.154H264.512ZM265.012 121.944H235.697V122.944H265.012V121.944ZM235.327 122.108L228.954 129.113L229.694 129.786L236.066 122.781L235.327 122.108ZM228.824 129.45V136.455H229.824V129.45H228.824ZM228.989 136.827L235.362 142.559L236.031 141.815L229.658 136.084L228.989 136.827ZM235.697 142.687H249.717V141.687H235.697V142.687ZM249.217 142.187V168.935H250.217V142.187H249.217ZM249.717 168.435H231.873V169.435H249.717V168.435ZM231.373 168.935V189.951H232.373V168.935H231.373ZM231.873 190.451H246.53V189.451H231.873V190.451ZM246.03 189.951V218.61H247.03V189.951H246.03ZM246.53 218.11H224.863V219.11H246.53V218.11ZM224.363 218.61V219.883H225.363V218.61H224.363ZM224.863 220.383H246.53V219.383H224.863V220.383ZM246.03 219.883V222.431H247.03V219.883H246.03ZM246.529 222.931L254.177 222.945L254.179 221.945L246.531 221.931L246.529 222.931ZM173.743 100.154V89.9648H172.743V100.154H173.743ZM173.243 90.4648H213.392V89.4648H173.243V90.4648ZM173.243 89.4648H159.223V90.4648H173.243V89.4648ZM158.723 89.9648V100.154H159.723V89.9648H158.723ZM159.223 99.6545H142.016V100.654H159.223V99.6545ZM141.516 100.154V103.976H142.516V100.154H141.516ZM142.016 104.476H145.202V103.476H142.016V104.476ZM144.702 103.976V124.355H145.702V103.976H144.702ZM145.202 124.855H163.046V123.855H145.202V124.855ZM162.546 124.355V139.64H163.546V124.355H162.546ZM163.046 140.14H165.595V139.14H163.046V140.14ZM166.095 139.64V132.67H165.095V139.64H166.095ZM165.595 133.17H205.744V132.17H165.595V133.17ZM154.762 134.682H145.202V135.682H154.762V134.682ZM144.702 135.182V160.337H145.702V135.182H144.702ZM163.546 160.337V151.74H162.546V160.337H163.546ZM163.046 152.24H165.595V151.24H163.046V152.24ZM165.095 151.74V177.214H166.095V151.74H165.095ZM165.595 177.714H192.361V176.714H165.595V177.714ZM192.715 177.568L206.098 164.194L205.391 163.486L192.008 176.86L192.715 177.568ZM206.244 163.84V157.472H205.244V163.84H206.244ZM205.744 189.451H187.9V190.451H205.744V189.451ZM188.4 261.916V248.542H187.4V261.916H188.4ZM187.9 248.042H148.389V249.042H187.9V248.042ZM147.889 248.542V258.732H148.889V248.542H147.889ZM148.389 258.232H127.996V259.232H148.389V258.232ZM128.496 258.732V248.542H127.496V258.732H128.496ZM127.996 248.042H90.396V249.042H127.996V248.042ZM90.896 248.542V245.995H89.896V248.542H90.896ZM90.396 246.495H95.4942V245.495H90.396V246.495ZM95.9942 245.995V216.062H94.9942V245.995H95.9942ZM95.4942 216.562H115.55V215.562H95.4942V216.562ZM115.05 216.062V226.889H116.05V216.062H115.05ZM115.55 227.389H156.036V226.389H115.55V227.389ZM156.536 226.889V189.951H155.536V226.889H156.536ZM156.036 189.451H141.379V190.451H156.036V189.451ZM141.879 189.951V186.767H140.879V189.951H141.879ZM152.212 171.982H163.046V170.982H152.212V171.982ZM317.906 263.69H330.014V262.69H317.906V263.69ZM330.514 263.19V259.369H329.514V263.19H330.514ZM330.014 258.869H325.553V259.869H330.014V258.869ZM326.053 259.369V226.252H325.053V259.369H326.053ZM325.553 226.752H344.035V225.752H325.553V226.752ZM388.507 237.715V219.247H387.507V237.715H388.507ZM388.007 218.747H354.868V219.747H388.007V218.747ZM355.368 219.247V208.42H354.368V219.247H355.368ZM354.868 207.92H351.045V208.92H354.868V207.92ZM350.545 208.42V216.062H351.545V208.42H350.545ZM351.037 215.562L307.702 216.199L307.717 217.199L351.052 216.562L351.037 215.562ZM307.21 216.699V222.431H308.21V216.699H307.21ZM307.71 222.931H314.72V221.931H307.71V222.931ZM314.22 222.431V251.726H315.22V222.431H314.22ZM314.72 251.226H285.405V252.226H314.72V251.226ZM285.905 251.726V240.9H284.905V251.726H285.905ZM285.405 240.4H268.198V241.4H285.405V240.4ZM267.698 240.9V326.875H268.698V240.9H267.698ZM33.0405 125.129H29.854V126.129H33.0405V125.129ZM29.354 125.629V148.556H30.354V125.629H29.354ZM29.854 149.056H33.0405V148.056H29.854V149.056ZM33.5405 148.556V125.629H32.5405V148.556H33.5405ZM58.5318 137.898H66.1792V136.898H58.5318V137.898ZM66.3165 144.098V149.829H67.3165V144.098H66.3165ZM66.8165 149.329H60.4436V150.329H66.8165V149.329ZM60.9436 149.829V144.734H59.9436V149.829H60.9436ZM60.7971 144.381L58.8852 142.47L58.1784 143.178L60.0902 145.088L60.7971 144.381ZM59.0318 142.824V137.398H58.0318V142.824H59.0318ZM112.201 170.209V172.756H113.201V170.209H112.201ZM96.7688 121.034H112.701V120.034H96.7688V121.034ZM97.2688 170.209V120.534H96.2688V170.209H97.2688ZM112.564 156.835V137.729H111.564V156.835H112.564ZM112.487 137.463L109.3 132.404L108.454 132.937L111.641 137.995L112.487 137.463ZM108.454 132.404L105.268 137.463L106.114 137.995L109.3 132.937L108.454 132.404ZM105.191 137.729V156.835H106.191V137.729H105.191ZM105.691 157.335H112.064V156.335H105.691V157.335ZM163.546 171.482V162.566H162.546V171.482H163.546ZM163.546 162.566V160.337H162.546V162.566H163.546ZM151.575 163.066H163.046V162.066H151.575V163.066ZM80.974 189.951V197.594H81.974V189.951H80.974ZM88.6214 197.594V201.415H89.6214V197.594H88.6214ZM234.559 333.881V353.623H235.559V333.881H234.559ZM235.059 334.381H241.432V333.381H235.059V334.381ZM241.932 333.881V326.875H240.932V333.881H241.932ZM234.559 326.875V333.881H235.559V326.875H234.559ZM267.698 326.875V333.881H268.698V326.875H267.698ZM268.198 334.381H274.571V333.381H268.198V334.381ZM268.198 327.375H274.571V326.375H268.198V327.375ZM274.571 327.375H317.906V326.375H274.571V327.375ZM275.071 333.881V326.875H274.071V333.881H275.071ZM356.069 312.365H349.133V313.365H356.069V312.365ZM349.133 321.007H356.069V320.007H349.133V321.007ZM287.954 418.083H275.845V419.083H287.954V418.083ZM275.345 418.583V428.772H276.345V418.583H275.345ZM433.254 135.955H426.882V136.955H433.254V135.955ZM426.382 136.455V142.824H427.382V136.455H426.382ZM426.882 143.324H433.254V142.324H426.882V143.324ZM433.254 125.129H426.882V126.129H433.254V125.129ZM426.382 125.629V131.997H427.382V125.629H426.382ZM426.882 132.497H433.254V131.497H426.882V132.497ZM433.254 172.256H426.882V173.256H433.254V172.256ZM426.382 172.756V179.125H427.382V172.756H426.382ZM426.882 179.625H433.254V178.625H426.882V179.625ZM425.744 205.236V219.247H426.744V205.236H425.744ZM426.244 205.736H433.254V204.736H426.244V205.736ZM419.871 205.736H426.244V204.736H419.871V205.736ZM419.371 205.236V219.247H420.371V205.236H419.371ZM401.527 154.924V161.293H402.527V154.924H401.527ZM402.027 161.793H408.4V160.793H402.027V161.793ZM408.4 154.424H402.027V155.424H408.4V154.424ZM408.9 161.293V157.472H407.9V161.293H408.9ZM408.9 157.472V154.924H407.9V157.472H408.9ZM408.4 157.972H414.773V156.972H408.4V157.972ZM414.273 157.472V163.84H415.273V157.472H414.273ZM414.773 163.34H408.4V164.34H414.773V163.34ZM408.9 163.84V161.293H407.9V163.84H408.9ZM372.712 151.603H379.723V150.603H372.712V151.603ZM379.223 151.103V171.482H380.223V151.103H379.223ZM379.723 170.982H372.712V171.982H379.723V170.982ZM373.212 171.482V151.103H372.212V171.482H373.212ZM254.678 258.732V229.905H253.678V258.732H254.678ZM254.678 229.905V222.445H253.678V229.905H254.678ZM254.167 230.404L261.814 230.573L261.836 229.573L254.189 229.405L254.167 230.404ZM254.179 222.945L261.826 222.931L261.824 221.931L254.177 221.945L254.179 222.945ZM261.835 222.931L295.611 222.294L295.592 221.294L261.816 221.931L261.835 222.931ZM262.325 230.073V222.431H261.325V230.073H262.325ZM319.318 135.182V135.818H320.318V135.182H319.318ZM319.318 135.818V143.461H320.318V135.818H319.318ZM319.818 143.961H332.564V142.961H319.818V143.961ZM332.564 143.961H337.025V142.961H332.564V143.961ZM332.064 143.461V147.282H333.064V143.461H332.064ZM332.564 147.782H337.025V146.782H332.564V147.782ZM141.379 187.267H147.751V186.267H141.379V187.267ZM147.751 187.267H152.212V186.267H147.751V187.267ZM148.245 186.849L148.882 183.028L147.896 182.864L147.258 186.685L148.245 186.849ZM152.712 186.767V182.309H151.712V186.767H152.712ZM152.712 182.309V171.482H151.712V182.309H152.712ZM148.471 183.439L152.295 182.802L152.13 181.816L148.307 182.453L148.471 183.439ZM187.4 189.951V212.241H188.4V189.951H187.4ZM187.4 212.241V219.883H188.4V212.241H187.4ZM24.5472 162.824L26.459 159.639L25.6017 159.125L23.6898 162.309L24.5472 162.824ZM26.1125 159.875L29.9362 159.238L29.7719 158.252L25.9482 158.889L26.1125 159.875ZM336.887 182.946V178.488H335.887V182.946H336.887ZM336.563 178.956L341.661 177.045L341.31 176.109L336.212 178.02L336.563 178.956ZM341.089 176.882L344.276 181.022L345.068 180.412L341.882 176.272L341.089 176.882ZM336.887 178.488V174.667H335.887V178.488H336.887ZM336.387 175.167H337.662V174.167H336.387V175.167ZM337.662 175.167H338.936V174.167H337.662V175.167ZM338.637 175.067L341.186 176.977L341.785 176.177L339.236 174.267L338.637 175.067ZM350.908 193.135V185.493H349.908V193.135H350.908ZM350.408 184.993H333.838V185.993H350.408V184.993ZM334.338 185.493V182.946H333.338V185.493H334.338ZM333.838 183.446H336.387V182.446H333.838V183.446ZM336.387 183.446H344.672V182.446H336.387V183.446ZM345.172 182.946V180.717H344.172V182.946H345.172ZM345.172 180.717V158.108H344.172V180.717H345.172ZM345.08 157.82L337.433 146.993L336.616 147.57L344.264 158.397L345.08 157.82ZM336.525 143.461V147.282H337.525V143.461H336.525ZM337.525 143.461V135.818H336.525V143.461H337.525ZM337.025 135.318H332.564V136.318H337.025V135.318ZM333.064 135.818V133.908H332.064V135.818H333.064ZM332.564 134.408H340.211V133.408H332.564V134.408ZM340.711 133.908V132.634H339.711V133.908H340.711ZM340.211 133.134H386.095V132.134H340.211V133.134ZM385.595 132.634V135.818H386.595V132.634H385.595ZM386.095 135.318H361.241V136.318H386.095V135.318ZM360.741 135.818V182.946H361.741V135.818H360.741ZM361.241 182.446H354.868V183.446H361.241V182.446ZM354.368 182.946V193.135H355.368V182.946H354.368ZM354.868 192.635H350.408V193.635H354.868V192.635ZM323.004 135.318H319.818V136.318H323.004V135.318ZM319.818 135.318H303.886V136.318H319.818V135.318ZM304.386 126.274L305.023 89.9735L304.023 89.956L303.386 126.257L304.386 126.274ZM304.523 90.4648H339.574V89.4648H304.523V90.4648ZM339.074 89.9648V114.165H340.074V89.9648H339.074ZM339.574 113.665H314.72V114.665H339.574V113.665ZM314.22 114.165V134.545H315.22V114.165H314.22ZM314.72 135.045H323.004V134.045H314.72V135.045ZM322.504 134.545V135.818H323.504V134.545H322.504ZM318.406 291.848V263.19H317.406V291.848H318.406ZM317.906 292.348H324.916V291.348H317.906V292.348ZM324.416 291.848V298.217H325.416V291.848H324.416ZM318.406 326.875V298.217H317.406V326.875H318.406ZM318.406 298.217V291.848H317.406V298.217H318.406ZM324.916 297.717H317.906V298.717H324.916V297.717ZM343.535 226.252V237.715H344.535V226.252H343.535ZM388.007 237.215H344.035V238.215H388.007V237.215ZM188.4 291.848V288.664H187.4V291.848H188.4ZM145.202 160.837H151.575V159.837H145.202V160.837ZM151.575 160.837H163.046V159.837H151.575V160.837ZM152.075 162.566V160.337H151.075V162.566H152.075ZM206.244 189.951V163.84H205.244V189.951H206.244ZM187.9 212.741H194.91V211.741H187.9V212.741ZM194.41 212.241V219.883H195.41V212.241H194.41ZM194.91 220.383H198.097V219.383H194.91V220.383ZM198.597 219.883V216.062H197.597V219.883H198.597ZM198.097 216.562H205.107V215.562H198.097V216.562ZM204.607 216.062V219.883H205.607V216.062H204.607ZM205.744 220.383H208.931V219.383H205.744V220.383ZM205.244 219.883V227.526H206.244V219.883H205.244ZM205.744 227.026H200.009V228.026H205.744V227.026ZM198.097 220.383H200.009V219.383H198.097V220.383ZM200.009 220.383H205.107V219.383H200.009V220.383ZM205.107 220.383H205.744V219.383H205.107V220.383ZM200.509 227.526V219.883H199.509V227.526H200.509ZM279.032 99.6545H265.012V100.654H279.032V99.6545ZM205.244 132.67V134.545H206.244V132.67H205.244ZM205.244 134.545V139.039H206.244V134.545H205.244ZM205.744 135.045H213.392V134.045H205.744V135.045ZM241.432 99.6545H213.392V100.654H241.432V99.6545ZM213.392 99.6545H173.243V100.654H213.392V99.6545ZM213.892 134.545V100.154H212.892V134.545H213.892ZM68.8656 103.684V110.344H69.8656V103.684H68.8656ZM69.3656 110.844H75.7384V109.844H69.3656V110.844ZM76.2384 110.344V103.684H75.2384V110.344H76.2384ZM96.7688 170.709H112.701V169.709H96.7688V170.709ZM94.8569 169.709H87.2095V170.709H94.8569V169.709ZM87.7095 170.209V164.477H86.7095V170.209H87.7095ZM95.3569 170.209V164.477H94.3569V170.209H95.3569ZM95.3569 164.477V118.623H94.3569V164.477H95.3569ZM87.2095 164.977H94.8569V163.977H87.2095V164.977ZM87.2095 169.709H80.8367V170.709H87.2095V169.709ZM112.697 172.256L80.8327 172.511L80.8407 173.511L112.705 173.256L112.697 172.256ZM80.8394 172.511L33.0431 172.256L33.0378 173.256L80.834 173.511L80.8394 172.511ZM80.3367 170.209V173.011H81.3367V170.209H80.3367ZM65.6792 137.398V140.913H66.6792V137.398H65.6792ZM65.7633 141.191L67.0378 143.101L67.8697 142.546L66.5951 140.636L65.7633 141.191ZM67.0066 142.6L66.3693 143.874L67.2636 144.321L67.9009 143.048L67.0066 142.6ZM89.1214 200.915H85.2977V201.915H89.1214V200.915ZM81.474 198.094H85.2977V197.094H81.474V198.094ZM85.2977 198.094H89.1214V197.094H85.2977V198.094ZM85.7977 201.415V197.594H84.7977V201.415H85.7977ZM89.6214 197.594V189.951H88.6214V197.594H89.6214ZM349.133 320.007H345.309V321.007H349.133V320.007ZM345.809 320.507V316.686H344.809V320.507H345.809ZM348.633 312.865V316.686H349.633V312.865H348.633ZM348.633 316.686V320.507H349.633V316.686H348.633ZM345.309 317.186H349.133V316.186H345.309V317.186ZM348.633 263.19V269.558H349.633V263.19H348.633ZM349.133 270.058H356.069V269.058H349.133V270.058ZM351.182 263.19V267.011H352.182V263.19H351.182ZM351.682 267.511H356.069V266.511H351.682V267.511ZM303.886 128.313H297.513V129.313H303.886V128.313ZM297.013 128.813V135.818H298.013V128.813H297.013ZM297.513 136.318H303.886V135.318H297.513V136.318ZM113.201 120.534V118.623H112.201V120.534H113.201ZM112.701 118.123H94.8569V119.123H112.701V118.123ZM386.095 133.134H433.254V132.134H386.095V133.134Z" fill="#B27C40"/>
<path d="M249.217 61.3062C249.217 63.1401 247.729 64.6274 245.893 64.6274C244.057 64.6274 242.569 63.1401 242.569 61.3062C242.569 59.4723 244.057 57.9851 245.893 57.9851C247.729 57.9851 249.217 59.4723 249.217 61.3062Z" stroke="#B27C40"/>
<path d="M220.539 267.011C220.539 268.845 219.051 270.332 217.215 270.332C215.379 270.332 213.892 268.845 213.892 267.011C213.892 265.177 215.379 263.69 217.215 263.69C219.051 263.69 220.539 265.177 220.539 267.011Z" stroke="#B27C40"/>
<path d="M185.488 399.477C185.488 402.366 183.145 404.709 180.253 404.709C177.361 404.709 175.017 402.366 175.017 399.477C175.017 396.588 177.361 394.245 180.253 394.245C183.145 394.245 185.488 396.588 185.488 399.477Z" stroke="#B27C40"/>
<path d="M151.075 435.778C151.075 439.019 148.446 441.646 145.202 441.646C141.959 441.646 139.329 439.019 139.329 435.778C139.329 432.537 141.959 429.909 145.202 429.909C148.446 429.909 151.075 432.537 151.075 435.778Z" stroke="#B27C40"/>
</svg>
