<svg width="411" height="474" viewBox="0 0 411 474" fill="none" xmlns="http://www.w3.org/2000/svg">
<path fill-rule="evenodd" clip-rule="evenodd" d="M1 323V370.5H27.7628V364.5H30V377.5H115.644V380.5H109.5V407H195V455.5H254V407.5H258V413H277.5V407.5H326.5V367H395.5V271.5H371V255.5H410.5V235.5H389V242.5H379V235.5H313.5V232.5H325V143.5H285.5V159H284V124H290.5V90H263.5V81H190.5L188 69.5V33.5H171L160 18.5H142V68L141.5 73.5L137 69H112.5V179.5H64V245.203H69.5V247.5H66V298.5H115.771V301.77H30V329H28V323H1ZM186.5 344V351H151.5V344.5H149V358.38H132.5V377.5H129V380.5H145.5V390.5H158.5V380.5H221V379H195V348H188V344H186.5ZM295 348V349.5H287V367.5H309.5V366H310.5V390H277.5V348H295ZM323.5 294.5H319.5V302H304V304.5H309V309H313.5V327.5L307 337V348H302.239V349.5H347H353V348H329.5V305H323.5V294.5ZM244.5 173H290.5V232.5H301.5V235.5H297V265.5H314V255.5H354.5V271.5H323.5V282H320V275H280.5V268.5H287V242.312H260.5V252H244.5V173ZM132.5 222.5V133.5H178.5V136.5H214.5V124H267V150H214.5V199.5L207.5 206.5H172V222.5H170V209H145.5V222.5H132.5ZM293 304.5V302H263.5V275H270.657V268.5H224.5V270H205V271.5H224.5V298.5H211.195V317.796H228V341.5H215L209 347V354.5L214.5 360.5H241.5V379H235V380.5H254V390H258V331H284V304.5H293ZM86.5 247H82.5V245H116.328V235.671H135.5V245H170V232.5H172V270H191.5V271.5H172V298.5H188V328.5H186.5V322L175.5 311H151.5V334H149V316H138.5V306.5L134 302H129V298.5H142V265.206H106V275.5H86.5V247ZM27.5 335.5H30V358H27.5V335.5Z" fill="#271406"/>
<path d="M1 370.5V371H0.5V370.5H1ZM1 323H0.5V322.5H1V323ZM27.7628 370.5H28.2628V371H27.7628V370.5ZM27.7628 364.5H27.2628V364H27.7628V364.5ZM30 364.5V364H30.5V364.5H30ZM30 377.5V378H29.5V377.5H30ZM115.644 377.5V377H116.144V377.5H115.644ZM115.644 380.5H116.144V381H115.644V380.5ZM109.5 380.5H109V380H109.5V380.5ZM109.5 407V407.5H109V407H109.5ZM195 407V406.5H195.5V407H195ZM195 455.5V456H194.5V455.5H195ZM254 455.5H254.5V456H254V455.5ZM254 407.5H253.5V407H254V407.5ZM258 407.5V407H258.5V407.5H258ZM258 413V413.5H257.5V413H258ZM277.5 413H278V413.5H277.5V413ZM277.5 407.5H277V407H277.5V407.5ZM326.5 407.5H327V408H326.5V407.5ZM326.5 367H326V366.5H326.5V367ZM395.5 367H396V367.5H395.5V367ZM395.5 271.5V271H396V271.5H395.5ZM371 271.5V272H370.5V271.5H371ZM371 255.5H370.5V255H371V255.5ZM410.5 255.5H411V256H410.5V255.5ZM410.5 235.5V235H411V235.5H410.5ZM389 235.5H388.5V235H389V235.5ZM389 242.5H389.5V243H389V242.5ZM379 242.5V243H378.5V242.5H379ZM379 235.5V235H379.5V235.5H379ZM313.5 235.5V236H313V235.5H313.5ZM313.5 232.5H313V232H313.5V232.5ZM325 232.5H325.5V233H325V232.5ZM325 143.5V143H325.5V143.5H325ZM285.5 143.5H285V143H285.5V143.5ZM285.5 159H286V159.5H285.5V159ZM284 159V159.5H283.5V159H284ZM284 124H283.5V123.5H284V124ZM290.5 124H291V124.5H290.5V124ZM290.5 90V89.5H291V90H290.5ZM263.5 90V90.5H263V90H263.5ZM263.5 81V80.5H264V81H263.5ZM190.5 81V81.5H190.097L190.011 81.1062L190.5 81ZM188 69.5L187.511 69.6062L187.5 69.5537V69.5H188ZM188 33.5V33H188.5V33.5H188ZM171 33.5V34H170.747L170.597 33.7957L171 33.5ZM160 18.5V18H160.253L160.403 18.2043L160 18.5ZM142 18.5H141.5V18H142V18.5ZM142 68H142.5V68.0227L142.498 68.0453L142 68ZM141.5 73.5L141.998 73.5453L141.901 74.6084L141.146 73.8536L141.5 73.5ZM137 69V68.5H137.207L137.354 68.6464L137 69ZM112.5 69H112V68.5H112.5V69ZM112.5 179.5H113V180H112.5V179.5ZM64 179.5H63.5V179H64V179.5ZM64 245.203V245.703H63.5V245.203H64ZM69.5 245.203V244.703H70V245.203H69.5ZM69.5 247.5H70V248H69.5V247.5ZM66 247.5H65.5V247H66V247.5ZM66 298.5V299H65.5V298.5H66ZM115.771 298.5V298H116.271V298.5H115.771ZM115.771 301.77H116.271V302.27H115.771V301.77ZM30 301.77H29.5V301.27H30V301.77ZM30 329H30.5V329.5H30V329ZM28 329V329.5H27.5V329H28ZM28 323V322.5H28.5V323H28ZM186.5 351H187V351.5H186.5V351ZM186.5 344H186V343.5H186.5V344ZM151.5 351V351.5H151V351H151.5ZM151.5 344.5V344H152V344.5H151.5ZM149 344.5H148.5V344H149V344.5ZM149 358.38H149.5V358.88H149V358.38ZM132.5 358.38H132V357.88H132.5V358.38ZM132.5 377.5H133V378H132.5V377.5ZM129 377.5H128.5V377H129V377.5ZM129 380.5V381H128.5V380.5H129ZM145.5 380.5V380H146V380.5H145.5ZM145.5 390.5V391H145V390.5H145.5ZM158.5 390.5H159V391H158.5V390.5ZM158.5 380.5H158V380H158.5V380.5ZM221 380.5H221.5V381H221V380.5ZM221 379V378.5H221.5V379H221ZM195 379V379.5H194.5V379H195ZM195 348V347.5H195.5V348H195ZM188 348V348.5H187.5V348H188ZM188 344V343.5H188.5V344H188ZM295 349.5H295.5V350H295V349.5ZM295 348V347.5H295.5V348H295ZM287 349.5H286.5V349H287V349.5ZM287 367.5V368H286.5V367.5H287ZM309.5 367.5H310V368H309.5V367.5ZM309.5 366H309V365.5H309.5V366ZM310.5 366V365.5H311V366H310.5ZM310.5 390H311V390.5H310.5V390ZM277.5 390V390.5H277V390H277.5ZM277.5 348H277V347.5H277.5V348ZM319.5 294.5H319V294H319.5V294.5ZM323.5 294.5V294H324V294.5H323.5ZM319.5 302H320V302.5H319.5V302ZM304 302H303.5V301.5H304V302ZM304 304.5V305H303.5V304.5H304ZM309 304.5V304H309.5V304.5H309ZM309 309V309.5H308.5V309H309ZM313.5 309V308.5H314V309H313.5ZM313.5 327.5H314V327.655L313.913 327.782L313.5 327.5ZM307 337H306.5V336.845L306.587 336.718L307 337ZM307 348H307.5V348.5H307V348ZM302.239 348H301.739V347.5H302.239V348ZM302.239 349.5V350H301.739V349.5H302.239ZM353 349.5H353.5V350H353V349.5ZM353 348V347.5H353.5V348H353ZM329.5 348V348.5H329V348H329.5ZM329.5 305V304.5H330V305H329.5ZM323.5 305V305.5H323V305H323.5ZM290.5 173V172.5H291V173H290.5ZM244.5 173H244V172.5H244.5V173ZM290.5 232.5V233H290V232.5H290.5ZM301.5 232.5V232H302V232.5H301.5ZM301.5 235.5H302V236H301.5V235.5ZM297 235.5H296.5V235H297V235.5ZM297 265.5V266H296.5V265.5H297ZM314 265.5H314.5V266H314V265.5ZM314 255.5H313.5V255H314V255.5ZM354.5 255.5V255H355V255.5H354.5ZM354.5 271.5H355V272H354.5V271.5ZM323.5 271.5H323V271H323.5V271.5ZM323.5 282H324V282.5H323.5V282ZM320 282V282.5H319.5V282H320ZM320 275V274.5H320.5V275H320ZM280.5 275V275.5H280V275H280.5ZM280.5 268.5H280V268H280.5V268.5ZM287 268.5H287.5V269H287V268.5ZM287 242.312V241.812H287.5V242.312H287ZM260.5 242.312H260V241.812H260.5V242.312ZM260.5 252H261V252.5H260.5V252ZM244.5 252V252.5H244V252H244.5ZM132.5 133.5H132V133H132.5V133.5ZM132.5 222.5V223H132V222.5H132.5ZM178.5 133.5V133H179V133.5H178.5ZM178.5 136.5V137H178V136.5H178.5ZM214.5 136.5H215V137H214.5V136.5ZM214.5 124H214V123.5H214.5V124ZM267 124V123.5H267.5V124H267ZM267 150H267.5V150.5H267V150ZM214.5 150H214V149.5H214.5V150ZM214.5 199.5H215V199.707L214.854 199.854L214.5 199.5ZM207.5 206.5L207.854 206.854L207.707 207H207.5V206.5ZM172 206.5H171.5V206H172V206.5ZM172 222.5H172.5V223H172V222.5ZM170 222.5V223H169.5V222.5H170ZM170 209V208.5H170.5V209H170ZM145.5 209H145V208.5H145.5V209ZM145.5 222.5H146V223H145.5V222.5ZM293 302V301.5H293.5V302H293ZM293 304.5H293.5V305H293V304.5ZM263.5 302V302.5H263V302H263.5ZM263.5 275H263V274.5H263.5V275ZM270.657 275H271.157V275.5H270.657V275ZM270.657 268.5V268H271.157V268.5H270.657ZM224.5 268.5H224V268H224.5V268.5ZM224.5 270H225V270.5H224.5V270ZM205 270H204.5V269.5H205V270ZM205 271.5V272H204.5V271.5H205ZM224.5 271.5V271H225V271.5H224.5ZM224.5 298.5H225V299H224.5V298.5ZM211.195 298.5H210.695V298H211.195V298.5ZM211.195 317.796V318.296H210.695V317.796H211.195ZM228 317.796V317.296H228.5V317.796H228ZM228 341.5H228.5V342H228V341.5ZM215 341.5L214.662 341.131L214.806 341H215V341.5ZM209 347H208.5V346.78L208.662 346.631L209 347ZM209 354.5L208.631 354.838L208.5 354.694V354.5H209ZM214.5 360.5V361H214.28L214.131 360.838L214.5 360.5ZM241.5 360.5V360H242V360.5H241.5ZM241.5 379H242V379.5H241.5V379ZM235 379H234.5V378.5H235V379ZM235 380.5V381H234.5V380.5H235ZM254 380.5V380H254.5V380.5H254ZM254 390V390.5H253.5V390H254ZM258 390H258.5V390.5H258V390ZM258 331H257.5V330.5H258V331ZM284 331H284.5V331.5H284V331ZM284 304.5H283.5V304H284V304.5ZM82.5 247V247.5H82V247H82.5ZM86.5 247V246.5H87V247H86.5ZM82.5 245H82V244.5H82.5V245ZM116.328 245H116.828V245.5H116.328V245ZM116.328 235.671H115.828V235.171H116.328V235.671ZM135.5 235.671V235.171H136V235.671H135.5ZM135.5 245V245.5H135V245H135.5ZM170 245H170.5V245.5H170V245ZM170 232.5H169.5V232H170V232.5ZM172 232.5V232H172.5V232.5H172ZM172 270V270.5H171.5V270H172ZM191.5 270V269.5H192V270H191.5ZM191.5 271.5H192V272H191.5V271.5ZM172 271.5H171.5V271H172V271.5ZM172 298.5V299H171.5V298.5H172ZM188 298.5V298H188.5V298.5H188ZM188 328.5H188.5V329H188V328.5ZM186.5 328.5V329H186V328.5H186.5ZM186.5 322L186.854 321.646L187 321.793V322H186.5ZM175.5 311V310.5H175.707L175.854 310.646L175.5 311ZM151.5 311H151V310.5H151.5V311ZM151.5 334H152V334.5H151.5V334ZM149 334V334.5H148.5V334H149ZM149 316V315.5H149.5V316H149ZM138.5 316V316.5H138V316H138.5ZM138.5 306.5L138.854 306.146L139 306.293V306.5H138.5ZM134 302V301.5H134.207L134.354 301.646L134 302ZM129 302V302.5H128.5V302H129ZM129 298.5H128.5V298H129V298.5ZM142 298.5H142.5V299H142V298.5ZM142 265.206V264.706H142.5V265.206H142ZM106 265.206H105.5V264.706H106V265.206ZM106 275.5H106.5V276H106V275.5ZM86.5 275.5V276H86V275.5H86.5ZM30 335.5V335H30.5V335.5H30ZM27.5 335.5H27V335H27.5V335.5ZM30 358H30.5V358.5H30V358ZM27.5 358V358.5H27V358H27.5ZM1 370.5H0.5V323H1H1.5V370.5H1ZM27.7628 370.5V371H1V370.5V370H27.7628V370.5ZM27.7628 364.5H28.2628V370.5H27.7628H27.2628V364.5H27.7628ZM30 364.5V365H27.7628V364.5V364H30V364.5ZM30 377.5H29.5V364.5H30H30.5V377.5H30ZM115.644 377.5V378H30V377.5V377H115.644V377.5ZM115.644 380.5H115.144V377.5H115.644H116.144V380.5H115.644ZM109.5 380.5V380H115.644V380.5V381H109.5V380.5ZM109.5 407H109V380.5H109.5H110V407H109.5ZM195 407V407.5H109.5V407V406.5H195V407ZM195 455.5H194.5V407H195H195.5V455.5H195ZM254 455.5V456H195V455.5V455H254V455.5ZM254 407.5H254.5V455.5H254H253.5V407.5H254ZM258 407.5V408H254V407.5V407H258V407.5ZM258 413H257.5V407.5H258H258.5V413H258ZM277.5 413V413.5H258V413V412.5H277.5V413ZM277.5 407.5H278V413H277.5H277V407.5H277.5ZM326.5 407.5V408H277.5V407.5V407H326.5V407.5ZM326.5 367H327V407.5H326.5H326V367H326.5ZM395.5 367V367.5H326.5V367V366.5H395.5V367ZM395.5 271.5H396V367H395.5H395V271.5H395.5ZM371 271.5V271H395.5V271.5V272H371V271.5ZM371 255.5H371.5V271.5H371H370.5V255.5H371ZM410.5 255.5V256H371V255.5V255H410.5V255.5ZM410.5 235.5H411V255.5H410.5H410V235.5H410.5ZM389 235.5V235H410.5V235.5V236H389V235.5ZM389 242.5H388.5V235.5H389H389.5V242.5H389ZM379 242.5V242H389V242.5V243H379V242.5ZM379 235.5H379.5V242.5H379H378.5V235.5H379ZM313.5 235.5V235H379V235.5V236H313.5V235.5ZM313.5 232.5H314V235.5H313.5H313V232.5H313.5ZM325 232.5V233H313.5V232.5V232H325V232.5ZM325 143.5H325.5V232.5H325H324.5V143.5H325ZM285.5 143.5V143H325V143.5V144H285.5V143.5ZM285.5 159H285V143.5H285.5H286V159H285.5ZM284 159V158.5H285.5V159V159.5H284V159ZM284 124H284.5V159H284H283.5V124H284ZM290.5 124V124.5H284V124V123.5H290.5V124ZM290.5 90H291V124H290.5H290V90H290.5ZM263.5 90V89.5H290.5V90V90.5H263.5V90ZM263.5 81H264V90H263.5H263V81H263.5ZM190.5 81V80.5H263.5V81V81.5H190.5V81ZM188 69.5L188.489 69.3938L190.989 80.8938L190.5 81L190.011 81.1062L187.511 69.6062L188 69.5ZM188 33.5H188.5V69.5H188H187.5V33.5H188ZM171 33.5V33H188V33.5V34H171V33.5ZM160 18.5L160.403 18.2043L171.403 33.2043L171 33.5L170.597 33.7957L159.597 18.7957L160 18.5ZM142 18.5V18H160V18.5V19H142V18.5ZM142 68H141.5V18.5H142H142.5V68H142ZM141.5 73.5L141.002 73.4547L141.502 67.9547L142 68L142.498 68.0453L141.998 73.5453L141.5 73.5ZM137 69L137.354 68.6464L141.854 73.1464L141.5 73.5L141.146 73.8536L136.646 69.3536L137 69ZM112.5 69V68.5H137V69V69.5H112.5V69ZM112.5 179.5H112V69H112.5H113V179.5H112.5ZM64 179.5V179H112.5V179.5V180H64V179.5ZM64 245.203H63.5V179.5H64H64.5V245.203H64ZM69.5 245.203V245.703H64V245.203V244.703H69.5V245.203ZM69.5 247.5H69V245.203H69.5H70V247.5H69.5ZM66 247.5V247H69.5V247.5V248H66V247.5ZM66 298.5H65.5V247.5H66H66.5V298.5H66ZM115.771 298.5V299H66V298.5V298H115.771V298.5ZM115.771 301.77H115.271V298.5H115.771H116.271V301.77H115.771ZM30 301.77V301.27H115.771V301.77V302.27H30V301.77ZM30 329H29.5V301.77H30H30.5V329H30ZM28 329V328.5H30V329V329.5H28V329ZM28 323H28.5V329H28H27.5V323H28ZM1 323V322.5H28V323V323.5H1V323ZM186.5 351H186V344H186.5H187V351H186.5ZM151.5 351V350.5H186.5V351V351.5H151.5V351ZM151.5 344.5H152V351H151.5H151V344.5H151.5ZM149 344.5V344H151.5V344.5V345H149V344.5ZM149 358.38H148.5V344.5H149H149.5V358.38H149ZM132.5 358.38V357.88H149V358.38V358.88H132.5V358.38ZM132.5 377.5H132V358.38H132.5H133V377.5H132.5ZM129 377.5V377H132.5V377.5V378H129V377.5ZM129 380.5H128.5V377.5H129H129.5V380.5H129ZM145.5 380.5V381H129V380.5V380H145.5V380.5ZM145.5 390.5H145V380.5H145.5H146V390.5H145.5ZM158.5 390.5V391H145.5V390.5V390H158.5V390.5ZM158.5 380.5H159V390.5H158.5H158V380.5H158.5ZM221 380.5V381H158.5V380.5V380H221V380.5ZM221 379H221.5V380.5H221H220.5V379H221ZM195 379V378.5H221V379V379.5H195V379ZM195 348H195.5V379H195H194.5V348H195ZM188 348V347.5H195V348V348.5H188V348ZM188 344H188.5V348H188H187.5V344H188ZM186.5 344V343.5H188V344V344.5H186.5V344ZM295 349.5H294.5V348H295H295.5V349.5H295ZM287 349.5V349H295V349.5V350H287V349.5ZM287 367.5H286.5V349.5H287H287.5V367.5H287ZM309.5 367.5V368H287V367.5V367H309.5V367.5ZM309.5 366H310V367.5H309.5H309V366H309.5ZM310.5 366V366.5H309.5V366V365.5H310.5V366ZM310.5 390H310V366H310.5H311V390H310.5ZM277.5 390V389.5H310.5V390V390.5H277.5V390ZM277.5 348H278V390H277.5H277V348H277.5ZM295 348V348.5H277.5V348V347.5H295V348ZM319.5 294.5V294H323.5V294.5V295H319.5V294.5ZM319.5 302H319V294.5H319.5H320V302H319.5ZM304 302V301.5H319.5V302V302.5H304V302ZM304 304.5H303.5V302H304H304.5V304.5H304ZM309 304.5V305H304V304.5V304H309V304.5ZM309 309H308.5V304.5H309H309.5V309H309ZM313.5 309V309.5H309V309V308.5H313.5V309ZM313.5 327.5H313V309H313.5H314V327.5H313.5ZM307 337L306.587 336.718L313.087 327.218L313.5 327.5L313.913 327.782L307.413 337.282L307 337ZM307 348H306.5V337H307H307.5V348H307ZM302.239 348V347.5H307V348V348.5H302.239V348ZM302.239 349.5H301.739V348H302.239H302.739V349.5H302.239ZM347 349.5V350H302.239V349.5V349H347V349.5ZM353 349.5V350H347V349.5V349H353V349.5ZM353 348H353.5V349.5H353H352.5V348H353ZM329.5 348V347.5H353V348V348.5H329.5V348ZM329.5 305H330V348H329.5H329V305H329.5ZM323.5 305V304.5H329.5V305V305.5H323.5V305ZM323.5 294.5H324V305H323.5H323V294.5H323.5ZM290.5 173V173.5H244.5V173V172.5H290.5V173ZM290.5 232.5H290V173H290.5H291V232.5H290.5ZM301.5 232.5V233H290.5V232.5V232H301.5V232.5ZM301.5 235.5H301V232.5H301.5H302V235.5H301.5ZM297 235.5V235H301.5V235.5V236H297V235.5ZM297 265.5H296.5V235.5H297H297.5V265.5H297ZM314 265.5V266H297V265.5V265H314V265.5ZM314 255.5H314.5V265.5H314H313.5V255.5H314ZM354.5 255.5V256H314V255.5V255H354.5V255.5ZM354.5 271.5H354V255.5H354.5H355V271.5H354.5ZM323.5 271.5V271H354.5V271.5V272H323.5V271.5ZM323.5 282H323V271.5H323.5H324V282H323.5ZM320 282V281.5H323.5V282V282.5H320V282ZM320 275H320.5V282H320H319.5V275H320ZM280.5 275V274.5H320V275V275.5H280.5V275ZM280.5 268.5H281V275H280.5H280V268.5H280.5ZM287 268.5V269H280.5V268.5V268H287V268.5ZM287 242.312H287.5V268.5H287H286.5V242.312H287ZM260.5 242.312V241.812H287V242.312V242.812H260.5V242.312ZM260.5 252H260V242.312H260.5H261V252H260.5ZM244.5 252V251.5H260.5V252V252.5H244.5V252ZM244.5 173H245V252H244.5H244V173H244.5ZM132.5 133.5H133V222.5H132.5H132V133.5H132.5ZM178.5 133.5V134H132.5V133.5V133H178.5V133.5ZM178.5 136.5H178V133.5H178.5H179V136.5H178.5ZM214.5 136.5V137H178.5V136.5V136H214.5V136.5ZM214.5 124H215V136.5H214.5H214V124H214.5ZM267 124V124.5H214.5V124V123.5H267V124ZM267 150H266.5V124H267H267.5V150H267ZM214.5 150V149.5H267V150V150.5H214.5V150ZM214.5 199.5H214V150H214.5H215V199.5H214.5ZM207.5 206.5L207.146 206.146L214.146 199.146L214.5 199.5L214.854 199.854L207.854 206.854L207.5 206.5ZM172 206.5V206H207.5V206.5V207H172V206.5ZM172 222.5H171.5V206.5H172H172.5V222.5H172ZM170 222.5V222H172V222.5V223H170V222.5ZM170 209H170.5V222.5H170H169.5V209H170ZM145.5 209V208.5H170V209V209.5H145.5V209ZM145.5 222.5H145V209H145.5H146V222.5H145.5ZM132.5 222.5V222H145.5V222.5V223H132.5V222.5ZM293 302H293.5V304.5H293H292.5V302H293ZM263.5 302V301.5H293V302V302.5H263.5V302ZM263.5 275H264V302H263.5H263V275H263.5ZM270.657 275V275.5H263.5V275V274.5H270.657V275ZM270.657 268.5H271.157V275H270.657H270.157V268.5H270.657ZM224.5 268.5V268H270.657V268.5V269H224.5V268.5ZM224.5 270H224V268.5H224.5H225V270H224.5ZM205 270V269.5H224.5V270V270.5H205V270ZM205 271.5H204.5V270H205H205.5V271.5H205ZM224.5 271.5V272H205V271.5V271H224.5V271.5ZM224.5 298.5H224V271.5H224.5H225V298.5H224.5ZM211.195 298.5V298H224.5V298.5V299H211.195V298.5ZM211.195 317.796H210.695V298.5H211.195H211.695V317.796H211.195ZM228 317.796V318.296H211.195V317.796V317.296H228V317.796ZM228 341.5H227.5V317.796H228H228.5V341.5H228ZM215 341.5V341H228V341.5V342H215V341.5ZM209 347L208.662 346.631L214.662 341.131L215 341.5L215.338 341.869L209.338 347.369L209 347ZM209 354.5H208.5V347H209H209.5V354.5H209ZM214.5 360.5L214.131 360.838L208.631 354.838L209 354.5L209.369 354.162L214.869 360.162L214.5 360.5ZM241.5 360.5V361H214.5V360.5V360H241.5V360.5ZM241.5 379H241V360.5H241.5H242V379H241.5ZM235 379V378.5H241.5V379V379.5H235V379ZM235 380.5H234.5V379H235H235.5V380.5H235ZM254 380.5V381H235V380.5V380H254V380.5ZM254 390H253.5V380.5H254H254.5V390H254ZM258 390V390.5H254V390V389.5H258V390ZM258 331H258.5V390H258H257.5V331H258ZM284 331V331.5H258V331V330.5H284V331ZM284 304.5H284.5V331H284H283.5V304.5H284ZM293 304.5V305H284V304.5V304H293V304.5ZM82.5 247V246.5H86.5V247V247.5H82.5V247ZM82.5 245H83V247H82.5H82V245H82.5ZM116.328 245V245.5H82.5V245V244.5H116.328V245ZM116.328 235.671H116.828V245H116.328H115.828V235.671H116.328ZM135.5 235.671V236.171H116.328V235.671V235.171H135.5V235.671ZM135.5 245H135V235.671H135.5H136V245H135.5ZM170 245V245.5H135.5V245V244.5H170V245ZM170 232.5H170.5V245H170H169.5V232.5H170ZM172 232.5V233H170V232.5V232H172V232.5ZM172 270H171.5V232.5H172H172.5V270H172ZM191.5 270V270.5H172V270V269.5H191.5V270ZM191.5 271.5H191V270H191.5H192V271.5H191.5ZM172 271.5V271H191.5V271.5V272H172V271.5ZM172 298.5H171.5V271.5H172H172.5V298.5H172ZM188 298.5V299H172V298.5V298H188V298.5ZM188 328.5H187.5V298.5H188H188.5V328.5H188ZM186.5 328.5V328H188V328.5V329H186.5V328.5ZM186.5 322H187V328.5H186.5H186V322H186.5ZM175.5 311L175.854 310.646L186.854 321.646L186.5 322L186.146 322.354L175.146 311.354L175.5 311ZM151.5 311V310.5H175.5V311V311.5H151.5V311ZM151.5 334H151V311H151.5H152V334H151.5ZM149 334V333.5H151.5V334V334.5H149V334ZM149 316H149.5V334H149H148.5V316H149ZM138.5 316V315.5H149V316V316.5H138.5V316ZM138.5 306.5H139V316H138.5H138V306.5H138.5ZM134 302L134.354 301.646L138.854 306.146L138.5 306.5L138.146 306.854L133.646 302.354L134 302ZM129 302V301.5H134V302V302.5H129V302ZM129 298.5H129.5V302H129H128.5V298.5H129ZM142 298.5V299H129V298.5V298H142V298.5ZM142 265.206H142.5V298.5H142H141.5V265.206H142ZM106 265.206V264.706H142V265.206V265.706H106V265.206ZM106 275.5H105.5V265.206H106H106.5V275.5H106ZM86.5 275.5V275H106V275.5V276H86.5V275.5ZM86.5 247H87V275.5H86.5H86V247H86.5ZM30 335.5V336H27.5V335.5V335H30V335.5ZM30 358H29.5V335.5H30H30.5V358H30ZM27.5 358V357.5H30V358V358.5H27.5V358ZM27.5 335.5H28V358H27.5H27V335.5H27.5Z" fill="#B27C40"/>
<path d="M325 186.5H318.5V183.5M318.5 180H325M318.5 180H315V183.5H318.5M318.5 180V183.5M290.5 199.5H296.5V205.5H290.5M382.5 271.5V285H389M395.5 285H389M389 271.5V285M395.5 308H388.5V315H395.5M372.5 325H366.5V331H372.5V329M372.5 325V323.5H378.5V329H372.5M372.5 325V329M395.5 351H388.5V357.5H395.5M289.5 304.5V324.5M307 304.5V324.5M233 268.5V262H239V268.5M158.5 390.5H195.5M102.5 363H86.5V324M86.5 315.5H102.5M86.5 315.5V322M86.5 315.5H80M53.5 341.5L57.5 345.5L59.5 343.5M53.5 341.5L53 341L55 339M53.5 341.5V347H59.5V343.5M59.5 343.5L62 341L61 340M61 340L57.5 336.5L55 339M61 340V335H55V339M63.5 377.5V371H69.5V377.5M28 329H26.5L22 324.5V323M76.5 298.5V292H79.5M83 292V298.5M83 292H79.5M83 292V288H79.5V292M64 219.5H76.5V206H64M141.5 348.5H133V326H138.5M149 326H138.5M138.5 326V324H149M73.5 315.5H80M172 278H178V271.5M182 270V264H188V270M195 206.5V212.5H201V206.5M244.5 173V166.5H251V173M214.5 166.5H221V172.5H214.5M277.5 354.5H270.5V348H277.5M228 328.5H224.5V325.5M224.5 325.5H228M224.5 325.5H220.5V318M86.5 322V324M86.5 322H81M80 315.5V322H81M86.5 324H81V322M263.5 90H251.5V81.5M353.5 348H385.5M385.5 348H389M385.5 348V345H389M389 348H395.5M389 348V345M395.5 341.5H389V345M131 69L128 72V78L131.5 81.5H137L140.5 78V72.5M309.5 349.5V351H310.5V349.5M339.5 334V315H346V334H339.5ZM100 351L96.5 346.5V328.5H103.5V346.5L100 351ZM271.5 109.5H278.5V103H271.5V109.5Z" stroke="#B27C40"/>
<path d="M353 291V305H329.5M370.5 291V305H395.5M292 347.5V341.5H302.5M307 341.5H302.5M302.5 341.5V337.5H307M318.5 232.5V226H325M325 228H320.5V232.5M74 315.5H30M180.5 271.5V274H187.5V271.5" stroke="#B27C40" stroke-width="0.5"/>
<path d="M221 172.751H233V219.5M215 173.724H231.5V218M232.748 235.52V261.52M231.5 268V237" stroke="#B27C40" stroke-width="0.5"/>
<path d="M233.25 219.5H227M231.75 218H227M233 235.5H227M231.747 237H227M221 235.5H214.5V237H221M221 235.5V237M221 235.5H227M221 237H227M227 235.5V237M221 219.5H214.5V218H221M221 219.5V218M221 219.5H227M221 218H227M227 218V219.5" stroke="#B27C40" stroke-width="0.5"/>
<circle cx="4" cy="4" r="3.5" transform="matrix(1 0 0 -1 160.5 112)" stroke="#B27C40"/>
<circle cx="4" cy="4" r="3.5" transform="matrix(1 0 0 -1 160.5 112)" stroke="#B27C40"/>
<circle cx="4" cy="4" r="3.5" transform="matrix(1 0 0 -1 193.5 232)" stroke="#B27C40"/>
<circle cx="4" cy="4" r="3.5" transform="matrix(1 0 0 -1 193.5 232)" stroke="#B27C40"/>
<circle cx="4" cy="4" r="3.5" transform="matrix(1 0 0 -1 220.5 419)" stroke="#B27C40"/>
<circle cx="4" cy="4" r="3.5" transform="matrix(1 0 0 -1 220.5 419)" stroke="#B27C40"/>
<path d="M263.5 296H267L269.5 298.5V302M166 245V243.5L167.5 241H170M407 255.5V254L408.5 252.5H410.5" stroke="#B27C40" stroke-width="0.5"/>
<path d="M86.5 324.5H80.5V322.5H79.5V315.753H30.5V377H63V370.5H70V377H86.5V324.5ZM53.5 341L55.5 339V335H61.5V341L59.5 343V347H53.5V341Z" fill="#F08234" fill-opacity="0.23"/>
<path d="M53.2891 359V351H56.3516C56.9297 351 57.4102 351.091 57.793 351.273C58.1784 351.453 58.4661 351.699 58.6563 352.012C58.849 352.324 58.9453 352.678 58.9453 353.074C58.9453 353.4 58.8828 353.678 58.7578 353.91C58.6328 354.139 58.4648 354.326 58.2539 354.469C58.043 354.612 57.8073 354.715 57.5469 354.777V354.855C57.8307 354.871 58.1029 354.958 58.3633 355.117C58.6263 355.273 58.8411 355.495 59.0078 355.781C59.1745 356.068 59.2578 356.414 59.2578 356.82C59.2578 357.234 59.1576 357.607 58.957 357.937C58.7565 358.266 58.4544 358.525 58.0508 358.715C57.6471 358.905 57.1393 359 56.5273 359H53.2891ZM54.7383 357.789H56.2969C56.8229 357.789 57.2018 357.689 57.4336 357.488C57.668 357.285 57.7852 357.025 57.7852 356.707C57.7852 356.47 57.7266 356.257 57.6094 356.066C57.4922 355.874 57.3255 355.723 57.1094 355.613C56.8932 355.501 56.6354 355.445 56.3359 355.445H54.7383V357.789ZM54.7383 354.402H56.1719C56.4219 354.402 56.6471 354.357 56.8477 354.266C57.0482 354.172 57.2057 354.04 57.3203 353.871C57.4375 353.699 57.4961 353.496 57.4961 353.262C57.4961 352.952 57.3867 352.697 57.168 352.496C56.9518 352.296 56.6302 352.195 56.2031 352.195H54.7383V354.402Z" fill="white"/>
<path d="M395.5 305H329.5V348H395.5V305ZM388 307.5H395V315.5H388V307.5ZM339 314.5H346.5V334.5H339V314.5ZM366 324.5H372V323H379V329.5H373V331.5H366V324.5ZM385 347.5V344.5H388.5V341H395V347.5H385Z" fill="#F08234" fill-opacity="0.23"/>
<path d="M356.316 331H354.77L357.586 323H359.375L362.195 331H360.648L358.512 324.641H358.449L356.316 331ZM356.367 327.863H360.586V329.027H356.367V327.863Z" fill="white"/>
<path d="M350 349.5V356.5H344V364.5H380.5V350.5H372V348" stroke="#B27C40" stroke-opacity="0.23" stroke-width="0.5"/>
</svg>
