<svg width="347" height="472" viewBox="0 0 347 472" fill="none" xmlns="http://www.w3.org/2000/svg">
<path fill-rule="evenodd" clip-rule="evenodd" d="M59 229.5H53V251.5V262.5V284.5H94.5V378.5H119.5V420.5H135.5L143.5 410V407.5H158.5V368.5H211.5H222.5V360.5H245.5V331.5H239.5V315.5H241.5H274.5V284.5V279.5V245.5V243.5V240.5H271.5H270.5H268.5H264.5V237.5H319.5V231.5H328.5V237.5H346.5V220.5H313.5V206.5H322.5H328.5H333.5V195.5V176.5V170.5V148.5V142.5V139.5V134.5V126.5H274.5V92.5H234.5V87.5H217.5V92.5H214.5V51.5H164.5V92.5H92.5V114.5H97.5V117.5H24.5V128.5H22.5V123.5H0.5V163.5H17.5H22.5V159.5V158.5H24.5V169.5V170.5V181.5H97.5V184.5H69.5H63.5H55.5V227.5H59V229.5ZM233.5 106.5V143.5H248.5V141.5H242.5V126.5H261.5V106.5H233.5ZM272.5 178.5V187.5H269.5V181.5H256.5V178.5H264.5V159.5L258.5 151.5V143.5H254.5V141.5H260.5V139.5H297.5V142.5H278.5V178.5H272.5ZM69.5 227.5V229.5H97.5V237.5H113.5V229.5H144.5V208H161.5V206.5H144.5V184.5H158.5V162.5L147.5 173.5H127.5V154.5H125.5V169.5H116.5V181.5H108.5V184.5H119.5V212.5H89.5V203.5H72.5V227.5H69.5ZM111.5 248.5V323.5H150.5V320.5H180.5V331.5H225.5V309.5H180.5V267.5L175.5 262.5H144.5V259.5H122.5V248.5H111.5ZM206.5 290.5V223.5H219.5V231.5H241.5V209.5H236.5C236.333 207.833 236.1 204.5 236.5 204.5H269.5V198.5H272.5V206.5H299.5V220.5H264.5V212.5H250.5V237.5H254.5V240.5H244.5V290.5H206.5ZM189.5 208H172.5V206.5H189.5V184.5H178.5V167.5H191.5V148.5H181.5L175.5 142.5V137.5L181.5 131.5H203.5V114.5H214.5V106.5H217.5V156.5H239.5V178.5H247.5V181.5H222.5V204.5H228.5V209.5H189.5V208ZM122.5 114.5V106.5H133.5V114.5H164.5V142.5H157.5V139.5H127.5V145.5H125.5V133.5H111.5V117.5H108.5V114.5H122.5Z" fill="#271406"/>
<path d="M53 229.5V229H52.5V229.5H53ZM59 229.5V230H59.5V229.5H59ZM53 284.5H52.5V285H53V284.5ZM94.5 284.5H95V284H94.5V284.5ZM94.5 378.5H94V379H94.5V378.5ZM119.5 378.5H120V378H119.5V378.5ZM119.5 420.5H119V421H119.5V420.5ZM135.5 420.5V421H135.748L135.898 420.803L135.5 420.5ZM143.5 410L143.898 410.303L144 410.169V410H143.5ZM143.5 407.5V407H143V407.5H143.5ZM158.5 407.5V408H159V407.5H158.5ZM158.5 368.5V368H158V368.5H158.5ZM222.5 368.5V369H223V368.5H222.5ZM222.5 360.5V360H222V360.5H222.5ZM245.5 360.5V361H246V360.5H245.5ZM245.5 331.5H246V331H245.5V331.5ZM239.5 331.5H239V332H239.5V331.5ZM239.5 315.5V315H239V315.5H239.5ZM274.5 315.5V316H275V315.5H274.5ZM274.5 240.5H275V240H274.5V240.5ZM264.5 240.5H264V241H264.5V240.5ZM264.5 237.5V237H264V237.5H264.5ZM319.5 237.5V238H320V237.5H319.5ZM319.5 231.5V231H319V231.5H319.5ZM328.5 231.5H329V231H328.5V231.5ZM328.5 237.5H328V238H328.5V237.5ZM346.5 237.5V238H347V237.5H346.5ZM346.5 220.5H347V220H346.5V220.5ZM313.5 220.5H313V221H313.5V220.5ZM313.5 206.5V206H313V206.5H313.5ZM333.5 206.5V207H334V206.5H333.5ZM333.5 126.5H334V126H333.5V126.5ZM274.5 126.5H274V127H274.5V126.5ZM274.5 92.5H275V92H274.5V92.5ZM234.5 92.5H234V93H234.5V92.5ZM234.5 87.5H235V87H234.5V87.5ZM217.5 87.5V87H217V87.5H217.5ZM217.5 92.5V93H218V92.5H217.5ZM214.5 92.5H214V93H214.5V92.5ZM214.5 51.5H215V51H214.5V51.5ZM164.5 51.5V51H164V51.5H164.5ZM164.5 92.5V93H165V92.5H164.5ZM92.5 92.5V92H92V92.5H92.5ZM92.5 114.5H92V115H92.5V114.5ZM97.5 114.5H98V114H97.5V114.5ZM97.5 117.5V118H98V117.5H97.5ZM24.5 117.5V117H24V117.5H24.5ZM24.5 128.5V129H25V128.5H24.5ZM22.5 128.5H22V129H22.5V128.5ZM22.5 123.5H23V123H22.5V123.5ZM0.5 123.5V123H0V123.5H0.5ZM0.5 163.5H0V164H0.5V163.5ZM22.5 163.5V164H23V163.5H22.5ZM22.5 158.5V158H22V158.5H22.5ZM24.5 158.5H25V158H24.5V158.5ZM24.5 181.5H24V182H24.5V181.5ZM97.5 181.5H98V181H97.5V181.5ZM97.5 184.5V185H98V184.5H97.5ZM55.5 184.5V184H55V184.5H55.5ZM55.5 227.5H55V228H55.5V227.5ZM59 227.5H59.5V227H59V227.5ZM233.5 143.5H233V144H233.5V143.5ZM233.5 106.5V106H233V106.5H233.5ZM248.5 143.5V144H249V143.5H248.5ZM248.5 141.5H249V141H248.5V141.5ZM242.5 141.5H242V142H242.5V141.5ZM242.5 126.5V126H242V126.5H242.5ZM261.5 126.5V127H262V126.5H261.5ZM261.5 106.5H262V106H261.5V106.5ZM272.5 187.5V188H273V187.5H272.5ZM272.5 178.5V178H272V178.5H272.5ZM269.5 187.5H269V188H269.5V187.5ZM269.5 181.5H270V181H269.5V181.5ZM256.5 181.5H256V182H256.5V181.5ZM256.5 178.5V178H256V178.5H256.5ZM264.5 178.5V179H265V178.5H264.5ZM264.5 159.5H265V159.333L264.9 159.2L264.5 159.5ZM258.5 151.5H258V151.667L258.1 151.8L258.5 151.5ZM258.5 143.5H259V143H258.5V143.5ZM254.5 143.5H254V144H254.5V143.5ZM254.5 141.5V141H254V141.5H254.5ZM260.5 141.5V142H261V141.5H260.5ZM260.5 139.5V139H260V139.5H260.5ZM297.5 139.5H298V139H297.5V139.5ZM297.5 142.5V143H298V142.5H297.5ZM278.5 142.5V142H278V142.5H278.5ZM278.5 178.5V179H279V178.5H278.5ZM69.5 229.5H69V230H69.5V229.5ZM69.5 227.5V227H69V227.5H69.5ZM97.5 229.5H98V229H97.5V229.5ZM97.5 237.5H97V238H97.5V237.5ZM113.5 237.5V238H114V237.5H113.5ZM113.5 229.5V229H113V229.5H113.5ZM144.5 229.5V230H145V229.5H144.5ZM144.5 208V207.5H144V208H144.5ZM161.5 208V208.5H162V208H161.5ZM161.5 206.5H162V206H161.5V206.5ZM144.5 206.5H144V207H144.5V206.5ZM144.5 184.5V184H144V184.5H144.5ZM158.5 184.5V185H159V184.5H158.5ZM158.5 162.5H159V161.293L158.146 162.146L158.5 162.5ZM147.5 173.5V174H147.707L147.854 173.854L147.5 173.5ZM127.5 173.5H127V174H127.5V173.5ZM127.5 154.5H128V154H127.5V154.5ZM125.5 154.5V154H125V154.5H125.5ZM125.5 169.5V170H126V169.5H125.5ZM116.5 169.5V169H116V169.5H116.5ZM116.5 181.5V182H117V181.5H116.5ZM108.5 181.5V181H108V181.5H108.5ZM108.5 184.5H108V185H108.5V184.5ZM119.5 184.5H120V184H119.5V184.5ZM119.5 212.5V213H120V212.5H119.5ZM89.5 212.5H89V213H89.5V212.5ZM89.5 203.5H90V203H89.5V203.5ZM72.5 203.5V203H72V203.5H72.5ZM72.5 227.5V228H73V227.5H72.5ZM111.5 323.5H111V324H111.5V323.5ZM111.5 248.5V248H111V248.5H111.5ZM150.5 323.5V324H151V323.5H150.5ZM150.5 320.5V320H150V320.5H150.5ZM180.5 320.5H181V320H180.5V320.5ZM180.5 331.5H180V332H180.5V331.5ZM225.5 331.5V332H226V331.5H225.5ZM225.5 309.5H226V309H225.5V309.5ZM180.5 309.5H180V310H180.5V309.5ZM180.5 267.5H181V267.293L180.854 267.146L180.5 267.5ZM175.5 262.5L175.854 262.146L175.707 262H175.5V262.5ZM144.5 262.5H144V263H144.5V262.5ZM144.5 259.5H145V259H144.5V259.5ZM122.5 259.5H122V260H122.5V259.5ZM122.5 248.5H123V248H122.5V248.5ZM206.5 223.5V223H206V223.5H206.5ZM206.5 290.5H206V291H206.5V290.5ZM219.5 223.5H220V223H219.5V223.5ZM219.5 231.5H219V232H219.5V231.5ZM241.5 231.5V232H242V231.5H241.5ZM241.5 209.5H242V209H241.5V209.5ZM236.5 209.5L236.002 209.55L236.048 210H236.5V209.5ZM269.5 204.5V205H270V204.5H269.5ZM269.5 198.5V198H269V198.5H269.5ZM272.5 198.5H273V198H272.5V198.5ZM272.5 206.5H272V207H272.5V206.5ZM299.5 206.5H300V206H299.5V206.5ZM299.5 220.5V221H300V220.5H299.5ZM264.5 220.5H264V221H264.5V220.5ZM264.5 212.5H265V212H264.5V212.5ZM250.5 212.5V212H250V212.5H250.5ZM250.5 237.5H250V238H250.5V237.5ZM254.5 237.5H255V237H254.5V237.5ZM254.5 240.5V241H255V240.5H254.5ZM244.5 240.5V240H244V240.5H244.5ZM244.5 290.5V291H245V290.5H244.5ZM172.5 208H172V208.5H172.5V208ZM189.5 208H190V207.5H189.5V208ZM172.5 206.5V206H172V206.5H172.5ZM189.5 206.5V207H190V206.5H189.5ZM189.5 184.5H190V184H189.5V184.5ZM178.5 184.5H178V185H178.5V184.5ZM178.5 167.5V167H178V167.5H178.5ZM191.5 167.5V168H192V167.5H191.5ZM191.5 148.5H192V148H191.5V148.5ZM181.5 148.5L181.146 148.854L181.293 149H181.5V148.5ZM175.5 142.5H175V142.707L175.146 142.854L175.5 142.5ZM175.5 137.5L175.146 137.146L175 137.293V137.5H175.5ZM181.5 131.5V131H181.293L181.146 131.146L181.5 131.5ZM203.5 131.5V132H204V131.5H203.5ZM203.5 114.5V114H203V114.5H203.5ZM214.5 114.5V115H215V114.5H214.5ZM214.5 106.5V106H214V106.5H214.5ZM217.5 106.5H218V106H217.5V106.5ZM217.5 156.5H217V157H217.5V156.5ZM239.5 156.5H240V156H239.5V156.5ZM239.5 178.5H239V179H239.5V178.5ZM247.5 178.5H248V178H247.5V178.5ZM247.5 181.5V182H248V181.5H247.5ZM222.5 181.5V181H222V181.5H222.5ZM222.5 204.5H222V205H222.5V204.5ZM228.5 204.5H229V204H228.5V204.5ZM228.5 209.5V210H229V209.5H228.5ZM189.5 209.5H189V210H189.5V209.5ZM122.5 106.5V106H122V106.5H122.5ZM122.5 114.5V115H123V114.5H122.5ZM133.5 106.5H134V106H133.5V106.5ZM133.5 114.5H133V115H133.5V114.5ZM164.5 114.5H165V114H164.5V114.5ZM164.5 142.5V143H165V142.5H164.5ZM157.5 142.5H157V143H157.5V142.5ZM157.5 139.5H158V139H157.5V139.5ZM127.5 139.5V139H127V139.5H127.5ZM127.5 145.5V146H128V145.5H127.5ZM125.5 145.5H125V146H125.5V145.5ZM125.5 133.5H126V133H125.5V133.5ZM111.5 133.5H111V134H111.5V133.5ZM111.5 117.5H112V117H111.5V117.5ZM108.5 117.5H108V118H108.5V117.5ZM108.5 114.5V114H108V114.5H108.5ZM180.5 331.5H180V332H180.5V331.5ZM180.5 320.5H181V320H180.5V320.5ZM150.5 320.5V320H150V320.5H150.5ZM150.5 323.5V324H151V323.5H150.5ZM111.5 323.5H111V324H111.5V323.5ZM111.5 248.5V248H111V248.5H111.5ZM122.5 248.5H123V248H122.5V248.5ZM122.5 259.5H122V260H122.5V259.5ZM143.5 259.5V260H144V259.5H143.5ZM143.5 248.5V248H143V248.5H143.5ZM144.5 248.5H145V248H144.5V248.5ZM144.5 262.5H144V263H144.5V262.5ZM175.5 262.5L175.854 262.146L175.707 262H175.5V262.5ZM180.5 267.5H181V267.293L180.854 267.146L180.5 267.5ZM180.5 309.5H180V310H180.5V309.5ZM225.5 309.5H226V309H225.5V309.5ZM225.5 331.5V332H226V331.5H225.5ZM239.5 301.5V301H239V301.5H239.5ZM241.5 301.5H242V301H241.5V301.5ZM63.5 251.5H64V251H63.5V251.5ZM63.5 262.5V263H64V262.5H63.5ZM164.5 256.5V256H164V256.5H164.5ZM169.5 256.5H170V256H169.5V256.5ZM195.5 289.5V290H196V289.5H195.5ZM195.5 251.5H196V251H195.5V251.5ZM195.5 237.5V238H196V237.5H195.5ZM228.5 209.5V210H229V209.5H228.5ZM228.5 204.5H229V204H228.5V204.5ZM222.5 204.5H222V205H222.5V204.5ZM222.5 181.5V181H222V181.5H222.5ZM247.5 181.5V182H248V181.5H247.5ZM247.5 178.5H248V178H247.5V178.5ZM239.5 178.5H239V179H239.5V178.5ZM239.5 156.5H240V156H239.5V156.5ZM217.5 156.5H217V157H217.5V156.5ZM217.5 106.5H218V106H217.5V106.5ZM214.5 106.5V106H214V106.5H214.5ZM214.5 114.5V115H215V114.5H214.5ZM197.5 114.5V114H197V114.5H197.5ZM197.5 115.5H197V116H197.5V115.5ZM203.5 115.5H204V115H203.5V115.5ZM203.5 131.5V132H204V131.5H203.5ZM181.5 131.5V131H181.293L181.146 131.146L181.5 131.5ZM175.5 137.5L175.146 137.146L175 137.293V137.5H175.5ZM175.5 142.69H175V142.901L175.152 143.049L175.5 142.69ZM181.5 148.5L181.152 148.859L181.298 149H181.5V148.5ZM191.5 148.5H192V148H191.5V148.5ZM191.5 167.5V168H192V167.5H191.5ZM178.5 167.5V167H178V167.5H178.5ZM178.5 184.5H178V185H178.5V184.5ZM189.5 184.5H190V184H189.5V184.5ZM189.5 206.5V207H190V206.5H189.5ZM172.5 206.5V206H172V206.5H172.5ZM172.5 208H172V208.5H172.5V208ZM189.5 208H190V207.5H189.5V208ZM189.5 209.5H189V210H189.5V209.5ZM186.5 115.5V116H187V115.5H186.5ZM186.5 114.5H187V114H186.5V114.5ZM133.5 114.5H133V115H133.5V114.5ZM122.5 106.5V106H122V106.5H122.5ZM122.5 114.5V115H123V114.5H122.5ZM108.5 114.5V114H108V114.5H108.5ZM108.5 117.5H108V118H108.5V117.5ZM111.5 117.5H112V117H111.5V117.5ZM111.5 133.5H111V134H111.5V133.5ZM125.5 133.5H126V133H125.5V133.5ZM125.5 145.5H125V146H125.5V145.5ZM127.5 145.5V146H128V145.5H127.5ZM127.5 139.5V139H127V139.5H127.5ZM157.5 139.5H158V139H157.5V139.5ZM157.5 146.5H157V147H157.5V146.5ZM158.5 146.5V147H159V146.5H158.5ZM158.5 142.69V142.19H158V142.69H158.5ZM164.5 142.69V143.19H165V142.69H164.5ZM164.5 115.5V115H164V115.5H164.5ZM111.5 142.5V142H111V142.5H111.5ZM111.5 161.5H111V162H111.5V161.5ZM125.5 154.5V154H125V154.5H125.5ZM127.5 154.5H128V154H127.5V154.5ZM127.5 173.5H127V174H127.5V173.5ZM147.5 173.5V174H147.707L147.854 173.854L147.5 173.5ZM157.5 163.5L157.854 163.854L158 163.707V163.5H157.5ZM157.5 158.5V158H157V158.5H157.5ZM158.5 158.5H159V158H158.5V158.5ZM158.5 184.5V185H159V184.5H158.5ZM144.5 184.5V184H144V184.5H144.5ZM161.5 206.5H162V206H161.5V206.5ZM161.5 208V208.5H162V208H161.5ZM144.5 208V207.5H144V208H144.5ZM144.5 239.5V240H145V239.5H144.5ZM143.5 239.5H143V240H143.5V239.5ZM143.5 229.5H144V229H143.5V229.5ZM113.5 229.5V229H113V229.5H113.5ZM113.5 237.5V238H114V237.5H113.5ZM97.5 237.5H97V238H97.5V237.5ZM97.5 229.5H98V229H97.5V229.5ZM69.5 229.5H69V230H69.5V229.5ZM69.5 227.5V227H69V227.5H69.5ZM72.5 227.5V228H73V227.5H72.5ZM72.5 203.5V203H72V203.5H72.5ZM89.5 203.5H90V203H89.5V203.5ZM89.5 212.5H89V213H89.5V212.5ZM119.5 212.5V213H120V212.5H119.5ZM119.5 184.5H120V184H119.5V184.5ZM108.5 184.5H108V185H108.5V184.5ZM108.5 181.5V181H108V181.5H108.5ZM116.5 169.5V169H116V169.5H116.5ZM125.5 169.5V170H126V169.5H125.5ZM244.5 240.5V240H244V240.5H244.5ZM254.5 240.5V241H255V240.5H254.5ZM254.5 237.5H255V237H254.5V237.5ZM250.5 237.5H250V238H250.5V237.5ZM250.5 212.5V212H250V212.5H250.5ZM264.5 212.5L264.999 212.531L265.032 212H264.5V212.5ZM299.5 220.5V221H300V220.5H299.5ZM299.5 206.5H300V206H299.5V206.5ZM272.5 206.5H272V207H272.5V206.5ZM272.5 198.5H273V198H272.5V198.5ZM269.5 198.5V198H269V198.5H269.5ZM269.5 204.5V205H270V204.5H269.5ZM236.5 204.5V204H236V204.5H236.5ZM236.5 209.5H236V210H236.5V209.5ZM241.5 209.5H242V209H241.5V209.5ZM241.5 231.5V232H242V231.5H241.5ZM219.5 231.5H219V232H219.5V231.5ZM219.5 223.5H220V223H219.5V223.5ZM206.5 223.5V223H206V223.5H206.5ZM24.5 134.5H25V134H24.5V134.5ZM22.5 134.5V134H22V134.5H22.5ZM22.5 152.5H22V153H22.5V152.5ZM24.5 152.5V153H25V152.5H24.5ZM52.5 118.5V118H52V118.5H52.5ZM52.5 122.5H52V123H52.5V122.5ZM58.5 122.5V123H59V122.5H58.5ZM58.5 118.5H59V118H58.5V118.5ZM44.5 142.5V142H44V142.5H44.5ZM49.5 142.5H50V142H49.5V142.5ZM49.5 145.5H49V145.707L49.1464 145.854L49.5 145.5ZM51.5 147.5H52V147.293L51.8536 147.146L51.5 147.5ZM51.5 153.5V154H52V153.5H51.5ZM45.5 153.5H45V154H45.5V153.5ZM45.5 148.5H46V148.293L45.8536 148.146L45.5 148.5ZM44.5 147.5H44V147.707L44.1464 147.854L44.5 147.5ZM85.5 169.5H86V169H85.5V169.5ZM85.5 170.5V171H86V170.5H85.5ZM72.5 129.5V129H72V129.5H72.5ZM67.5 163.5V163H67.2929L67.1464 163.146L67.5 163.5ZM66.5 164.5L66.1464 164.146L66 164.293V164.5H66.5ZM86.5 158.5V159H87V158.5H86.5ZM86.5 143.5H87V143.333L86.9 143.2L86.5 143.5ZM83.5 139.5L83.9 139.2L83.5 138.667L83.1 139.2L83.5 139.5ZM80.5 143.5L80.1 143.2L80 143.333V143.5H80.5ZM80.5 158.5H80V159H80.5V158.5ZM63.5 189.5H63V190H63.5V189.5ZM66.5 192.5H66V193H66.5V192.5ZM69.5 192.5V193H70V192.5H69.5ZM186.5 295.5V296H187V295.5H186.5ZM186.5 290.5H187V290H186.5V290.5ZM206.5 295.5H206V296H206.5V295.5ZM211.5 295.5V296H212V295.5H211.5ZM244.5 290.5V291H245V290.5H244.5ZM268.5 279.5V279H268V279.5H268.5ZM211.5 360.5V360H211V360.5H211.5ZM327.5 142.5V142H327V142.5H327.5ZM327.5 148.5H327V149H327.5V148.5ZM327.5 134.5V134H327V134.5H327.5ZM327.5 170.5V170H327V170.5H327.5ZM327.5 176.5H327V177H327.5V176.5ZM322.5 195.5V195H322V195.5H322.5ZM309.5 156.5V156H309V156.5H309.5ZM309.5 161.5H309V162H309.5V161.5ZM314.5 156.5H315V156H314.5V156.5ZM319.5 158.5H320V158H319.5V158.5ZM319.5 163.5V164H320V163.5H319.5ZM314.5 163.5H314V164H314.5V163.5ZM286.5 153.5V153H286V153.5H286.5ZM292.5 153.5H293V153H292.5V153.5ZM292.5 170.5V171H293V170.5H292.5ZM286.5 170.5H286V171H286.5V170.5ZM201.5 215.5V216H202V215.5H201.5ZM246.5 148.5H246V149H246.5V148.5ZM254.5 151.5H254V152H254.5V151.5ZM228.5 136.5V136H228V136.5H228.5ZM228.5 142.69H228V143.19H228.5V142.69ZM116.5 181.5V182H117V181.5H116.5ZM113.5 178.5L113.342 178.026L113.105 178.105L113.026 178.342L113.5 178.5ZM144.5 206.5H144V207H144.5V206.5ZM149.5 201.5H150V201H149.5V201.5ZM153.5 213.5H153V214H153.5V213.5ZM158.5 213.5V214H159V213.5H158.5ZM151.5 204.5V204H151V204.5H151.5ZM157.5 204.5H158V204H157.5V204.5ZM18.5 161.5L18.2764 161.053L18.1273 161.127L18.0528 161.276L18.5 161.5ZM260.5 177.5H260V178H260.5V177.5ZM260.5 174.5V174H260V174.5H260.5ZM262.5 174.5H263V174H262.5V174.5ZM269.5 187.5H269V188H269.5V187.5ZM269.5 181.5H270V181H269.5V181.5ZM256.5 181.5H256V182H256.5V181.5ZM256.5 178.5V178H256V178.5H256.5ZM264.5 178.5V179H265V178.5H264.5ZM264.5 159.5H265V159.333L264.9 159.2L264.5 159.5ZM258.5 143.5H259V143H258.5V143.5ZM254.5 143.5H254V144H254.5V143.5ZM254.5 141.5V141H254V141.5H254.5ZM260.5 141.5V142H261V141.5H260.5ZM260.5 139.5V139H260V139.5H260.5ZM297.5 142.5V143H298V142.5H297.5ZM278.5 142.5V142H278V142.5H278.5ZM278.5 178.5V179H279V178.5H278.5ZM272.5 178.5V178H272V178.5H272.5ZM272.5 187.5V188H273V187.5H272.5ZM248.5 143.5V144H249V143.5H248.5ZM233.5 143.5H233V144H233.5V143.5ZM233.5 106.5V106H233V106.5H233.5ZM261.5 106.5H262V106H261.5V106.5ZM261.5 126.5V127H262V126.5H261.5ZM242.5 126.5V126H242V126.5H242.5ZM242.5 141.5H242V142H242.5V141.5ZM248.5 141.5H249V141H248.5V141.5ZM268.5 245.5H268V246H268.5V245.5ZM270.5 243.5H270V244H270.5V243.5ZM250.5 262.5H251V262H250.5V262.5ZM250.5 267.5V268H251V267.5H250.5ZM265.5 281.5V281H265V281.5H265.5ZM265.5 284.5H265V285H265.5V284.5ZM53 230H59V229H53V230ZM53.5 251.5V229.5H52.5V251.5H53.5ZM53.5 262.5V251.5H52.5V262.5H53.5ZM53.5 284.5V262.5H52.5V284.5H53.5ZM94.5 284H53V285H94.5V284ZM95 378.5V284.5H94V378.5H95ZM119.5 378H94.5V379H119.5V378ZM120 420.5V378.5H119V420.5H120ZM135.5 420H119.5V421H135.5V420ZM143.102 409.697L135.102 420.197L135.898 420.803L143.898 410.303L143.102 409.697ZM143 407.5V410H144V407.5H143ZM158.5 407H143.5V408H158.5V407ZM158 368.5V407.5H159V368.5H158ZM211.5 368H158.5V369H211.5V368ZM222.5 368H211.5V369H222.5V368ZM222 360.5V368.5H223V360.5H222ZM245.5 360H222.5V361H245.5V360ZM245 331.5V360.5H246V331.5H245ZM239.5 332H245.5V331H239.5V332ZM239 315.5V331.5H240V315.5H239ZM241.5 315H239.5V316H241.5V315ZM274.5 315H241.5V316H274.5V315ZM274 284.5V315.5H275V284.5H274ZM274 279.5V284.5H275V279.5H274ZM274 245.5V279.5H275V245.5H274ZM274 243.5V245.5H275V243.5H274ZM274 240.5V243.5H275V240.5H274ZM271.5 241H274.5V240H271.5V241ZM270.5 241H271.5V240H270.5V241ZM268.5 241H270.5V240H268.5V241ZM264.5 241H268.5V240H264.5V241ZM264 237.5V240.5H265V237.5H264ZM319.5 237H264.5V238H319.5V237ZM319 231.5V237.5H320V231.5H319ZM328.5 231H319.5V232H328.5V231ZM329 237.5V231.5H328V237.5H329ZM346.5 237H328.5V238H346.5V237ZM346 220.5V237.5H347V220.5H346ZM313.5 221H346.5V220H313.5V221ZM313 206.5V220.5H314V206.5H313ZM322.5 206H313.5V207H322.5V206ZM328.5 206H322.5V207H328.5V206ZM333.5 206H328.5V207H333.5V206ZM333 195.5V206.5H334V195.5H333ZM333 176.5V195.5H334V176.5H333ZM333 170.5V176.5H334V170.5H333ZM333 148.5V170.5H334V148.5H333ZM333 142.5V148.5H334V142.5H333ZM333 139.5V142.5H334V139.5H333ZM333 134.5V139.5H334V134.5H333ZM333 126.5V134.5H334V126.5H333ZM274.5 127H333.5V126H274.5V127ZM274 92.5V126.5H275V92.5H274ZM234.5 93H274.5V92H234.5V93ZM234 87.5V92.5H235V87.5H234ZM217.5 88H234.5V87H217.5V88ZM218 92.5V87.5H217V92.5H218ZM214.5 93H217.5V92H214.5V93ZM214 51.5V92.5H215V51.5H214ZM164.5 52H214.5V51H164.5V52ZM165 92.5V51.5H164V92.5H165ZM92.5 93H164.5V92H92.5V93ZM93 114.5V92.5H92V114.5H93ZM97.5 114H92.5V115H97.5V114ZM98 117.5V114.5H97V117.5H98ZM24.5 118H97.5V117H24.5V118ZM25 128.5V117.5H24V128.5H25ZM22.5 129H24.5V128H22.5V129ZM22 123.5V128.5H23V123.5H22ZM0.5 124H22.5V123H0.5V124ZM1 163.5V123.5H0V163.5H1ZM17.5 163H0.5V164H17.5V163ZM22.5 163H17.5V164H22.5V163ZM22 159.5V163.5H23V159.5H22ZM22 158.5V159.5H23V158.5H22ZM24.5 158H22.5V159H24.5V158ZM25 169.5V158.5H24V169.5H25ZM25 170.5V169.5H24V170.5H25ZM25 181.5V170.5H24V181.5H25ZM97.5 181H24.5V182H97.5V181ZM98 184.5V181.5H97V184.5H98ZM69.5 185H97.5V184H69.5V185ZM63.5 185H69.5V184H63.5V185ZM55.5 185H63.5V184H55.5V185ZM56 227.5V184.5H55V227.5H56ZM59 227H55.5V228H59V227ZM59.5 229.5V227.5H58.5V229.5H59.5ZM234 143.5V106.5H233V143.5H234ZM248.5 143H233.5V144H248.5V143ZM248 141.5V143.5H249V141.5H248ZM242.5 142H248.5V141H242.5V142ZM242 126.5V141.5H243V126.5H242ZM261.5 126H242.5V127H261.5V126ZM261 106.5V126.5H262V106.5H261ZM233.5 107H261.5V106H233.5V107ZM273 187.5V178.5H272V187.5H273ZM269.5 188H272.5V187H269.5V188ZM269 181.5V187.5H270V181.5H269ZM256.5 182H269.5V181H256.5V182ZM256 178.5V181.5H257V178.5H256ZM264.5 178H256.5V179H264.5V178ZM264 159.5V178.5H265V159.5H264ZM258.1 151.8L264.1 159.8L264.9 159.2L258.9 151.2L258.1 151.8ZM258 143.5V151.5H259V143.5H258ZM254.5 144H258.5V143H254.5V144ZM254 141.5V143.5H255V141.5H254ZM260.5 141H254.5V142H260.5V141ZM260 139.5V141.5H261V139.5H260ZM297.5 139H260.5V140H297.5V139ZM298 142.5V139.5H297V142.5H298ZM278.5 143H297.5V142H278.5V143ZM279 178.5V142.5H278V178.5H279ZM272.5 179H278.5V178H272.5V179ZM70 229.5V227.5H69V229.5H70ZM97.5 229H69.5V230H97.5V229ZM98 237.5V229.5H97V237.5H98ZM113.5 237H97.5V238H113.5V237ZM113 229.5V237.5H114V229.5H113ZM144.5 229H113.5V230H144.5V229ZM144 208V229.5H145V208H144ZM161.5 207.5H144.5V208.5H161.5V207.5ZM161 206.5V208H162V206.5H161ZM144.5 207H161.5V206H144.5V207ZM144 184.5V206.5H145V184.5H144ZM158.5 184H144.5V185H158.5V184ZM158 162.5V184.5H159V162.5H158ZM147.854 173.854L158.854 162.854L158.146 162.146L147.146 173.146L147.854 173.854ZM127.5 174H147.5V173H127.5V174ZM127 154.5V173.5H128V154.5H127ZM125.5 155H127.5V154H125.5V155ZM126 169.5V154.5H125V169.5H126ZM116.5 170H125.5V169H116.5V170ZM117 181.5V169.5H116V181.5H117ZM108.5 182H116.5V181H108.5V182ZM109 184.5V181.5H108V184.5H109ZM119.5 184H108.5V185H119.5V184ZM120 212.5V184.5H119V212.5H120ZM89.5 213H119.5V212H89.5V213ZM89 203.5V212.5H90V203.5H89ZM72.5 204H89.5V203H72.5V204ZM73 227.5V203.5H72V227.5H73ZM69.5 228H72.5V227H69.5V228ZM112 323.5V248.5H111V323.5H112ZM150.5 323H111.5V324H150.5V323ZM150 320.5V323.5H151V320.5H150ZM180.5 320H150.5V321H180.5V320ZM181 331.5V320.5H180V331.5H181ZM225.5 331H180.5V332H225.5V331ZM225 309.5V331.5H226V309.5H225ZM180.5 310H225.5V309H180.5V310ZM180 267.5V309.5H181V267.5H180ZM175.146 262.854L180.146 267.854L180.854 267.146L175.854 262.146L175.146 262.854ZM144.5 263H175.5V262H144.5V263ZM144 259.5V262.5H145V259.5H144ZM122.5 260H144.5V259H122.5V260ZM122 248.5V259.5H123V248.5H122ZM111.5 249H122.5V248H111.5V249ZM206 223.5V290.5H207V223.5H206ZM219.5 223H206.5V224H219.5V223ZM220 231.5V223.5H219V231.5H220ZM241.5 231H219.5V232H241.5V231ZM241 209.5V231.5H242V209.5H241ZM236.5 210H241.5V209H236.5V210ZM236.5 204C236.277 204 236.125 204.123 236.045 204.222C235.97 204.314 235.928 204.415 235.904 204.488C235.854 204.638 235.827 204.82 235.81 205C235.775 205.37 235.773 205.863 235.788 206.389C235.817 207.447 235.919 208.71 236.002 209.55L236.998 209.45C236.915 208.623 236.816 207.386 236.787 206.361C236.773 205.845 236.777 205.401 236.806 205.094C236.821 204.935 236.839 204.844 236.853 204.805C236.86 204.783 236.854 204.811 236.82 204.854C236.78 204.903 236.673 205 236.5 205V204ZM269.5 204H236.5V205H269.5V204ZM269 198.5V204.5H270V198.5H269ZM272.5 198H269.5V199H272.5V198ZM273 206.5V198.5H272V206.5H273ZM299.5 206H272.5V207H299.5V206ZM300 220.5V206.5H299V220.5H300ZM264.5 221H299.5V220H264.5V221ZM264 212.5V220.5H265V212.5H264ZM250.5 213H264.5V212H250.5V213ZM251 237.5V212.5H250V237.5H251ZM254.5 237H250.5V238H254.5V237ZM255 240.5V237.5H254V240.5H255ZM244.5 241H254.5V240H244.5V241ZM245 290.5V240.5H244V290.5H245ZM206.5 291H244.5V290H206.5V291ZM172.5 208.5H189.5V207.5H172.5V208.5ZM172 206.5V208H173V206.5H172ZM189.5 206H172.5V207H189.5V206ZM189 184.5V206.5H190V184.5H189ZM178.5 185H189.5V184H178.5V185ZM178 167.5V184.5H179V167.5H178ZM191.5 167H178.5V168H191.5V167ZM191 148.5V167.5H192V148.5H191ZM181.5 149H191.5V148H181.5V149ZM175.146 142.854L181.146 148.854L181.854 148.146L175.854 142.146L175.146 142.854ZM175 137.5V142.5H176V137.5H175ZM181.146 131.146L175.146 137.146L175.854 137.854L181.854 131.854L181.146 131.146ZM203.5 131H181.5V132H203.5V131ZM203 114.5V131.5H204V114.5H203ZM214.5 114H203.5V115H214.5V114ZM214 106.5V114.5H215V106.5H214ZM217.5 106H214.5V107H217.5V106ZM218 156.5V106.5H217V156.5H218ZM239.5 156H217.5V157H239.5V156ZM240 178.5V156.5H239V178.5H240ZM247.5 178H239.5V179H247.5V178ZM248 181.5V178.5H247V181.5H248ZM222.5 182H247.5V181H222.5V182ZM223 204.5V181.5H222V204.5H223ZM228.5 204H222.5V205H228.5V204ZM229 209.5V204.5H228V209.5H229ZM189.5 210H228.5V209H189.5V210ZM189 208V209.5H190V208H189ZM122 106.5V114.5H123V106.5H122ZM133.5 106H122.5V107H133.5V106ZM134 114.5V106.5H133V114.5H134ZM164.5 114H133.5V115H164.5V114ZM165 142.5V114.5H164V142.5H165ZM157.5 143H164.5V142H157.5V143ZM157 139.5V142.5H158V139.5H157ZM127.5 140H157.5V139H127.5V140ZM128 145.5V139.5H127V145.5H128ZM125.5 146H127.5V145H125.5V146ZM125 133.5V145.5H126V133.5H125ZM111.5 134H125.5V133H111.5V134ZM111 117.5V133.5H112V117.5H111ZM108.5 118H111.5V117H108.5V118ZM108 114.5V117.5H109V114.5H108ZM122.5 114H108.5V115H122.5V114ZM181 331.5V320.5H180V331.5H181ZM180.5 320H150.5V321H180.5V320ZM150 320.5V323.5H151V320.5H150ZM150.5 323H111.5V324H150.5V323ZM112 323.5V248.5H111V323.5H112ZM111.5 249H122.5V248H111.5V249ZM122 248.5V259.5H123V248.5H122ZM122.5 260H143.5V259H122.5V260ZM144 259.5V248.5H143V259.5H144ZM143.5 249H144.5V248H143.5V249ZM144 248.5V262.5H145V248.5H144ZM175.146 262.854L180.146 267.854L180.854 267.146L175.854 262.146L175.146 262.854ZM180.5 310H225.5V309H180.5V310ZM225 309.5V331.5H226V309.5H225ZM225.5 331H180.5V332H225.5V331ZM240 315.5V301.5H239V315.5H240ZM239.5 302H241.5V301H239.5V302ZM241 301.5V315.5H242V301.5H241ZM53 252H63.5V251H53V252ZM63 251.5V262.5H64V251.5H63ZM63.5 262H53V263H63.5V262ZM144.5 263H164.5V262H144.5V263ZM165 262.5V256.5H164V262.5H165ZM164.5 257H169.5V256H164.5V257ZM164.5 263H169.5V262H164.5V263ZM169.5 263H175.5V262H169.5V263ZM169 256.5V262.5H170V256.5H169ZM180 267.5V289.5H181V267.5H180ZM180.5 290H195.5V289H180.5V290ZM196 289.5V251.5H195V289.5H196ZM195.5 251H181.5V252H195.5V251ZM181.5 238H195.5V237H181.5V238ZM229 209.5V204.5H228V209.5H229ZM228.5 204H222.5V205H228.5V204ZM223 204.5V181.5H222V204.5H223ZM222.5 182H247.5V181H222.5V182ZM248 181.5V178.5H247V181.5H248ZM247.5 178H239.5V179H247.5V178ZM240 178.5V156.5H239V178.5H240ZM239.5 156H217.5V157H239.5V156ZM218 156.5V106.5H217V156.5H218ZM217.5 106H214.5V107H217.5V106ZM214 106.5V114.5H215V106.5H214ZM214.5 114H197.5V115H214.5V114ZM197 114.5V115.5H198V114.5H197ZM197.5 116H203.5V115H197.5V116ZM203 115.5V131.5H204V115.5H203ZM203.5 131H181.5V132H203.5V131ZM181.146 131.146L175.146 137.146L175.854 137.854L181.854 131.854L181.146 131.146ZM175 137.5V142.69H176V137.5H175ZM175.152 143.049L181.152 148.859L181.848 148.141L175.848 142.33L175.152 143.049ZM181.5 149H191.5V148H181.5V149ZM191 148.5V167.5H192V148.5H191ZM191.5 167H178.5V168H191.5V167ZM178 167.5V184.5H179V167.5H178ZM178.5 185H189.5V184H178.5V185ZM189 184.5V206.5H190V184.5H189ZM189.5 206H172.5V207H189.5V206ZM172 206.5V208H173V206.5H172ZM172.5 208.5H189.5V207.5H172.5V208.5ZM189 208V209.5H190V208H189ZM189.5 210H195.5V209H189.5V210ZM187 115.5V114.5H186V115.5H187ZM186.5 114H133.5V115H186.5V114ZM134 114.5V106.5H133V114.5H134ZM133.5 107H164.5V106H133.5V107ZM133.5 106H122.5V107H133.5V106ZM122 106.5V114.5H123V106.5H122ZM122.5 114H108.5V115H122.5V114ZM108 114.5V117.5H109V114.5H108ZM108.5 118H111.5V117H108.5V118ZM111 117.5V133.5H112V117.5H111ZM111.5 134H125.5V133H111.5V134ZM125 133.5V145.5H126V133.5H125ZM125.5 146H127.5V145H125.5V146ZM128 145.5V139.5H127V145.5H128ZM127.5 140H157.5V139H127.5V140ZM157 139.5V146.5H158V139.5H157ZM157.5 147H158.5V146H157.5V147ZM159 146.5V142.69H158V146.5H159ZM158.5 143.19H164.5V142.19H158.5V143.19ZM165 142.69V115.5H164V142.69H165ZM164.5 116H186.5V115H164.5V116ZM119.5 142H111.5V143H119.5V142ZM111 142.5V161.5H112V142.5H111ZM111.5 162H124.5V161H111.5V162ZM124.5 162H125.5V161H124.5V162ZM126 161.5V154.5H125V161.5H126ZM125.5 155H127.5V154H125.5V155ZM127 154.5V173.5H128V154.5H127ZM127.5 174H147.5V173H127.5V174ZM147.854 173.854L157.854 163.854L157.146 163.146L147.146 173.146L147.854 173.854ZM158 163.5V158.5H157V163.5H158ZM157.5 159H158.5V158H157.5V159ZM158 158.5V184.5H159V158.5H158ZM158.5 184H144.5V185H158.5V184ZM161 206.5V208H162V206.5H161ZM144 208V239.5H145V208H144ZM144.5 239H143.5V240H144.5V239ZM144 239.5V229.5H143V239.5H144ZM143.5 229H113.5V230H143.5V229ZM113 229.5V237.5H114V229.5H113ZM113.5 237H97.5V238H113.5V237ZM98 237.5V229.5H97V237.5H98ZM97.5 229H69.5V230H97.5V229ZM70 229.5V227.5H69V229.5H70ZM69.5 228H72.5V227H69.5V228ZM73 227.5V203.5H72V227.5H73ZM72.5 204H89.5V203H72.5V204ZM89 203.5V212.5H90V203.5H89ZM89.5 213H119.5V212H89.5V213ZM120 212.5V184.5H119V212.5H120ZM119.5 184H108.5V185H119.5V184ZM109 184.5V181.5H108V184.5H109ZM116.5 170H125.5V169H116.5V170ZM244.5 241H254.5V240H244.5V241ZM255 240.5V237.5H254V240.5H255ZM254.5 237H250.5V238H254.5V237ZM251 237.5V212.5H250V237.5H251ZM250.5 213H264.5V212H250.5V213ZM264.001 212.469C263.917 213.806 263.817 215.814 263.788 217.491C263.773 218.328 263.776 219.093 263.809 219.654C263.825 219.931 263.85 220.18 263.889 220.368C263.908 220.458 263.936 220.567 263.987 220.666C264.018 220.727 264.166 221 264.5 221V220C264.639 220 264.742 220.062 264.799 220.113C264.85 220.159 264.873 220.203 264.878 220.213C264.888 220.232 264.881 220.225 264.868 220.163C264.844 220.049 264.822 219.861 264.807 219.596C264.776 219.074 264.773 218.339 264.787 217.509C264.816 215.852 264.916 213.86 264.999 212.531L264.001 212.469ZM264.5 221H299.5V220H264.5V221ZM300 220.5V206.5H299V220.5H300ZM299.5 206H272.5V207H299.5V206ZM273 206.5V198.5H272V206.5H273ZM272.5 198H269.5V199H272.5V198ZM269 198.5V204.5H270V198.5H269ZM269.5 204H236.5V205H269.5V204ZM236 204.5V209.5H237V204.5H236ZM236.5 210H241.5V209H236.5V210ZM241 209.5V231.5H242V209.5H241ZM241.5 231H219.5V232H241.5V231ZM220 231.5V223.5H219V231.5H220ZM219.5 223H206.5V224H219.5V223ZM206 223.5V290.5H207V223.5H206ZM24.5 134H22.5V135H24.5V134ZM22 134.5V152.5H23V134.5H22ZM22.5 153H24.5V152H22.5V153ZM25 152.5V134.5H24V152.5H25ZM52 118.5V122.5H53V118.5H52ZM52.5 123H58.5V122H52.5V123ZM59 122.5V118.5H58V122.5H59ZM58.5 118H52.5V119H58.5V118ZM45 146.5V142.5H44V146.5H45ZM44.5 143H49.5V142H44.5V143ZM49 142.5V145.5H50V142.5H49ZM49.1464 145.854L51.1464 147.854L51.8536 147.146L49.8536 145.146L49.1464 145.854ZM51 147.5V153.5H52V147.5H51ZM51.5 153H45.5V154H51.5V153ZM46 153.5V148.5H45V153.5H46ZM45.8536 148.146L44.8536 147.146L44.1464 147.854L45.1464 148.854L45.8536 148.146ZM45 147.5V146.5H44V147.5H45ZM85 169.5V170.5H86V169.5H85ZM85.5 170H24.5V171H85.5V170ZM72.5 130H85.5V129H72.5V130ZM73 169.5V163.5H72V169.5H73ZM73 163.5V129.5H72V163.5H73ZM72.5 163H67.5V164H72.5V163ZM67.1464 163.146L66.1464 164.146L66.8536 164.854L67.8536 163.854L67.1464 163.146ZM85.5 169H72.5V170H85.5V169ZM72.5 169H66.5V170H72.5V169ZM66.5 169H24.5V170H66.5V169ZM66 164.5V169.5H67V164.5H66ZM87 158.5V143.5H86V158.5H87ZM86.9 143.2L83.9 139.2L83.1 139.8L86.1 143.8L86.9 143.2ZM83.1 139.2L80.1 143.2L80.9 143.8L83.9 139.8L83.1 139.2ZM80 143.5V158.5H81V143.5H80ZM80.5 159H86.5V158H80.5V159ZM126 169.5V162.5H125V169.5H126ZM126 162.5V161.5H125V162.5H126ZM116 163H125.5V162H116V163ZM63 184.5V189.5H64V184.5H63ZM70 189.5V184.5H69V189.5H70ZM63.5 190H66.5V189H63.5V190ZM66.5 190H69.5V189H66.5V190ZM66 189.5V192.5H67V189.5H66ZM66.5 193H69.5V192H66.5V193ZM70 192.5V189.5H69V192.5H70ZM180 295.5V309.5H181V295.5H180ZM180.5 296H186.5V295H180.5V296ZM187 295.5V290.5H186V295.5H187ZM180 289.5V290.5H181V289.5H180ZM180 290.5V295.5H181V290.5H180ZM186.5 290H180.5V291H186.5V290ZM206 290.5V295.5H207V290.5H206ZM206.5 296H211.5V295H206.5V296ZM206.5 291H211.5V290H206.5V291ZM211.5 291H244.5V290H211.5V291ZM212 295.5V290.5H211V295.5H212ZM274.5 279H268.5V280H274.5V279ZM268.5 285H274.5V284H268.5V285ZM268 282V284.5H269V282H268ZM222.5 360H211.5V361H222.5V360ZM211 360.5V368.5H212V360.5H211ZM333.5 142H327.5V143H333.5V142ZM327 142.5V148.5H328V142.5H327ZM327.5 149H333.5V148H327.5V149ZM333.5 134H327.5V135H333.5V134ZM327 134.5V139.5H328V134.5H327ZM327.5 140H333.5V139H327.5V140ZM333.5 170H327.5V171H333.5V170ZM327 170.5V176.5H328V170.5H327ZM327.5 177H333.5V176H327.5V177ZM328 195.5V206.5H329V195.5H328ZM328.5 196H333.5V195H328.5V196ZM322.5 196H328.5V195H322.5V196ZM322 195.5V206.5H323V195.5H322ZM309 156.5V161.5H310V156.5H309ZM309.5 162H314.5V161H309.5V162ZM314.5 156H309.5V157H314.5V156ZM315 161.5V158.5H314V161.5H315ZM315 158.5V156.5H314V158.5H315ZM314.5 159H319.5V158H314.5V159ZM319 158.5V163.5H320V158.5H319ZM319.5 163H314.5V164H319.5V163ZM315 163.5V161.5H314V163.5H315ZM286.5 154H292.5V153H286.5V154ZM292 153.5V170.5H293V153.5H292ZM292.5 170H286.5V171H292.5V170ZM287 170.5V153.5H286V170.5H287ZM196 237.5V215.5H195V237.5H196ZM196 215.5V209.5H195V215.5H196ZM195.5 216H201.5V215H195.5V216ZM195.5 210H201.5V209H195.5V210ZM201.5 210H228.5V209H201.5V210ZM202 215.5V209.5H201V215.5H202ZM246 143.5V148.5H247V143.5H246ZM246.5 149H254.5V148H246.5V149ZM254.5 149H258.5V148H254.5V149ZM254 148.5V151.5H255V148.5H254ZM254.5 152H258.5V151H254.5V152ZM233.5 136H228.5V137H233.5V136ZM228 136.5V142.69H229V136.5H228ZM228.5 143.19H233.5V142.19H228.5V143.19ZM108.5 182H112.5V181H108.5V182ZM112.5 182H116.5V181H112.5V182ZM112.974 181.658L113.974 178.658L113.026 178.342L112.026 181.342L112.974 181.658ZM117 181.5V177.5H116V181.5H117ZM117 177.5V169.5H116V177.5H117ZM113.658 178.974L116.658 177.974L116.342 177.026L113.342 178.026L113.658 178.974ZM144 184.5V201.5H145V184.5H144ZM144 201.5V206.5H145V201.5H144ZM144.5 202H149.5V201H144.5V202ZM149 201.5V206.5H150V201.5H149ZM149 206.5V207H150V206.5H149ZM153.5 207.5H144.5V208.5H153.5V207.5ZM153 208V213.5H154V208H153ZM153.5 214H158.5V213H153.5V214ZM161.5 207.5H158.5V208.5H161.5V207.5ZM158.5 207.5H153.5V208.5H158.5V207.5ZM159 213.5V208H158V213.5H159ZM144.5 207H149.5V206H144.5V207ZM149.5 207H151.5V206H149.5V207ZM152 206.5V204.5H151V206.5H152ZM151.5 205H157.5V204H151.5V205ZM151.5 207H157.5V206H151.5V207ZM157.5 207H161.5V206H157.5V207ZM157 204.5V206.5H158V204.5H157ZM17.9472 163.724L18.9472 161.724L18.0528 161.276L17.0528 163.276L17.9472 163.724ZM18.7236 161.947L22.7236 159.947L22.2764 159.053L18.2764 161.053L18.7236 161.947ZM262 178.5V177.5H261V178.5H262ZM261.947 177.724L262.947 175.724L262.053 175.276L261.053 177.276L261.947 177.724ZM262.5 176H264.5V175H262.5V176ZM261.5 177H260.5V178H261.5V177ZM261 177.5V174.5H260V177.5H261ZM260.5 175H261.5V174H260.5V175ZM261.5 175H262.5V174H261.5V175ZM262 174.5V175.5H263V174.5H262ZM270 187.5V181.5H269V187.5H270ZM269.5 181H256.5V182H269.5V181ZM257 181.5V178.5H256V181.5H257ZM256.5 179H261.5V178H256.5V179ZM261.5 179H264.5V178H261.5V179ZM265 178.5V175.5H264V178.5H265ZM265 175.5V159.5H264V175.5H265ZM264.9 159.2L258.9 151.2L258.1 151.8L264.1 159.8L264.9 159.2ZM258 148.5V151.5H259V148.5H258ZM259 148.5V143.5H258V148.5H259ZM258.5 143H254.5V144H258.5V143ZM255 143.5V141.5H254V143.5H255ZM254.5 142H260.5V141H254.5V142ZM261 141.5V139.5H260V141.5H261ZM260.5 140H297.5V139H260.5V140ZM297 139.5V142.5H298V139.5H297ZM297.5 142H278.5V143H297.5V142ZM278 142.5V178.5H279V142.5H278ZM278.5 178H272.5V179H278.5V178ZM272 178.5V187.5H273V178.5H272ZM272.5 187H269.5V188H272.5V187ZM248.5 143H246.5V144H248.5V143ZM246.5 143H233.5V144H246.5V143ZM234 143.5V142.69H233V143.5H234ZM234 142.69V136.5H233V142.69H234ZM234 136.5V106.5H233V136.5H234ZM233.5 107H261.5V106H233.5V107ZM261 106.5V126.5H262V106.5H261ZM261.5 126H242.5V127H261.5V126ZM242 126.5V141.5H243V126.5H242ZM242.5 142H248.5V141H242.5V142ZM248 141.5V143.5H249V141.5H248ZM274.5 245H268.5V246H274.5V245ZM269 245.5V240.5H268V245.5H269ZM270 240.5V243.5H271V240.5H270ZM270.5 244H274.5V243H270.5V244ZM245 262.5V240.5H244V262.5H245ZM244.5 263H250.5V262H244.5V263ZM250 262.5V267.5H251V262.5H250ZM245 290.5V267.5H244V290.5H245ZM245 267.5V262.5H244V267.5H245ZM250.5 267H244.5V268H250.5V267ZM268 279.5V281.5H269V279.5H268ZM268 281.5V282H269V281.5H268ZM268.5 281H265.5V282H268.5V281ZM265 281.5V284.5H266V281.5H265ZM265.5 285H268.5V284H265.5V285ZM297.5 140H327.5V139H297.5V140Z" fill="#B27C40"/>
<circle cx="189" cy="86" r="2.5" stroke="#B27C40"/>
<circle cx="167" cy="244" r="2.5" stroke="#B27C40"/>
<circle cx="138.5" cy="345.5" r="4" stroke="#B27C40"/>
<circle cx="111" cy="373" r="4.5" stroke="#B27C40"/>
</svg>
