<svg width="347" height="370" viewBox="0 0 347 370" fill="none" xmlns="http://www.w3.org/2000/svg">
<path fill-rule="evenodd" clip-rule="evenodd" d="M59 178.5H53V200.5V211.5V233.5H94.5V327.5H119.5V369.5H135.5L143.5 359V356.5H158.5V317.5H211.5H222.5V309.5H245.5V280.5H239.5V264.5H241.5H274.5V233.5V228.5V194.5V192.5V189.5H271.5H270.5H268.5H264.5V186.5H319.5V180.5H328.5V186.5H346.5V169.5H313.5V155.5H322.5H328.5H333.5V144.5V125.5V119.5V97.5V91.5V88.5V83.5V75.5H274.5V41.5H234.5V36.5H217.5V41.5H214.5V0.5H164.5V41.5H92.5V63.5H97.5V66.5H24.5V77.5H22.5V72.5H0.5V112.5H17.5H22.5V108.5V107.5H24.5V118.5V119.5V130.5H97.5V133.5H69.5H63.5H55.5V176.5H59V178.5ZM233.5 55.5V92.5H248.5V90.5H242.5V75.5H261.5V55.5H233.5ZM272.5 127.5V136.5H269.5V130.5H256.5V127.5H264.5V108.5L258.5 100.5V92.5H254.5V90.5H260.5V88.5H297.5V91.5H278.5V127.5H272.5ZM69.5 176.5V178.5H97.5V186.5H113.5V178.5H144.5V157H161.5V155.5H144.5V133.5H158.5V111.5L147.5 122.5H127.5V103.5H125.5V118.5H116.5V130.5H108.5V133.5H119.5V161.5H89.5V152.5H72.5V176.5H69.5ZM111.5 197.5V272.5H150.5V269.5H180.5V280.5H225.5V258.5H180.5V216.5L175.5 211.5H144.5V208.5H122.5V197.5H111.5ZM206.5 239.5V172.5H219.5V180.5H241.5V158.5H236.5C236.333 156.833 236.1 153.5 236.5 153.5H269.5V147.5H272.5V155.5H299.5V169.5H264.5V161.5H250.5V186.5H254.5V189.5H244.5V239.5H206.5ZM189.5 157H172.5V155.5H189.5V133.5H178.5V116.5H191.5V97.5H181.5L175.5 91.5V86.5L181.5 80.5H203.5V63.5H214.5V55.5H217.5V105.5H239.5V127.5H247.5V130.5H222.5V153.5H228.5V158.5H189.5V157ZM122.5 63.5V55.5H133.5V63.5H164.5V91.5H157.5V88.5H127.5V94.5H125.5V82.5H111.5V66.5H108.5V63.5H122.5Z" fill="#271406"/>
<path d="M53 178.5V178H52.5V178.5H53ZM59 178.5V179H59.5V178.5H59ZM53 233.5H52.5V234H53V233.5ZM94.5 233.5H95V233H94.5V233.5ZM94.5 327.5H94V328H94.5V327.5ZM119.5 327.5H120V327H119.5V327.5ZM119.5 369.5H119V370H119.5V369.5ZM135.5 369.5V370H135.748L135.898 369.803L135.5 369.5ZM143.5 359L143.898 359.303L144 359.169V359H143.5ZM143.5 356.5V356H143V356.5H143.5ZM158.5 356.5V357H159V356.5H158.5ZM158.5 317.5V317H158V317.5H158.5ZM222.5 317.5V318H223V317.5H222.5ZM222.5 309.5V309H222V309.5H222.5ZM245.5 309.5V310H246V309.5H245.5ZM245.5 280.5H246V280H245.5V280.5ZM239.5 280.5H239V281H239.5V280.5ZM239.5 264.5V264H239V264.5H239.5ZM274.5 264.5V265H275V264.5H274.5ZM274.5 189.5H275V189H274.5V189.5ZM264.5 189.5H264V190H264.5V189.5ZM264.5 186.5V186H264V186.5H264.5ZM319.5 186.5V187H320V186.5H319.5ZM319.5 180.5V180H319V180.5H319.5ZM328.5 180.5H329V180H328.5V180.5ZM328.5 186.5H328V187H328.5V186.5ZM346.5 186.5V187H347V186.5H346.5ZM346.5 169.5H347V169H346.5V169.5ZM313.5 169.5H313V170H313.5V169.5ZM313.5 155.5V155H313V155.5H313.5ZM333.5 155.5V156H334V155.5H333.5ZM333.5 75.5H334V75H333.5V75.5ZM274.5 75.5H274V76H274.5V75.5ZM274.5 41.5H275V41H274.5V41.5ZM234.5 41.5H234V42H234.5V41.5ZM234.5 36.5H235V36H234.5V36.5ZM217.5 36.5V36H217V36.5H217.5ZM217.5 41.5V42H218V41.5H217.5ZM214.5 41.5H214V42H214.5V41.5ZM214.5 0.5H215V0H214.5V0.5ZM164.5 0.5V0H164V0.5H164.5ZM164.5 41.5V42H165V41.5H164.5ZM92.5 41.5V41H92V41.5H92.5ZM92.5 63.5H92V64H92.5V63.5ZM97.5 63.5H98V63H97.5V63.5ZM97.5 66.5V67H98V66.5H97.5ZM24.5 66.5V66H24V66.5H24.5ZM24.5 77.5V78H25V77.5H24.5ZM22.5 77.5H22V78H22.5V77.5ZM22.5 72.5H23V72H22.5V72.5ZM0.5 72.5V72H0V72.5H0.5ZM0.5 112.5H0V113H0.5V112.5ZM22.5 112.5V113H23V112.5H22.5ZM22.5 107.5V107H22V107.5H22.5ZM24.5 107.5H25V107H24.5V107.5ZM24.5 130.5H24V131H24.5V130.5ZM97.5 130.5H98V130H97.5V130.5ZM97.5 133.5V134H98V133.5H97.5ZM55.5 133.5V133H55V133.5H55.5ZM55.5 176.5H55V177H55.5V176.5ZM59 176.5H59.5V176H59V176.5ZM233.5 92.5H233V93H233.5V92.5ZM233.5 55.5V55H233V55.5H233.5ZM248.5 92.5V93H249V92.5H248.5ZM248.5 90.5H249V90H248.5V90.5ZM242.5 90.5H242V91H242.5V90.5ZM242.5 75.5V75H242V75.5H242.5ZM261.5 75.5V76H262V75.5H261.5ZM261.5 55.5H262V55H261.5V55.5ZM272.5 136.5V137H273V136.5H272.5ZM272.5 127.5V127H272V127.5H272.5ZM269.5 136.5H269V137H269.5V136.5ZM269.5 130.5H270V130H269.5V130.5ZM256.5 130.5H256V131H256.5V130.5ZM256.5 127.5V127H256V127.5H256.5ZM264.5 127.5V128H265V127.5H264.5ZM264.5 108.5H265V108.333L264.9 108.2L264.5 108.5ZM258.5 100.5H258V100.667L258.1 100.8L258.5 100.5ZM258.5 92.5H259V92H258.5V92.5ZM254.5 92.5H254V93H254.5V92.5ZM254.5 90.5V90H254V90.5H254.5ZM260.5 90.5V91H261V90.5H260.5ZM260.5 88.5V88H260V88.5H260.5ZM297.5 88.5H298V88H297.5V88.5ZM297.5 91.5V92H298V91.5H297.5ZM278.5 91.5V91H278V91.5H278.5ZM278.5 127.5V128H279V127.5H278.5ZM69.5 178.5H69V179H69.5V178.5ZM69.5 176.5V176H69V176.5H69.5ZM97.5 178.5H98V178H97.5V178.5ZM97.5 186.5H97V187H97.5V186.5ZM113.5 186.5V187H114V186.5H113.5ZM113.5 178.5V178H113V178.5H113.5ZM144.5 178.5V179H145V178.5H144.5ZM144.5 157V156.5H144V157H144.5ZM161.5 157V157.5H162V157H161.5ZM161.5 155.5H162V155H161.5V155.5ZM144.5 155.5H144V156H144.5V155.5ZM144.5 133.5V133H144V133.5H144.5ZM158.5 133.5V134H159V133.5H158.5ZM158.5 111.5H159V110.293L158.146 111.146L158.5 111.5ZM147.5 122.5V123H147.707L147.854 122.854L147.5 122.5ZM127.5 122.5H127V123H127.5V122.5ZM127.5 103.5H128V103H127.5V103.5ZM125.5 103.5V103H125V103.5H125.5ZM125.5 118.5V119H126V118.5H125.5ZM116.5 118.5V118H116V118.5H116.5ZM116.5 130.5V131H117V130.5H116.5ZM108.5 130.5V130H108V130.5H108.5ZM108.5 133.5H108V134H108.5V133.5ZM119.5 133.5H120V133H119.5V133.5ZM119.5 161.5V162H120V161.5H119.5ZM89.5 161.5H89V162H89.5V161.5ZM89.5 152.5H90V152H89.5V152.5ZM72.5 152.5V152H72V152.5H72.5ZM72.5 176.5V177H73V176.5H72.5ZM111.5 272.5H111V273H111.5V272.5ZM111.5 197.5V197H111V197.5H111.5ZM150.5 272.5V273H151V272.5H150.5ZM150.5 269.5V269H150V269.5H150.5ZM180.5 269.5H181V269H180.5V269.5ZM180.5 280.5H180V281H180.5V280.5ZM225.5 280.5V281H226V280.5H225.5ZM225.5 258.5H226V258H225.5V258.5ZM180.5 258.5H180V259H180.5V258.5ZM180.5 216.5H181V216.293L180.854 216.146L180.5 216.5ZM175.5 211.5L175.854 211.146L175.707 211H175.5V211.5ZM144.5 211.5H144V212H144.5V211.5ZM144.5 208.5H145V208H144.5V208.5ZM122.5 208.5H122V209H122.5V208.5ZM122.5 197.5H123V197H122.5V197.5ZM206.5 172.5V172H206V172.5H206.5ZM206.5 239.5H206V240H206.5V239.5ZM219.5 172.5H220V172H219.5V172.5ZM219.5 180.5H219V181H219.5V180.5ZM241.5 180.5V181H242V180.5H241.5ZM241.5 158.5H242V158H241.5V158.5ZM236.5 158.5L236.002 158.55L236.048 159H236.5V158.5ZM269.5 153.5V154H270V153.5H269.5ZM269.5 147.5V147H269V147.5H269.5ZM272.5 147.5H273V147H272.5V147.5ZM272.5 155.5H272V156H272.5V155.5ZM299.5 155.5H300V155H299.5V155.5ZM299.5 169.5V170H300V169.5H299.5ZM264.5 169.5H264V170H264.5V169.5ZM264.5 161.5H265V161H264.5V161.5ZM250.5 161.5V161H250V161.5H250.5ZM250.5 186.5H250V187H250.5V186.5ZM254.5 186.5H255V186H254.5V186.5ZM254.5 189.5V190H255V189.5H254.5ZM244.5 189.5V189H244V189.5H244.5ZM244.5 239.5V240H245V239.5H244.5ZM172.5 157H172V157.5H172.5V157ZM189.5 157H190V156.5H189.5V157ZM172.5 155.5V155H172V155.5H172.5ZM189.5 155.5V156H190V155.5H189.5ZM189.5 133.5H190V133H189.5V133.5ZM178.5 133.5H178V134H178.5V133.5ZM178.5 116.5V116H178V116.5H178.5ZM191.5 116.5V117H192V116.5H191.5ZM191.5 97.5H192V97H191.5V97.5ZM181.5 97.5L181.146 97.8536L181.293 98H181.5V97.5ZM175.5 91.5H175V91.7071L175.146 91.8536L175.5 91.5ZM175.5 86.5L175.146 86.1464L175 86.2929V86.5H175.5ZM181.5 80.5V80H181.293L181.146 80.1464L181.5 80.5ZM203.5 80.5V81H204V80.5H203.5ZM203.5 63.5V63H203V63.5H203.5ZM214.5 63.5V64H215V63.5H214.5ZM214.5 55.5V55H214V55.5H214.5ZM217.5 55.5H218V55H217.5V55.5ZM217.5 105.5H217V106H217.5V105.5ZM239.5 105.5H240V105H239.5V105.5ZM239.5 127.5H239V128H239.5V127.5ZM247.5 127.5H248V127H247.5V127.5ZM247.5 130.5V131H248V130.5H247.5ZM222.5 130.5V130H222V130.5H222.5ZM222.5 153.5H222V154H222.5V153.5ZM228.5 153.5H229V153H228.5V153.5ZM228.5 158.5V159H229V158.5H228.5ZM189.5 158.5H189V159H189.5V158.5ZM122.5 55.5V55H122V55.5H122.5ZM122.5 63.5V64H123V63.5H122.5ZM133.5 55.5H134V55H133.5V55.5ZM133.5 63.5H133V64H133.5V63.5ZM164.5 63.5H165V63H164.5V63.5ZM164.5 91.5V92H165V91.5H164.5ZM157.5 91.5H157V92H157.5V91.5ZM157.5 88.5H158V88H157.5V88.5ZM127.5 88.5V88H127V88.5H127.5ZM127.5 94.5V95H128V94.5H127.5ZM125.5 94.5H125V95H125.5V94.5ZM125.5 82.5H126V82H125.5V82.5ZM111.5 82.5H111V83H111.5V82.5ZM111.5 66.5H112V66H111.5V66.5ZM108.5 66.5H108V67H108.5V66.5ZM108.5 63.5V63H108V63.5H108.5ZM180.5 280.5H180V281H180.5V280.5ZM180.5 269.5H181V269H180.5V269.5ZM150.5 269.5V269H150V269.5H150.5ZM150.5 272.5V273H151V272.5H150.5ZM111.5 272.5H111V273H111.5V272.5ZM111.5 197.5V197H111V197.5H111.5ZM122.5 197.5H123V197H122.5V197.5ZM122.5 208.5H122V209H122.5V208.5ZM143.5 208.5V209H144V208.5H143.5ZM143.5 197.5V197H143V197.5H143.5ZM144.5 197.5H145V197H144.5V197.5ZM144.5 211.5H144V212H144.5V211.5ZM175.5 211.5L175.854 211.146L175.707 211H175.5V211.5ZM180.5 216.5H181V216.293L180.854 216.146L180.5 216.5ZM180.5 258.5H180V259H180.5V258.5ZM225.5 258.5H226V258H225.5V258.5ZM225.5 280.5V281H226V280.5H225.5ZM239.5 250.5V250H239V250.5H239.5ZM241.5 250.5H242V250H241.5V250.5ZM63.5 200.5H64V200H63.5V200.5ZM63.5 211.5V212H64V211.5H63.5ZM164.5 205.5V205H164V205.5H164.5ZM169.5 205.5H170V205H169.5V205.5ZM195.5 238.5V239H196V238.5H195.5ZM195.5 200.5H196V200H195.5V200.5ZM195.5 186.5V187H196V186.5H195.5ZM228.5 158.5V159H229V158.5H228.5ZM228.5 153.5H229V153H228.5V153.5ZM222.5 153.5H222V154H222.5V153.5ZM222.5 130.5V130H222V130.5H222.5ZM247.5 130.5V131H248V130.5H247.5ZM247.5 127.5H248V127H247.5V127.5ZM239.5 127.5H239V128H239.5V127.5ZM239.5 105.5H240V105H239.5V105.5ZM217.5 105.5H217V106H217.5V105.5ZM217.5 55.5H218V55H217.5V55.5ZM214.5 55.5V55H214V55.5H214.5ZM214.5 63.5V64H215V63.5H214.5ZM197.5 63.5V63H197V63.5H197.5ZM197.5 64.5H197V65H197.5V64.5ZM203.5 64.5H204V64H203.5V64.5ZM203.5 80.5V81H204V80.5H203.5ZM181.5 80.5V80H181.293L181.146 80.1464L181.5 80.5ZM175.5 86.5L175.146 86.1464L175 86.2929V86.5H175.5ZM175.5 91.6895H175V91.9014L175.152 92.0487L175.5 91.6895ZM181.5 97.5L181.152 97.8592L181.298 98H181.5V97.5ZM191.5 97.5H192V97H191.5V97.5ZM191.5 116.5V117H192V116.5H191.5ZM178.5 116.5V116H178V116.5H178.5ZM178.5 133.5H178V134H178.5V133.5ZM189.5 133.5H190V133H189.5V133.5ZM189.5 155.5V156H190V155.5H189.5ZM172.5 155.5V155H172V155.5H172.5ZM172.5 157H172V157.5H172.5V157ZM189.5 157H190V156.5H189.5V157ZM189.5 158.5H189V159H189.5V158.5ZM186.5 64.5V65H187V64.5H186.5ZM186.5 63.5H187V63H186.5V63.5ZM133.5 63.5H133V64H133.5V63.5ZM122.5 55.5V55H122V55.5H122.5ZM122.5 63.5V64H123V63.5H122.5ZM108.5 63.5V63H108V63.5H108.5ZM108.5 66.5H108V67H108.5V66.5ZM111.5 66.5H112V66H111.5V66.5ZM111.5 82.5H111V83H111.5V82.5ZM125.5 82.5H126V82H125.5V82.5ZM125.5 94.5H125V95H125.5V94.5ZM127.5 94.5V95H128V94.5H127.5ZM127.5 88.5V88H127V88.5H127.5ZM157.5 88.5H158V88H157.5V88.5ZM157.5 95.5H157V96H157.5V95.5ZM158.5 95.5V96H159V95.5H158.5ZM158.5 91.6895V91.1895H158V91.6895H158.5ZM164.5 91.6895V92.1895H165V91.6895H164.5ZM164.5 64.5V64H164V64.5H164.5ZM111.5 91.5V91H111V91.5H111.5ZM111.5 110.5H111V111H111.5V110.5ZM125.5 103.5V103H125V103.5H125.5ZM127.5 103.5H128V103H127.5V103.5ZM127.5 122.5H127V123H127.5V122.5ZM147.5 122.5V123H147.707L147.854 122.854L147.5 122.5ZM157.5 112.5L157.854 112.854L158 112.707V112.5H157.5ZM157.5 107.5V107H157V107.5H157.5ZM158.5 107.5H159V107H158.5V107.5ZM158.5 133.5V134H159V133.5H158.5ZM144.5 133.5V133H144V133.5H144.5ZM161.5 155.5H162V155H161.5V155.5ZM161.5 157V157.5H162V157H161.5ZM144.5 157V156.5H144V157H144.5ZM144.5 188.5V189H145V188.5H144.5ZM143.5 188.5H143V189H143.5V188.5ZM143.5 178.5H144V178H143.5V178.5ZM113.5 178.5V178H113V178.5H113.5ZM113.5 186.5V187H114V186.5H113.5ZM97.5 186.5H97V187H97.5V186.5ZM97.5 178.5H98V178H97.5V178.5ZM69.5 178.5H69V179H69.5V178.5ZM69.5 176.5V176H69V176.5H69.5ZM72.5 176.5V177H73V176.5H72.5ZM72.5 152.5V152H72V152.5H72.5ZM89.5 152.5H90V152H89.5V152.5ZM89.5 161.5H89V162H89.5V161.5ZM119.5 161.5V162H120V161.5H119.5ZM119.5 133.5H120V133H119.5V133.5ZM108.5 133.5H108V134H108.5V133.5ZM108.5 130.5V130H108V130.5H108.5ZM116.5 118.5V118H116V118.5H116.5ZM125.5 118.5V119H126V118.5H125.5ZM244.5 189.5V189H244V189.5H244.5ZM254.5 189.5V190H255V189.5H254.5ZM254.5 186.5H255V186H254.5V186.5ZM250.5 186.5H250V187H250.5V186.5ZM250.5 161.5V161H250V161.5H250.5ZM264.5 161.5L264.999 161.531L265.032 161H264.5V161.5ZM299.5 169.5V170H300V169.5H299.5ZM299.5 155.5H300V155H299.5V155.5ZM272.5 155.5H272V156H272.5V155.5ZM272.5 147.5H273V147H272.5V147.5ZM269.5 147.5V147H269V147.5H269.5ZM269.5 153.5V154H270V153.5H269.5ZM236.5 153.5V153H236V153.5H236.5ZM236.5 158.5H236V159H236.5V158.5ZM241.5 158.5H242V158H241.5V158.5ZM241.5 180.5V181H242V180.5H241.5ZM219.5 180.5H219V181H219.5V180.5ZM219.5 172.5H220V172H219.5V172.5ZM206.5 172.5V172H206V172.5H206.5ZM24.5 83.5H25V83H24.5V83.5ZM22.5 83.5V83H22V83.5H22.5ZM22.5 101.5H22V102H22.5V101.5ZM24.5 101.5V102H25V101.5H24.5ZM52.5 67.5V67H52V67.5H52.5ZM52.5 71.5H52V72H52.5V71.5ZM58.5 71.5V72H59V71.5H58.5ZM58.5 67.5H59V67H58.5V67.5ZM44.5 91.5V91H44V91.5H44.5ZM49.5 91.5H50V91H49.5V91.5ZM49.5 94.5H49V94.7071L49.1464 94.8536L49.5 94.5ZM51.5 96.5H52V96.2929L51.8536 96.1464L51.5 96.5ZM51.5 102.5V103H52V102.5H51.5ZM45.5 102.5H45V103H45.5V102.5ZM45.5 97.5H46V97.2929L45.8536 97.1464L45.5 97.5ZM44.5 96.5H44V96.7071L44.1464 96.8536L44.5 96.5ZM85.5 118.5H86V118H85.5V118.5ZM85.5 119.5V120H86V119.5H85.5ZM72.5 78.5V78H72V78.5H72.5ZM67.5 112.5V112H67.2929L67.1464 112.146L67.5 112.5ZM66.5 113.5L66.1464 113.146L66 113.293V113.5H66.5ZM86.5 107.5V108H87V107.5H86.5ZM86.5 92.5H87V92.3333L86.9 92.2L86.5 92.5ZM83.5 88.5L83.9 88.2L83.5 87.6667L83.1 88.2L83.5 88.5ZM80.5 92.5L80.1 92.2L80 92.3333V92.5H80.5ZM80.5 107.5H80V108H80.5V107.5ZM63.5 138.5H63V139H63.5V138.5ZM66.5 141.5H66V142H66.5V141.5ZM69.5 141.5V142H70V141.5H69.5ZM186.5 244.5V245H187V244.5H186.5ZM186.5 239.5H187V239H186.5V239.5ZM206.5 244.5H206V245H206.5V244.5ZM211.5 244.5V245H212V244.5H211.5ZM244.5 239.5V240H245V239.5H244.5ZM268.5 228.5V228H268V228.5H268.5ZM211.5 309.5V309H211V309.5H211.5ZM327.5 91.5V91H327V91.5H327.5ZM327.5 97.5H327V98H327.5V97.5ZM327.5 83.5V83H327V83.5H327.5ZM327.5 119.5V119H327V119.5H327.5ZM327.5 125.5H327V126H327.5V125.5ZM322.5 144.5V144H322V144.5H322.5ZM309.5 105.5V105H309V105.5H309.5ZM309.5 110.5H309V111H309.5V110.5ZM314.5 105.5H315V105H314.5V105.5ZM319.5 107.5H320V107H319.5V107.5ZM319.5 112.5V113H320V112.5H319.5ZM314.5 112.5H314V113H314.5V112.5ZM286.5 102.5V102H286V102.5H286.5ZM292.5 102.5H293V102H292.5V102.5ZM292.5 119.5V120H293V119.5H292.5ZM286.5 119.5H286V120H286.5V119.5ZM201.5 164.5V165H202V164.5H201.5ZM246.5 97.5H246V98H246.5V97.5ZM254.5 100.5H254V101H254.5V100.5ZM228.5 85.5V85H228V85.5H228.5ZM228.5 91.6895H228V92.1895H228.5V91.6895ZM116.5 130.5V131H117V130.5H116.5ZM113.5 127.5L113.342 127.026L113.105 127.105L113.026 127.342L113.5 127.5ZM144.5 155.5H144V156H144.5V155.5ZM149.5 150.5H150V150H149.5V150.5ZM153.5 162.5H153V163H153.5V162.5ZM158.5 162.5V163H159V162.5H158.5ZM151.5 153.5V153H151V153.5H151.5ZM157.5 153.5H158V153H157.5V153.5ZM18.5 110.5L18.2764 110.053L18.1273 110.127L18.0528 110.276L18.5 110.5ZM260.5 126.5H260V127H260.5V126.5ZM260.5 123.5V123H260V123.5H260.5ZM262.5 123.5H263V123H262.5V123.5ZM269.5 136.5H269V137H269.5V136.5ZM269.5 130.5H270V130H269.5V130.5ZM256.5 130.5H256V131H256.5V130.5ZM256.5 127.5V127H256V127.5H256.5ZM264.5 127.5V128H265V127.5H264.5ZM264.5 108.5H265V108.333L264.9 108.2L264.5 108.5ZM258.5 92.5H259V92H258.5V92.5ZM254.5 92.5H254V93H254.5V92.5ZM254.5 90.5V90H254V90.5H254.5ZM260.5 90.5V91H261V90.5H260.5ZM260.5 88.5V88H260V88.5H260.5ZM297.5 91.5V92H298V91.5H297.5ZM278.5 91.5V91H278V91.5H278.5ZM278.5 127.5V128H279V127.5H278.5ZM272.5 127.5V127H272V127.5H272.5ZM272.5 136.5V137H273V136.5H272.5ZM248.5 92.5V93H249V92.5H248.5ZM233.5 92.5H233V93H233.5V92.5ZM233.5 55.5V55H233V55.5H233.5ZM261.5 55.5H262V55H261.5V55.5ZM261.5 75.5V76H262V75.5H261.5ZM242.5 75.5V75H242V75.5H242.5ZM242.5 90.5H242V91H242.5V90.5ZM248.5 90.5H249V90H248.5V90.5ZM268.5 194.5H268V195H268.5V194.5ZM270.5 192.5H270V193H270.5V192.5ZM250.5 211.5H251V211H250.5V211.5ZM250.5 216.5V217H251V216.5H250.5ZM265.5 230.5V230H265V230.5H265.5ZM265.5 233.5H265V234H265.5V233.5ZM53 179H59V178H53V179ZM53.5 200.5V178.5H52.5V200.5H53.5ZM53.5 211.5V200.5H52.5V211.5H53.5ZM53.5 233.5V211.5H52.5V233.5H53.5ZM94.5 233H53V234H94.5V233ZM95 327.5V233.5H94V327.5H95ZM119.5 327H94.5V328H119.5V327ZM120 369.5V327.5H119V369.5H120ZM135.5 369H119.5V370H135.5V369ZM143.102 358.697L135.102 369.197L135.898 369.803L143.898 359.303L143.102 358.697ZM143 356.5V359H144V356.5H143ZM158.5 356H143.5V357H158.5V356ZM158 317.5V356.5H159V317.5H158ZM211.5 317H158.5V318H211.5V317ZM222.5 317H211.5V318H222.5V317ZM222 309.5V317.5H223V309.5H222ZM245.5 309H222.5V310H245.5V309ZM245 280.5V309.5H246V280.5H245ZM239.5 281H245.5V280H239.5V281ZM239 264.5V280.5H240V264.5H239ZM241.5 264H239.5V265H241.5V264ZM274.5 264H241.5V265H274.5V264ZM274 233.5V264.5H275V233.5H274ZM274 228.5V233.5H275V228.5H274ZM274 194.5V228.5H275V194.5H274ZM274 192.5V194.5H275V192.5H274ZM274 189.5V192.5H275V189.5H274ZM271.5 190H274.5V189H271.5V190ZM270.5 190H271.5V189H270.5V190ZM268.5 190H270.5V189H268.5V190ZM264.5 190H268.5V189H264.5V190ZM264 186.5V189.5H265V186.5H264ZM319.5 186H264.5V187H319.5V186ZM319 180.5V186.5H320V180.5H319ZM328.5 180H319.5V181H328.5V180ZM329 186.5V180.5H328V186.5H329ZM346.5 186H328.5V187H346.5V186ZM346 169.5V186.5H347V169.5H346ZM313.5 170H346.5V169H313.5V170ZM313 155.5V169.5H314V155.5H313ZM322.5 155H313.5V156H322.5V155ZM328.5 155H322.5V156H328.5V155ZM333.5 155H328.5V156H333.5V155ZM333 144.5V155.5H334V144.5H333ZM333 125.5V144.5H334V125.5H333ZM333 119.5V125.5H334V119.5H333ZM333 97.5V119.5H334V97.5H333ZM333 91.5V97.5H334V91.5H333ZM333 88.5V91.5H334V88.5H333ZM333 83.5V88.5H334V83.5H333ZM333 75.5V83.5H334V75.5H333ZM274.5 76H333.5V75H274.5V76ZM274 41.5V75.5H275V41.5H274ZM234.5 42H274.5V41H234.5V42ZM234 36.5V41.5H235V36.5H234ZM217.5 37H234.5V36H217.5V37ZM218 41.5V36.5H217V41.5H218ZM214.5 42H217.5V41H214.5V42ZM214 0.5V41.5H215V0.5H214ZM164.5 1H214.5V0H164.5V1ZM165 41.5V0.5H164V41.5H165ZM92.5 42H164.5V41H92.5V42ZM93 63.5V41.5H92V63.5H93ZM97.5 63H92.5V64H97.5V63ZM98 66.5V63.5H97V66.5H98ZM24.5 67H97.5V66H24.5V67ZM25 77.5V66.5H24V77.5H25ZM22.5 78H24.5V77H22.5V78ZM22 72.5V77.5H23V72.5H22ZM0.5 73H22.5V72H0.5V73ZM1 112.5V72.5H0V112.5H1ZM17.5 112H0.5V113H17.5V112ZM22.5 112H17.5V113H22.5V112ZM22 108.5V112.5H23V108.5H22ZM22 107.5V108.5H23V107.5H22ZM24.5 107H22.5V108H24.5V107ZM25 118.5V107.5H24V118.5H25ZM25 119.5V118.5H24V119.5H25ZM25 130.5V119.5H24V130.5H25ZM97.5 130H24.5V131H97.5V130ZM98 133.5V130.5H97V133.5H98ZM69.5 134H97.5V133H69.5V134ZM63.5 134H69.5V133H63.5V134ZM55.5 134H63.5V133H55.5V134ZM56 176.5V133.5H55V176.5H56ZM59 176H55.5V177H59V176ZM59.5 178.5V176.5H58.5V178.5H59.5ZM234 92.5V55.5H233V92.5H234ZM248.5 92H233.5V93H248.5V92ZM248 90.5V92.5H249V90.5H248ZM242.5 91H248.5V90H242.5V91ZM242 75.5V90.5H243V75.5H242ZM261.5 75H242.5V76H261.5V75ZM261 55.5V75.5H262V55.5H261ZM233.5 56H261.5V55H233.5V56ZM273 136.5V127.5H272V136.5H273ZM269.5 137H272.5V136H269.5V137ZM269 130.5V136.5H270V130.5H269ZM256.5 131H269.5V130H256.5V131ZM256 127.5V130.5H257V127.5H256ZM264.5 127H256.5V128H264.5V127ZM264 108.5V127.5H265V108.5H264ZM258.1 100.8L264.1 108.8L264.9 108.2L258.9 100.2L258.1 100.8ZM258 92.5V100.5H259V92.5H258ZM254.5 93H258.5V92H254.5V93ZM254 90.5V92.5H255V90.5H254ZM260.5 90H254.5V91H260.5V90ZM260 88.5V90.5H261V88.5H260ZM297.5 88H260.5V89H297.5V88ZM298 91.5V88.5H297V91.5H298ZM278.5 92H297.5V91H278.5V92ZM279 127.5V91.5H278V127.5H279ZM272.5 128H278.5V127H272.5V128ZM70 178.5V176.5H69V178.5H70ZM97.5 178H69.5V179H97.5V178ZM98 186.5V178.5H97V186.5H98ZM113.5 186H97.5V187H113.5V186ZM113 178.5V186.5H114V178.5H113ZM144.5 178H113.5V179H144.5V178ZM144 157V178.5H145V157H144ZM161.5 156.5H144.5V157.5H161.5V156.5ZM161 155.5V157H162V155.5H161ZM144.5 156H161.5V155H144.5V156ZM144 133.5V155.5H145V133.5H144ZM158.5 133H144.5V134H158.5V133ZM158 111.5V133.5H159V111.5H158ZM147.854 122.854L158.854 111.854L158.146 111.146L147.146 122.146L147.854 122.854ZM127.5 123H147.5V122H127.5V123ZM127 103.5V122.5H128V103.5H127ZM125.5 104H127.5V103H125.5V104ZM126 118.5V103.5H125V118.5H126ZM116.5 119H125.5V118H116.5V119ZM117 130.5V118.5H116V130.5H117ZM108.5 131H116.5V130H108.5V131ZM109 133.5V130.5H108V133.5H109ZM119.5 133H108.5V134H119.5V133ZM120 161.5V133.5H119V161.5H120ZM89.5 162H119.5V161H89.5V162ZM89 152.5V161.5H90V152.5H89ZM72.5 153H89.5V152H72.5V153ZM73 176.5V152.5H72V176.5H73ZM69.5 177H72.5V176H69.5V177ZM112 272.5V197.5H111V272.5H112ZM150.5 272H111.5V273H150.5V272ZM150 269.5V272.5H151V269.5H150ZM180.5 269H150.5V270H180.5V269ZM181 280.5V269.5H180V280.5H181ZM225.5 280H180.5V281H225.5V280ZM225 258.5V280.5H226V258.5H225ZM180.5 259H225.5V258H180.5V259ZM180 216.5V258.5H181V216.5H180ZM175.146 211.854L180.146 216.854L180.854 216.146L175.854 211.146L175.146 211.854ZM144.5 212H175.5V211H144.5V212ZM144 208.5V211.5H145V208.5H144ZM122.5 209H144.5V208H122.5V209ZM122 197.5V208.5H123V197.5H122ZM111.5 198H122.5V197H111.5V198ZM206 172.5V239.5H207V172.5H206ZM219.5 172H206.5V173H219.5V172ZM220 180.5V172.5H219V180.5H220ZM241.5 180H219.5V181H241.5V180ZM241 158.5V180.5H242V158.5H241ZM236.5 159H241.5V158H236.5V159ZM236.5 153C236.277 153 236.125 153.123 236.045 153.222C235.97 153.314 235.928 153.415 235.904 153.488C235.854 153.638 235.827 153.82 235.81 154C235.775 154.37 235.773 154.863 235.788 155.389C235.817 156.447 235.919 157.71 236.002 158.55L236.998 158.45C236.915 157.623 236.816 156.386 236.787 155.361C236.773 154.845 236.777 154.401 236.806 154.094C236.821 153.935 236.839 153.844 236.852 153.805C236.86 153.783 236.854 153.811 236.82 153.854C236.78 153.903 236.673 154 236.5 154V153ZM269.5 153H236.5V154H269.5V153ZM269 147.5V153.5H270V147.5H269ZM272.5 147H269.5V148H272.5V147ZM273 155.5V147.5H272V155.5H273ZM299.5 155H272.5V156H299.5V155ZM300 169.5V155.5H299V169.5H300ZM264.5 170H299.5V169H264.5V170ZM264 161.5V169.5H265V161.5H264ZM250.5 162H264.5V161H250.5V162ZM251 186.5V161.5H250V186.5H251ZM254.5 186H250.5V187H254.5V186ZM255 189.5V186.5H254V189.5H255ZM244.5 190H254.5V189H244.5V190ZM245 239.5V189.5H244V239.5H245ZM206.5 240H244.5V239H206.5V240ZM172.5 157.5H189.5V156.5H172.5V157.5ZM172 155.5V157H173V155.5H172ZM189.5 155H172.5V156H189.5V155ZM189 133.5V155.5H190V133.5H189ZM178.5 134H189.5V133H178.5V134ZM178 116.5V133.5H179V116.5H178ZM191.5 116H178.5V117H191.5V116ZM191 97.5V116.5H192V97.5H191ZM181.5 98H191.5V97H181.5V98ZM175.146 91.8536L181.146 97.8536L181.854 97.1464L175.854 91.1464L175.146 91.8536ZM175 86.5V91.5H176V86.5H175ZM181.146 80.1464L175.146 86.1464L175.854 86.8536L181.854 80.8536L181.146 80.1464ZM203.5 80H181.5V81H203.5V80ZM203 63.5V80.5H204V63.5H203ZM214.5 63H203.5V64H214.5V63ZM214 55.5V63.5H215V55.5H214ZM217.5 55H214.5V56H217.5V55ZM218 105.5V55.5H217V105.5H218ZM239.5 105H217.5V106H239.5V105ZM240 127.5V105.5H239V127.5H240ZM247.5 127H239.5V128H247.5V127ZM248 130.5V127.5H247V130.5H248ZM222.5 131H247.5V130H222.5V131ZM223 153.5V130.5H222V153.5H223ZM228.5 153H222.5V154H228.5V153ZM229 158.5V153.5H228V158.5H229ZM189.5 159H228.5V158H189.5V159ZM189 157V158.5H190V157H189ZM122 55.5V63.5H123V55.5H122ZM133.5 55H122.5V56H133.5V55ZM134 63.5V55.5H133V63.5H134ZM164.5 63H133.5V64H164.5V63ZM165 91.5V63.5H164V91.5H165ZM157.5 92H164.5V91H157.5V92ZM157 88.5V91.5H158V88.5H157ZM127.5 89H157.5V88H127.5V89ZM128 94.5V88.5H127V94.5H128ZM125.5 95H127.5V94H125.5V95ZM125 82.5V94.5H126V82.5H125ZM111.5 83H125.5V82H111.5V83ZM111 66.5V82.5H112V66.5H111ZM108.5 67H111.5V66H108.5V67ZM108 63.5V66.5H109V63.5H108ZM122.5 63H108.5V64H122.5V63ZM181 280.5V269.5H180V280.5H181ZM180.5 269H150.5V270H180.5V269ZM150 269.5V272.5H151V269.5H150ZM150.5 272H111.5V273H150.5V272ZM112 272.5V197.5H111V272.5H112ZM111.5 198H122.5V197H111.5V198ZM122 197.5V208.5H123V197.5H122ZM122.5 209H143.5V208H122.5V209ZM144 208.5V197.5H143V208.5H144ZM143.5 198H144.5V197H143.5V198ZM144 197.5V211.5H145V197.5H144ZM175.146 211.854L180.146 216.854L180.854 216.146L175.854 211.146L175.146 211.854ZM180.5 259H225.5V258H180.5V259ZM225 258.5V280.5H226V258.5H225ZM225.5 280H180.5V281H225.5V280ZM240 264.5V250.5H239V264.5H240ZM239.5 251H241.5V250H239.5V251ZM241 250.5V264.5H242V250.5H241ZM53 201H63.5V200H53V201ZM63 200.5V211.5H64V200.5H63ZM63.5 211H53V212H63.5V211ZM144.5 212H164.5V211H144.5V212ZM165 211.5V205.5H164V211.5H165ZM164.5 206H169.5V205H164.5V206ZM164.5 212H169.5V211H164.5V212ZM169.5 212H175.5V211H169.5V212ZM169 205.5V211.5H170V205.5H169ZM180 216.5V238.5H181V216.5H180ZM180.5 239H195.5V238H180.5V239ZM196 238.5V200.5H195V238.5H196ZM195.5 200H181.5V201H195.5V200ZM181.5 187H195.5V186H181.5V187ZM229 158.5V153.5H228V158.5H229ZM228.5 153H222.5V154H228.5V153ZM223 153.5V130.5H222V153.5H223ZM222.5 131H247.5V130H222.5V131ZM248 130.5V127.5H247V130.5H248ZM247.5 127H239.5V128H247.5V127ZM240 127.5V105.5H239V127.5H240ZM239.5 105H217.5V106H239.5V105ZM218 105.5V55.5H217V105.5H218ZM217.5 55H214.5V56H217.5V55ZM214 55.5V63.5H215V55.5H214ZM214.5 63H197.5V64H214.5V63ZM197 63.5V64.5H198V63.5H197ZM197.5 65H203.5V64H197.5V65ZM203 64.5V80.5H204V64.5H203ZM203.5 80H181.5V81H203.5V80ZM181.146 80.1464L175.146 86.1464L175.854 86.8536L181.854 80.8536L181.146 80.1464ZM175 86.5V91.6895H176V86.5H175ZM175.152 92.0487L181.152 97.8592L181.848 97.1408L175.848 91.3304L175.152 92.0487ZM181.5 98H191.5V97H181.5V98ZM191 97.5V116.5H192V97.5H191ZM191.5 116H178.5V117H191.5V116ZM178 116.5V133.5H179V116.5H178ZM178.5 134H189.5V133H178.5V134ZM189 133.5V155.5H190V133.5H189ZM189.5 155H172.5V156H189.5V155ZM172 155.5V157H173V155.5H172ZM172.5 157.5H189.5V156.5H172.5V157.5ZM189 157V158.5H190V157H189ZM189.5 159H195.5V158H189.5V159ZM187 64.5V63.5H186V64.5H187ZM186.5 63H133.5V64H186.5V63ZM134 63.5V55.5H133V63.5H134ZM133.5 56H164.5V55H133.5V56ZM133.5 55H122.5V56H133.5V55ZM122 55.5V63.5H123V55.5H122ZM122.5 63H108.5V64H122.5V63ZM108 63.5V66.5H109V63.5H108ZM108.5 67H111.5V66H108.5V67ZM111 66.5V82.5H112V66.5H111ZM111.5 83H125.5V82H111.5V83ZM125 82.5V94.5H126V82.5H125ZM125.5 95H127.5V94H125.5V95ZM128 94.5V88.5H127V94.5H128ZM127.5 89H157.5V88H127.5V89ZM157 88.5V95.5H158V88.5H157ZM157.5 96H158.5V95H157.5V96ZM159 95.5V91.6895H158V95.5H159ZM158.5 92.1895H164.5V91.1895H158.5V92.1895ZM165 91.6895V64.5H164V91.6895H165ZM164.5 65H186.5V64H164.5V65ZM119.5 91H111.5V92H119.5V91ZM111 91.5V110.5H112V91.5H111ZM111.5 111H124.5V110H111.5V111ZM124.5 111H125.5V110H124.5V111ZM126 110.5V103.5H125V110.5H126ZM125.5 104H127.5V103H125.5V104ZM127 103.5V122.5H128V103.5H127ZM127.5 123H147.5V122H127.5V123ZM147.854 122.854L157.854 112.854L157.146 112.146L147.146 122.146L147.854 122.854ZM158 112.5V107.5H157V112.5H158ZM157.5 108H158.5V107H157.5V108ZM158 107.5V133.5H159V107.5H158ZM158.5 133H144.5V134H158.5V133ZM161 155.5V157H162V155.5H161ZM144 157V188.5H145V157H144ZM144.5 188H143.5V189H144.5V188ZM144 188.5V178.5H143V188.5H144ZM143.5 178H113.5V179H143.5V178ZM113 178.5V186.5H114V178.5H113ZM113.5 186H97.5V187H113.5V186ZM98 186.5V178.5H97V186.5H98ZM97.5 178H69.5V179H97.5V178ZM70 178.5V176.5H69V178.5H70ZM69.5 177H72.5V176H69.5V177ZM73 176.5V152.5H72V176.5H73ZM72.5 153H89.5V152H72.5V153ZM89 152.5V161.5H90V152.5H89ZM89.5 162H119.5V161H89.5V162ZM120 161.5V133.5H119V161.5H120ZM119.5 133H108.5V134H119.5V133ZM109 133.5V130.5H108V133.5H109ZM116.5 119H125.5V118H116.5V119ZM244.5 190H254.5V189H244.5V190ZM255 189.5V186.5H254V189.5H255ZM254.5 186H250.5V187H254.5V186ZM251 186.5V161.5H250V186.5H251ZM250.5 162H264.5V161H250.5V162ZM264.001 161.469C263.917 162.806 263.817 164.814 263.788 166.491C263.773 167.328 263.776 168.093 263.809 168.654C263.825 168.931 263.85 169.18 263.889 169.368C263.908 169.458 263.936 169.567 263.987 169.666C264.018 169.727 264.166 170 264.5 170V169C264.639 169 264.742 169.062 264.799 169.113C264.85 169.159 264.873 169.203 264.878 169.213C264.888 169.232 264.881 169.225 264.868 169.163C264.844 169.049 264.822 168.861 264.807 168.596C264.776 168.074 264.773 167.339 264.787 166.509C264.816 164.852 264.916 162.86 264.999 161.531L264.001 161.469ZM264.5 170H299.5V169H264.5V170ZM300 169.5V155.5H299V169.5H300ZM299.5 155H272.5V156H299.5V155ZM273 155.5V147.5H272V155.5H273ZM272.5 147H269.5V148H272.5V147ZM269 147.5V153.5H270V147.5H269ZM269.5 153H236.5V154H269.5V153ZM236 153.5V158.5H237V153.5H236ZM236.5 159H241.5V158H236.5V159ZM241 158.5V180.5H242V158.5H241ZM241.5 180H219.5V181H241.5V180ZM220 180.5V172.5H219V180.5H220ZM219.5 172H206.5V173H219.5V172ZM206 172.5V239.5H207V172.5H206ZM24.5 83H22.5V84H24.5V83ZM22 83.5V101.5H23V83.5H22ZM22.5 102H24.5V101H22.5V102ZM25 101.5V83.5H24V101.5H25ZM52 67.5V71.5H53V67.5H52ZM52.5 72H58.5V71H52.5V72ZM59 71.5V67.5H58V71.5H59ZM58.5 67H52.5V68H58.5V67ZM45 95.5V91.5H44V95.5H45ZM44.5 92H49.5V91H44.5V92ZM49 91.5V94.5H50V91.5H49ZM49.1464 94.8536L51.1464 96.8536L51.8536 96.1464L49.8536 94.1464L49.1464 94.8536ZM51 96.5V102.5H52V96.5H51ZM51.5 102H45.5V103H51.5V102ZM46 102.5V97.5H45V102.5H46ZM45.8536 97.1464L44.8536 96.1464L44.1464 96.8536L45.1464 97.8536L45.8536 97.1464ZM45 96.5V95.5H44V96.5H45ZM85 118.5V119.5H86V118.5H85ZM85.5 119H24.5V120H85.5V119ZM72.5 79H85.5V78H72.5V79ZM73 118.5V112.5H72V118.5H73ZM73 112.5V78.5H72V112.5H73ZM72.5 112H67.5V113H72.5V112ZM67.1464 112.146L66.1464 113.146L66.8536 113.854L67.8536 112.854L67.1464 112.146ZM85.5 118H72.5V119H85.5V118ZM72.5 118H66.5V119H72.5V118ZM66.5 118H24.5V119H66.5V118ZM66 113.5V118.5H67V113.5H66ZM87 107.5V92.5H86V107.5H87ZM86.9 92.2L83.9 88.2L83.1 88.8L86.1 92.8L86.9 92.2ZM83.1 88.2L80.1 92.2L80.9 92.8L83.9 88.8L83.1 88.2ZM80 92.5V107.5H81V92.5H80ZM80.5 108H86.5V107H80.5V108ZM126 118.5V111.5H125V118.5H126ZM126 111.5V110.5H125V111.5H126ZM116 112H125.5V111H116V112ZM63 133.5V138.5H64V133.5H63ZM70 138.5V133.5H69V138.5H70ZM63.5 139H66.5V138H63.5V139ZM66.5 139H69.5V138H66.5V139ZM66 138.5V141.5H67V138.5H66ZM66.5 142H69.5V141H66.5V142ZM70 141.5V138.5H69V141.5H70ZM180 244.5V258.5H181V244.5H180ZM180.5 245H186.5V244H180.5V245ZM187 244.5V239.5H186V244.5H187ZM180 238.5V239.5H181V238.5H180ZM180 239.5V244.5H181V239.5H180ZM186.5 239H180.5V240H186.5V239ZM206 239.5V244.5H207V239.5H206ZM206.5 245H211.5V244H206.5V245ZM206.5 240H211.5V239H206.5V240ZM211.5 240H244.5V239H211.5V240ZM212 244.5V239.5H211V244.5H212ZM274.5 228H268.5V229H274.5V228ZM268.5 234H274.5V233H268.5V234ZM268 231V233.5H269V231H268ZM222.5 309H211.5V310H222.5V309ZM211 309.5V317.5H212V309.5H211ZM333.5 91H327.5V92H333.5V91ZM327 91.5V97.5H328V91.5H327ZM327.5 98H333.5V97H327.5V98ZM333.5 83H327.5V84H333.5V83ZM327 83.5V88.5H328V83.5H327ZM327.5 89H333.5V88H327.5V89ZM333.5 119H327.5V120H333.5V119ZM327 119.5V125.5H328V119.5H327ZM327.5 126H333.5V125H327.5V126ZM328 144.5V155.5H329V144.5H328ZM328.5 145H333.5V144H328.5V145ZM322.5 145H328.5V144H322.5V145ZM322 144.5V155.5H323V144.5H322ZM309 105.5V110.5H310V105.5H309ZM309.5 111H314.5V110H309.5V111ZM314.5 105H309.5V106H314.5V105ZM315 110.5V107.5H314V110.5H315ZM315 107.5V105.5H314V107.5H315ZM314.5 108H319.5V107H314.5V108ZM319 107.5V112.5H320V107.5H319ZM319.5 112H314.5V113H319.5V112ZM315 112.5V110.5H314V112.5H315ZM286.5 103H292.5V102H286.5V103ZM292 102.5V119.5H293V102.5H292ZM292.5 119H286.5V120H292.5V119ZM287 119.5V102.5H286V119.5H287ZM196 186.5V164.5H195V186.5H196ZM196 164.5V158.5H195V164.5H196ZM195.5 165H201.5V164H195.5V165ZM195.5 159H201.5V158H195.5V159ZM201.5 159H228.5V158H201.5V159ZM202 164.5V158.5H201V164.5H202ZM246 92.5V97.5H247V92.5H246ZM246.5 98H254.5V97H246.5V98ZM254.5 98H258.5V97H254.5V98ZM254 97.5V100.5H255V97.5H254ZM254.5 101H258.5V100H254.5V101ZM233.5 85H228.5V86H233.5V85ZM228 85.5V91.6895H229V85.5H228ZM228.5 92.1895H233.5V91.1895H228.5V92.1895ZM108.5 131H112.5V130H108.5V131ZM112.5 131H116.5V130H112.5V131ZM112.974 130.658L113.974 127.658L113.026 127.342L112.026 130.342L112.974 130.658ZM117 130.5V126.5H116V130.5H117ZM117 126.5V118.5H116V126.5H117ZM113.658 127.974L116.658 126.974L116.342 126.026L113.342 127.026L113.658 127.974ZM144 133.5V150.5H145V133.5H144ZM144 150.5V155.5H145V150.5H144ZM144.5 151H149.5V150H144.5V151ZM149 150.5V155.5H150V150.5H149ZM149 155.5V156H150V155.5H149ZM153.5 156.5H144.5V157.5H153.5V156.5ZM153 157V162.5H154V157H153ZM153.5 163H158.5V162H153.5V163ZM161.5 156.5H158.5V157.5H161.5V156.5ZM158.5 156.5H153.5V157.5H158.5V156.5ZM159 162.5V157H158V162.5H159ZM144.5 156H149.5V155H144.5V156ZM149.5 156H151.5V155H149.5V156ZM152 155.5V153.5H151V155.5H152ZM151.5 154H157.5V153H151.5V154ZM151.5 156H157.5V155H151.5V156ZM157.5 156H161.5V155H157.5V156ZM157 153.5V155.5H158V153.5H157ZM17.9472 112.724L18.9472 110.724L18.0528 110.276L17.0528 112.276L17.9472 112.724ZM18.7236 110.947L22.7236 108.947L22.2764 108.053L18.2764 110.053L18.7236 110.947ZM262 127.5V126.5H261V127.5H262ZM261.947 126.724L262.947 124.724L262.053 124.276L261.053 126.276L261.947 126.724ZM262.5 125H264.5V124H262.5V125ZM261.5 126H260.5V127H261.5V126ZM261 126.5V123.5H260V126.5H261ZM260.5 124H261.5V123H260.5V124ZM261.5 124H262.5V123H261.5V124ZM262 123.5V124.5H263V123.5H262ZM270 136.5V130.5H269V136.5H270ZM269.5 130H256.5V131H269.5V130ZM257 130.5V127.5H256V130.5H257ZM256.5 128H261.5V127H256.5V128ZM261.5 128H264.5V127H261.5V128ZM265 127.5V124.5H264V127.5H265ZM265 124.5V108.5H264V124.5H265ZM264.9 108.2L258.9 100.2L258.1 100.8L264.1 108.8L264.9 108.2ZM258 97.5V100.5H259V97.5H258ZM259 97.5V92.5H258V97.5H259ZM258.5 92H254.5V93H258.5V92ZM255 92.5V90.5H254V92.5H255ZM254.5 91H260.5V90H254.5V91ZM261 90.5V88.5H260V90.5H261ZM260.5 89H297.5V88H260.5V89ZM297 88.5V91.5H298V88.5H297ZM297.5 91H278.5V92H297.5V91ZM278 91.5V127.5H279V91.5H278ZM278.5 127H272.5V128H278.5V127ZM272 127.5V136.5H273V127.5H272ZM272.5 136H269.5V137H272.5V136ZM248.5 92H246.5V93H248.5V92ZM246.5 92H233.5V93H246.5V92ZM234 92.5V91.6895H233V92.5H234ZM234 91.6895V85.5H233V91.6895H234ZM234 85.5V55.5H233V85.5H234ZM233.5 56H261.5V55H233.5V56ZM261 55.5V75.5H262V55.5H261ZM261.5 75H242.5V76H261.5V75ZM242 75.5V90.5H243V75.5H242ZM242.5 91H248.5V90H242.5V91ZM248 90.5V92.5H249V90.5H248ZM274.5 194H268.5V195H274.5V194ZM269 194.5V189.5H268V194.5H269ZM270 189.5V192.5H271V189.5H270ZM270.5 193H274.5V192H270.5V193ZM245 211.5V189.5H244V211.5H245ZM244.5 212H250.5V211H244.5V212ZM250 211.5V216.5H251V211.5H250ZM245 239.5V216.5H244V239.5H245ZM245 216.5V211.5H244V216.5H245ZM250.5 216H244.5V217H250.5V216ZM268 228.5V230.5H269V228.5H268ZM268 230.5V231H269V230.5H268ZM268.5 230H265.5V231H268.5V230ZM265 230.5V233.5H266V230.5H265ZM265.5 234H268.5V233H265.5V234ZM297.5 89H327.5V88H297.5V89Z" fill="#B27C40"/>
<circle cx="189" cy="35" r="2.5" stroke="#B27C40"/>
<circle cx="167" cy="193" r="2.5" stroke="#B27C40"/>
<circle cx="138.5" cy="294.5" r="4" stroke="#B27C40"/>
<circle cx="111" cy="322" r="4.5" stroke="#B27C40"/>
</svg>
