<svg width="371" height="427" viewBox="0 0 371 427" fill="none" xmlns="http://www.w3.org/2000/svg">
<path d="M13.5 194.25L12 192L13.5 189.75H0V344H371V224V223.5H360L358.333 226L360 228.5H366.5V339.5H4.5V194.25H13.5Z" fill="white" fill-opacity="0.48"/>
<path d="M201 44L204.5 62.5V90H258.5V92H260.5V90H295.5V110H285.5L295.5 120H300.5V144.5H290.5V158H300.5V179.5H285.5V180.5H327.5V203H320V218H314V219.5H326.5V213.5H344.5L351 220.5V231.5L344.5 238.5H326.5V232H325V276.5H288L278.5 281.5V323.5L244.5 358.5H242.5V359.5L232.5 371V386C232.5 386.8 230.167 391.667 229 394L221.5 403.5V405L218 409H199L197 405L196.5 403L200 399L189.5 391L185.5 384.5V368L182 364.5V363.5L179 362L171.5 353L170 349L162.5 340.5L161.5 338.5L159 337.5L153 325.5L148 298.5V294L146.5 293.5L138 292H131.5L125 293.5H121.5L120 292.5H118.5L115.5 294H113L112 293.5H100.5L98 294.5H60L33.5 268V249H40V244.5H34.5V203.5H22V196.5H21V187H22V180.5H50.5V183H52V175.5H58V174H44.5V154H22V117H47V90H114V91.5H116V90H152V62L155 48.5L166.5 18.5H189.5L201 44ZM164.5 321L170.5 326V328.5L190 348V352L197 360.5V363L200.5 365.5L202.5 366L205.5 369.5H207.5L217.5 366L218 365L226 356V353.5L240 336V333H245L248 329L248.5 326L251.5 322V318.5L249 315H248L245.5 310.5L227 321H215L206.5 323H201L167.5 308L164.5 321ZM198 231V240H190.5L185 245.5V264.5H158V278.5H164.5V273.5H178V300H188L191 303.5L199 307.5H203L204 309V310L212 311.5H214.5L221.5 307H223V306H226L233 301H253.5V276.5H238.5V240H199.5V231H198ZM84.5 247.5V266H89.5V278.5H116.11V277.5H141V278.5H148V264.5H115V249H122.5V247.5H84.5ZM259 173V189H238.5L229 193.5V226.5H245.5V221.5H261.5V252.5H251V255.5H287V239H301.5L302 219.5H306.5V218H302V193.5H269.5V180.5H275.5V179.5H272.5V173H259ZM172.5 82L153.5 105H116V103H114V105H108.5V121.5H114V139.721H104V190H120.5V186.5L127.5 183H134L141 186.5V190H141.5V183H160L168 191V200L159.5 208.5H141.5V202H140.5V247.5H132V249H134V253.5H172.5V221.5H198V224H199.5V221.5H213.5V213H203.5V192.5H213.5V187.5H212V177H213.5V171.5H199V156.5H200V154H199V139H218V146H225V139H236V137H228V132.5H209.5V107H214V105H205L186.5 82H172.5ZM80 163.5L72.5 174H69.5V175.5H77V195.5L71.5 200.5H57.5L52 195.5V193H50.5V236.5H103.5V224.5H115.5V202H120.5V201H104V215.5H84V194.5H88.75V185.5H84V163.5H80ZM231.5 145V154.5H207.5V156H236V145H231.5ZM57.5 105V131.5H38V141.5H60V107H99V105H57.5ZM258.5 103V105H222V124H228V121.5L230 120H269.5L279.5 110H260V103H258.5Z" fill="#271406"/>
<path d="M201 44L201.491 43.9071L201.48 43.8486L201.456 43.7944L201 44ZM204.5 62.5H205V62.4531L204.991 62.4071L204.5 62.5ZM204.5 90H204V90.5H204.5V90ZM258.5 90H259V89.5H258.5V90ZM258.5 92H258V92.5H258.5V92ZM260.5 92V92.5H261V92H260.5ZM260.5 90V89.5H260V90H260.5ZM295.5 90H296V89.5H295.5V90ZM295.5 110V110.5H296V110H295.5ZM285.5 110V109.5H284.293L285.146 110.354L285.5 110ZM295.5 120L295.146 120.354L295.293 120.5H295.5V120ZM300.5 120H301V119.5H300.5V120ZM300.5 144.5V145H301V144.5H300.5ZM290.5 144.5V144H290V144.5H290.5ZM290.5 158H290V158.5H290.5V158ZM300.5 158H301V157.5H300.5V158ZM300.5 179.5V180H301V179.5H300.5ZM285.5 179.5V179H285V179.5H285.5ZM285.5 180.5H285V181H285.5V180.5ZM327.5 180.5H328V180H327.5V180.5ZM327.5 203V203.5H328V203H327.5ZM320 203V202.5H319.5V203H320ZM320 218V218.5H320.5V218H320ZM314 218V217.5H313.5V218H314ZM314 219.5H313.5V220H314V219.5ZM326.5 219.5V220H327V219.5H326.5ZM326.5 213.5V213H326V213.5H326.5ZM344.5 213.5L344.866 213.16L344.718 213H344.5V213.5ZM351 220.5H351.5V220.304L351.366 220.16L351 220.5ZM351 231.5L351.366 231.84L351.5 231.696V231.5H351ZM344.5 238.5V239H344.718L344.866 238.84L344.5 238.5ZM326.5 238.5H326V239H326.5V238.5ZM326.5 232H327V231.5H326.5V232ZM325 232V231.5H324.5V232H325ZM325 276.5V277H325.5V276.5H325ZM288 276.5V276H287.876L287.767 276.058L288 276.5ZM278.5 281.5L278.267 281.058L278 281.198V281.5H278.5ZM278.5 323.5L278.859 323.848L279 323.703V323.5H278.5ZM244.5 358.5V359H244.711L244.859 358.848L244.5 358.5ZM242.5 358.5V358H242V358.5H242.5ZM242.5 359.5L242.877 359.828L243 359.687V359.5H242.5ZM232.5 371L232.123 370.672L232 370.813V371H232.5ZM229 394L229.392 394.31L229.424 394.27L229.447 394.224L229 394ZM221.5 403.5L221.108 403.19L221 403.326V403.5H221.5ZM221.5 405L221.876 405.329L222 405.188V405H221.5ZM218 409V409.5H218.227L218.376 409.329L218 409ZM199 409L198.553 409.224L198.691 409.5H199V409ZM197 405L196.515 405.121L196.528 405.175L196.553 405.224L197 405ZM196.5 403L196.124 402.671L195.952 402.868L196.015 403.121L196.5 403ZM200 399L200.376 399.329L200.729 398.927L200.303 398.602L200 399ZM189.5 391L189.074 391.262L189.123 391.341L189.197 391.398L189.5 391ZM185.5 384.5H185V384.642L185.074 384.762L185.5 384.5ZM185.5 368H186V367.793L185.854 367.646L185.5 368ZM182 364.5H181.5V364.707L181.646 364.854L182 364.5ZM182 363.5H182.5V363.191L182.224 363.053L182 363.5ZM179 362L178.616 362.32L178.683 362.4L178.776 362.447L179 362ZM171.5 353L171.032 353.176L171.062 353.255L171.116 353.32L171.5 353ZM170 349L170.468 348.824L170.436 348.738L170.375 348.669L170 349ZM162.5 340.5L162.053 340.724L162.082 340.782L162.125 340.831L162.5 340.5ZM161.5 338.5L161.947 338.276L161.862 338.106L161.686 338.036L161.5 338.5ZM159 337.5L158.553 337.724L158.638 337.894L158.814 337.964L159 337.5ZM153 325.5L152.508 325.591L152.521 325.66L152.553 325.724L153 325.5ZM148 298.5H147.5V298.546L147.508 298.591L148 298.5ZM148 294H148.5V293.64L148.158 293.526L148 294ZM146.5 293.5L146.658 293.026L146.623 293.014L146.587 293.008L146.5 293.5ZM138 292L138.087 291.508L138.044 291.5H138V292ZM131.5 292V291.5H131.443L131.388 291.513L131.5 292ZM125 293.5V294H125.057L125.112 293.987L125 293.5ZM121.5 293.5L121.223 293.916L121.349 294H121.5V293.5ZM120 292.5L120.277 292.084L120.151 292H120V292.5ZM118.5 292.5V292H118.382L118.276 292.053L118.5 292.5ZM115.5 294V294.5H115.618L115.724 294.447L115.5 294ZM113 294L112.776 294.447L112.882 294.5H113V294ZM112 293.5L112.224 293.053L112.118 293H112V293.5ZM100.5 293.5V293H100.404L100.314 293.036L100.5 293.5ZM98 294.5V295H98.0963L98.1857 294.964L98 294.5ZM60 294.5L59.6464 294.854L59.7929 295H60V294.5ZM33.5 268H33V268.207L33.1464 268.354L33.5 268ZM33.5 249V248.5H33V249H33.5ZM40 249V249.5H40.5V249H40ZM40 244.5H40.5V244H40V244.5ZM34.5 244.5H34V245H34.5V244.5ZM34.5 203.5H35V203H34.5V203.5ZM22 203.5H21.5V204H22V203.5ZM22 196.5H22.5V196H22V196.5ZM21 196.5H20.5V197H21V196.5ZM21 187V186.5H20.5V187H21ZM22 187V187.5H22.5V187H22ZM22 180.5V180H21.5V180.5H22ZM50.5 180.5H51V180H50.5V180.5ZM50.5 183H50V183.5H50.5V183ZM52 183V183.5H52.5V183H52ZM52 175.5V175H51.5V175.5H52ZM58 175.5V176H58.5V175.5H58ZM58 174H58.5V173.5H58V174ZM44.5 174H44V174.5H44.5V174ZM44.5 154H45V153.5H44.5V154ZM22 154H21.5V154.5H22V154ZM22 117V116.5H21.5V117H22ZM47 117V117.5H47.5V117H47ZM47 90V89.5H46.5V90H47ZM114 90H114.5V89.5H114V90ZM114 91.5H113.5V92H114V91.5ZM116 91.5V92H116.5V91.5H116ZM116 90V89.5H115.5V90H116ZM152 90V90.5H152.5V90H152ZM152 62L151.512 61.8915L151.5 61.9451V62H152ZM155 48.5L154.533 48.321L154.52 48.3555L154.512 48.3915L155 48.5ZM166.5 18.5V18H166.156L166.033 18.321L166.5 18.5ZM189.5 18.5L189.956 18.2944L189.823 18H189.5V18.5ZM164.5 321L164.013 320.888L163.944 321.187L164.18 321.384L164.5 321ZM170.5 326H171V325.766L170.82 325.616L170.5 326ZM170.5 328.5H170V328.707L170.146 328.854L170.5 328.5ZM190 348H190.5V347.793L190.354 347.646L190 348ZM190 352H189.5V352.179L189.614 352.318L190 352ZM197 360.5H197.5V360.321L197.386 360.182L197 360.5ZM197 363H196.5V363.257L196.709 363.407L197 363ZM200.5 365.5L200.209 365.907L200.287 365.962L200.379 365.985L200.5 365.5ZM202.5 366L202.88 365.675L202.776 365.554L202.621 365.515L202.5 366ZM205.5 369.5L205.12 369.825L205.27 370H205.5V369.5ZM207.5 369.5V370H207.585L207.665 369.972L207.5 369.5ZM217.5 366L217.665 366.472L217.857 366.405L217.947 366.224L217.5 366ZM218 365L217.626 364.668L217.582 364.717L217.553 364.776L218 365ZM226 356L226.374 356.332L226.5 356.19V356H226ZM226 353.5L225.61 353.188L225.5 353.325V353.5H226ZM240 336L240.39 336.312L240.5 336.175V336H240ZM240 333V332.5H239.5V333H240ZM245 333V333.5H245.25L245.4 333.3L245 333ZM248 329L248.4 329.3L248.473 329.202L248.493 329.082L248 329ZM248.5 326L248.1 325.7L248.027 325.798L248.007 325.918L248.5 326ZM251.5 322L251.9 322.3L252 322.167V322H251.5ZM251.5 318.5H252V318.34L251.907 318.209L251.5 318.5ZM249 315L249.407 314.709L249.257 314.5H249V315ZM248 315L247.563 315.243L247.706 315.5H248V315ZM245.5 310.5L245.937 310.257L245.692 309.816L245.253 310.065L245.5 310.5ZM227 321V321.5H227.132L227.247 321.435L227 321ZM215 321V320.5H214.942L214.885 320.513L215 321ZM206.5 323V323.5H206.558L206.615 323.487L206.5 323ZM201 323L200.796 323.456L200.893 323.5H201V323ZM167.5 308L167.704 307.544L167.15 307.295L167.013 307.888L167.5 308ZM198 231V230.5H197.5V231H198ZM198 240V240.5H198.5V240H198ZM190.5 240V239.5H190.293L190.146 239.646L190.5 240ZM185 245.5L184.646 245.146L184.5 245.293V245.5H185ZM185 264.5V265H185.5V264.5H185ZM158 264.5V264H157.5V264.5H158ZM158 278.5H157.5V279H158V278.5ZM164.5 278.5V279H165V278.5H164.5ZM164.5 273.5V273H164V273.5H164.5ZM178 273.5H178.5V273H178V273.5ZM178 300H177.5V300.5H178V300ZM188 300L188.38 299.675L188.23 299.5H188V300ZM191 303.5L190.62 303.825L190.686 303.902L190.776 303.947L191 303.5ZM199 307.5L198.776 307.947L198.882 308H199V307.5ZM203 307.5L203.416 307.223L203.268 307H203V307.5ZM204 309H204.5V308.849L204.416 308.723L204 309ZM204 310H203.5V310.415L203.908 310.491L204 310ZM212 311.5L211.908 311.991L211.954 312H212V311.5ZM214.5 311.5V312H214.647L214.77 311.921L214.5 311.5ZM221.5 307V306.5H221.353L221.23 306.579L221.5 307ZM223 307V307.5H223.5V307H223ZM223 306V305.5H222.5V306H223ZM226 306V306.5H226.16L226.291 306.407L226 306ZM233 301V300.5H232.84L232.709 300.593L233 301ZM253.5 301V301.5H254V301H253.5ZM253.5 276.5H254V276H253.5V276.5ZM238.5 276.5H238V277H238.5V276.5ZM238.5 240H239V239.5H238.5V240ZM199.5 240H199V240.5H199.5V240ZM199.5 231H200V230.5H199.5V231ZM84.5 247.5V247H84V247.5H84.5ZM84.5 266H84V266.5H84.5V266ZM89.5 266H90V265.5H89.5V266ZM89.5 278.5H89V279H89.5V278.5ZM116.11 278.5V279H116.61V278.5H116.11ZM116.11 277.5V277H115.61V277.5H116.11ZM141 277.5H141.5V277H141V277.5ZM141 278.5H140.5V279H141V278.5ZM148 278.5V279H148.5V278.5H148ZM148 264.5H148.5V264H148V264.5ZM115 264.5H114.5V265H115V264.5ZM115 249V248.5H114.5V249H115ZM122.5 249V249.5H123V249H122.5ZM122.5 247.5H123V247H122.5V247.5ZM259 173V172.5H258.5V173H259ZM259 189V189.5H259.5V189H259ZM238.5 189V188.5H238.388L238.286 188.548L238.5 189ZM229 193.5L228.786 193.048L228.5 193.184V193.5H229ZM229 226.5H228.5V227H229V226.5ZM245.5 226.5V227H246V226.5H245.5ZM245.5 221.5V221H245V221.5H245.5ZM261.5 221.5H262V221H261.5V221.5ZM261.5 252.5V253H262V252.5H261.5ZM251 252.5V252H250.5V252.5H251ZM251 255.5H250.5V256H251V255.5ZM287 255.5V256H287.5V255.5H287ZM287 239V238.5H286.5V239H287ZM301.5 239V239.5H301.987L302 239.013L301.5 239ZM302 219.5V219H301.513L301.5 219.487L302 219.5ZM306.5 219.5V220H307V219.5H306.5ZM306.5 218H307V217.5H306.5V218ZM302 218H301.5V218.5H302V218ZM302 193.5H302.5V193H302V193.5ZM269.5 193.5H269V194H269.5V193.5ZM269.5 180.5V180H269V180.5H269.5ZM275.5 180.5V181H276V180.5H275.5ZM275.5 179.5H276V179H275.5V179.5ZM272.5 179.5H272V180H272.5V179.5ZM272.5 173H273V172.5H272.5V173ZM172.5 82V81.5H172.264L172.115 81.6816L172.5 82ZM153.5 105V105.5H153.736L153.885 105.318L153.5 105ZM116 105H115.5V105.5H116V105ZM116 103H116.5V102.5H116V103ZM114 103V102.5H113.5V103H114ZM114 105V105.5H114.5V105H114ZM108.5 105V104.5H108V105H108.5ZM108.5 121.5H108V122H108.5V121.5ZM114 121.5H114.5V121H114V121.5ZM114 139.721V140.221H114.5V139.721H114ZM104 139.721V139.221H103.5V139.721H104ZM104 190H103.5V190.5H104V190ZM120.5 190V190.5H121V190H120.5ZM120.5 186.5L120.276 186.053L120 186.191V186.5H120.5ZM127.5 183V182.5H127.382L127.276 182.553L127.5 183ZM134 183L134.224 182.553L134.118 182.5H134V183ZM141 186.5H141.5V186.191L141.224 186.053L141 186.5ZM141 190H140.5V190.5H141V190ZM141.5 190V190.5H142V190H141.5ZM141.5 183V182.5H141V183H141.5ZM160 183L160.354 182.646L160.207 182.5H160V183ZM168 191H168.5V190.793L168.354 190.646L168 191ZM168 200L168.354 200.354L168.5 200.207V200H168ZM159.5 208.5V209H159.707L159.854 208.854L159.5 208.5ZM141.5 208.5H141V209H141.5V208.5ZM141.5 202H142V201.5H141.5V202ZM140.5 202V201.5H140V202H140.5ZM140.5 247.5V248H141V247.5H140.5ZM132 247.5V247H131.5V247.5H132ZM132 249H131.5V249.5H132V249ZM134 249H134.5V248.5H134V249ZM134 253.5H133.5V254H134V253.5ZM172.5 253.5V254H173V253.5H172.5ZM172.5 221.5V221H172V221.5H172.5ZM198 221.5H198.5V221H198V221.5ZM198 224H197.5V224.5H198V224ZM199.5 224V224.5H200V224H199.5ZM199.5 221.5V221H199V221.5H199.5ZM213.5 221.5V222H214V221.5H213.5ZM213.5 213H214V212.5H213.5V213ZM203.5 213H203V213.5H203.5V213ZM203.5 192.5V192H203V192.5H203.5ZM213.5 192.5V193H214V192.5H213.5ZM213.5 187.5H214V187H213.5V187.5ZM212 187.5H211.5V188H212V187.5ZM212 177V176.5H211.5V177H212ZM213.5 177V177.5H214V177H213.5ZM213.5 171.5H214V171H213.5V171.5ZM199 171.5H198.5V172H199V171.5ZM199 156.5V156H198.5V156.5H199ZM200 156.5V157H200.5V156.5H200ZM200 154H200.5V153.5H200V154ZM199 154H198.5V154.5H199V154ZM199 139V138.5H198.5V139H199ZM218 139H218.5V138.5H218V139ZM218 146H217.5V146.5H218V146ZM225 146V146.5H225.5V146H225ZM225 139V138.5H224.5V139H225ZM236 139V139.5H236.5V139H236ZM236 137H236.5V136.5H236V137ZM228 137H227.5V137.5H228V137ZM228 132.5H228.5V132H228V132.5ZM209.5 132.5H209V133H209.5V132.5ZM209.5 107V106.5H209V107H209.5ZM214 107V107.5H214.5V107H214ZM214 105H214.5V104.5H214V105ZM205 105L204.61 105.313L204.76 105.5H205V105ZM186.5 82L186.89 81.6866L186.74 81.5H186.5V82ZM80 163.5V163H79.7427L79.5931 163.209L80 163.5ZM72.5 174V174.5H72.7573L72.9069 174.291L72.5 174ZM69.5 174V173.5H69V174H69.5ZM69.5 175.5H69V176H69.5V175.5ZM77 175.5H77.5V175H77V175.5ZM77 195.5L77.3363 195.87L77.5 195.721V195.5H77ZM71.5 200.5V201H71.6933L71.8363 200.87L71.5 200.5ZM57.5 200.5L57.1637 200.87L57.3067 201H57.5V200.5ZM52 195.5H51.5V195.721L51.6637 195.87L52 195.5ZM52 193H52.5V192.5H52V193ZM50.5 193V192.5H50V193H50.5ZM50.5 236.5H50V237H50.5V236.5ZM103.5 236.5V237H104V236.5H103.5ZM103.5 224.5V224H103V224.5H103.5ZM115.5 224.5V225H116V224.5H115.5ZM115.5 202V201.5H115V202H115.5ZM120.5 202V202.5H121V202H120.5ZM120.5 201H121V200.5H120.5V201ZM104 201V200.5H103.5V201H104ZM104 215.5V216H104.5V215.5H104ZM84 215.5H83.5V216H84V215.5ZM84 194.5V194H83.5V194.5H84ZM88.75 194.5V195H89.25V194.5H88.75ZM88.75 185.5H89.25V185H88.75V185.5ZM84 185.5H83.5V186H84V185.5ZM84 163.5H84.5V163H84V163.5ZM231.5 145V144.5H231V145H231.5ZM231.5 154.5V155H232V154.5H231.5ZM207.5 154.5V154H207V154.5H207.5ZM207.5 156H207V156.5H207.5V156ZM236 156V156.5H236.5V156H236ZM236 145H236.5V144.5H236V145ZM57.5 105V104.5H57V105H57.5ZM57.5 131.5V132H58V131.5H57.5ZM38 131.5V131H37.5V131.5H38ZM38 141.5H37.5V142H38V141.5ZM60 141.5V142H60.5V141.5H60ZM60 107V106.5H59.5V107H60ZM99 107V107.5H99.5V107H99ZM99 105H99.5V104.5H99V105ZM258.5 103V102.5H258V103H258.5ZM258.5 105V105.5H259V105H258.5ZM222 105V104.5H221.5V105H222ZM222 124H221.5V124.5H222V124ZM228 124V124.5H228.5V124H228ZM228 121.5L227.7 121.1L227.5 121.25V121.5H228ZM230 120V119.5H229.833L229.7 119.6L230 120ZM269.5 120V120.5H269.707L269.854 120.354L269.5 120ZM279.5 110L279.854 110.354L280.707 109.5H279.5V110ZM260 110H259.5V110.5H260V110ZM260 103H260.5V102.5H260V103ZM201 44L200.509 44.0929L204.009 62.5929L204.5 62.5L204.991 62.4071L201.491 43.9071L201 44ZM204.5 62.5H204V90H204.5H205V62.5H204.5ZM204.5 90V90.5H258.5V90V89.5H204.5V90ZM258.5 90H258V92H258.5H259V90H258.5ZM258.5 92V92.5H260.5V92V91.5H258.5V92ZM260.5 92H261V90H260.5H260V92H260.5ZM260.5 90V90.5H295.5V90V89.5H260.5V90ZM295.5 90H295V110H295.5H296V90H295.5ZM295.5 110V109.5H285.5V110V110.5H295.5V110ZM285.5 110L285.146 110.354L295.146 120.354L295.5 120L295.854 119.646L285.854 109.646L285.5 110ZM295.5 120V120.5H300.5V120V119.5H295.5V120ZM300.5 120H300V144.5H300.5H301V120H300.5ZM300.5 144.5V144H290.5V144.5V145H300.5V144.5ZM290.5 144.5H290V158H290.5H291V144.5H290.5ZM290.5 158V158.5H300.5V158V157.5H290.5V158ZM300.5 158H300V179.5H300.5H301V158H300.5ZM300.5 179.5V179H285.5V179.5V180H300.5V179.5ZM285.5 179.5H285V180.5H285.5H286V179.5H285.5ZM285.5 180.5V181H327.5V180.5V180H285.5V180.5ZM327.5 180.5H327V203H327.5H328V180.5H327.5ZM327.5 203V202.5H320V203V203.5H327.5V203ZM320 203H319.5V218H320H320.5V203H320ZM320 218V217.5H314V218V218.5H320V218ZM314 218H313.5V219.5H314H314.5V218H314ZM314 219.5V220H326.5V219.5V219H314V219.5ZM326.5 219.5H327V213.5H326.5H326V219.5H326.5ZM326.5 213.5V214H344.5V213.5V213H326.5V213.5ZM344.5 213.5L344.134 213.84L350.634 220.84L351 220.5L351.366 220.16L344.866 213.16L344.5 213.5ZM351 220.5H350.5V231.5H351H351.5V220.5H351ZM351 231.5L350.634 231.16L344.134 238.16L344.5 238.5L344.866 238.84L351.366 231.84L351 231.5ZM344.5 238.5V238H326.5V238.5V239H344.5V238.5ZM326.5 238.5H327V232H326.5H326V238.5H326.5ZM326.5 232V231.5H325V232V232.5H326.5V232ZM325 232H324.5V276.5H325H325.5V232H325ZM325 276.5V276H288V276.5V277H325V276.5ZM288 276.5L287.767 276.058L278.267 281.058L278.5 281.5L278.733 281.942L288.233 276.942L288 276.5ZM278.5 281.5H278V323.5H278.5H279V281.5H278.5ZM278.5 323.5L278.141 323.152L244.141 358.152L244.5 358.5L244.859 358.848L278.859 323.848L278.5 323.5ZM244.5 358.5V358H242.5V358.5V359H244.5V358.5ZM242.5 358.5H242V359.5H242.5H243V358.5H242.5ZM242.5 359.5L242.123 359.172L232.123 370.672L232.5 371L232.877 371.328L242.877 359.828L242.5 359.5ZM232.5 371H232V386H232.5H233V371H232.5ZM232.5 386H232C232 385.998 231.999 386.024 231.985 386.09C231.971 386.152 231.95 386.232 231.92 386.33C231.859 386.528 231.768 386.78 231.652 387.077C231.419 387.67 231.095 388.417 230.732 389.219C230.006 390.819 229.134 392.613 228.553 393.776L229 394L229.447 394.224C230.032 393.053 230.91 391.247 231.643 389.631C232.009 388.824 232.341 388.059 232.583 387.442C232.703 387.134 232.804 386.856 232.875 386.625C232.941 386.413 233 386.184 233 386H232.5ZM229 394L228.608 393.69L221.108 403.19L221.5 403.5L221.892 403.81L229.392 394.31L229 394ZM221.5 403.5H221V405H221.5H222V403.5H221.5ZM221.5 405L221.124 404.671L217.624 408.671L218 409L218.376 409.329L221.876 405.329L221.5 405ZM218 409V408.5H199V409V409.5H218V409ZM199 409L199.447 408.776L197.447 404.776L197 405L196.553 405.224L198.553 409.224L199 409ZM197 405L197.485 404.879L196.985 402.879L196.5 403L196.015 403.121L196.515 405.121L197 405ZM196.5 403L196.876 403.329L200.376 399.329L200 399L199.624 398.671L196.124 402.671L196.5 403ZM200 399L200.303 398.602L189.803 390.602L189.5 391L189.197 391.398L199.697 399.398L200 399ZM189.5 391L189.926 390.738L185.926 384.238L185.5 384.5L185.074 384.762L189.074 391.262L189.5 391ZM185.5 384.5H186V368H185.5H185V384.5H185.5ZM185.5 368L185.854 367.646L182.354 364.146L182 364.5L181.646 364.854L185.146 368.354L185.5 368ZM182 364.5H182.5V363.5H182H181.5V364.5H182ZM182 363.5L182.224 363.053L179.224 361.553L179 362L178.776 362.447L181.776 363.947L182 363.5ZM179 362L179.384 361.68L171.884 352.68L171.5 353L171.116 353.32L178.616 362.32L179 362ZM171.5 353L171.968 352.824L170.468 348.824L170 349L169.532 349.176L171.032 353.176L171.5 353ZM170 349L170.375 348.669L162.875 340.169L162.5 340.5L162.125 340.831L169.625 349.331L170 349ZM162.5 340.5L162.947 340.276L161.947 338.276L161.5 338.5L161.053 338.724L162.053 340.724L162.5 340.5ZM161.5 338.5L161.686 338.036L159.186 337.036L159 337.5L158.814 337.964L161.314 338.964L161.5 338.5ZM159 337.5L159.447 337.276L153.447 325.276L153 325.5L152.553 325.724L158.553 337.724L159 337.5ZM153 325.5L153.492 325.409L148.492 298.409L148 298.5L147.508 298.591L152.508 325.591L153 325.5ZM148 298.5H148.5V294H148H147.5V298.5H148ZM148 294L148.158 293.526L146.658 293.026L146.5 293.5L146.342 293.974L147.842 294.474L148 294ZM146.5 293.5L146.587 293.008L138.087 291.508L138 292L137.913 292.492L146.413 293.992L146.5 293.5ZM138 292V291.5H131.5V292V292.5H138V292ZM131.5 292L131.388 291.513L124.888 293.013L125 293.5L125.112 293.987L131.612 292.487L131.5 292ZM125 293.5V293H121.5V293.5V294H125V293.5ZM121.5 293.5L121.777 293.084L120.277 292.084L120 292.5L119.723 292.916L121.223 293.916L121.5 293.5ZM120 292.5V292H118.5V292.5V293H120V292.5ZM118.5 292.5L118.276 292.053L115.276 293.553L115.5 294L115.724 294.447L118.724 292.947L118.5 292.5ZM115.5 294V293.5H113V294V294.5H115.5V294ZM113 294L113.224 293.553L112.224 293.053L112 293.5L111.776 293.947L112.776 294.447L113 294ZM112 293.5V293H100.5V293.5V294H112V293.5ZM100.5 293.5L100.314 293.036L97.8143 294.036L98 294.5L98.1857 294.964L100.686 293.964L100.5 293.5ZM98 294.5V294H60V294.5V295H98V294.5ZM60 294.5L60.3536 294.146L33.8536 267.646L33.5 268L33.1464 268.354L59.6464 294.854L60 294.5ZM33.5 268H34V249H33.5H33V268H33.5ZM33.5 249V249.5H40V249V248.5H33.5V249ZM40 249H40.5V244.5H40H39.5V249H40ZM40 244.5V244H34.5V244.5V245H40V244.5ZM34.5 244.5H35V203.5H34.5H34V244.5H34.5ZM34.5 203.5V203H22V203.5V204H34.5V203.5ZM22 203.5H22.5V196.5H22H21.5V203.5H22ZM22 196.5V196H21V196.5V197H22V196.5ZM21 196.5H21.5V187H21H20.5V196.5H21ZM21 187V187.5H22V187V186.5H21V187ZM22 187H22.5V180.5H22H21.5V187H22ZM22 180.5V181H50.5V180.5V180H22V180.5ZM50.5 180.5H50V183H50.5H51V180.5H50.5ZM50.5 183V183.5H52V183V182.5H50.5V183ZM52 183H52.5V175.5H52H51.5V183H52ZM52 175.5V176H58V175.5V175H52V175.5ZM58 175.5H58.5V174H58H57.5V175.5H58ZM58 174V173.5H44.5V174V174.5H58V174ZM44.5 174H45V154H44.5H44V174H44.5ZM44.5 154V153.5H22V154V154.5H44.5V154ZM22 154H22.5V117H22H21.5V154H22ZM22 117V117.5H47V117V116.5H22V117ZM47 117H47.5V90H47H46.5V117H47ZM47 90V90.5H114V90V89.5H47V90ZM114 90H113.5V91.5H114H114.5V90H114ZM114 91.5V92H116V91.5V91H114V91.5ZM116 91.5H116.5V90H116H115.5V91.5H116ZM116 90V90.5H152V90V89.5H116V90ZM152 90H152.5V62H152H151.5V90H152ZM152 62L152.488 62.1085L155.488 48.6085L155 48.5L154.512 48.3915L151.512 61.8915L152 62ZM155 48.5L155.467 48.679L166.967 18.679L166.5 18.5L166.033 18.321L154.533 48.321L155 48.5ZM166.5 18.5V19H189.5V18.5V18H166.5V18.5ZM189.5 18.5L189.044 18.7056L200.544 44.2056L201 44L201.456 43.7944L189.956 18.2944L189.5 18.5ZM164.5 321L164.18 321.384L170.18 326.384L170.5 326L170.82 325.616L164.82 320.616L164.5 321ZM170.5 326H170V328.5H170.5H171V326H170.5ZM170.5 328.5L170.146 328.854L189.646 348.354L190 348L190.354 347.646L170.854 328.146L170.5 328.5ZM190 348H189.5V352H190H190.5V348H190ZM190 352L189.614 352.318L196.614 360.818L197 360.5L197.386 360.182L190.386 351.682L190 352ZM197 360.5H196.5V363H197H197.5V360.5H197ZM197 363L196.709 363.407L200.209 365.907L200.5 365.5L200.791 365.093L197.291 362.593L197 363ZM200.5 365.5L200.379 365.985L202.379 366.485L202.5 366L202.621 365.515L200.621 365.015L200.5 365.5ZM202.5 366L202.12 366.325L205.12 369.825L205.5 369.5L205.88 369.175L202.88 365.675L202.5 366ZM205.5 369.5V370H207.5V369.5V369H205.5V369.5ZM207.5 369.5L207.665 369.972L217.665 366.472L217.5 366L217.335 365.528L207.335 369.028L207.5 369.5ZM217.5 366L217.947 366.224L218.447 365.224L218 365L217.553 364.776L217.053 365.776L217.5 366ZM218 365L218.374 365.332L226.374 356.332L226 356L225.626 355.668L217.626 364.668L218 365ZM226 356H226.5V353.5H226H225.5V356H226ZM226 353.5L226.39 353.812L240.39 336.312L240 336L239.61 335.688L225.61 353.188L226 353.5ZM240 336H240.5V333H240H239.5V336H240ZM240 333V333.5H245V333V332.5H240V333ZM245 333L245.4 333.3L248.4 329.3L248 329L247.6 328.7L244.6 332.7L245 333ZM248 329L248.493 329.082L248.993 326.082L248.5 326L248.007 325.918L247.507 328.918L248 329ZM248.5 326L248.9 326.3L251.9 322.3L251.5 322L251.1 321.7L248.1 325.7L248.5 326ZM251.5 322H252V318.5H251.5H251V322H251.5ZM251.5 318.5L251.907 318.209L249.407 314.709L249 315L248.593 315.291L251.093 318.791L251.5 318.5ZM249 315V314.5H248V315V315.5H249V315ZM248 315L248.437 314.757L245.937 310.257L245.5 310.5L245.063 310.743L247.563 315.243L248 315ZM245.5 310.5L245.253 310.065L226.753 320.565L227 321L227.247 321.435L245.747 310.935L245.5 310.5ZM227 321V320.5H215V321V321.5H227V321ZM215 321L214.885 320.513L206.385 322.513L206.5 323L206.615 323.487L215.115 321.487L215 321ZM206.5 323V322.5H201V323V323.5H206.5V323ZM201 323L201.204 322.544L167.704 307.544L167.5 308L167.296 308.456L200.796 323.456L201 323ZM167.5 308L167.013 307.888L164.013 320.888L164.5 321L164.987 321.112L167.987 308.112L167.5 308ZM198 231H197.5V240H198H198.5V231H198ZM198 240V239.5H190.5V240V240.5H198V240ZM190.5 240L190.146 239.646L184.646 245.146L185 245.5L185.354 245.854L190.854 240.354L190.5 240ZM185 245.5H184.5V264.5H185H185.5V245.5H185ZM185 264.5V264H158V264.5V265H185V264.5ZM158 264.5H157.5V278.5H158H158.5V264.5H158ZM158 278.5V279H164.5V278.5V278H158V278.5ZM164.5 278.5H165V273.5H164.5H164V278.5H164.5ZM164.5 273.5V274H178V273.5V273H164.5V273.5ZM178 273.5H177.5V300H178H178.5V273.5H178ZM178 300V300.5H188V300V299.5H178V300ZM188 300L187.62 300.325L190.62 303.825L191 303.5L191.38 303.175L188.38 299.675L188 300ZM191 303.5L190.776 303.947L198.776 307.947L199 307.5L199.224 307.053L191.224 303.053L191 303.5ZM199 307.5V308H203V307.5V307H199V307.5ZM203 307.5L202.584 307.777L203.584 309.277L204 309L204.416 308.723L203.416 307.223L203 307.5ZM204 309H203.5V310H204H204.5V309H204ZM204 310L203.908 310.491L211.908 311.991L212 311.5L212.092 311.009L204.092 309.509L204 310ZM212 311.5V312H214.5V311.5V311H212V311.5ZM214.5 311.5L214.77 311.921L221.77 307.421L221.5 307L221.23 306.579L214.23 311.079L214.5 311.5ZM221.5 307V307.5H223V307V306.5H221.5V307ZM223 307H223.5V306H223H222.5V307H223ZM223 306V306.5H226V306V305.5H223V306ZM226 306L226.291 306.407L233.291 301.407L233 301L232.709 300.593L225.709 305.593L226 306ZM233 301V301.5H253.5V301V300.5H233V301ZM253.5 301H254V276.5H253.5H253V301H253.5ZM253.5 276.5V276H238.5V276.5V277H253.5V276.5ZM238.5 276.5H239V240H238.5H238V276.5H238.5ZM238.5 240V239.5H199.5V240V240.5H238.5V240ZM199.5 240H200V231H199.5H199V240H199.5ZM199.5 231V230.5H198V231V231.5H199.5V231ZM84.5 247.5H84V266H84.5H85V247.5H84.5ZM84.5 266V266.5H89.5V266V265.5H84.5V266ZM89.5 266H89V278.5H89.5H90V266H89.5ZM89.5 278.5V279H116.11V278.5V278H89.5V278.5ZM116.11 278.5H116.61V277.5H116.11H115.61V278.5H116.11ZM116.11 277.5V278H141V277.5V277H116.11V277.5ZM141 277.5H140.5V278.5H141H141.5V277.5H141ZM141 278.5V279H148V278.5V278H141V278.5ZM148 278.5H148.5V264.5H148H147.5V278.5H148ZM148 264.5V264H115V264.5V265H148V264.5ZM115 264.5H115.5V249H115H114.5V264.5H115ZM115 249V249.5H122.5V249V248.5H115V249ZM122.5 249H123V247.5H122.5H122V249H122.5ZM122.5 247.5V247H84.5V247.5V248H122.5V247.5ZM259 173H258.5V189H259H259.5V173H259ZM259 189V188.5H238.5V189V189.5H259V189ZM238.5 189L238.286 188.548L228.786 193.048L229 193.5L229.214 193.952L238.714 189.452L238.5 189ZM229 193.5H228.5V226.5H229H229.5V193.5H229ZM229 226.5V227H245.5V226.5V226H229V226.5ZM245.5 226.5H246V221.5H245.5H245V226.5H245.5ZM245.5 221.5V222H261.5V221.5V221H245.5V221.5ZM261.5 221.5H261V252.5H261.5H262V221.5H261.5ZM261.5 252.5V252H251V252.5V253H261.5V252.5ZM251 252.5H250.5V255.5H251H251.5V252.5H251ZM251 255.5V256H287V255.5V255H251V255.5ZM287 255.5H287.5V239H287H286.5V255.5H287ZM287 239V239.5H301.5V239V238.5H287V239ZM301.5 239L302 239.013L302.5 219.513L302 219.5L301.5 219.487L301 238.987L301.5 239ZM302 219.5V220H306.5V219.5V219H302V219.5ZM306.5 219.5H307V218H306.5H306V219.5H306.5ZM306.5 218V217.5H302V218V218.5H306.5V218ZM302 218H302.5V193.5H302H301.5V218H302ZM302 193.5V193H269.5V193.5V194H302V193.5ZM269.5 193.5H270V180.5H269.5H269V193.5H269.5ZM269.5 180.5V181H275.5V180.5V180H269.5V180.5ZM275.5 180.5H276V179.5H275.5H275V180.5H275.5ZM275.5 179.5V179H272.5V179.5V180H275.5V179.5ZM272.5 179.5H273V173H272.5H272V179.5H272.5ZM272.5 173V172.5H259V173V173.5H272.5V173ZM172.5 82L172.115 81.6816L153.115 104.682L153.5 105L153.885 105.318L172.885 82.3184L172.5 82ZM153.5 105V104.5H116V105V105.5H153.5V105ZM116 105H116.5V103H116H115.5V105H116ZM116 103V102.5H114V103V103.5H116V103ZM114 103H113.5V105H114H114.5V103H114ZM114 105V104.5H108.5V105V105.5H114V105ZM108.5 105H108V121.5H108.5H109V105H108.5ZM108.5 121.5V122H114V121.5V121H108.5V121.5ZM114 121.5H113.5V139.721H114H114.5V121.5H114ZM114 139.721V139.221H104V139.721V140.221H114V139.721ZM104 139.721H103.5V190H104H104.5V139.721H104ZM104 190V190.5H120.5V190V189.5H104V190ZM120.5 190H121V186.5H120.5H120V190H120.5ZM120.5 186.5L120.724 186.947L127.724 183.447L127.5 183L127.276 182.553L120.276 186.053L120.5 186.5ZM127.5 183V183.5H134V183V182.5H127.5V183ZM134 183L133.776 183.447L140.776 186.947L141 186.5L141.224 186.053L134.224 182.553L134 183ZM141 186.5H140.5V190H141H141.5V186.5H141ZM141 190V190.5H141.5V190V189.5H141V190ZM141.5 190H142V183H141.5H141V190H141.5ZM141.5 183V183.5H160V183V182.5H141.5V183ZM160 183L159.646 183.354L167.646 191.354L168 191L168.354 190.646L160.354 182.646L160 183ZM168 191H167.5V200H168H168.5V191H168ZM168 200L167.646 199.646L159.146 208.146L159.5 208.5L159.854 208.854L168.354 200.354L168 200ZM159.5 208.5V208H141.5V208.5V209H159.5V208.5ZM141.5 208.5H142V202H141.5H141V208.5H141.5ZM141.5 202V201.5H140.5V202V202.5H141.5V202ZM140.5 202H140V247.5H140.5H141V202H140.5ZM140.5 247.5V247H132V247.5V248H140.5V247.5ZM132 247.5H131.5V249H132H132.5V247.5H132ZM132 249V249.5H134V249V248.5H132V249ZM134 249H133.5V253.5H134H134.5V249H134ZM134 253.5V254H172.5V253.5V253H134V253.5ZM172.5 253.5H173V221.5H172.5H172V253.5H172.5ZM172.5 221.5V222H198V221.5V221H172.5V221.5ZM198 221.5H197.5V224H198H198.5V221.5H198ZM198 224V224.5H199.5V224V223.5H198V224ZM199.5 224H200V221.5H199.5H199V224H199.5ZM199.5 221.5V222H213.5V221.5V221H199.5V221.5ZM213.5 221.5H214V213H213.5H213V221.5H213.5ZM213.5 213V212.5H203.5V213V213.5H213.5V213ZM203.5 213H204V192.5H203.5H203V213H203.5ZM203.5 192.5V193H213.5V192.5V192H203.5V192.5ZM213.5 192.5H214V187.5H213.5H213V192.5H213.5ZM213.5 187.5V187H212V187.5V188H213.5V187.5ZM212 187.5H212.5V177H212H211.5V187.5H212ZM212 177V177.5H213.5V177V176.5H212V177ZM213.5 177H214V171.5H213.5H213V177H213.5ZM213.5 171.5V171H199V171.5V172H213.5V171.5ZM199 171.5H199.5V156.5H199H198.5V171.5H199ZM199 156.5V157H200V156.5V156H199V156.5ZM200 156.5H200.5V154H200H199.5V156.5H200ZM200 154V153.5H199V154V154.5H200V154ZM199 154H199.5V139H199H198.5V154H199ZM199 139V139.5H218V139V138.5H199V139ZM218 139H217.5V146H218H218.5V139H218ZM218 146V146.5H225V146V145.5H218V146ZM225 146H225.5V139H225H224.5V146H225ZM225 139V139.5H236V139V138.5H225V139ZM236 139H236.5V137H236H235.5V139H236ZM236 137V136.5H228V137V137.5H236V137ZM228 137H228.5V132.5H228H227.5V137H228ZM228 132.5V132H209.5V132.5V133H228V132.5ZM209.5 132.5H210V107H209.5H209V132.5H209.5ZM209.5 107V107.5H214V107V106.5H209.5V107ZM214 107H214.5V105H214H213.5V107H214ZM214 105V104.5H205V105V105.5H214V105ZM205 105L205.39 104.687L186.89 81.6866L186.5 82L186.11 82.3134L204.61 105.313L205 105ZM186.5 82V81.5H172.5V82V82.5H186.5V82ZM80 163.5L79.5931 163.209L72.0931 173.709L72.5 174L72.9069 174.291L80.4069 163.791L80 163.5ZM72.5 174V173.5H69.5V174V174.5H72.5V174ZM69.5 174H69V175.5H69.5H70V174H69.5ZM69.5 175.5V176H77V175.5V175H69.5V175.5ZM77 175.5H76.5V195.5H77H77.5V175.5H77ZM77 195.5L76.6637 195.13L71.1637 200.13L71.5 200.5L71.8363 200.87L77.3363 195.87L77 195.5ZM71.5 200.5V200H57.5V200.5V201H71.5V200.5ZM57.5 200.5L57.8363 200.13L52.3363 195.13L52 195.5L51.6637 195.87L57.1637 200.87L57.5 200.5ZM52 195.5H52.5V193H52H51.5V195.5H52ZM52 193V192.5H50.5V193V193.5H52V193ZM50.5 193H50V236.5H50.5H51V193H50.5ZM50.5 236.5V237H103.5V236.5V236H50.5V236.5ZM103.5 236.5H104V224.5H103.5H103V236.5H103.5ZM103.5 224.5V225H115.5V224.5V224H103.5V224.5ZM115.5 224.5H116V202H115.5H115V224.5H115.5ZM115.5 202V202.5H120.5V202V201.5H115.5V202ZM120.5 202H121V201H120.5H120V202H120.5ZM120.5 201V200.5H104V201V201.5H120.5V201ZM104 201H103.5V215.5H104H104.5V201H104ZM104 215.5V215H84V215.5V216H104V215.5ZM84 215.5H84.5V194.5H84H83.5V215.5H84ZM84 194.5V195H88.75V194.5V194H84V194.5ZM88.75 194.5H89.25V185.5H88.75H88.25V194.5H88.75ZM88.75 185.5V185H84V185.5V186H88.75V185.5ZM84 185.5H84.5V163.5H84H83.5V185.5H84ZM84 163.5V163H80V163.5V164H84V163.5ZM231.5 145H231V154.5H231.5H232V145H231.5ZM231.5 154.5V154H207.5V154.5V155H231.5V154.5ZM207.5 154.5H207V156H207.5H208V154.5H207.5ZM207.5 156V156.5H236V156V155.5H207.5V156ZM236 156H236.5V145H236H235.5V156H236ZM236 145V144.5H231.5V145V145.5H236V145ZM57.5 105H57V131.5H57.5H58V105H57.5ZM57.5 131.5V131H38V131.5V132H57.5V131.5ZM38 131.5H37.5V141.5H38H38.5V131.5H38ZM38 141.5V142H60V141.5V141H38V141.5ZM60 141.5H60.5V107H60H59.5V141.5H60ZM60 107V107.5H99V107V106.5H60V107ZM99 107H99.5V105H99H98.5V107H99ZM99 105V104.5H57.5V105V105.5H99V105ZM258.5 103H258V105H258.5H259V103H258.5ZM258.5 105V104.5H222V105V105.5H258.5V105ZM222 105H221.5V124H222H222.5V105H222ZM222 124V124.5H228V124V123.5H222V124ZM228 124H228.5V121.5H228H227.5V124H228ZM228 121.5L228.3 121.9L230.3 120.4L230 120L229.7 119.6L227.7 121.1L228 121.5ZM230 120V120.5H269.5V120V119.5H230V120ZM269.5 120L269.854 120.354L279.854 110.354L279.5 110L279.146 109.646L269.146 119.646L269.5 120ZM279.5 110V109.5H260V110V110.5H279.5V110ZM260 110H260.5V103H260H259.5V110H260ZM260 103V102.5H258.5V103V103.5H260V103Z" fill="#B27C40"/>
<circle cx="179" cy="263" r="1.75" stroke="#B27C40" stroke-width="0.5"/>
<circle cx="299.5" cy="134.5" r="1.25" stroke="#B27C40" stroke-width="0.5"/>
<path d="M89 126.5H71.5V135.5H94.5V126.5H94M89 126.5V121.5H94V126.5M89 126.5H94M60 137H64.5V141.5H60M44.5 154H49.5V163.5H44.5M97 278.5V283H101.5V278.5M180.5 264.5V259.5H185M278.5 286H273V291H278.5M292.5 239V244.5H287M295.5 179.5V175M295.5 175H300.5M295.5 175H290.5V179.5M236 148H251V154.5H236M224 156V163.5H228.5V156M259 173H254V176.5H259M229.5 193H224V202.5H229" stroke="#B27C40"/>
<path d="M297 158V167H300.5" stroke="#B27C40" stroke-width="0.5"/>
<path d="M224 163.5V166H228.5V163.5M269.756 120H295.5M224 202.5V205.5H229M245.5 226.5H258M261.5 226.5H258M258 226.5V229.5H261.5M287 247H290V244.5M325 254H319M304.5 254H319M319 254V257.5H325M275.5 291V293.5H278.5M65 200.5L77 188.5M84 209H90V215.5M84 210.5H89V215.5M104 177H98.5V183H104M104 182H99.5V178H104M77 135.5V140H89V135.5M199.5 237H217V240M89 163.5H99.5V159H104M99.5 164.5H89M57 263.5V270.5L61 274H68L72 270.5V263.5L68 259.5H61L57 263.5ZM60 264.5V262.5H63L64.5 261L66 262.5H69V264.5L70.5 266.5L69 268.5V271H66L64.5 272.5L63 271H60V268.5L58.5 266.5L60 264.5Z" stroke="#B27C40" stroke-width="0.5"/>
<path d="M273 149V159H268V149M273 149H278V144H268V149M273 149H268" stroke="#B27C40"/>
<path d="M250.754 252.5V239.5" stroke="#B27C40" stroke-width="0.5"/>
<path d="M84 163.5H89V164.5H84M104 163.5H99.5V164.5H104M22 132H25M38 132H35M141 205.5H136V209.5H140.5" stroke="#B27C40"/>
<circle cx="175" cy="224" r="2.75" stroke="#B27C40" stroke-width="0.5"/>
<circle cx="240" cy="275" r="1.75" stroke="#B27C40" stroke-width="0.5"/>
<path d="M72 127.5H94M94 134.5H72" stroke="#B27C40" stroke-opacity="0.23"/>
<path d="M20 196.5H16L14.5 194.25L13 192L14.5 189.75L16 187.5H20L17 192L20 196.5Z" fill="white"/>
<path d="M360 230.5H356L354.5 228.25L353 226L354.5 223.75L356 221.5H360L358.667 223.5L357 226L358.667 228.5L360 230.5Z" fill="white"/>
<path d="M176 200H172L170.5 197.75L169 195.5L170.5 193.25L172 191H176L173 195.5L176 200Z" fill="white"/>
<path d="M211 186.5H207L205.5 184.25L204 182L205.5 179.75L207 177.5H211L208 182L211 186.5Z" fill="white"/>
<path d="M206.74 184.25L205.24 182L206.74 179.75H185.695L185.5 193H174H172.742V197.713H190.128V184.25H206.74Z" fill="white" fill-opacity="0.48"/>
<path d="M101 142H67V115H101V142ZM88.5 126H71V136H76.75V140.25H89.25V136H95V126H94.5V121H88.5V126Z" fill="#F08234" fill-opacity="0.23"/>
<path d="M282.5 169H244V155H251.5V147.5H244V129H282.5V169ZM267.5 143.5V159.5H273.5V149.5H278.5V143.5H267.5Z" fill="#F08234" fill-opacity="0.23"/>
<path d="M74.7891 125V117H77.8516C78.4297 117 78.9102 117.091 79.293 117.273C79.6784 117.453 79.9661 117.699 80.1563 118.012C80.349 118.324 80.4453 118.678 80.4453 119.074C80.4453 119.4 80.3828 119.678 80.2578 119.91C80.1328 120.139 79.9648 120.326 79.7539 120.469C79.543 120.612 79.3073 120.715 79.0469 120.777V120.855C79.3307 120.871 79.6029 120.958 79.8633 121.117C80.1263 121.273 80.3411 121.495 80.5078 121.781C80.6745 122.068 80.7578 122.414 80.7578 122.82C80.7578 123.234 80.6576 123.607 80.457 123.937C80.2565 124.266 79.9544 124.525 79.5508 124.715C79.1471 124.905 78.6393 125 78.0273 125H74.7891ZM76.2383 123.789H77.7969C78.3229 123.789 78.7018 123.689 78.9336 123.488C79.168 123.285 79.2852 123.025 79.2852 122.707C79.2852 122.47 79.2266 122.257 79.1094 122.066C78.9922 121.874 78.8255 121.723 78.6094 121.613C78.3932 121.501 78.1354 121.445 77.8359 121.445H76.2383V123.789ZM76.2383 120.402H77.6719C77.9219 120.402 78.1471 120.357 78.3477 120.266C78.5482 120.172 78.7057 120.04 78.8203 119.871C78.9375 119.699 78.9961 119.496 78.9961 119.262C78.9961 118.952 78.8867 118.697 78.668 118.496C78.4518 118.296 78.1302 118.195 77.7031 118.195H76.2383V120.402Z" fill="white"/>
<path d="M256.816 144H255.27L258.086 136H259.875L262.695 144H261.148L259.012 137.641H258.949L256.816 144ZM256.867 140.863H261.086V142.027H256.867V140.863Z" fill="white"/>
</svg>
