<svg width="372" height="427" viewBox="0 0 372 427" fill="none" xmlns="http://www.w3.org/2000/svg">
<path d="M14 232.75L12.5 235L14 237.25H0.5V83H371.5V203V203.5H360.5L358.833 201L360.5 198.5H367V87.5H5V232.75H14Z" fill="white" fill-opacity="0.48"/>
<path d="M201.5 383L205 364.5V337H259V335H261V337H296V317H286L296 307H301V282.5H291V269H301V247.5H286V246.5H328V224H320.5V209H314.5V207.5H327V213.5H345L351.5 206.5V195.5L345 188.5H327V195H325.5V150.5H288.5L279 145.5V103.5L245 68.5H243V67.5L233 56V41C233 40.2 230.667 35.3333 229.5 33L222 23.5V22L218.5 18H199.5L197.5 22L197 24L200.5 28L190 36L186 42.5V59L182.5 62.5V63.5L179.5 65L172 74L170.5 78L163 86.5L162 88.5L159.5 89.5L153.5 101.5L148.5 128.5V133L147 133.5L138.5 135H132L125.5 133.5H122L120.5 134.5H119L116 133H113.5L112.5 133.5H101L98.5 132.5H60.5L34 159V178H40.5V182.5H35V223.5H22.5V230.5H21.5V240H22.5V246.5H51V244H52.5V251.5H58.5V253H45V273H22.5V310H47.5V337H114.5V335.5H116.5V337H152.5V365L155.5 378.5L167 408.5H190L201.5 383ZM165 106L171 101V98.5L190.5 79V75L197.5 66.5V64L201 61.5L203 61L206 57.5H208L218 61L218.5 62L226.5 71V73.5L240.5 91V94H245.5L248.5 98L249 101L252 105V108.5L249.5 112H248.5L246 116.5L227.5 106H215.5L207 104H201.5L168 119L165 106ZM198.5 196V187H191L185.5 181.5V162.5H158.5V148.5H165V153.5H178.5V127H188.5L191.5 123.5L199.5 119.5H203.5L204.5 118V117L212.5 115.5H215L222 120H223.5V121H226.5L233.5 126H254V150.5H239V187H200V196H198.5ZM85 179.5V161H90V148.5H116.61V149.5H141.5V148.5H148.5V162.5H115.5V178H123V179.5H85ZM259.5 254V238H239L229.5 233.5V200.5H246V205.5H262V174.5H251.5V171.5H287.5V188H302L302.5 207.5H307V209H302.5V233.5H270V246.5H276V247.5H273V254H259.5ZM173 345L154 322H116.5V324H114.5V322H109V305.5H114.5V287.279H104.5V237H121V240.5L128 244H134.5L141.5 240.5V237H142V244H160.5L168.5 236V227L160 218.5H142V225H141V179.5H132.5V178H134.5V173.5H173V205.5H198.5V203H200V205.5H214V214H204V234.5H214V239.5H212.5V250H214V255.5H199.5V270.5H200.5V273H199.5V288H218.5V281H225.5V288H236.5V290H228.5V294.5H210V320H214.5V322H205.5L187 345H173ZM80.5 263.5L73 253H70V251.5H77.5V231.5L72 226.5H58L52.5 231.5V234H51V190.5H104V202.5H116V225H121V226H104.5V211.5H84.5V232.5H89.25V241.5H84.5V263.5H80.5ZM232 282V272.5H208V271H236.5V282H232ZM58 322V295.5H38.5V285.5H60.5V320H99.5V322H58ZM259 324V322H222.5V303H228.5V305.5L230.5 307H270L280 317H260.5V324H259Z" fill="#271406"/>
<path d="M201.5 383L201.991 383.093L201.98 383.151L201.956 383.206L201.5 383ZM205 364.5H205.5V364.547L205.491 364.593L205 364.5ZM205 337H204.5V336.5H205V337ZM259 337H259.5V337.5H259V337ZM259 335H258.5V334.5H259V335ZM261 335V334.5H261.5V335H261ZM261 337V337.5H260.5V337H261ZM296 337H296.5V337.5H296V337ZM296 317V316.5H296.5V317H296ZM286 317V317.5H284.793L285.646 316.646L286 317ZM296 307L295.646 306.646L295.793 306.5H296V307ZM301 307H301.5V307.5H301V307ZM301 282.5V282H301.5V282.5H301ZM291 282.5V283H290.5V282.5H291ZM291 269H290.5V268.5H291V269ZM301 269H301.5V269.5H301V269ZM301 247.5V247H301.5V247.5H301ZM286 247.5V248H285.5V247.5H286ZM286 246.5H285.5V246H286V246.5ZM328 246.5H328.5V247H328V246.5ZM328 224V223.5H328.5V224H328ZM320.5 224V224.5H320V224H320.5ZM320.5 209V208.5H321V209H320.5ZM314.5 209V209.5H314V209H314.5ZM314.5 207.5H314V207H314.5V207.5ZM327 207.5V207H327.5V207.5H327ZM327 213.5V214H326.5V213.5H327ZM345 213.5L345.366 213.84L345.218 214H345V213.5ZM351.5 206.5H352V206.696L351.866 206.84L351.5 206.5ZM351.5 195.5L351.866 195.16L352 195.304V195.5H351.5ZM345 188.5V188H345.218L345.366 188.16L345 188.5ZM327 188.5H326.5V188H327V188.5ZM327 195H327.5V195.5H327V195ZM325.5 195V195.5H325V195H325.5ZM325.5 150.5V150H326V150.5H325.5ZM288.5 150.5V151H288.376L288.267 150.942L288.5 150.5ZM279 145.5L278.767 145.942L278.5 145.802V145.5H279ZM279 103.5L279.359 103.152L279.5 103.297V103.5H279ZM245 68.5V68H245.211L245.359 68.1516L245 68.5ZM243 68.5V69H242.5V68.5H243ZM243 67.5L243.377 67.1719L243.5 67.313V67.5H243ZM233 56L232.623 56.3281L232.5 56.187V56H233ZM229.5 33L229.892 32.6902L229.924 32.7305L229.947 32.7764L229.5 33ZM222 23.5L221.608 23.8098L221.5 23.6736V23.5H222ZM222 22L222.376 21.6707L222.5 21.8121V22H222ZM218.5 18V17.5H218.727L218.876 17.6707L218.5 18ZM199.5 18L199.053 17.7764L199.191 17.5H199.5V18ZM197.5 22L197.015 21.8787L197.028 21.8255L197.053 21.7764L197.5 22ZM197 24L196.624 24.3293L196.452 24.1324L196.515 23.8787L197 24ZM200.5 28L200.876 27.6707L201.229 28.0734L200.803 28.3977L200.5 28ZM190 36L189.574 35.738L189.623 35.6587L189.697 35.6023L190 36ZM186 42.5H185.5V42.3585L185.574 42.238L186 42.5ZM186 59H186.5V59.2071L186.354 59.3536L186 59ZM182.5 62.5H182V62.2929L182.146 62.1464L182.5 62.5ZM182.5 63.5H183V63.809L182.724 63.9472L182.5 63.5ZM179.5 65L179.116 64.6799L179.183 64.5996L179.276 64.5528L179.5 65ZM172 74L171.532 73.8244L171.562 73.745L171.616 73.6799L172 74ZM170.5 78L170.968 78.1756L170.936 78.2618L170.875 78.3308L170.5 78ZM163 86.5L162.553 86.2764L162.582 86.2181L162.625 86.1692L163 86.5ZM162 88.5L162.447 88.7236L162.362 88.8936L162.186 88.9642L162 88.5ZM159.5 89.5L159.053 89.2764L159.138 89.1064L159.314 89.0358L159.5 89.5ZM153.5 101.5L153.008 101.409L153.021 101.34L153.053 101.276L153.5 101.5ZM148.5 128.5H148V128.454L148.008 128.409L148.5 128.5ZM148.5 133H149V133.36L148.658 133.474L148.5 133ZM147 133.5L147.158 133.974L147.123 133.986L147.087 133.992L147 133.5ZM138.5 135L138.587 135.492L138.544 135.5H138.5V135ZM132 135V135.5H131.943L131.888 135.487L132 135ZM125.5 133.5V133H125.557L125.612 133.013L125.5 133.5ZM122 133.5L121.723 133.084L121.849 133H122V133.5ZM120.5 134.5L120.777 134.916L120.651 135H120.5V134.5ZM119 134.5V135H118.882L118.776 134.947L119 134.5ZM116 133V132.5H116.118L116.224 132.553L116 133ZM113.5 133L113.276 132.553L113.382 132.5H113.5V133ZM112.5 133.5L112.724 133.947L112.618 134H112.5V133.5ZM101 133.5V134H100.904L100.814 133.964L101 133.5ZM98.5 132.5V132H98.5963L98.6857 132.036L98.5 132.5ZM60.5 132.5L60.1464 132.146L60.2929 132H60.5V132.5ZM34 159H33.5V158.793L33.6464 158.646L34 159ZM34 178V178.5H33.5V178H34ZM40.5 178V177.5H41V178H40.5ZM40.5 182.5H41V183H40.5V182.5ZM35 182.5H34.5V182H35V182.5ZM35 223.5H35.5V224H35V223.5ZM22.5 223.5H22V223H22.5V223.5ZM22.5 230.5H23V231H22.5V230.5ZM21.5 230.5H21V230H21.5V230.5ZM21.5 240V240.5H21V240H21.5ZM22.5 240V239.5H23V240H22.5ZM22.5 246.5V247H22V246.5H22.5ZM51 246.5H51.5V247H51V246.5ZM51 244H50.5V243.5H51V244ZM52.5 244V243.5H53V244H52.5ZM52.5 251.5V252H52V251.5H52.5ZM58.5 251.5V251H59V251.5H58.5ZM58.5 253H59V253.5H58.5V253ZM45 253H44.5V252.5H45V253ZM45 273H45.5V273.5H45V273ZM22.5 273H22V272.5H22.5V273ZM22.5 310V310.5H22V310H22.5ZM47.5 310V309.5H48V310H47.5ZM47.5 337V337.5H47V337H47.5ZM114.5 337H115V337.5H114.5V337ZM114.5 335.5H114V335H114.5V335.5ZM116.5 335.5V335H117V335.5H116.5ZM116.5 337V337.5H116V337H116.5ZM152.5 337V336.5H153V337H152.5ZM152.5 365L152.012 365.108L152 365.055V365H152.5ZM155.5 378.5L155.033 378.679L155.02 378.644L155.012 378.608L155.5 378.5ZM167 408.5V409H166.656L166.533 408.679L167 408.5ZM190 408.5L190.456 408.706L190.323 409H190V408.5ZM165 106L164.513 106.112L164.444 105.813L164.68 105.616L165 106ZM171 101H171.5V101.234L171.32 101.384L171 101ZM171 98.5H170.5V98.2929L170.646 98.1464L171 98.5ZM190.5 79H191V79.2071L190.854 79.3536L190.5 79ZM190.5 75H190V74.8206L190.114 74.6821L190.5 75ZM197.5 66.5H198V66.6794L197.886 66.8179L197.5 66.5ZM197.5 64H197V63.7427L197.209 63.5931L197.5 64ZM201 61.5L200.709 61.0931L200.787 61.038L200.879 61.0149L201 61.5ZM203 61L203.38 61.3254L203.276 61.4464L203.121 61.4851L203 61ZM206 57.5L205.62 57.1746L205.77 57H206V57.5ZM208 57.5V57H208.085L208.165 57.0281L208 57.5ZM218 61L218.165 60.5281L218.357 60.595L218.447 60.7764L218 61ZM218.5 62L218.126 62.3322L218.082 62.2828L218.053 62.2236L218.5 62ZM226.5 71L226.874 70.6678L227 70.8099V71H226.5ZM226.5 73.5L226.11 73.8123L226 73.6754V73.5H226.5ZM240.5 91L240.89 90.6877L241 90.8246V91H240.5ZM240.5 94V94.5H240V94H240.5ZM245.5 94V93.5H245.75L245.9 93.7L245.5 94ZM248.5 98L248.9 97.7L248.973 97.7975L248.993 97.9178L248.5 98ZM249 101L248.6 101.3L248.527 101.202L248.507 101.082L249 101ZM252 105L252.4 104.7L252.5 104.833V105H252ZM252 108.5H252.5V108.66L252.407 108.791L252 108.5ZM249.5 112L249.907 112.291L249.757 112.5H249.5V112ZM248.5 112L248.063 111.757L248.206 111.5H248.5V112ZM246 116.5L246.437 116.743L246.192 117.184L245.753 116.935L246 116.5ZM227.5 106V105.5H227.632L227.747 105.565L227.5 106ZM215.5 106V106.5H215.442L215.385 106.487L215.5 106ZM207 104V103.5H207.058L207.115 103.513L207 104ZM201.5 104L201.296 103.544L201.393 103.5H201.5V104ZM168 119L168.204 119.456L167.649 119.705L167.513 119.112L168 119ZM198.5 196V196.5H198V196H198.5ZM198.5 187V186.5H199V187H198.5ZM191 187V187.5H190.793L190.646 187.354L191 187ZM185.5 181.5L185.146 181.854L185 181.707V181.5H185.5ZM185.5 162.5V162H186V162.5H185.5ZM158.5 162.5V163H158V162.5H158.5ZM158.5 148.5H158V148H158.5V148.5ZM165 148.5V148H165.5V148.5H165ZM165 153.5V154H164.5V153.5H165ZM178.5 153.5H179V154H178.5V153.5ZM178.5 127H178V126.5H178.5V127ZM188.5 127L188.88 127.325L188.73 127.5H188.5V127ZM191.5 123.5L191.12 123.175L191.186 123.098L191.276 123.053L191.5 123.5ZM199.5 119.5L199.276 119.053L199.382 119H199.5V119.5ZM203.5 119.5L203.916 119.777L203.768 120H203.5V119.5ZM204.5 118H205V118.151L204.916 118.277L204.5 118ZM204.5 117H204V116.585L204.408 116.509L204.5 117ZM212.5 115.5L212.408 115.009L212.454 115H212.5V115.5ZM215 115.5V115H215.147L215.27 115.079L215 115.5ZM222 120V120.5H221.853L221.73 120.421L222 120ZM223.5 120V119.5H224V120H223.5ZM223.5 121V121.5H223V121H223.5ZM226.5 121V120.5H226.66L226.791 120.593L226.5 121ZM233.5 126V126.5H233.34L233.209 126.407L233.5 126ZM254 126V125.5H254.5V126H254ZM254 150.5H254.5V151H254V150.5ZM239 150.5H238.5V150H239V150.5ZM239 187H239.5V187.5H239V187ZM200 187H199.5V186.5H200V187ZM200 196H200.5V196.5H200V196ZM85 179.5V180H84.5V179.5H85ZM85 161H84.5V160.5H85V161ZM90 161H90.5V161.5H90V161ZM90 148.5H89.5V148H90V148.5ZM116.61 148.5V148H117.11V148.5H116.61ZM116.61 149.5V150H116.11V149.5H116.61ZM141.5 149.5H142V150H141.5V149.5ZM141.5 148.5H141V148H141.5V148.5ZM148.5 148.5V148H149V148.5H148.5ZM148.5 162.5H149V163H148.5V162.5ZM115.5 162.5H115V162H115.5V162.5ZM115.5 178V178.5H115V178H115.5ZM123 178V177.5H123.5V178H123ZM123 179.5H123.5V180H123V179.5ZM259.5 254V254.5H259V254H259.5ZM259.5 238V237.5H260V238H259.5ZM239 238V238.5H238.888L238.786 238.452L239 238ZM229.5 233.5L229.286 233.952L229 233.816V233.5H229.5ZM229.5 200.5H229V200H229.5V200.5ZM246 200.5V200H246.5V200.5H246ZM246 205.5V206H245.5V205.5H246ZM262 205.5H262.5V206H262V205.5ZM262 174.5V174H262.5V174.5H262ZM251.5 174.5V175H251V174.5H251.5ZM251.5 171.5H251V171H251.5V171.5ZM287.5 171.5V171H288V171.5H287.5ZM287.5 188V188.5H287V188H287.5ZM302 188V187.5H302.487L302.5 187.987L302 188ZM302.5 207.5V208H302.013L302 207.513L302.5 207.5ZM307 207.5V207H307.5V207.5H307ZM307 209H307.5V209.5H307V209ZM302.5 209H302V208.5H302.5V209ZM302.5 233.5H303V234H302.5V233.5ZM270 233.5H269.5V233H270V233.5ZM270 246.5V247H269.5V246.5H270ZM276 246.5V246H276.5V246.5H276ZM276 247.5H276.5V248H276V247.5ZM273 247.5H272.5V247H273V247.5ZM273 254H273.5V254.5H273V254ZM173 345V345.5H172.765L172.615 345.318L173 345ZM154 322V321.5H154.235L154.385 321.682L154 322ZM116.5 322H116V321.5H116.5V322ZM116.5 324H117V324.5H116.5V324ZM114.5 324V324.5H114V324H114.5ZM114.5 322V321.5H115V322H114.5ZM109 322V322.5H108.5V322H109ZM109 305.5H108.5V305H109V305.5ZM114.5 305.5H115V306H114.5V305.5ZM114.5 287.279V286.779H115V287.279H114.5ZM104.5 287.279V287.779H104V287.279H104.5ZM104.5 237H104V236.5H104.5V237ZM121 237V236.5H121.5V237H121ZM121 240.5L120.776 240.947L120.5 240.809V240.5H121ZM128 244V244.5H127.882L127.776 244.447L128 244ZM134.5 244L134.724 244.447L134.618 244.5H134.5V244ZM141.5 240.5H142V240.809L141.724 240.947L141.5 240.5ZM141.5 237H141V236.5H141.5V237ZM142 237V236.5H142.5V237H142ZM142 244V244.5H141.5V244H142ZM160.5 244L160.854 244.354L160.707 244.5H160.5V244ZM168.5 236H169V236.207L168.854 236.354L168.5 236ZM168.5 227L168.854 226.646L169 226.793V227H168.5ZM160 218.5V218H160.207L160.354 218.146L160 218.5ZM142 218.5H141.5V218H142V218.5ZM142 225H142.5V225.5H142V225ZM141 225V225.5H140.5V225H141ZM141 179.5V179H141.5V179.5H141ZM132.5 179.5V180H132V179.5H132.5ZM132.5 178H132V177.5H132.5V178ZM134.5 178H135V178.5H134.5V178ZM134.5 173.5H134V173H134.5V173.5ZM173 173.5V173H173.5V173.5H173ZM173 205.5V206H172.5V205.5H173ZM198.5 205.5H199V206H198.5V205.5ZM198.5 203H198V202.5H198.5V203ZM200 203V202.5H200.5V203H200ZM200 205.5V206H199.5V205.5H200ZM214 205.5V205H214.5V205.5H214ZM214 214H214.5V214.5H214V214ZM204 214H203.5V213.5H204V214ZM204 234.5V235H203.5V234.5H204ZM214 234.5V234H214.5V234.5H214ZM214 239.5H214.5V240H214V239.5ZM212.5 239.5H212V239H212.5V239.5ZM212.5 250V250.5H212V250H212.5ZM214 250V249.5H214.5V250H214ZM214 255.5H214.5V256H214V255.5ZM199.5 255.5H199V255H199.5V255.5ZM199.5 270.5V271H199V270.5H199.5ZM200.5 270.5V270H201V270.5H200.5ZM200.5 273H201V273.5H200.5V273ZM199.5 273H199V272.5H199.5V273ZM199.5 288V288.5H199V288H199.5ZM218.5 288H219V288.5H218.5V288ZM218.5 281H218V280.5H218.5V281ZM225.5 281V280.5H226V281H225.5ZM225.5 288V288.5H225V288H225.5ZM236.5 288V287.5H237V288H236.5ZM236.5 290H237V290.5H236.5V290ZM228.5 290H228V289.5H228.5V290ZM228.5 294.5H229V295H228.5V294.5ZM210 294.5H209.5V294H210V294.5ZM210 320V320.5H209.5V320H210ZM214.5 320V319.5H215V320H214.5ZM214.5 322H215V322.5H214.5V322ZM205.5 322L205.11 321.687L205.261 321.5H205.5V322ZM187 345L187.39 345.313L187.239 345.5H187V345ZM80.5 263.5V264H80.2427L80.0931 263.791L80.5 263.5ZM73 253V252.5H73.2573L73.4069 252.709L73 253ZM70 253V253.5H69.5V253H70ZM70 251.5H69.5V251H70V251.5ZM77.5 251.5H78V252H77.5V251.5ZM77.5 231.5L77.8363 231.13L78 231.279V231.5H77.5ZM72 226.5V226H72.1933L72.3363 226.13L72 226.5ZM58 226.5L57.6637 226.13L57.8067 226H58V226.5ZM52.5 231.5H52V231.279L52.1637 231.13L52.5 231.5ZM52.5 234H53V234.5H52.5V234ZM51 234V234.5H50.5V234H51ZM51 190.5H50.5V190H51V190.5ZM104 190.5V190H104.5V190.5H104ZM104 202.5V203H103.5V202.5H104ZM116 202.5V202H116.5V202.5H116ZM116 225V225.5H115.5V225H116ZM121 225V224.5H121.5V225H121ZM121 226H121.5V226.5H121V226ZM104.5 226V226.5H104V226H104.5ZM104.5 211.5V211H105V211.5H104.5ZM84.5 211.5H84V211H84.5V211.5ZM84.5 232.5V233H84V232.5H84.5ZM89.25 232.5V232H89.75V232.5H89.25ZM89.25 241.5H89.75V242H89.25V241.5ZM84.5 241.5H84V241H84.5V241.5ZM84.5 263.5H85V264H84.5V263.5ZM232 282V282.5H231.5V282H232ZM232 272.5V272H232.5V272.5H232ZM208 272.5V273H207.5V272.5H208ZM208 271H207.5V270.5H208V271ZM236.5 271V270.5H237V271H236.5ZM236.5 282H237V282.5H236.5V282ZM58 322V322.5H57.5V322H58ZM58 295.5V295H58.5V295.5H58ZM38.5 295.5V296H38V295.5H38.5ZM38.5 285.5H38V285H38.5V285.5ZM60.5 285.5V285H61V285.5H60.5ZM60.5 320V320.5H60V320H60.5ZM99.5 320V319.5H100V320H99.5ZM99.5 322H100V322.5H99.5V322ZM259 324V324.5H258.5V324H259ZM259 322V321.5H259.5V322H259ZM222.5 322V322.5H222V322H222.5ZM222.5 303H222V302.5H222.5V303ZM228.5 303V302.5H229V303H228.5ZM228.5 305.5L228.2 305.9L228 305.75V305.5H228.5ZM230.5 307V307.5H230.333L230.2 307.4L230.5 307ZM270 307V306.5H270.207L270.354 306.646L270 307ZM280 317L280.354 316.646L281.207 317.5H280V317ZM260.5 317H260V316.5H260.5V317ZM260.5 324H261V324.5H260.5V324ZM201.5 383L201.009 382.907L204.509 364.407L205 364.5L205.491 364.593L201.991 383.093L201.5 383ZM205 364.5H204.5V337H205H205.5V364.5H205ZM205 337V336.5H259V337V337.5H205V337ZM259 337H258.5V335H259H259.5V337H259ZM259 335V334.5H261V335V335.5H259V335ZM261 335H261.5V337H261H260.5V335H261ZM261 337V336.5H296V337V337.5H261V337ZM296 337H295.5V317H296H296.5V337H296ZM296 317V317.5H286V317V316.5H296V317ZM286 317L285.646 316.646L295.646 306.646L296 307L296.354 307.354L286.354 317.354L286 317ZM296 307V306.5H301V307V307.5H296V307ZM301 307H300.5V282.5H301H301.5V307H301ZM301 282.5V283H291V282.5V282H301V282.5ZM291 282.5H290.5V269H291H291.5V282.5H291ZM291 269V268.5H301V269V269.5H291V269ZM301 269H300.5V247.5H301H301.5V269H301ZM301 247.5V248H286V247.5V247H301V247.5ZM286 247.5H285.5V246.5H286H286.5V247.5H286ZM286 246.5V246H328V246.5V247H286V246.5ZM328 246.5H327.5V224H328H328.5V246.5H328ZM328 224V224.5H320.5V224V223.5H328V224ZM320.5 224H320V209H320.5H321V224H320.5ZM320.5 209V209.5H314.5V209V208.5H320.5V209ZM314.5 209H314V207.5H314.5H315V209H314.5ZM314.5 207.5V207H327V207.5V208H314.5V207.5ZM327 207.5H327.5V213.5H327H326.5V207.5H327ZM327 213.5V213H345V213.5V214H327V213.5ZM345 213.5L344.634 213.16L351.134 206.16L351.5 206.5L351.866 206.84L345.366 213.84L345 213.5ZM351.5 206.5H351V195.5H351.5H352V206.5H351.5ZM351.5 195.5L351.134 195.84L344.634 188.84L345 188.5L345.366 188.16L351.866 195.16L351.5 195.5ZM345 188.5V189H327V188.5V188H345V188.5ZM327 188.5H327.5V195H327H326.5V188.5H327ZM327 195V195.5H325.5V195V194.5H327V195ZM325.5 195H325V150.5H325.5H326V195H325.5ZM325.5 150.5V151H288.5V150.5V150H325.5V150.5ZM288.5 150.5L288.267 150.942L278.767 145.942L279 145.5L279.233 145.058L288.733 150.058L288.5 150.5ZM279 145.5H278.5V103.5H279H279.5V145.5H279ZM279 103.5L278.641 103.848L244.641 68.8484L245 68.5L245.359 68.1516L279.359 103.152L279 103.5ZM245 68.5V69H243V68.5V68H245V68.5ZM243 68.5H242.5V67.5H243H243.5V68.5H243ZM243 67.5L242.623 67.8281L232.623 56.3281L233 56L233.377 55.6719L243.377 67.1719L243 67.5ZM233 56H232.5V41H233H233.5V56H233ZM233 41H232.5C232.5 41.0021 232.499 40.9763 232.485 40.9099C232.472 40.8483 232.45 40.7684 232.42 40.6697C232.359 40.4721 232.268 40.2201 232.152 39.9229C231.919 39.3297 231.595 38.5825 231.232 37.7815C230.506 36.1807 229.634 34.3867 229.053 33.2236L229.5 33L229.947 32.7764C230.532 33.9467 231.41 35.7527 232.143 37.3686C232.509 38.1758 232.841 38.9412 233.083 39.5583C233.203 39.8664 233.304 40.144 233.375 40.3749C233.441 40.587 233.5 40.8161 233.5 41H233ZM229.5 33L229.108 33.3098L221.608 23.8098L222 23.5L222.392 23.1902L229.892 32.6902L229.5 33ZM222 23.5H221.5V22H222H222.5V23.5H222ZM222 22L221.624 22.3293L218.124 18.3293L218.5 18L218.876 17.6707L222.376 21.6707L222 22ZM218.5 18V18.5H199.5V18V17.5H218.5V18ZM199.5 18L199.947 18.2236L197.947 22.2236L197.5 22L197.053 21.7764L199.053 17.7764L199.5 18ZM197.5 22L197.985 22.1213L197.485 24.1213L197 24L196.515 23.8787L197.015 21.8787L197.5 22ZM197 24L197.376 23.6707L200.876 27.6707L200.5 28L200.124 28.3293L196.624 24.3293L197 24ZM200.5 28L200.803 28.3977L190.303 36.3977L190 36L189.697 35.6023L200.197 27.6023L200.5 28ZM190 36L190.426 36.262L186.426 42.762L186 42.5L185.574 42.238L189.574 35.738L190 36ZM186 42.5H186.5V59H186H185.5V42.5H186ZM186 59L186.354 59.3536L182.854 62.8536L182.5 62.5L182.146 62.1464L185.646 58.6464L186 59ZM182.5 62.5H183V63.5H182.5H182V62.5H182.5ZM182.5 63.5L182.724 63.9472L179.724 65.4472L179.5 65L179.276 64.5528L182.276 63.0528L182.5 63.5ZM179.5 65L179.884 65.3201L172.384 74.3201L172 74L171.616 73.6799L179.116 64.6799L179.5 65ZM172 74L172.468 74.1756L170.968 78.1756L170.5 78L170.032 77.8244L171.532 73.8244L172 74ZM170.5 78L170.875 78.3308L163.375 86.8308L163 86.5L162.625 86.1692L170.125 77.6692L170.5 78ZM163 86.5L163.447 86.7236L162.447 88.7236L162 88.5L161.553 88.2764L162.553 86.2764L163 86.5ZM162 88.5L162.186 88.9642L159.686 89.9642L159.5 89.5L159.314 89.0358L161.814 88.0358L162 88.5ZM159.5 89.5L159.947 89.7236L153.947 101.724L153.5 101.5L153.053 101.276L159.053 89.2764L159.5 89.5ZM153.5 101.5L153.992 101.591L148.992 128.591L148.5 128.5L148.008 128.409L153.008 101.409L153.5 101.5ZM148.5 128.5H149V133H148.5H148V128.5H148.5ZM148.5 133L148.658 133.474L147.158 133.974L147 133.5L146.842 133.026L148.342 132.526L148.5 133ZM147 133.5L147.087 133.992L138.587 135.492L138.5 135L138.413 134.508L146.913 133.008L147 133.5ZM138.5 135V135.5H132V135V134.5H138.5V135ZM132 135L131.888 135.487L125.388 133.987L125.5 133.5L125.612 133.013L132.112 134.513L132 135ZM125.5 133.5V134H122V133.5V133H125.5V133.5ZM122 133.5L122.277 133.916L120.777 134.916L120.5 134.5L120.223 134.084L121.723 133.084L122 133.5ZM120.5 134.5V135H119V134.5V134H120.5V134.5ZM119 134.5L118.776 134.947L115.776 133.447L116 133L116.224 132.553L119.224 134.053L119 134.5ZM116 133V133.5H113.5V133V132.5H116V133ZM113.5 133L113.724 133.447L112.724 133.947L112.5 133.5L112.276 133.053L113.276 132.553L113.5 133ZM112.5 133.5V134H101V133.5V133H112.5V133.5ZM101 133.5L100.814 133.964L98.3143 132.964L98.5 132.5L98.6857 132.036L101.186 133.036L101 133.5ZM98.5 132.5V133H60.5V132.5V132H98.5V132.5ZM60.5 132.5L60.8536 132.854L34.3536 159.354L34 159L33.6464 158.646L60.1464 132.146L60.5 132.5ZM34 159H34.5V178H34H33.5V159H34ZM34 178V177.5H40.5V178V178.5H34V178ZM40.5 178H41V182.5H40.5H40V178H40.5ZM40.5 182.5V183H35V182.5V182H40.5V182.5ZM35 182.5H35.5V223.5H35H34.5V182.5H35ZM35 223.5V224H22.5V223.5V223H35V223.5ZM22.5 223.5H23V230.5H22.5H22V223.5H22.5ZM22.5 230.5V231H21.5V230.5V230H22.5V230.5ZM21.5 230.5H22V240H21.5H21V230.5H21.5ZM21.5 240V239.5H22.5V240V240.5H21.5V240ZM22.5 240H23V246.5H22.5H22V240H22.5ZM22.5 246.5V246H51V246.5V247H22.5V246.5ZM51 246.5H50.5V244H51H51.5V246.5H51ZM51 244V243.5H52.5V244V244.5H51V244ZM52.5 244H53V251.5H52.5H52V244H52.5ZM52.5 251.5V251H58.5V251.5V252H52.5V251.5ZM58.5 251.5H59V253H58.5H58V251.5H58.5ZM58.5 253V253.5H45V253V252.5H58.5V253ZM45 253H45.5V273H45H44.5V253H45ZM45 273V273.5H22.5V273V272.5H45V273ZM22.5 273H23V310H22.5H22V273H22.5ZM22.5 310V309.5H47.5V310V310.5H22.5V310ZM47.5 310H48V337H47.5H47V310H47.5ZM47.5 337V336.5H114.5V337V337.5H47.5V337ZM114.5 337H114V335.5H114.5H115V337H114.5ZM114.5 335.5V335H116.5V335.5V336H114.5V335.5ZM116.5 335.5H117V337H116.5H116V335.5H116.5ZM116.5 337V336.5H152.5V337V337.5H116.5V337ZM152.5 337H153V365H152.5H152V337H152.5ZM152.5 365L152.988 364.892L155.988 378.392L155.5 378.5L155.012 378.608L152.012 365.108L152.5 365ZM155.5 378.5L155.967 378.321L167.467 408.321L167 408.5L166.533 408.679L155.033 378.679L155.5 378.5ZM167 408.5V408H190V408.5V409H167V408.5ZM190 408.5L189.544 408.294L201.044 382.794L201.5 383L201.956 383.206L190.456 408.706L190 408.5ZM165 106L164.68 105.616L170.68 100.616L171 101L171.32 101.384L165.32 106.384L165 106ZM171 101H170.5V98.5H171H171.5V101H171ZM171 98.5L170.646 98.1464L190.146 78.6464L190.5 79L190.854 79.3536L171.354 98.8536L171 98.5ZM190.5 79H190V75H190.5H191V79H190.5ZM190.5 75L190.114 74.6821L197.114 66.1821L197.5 66.5L197.886 66.8179L190.886 75.3179L190.5 75ZM197.5 66.5H197V64H197.5H198V66.5H197.5ZM197.5 64L197.209 63.5931L200.709 61.0931L201 61.5L201.291 61.9069L197.791 64.4069L197.5 64ZM201 61.5L200.879 61.0149L202.879 60.5149L203 61L203.121 61.4851L201.121 61.9851L201 61.5ZM203 61L202.62 60.6746L205.62 57.1746L206 57.5L206.38 57.8254L203.38 61.3254L203 61ZM206 57.5V57H208V57.5V58H206V57.5ZM208 57.5L208.165 57.0281L218.165 60.5281L218 61L217.835 61.4719L207.835 57.9719L208 57.5ZM218 61L218.447 60.7764L218.947 61.7764L218.5 62L218.053 62.2236L217.553 61.2236L218 61ZM218.5 62L218.874 61.6678L226.874 70.6678L226.5 71L226.126 71.3322L218.126 62.3322L218.5 62ZM226.5 71H227V73.5H226.5H226V71H226.5ZM226.5 73.5L226.89 73.1877L240.89 90.6877L240.5 91L240.11 91.3123L226.11 73.8123L226.5 73.5ZM240.5 91H241V94H240.5H240V91H240.5ZM240.5 94V93.5H245.5V94V94.5H240.5V94ZM245.5 94L245.9 93.7L248.9 97.7L248.5 98L248.1 98.3L245.1 94.3L245.5 94ZM248.5 98L248.993 97.9178L249.493 100.918L249 101L248.507 101.082L248.007 98.0822L248.5 98ZM249 101L249.4 100.7L252.4 104.7L252 105L251.6 105.3L248.6 101.3L249 101ZM252 105H252.5V108.5H252H251.5V105H252ZM252 108.5L252.407 108.791L249.907 112.291L249.5 112L249.093 111.709L251.593 108.209L252 108.5ZM249.5 112V112.5H248.5V112V111.5H249.5V112ZM248.5 112L248.937 112.243L246.437 116.743L246 116.5L245.563 116.257L248.063 111.757L248.5 112ZM246 116.5L245.753 116.935L227.253 106.435L227.5 106L227.747 105.565L246.247 116.065L246 116.5ZM227.5 106V106.5H215.5V106V105.5H227.5V106ZM215.5 106L215.385 106.487L206.885 104.487L207 104L207.115 103.513L215.615 105.513L215.5 106ZM207 104V104.5H201.5V104V103.5H207V104ZM201.5 104L201.704 104.456L168.204 119.456L168 119L167.796 118.544L201.296 103.544L201.5 104ZM168 119L167.513 119.112L164.513 106.112L165 106L165.487 105.888L168.487 118.888L168 119ZM198.5 196H198V187H198.5H199V196H198.5ZM198.5 187V187.5H191V187V186.5H198.5V187ZM191 187L190.646 187.354L185.146 181.854L185.5 181.5L185.854 181.146L191.354 186.646L191 187ZM185.5 181.5H185V162.5H185.5H186V181.5H185.5ZM185.5 162.5V163H158.5V162.5V162H185.5V162.5ZM158.5 162.5H158V148.5H158.5H159V162.5H158.5ZM158.5 148.5V148H165V148.5V149H158.5V148.5ZM165 148.5H165.5V153.5H165H164.5V148.5H165ZM165 153.5V153H178.5V153.5V154H165V153.5ZM178.5 153.5H178V127H178.5H179V153.5H178.5ZM178.5 127V126.5H188.5V127V127.5H178.5V127ZM188.5 127L188.12 126.675L191.12 123.175L191.5 123.5L191.88 123.825L188.88 127.325L188.5 127ZM191.5 123.5L191.276 123.053L199.276 119.053L199.5 119.5L199.724 119.947L191.724 123.947L191.5 123.5ZM199.5 119.5V119H203.5V119.5V120H199.5V119.5ZM203.5 119.5L203.084 119.223L204.084 117.723L204.5 118L204.916 118.277L203.916 119.777L203.5 119.5ZM204.5 118H204V117H204.5H205V118H204.5ZM204.5 117L204.408 116.509L212.408 115.009L212.5 115.5L212.592 115.991L204.592 117.491L204.5 117ZM212.5 115.5V115H215V115.5V116H212.5V115.5ZM215 115.5L215.27 115.079L222.27 119.579L222 120L221.73 120.421L214.73 115.921L215 115.5ZM222 120V119.5H223.5V120V120.5H222V120ZM223.5 120H224V121H223.5H223V120H223.5ZM223.5 121V120.5H226.5V121V121.5H223.5V121ZM226.5 121L226.791 120.593L233.791 125.593L233.5 126L233.209 126.407L226.209 121.407L226.5 121ZM233.5 126V125.5H254V126V126.5H233.5V126ZM254 126H254.5V150.5H254H253.5V126H254ZM254 150.5V151H239V150.5V150H254V150.5ZM239 150.5H239.5V187H239H238.5V150.5H239ZM239 187V187.5H200V187V186.5H239V187ZM200 187H200.5V196H200H199.5V187H200ZM200 196V196.5H198.5V196V195.5H200V196ZM85 179.5H84.5V161H85H85.5V179.5H85ZM85 161V160.5H90V161V161.5H85V161ZM90 161H89.5V148.5H90H90.5V161H90ZM90 148.5V148H116.61V148.5V149H90V148.5ZM116.61 148.5H117.11V149.5H116.61H116.11V148.5H116.61ZM116.61 149.5V149H141.5V149.5V150H116.61V149.5ZM141.5 149.5H141V148.5H141.5H142V149.5H141.5ZM141.5 148.5V148H148.5V148.5V149H141.5V148.5ZM148.5 148.5H149V162.5H148.5H148V148.5H148.5ZM148.5 162.5V163H115.5V162.5V162H148.5V162.5ZM115.5 162.5H116V178H115.5H115V162.5H115.5ZM115.5 178V177.5H123V178V178.5H115.5V178ZM123 178H123.5V179.5H123H122.5V178H123ZM123 179.5V180H85V179.5V179H123V179.5ZM259.5 254H259V238H259.5H260V254H259.5ZM259.5 238V238.5H239V238V237.5H259.5V238ZM239 238L238.786 238.452L229.286 233.952L229.5 233.5L229.714 233.048L239.214 237.548L239 238ZM229.5 233.5H229V200.5H229.5H230V233.5H229.5ZM229.5 200.5V200H246V200.5V201H229.5V200.5ZM246 200.5H246.5V205.5H246H245.5V200.5H246ZM246 205.5V205H262V205.5V206H246V205.5ZM262 205.5H261.5V174.5H262H262.5V205.5H262ZM262 174.5V175H251.5V174.5V174H262V174.5ZM251.5 174.5H251V171.5H251.5H252V174.5H251.5ZM251.5 171.5V171H287.5V171.5V172H251.5V171.5ZM287.5 171.5H288V188H287.5H287V171.5H287.5ZM287.5 188V187.5H302V188V188.5H287.5V188ZM302 188L302.5 187.987L303 207.487L302.5 207.5L302 207.513L301.5 188.013L302 188ZM302.5 207.5V207H307V207.5V208H302.5V207.5ZM307 207.5H307.5V209H307H306.5V207.5H307ZM307 209V209.5H302.5V209V208.5H307V209ZM302.5 209H303V233.5H302.5H302V209H302.5ZM302.5 233.5V234H270V233.5V233H302.5V233.5ZM270 233.5H270.5V246.5H270H269.5V233.5H270ZM270 246.5V246H276V246.5V247H270V246.5ZM276 246.5H276.5V247.5H276H275.5V246.5H276ZM276 247.5V248H273V247.5V247H276V247.5ZM273 247.5H273.5V254H273H272.5V247.5H273ZM273 254V254.5H259.5V254V253.5H273V254ZM173 345L172.615 345.318L153.615 322.318L154 322L154.385 321.682L173.385 344.682L173 345ZM154 322V322.5H116.5V322V321.5H154V322ZM116.5 322H117V324H116.5H116V322H116.5ZM116.5 324V324.5H114.5V324V323.5H116.5V324ZM114.5 324H114V322H114.5H115V324H114.5ZM114.5 322V322.5H109V322V321.5H114.5V322ZM109 322H108.5V305.5H109H109.5V322H109ZM109 305.5V305H114.5V305.5V306H109V305.5ZM114.5 305.5H114V287.279H114.5H115V305.5H114.5ZM114.5 287.279V287.779H104.5V287.279V286.779H114.5V287.279ZM104.5 287.279H104V237H104.5H105V287.279H104.5ZM104.5 237V236.5H121V237V237.5H104.5V237ZM121 237H121.5V240.5H121H120.5V237H121ZM121 240.5L121.224 240.053L128.224 243.553L128 244L127.776 244.447L120.776 240.947L121 240.5ZM128 244V243.5H134.5V244V244.5H128V244ZM134.5 244L134.276 243.553L141.276 240.053L141.5 240.5L141.724 240.947L134.724 244.447L134.5 244ZM141.5 240.5H141V237H141.5H142V240.5H141.5ZM141.5 237V236.5H142V237V237.5H141.5V237ZM142 237H142.5V244H142H141.5V237H142ZM142 244V243.5H160.5V244V244.5H142V244ZM160.5 244L160.146 243.646L168.146 235.646L168.5 236L168.854 236.354L160.854 244.354L160.5 244ZM168.5 236H168V227H168.5H169V236H168.5ZM168.5 227L168.146 227.354L159.646 218.854L160 218.5L160.354 218.146L168.854 226.646L168.5 227ZM160 218.5V219H142V218.5V218H160V218.5ZM142 218.5H142.5V225H142H141.5V218.5H142ZM142 225V225.5H141V225V224.5H142V225ZM141 225H140.5V179.5H141H141.5V225H141ZM141 179.5V180H132.5V179.5V179H141V179.5ZM132.5 179.5H132V178H132.5H133V179.5H132.5ZM132.5 178V177.5H134.5V178V178.5H132.5V178ZM134.5 178H134V173.5H134.5H135V178H134.5ZM134.5 173.5V173H173V173.5V174H134.5V173.5ZM173 173.5H173.5V205.5H173H172.5V173.5H173ZM173 205.5V205H198.5V205.5V206H173V205.5ZM198.5 205.5H198V203H198.5H199V205.5H198.5ZM198.5 203V202.5H200V203V203.5H198.5V203ZM200 203H200.5V205.5H200H199.5V203H200ZM200 205.5V205H214V205.5V206H200V205.5ZM214 205.5H214.5V214H214H213.5V205.5H214ZM214 214V214.5H204V214V213.5H214V214ZM204 214H204.5V234.5H204H203.5V214H204ZM204 234.5V234H214V234.5V235H204V234.5ZM214 234.5H214.5V239.5H214H213.5V234.5H214ZM214 239.5V240H212.5V239.5V239H214V239.5ZM212.5 239.5H213V250H212.5H212V239.5H212.5ZM212.5 250V249.5H214V250V250.5H212.5V250ZM214 250H214.5V255.5H214H213.5V250H214ZM214 255.5V256H199.5V255.5V255H214V255.5ZM199.5 255.5H200V270.5H199.5H199V255.5H199.5ZM199.5 270.5V270H200.5V270.5V271H199.5V270.5ZM200.5 270.5H201V273H200.5H200V270.5H200.5ZM200.5 273V273.5H199.5V273V272.5H200.5V273ZM199.5 273H200V288H199.5H199V273H199.5ZM199.5 288V287.5H218.5V288V288.5H199.5V288ZM218.5 288H218V281H218.5H219V288H218.5ZM218.5 281V280.5H225.5V281V281.5H218.5V281ZM225.5 281H226V288H225.5H225V281H225.5ZM225.5 288V287.5H236.5V288V288.5H225.5V288ZM236.5 288H237V290H236.5H236V288H236.5ZM236.5 290V290.5H228.5V290V289.5H236.5V290ZM228.5 290H229V294.5H228.5H228V290H228.5ZM228.5 294.5V295H210V294.5V294H228.5V294.5ZM210 294.5H210.5V320H210H209.5V294.5H210ZM210 320V319.5H214.5V320V320.5H210V320ZM214.5 320H215V322H214.5H214V320H214.5ZM214.5 322V322.5H205.5V322V321.5H214.5V322ZM205.5 322L205.89 322.313L187.39 345.313L187 345L186.61 344.687L205.11 321.687L205.5 322ZM187 345V345.5H173V345V344.5H187V345ZM80.5 263.5L80.0931 263.791L72.5931 253.291L73 253L73.4069 252.709L80.9069 263.209L80.5 263.5ZM73 253V253.5H70V253V252.5H73V253ZM70 253H69.5V251.5H70H70.5V253H70ZM70 251.5V251H77.5V251.5V252H70V251.5ZM77.5 251.5H77V231.5H77.5H78V251.5H77.5ZM77.5 231.5L77.1637 231.87L71.6637 226.87L72 226.5L72.3363 226.13L77.8363 231.13L77.5 231.5ZM72 226.5V227H58V226.5V226H72V226.5ZM58 226.5L58.3363 226.87L52.8363 231.87L52.5 231.5L52.1637 231.13L57.6637 226.13L58 226.5ZM52.5 231.5H53V234H52.5H52V231.5H52.5ZM52.5 234V234.5H51V234V233.5H52.5V234ZM51 234H50.5V190.5H51H51.5V234H51ZM51 190.5V190H104V190.5V191H51V190.5ZM104 190.5H104.5V202.5H104H103.5V190.5H104ZM104 202.5V202H116V202.5V203H104V202.5ZM116 202.5H116.5V225H116H115.5V202.5H116ZM116 225V224.5H121V225V225.5H116V225ZM121 225H121.5V226H121H120.5V225H121ZM121 226V226.5H104.5V226V225.5H121V226ZM104.5 226H104V211.5H104.5H105V226H104.5ZM104.5 211.5V212H84.5V211.5V211H104.5V211.5ZM84.5 211.5H85V232.5H84.5H84V211.5H84.5ZM84.5 232.5V232H89.25V232.5V233H84.5V232.5ZM89.25 232.5H89.75V241.5H89.25H88.75V232.5H89.25ZM89.25 241.5V242H84.5V241.5V241H89.25V241.5ZM84.5 241.5H85V263.5H84.5H84V241.5H84.5ZM84.5 263.5V264H80.5V263.5V263H84.5V263.5ZM232 282H231.5V272.5H232H232.5V282H232ZM232 272.5V273H208V272.5V272H232V272.5ZM208 272.5H207.5V271H208H208.5V272.5H208ZM208 271V270.5H236.5V271V271.5H208V271ZM236.5 271H237V282H236.5H236V271H236.5ZM236.5 282V282.5H232V282V281.5H236.5V282ZM58 322H57.5V295.5H58H58.5V322H58ZM58 295.5V296H38.5V295.5V295H58V295.5ZM38.5 295.5H38V285.5H38.5H39V295.5H38.5ZM38.5 285.5V285H60.5V285.5V286H38.5V285.5ZM60.5 285.5H61V320H60.5H60V285.5H60.5ZM60.5 320V319.5H99.5V320V320.5H60.5V320ZM99.5 320H100V322H99.5H99V320H99.5ZM99.5 322V322.5H58V322V321.5H99.5V322ZM259 324H258.5V322H259H259.5V324H259ZM259 322V322.5H222.5V322V321.5H259V322ZM222.5 322H222V303H222.5H223V322H222.5ZM222.5 303V302.5H228.5V303V303.5H222.5V303ZM228.5 303H229V305.5H228.5H228V303H228.5ZM228.5 305.5L228.8 305.1L230.8 306.6L230.5 307L230.2 307.4L228.2 305.9L228.5 305.5ZM230.5 307V306.5H270V307V307.5H230.5V307ZM270 307L270.354 306.646L280.354 316.646L280 317L279.646 317.354L269.646 307.354L270 307ZM280 317V317.5H260.5V317V316.5H280V317ZM260.5 317H261V324H260.5H260V317H260.5ZM260.5 324V324.5H259V324V323.5H260.5V324Z" fill="#B27C40"/>
<circle cx="2" cy="2" r="1.75" transform="matrix(1 0 0 -1 177.5 166)" stroke="#B27C40" stroke-width="0.5"/>
<circle cx="1.5" cy="1.5" r="1.25" transform="matrix(1 0 0 -1 298.5 294)" stroke="#B27C40" stroke-width="0.5"/>
<path d="M89.5 300.5H72V291.5H95V300.5H94.5M89.5 300.5V305.5H94.5V300.5M89.5 300.5H94.5M60.5 290H65V285.5H60.5M45 273H50V263.5H45M97.5 148.5V144H102V148.5M181 162.5V167.5H185.5M279 141H273.5V136H279M293 188V182.5H287.5M296 247.5V252M296 252H301M296 252H291V247.5M236.5 279H251.5V272.5H236.5M224.5 271V263.5H229V271M259.5 254H254.5V250.5H259.5M230 234H224.5V224.5H229.5" stroke="#B27C40"/>
<path d="M297.5 269V260H301" stroke="#B27C40" stroke-width="0.5"/>
<path d="M224.5 263.5V261H229V263.5M270.256 307H296M224.5 224.5V221.5H229.5M246 200.5H258.5M262 200.5H258.5M258.5 200.5V197.5H262M287.5 180H290.5V182.5M325.5 173H319.5M305 173H319.5M319.5 173V169.5H325.5M276 136V133.5H279M65.5 226.5L77.5 238.5M84.5 218H90.5V211.5M84.5 216.5H89.5V211.5M104.5 250H99V244H104.5M104.5 245H100V249H104.5M77.5 291.5V287H89.5V291.5M200 190H217.5V187M89.5 263.5H100V268H104.5M100 262.5H89.5M57.5 163.5V156.5L61.5 153H68.5L72.5 156.5V163.5L68.5 167.5H61.5L57.5 163.5ZM60.5 162.5V164.5H63.5L65 166L66.5 164.5H69.5V162.5L71 160.5L69.5 158.5V156H66.5L65 154.5L63.5 156H60.5V158.5L59 160.5L60.5 162.5Z" stroke="#B27C40" stroke-width="0.5"/>
<path d="M273.5 278V268H268.5V278M273.5 278H278.5V283H268.5V278M273.5 278H268.5" stroke="#B27C40"/>
<path d="M251.254 174.5V187.5" stroke="#B27C40" stroke-width="0.5"/>
<path d="M84.5 263.5H89.5V262.5H84.5M104.5 263.5H100V262.5H104.5M22.5 295H25.5M38.5 295H35.5M141.5 221.5H136.5V217.5H141" stroke="#B27C40"/>
<circle cx="3" cy="3" r="2.75" transform="matrix(1 0 0 -1 172.5 206)" stroke="#B27C40" stroke-width="0.5"/>
<circle cx="2" cy="2" r="1.75" transform="matrix(1 0 0 -1 238.5 154)" stroke="#B27C40" stroke-width="0.5"/>
<path d="M72.5 299.5H94.5M94.5 292.5H72.5" stroke="#B27C40" stroke-opacity="0.23"/>
<path d="M20.5 230.5H16.5L15 232.75L13.5 235L15 237.25L16.5 239.5H20.5L17.5 235L20.5 230.5Z" fill="white"/>
<path d="M360.5 196.5H356.5L355 198.75L353.5 201L355 203.25L356.5 205.5H360.5L359.167 203.5L357.5 201L359.167 198.5L360.5 196.5Z" fill="white"/>
<path d="M176.5 227H172.5L171 229.25L169.5 231.5L171 233.75L172.5 236H176.5L173.5 231.5L176.5 227Z" fill="white"/>
<path d="M211.5 240.5H207.5L206 242.75L204.5 245L206 247.25L207.5 249.5H211.5L208.5 245L211.5 240.5Z" fill="white"/>
<path d="M207.24 242.75L205.74 245L207.24 247.25H186.195L186 234H174.5H173.242V229.287H190.628V242.75H207.24Z" fill="white" fill-opacity="0.48"/>
<path d="M101.5 285H67.5V312H101.5V285ZM89 301H71.5V291H77.25V286.75H89.75V291H95.5V301H95V306H89V301Z" fill="#F08234" fill-opacity="0.23"/>
<path d="M75.2891 311V303H78.3516C78.9297 303 79.4102 303.091 79.793 303.273C80.1784 303.453 80.4661 303.699 80.6563 304.012C80.849 304.324 80.9453 304.678 80.9453 305.074C80.9453 305.4 80.8828 305.678 80.7578 305.91C80.6328 306.139 80.4648 306.326 80.2539 306.469C80.043 306.612 79.8073 306.715 79.5469 306.777V306.855C79.8307 306.871 80.1029 306.958 80.3633 307.117C80.6263 307.273 80.8411 307.495 81.0078 307.781C81.1745 308.068 81.2578 308.414 81.2578 308.82C81.2578 309.234 81.1576 309.607 80.957 309.937C80.7565 310.266 80.4544 310.525 80.0508 310.715C79.6471 310.905 79.1393 311 78.5273 311H75.2891ZM76.7383 309.789H78.2969C78.8229 309.789 79.2018 309.689 79.4336 309.488C79.668 309.285 79.7852 309.025 79.7852 308.707C79.7852 308.47 79.7266 308.257 79.6094 308.066C79.4922 307.874 79.3255 307.723 79.1094 307.613C78.8932 307.501 78.6354 307.445 78.3359 307.445H76.7383V309.789ZM76.7383 306.402H78.1719C78.4219 306.402 78.6471 306.357 78.8477 306.266C79.0482 306.172 79.2057 306.04 79.3203 305.871C79.4375 305.699 79.4961 305.496 79.4961 305.262C79.4961 304.952 79.3867 304.697 79.168 304.496C78.9518 304.296 78.6302 304.195 78.2031 304.195H76.7383V306.402Z" fill="white"/>
<path d="M283 258H244.5V272H252V279.5H244.5V298H283V258ZM268 283.5V267.5H274V277.5H279V283.5H268Z" fill="#F08234" fill-opacity="0.23"/>
<path d="M257.316 292H255.77L258.586 284H260.375L263.195 292H261.648L259.512 285.641H259.449L257.316 292ZM257.367 288.863H261.586V290.027H257.367V288.863Z" fill="white"/>
</svg>
