<svg width="416" height="474" viewBox="0 0 416 474" fill="none" xmlns="http://www.w3.org/2000/svg">
<path d="M15.1076 258.822L13.4289 261.34L15.1076 263.858H0V91.2401H415.178V225.529V226.089H402.868L401.003 223.291L402.868 220.494H410.142V96.276H5.03585V258.822H15.1076Z" fill="white" fill-opacity="0.48"/>
<path d="M224.934 426.964L228.851 406.261V375.486H289.282V373.248H291.52V375.486H330.687V353.104H319.497L330.687 341.913H336.283V314.496H325.093V299.389H336.283V275.328H319.497V274.209H366.498V249.03H358.105V232.244H351.39V230.565H365.379V237.279H385.522L392.797 229.446V217.137L385.522 209.303H365.379V216.577H363.701V166.777H322.295L311.664 161.183V114.181L273.615 75.0137H271.377V73.8945L260.185 61.0254V44.2383C260.184 43.3415 257.575 37.8969 256.269 35.2861L247.876 24.6553V22.9766L243.959 18.5H222.697L220.459 22.9766L219.899 25.2148L223.816 29.6904L212.065 38.6436L207.589 45.917V64.3818L203.673 68.2988V69.418L200.315 71.0967L197.517 74.4541L191.922 81.168L190.243 85.6445L181.85 95.1572L180.731 97.3945L177.933 98.5137L171.219 111.943L165.624 142.158V147.194L163.945 147.754L154.433 149.432H147.159L139.885 147.754H135.969L134.29 148.873H132.611L129.254 147.194H126.456L125.337 147.754H112.468L109.67 146.635H67.1453L37.489 176.29V197.553H44.7634V202.588H38.6082V248.471H24.6199V256.304H23.5007V266.936H24.6199V274.209H56.5134V271.412H58.1921V279.805H64.907V281.483H49.7986V303.865H24.6199V345.271H52.5964V375.486H127.575V373.808H129.813V375.486H170.1V406.82L173.457 421.928L186.327 455.5H212.065L224.934 426.964ZM184.089 116.979L190.803 111.384V108.586L212.625 86.7637V82.2871L220.459 72.7754V69.9775L224.376 67.1797L226.614 66.6201L229.97 62.7031H232.209L243.4 66.6201L243.96 67.7393L252.912 77.8115V80.6084L268.579 100.192V103.55H274.175L277.532 108.026L278.092 111.384L281.448 115.859V119.776L278.651 123.693H277.532L274.734 128.729L254.031 116.979H240.602L231.09 114.74H224.935L187.446 131.527L184.089 116.979ZM221.578 217.696V207.624H213.184L207.03 201.47V180.207H176.814V164.54H184.089V170.135H199.196V140.479H210.386L213.744 136.562L222.697 132.086H227.174L228.292 130.408V129.289L237.245 127.61H240.043L247.876 132.646H249.554V133.765H252.912L260.746 139.36H283.686V166.777H266.9V207.624H223.257V217.696H221.578ZM94.5623 199.231V178.528H100.158V164.54H129.937V165.659H157.79V164.54H165.624V180.207H128.694V197.553H137.088V199.231H94.5623ZM289.842 282.603V264.697H266.9L256.269 259.661V222.731H274.734V228.327H292.639V193.636H280.888V190.278H321.176V208.743H337.402L337.962 230.565H342.998V232.244H337.962V259.661H301.592V274.209H308.306V275.328H304.949V282.603H289.842ZM193.041 384.438L171.779 358.7H129.813V360.938H127.575V358.7H121.421V340.235H127.575V319.845H116.385V263.578H134.849V267.495L142.682 271.412H149.957L157.79 267.495V263.578H158.349V271.412H179.052L188.006 262.459V252.388L178.493 242.875H158.349V250.149H157.231V199.231H147.719V197.553H149.957V192.517H193.041V228.327H221.578V225.529H223.257V228.327H238.924V237.839H227.732V260.78H238.924V266.376H237.245V278.126H238.924V284.281H222.697V301.067H223.816V303.865H222.697V320.651H243.96V312.817H251.793V320.651H264.102V322.89H255.15V327.925H234.447V356.462H239.483V358.7H229.411L208.709 384.438H193.041ZM89.5261 293.233L81.1335 281.483H77.7761V279.805H86.1697V257.423L80.0144 251.828H64.3474L58.1921 257.423V260.221H56.5134V211.541H115.825V224.97H129.254V250.149H134.849V251.269H116.385V235.042H94.0027V258.542H99.3191V268.614H94.0027V293.233H89.5261ZM259.067 313.937V303.306H232.209V301.627H264.102V313.937H259.067ZM64.3474 358.7V329.044H42.5251V317.854H67.1453V356.462H110.789V358.7H64.3474ZM289.282 360.938V358.7H248.435V337.438H255.15V340.235L257.388 341.913H301.592L312.783 353.104H290.961V360.938H289.282Z" fill="#271406"/>
<path d="M224.934 426.964L225.426 427.057L225.415 427.115L225.39 427.169L224.934 426.964ZM228.851 406.261H229.351V406.308L229.343 406.354L228.851 406.261ZM228.851 375.486H228.351V374.986H228.851V375.486ZM289.282 375.486H289.782V375.986H289.282V375.486ZM289.282 373.248H288.782V372.748H289.282V373.248ZM291.52 373.248V372.748H292.02V373.248H291.52ZM291.52 375.486V375.986H291.02V375.486H291.52ZM330.687 375.486H331.187V375.986H330.687V375.486ZM330.687 353.104V352.604H331.187V353.104H330.687ZM319.497 353.104V353.604H318.29L319.143 352.751L319.497 353.104ZM330.687 341.913L330.334 341.56L330.48 341.413H330.687V341.913ZM336.283 341.913H336.783V342.413H336.283V341.913ZM336.283 314.496V313.996H336.783V314.496H336.283ZM325.093 314.496V314.996H324.593V314.496H325.093ZM325.093 299.389H324.593V298.889H325.093V299.389ZM336.283 299.389H336.783V299.889H336.283V299.389ZM336.283 275.328V274.828H336.783V275.328H336.283ZM319.497 275.328V275.828H318.997V275.328H319.497ZM319.497 274.209H318.997V273.709H319.497V274.209ZM366.498 274.209H366.998V274.709H366.498V274.209ZM366.498 249.03V248.53H366.998V249.03H366.498ZM358.105 249.03V249.53H357.605V249.03H358.105ZM358.105 232.244V231.744H358.605V232.244H358.105ZM351.39 232.244V232.744H350.89V232.244H351.39ZM351.39 230.565H350.89V230.065H351.39V230.565ZM365.379 230.565V230.065H365.879V230.565H365.379ZM365.379 237.279V237.779H364.879V237.279H365.379ZM385.522 237.279L385.889 237.62L385.74 237.779H385.522V237.279ZM392.797 229.446H393.297V229.643L393.163 229.787L392.797 229.446ZM392.797 217.137L393.163 216.796L393.297 216.94V217.137H392.797ZM385.522 209.303V208.803H385.74L385.889 208.963L385.522 209.303ZM365.379 209.303H364.879V208.803H365.379V209.303ZM365.379 216.577H365.879V217.077H365.379V216.577ZM363.701 216.577V217.077H363.201V216.577H363.701ZM363.701 166.777V166.277H364.201V166.777H363.701ZM322.295 166.777V167.277H322.171L322.062 167.22L322.295 166.777ZM311.664 161.183L311.431 161.625L311.164 161.484V161.183H311.664ZM311.664 114.181L312.022 113.832L312.164 113.978V114.181H311.664ZM273.615 75.0137V74.5137H273.826L273.974 74.6653L273.615 75.0137ZM271.377 75.0137V75.5137H270.877V75.0137H271.377ZM271.377 73.8945L271.754 73.5664L271.877 73.7075V73.8945H271.377ZM260.185 61.0254L259.808 61.3535L259.685 61.2124V61.0254H260.185ZM260.185 44.2383L260.685 44.2378V44.2383H260.185ZM256.269 35.2861L256.662 34.9763L256.694 35.0166L256.716 35.0625L256.269 35.2861ZM247.876 24.6553L247.483 24.9651L247.376 24.8289V24.6553H247.876ZM247.876 22.9766L248.252 22.6473L248.376 22.7887V22.9766H247.876ZM243.959 18.5V18H244.186L244.335 18.1707L243.959 18.5ZM222.697 18.5L222.25 18.2764L222.388 18H222.697V18.5ZM220.459 22.9766L219.974 22.8553L219.987 22.802L220.012 22.753L220.459 22.9766ZM219.899 25.2148L219.523 25.5441L219.351 25.3473L219.414 25.0936L219.899 25.2148ZM223.816 29.6904L224.192 29.3611L224.545 29.7638L224.119 30.0881L223.816 29.6904ZM212.065 38.6436L211.639 38.3815L211.688 38.3022L211.762 38.2458L212.065 38.6436ZM207.589 45.917H207.089V45.7755L207.163 45.6549L207.589 45.917ZM207.589 64.3818H208.089V64.5889L207.942 64.7353L207.589 64.3818ZM203.673 68.2988H203.173V68.0918L203.319 67.9453L203.673 68.2988ZM203.673 69.418H204.173V69.727L203.896 69.8652L203.673 69.418ZM200.315 71.0967L199.931 70.7766L199.998 70.6962L200.092 70.6495L200.315 71.0967ZM197.517 74.4541L197.901 74.7742L197.901 74.7742L197.517 74.4541ZM191.922 81.168L191.453 80.9924L191.483 80.913L191.538 80.8478L191.922 81.168ZM190.243 85.6445L190.711 85.8201L190.679 85.9063L190.618 85.9753L190.243 85.6445ZM181.85 95.1572L181.403 94.9335L181.432 94.8753L181.475 94.8264L181.85 95.1572ZM180.731 97.3945L181.178 97.6182L181.093 97.7882L180.917 97.8588L180.731 97.3945ZM177.933 98.5137L177.486 98.2901L177.571 98.12L177.748 98.0494L177.933 98.5137ZM171.219 111.943L170.728 111.852L170.741 111.783L170.772 111.72L171.219 111.943ZM165.624 142.158H165.124V142.112L165.132 142.067L165.624 142.158ZM165.624 147.194H166.124V147.555L165.782 147.669L165.624 147.194ZM163.945 147.754L164.103 148.228L164.068 148.24L164.032 148.246L163.945 147.754ZM154.433 149.432L154.52 149.924L154.477 149.932H154.433V149.432ZM147.159 149.432V149.932H147.102L147.047 149.919L147.159 149.432ZM139.885 147.754V147.254H139.941L139.997 147.267L139.885 147.754ZM135.969 147.754L135.691 147.338L135.817 147.254H135.969V147.754ZM134.29 148.873L134.567 149.289L134.441 149.373H134.29V148.873ZM132.611 148.873V149.373H132.493L132.387 149.32L132.611 148.873ZM129.254 147.194V146.694H129.372L129.477 146.747L129.254 147.194ZM126.456 147.194L126.232 146.747L126.338 146.694H126.456V147.194ZM125.337 147.754L125.56 148.201L125.455 148.254H125.337V147.754ZM112.468 147.754V148.254H112.371L112.282 148.218L112.468 147.754ZM109.67 146.635V146.135H109.766L109.855 146.171L109.67 146.635ZM67.1453 146.635L66.7917 146.281L66.9382 146.135H67.1453V146.635ZM37.489 176.29H36.989V176.083L37.1355 175.936L37.489 176.29ZM37.489 197.553V198.053H36.989V197.553H37.489ZM44.7634 197.553V197.053H45.2634V197.553H44.7634ZM44.7634 202.588H45.2634V203.088H44.7634V202.588ZM38.6082 202.588H38.1082V202.088H38.6082V202.588ZM38.6082 248.471H39.1082V248.971H38.6082V248.471ZM24.6199 248.471H24.1199V247.971H24.6199V248.471ZM24.6199 256.304H25.1199V256.804H24.6199V256.304ZM23.5007 256.304H23.0007V255.804H23.5007V256.304ZM23.5007 266.936V267.436H23.0007V266.936H23.5007ZM24.6199 266.936V266.436H25.1199V266.936H24.6199ZM24.6199 274.209V274.709H24.1199V274.209H24.6199ZM56.5134 274.209H57.0134V274.709H56.5134V274.209ZM56.5134 271.412H56.0134V270.912H56.5134V271.412ZM58.1921 271.412V270.912H58.6921V271.412H58.1921ZM58.1921 279.805V280.305H57.6921V279.805H58.1921ZM64.907 279.805V279.305H65.407V279.805H64.907ZM64.907 281.483H65.407V281.983H64.907V281.483ZM49.7986 281.483H49.2986V280.983H49.7986V281.483ZM49.7986 303.865H50.2986V304.365H49.7986V303.865ZM24.6199 303.865H24.1199V303.365H24.6199V303.865ZM24.6199 345.271V345.771H24.1199V345.271H24.6199ZM52.5964 345.271V344.771H53.0964V345.271H52.5964ZM52.5964 375.486V375.986H52.0964V375.486H52.5964ZM127.575 375.486H128.075V375.986H127.575V375.486ZM127.575 373.808H127.075V373.308H127.575V373.808ZM129.813 373.808V373.308H130.313V373.808H129.813ZM129.813 375.486V375.986H129.313V375.486H129.813ZM170.1 375.486V374.986H170.6V375.486H170.1ZM170.1 406.82L169.612 406.929L169.6 406.875V406.82H170.1ZM173.457 421.928L172.99 422.107L172.977 422.072L172.969 422.036L173.457 421.928ZM186.327 455.5V456H185.983L185.86 455.679L186.327 455.5ZM212.065 455.5L212.521 455.706L212.388 456H212.065V455.5ZM184.089 116.979L183.601 117.091L183.532 116.791L183.769 116.594L184.089 116.979ZM190.803 111.384H191.303V111.618L191.124 111.768L190.803 111.384ZM190.803 108.586H190.303V108.379L190.45 108.232L190.803 108.586ZM212.625 86.7637H213.125V86.9708L212.978 87.1172L212.625 86.7637ZM212.625 82.2871H212.125V82.1077L212.239 81.9692L212.625 82.2871ZM220.459 72.7754H220.959V72.9548L220.845 73.0933L220.459 72.7754ZM220.459 69.9775H219.959V69.7202L220.168 69.5707L220.459 69.9775ZM224.376 67.1797L224.085 66.7728L224.162 66.7176L224.254 66.6946L224.376 67.1797ZM226.614 66.6201L226.994 66.9455L226.89 67.0665L226.735 67.1052L226.614 66.6201ZM229.97 62.7031L229.591 62.3778L229.74 62.2031H229.97V62.7031ZM232.209 62.7031V62.2031H232.294L232.374 62.2312L232.209 62.7031ZM243.4 66.6201L243.565 66.1482L243.757 66.2152L243.847 66.3965L243.4 66.6201ZM243.96 67.7393L243.586 68.0714L243.542 68.022L243.513 67.9629L243.96 67.7393ZM252.912 77.8115L253.286 77.4794L253.412 77.6214V77.8115H252.912ZM252.912 80.6084L252.521 80.9207L252.412 80.7838V80.6084H252.912ZM268.579 100.192L268.969 99.88L269.079 100.017V100.192H268.579ZM268.579 103.55V104.05H268.079V103.55H268.579ZM274.175 103.55V103.05H274.425L274.575 103.25L274.175 103.55ZM277.532 108.026L277.932 107.726L278.005 107.824L278.025 107.944L277.532 108.026ZM278.092 111.384L277.692 111.684L277.618 111.586L277.598 111.466L278.092 111.384ZM281.448 115.859L281.848 115.559L281.948 115.693V115.859H281.448ZM281.448 119.776H281.948V119.937L281.855 120.067L281.448 119.776ZM278.651 123.693L279.058 123.984L278.908 124.193H278.651V123.693ZM277.532 123.693L277.095 123.451L277.238 123.193H277.532V123.693ZM274.734 128.729L275.171 128.972L274.926 129.413L274.487 129.164L274.734 128.729ZM254.031 116.979V116.479H254.163L254.278 116.544L254.031 116.979ZM240.602 116.979V117.479H240.544L240.488 117.465L240.602 116.979ZM231.09 114.74V114.24H231.148L231.204 114.254L231.09 114.74ZM224.935 114.74L224.731 114.284L224.828 114.24H224.935V114.74ZM187.446 131.527L187.65 131.984L187.096 132.232L186.959 131.64L187.446 131.527ZM221.578 217.696V218.196H221.078V217.696H221.578ZM221.578 207.624V207.124H222.078V207.624H221.578ZM213.184 207.624V208.124H212.977L212.831 207.978L213.184 207.624ZM207.03 201.47L206.676 201.823L206.53 201.677V201.47H207.03ZM207.03 180.207V179.707H207.53V180.207H207.03ZM176.814 180.207V180.707H176.314V180.207H176.814ZM176.814 164.54H176.314V164.04H176.814V164.54ZM184.089 164.54V164.04H184.589V164.54H184.089ZM184.089 170.135V170.635H183.589V170.135H184.089ZM199.196 170.135H199.696V170.635H199.196V170.135ZM199.196 140.479H198.696V139.979H199.196V140.479ZM210.386 140.479L210.766 140.805L210.616 140.979H210.386V140.479ZM213.744 136.562L213.364 136.237L213.43 136.16L213.52 136.115L213.744 136.562ZM222.697 132.086L222.473 131.639L222.579 131.586H222.697V132.086ZM227.174 132.086L227.59 132.363L227.441 132.586H227.174V132.086ZM228.292 130.408H228.792V130.56L228.708 130.685L228.292 130.408ZM228.292 129.289H227.792V128.874L228.2 128.798L228.292 129.289ZM237.245 127.61L237.153 127.119L237.198 127.11H237.245V127.61ZM240.043 127.61V127.11H240.19L240.313 127.19L240.043 127.61ZM247.876 132.646V133.146H247.729L247.605 133.066L247.876 132.646ZM249.554 132.646V132.146H250.054V132.646H249.554ZM249.554 133.765V134.265H249.054V133.765H249.554ZM252.912 133.765V133.265H253.072L253.202 133.358L252.912 133.765ZM260.746 139.36V139.86H260.586L260.455 139.767L260.746 139.36ZM283.686 139.36V138.86H284.186V139.36H283.686ZM283.686 166.777H284.186V167.277H283.686V166.777ZM266.9 166.777H266.4V166.277H266.9V166.777ZM266.9 207.624H267.4V208.124H266.9V207.624ZM223.257 207.624H222.757V207.124H223.257V207.624ZM223.257 217.696H223.757V218.196H223.257V217.696ZM94.5623 199.231V199.731H94.0623V199.231H94.5623ZM94.5623 178.528H94.0623V178.028H94.5623V178.528ZM100.158 178.528H100.658V179.028H100.158V178.528ZM100.158 164.54H99.658V164.04H100.158V164.54ZM129.937 164.54V164.04H130.437V164.54H129.937ZM129.937 165.659V166.159H129.437V165.659H129.937ZM157.79 165.659H158.29V166.159H157.79V165.659ZM157.79 164.54H157.29V164.04H157.79V164.54ZM165.624 164.54V164.04H166.124V164.54H165.624ZM165.624 180.207H166.124V180.707H165.624V180.207ZM128.694 180.207H128.194V179.707H128.694V180.207ZM128.694 197.553V198.053H128.194V197.553H128.694ZM137.088 197.553V197.053H137.588V197.553H137.088ZM137.088 199.231H137.588V199.731H137.088V199.231ZM289.842 282.603V283.103H289.342V282.603H289.842ZM289.842 264.697V264.197H290.342V264.697H289.842ZM266.9 264.697V265.197H266.788L266.686 265.149L266.9 264.697ZM256.269 259.661L256.055 260.113L255.769 259.978V259.661H256.269ZM256.269 222.731H255.769V222.231H256.269V222.731ZM274.734 222.731V222.231H275.234V222.731H274.734ZM274.734 228.327V228.827H274.234V228.327H274.734ZM292.639 228.327H293.139V228.827H292.639V228.327ZM292.639 193.636V193.136H293.139V193.636H292.639ZM280.888 193.636V194.136H280.388V193.636H280.888ZM280.888 190.278H280.388V189.778H280.888V190.278ZM321.176 190.278V189.778H321.676V190.278H321.176ZM321.176 208.743V209.243H320.676V208.743H321.176ZM337.402 208.743V208.243H337.889L337.902 208.73L337.402 208.743ZM337.962 230.565V231.065H337.474L337.462 230.578L337.962 230.565ZM342.998 230.565V230.065H343.498V230.565H342.998ZM342.998 232.244H343.498V232.744H342.998V232.244ZM337.962 232.244H337.462V231.744H337.962V232.244ZM337.962 259.661H338.462V260.161H337.962V259.661ZM301.592 259.661H301.092V259.161H301.592V259.661ZM301.592 274.209V274.709H301.092V274.209H301.592ZM308.306 274.209V273.709H308.806V274.209H308.306ZM308.306 275.328H308.806V275.828H308.306V275.328ZM304.949 275.328H304.449V274.828H304.949V275.328ZM304.949 282.603H305.449V283.103H304.949V282.603ZM193.041 384.438V384.938H192.805L192.655 384.757L193.041 384.438ZM171.779 358.7V358.2H172.015L172.165 358.382L171.779 358.7ZM129.813 358.7H129.313V358.2H129.813V358.7ZM129.813 360.938H130.313V361.438H129.813V360.938ZM127.575 360.938V361.438H127.075V360.938H127.575ZM127.575 358.7V358.2H128.075V358.7H127.575ZM121.421 358.7V359.2H120.921V358.7H121.421ZM121.421 340.235H120.921V339.735H121.421V340.235ZM127.575 340.235H128.075V340.735H127.575V340.235ZM127.575 319.845V319.345H128.075V319.845H127.575ZM116.385 319.845V320.345H115.885V319.845H116.385ZM116.385 263.578H115.885V263.078H116.385V263.578ZM134.849 263.578V263.078H135.349V263.578H134.849ZM134.849 267.495L134.626 267.942L134.349 267.804V267.495H134.849ZM142.682 271.412V271.912H142.564L142.459 271.859L142.682 271.412ZM149.957 271.412L150.18 271.859L150.075 271.912H149.957V271.412ZM157.79 267.495H158.29V267.804L158.013 267.942L157.79 267.495ZM157.79 263.578H157.29V263.078H157.79V263.578ZM158.349 263.578V263.078H158.849V263.578H158.349ZM158.349 271.412V271.912H157.849V271.412H158.349ZM179.052 271.412L179.406 271.766L179.26 271.912H179.052V271.412ZM188.006 262.459H188.506V262.666L188.359 262.813L188.006 262.459ZM188.006 252.388L188.359 252.034L188.506 252.181V252.388H188.006ZM178.493 242.875V242.375H178.7L178.846 242.521L178.493 242.875ZM158.349 242.875H157.849V242.375H158.349V242.875ZM158.349 250.149H158.849V250.649H158.349V250.149ZM157.231 250.149V250.649H156.731V250.149H157.231ZM157.231 199.231V198.731H157.731V199.231H157.231ZM147.719 199.231V199.731H147.219V199.231H147.719ZM147.719 197.553H147.219V197.053H147.719V197.553ZM149.957 197.553H150.457V198.053H149.957V197.553ZM149.957 192.517H149.457V192.017H149.957V192.517ZM193.041 192.517V192.017H193.541V192.517H193.041ZM193.041 228.327V228.827H192.541V228.327H193.041ZM221.578 228.327H222.078V228.827H221.578V228.327ZM221.578 225.529H221.078V225.029H221.578V225.529ZM223.257 225.529V225.029H223.757V225.529H223.257ZM223.257 228.327V228.827H222.757V228.327H223.257ZM238.924 228.327V227.827H239.424V228.327H238.924ZM238.924 237.839H239.424V238.339H238.924V237.839ZM227.732 237.839H227.232V237.339H227.732V237.839ZM227.732 260.78V261.28H227.232V260.78H227.732ZM238.924 260.78V260.28H239.424V260.78H238.924ZM238.924 266.376H239.424V266.876H238.924V266.376ZM237.245 266.376H236.745V265.876H237.245V266.376ZM237.245 278.126V278.626H236.745V278.126H237.245ZM238.924 278.126V277.626H239.424V278.126H238.924ZM238.924 284.281H239.424V284.781H238.924V284.281ZM222.697 284.281H222.197V283.781H222.697V284.281ZM222.697 301.067V301.567H222.197V301.067H222.697ZM223.816 301.067V300.567H224.316V301.067H223.816ZM223.816 303.865H224.316V304.365H223.816V303.865ZM222.697 303.865H222.197V303.365H222.697V303.865ZM222.697 320.651V321.151H222.197V320.651H222.697ZM243.96 320.651H244.46V321.151H243.96V320.651ZM243.96 312.817H243.46V312.317H243.96V312.817ZM251.793 312.817V312.317H252.293V312.817H251.793ZM251.793 320.651V321.151H251.293V320.651H251.793ZM264.102 320.651V320.151H264.602V320.651H264.102ZM264.102 322.89H264.602V323.39H264.102V322.89ZM255.15 322.89H254.65V322.39H255.15V322.89ZM255.15 327.925H255.65V328.425H255.15V327.925ZM234.447 327.925H233.947V327.425H234.447V327.925ZM234.447 356.462V356.962H233.947V356.462H234.447ZM239.483 356.462V355.962H239.983V356.462H239.483ZM239.483 358.7H239.983V359.2H239.483V358.7ZM229.411 358.7L229.021 358.387L229.171 358.2H229.411V358.7ZM208.709 384.438L209.098 384.752L208.948 384.938H208.709V384.438ZM89.5261 293.233V293.733H89.2688L89.1193 293.524L89.5261 293.233ZM81.1335 281.483V280.983H81.3909L81.5404 281.193L81.1335 281.483ZM77.7761 281.483V281.983H77.2761V281.483H77.7761ZM77.7761 279.805H77.2761V279.305H77.7761V279.805ZM86.1697 279.805H86.6697V280.305H86.1697V279.805ZM86.1697 257.423L86.506 257.053L86.6697 257.202V257.423H86.1697ZM80.0144 251.828V251.328H80.2077L80.3507 251.458L80.0144 251.828ZM64.3474 251.828L64.0111 251.458L64.1541 251.328H64.3474V251.828ZM58.1921 257.423H57.6921V257.202L57.8558 257.053L58.1921 257.423ZM58.1921 260.221H58.6921V260.721H58.1921V260.221ZM56.5134 260.221V260.721H56.0134V260.221H56.5134ZM56.5134 211.541H56.0134V211.041H56.5134V211.541ZM115.825 211.541V211.041H116.325V211.541H115.825ZM115.825 224.97V225.47H115.325V224.97H115.825ZM129.254 224.97V224.47H129.754V224.97H129.254ZM129.254 250.149V250.649H128.754V250.149H129.254ZM134.849 250.149V249.649H135.349V250.149H134.849ZM134.849 251.269H135.349V251.769H134.849V251.269ZM116.385 251.269V251.769H115.885V251.269H116.385ZM116.385 235.042V234.542H116.885V235.042H116.385ZM94.0027 235.042H93.5027V234.542H94.0027V235.042ZM94.0027 258.542V259.042H93.5027V258.542H94.0027ZM99.3191 258.542V258.042H99.8191V258.542H99.3191ZM99.3191 268.614H99.8191V269.114H99.3191V268.614ZM94.0027 268.614H93.5027V268.114H94.0027V268.614ZM94.0027 293.233H94.5027V293.733H94.0027V293.233ZM259.067 313.937V314.437H258.567V313.937H259.067ZM259.067 303.306V302.806H259.567V303.306H259.067ZM232.209 303.306V303.806H231.709V303.306H232.209ZM232.209 301.627H231.709V301.127H232.209V301.627ZM264.102 301.627V301.127H264.602V301.627H264.102ZM264.102 313.937H264.602V314.437H264.102V313.937ZM64.3474 358.7V359.2H63.8474V358.7H64.3474ZM64.3474 329.044V328.544H64.8474V329.044H64.3474ZM42.5251 329.044V329.544H42.0251V329.044H42.5251ZM42.5251 317.854H42.0251V317.354H42.5251V317.854ZM67.1453 317.854V317.354H67.6453V317.854H67.1453ZM67.1453 356.462V356.962H66.6453V356.462H67.1453ZM110.789 356.462V355.962H111.289V356.462H110.789ZM110.789 358.7H111.289V359.2H110.789V358.7ZM289.282 360.938V361.438H288.782V360.938H289.282ZM289.282 358.7V358.2H289.782V358.7H289.282ZM248.435 358.7V359.2H247.935V358.7H248.435ZM248.435 337.438H247.935V336.938H248.435V337.438ZM255.15 337.438V336.938H255.65V337.438H255.15ZM255.15 340.235L254.85 340.635L254.65 340.485V340.235H255.15ZM257.388 341.913V342.413H257.222L257.089 342.313L257.388 341.913ZM301.592 341.913V341.413H301.799L301.945 341.56L301.592 341.913ZM312.783 353.104L313.137 352.751L313.99 353.604H312.783V353.104ZM290.961 353.104H290.461V352.604H290.961V353.104ZM290.961 360.938H291.461V361.438H290.961V360.938ZM224.934 426.964L224.443 426.871L228.36 406.168L228.851 406.261L229.343 406.354L225.426 427.057L224.934 426.964ZM228.851 406.261H228.351V375.486H228.851H229.351V406.261H228.851ZM228.851 375.486V374.986H289.282V375.486V375.986H228.851V375.486ZM289.282 375.486H288.782V373.248H289.282H289.782V375.486H289.282ZM289.282 373.248V372.748H291.52V373.248V373.748H289.282V373.248ZM291.52 373.248H292.02V375.486H291.52H291.02V373.248H291.52ZM291.52 375.486V374.986H330.687V375.486V375.986H291.52V375.486ZM330.687 375.486H330.187V353.104H330.687H331.187V375.486H330.687ZM330.687 353.104V353.604H319.497V353.104V352.604H330.687V353.104ZM319.497 353.104L319.143 352.751L330.334 341.56L330.687 341.913L331.041 342.267L319.85 353.458L319.497 353.104ZM330.687 341.913V341.413H336.283V341.913V342.413H330.687V341.913ZM336.283 341.913H335.783V314.496H336.283H336.783V341.913H336.283ZM336.283 314.496V314.996H325.093V314.496V313.996H336.283V314.496ZM325.093 314.496H324.593V299.389H325.093H325.593V314.496H325.093ZM325.093 299.389V298.889H336.283V299.389V299.889H325.093V299.389ZM336.283 299.389H335.783V275.328H336.283H336.783V299.389H336.283ZM336.283 275.328V275.828H319.497V275.328V274.828H336.283V275.328ZM319.497 275.328H318.997V274.209H319.497H319.997V275.328H319.497ZM319.497 274.209V273.709H366.498V274.209V274.709H319.497V274.209ZM366.498 274.209H365.998V249.03H366.498H366.998V274.209H366.498ZM366.498 249.03V249.53H358.105V249.03V248.53H366.498V249.03ZM358.105 249.03H357.605V232.244H358.105H358.605V249.03H358.105ZM358.105 232.244V232.744H351.39V232.244V231.744H358.105V232.244ZM351.39 232.244H350.89V230.565H351.39H351.89V232.244H351.39ZM351.39 230.565V230.065H365.379V230.565V231.065H351.39V230.565ZM365.379 230.565H365.879V237.279H365.379H364.879V230.565H365.379ZM365.379 237.279V236.779H385.522V237.279V237.779H365.379V237.279ZM385.522 237.279L385.156 236.939L392.43 229.106L392.797 229.446L393.163 229.787L385.889 237.62L385.522 237.279ZM392.797 229.446H392.297V217.137H392.797H393.297V229.446H392.797ZM392.797 217.137L392.43 217.477L385.156 209.643L385.522 209.303L385.889 208.963L393.163 216.796L392.797 217.137ZM385.522 209.303V209.803H365.379V209.303V208.803H385.522V209.303ZM365.379 209.303H365.879V216.577H365.379H364.879V209.303H365.379ZM365.379 216.577V217.077H363.701V216.577V216.077H365.379V216.577ZM363.701 216.577H363.201V166.777H363.701H364.201V216.577H363.701ZM363.701 166.777V167.277H322.295V166.777V166.277H363.701V166.777ZM322.295 166.777L322.062 167.22L311.431 161.625L311.664 161.183L311.897 160.74L322.528 166.335L322.295 166.777ZM311.664 161.183H311.164V114.181H311.664H312.164V161.183H311.664ZM311.664 114.181L311.305 114.529L273.256 75.3621L273.615 75.0137L273.974 74.6653L312.022 113.832L311.664 114.181ZM273.615 75.0137V75.5137H271.377V75.0137V74.5137H273.615V75.0137ZM271.377 75.0137H270.877V73.8945H271.377H271.877V75.0137H271.377ZM271.377 73.8945L270.999 74.2226L259.808 61.3535L260.185 61.0254L260.563 60.6973L271.754 73.5664L271.377 73.8945ZM260.185 61.0254H259.685V44.2383H260.185H260.685V61.0254H260.185ZM260.185 44.2383L259.685 44.2388C259.685 44.2395 259.685 44.2304 259.682 44.2087C259.679 44.1878 259.675 44.1601 259.667 44.1247C259.651 44.0534 259.627 43.9623 259.593 43.8507C259.524 43.6275 259.421 43.3438 259.291 43.0106C259.03 42.3452 258.668 41.5081 258.261 40.6114C257.449 38.8193 256.473 36.8115 255.822 35.5097L256.269 35.2861L256.716 35.0625C257.371 36.3715 258.353 38.3914 259.172 40.1985C259.581 41.1014 259.952 41.9568 260.222 42.646C260.357 42.9902 260.469 43.2994 260.548 43.5558C260.621 43.7936 260.685 44.0421 260.685 44.2378L260.185 44.2383ZM256.269 35.2861L255.877 35.596L247.483 24.9651L247.876 24.6553L248.268 24.3454L256.662 34.9763L256.269 35.2861ZM247.876 24.6553H247.376V22.9766H247.876H248.376V24.6553H247.876ZM247.876 22.9766L247.499 23.3058L243.582 18.8293L243.959 18.5L244.335 18.1707L248.252 22.6473L247.876 22.9766ZM243.959 18.5V19H222.697V18.5V18H243.959V18.5ZM222.697 18.5L223.144 18.7236L220.906 23.2002L220.459 22.9766L220.012 22.753L222.25 18.2764L222.697 18.5ZM220.459 22.9766L220.944 23.0978L220.384 25.3361L219.899 25.2148L219.414 25.0936L219.974 22.8553L220.459 22.9766ZM219.899 25.2148L220.275 24.8856L224.192 29.3611L223.816 29.6904L223.44 30.0197L219.523 25.5441L219.899 25.2148ZM223.816 29.6904L224.119 30.0881L212.368 39.0413L212.065 38.6436L211.762 38.2458L223.513 29.2927L223.816 29.6904ZM212.065 38.6436L212.491 38.9056L208.014 46.1791L207.589 45.917L207.163 45.6549L211.639 38.3815L212.065 38.6436ZM207.589 45.917H208.089V64.3818H207.589H207.089V45.917H207.589ZM207.589 64.3818L207.942 64.7353L204.026 68.6523L203.673 68.2988L203.319 67.9453L207.235 64.0283L207.589 64.3818ZM203.673 68.2988H204.173V69.418H203.673H203.173V68.2988H203.673ZM203.673 69.418L203.896 69.8652L200.539 71.5439L200.315 71.0967L200.092 70.6495L203.449 68.9708L203.673 69.418ZM200.315 71.0967L200.699 71.4168L197.901 74.7742L197.517 74.4541L197.133 74.134L199.931 70.7766L200.315 71.0967ZM197.517 74.4541L197.901 74.7742L192.306 81.4881L191.922 81.168L191.538 80.8478L197.133 74.134L197.517 74.4541ZM191.922 81.168L192.39 81.3435L190.711 85.8201L190.243 85.6445L189.775 85.469L191.453 80.9924L191.922 81.168ZM190.243 85.6445L190.618 85.9753L182.225 95.488L181.85 95.1572L181.475 94.8264L189.868 85.3137L190.243 85.6445ZM181.85 95.1572L182.298 95.3809L181.178 97.6182L180.731 97.3945L180.284 97.1708L181.403 94.9335L181.85 95.1572ZM180.731 97.3945L180.917 97.8588L178.119 98.9779L177.933 98.5137L177.748 98.0494L180.546 96.9303L180.731 97.3945ZM177.933 98.5137L178.381 98.7373L171.667 112.167L171.219 111.943L170.772 111.72L177.486 98.2901L177.933 98.5137ZM171.219 111.943L171.711 112.034L166.115 142.249L165.624 142.158L165.132 142.067L170.728 111.852L171.219 111.943ZM165.624 142.158H166.124V147.194H165.624H165.124V142.158H165.624ZM165.624 147.194L165.782 147.669L164.103 148.228L163.945 147.754L163.787 147.28L165.466 146.72L165.624 147.194ZM163.945 147.754L164.032 148.246L154.52 149.924L154.433 149.432L154.346 148.939L163.858 147.262L163.945 147.754ZM154.433 149.432V149.932H147.159V149.432V148.932H154.433V149.432ZM147.159 149.432L147.047 149.919L139.772 148.241L139.885 147.754L139.997 147.267L147.271 148.944L147.159 149.432ZM139.885 147.754V148.254H135.969V147.754V147.254H139.885V147.754ZM135.969 147.754L136.246 148.17L134.567 149.289L134.29 148.873L134.012 148.457L135.691 147.338L135.969 147.754ZM134.29 148.873V149.373H132.611V148.873V148.373H134.29V148.873ZM132.611 148.873L132.387 149.32L129.03 147.642L129.254 147.194L129.477 146.747L132.835 148.426L132.611 148.873ZM129.254 147.194V147.694H126.456V147.194V146.694H129.254V147.194ZM126.456 147.194L126.679 147.642L125.56 148.201L125.337 147.754L125.113 147.307L126.232 146.747L126.456 147.194ZM125.337 147.754V148.254H112.468V147.754V147.254H125.337V147.754ZM112.468 147.754L112.282 148.218L109.484 147.099L109.67 146.635L109.855 146.171L112.653 147.29L112.468 147.754ZM109.67 146.635V147.135H67.1453V146.635V146.135H109.67V146.635ZM67.1453 146.635L67.4988 146.988L37.8426 176.644L37.489 176.29L37.1355 175.936L66.7917 146.281L67.1453 146.635ZM37.489 176.29H37.989V197.553H37.489H36.989V176.29H37.489ZM37.489 197.553V197.053H44.7634V197.553V198.053H37.489V197.553ZM44.7634 197.553H45.2634V202.588H44.7634H44.2634V197.553H44.7634ZM44.7634 202.588V203.088H38.6082V202.588V202.088H44.7634V202.588ZM38.6082 202.588H39.1082V248.471H38.6082H38.1082V202.588H38.6082ZM38.6082 248.471V248.971H24.6199V248.471V247.971H38.6082V248.471ZM24.6199 248.471H25.1199V256.304H24.6199H24.1199V248.471H24.6199ZM24.6199 256.304V256.804H23.5007V256.304V255.804H24.6199V256.304ZM23.5007 256.304H24.0007V266.936H23.5007H23.0007V256.304H23.5007ZM23.5007 266.936V266.436H24.6199V266.936V267.436H23.5007V266.936ZM24.6199 266.936H25.1199V274.209H24.6199H24.1199V266.936H24.6199ZM24.6199 274.209V273.709H56.5134V274.209V274.709H24.6199V274.209ZM56.5134 274.209H56.0134V271.412H56.5134H57.0134V274.209H56.5134ZM56.5134 271.412V270.912H58.1921V271.412V271.912H56.5134V271.412ZM58.1921 271.412H58.6921V279.805H58.1921H57.6921V271.412H58.1921ZM58.1921 279.805V279.305H64.907V279.805V280.305H58.1921V279.805ZM64.907 279.805H65.407V281.483H64.907H64.407V279.805H64.907ZM64.907 281.483V281.983H49.7986V281.483V280.983H64.907V281.483ZM49.7986 281.483H50.2986V303.865H49.7986H49.2986V281.483H49.7986ZM49.7986 303.865V304.365H24.6199V303.865V303.365H49.7986V303.865ZM24.6199 303.865H25.1199V345.271H24.6199H24.1199V303.865H24.6199ZM24.6199 345.271V344.771H52.5964V345.271V345.771H24.6199V345.271ZM52.5964 345.271H53.0964V375.486H52.5964H52.0964V345.271H52.5964ZM52.5964 375.486V374.986H127.575V375.486V375.986H52.5964V375.486ZM127.575 375.486H127.075V373.808H127.575H128.075V375.486H127.575ZM127.575 373.808V373.308H129.813V373.808V374.308H127.575V373.808ZM129.813 373.808H130.313V375.486H129.813H129.313V373.808H129.813ZM129.813 375.486V374.986H170.1V375.486V375.986H129.813V375.486ZM170.1 375.486H170.6V406.82H170.1H169.6V375.486H170.1ZM170.1 406.82L170.588 406.712L173.945 421.819L173.457 421.928L172.969 422.036L169.612 406.929L170.1 406.82ZM173.457 421.928L173.924 421.749L186.794 455.321L186.327 455.5L185.86 455.679L172.99 422.107L173.457 421.928ZM186.327 455.5V455H212.065V455.5V456H186.327V455.5ZM212.065 455.5L211.609 455.294L224.479 426.758L224.934 426.964L225.39 427.169L212.521 455.706L212.065 455.5ZM184.089 116.979L183.769 116.594L190.483 111L190.803 111.384L191.124 111.768L184.409 117.363L184.089 116.979ZM190.803 111.384H190.303V108.586H190.803H191.303V111.384H190.803ZM190.803 108.586L190.45 108.232L212.271 86.4101L212.625 86.7637L212.978 87.1172L191.157 108.939L190.803 108.586ZM212.625 86.7637H212.125V82.2871H212.625H213.125V86.7637H212.625ZM212.625 82.2871L212.239 81.9692L220.073 72.4575L220.459 72.7754L220.845 73.0933L213.011 82.605L212.625 82.2871ZM220.459 72.7754H219.959V69.9775H220.459H220.959V72.7754H220.459ZM220.459 69.9775L220.168 69.5707L224.085 66.7728L224.376 67.1797L224.666 67.5866L220.749 70.3844L220.459 69.9775ZM224.376 67.1797L224.254 66.6946L226.493 66.135L226.614 66.6201L226.735 67.1052L224.497 67.6648L224.376 67.1797ZM226.614 66.6201L226.234 66.2948L229.591 62.3778L229.97 62.7031L230.35 63.0285L226.994 66.9455L226.614 66.6201ZM229.97 62.7031V62.2031H232.209V62.7031V63.2031H229.97V62.7031ZM232.209 62.7031L232.374 62.2312L243.565 66.1482L243.4 66.6201L243.235 67.092L232.044 63.1751L232.209 62.7031ZM243.4 66.6201L243.847 66.3965L244.407 67.5157L243.96 67.7393L243.513 67.9629L242.953 66.8437L243.4 66.6201ZM243.96 67.7393L244.333 67.4071L253.286 77.4794L252.912 77.8115L252.538 78.1437L243.586 68.0714L243.96 67.7393ZM252.912 77.8115H253.412V80.6084H252.912H252.412V77.8115H252.912ZM252.912 80.6084L253.302 80.2961L268.969 99.88L268.579 100.192L268.188 100.505L252.521 80.9207L252.912 80.6084ZM268.579 100.192H269.079V103.55H268.579H268.079V100.192H268.579ZM268.579 103.55V103.05H274.175V103.55V104.05H268.579V103.55ZM274.175 103.55L274.575 103.25L277.932 107.726L277.532 108.026L277.132 108.326L273.775 103.85L274.175 103.55ZM277.532 108.026L278.025 107.944L278.585 111.302L278.092 111.384L277.598 111.466L277.039 108.109L277.532 108.026ZM278.092 111.384L278.492 111.084L281.848 115.559L281.448 115.859L281.048 116.159L277.692 111.684L278.092 111.384ZM281.448 115.859H281.948V119.776H281.448H280.948V115.859H281.448ZM281.448 119.776L281.855 120.067L279.058 123.984L278.651 123.693L278.244 123.403L281.041 119.486L281.448 119.776ZM278.651 123.693V124.193H277.532V123.693V123.193H278.651V123.693ZM277.532 123.693L277.969 123.936L275.171 128.972L274.734 128.729L274.297 128.487L277.095 123.451L277.532 123.693ZM274.734 128.729L274.487 129.164L253.784 117.413L254.031 116.979L254.278 116.544L274.981 128.295L274.734 128.729ZM254.031 116.979V117.479H240.602V116.979V116.479H254.031V116.979ZM240.602 116.979L240.488 117.465L230.975 115.227L231.09 114.74L231.204 114.254L240.717 116.492L240.602 116.979ZM231.09 114.74V115.24H224.935V114.74V114.24H231.09V114.74ZM224.935 114.74L225.14 115.197L187.65 131.984L187.446 131.527L187.242 131.071L224.731 114.284L224.935 114.74ZM187.446 131.527L186.959 131.64L183.601 117.091L184.089 116.979L184.576 116.866L187.933 131.415L187.446 131.527ZM221.578 217.696H221.078V207.624H221.578H222.078V217.696H221.578ZM221.578 207.624V208.124H213.184V207.624V207.124H221.578V207.624ZM213.184 207.624L212.831 207.978L206.676 201.823L207.03 201.47L207.384 201.116L213.538 207.27L213.184 207.624ZM207.03 201.47H206.53V180.207H207.03H207.53V201.47H207.03ZM207.03 180.207V180.707H176.814V180.207V179.707H207.03V180.207ZM176.814 180.207H176.314V164.54H176.814H177.314V180.207H176.814ZM176.814 164.54V164.04H184.089V164.54V165.04H176.814V164.54ZM184.089 164.54H184.589V170.135H184.089H183.589V164.54H184.089ZM184.089 170.135V169.635H199.196V170.135V170.635H184.089V170.135ZM199.196 170.135H198.696V140.479H199.196H199.696V170.135H199.196ZM199.196 140.479V139.979H210.386V140.479V140.979H199.196V140.479ZM210.386 140.479L210.007 140.154L213.364 136.237L213.744 136.562L214.124 136.888L210.766 140.805L210.386 140.479ZM213.744 136.562L213.52 136.115L222.473 131.639L222.697 132.086L222.921 132.533L213.968 137.01L213.744 136.562ZM222.697 132.086V131.586H227.174V132.086V132.586H222.697V132.086ZM227.174 132.086L226.758 131.809L227.876 130.131L228.292 130.408L228.708 130.685L227.59 132.363L227.174 132.086ZM228.292 130.408H227.792V129.289H228.292H228.792V130.408H228.292ZM228.292 129.289L228.2 128.798L237.153 127.119L237.245 127.61L237.337 128.102L228.384 129.78L228.292 129.289ZM237.245 127.61V127.11H240.043V127.61V128.11H237.245V127.61ZM240.043 127.61L240.313 127.19L248.146 132.225L247.876 132.646L247.605 133.066L239.772 128.031L240.043 127.61ZM247.876 132.646V132.146H249.554V132.646V133.146H247.876V132.646ZM249.554 132.646H250.054V133.765H249.554H249.054V132.646H249.554ZM249.554 133.765V133.265H252.912V133.765V134.265H249.554V133.765ZM252.912 133.765L253.202 133.358L261.036 138.953L260.746 139.36L260.455 139.767L252.621 134.172L252.912 133.765ZM260.746 139.36V138.86H283.686V139.36V139.86H260.746V139.36ZM283.686 139.36H284.186V166.777H283.686H283.186V139.36H283.686ZM283.686 166.777V167.277H266.9V166.777V166.277H283.686V166.777ZM266.9 166.777H267.4V207.624H266.9H266.4V166.777H266.9ZM266.9 207.624V208.124H223.257V207.624V207.124H266.9V207.624ZM223.257 207.624H223.757V217.696H223.257H222.757V207.624H223.257ZM223.257 217.696V218.196H221.578V217.696V217.196H223.257V217.696ZM94.5623 199.231H94.0623V178.528H94.5623H95.0623V199.231H94.5623ZM94.5623 178.528V178.028H100.158V178.528V179.028H94.5623V178.528ZM100.158 178.528H99.658V164.54H100.158H100.658V178.528H100.158ZM100.158 164.54V164.04H129.937V164.54V165.04H100.158V164.54ZM129.937 164.54H130.437V165.659H129.937H129.437V164.54H129.937ZM129.937 165.659V165.159H157.79V165.659V166.159H129.937V165.659ZM157.79 165.659H157.29V164.54H157.79H158.29V165.659H157.79ZM157.79 164.54V164.04H165.624V164.54V165.04H157.79V164.54ZM165.624 164.54H166.124V180.207H165.624H165.124V164.54H165.624ZM165.624 180.207V180.707H128.694V180.207V179.707H165.624V180.207ZM128.694 180.207H129.194V197.553H128.694H128.194V180.207H128.694ZM128.694 197.553V197.053H137.088V197.553V198.053H128.694V197.553ZM137.088 197.553H137.588V199.231H137.088H136.588V197.553H137.088ZM137.088 199.231V199.731H94.5623V199.231V198.731H137.088V199.231ZM289.842 282.603H289.342V264.697H289.842H290.342V282.603H289.842ZM289.842 264.697V265.197H266.9V264.697V264.197H289.842V264.697ZM266.9 264.697L266.686 265.149L256.055 260.113L256.269 259.661L256.483 259.209L267.114 264.245L266.9 264.697ZM256.269 259.661H255.769V222.731H256.269H256.769V259.661H256.269ZM256.269 222.731V222.231H274.734V222.731V223.231H256.269V222.731ZM274.734 222.731H275.234V228.327H274.734H274.234V222.731H274.734ZM274.734 228.327V227.827H292.639V228.327V228.827H274.734V228.327ZM292.639 228.327H292.139V193.636H292.639H293.139V228.327H292.639ZM292.639 193.636V194.136H280.888V193.636V193.136H292.639V193.636ZM280.888 193.636H280.388V190.278H280.888H281.388V193.636H280.888ZM280.888 190.278V189.778H321.176V190.278V190.778H280.888V190.278ZM321.176 190.278H321.676V208.743H321.176H320.676V190.278H321.176ZM321.176 208.743V208.243H337.402V208.743V209.243H321.176V208.743ZM337.402 208.743L337.902 208.73L338.462 230.553L337.962 230.565L337.462 230.578L336.902 208.756L337.402 208.743ZM337.962 230.565V230.065H342.998V230.565V231.065H337.962V230.565ZM342.998 230.565H343.498V232.244H342.998H342.498V230.565H342.998ZM342.998 232.244V232.744H337.962V232.244V231.744H342.998V232.244ZM337.962 232.244H338.462V259.661H337.962H337.462V232.244H337.962ZM337.962 259.661V260.161H301.592V259.661V259.161H337.962V259.661ZM301.592 259.661H302.092V274.209H301.592H301.092V259.661H301.592ZM301.592 274.209V273.709H308.306V274.209V274.709H301.592V274.209ZM308.306 274.209H308.806V275.328H308.306H307.806V274.209H308.306ZM308.306 275.328V275.828H304.949V275.328V274.828H308.306V275.328ZM304.949 275.328H305.449V282.603H304.949H304.449V275.328H304.949ZM304.949 282.603V283.103H289.842V282.603V282.103H304.949V282.603ZM193.041 384.438L192.655 384.757L171.394 359.019L171.779 358.7L172.165 358.382L193.426 384.12L193.041 384.438ZM171.779 358.7V359.2H129.813V358.7V358.2H171.779V358.7ZM129.813 358.7H130.313V360.938H129.813H129.313V358.7H129.813ZM129.813 360.938V361.438H127.575V360.938V360.438H129.813V360.938ZM127.575 360.938H127.075V358.7H127.575H128.075V360.938H127.575ZM127.575 358.7V359.2H121.421V358.7V358.2H127.575V358.7ZM121.421 358.7H120.921V340.235H121.421H121.921V358.7H121.421ZM121.421 340.235V339.735H127.575V340.235V340.735H121.421V340.235ZM127.575 340.235H127.075V319.845H127.575H128.075V340.235H127.575ZM127.575 319.845V320.345H116.385V319.845V319.345H127.575V319.845ZM116.385 319.845H115.885V263.578H116.385H116.885V319.845H116.385ZM116.385 263.578V263.078H134.849V263.578V264.078H116.385V263.578ZM134.849 263.578H135.349V267.495H134.849H134.349V263.578H134.849ZM134.849 267.495L135.073 267.048L142.906 270.965L142.682 271.412L142.459 271.859L134.626 267.942L134.849 267.495ZM142.682 271.412V270.912H149.957V271.412V271.912H142.682V271.412ZM149.957 271.412L149.733 270.965L157.566 267.048L157.79 267.495L158.013 267.942L150.18 271.859L149.957 271.412ZM157.79 267.495H157.29V263.578H157.79H158.29V267.495H157.79ZM157.79 263.578V263.078H158.349V263.578V264.078H157.79V263.578ZM158.349 263.578H158.849V271.412H158.349H157.849V263.578H158.349ZM158.349 271.412V270.912H179.052V271.412V271.912H158.349V271.412ZM179.052 271.412L178.699 271.059L187.652 262.105L188.006 262.459L188.359 262.813L179.406 271.766L179.052 271.412ZM188.006 262.459H187.506V252.388H188.006H188.506V262.459H188.006ZM188.006 252.388L187.652 252.741L178.139 243.229L178.493 242.875L178.846 242.521L188.359 252.034L188.006 252.388ZM178.493 242.875V243.375H158.349V242.875V242.375H178.493V242.875ZM158.349 242.875H158.849V250.149H158.349H157.849V242.875H158.349ZM158.349 250.149V250.649H157.231V250.149V249.649H158.349V250.149ZM157.231 250.149H156.731V199.231H157.231H157.731V250.149H157.231ZM157.231 199.231V199.731H147.719V199.231V198.731H157.231V199.231ZM147.719 199.231H147.219V197.553H147.719H148.219V199.231H147.719ZM147.719 197.553V197.053H149.957V197.553V198.053H147.719V197.553ZM149.957 197.553H149.457V192.517H149.957H150.457V197.553H149.957ZM149.957 192.517V192.017H193.041V192.517V193.017H149.957V192.517ZM193.041 192.517H193.541V228.327H193.041H192.541V192.517H193.041ZM193.041 228.327V227.827H221.578V228.327V228.827H193.041V228.327ZM221.578 228.327H221.078V225.529H221.578H222.078V228.327H221.578ZM221.578 225.529V225.029H223.257V225.529V226.029H221.578V225.529ZM223.257 225.529H223.757V228.327H223.257H222.757V225.529H223.257ZM223.257 228.327V227.827H238.924V228.327V228.827H223.257V228.327ZM238.924 228.327H239.424V237.839H238.924H238.424V228.327H238.924ZM238.924 237.839V238.339H227.732V237.839V237.339H238.924V237.839ZM227.732 237.839H228.232V260.78H227.732H227.232V237.839H227.732ZM227.732 260.78V260.28H238.924V260.78V261.28H227.732V260.78ZM238.924 260.78H239.424V266.376H238.924H238.424V260.78H238.924ZM238.924 266.376V266.876H237.245V266.376V265.876H238.924V266.376ZM237.245 266.376H237.745V278.126H237.245H236.745V266.376H237.245ZM237.245 278.126V277.626H238.924V278.126V278.626H237.245V278.126ZM238.924 278.126H239.424V284.281H238.924H238.424V278.126H238.924ZM238.924 284.281V284.781H222.697V284.281V283.781H238.924V284.281ZM222.697 284.281H223.197V301.067H222.697H222.197V284.281H222.697ZM222.697 301.067V300.567H223.816V301.067V301.567H222.697V301.067ZM223.816 301.067H224.316V303.865H223.816H223.316V301.067H223.816ZM223.816 303.865V304.365H222.697V303.865V303.365H223.816V303.865ZM222.697 303.865H223.197V320.651H222.697H222.197V303.865H222.697ZM222.697 320.651V320.151H243.96V320.651V321.151H222.697V320.651ZM243.96 320.651H243.46V312.817H243.96H244.46V320.651H243.96ZM243.96 312.817V312.317H251.793V312.817V313.317H243.96V312.817ZM251.793 312.817H252.293V320.651H251.793H251.293V312.817H251.793ZM251.793 320.651V320.151H264.102V320.651V321.151H251.793V320.651ZM264.102 320.651H264.602V322.89H264.102H263.602V320.651H264.102ZM264.102 322.89V323.39H255.15V322.89V322.39H264.102V322.89ZM255.15 322.89H255.65V327.925H255.15H254.65V322.89H255.15ZM255.15 327.925V328.425H234.447V327.925V327.425H255.15V327.925ZM234.447 327.925H234.947V356.462H234.447H233.947V327.925H234.447ZM234.447 356.462V355.962H239.483V356.462V356.962H234.447V356.462ZM239.483 356.462H239.983V358.7H239.483H238.983V356.462H239.483ZM239.483 358.7V359.2H229.411V358.7V358.2H239.483V358.7ZM229.411 358.7L229.8 359.014L209.098 384.752L208.709 384.438L208.319 384.125L229.021 358.387L229.411 358.7ZM208.709 384.438V384.938H193.041V384.438V383.938H208.709V384.438ZM89.5261 293.233L89.1193 293.524L80.7267 281.774L81.1335 281.483L81.5404 281.193L89.933 292.943L89.5261 293.233ZM81.1335 281.483V281.983H77.7761V281.483V280.983H81.1335V281.483ZM77.7761 281.483H77.2761V279.805H77.7761H78.2761V281.483H77.7761ZM77.7761 279.805V279.305H86.1697V279.805V280.305H77.7761V279.805ZM86.1697 279.805H85.6697V257.423H86.1697H86.6697V279.805H86.1697ZM86.1697 257.423L85.8334 257.793L79.6781 252.198L80.0144 251.828L80.3507 251.458L86.506 257.053L86.1697 257.423ZM80.0144 251.828V252.328H64.3474V251.828V251.328H80.0144V251.828ZM64.3474 251.828L64.6837 252.198L58.5284 257.793L58.1921 257.423L57.8558 257.053L64.0111 251.458L64.3474 251.828ZM58.1921 257.423H58.6921V260.221H58.1921H57.6921V257.423H58.1921ZM58.1921 260.221V260.721H56.5134V260.221V259.721H58.1921V260.221ZM56.5134 260.221H56.0134V211.541H56.5134H57.0134V260.221H56.5134ZM56.5134 211.541V211.041H115.825V211.541V212.041H56.5134V211.541ZM115.825 211.541H116.325V224.97H115.825H115.325V211.541H115.825ZM115.825 224.97V224.47H129.254V224.97V225.47H115.825V224.97ZM129.254 224.97H129.754V250.149H129.254H128.754V224.97H129.254ZM129.254 250.149V249.649H134.849V250.149V250.649H129.254V250.149ZM134.849 250.149H135.349V251.269H134.849H134.349V250.149H134.849ZM134.849 251.269V251.769H116.385V251.269V250.769H134.849V251.269ZM116.385 251.269H115.885V235.042H116.385H116.885V251.269H116.385ZM116.385 235.042V235.542H94.0027V235.042V234.542H116.385V235.042ZM94.0027 235.042H94.5027V258.542H94.0027H93.5027V235.042H94.0027ZM94.0027 258.542V258.042H99.3191V258.542V259.042H94.0027V258.542ZM99.3191 258.542H99.8191V268.614H99.3191H98.8191V258.542H99.3191ZM99.3191 268.614V269.114H94.0027V268.614V268.114H99.3191V268.614ZM94.0027 268.614H94.5027V293.233H94.0027H93.5027V268.614H94.0027ZM94.0027 293.233V293.733H89.5261V293.233V292.733H94.0027V293.233ZM259.067 313.937H258.567V303.306H259.067H259.567V313.937H259.067ZM259.067 303.306V303.806H232.209V303.306V302.806H259.067V303.306ZM232.209 303.306H231.709V301.627H232.209H232.709V303.306H232.209ZM232.209 301.627V301.127H264.102V301.627V302.127H232.209V301.627ZM264.102 301.627H264.602V313.937H264.102H263.602V301.627H264.102ZM264.102 313.937V314.437H259.067V313.937V313.437H264.102V313.937ZM64.3474 358.7H63.8474V329.044H64.3474H64.8474V358.7H64.3474ZM64.3474 329.044V329.544H42.5251V329.044V328.544H64.3474V329.044ZM42.5251 329.044H42.0251V317.854H42.5251H43.0251V329.044H42.5251ZM42.5251 317.854V317.354H67.1453V317.854V318.354H42.5251V317.854ZM67.1453 317.854H67.6453V356.462H67.1453H66.6453V317.854H67.1453ZM67.1453 356.462V355.962H110.789V356.462V356.962H67.1453V356.462ZM110.789 356.462H111.289V358.7H110.789H110.289V356.462H110.789ZM110.789 358.7V359.2H64.3474V358.7V358.2H110.789V358.7ZM289.282 360.938H288.782V358.7H289.282H289.782V360.938H289.282ZM289.282 358.7V359.2H248.435V358.7V358.2H289.282V358.7ZM248.435 358.7H247.935V337.438H248.435H248.935V358.7H248.435ZM248.435 337.438V336.938H255.15V337.438V337.938H248.435V337.438ZM255.15 337.438H255.65V340.235H255.15H254.65V337.438H255.15ZM255.15 340.235L255.45 339.835L257.688 341.513L257.388 341.913L257.089 342.313L254.85 340.635L255.15 340.235ZM257.388 341.913V341.413H301.592V341.913V342.413H257.388V341.913ZM301.592 341.913L301.945 341.56L313.137 352.751L312.783 353.104L312.429 353.458L301.238 342.267L301.592 341.913ZM312.783 353.104V353.604H290.961V353.104V352.604H312.783V353.104ZM290.961 353.104H291.461V360.938H290.961H290.461V353.104H290.961ZM290.961 360.938V361.438H289.282V360.938V360.438H290.961V360.938Z" fill="#B27C40"/>
<circle cx="2.23816" cy="2.23816" r="1.98816" transform="matrix(1 0 0 -1 198.077 184.124)" stroke="#B27C40" stroke-width="0.5"/>
<circle cx="1.67862" cy="1.67862" r="1.42862" transform="matrix(1 0 0 -1 333.485 327.366)" stroke="#B27C40" stroke-width="0.5"/>
<path d="M99.5981 334.64H80.0142V324.568H105.753V334.64H105.193M99.5981 334.64V340.235H105.193V334.64M99.5981 334.64H105.193M67.1448 322.889H72.1806V317.853H67.1448M49.7991 303.865H55.3945V293.234H49.7991M108.551 164.54V159.504H113.587V164.54M201.994 180.207V185.802H207.03M311.663 156.147H305.508V150.551H311.663M327.33 208.743V202.588H321.176M330.688 275.328V280.364M330.688 280.364H336.283M330.688 280.364H325.092V275.328M264.103 310.579H280.889V303.305H264.103M250.674 301.627V293.234H255.709V301.627M289.841 282.602H284.246V278.686H289.841M256.829 260.221H250.674V249.59H256.269" stroke="#B27C40"/>
<path d="M332.366 299.389V289.317H336.283" stroke="#B27C40" stroke-width="0.5"/>
<path d="M250.673 293.234V290.436H255.709V293.234M301.878 341.914H330.687M250.673 249.59V246.232H256.269M274.734 222.732H288.722M292.639 222.732H288.722M288.722 222.732V219.375H292.639M321.175 199.791H324.533V202.588M363.7 191.957H356.986M340.759 191.957H356.986M356.986 191.957V188.04H363.7M308.306 150.551V147.754H311.663M72.74 251.828L86.1689 265.257M94.0025 242.316H100.717V235.042M94.0025 240.637H99.5979V235.042M116.384 278.126H110.229V271.412H116.384M116.384 272.531H111.348V277.007H116.384M86.1689 324.568V319.532H99.5979V324.568M223.256 210.981H242.84V207.624M99.5979 293.234H111.348V298.27H116.384M111.348 292.115H99.5979M63.7874 181.326V173.492L68.2637 169.576H76.0972L80.5735 173.492V181.326L76.0972 185.802H68.2637L63.7874 181.326ZM67.1446 180.207V182.445H70.5018L72.1804 184.124L73.8591 182.445H77.2163V180.207L78.8949 177.969L77.2163 175.73V172.933H73.8591L72.1804 171.254L70.5018 172.933H67.1446V175.73L65.466 177.969L67.1446 180.207Z" stroke="#B27C40" stroke-width="0.5"/>
<path d="M305.508 309.46V298.269H299.913V309.46M305.508 309.46H311.104V315.056H299.913V309.46M305.508 309.46H299.913" stroke="#B27C40"/>
<path d="M280.613 193.636V208.184" stroke="#B27C40" stroke-width="0.5"/>
<path d="M94.0025 293.234H99.5979V292.115H94.0025M116.384 293.234H111.348V292.115H116.384M24.6196 328.485H27.9769M42.5249 328.485H39.1676M157.79 246.232H152.195V241.756H157.23" stroke="#B27C40"/>
<circle cx="3.35723" cy="3.35723" r="3.10723" transform="matrix(1 0 0 -1 192.481 228.887)" stroke="#B27C40" stroke-width="0.5"/>
<circle cx="2.23816" cy="2.23816" r="1.98816" transform="matrix(1 0 0 -1 266.341 170.695)" stroke="#B27C40" stroke-width="0.5"/>
<path d="M80.5737 333.521H105.193M105.193 325.687H80.5737" stroke="#B27C40" stroke-opacity="0.23"/>
<path d="M22.3816 256.304H17.9053L16.2267 258.822L14.5481 261.34L16.2267 263.858L17.9053 266.376H22.3816L19.0244 261.34L22.3816 256.304Z" fill="white"/>
<path d="M402.868 218.255H398.392L396.713 220.773L395.035 223.291L396.713 225.809L398.392 228.327H402.868L401.376 226.089L399.511 223.291L401.376 220.494L402.868 218.255Z" fill="white"/>
<path d="M196.958 252.387H192.482L190.803 254.905L189.124 257.423L190.803 259.941L192.482 262.459H196.958L193.601 257.423L196.958 252.387Z" fill="white"/>
<path d="M236.126 267.495H231.649L229.971 270.013L228.292 272.531L229.971 275.049L231.649 277.567H236.126L232.768 272.531L236.126 267.495Z" fill="white"/>
<path d="M231.358 270.013L229.679 272.531L231.358 275.049H207.807L207.589 260.221H194.719H193.312V254.947H212.768V270.013H231.358Z" fill="white" fill-opacity="0.48"/>
<path d="M113.027 317.294H74.9783V347.509H113.027V317.294ZM99.0984 335.139H79.5144V324.068H85.9197V319.281H99.8484V324.068H106.254V335.139H105.694V340.734H99.0984V335.139Z" fill="#F08234" fill-opacity="0.23"/>
<path d="M316.14 287.079H273.055V331.842H316.14V287.079ZM299.413 315.556V297.77H306.008V308.96H311.604V315.556H299.413ZM273.115 311.079V302.806H281.389V311.079H273.115Z" fill="#F08234" fill-opacity="0.23"/>
<path d="M83.6008 345.08V337.08H86.6633C87.2415 337.08 87.7219 337.171 88.1047 337.354C88.4902 337.533 88.7779 337.779 88.968 338.092C89.1607 338.404 89.2571 338.758 89.2571 339.154C89.2571 339.48 89.1946 339.758 89.0696 339.99C88.9446 340.219 88.7766 340.406 88.5657 340.549C88.3547 340.692 88.1191 340.795 87.8586 340.857V340.936C88.1425 340.951 88.4146 341.038 88.675 341.197C88.9381 341.354 89.1529 341.575 89.3196 341.861C89.4862 342.148 89.5696 342.494 89.5696 342.9C89.5696 343.314 89.4693 343.687 89.2688 344.018C89.0683 344.346 88.7662 344.605 88.3625 344.795C87.9589 344.985 87.4511 345.08 86.8391 345.08H83.6008ZM85.05 343.869H86.6086C87.1347 343.869 87.5136 343.769 87.7454 343.568C87.9797 343.365 88.0969 343.105 88.0969 342.787C88.0969 342.55 88.0383 342.337 87.9211 342.146C87.804 341.954 87.6373 341.803 87.4211 341.693C87.205 341.581 86.9472 341.525 86.6477 341.525H85.05V343.869ZM85.05 340.482H86.4836C86.7336 340.482 86.9589 340.437 87.1594 340.346C87.3599 340.252 87.5175 340.12 87.6321 339.951C87.7493 339.779 87.8079 339.576 87.8079 339.342C87.8079 339.032 87.6985 338.777 87.4797 338.576C87.2636 338.376 86.942 338.275 86.5149 338.275H85.05V340.482Z" fill="white"/>
<path d="M287.181 323.818H285.635L288.451 315.818H290.24L293.06 323.818H291.513L289.377 317.458H289.314L287.181 323.818ZM287.232 320.681H291.451V321.845H287.232V320.681Z" fill="white"/>
</svg>
