<svg width="341" height="421" viewBox="0 0 341 421" fill="none" xmlns="http://www.w3.org/2000/svg">
<path d="M181 381.5H216V350.5H237.5V361.5H294.5V316H281V305H314.5V288.5H316.5V299.5H340V239.5H328.5V237.5H340V214.5H306V203H303.5V192.738H317.228V158H272.5V113H227V96.5H238.5V65.5H224.5V63.5L194.5 43.5L190.5 41.5V20L189 18.5H152.5L151 21V39.5L102.5 56.791V98.5H113.5L113.796 124H68.5V169.5H80V197.5H77.7188V186H24V215.5H37.5V225.5H24V249H34.5V259.5H1V316.5H37.7266V326.728H23.7139V361.5H80.5V350.5H125V381.5H155V403H181V381.5ZM193.5 147V113H138.5V124H137V80H204V147H193.5ZM103.5 248.5V225.5H55.5V215.5H103.5V149.5H92V147.5H137V136H158.5V169.5H147.5V192.5H158.5V203H147.5V237.5H162V248.5H137L128.5 239.5H113.5V248.5H103.5ZM215.5 231.5V215H227V192H194.5V203H193V169.5H182V158.5H227V136H237.5V192.5H272.5V181.5H283V192.5H285.5V203H282.5L261 214.5H237.5V231.5H215.5ZM258 338.5V327H227V316H205V282H176.5V271.5H188V248.5H179V237.5H192V215H204V217H198V254.5H227V243H249V271.5H294V282H249V305H263V316H260.5V338.5H258ZM314.5 276.5V239.5H274.304V259.5H272.5V237.5H316.5V276.5H314.5ZM58 338.5V327H55.5V316.5H58V305H92V287.5H80.5V282.5H92V260H113.5V269H145.5V260H147.5V271.5H164.5V282H136V316H113.5V327H60V338.5H58ZM24.5 293.5V271.5H26.5V282.5H68.583V293.5H24.5ZM159.732 349L148.5 328V294H192.5V327.699L181 349H159.732Z" fill="#271406"/>
<path d="M181 381.5H180.5V381H181V381.5ZM216 381.5H216.5V382H216V381.5ZM216 350.5H215.5V350H216V350.5ZM237.5 350.5V350H238V350.5H237.5ZM237.5 361.5V362H237V361.5H237.5ZM294.5 361.5H295V362H294.5V361.5ZM294.5 316V315.5H295V316H294.5ZM281 316V316.5H280.5V316H281ZM281 305H280.5V304.5H281V305ZM314.5 305H315V305.5H314.5V305ZM314.5 288.5H314V288H314.5V288.5ZM316.5 288.5V288H317V288.5H316.5ZM316.5 299.5V300H316V299.5H316.5ZM340 299.5H340.5V300H340V299.5ZM340 239.5V239H340.5V239.5H340ZM328.5 239.5V240H328V239.5H328.5ZM328.5 237.5H328V237H328.5V237.5ZM340 237.5H340.5V238H340V237.5ZM340 214.5V214H340.5V214.5H340ZM306 214.5V215H305.5V214.5H306ZM306 203V202.5H306.5V203H306ZM303.5 203V203.5H303V203H303.5ZM303.5 192.738H303V192.238H303.5V192.738ZM317.228 192.738H317.728V193.238H317.228V192.738ZM317.228 158V157.5H317.728V158H317.228ZM272.5 158V158.5H272V158H272.5ZM272.5 113V112.5H273V113H272.5ZM227 113V113.5H226.5V113H227ZM227 96.5H226.5V96H227V96.5ZM238.5 96.5H239V97H238.5V96.5ZM238.5 65.5V65H239V65.5H238.5ZM224.5 65.5V66H224V65.5H224.5ZM224.5 63.5L224.777 63.084L225 63.2324V63.5H224.5ZM194.5 43.5L194.724 43.0528L194.751 43.0667L194.777 43.084L194.5 43.5ZM190.5 41.5L190.276 41.9472L190 41.809V41.5H190.5ZM190.5 20L190.854 19.6464L191 19.7929V20H190.5ZM189 18.5V18H189.207L189.354 18.1464L189 18.5ZM152.5 18.5L152.071 18.2428L152.217 18H152.5V18.5ZM151 21H150.5V20.8615L150.571 20.7428L151 21ZM151 39.5H151.5V39.8526L151.168 39.971L151 39.5ZM102.5 56.791H102V56.4384L102.332 56.3201L102.5 56.791ZM102.5 98.5V99H102V98.5H102.5ZM113.5 98.5V98H113.994L114 98.4942L113.5 98.5ZM113.796 124L114.296 123.994L114.302 124.5H113.796V124ZM68.5 124H68V123.5H68.5V124ZM68.5 169.5V170H68V169.5H68.5ZM80 169.5V169H80.5V169.5H80ZM80 197.5H80.5V198H80V197.5ZM77.7188 197.5V198H77.2188V197.5H77.7188ZM77.7188 186V185.5H78.2188V186H77.7188ZM24 186H23.5V185.5H24V186ZM24 215.5V216H23.5V215.5H24ZM37.5 215.5V215H38V215.5H37.5ZM37.5 225.5H38V226H37.5V225.5ZM24 225.5H23.5V225H24V225.5ZM24 249V249.5H23.5V249H24ZM34.5 249V248.5H35V249H34.5ZM34.5 259.5H35V260H34.5V259.5ZM1 259.5H0.5V259H1V259.5ZM1 316.5V317H0.5V316.5H1ZM37.7266 316.5V316H38.2266V316.5H37.7266ZM37.7266 326.728H38.2266V327.228H37.7266V326.728ZM23.7139 326.728H23.2139V326.228H23.7139V326.728ZM23.7139 361.5V362H23.2139V361.5H23.7139ZM80.5 361.5H81V362H80.5V361.5ZM80.5 350.5H80V350H80.5V350.5ZM125 350.5V350H125.5V350.5H125ZM125 381.5V382H124.5V381.5H125ZM155 381.5V381H155.5V381.5H155ZM155 403V403.5H154.5V403H155ZM181 403H181.5V403.5H181V403ZM193.5 147V147.5H193V147H193.5ZM193.5 113V112.5H194V113H193.5ZM138.5 113H138V112.5H138.5V113ZM138.5 124H139V124.5H138.5V124ZM137 124V124.5H136.5V124H137ZM137 80H136.5V79.5H137V80ZM204 80V79.5H204.5V80H204ZM204 147H204.5V147.5H204V147ZM103.5 248.5V249H103V248.5H103.5ZM103.5 225.5V225H104V225.5H103.5ZM55.5 225.5V226H55V225.5H55.5ZM55.5 215.5H55V215H55.5V215.5ZM103.5 215.5H104V216H103.5V215.5ZM103.5 149.5V149H104V149.5H103.5ZM92 149.5V150H91.5V149.5H92ZM92 147.5H91.5V147H92V147.5ZM137 147.5H137.5V148H137V147.5ZM137 136H136.5V135.5H137V136ZM158.5 136V135.5H159V136H158.5ZM158.5 169.5H159V170H158.5V169.5ZM147.5 169.5H147V169H147.5V169.5ZM147.5 192.5V193H147V192.5H147.5ZM158.5 192.5V192H159V192.5H158.5ZM158.5 203H159V203.5H158.5V203ZM147.5 203H147V202.5H147.5V203ZM147.5 237.5V238H147V237.5H147.5ZM162 237.5V237H162.5V237.5H162ZM162 248.5H162.5V249H162V248.5ZM137 248.5V249H136.784L136.636 248.843L137 248.5ZM128.5 239.5V239H128.716L128.864 239.157L128.5 239.5ZM113.5 239.5H113V239H113.5V239.5ZM113.5 248.5H114V249H113.5V248.5ZM215.5 231.5V232H215V231.5H215.5ZM215.5 215H215V214.5H215.5V215ZM227 215H227.5V215.5H227V215ZM227 192V191.5H227.5V192H227ZM194.5 192H194V191.5H194.5V192ZM194.5 203H195V203.5H194.5V203ZM193 203V203.5H192.5V203H193ZM193 169.5V169H193.5V169.5H193ZM182 169.5V170H181.5V169.5H182ZM182 158.5H181.5V158H182V158.5ZM227 158.5H227.5V159H227V158.5ZM227 136H226.5V135.5H227V136ZM237.5 136V135.5H238V136H237.5ZM237.5 192.5V193H237V192.5H237.5ZM272.5 192.5H273V193H272.5V192.5ZM272.5 181.5H272V181H272.5V181.5ZM283 181.5V181H283.5V181.5H283ZM283 192.5V193H282.5V192.5H283ZM285.5 192.5V192H286V192.5H285.5ZM285.5 203H286V203.5H285.5V203ZM282.5 203L282.264 202.559L282.375 202.5H282.5V203ZM261 214.5L261.236 214.941L261.125 215H261V214.5ZM237.5 214.5H237V214H237.5V214.5ZM237.5 231.5H238V232H237.5V231.5ZM258 338.5V339H257.5V338.5H258ZM258 327V326.5H258.5V327H258ZM227 327V327.5H226.5V327H227ZM227 316V315.5H227.5V316H227ZM205 316V316.5H204.5V316H205ZM205 282V281.5H205.5V282H205ZM176.5 282V282.5H176V282H176.5ZM176.5 271.5H176V271H176.5V271.5ZM188 271.5H188.5V272H188V271.5ZM188 248.5V248H188.5V248.5H188ZM179 248.5V249H178.5V248.5H179ZM179 237.5H178.5V237H179V237.5ZM192 237.5H192.5V238H192V237.5ZM192 215H191.5V214.5H192V215ZM204 215V214.5H204.5V215H204ZM204 217H204.5V217.5H204V217ZM198 217H197.5V216.5H198V217ZM198 254.5V255H197.5V254.5H198ZM227 254.5H227.5V255H227V254.5ZM227 243H226.5V242.5H227V243ZM249 243V242.5H249.5V243H249ZM249 271.5V272H248.5V271.5H249ZM294 271.5V271H294.5V271.5H294ZM294 282H294.5V282.5H294V282ZM249 282H248.5V281.5H249V282ZM249 305V305.5H248.5V305H249ZM263 305V304.5H263.5V305H263ZM263 316H263.5V316.5H263V316ZM260.5 316H260V315.5H260.5V316ZM260.5 338.5H261V339H260.5V338.5ZM314.5 276.5V277H314V276.5H314.5ZM314.5 239.5V239H315V239.5H314.5ZM274.304 239.5H273.804V239H274.304V239.5ZM274.304 259.5H274.804V260H274.304V259.5ZM272.5 259.5V260H272V259.5H272.5ZM272.5 237.5H272V237H272.5V237.5ZM316.5 237.5V237H317V237.5H316.5ZM316.5 276.5H317V277H316.5V276.5ZM58 338.5V339H57.5V338.5H58ZM58 327V326.5H58.5V327H58ZM55.5 327V327.5H55V327H55.5ZM55.5 316.5H55V316H55.5V316.5ZM58 316.5H58.5V317H58V316.5ZM58 305H57.5V304.5H58V305ZM92 305H92.5V305.5H92V305ZM92 287.5V287H92.5V287.5H92ZM80.5 287.5V288H80V287.5H80.5ZM80.5 282.5H80V282H80.5V282.5ZM92 282.5H92.5V283H92V282.5ZM92 260H91.5V259.5H92V260ZM113.5 260V259.5H114V260H113.5ZM113.5 269V269.5H113V269H113.5ZM145.5 269H146V269.5H145.5V269ZM145.5 260H145V259.5H145.5V260ZM147.5 260V259.5H148V260H147.5ZM147.5 271.5V272H147V271.5H147.5ZM164.5 271.5V271H165V271.5H164.5ZM164.5 282H165V282.5H164.5V282ZM136 282H135.5V281.5H136V282ZM136 316H136.5V316.5H136V316ZM113.5 316H113V315.5H113.5V316ZM113.5 327H114V327.5H113.5V327ZM60 327H59.5V326.5H60V327ZM60 338.5H60.5V339H60V338.5ZM24.5 293.5V294H24V293.5H24.5ZM24.5 271.5H24V271H24.5V271.5ZM26.5 271.5V271H27V271.5H26.5ZM26.5 282.5V283H26V282.5H26.5ZM68.583 282.5V282H69.083V282.5H68.583ZM68.583 293.5H69.083V294H68.583V293.5ZM159.732 349V349.5H159.433L159.292 349.236L159.732 349ZM148.5 328L148.059 328.236L148 328.125V328H148.5ZM148.5 294H148V293.5H148.5V294ZM192.5 294V293.5H193V294H192.5ZM192.5 327.699H193V327.826L192.94 327.937L192.5 327.699ZM181 349L181.44 349.238L181.298 349.5H181V349ZM181 381.5V381H216V381.5V382H181V381.5ZM216 381.5H215.5V350.5H216H216.5V381.5H216ZM216 350.5V350H237.5V350.5V351H216V350.5ZM237.5 350.5H238V361.5H237.5H237V350.5H237.5ZM237.5 361.5V361H294.5V361.5V362H237.5V361.5ZM294.5 361.5H294V316H294.5H295V361.5H294.5ZM294.5 316V316.5H281V316V315.5H294.5V316ZM281 316H280.5V305H281H281.5V316H281ZM281 305V304.5H314.5V305V305.5H281V305ZM314.5 305H314V288.5H314.5H315V305H314.5ZM314.5 288.5V288H316.5V288.5V289H314.5V288.5ZM316.5 288.5H317V299.5H316.5H316V288.5H316.5ZM316.5 299.5V299H340V299.5V300H316.5V299.5ZM340 299.5H339.5V239.5H340H340.5V299.5H340ZM340 239.5V240H328.5V239.5V239H340V239.5ZM328.5 239.5H328V237.5H328.5H329V239.5H328.5ZM328.5 237.5V237H340V237.5V238H328.5V237.5ZM340 237.5H339.5V214.5H340H340.5V237.5H340ZM340 214.5V215H306V214.5V214H340V214.5ZM306 214.5H305.5V203H306H306.5V214.5H306ZM306 203V203.5H303.5V203V202.5H306V203ZM303.5 203H303V192.738H303.5H304V203H303.5ZM303.5 192.738V192.238H317.228V192.738V193.238H303.5V192.738ZM317.228 192.738H316.728V158H317.228H317.728V192.738H317.228ZM317.228 158V158.5H272.5V158V157.5H317.228V158ZM272.5 158H272V113H272.5H273V158H272.5ZM272.5 113V113.5H227V113V112.5H272.5V113ZM227 113H226.5V96.5H227H227.5V113H227ZM227 96.5V96H238.5V96.5V97H227V96.5ZM238.5 96.5H238V65.5H238.5H239V96.5H238.5ZM238.5 65.5V66H224.5V65.5V65H238.5V65.5ZM224.5 65.5H224V63.5H224.5H225V65.5H224.5ZM224.5 63.5L224.223 63.916L194.223 43.916L194.5 43.5L194.777 43.084L224.777 63.084L224.5 63.5ZM194.5 43.5L194.276 43.9472L190.276 41.9472L190.5 41.5L190.724 41.0528L194.724 43.0528L194.5 43.5ZM190.5 41.5H190V20H190.5H191V41.5H190.5ZM190.5 20L190.146 20.3536L188.646 18.8536L189 18.5L189.354 18.1464L190.854 19.6464L190.5 20ZM189 18.5V19H152.5V18.5V18H189V18.5ZM152.5 18.5L152.929 18.7572L151.429 21.2572L151 21L150.571 20.7428L152.071 18.2428L152.5 18.5ZM151 21H151.5V39.5H151H150.5V21H151ZM151 39.5L151.168 39.971L102.668 57.262L102.5 56.791L102.332 56.3201L150.832 39.029L151 39.5ZM102.5 56.791H103V98.5H102.5H102V56.791H102.5ZM102.5 98.5V98H113.5V98.5V99H102.5V98.5ZM113.5 98.5L114 98.4942L114.296 123.994L113.796 124L113.296 124.006L113 98.5058L113.5 98.5ZM113.796 124V124.5H68.5V124V123.5H113.796V124ZM68.5 124H69V169.5H68.5H68V124H68.5ZM68.5 169.5V169H80V169.5V170H68.5V169.5ZM80 169.5H80.5V197.5H80H79.5V169.5H80ZM80 197.5V198H77.7188V197.5V197H80V197.5ZM77.7188 197.5H77.2188V186H77.7188H78.2188V197.5H77.7188ZM77.7188 186V186.5H24V186V185.5H77.7188V186ZM24 186H24.5V215.5H24H23.5V186H24ZM24 215.5V215H37.5V215.5V216H24V215.5ZM37.5 215.5H38V225.5H37.5H37V215.5H37.5ZM37.5 225.5V226H24V225.5V225H37.5V225.5ZM24 225.5H24.5V249H24H23.5V225.5H24ZM24 249V248.5H34.5V249V249.5H24V249ZM34.5 249H35V259.5H34.5H34V249H34.5ZM34.5 259.5V260H1V259.5V259H34.5V259.5ZM1 259.5H1.5V316.5H1H0.5V259.5H1ZM1 316.5V316H37.7266V316.5V317H1V316.5ZM37.7266 316.5H38.2266V326.728H37.7266H37.2266V316.5H37.7266ZM37.7266 326.728V327.228H23.7139V326.728V326.228H37.7266V326.728ZM23.7139 326.728H24.2139V361.5H23.7139H23.2139V326.728H23.7139ZM23.7139 361.5V361H80.5V361.5V362H23.7139V361.5ZM80.5 361.5H80V350.5H80.5H81V361.5H80.5ZM80.5 350.5V350H125V350.5V351H80.5V350.5ZM125 350.5H125.5V381.5H125H124.5V350.5H125ZM125 381.5V381H155V381.5V382H125V381.5ZM155 381.5H155.5V403H155H154.5V381.5H155ZM155 403V402.5H181V403V403.5H155V403ZM181 403H180.5V381.5H181H181.5V403H181ZM193.5 147H193V113H193.5H194V147H193.5ZM193.5 113V113.5H138.5V113V112.5H193.5V113ZM138.5 113H139V124H138.5H138V113H138.5ZM138.5 124V124.5H137V124V123.5H138.5V124ZM137 124H136.5V80H137H137.5V124H137ZM137 80V79.5H204V80V80.5H137V80ZM204 80H204.5V147H204H203.5V80H204ZM204 147V147.5H193.5V147V146.5H204V147ZM103.5 248.5H103V225.5H103.5H104V248.5H103.5ZM103.5 225.5V226H55.5V225.5V225H103.5V225.5ZM55.5 225.5H55V215.5H55.5H56V225.5H55.5ZM55.5 215.5V215H103.5V215.5V216H55.5V215.5ZM103.5 215.5H103V149.5H103.5H104V215.5H103.5ZM103.5 149.5V150H92V149.5V149H103.5V149.5ZM92 149.5H91.5V147.5H92H92.5V149.5H92ZM92 147.5V147H137V147.5V148H92V147.5ZM137 147.5H136.5V136H137H137.5V147.5H137ZM137 136V135.5H158.5V136V136.5H137V136ZM158.5 136H159V169.5H158.5H158V136H158.5ZM158.5 169.5V170H147.5V169.5V169H158.5V169.5ZM147.5 169.5H148V192.5H147.5H147V169.5H147.5ZM147.5 192.5V192H158.5V192.5V193H147.5V192.5ZM158.5 192.5H159V203H158.5H158V192.5H158.5ZM158.5 203V203.5H147.5V203V202.5H158.5V203ZM147.5 203H148V237.5H147.5H147V203H147.5ZM147.5 237.5V237H162V237.5V238H147.5V237.5ZM162 237.5H162.5V248.5H162H161.5V237.5H162ZM162 248.5V249H137V248.5V248H162V248.5ZM137 248.5L136.636 248.843L128.136 239.843L128.5 239.5L128.864 239.157L137.364 248.157L137 248.5ZM128.5 239.5V240H113.5V239.5V239H128.5V239.5ZM113.5 239.5H114V248.5H113.5H113V239.5H113.5ZM113.5 248.5V249H103.5V248.5V248H113.5V248.5ZM215.5 231.5H215V215H215.5H216V231.5H215.5ZM215.5 215V214.5H227V215V215.5H215.5V215ZM227 215H226.5V192H227H227.5V215H227ZM227 192V192.5H194.5V192V191.5H227V192ZM194.5 192H195V203H194.5H194V192H194.5ZM194.5 203V203.5H193V203V202.5H194.5V203ZM193 203H192.5V169.5H193H193.5V203H193ZM193 169.5V170H182V169.5V169H193V169.5ZM182 169.5H181.5V158.5H182H182.5V169.5H182ZM182 158.5V158H227V158.5V159H182V158.5ZM227 158.5H226.5V136H227H227.5V158.5H227ZM227 136V135.5H237.5V136V136.5H227V136ZM237.5 136H238V192.5H237.5H237V136H237.5ZM237.5 192.5V192H272.5V192.5V193H237.5V192.5ZM272.5 192.5H272V181.5H272.5H273V192.5H272.5ZM272.5 181.5V181H283V181.5V182H272.5V181.5ZM283 181.5H283.5V192.5H283H282.5V181.5H283ZM283 192.5V192H285.5V192.5V193H283V192.5ZM285.5 192.5H286V203H285.5H285V192.5H285.5ZM285.5 203V203.5H282.5V203V202.5H285.5V203ZM282.5 203L282.736 203.441L261.236 214.941L261 214.5L260.764 214.059L282.264 202.559L282.5 203ZM261 214.5V215H237.5V214.5V214H261V214.5ZM237.5 214.5H238V231.5H237.5H237V214.5H237.5ZM237.5 231.5V232H215.5V231.5V231H237.5V231.5ZM258 338.5H257.5V327H258H258.5V338.5H258ZM258 327V327.5H227V327V326.5H258V327ZM227 327H226.5V316H227H227.5V327H227ZM227 316V316.5H205V316V315.5H227V316ZM205 316H204.5V282H205H205.5V316H205ZM205 282V282.5H176.5V282V281.5H205V282ZM176.5 282H176V271.5H176.5H177V282H176.5ZM176.5 271.5V271H188V271.5V272H176.5V271.5ZM188 271.5H187.5V248.5H188H188.5V271.5H188ZM188 248.5V249H179V248.5V248H188V248.5ZM179 248.5H178.5V237.5H179H179.5V248.5H179ZM179 237.5V237H192V237.5V238H179V237.5ZM192 237.5H191.5V215H192H192.5V237.5H192ZM192 215V214.5H204V215V215.5H192V215ZM204 215H204.5V217H204H203.5V215H204ZM204 217V217.5H198V217V216.5H204V217ZM198 217H198.5V254.5H198H197.5V217H198ZM198 254.5V254H227V254.5V255H198V254.5ZM227 254.5H226.5V243H227H227.5V254.5H227ZM227 243V242.5H249V243V243.5H227V243ZM249 243H249.5V271.5H249H248.5V243H249ZM249 271.5V271H294V271.5V272H249V271.5ZM294 271.5H294.5V282H294H293.5V271.5H294ZM294 282V282.5H249V282V281.5H294V282ZM249 282H249.5V305H249H248.5V282H249ZM249 305V304.5H263V305V305.5H249V305ZM263 305H263.5V316H263H262.5V305H263ZM263 316V316.5H260.5V316V315.5H263V316ZM260.5 316H261V338.5H260.5H260V316H260.5ZM260.5 338.5V339H258V338.5V338H260.5V338.5ZM314.5 276.5H314V239.5H314.5H315V276.5H314.5ZM314.5 239.5V240H274.304V239.5V239H314.5V239.5ZM274.304 239.5H274.804V259.5H274.304H273.804V239.5H274.304ZM274.304 259.5V260H272.5V259.5V259H274.304V259.5ZM272.5 259.5H272V237.5H272.5H273V259.5H272.5ZM272.5 237.5V237H316.5V237.5V238H272.5V237.5ZM316.5 237.5H317V276.5H316.5H316V237.5H316.5ZM316.5 276.5V277H314.5V276.5V276H316.5V276.5ZM58 338.5H57.5V327H58H58.5V338.5H58ZM58 327V327.5H55.5V327V326.5H58V327ZM55.5 327H55V316.5H55.5H56V327H55.5ZM55.5 316.5V316H58V316.5V317H55.5V316.5ZM58 316.5H57.5V305H58H58.5V316.5H58ZM58 305V304.5H92V305V305.5H58V305ZM92 305H91.5V287.5H92H92.5V305H92ZM92 287.5V288H80.5V287.5V287H92V287.5ZM80.5 287.5H80V282.5H80.5H81V287.5H80.5ZM80.5 282.5V282H92V282.5V283H80.5V282.5ZM92 282.5H91.5V260H92H92.5V282.5H92ZM92 260V259.5H113.5V260V260.5H92V260ZM113.5 260H114V269H113.5H113V260H113.5ZM113.5 269V268.5H145.5V269V269.5H113.5V269ZM145.5 269H145V260H145.5H146V269H145.5ZM145.5 260V259.5H147.5V260V260.5H145.5V260ZM147.5 260H148V271.5H147.5H147V260H147.5ZM147.5 271.5V271H164.5V271.5V272H147.5V271.5ZM164.5 271.5H165V282H164.5H164V271.5H164.5ZM164.5 282V282.5H136V282V281.5H164.5V282ZM136 282H136.5V316H136H135.5V282H136ZM136 316V316.5H113.5V316V315.5H136V316ZM113.5 316H114V327H113.5H113V316H113.5ZM113.5 327V327.5H60V327V326.5H113.5V327ZM60 327H60.5V338.5H60H59.5V327H60ZM60 338.5V339H58V338.5V338H60V338.5ZM24.5 293.5H24V271.5H24.5H25V293.5H24.5ZM24.5 271.5V271H26.5V271.5V272H24.5V271.5ZM26.5 271.5H27V282.5H26.5H26V271.5H26.5ZM26.5 282.5V282H68.583V282.5V283H26.5V282.5ZM68.583 282.5H69.083V293.5H68.583H68.083V282.5H68.583ZM68.583 293.5V294H24.5V293.5V293H68.583V293.5ZM159.732 349L159.292 349.236L148.059 328.236L148.5 328L148.941 327.764L160.173 348.764L159.732 349ZM148.5 328H148V294H148.5H149V328H148.5ZM148.5 294V293.5H192.5V294V294.5H148.5V294ZM192.5 294H193V327.699H192.5H192V294H192.5ZM192.5 327.699L192.94 327.937L181.44 349.238L181 349L180.56 348.762L192.06 327.462L192.5 327.699ZM181 349V349.5H159.732V349V348.5H181V349Z" fill="#B27C40"/>
<path d="M68.5 282.5V280H80.5V282.5M24.5 293.5V299H29.5V293.5M1 291H6.5V285.5H1M12.5 259.5V293.5M83.5 225.5V231.5H88.5V225.5M58 215.5V209H63.5V215.5M24 192H29.5V186M131 147.5V141.5H137M158.5 155.5H164.5V150.5H158.5M260.5 214.5L263.5 219.5L268 217L265 212M316.5 262.5H322.5V257.5H316.5M314.5 259.5H309V254.5H314.5M294 271.5V266H289V271.5M269.5 282V288H274.5V282M192 216H181.5V215H192M193 189H187.5V184H193M170.5 113V119H193.5M204 118.5H209.5V107.5H204M252.5 113V118.5H257.5V113M237.5 136H243.5V141H237.5M292 158V163.5H297V158M306 214.5V225.5H311.5V214.5M70 265H80.5V243H70V265ZM255 158H272.5V154.5H255V158Z" stroke="#B27C40"/>
<path d="M181.5 216H171V192.5H172V201M181.5 215H172V206M172 206H174.5V201H172M172 206V201M131.5 46.5L134 48L135.5 52L138.5 51L137 47L137.5 44.5M171 18.5V21L176 25L180.5 21V18.5M206.5 51.5V54L204 57L207 59.5L209.5 56L211.5 55M77.5 124V127H83V124M58 305C58 304.845 58 303.636 58 302M58 293.5C58 295.747 58 299.409 58 302M58 307H55.5V302H58M164.5 276.5H176.5M176.5 273H164.5M188 254.5L182 248.5M266.5 154.5V149H272.5M311.5 225.5H317M166.5 64L164 59C164.833 57.3333 167 54 167 54C167 54 170.833 54 172.5 54L175.5 59L172.5 64H166.5ZM63 272H46.5V236H63.5V237H47.5V271H63V272Z" stroke="#B27C40" stroke-width="0.5"/>
<path d="M47.5 259.5H52.5V248.5H47.5" stroke="#B27C40"/>
<path d="M70.5 262.5H75.5V245.5H70.5" stroke="#B27C40" stroke-opacity="0.23"/>
<path d="M314 260H308.5V254H314V240H274.816V271H288.5V265.5H294.5V271H314V260Z" fill="#F08234" fill-opacity="0.23"/>
<path d="M288.316 260H286.77L289.586 252H291.375L294.195 260H292.648L290.512 253.641H290.449L288.316 260ZM288.367 256.863H292.586V258.027H288.367V256.863Z" fill="white"/>
<path d="M80.5 265.5H69.5V262H75V246H69.5V242.5H80.5V237.281H47.75V248H53V260H47.75V270.732H80.5V265.5Z" fill="#F08234" fill-opacity="0.23"/>
<path d="M58.2891 261V253H61.3516C61.9297 253 62.4102 253.091 62.793 253.273C63.1784 253.453 63.4661 253.699 63.6563 254.012C63.849 254.324 63.9453 254.678 63.9453 255.074C63.9453 255.4 63.8828 255.678 63.7578 255.91C63.6328 256.139 63.4648 256.326 63.2539 256.469C63.043 256.612 62.8073 256.715 62.5469 256.777V256.855C62.8307 256.871 63.1029 256.958 63.3633 257.117C63.6263 257.273 63.8411 257.495 64.0078 257.781C64.1745 258.068 64.2578 258.414 64.2578 258.82C64.2578 259.234 64.1576 259.607 63.957 259.937C63.7565 260.266 63.4544 260.525 63.0508 260.715C62.6471 260.905 62.1393 261 61.5273 261H58.2891ZM59.7383 259.789H61.2969C61.8229 259.789 62.2018 259.689 62.4336 259.488C62.668 259.285 62.7852 259.025 62.7852 258.707C62.7852 258.47 62.7266 258.257 62.6094 258.066C62.4922 257.874 62.3255 257.723 62.1094 257.613C61.8932 257.501 61.6354 257.445 61.3359 257.445H59.7383V259.789ZM59.7383 256.402H61.1719C61.4219 256.402 61.6471 256.357 61.8477 256.266C62.0482 256.172 62.2057 256.04 62.3203 255.871C62.4375 255.699 62.4961 255.496 62.4961 255.262C62.4961 254.952 62.3867 254.697 62.168 254.496C61.9518 254.296 61.6302 254.195 61.2031 254.195H59.7383V256.402Z" fill="white"/>
<circle cx="2" cy="2" r="1.75" transform="matrix(1 0 0 -1 127.5 148)" stroke="#B27C40" stroke-width="0.5"/>
<circle cx="1.5" cy="1.5" r="1.25" transform="matrix(1 0 0 -1 167.5 119)" stroke="#B27C40" stroke-width="0.5"/>
<circle cx="1.5" cy="1.5" r="1.25" transform="matrix(1 0 0 -1 167.5 116)" stroke="#B27C40" stroke-width="0.5"/>
</svg>
