<svg width="387" height="473" viewBox="0 0 387 473" fill="none" xmlns="http://www.w3.org/2000/svg">
<path d="M205.577 430.564H245.356V395.332H269.792V407.834H334.575V356.121H319.231V343.619H357.306V324.866H359.579V337.368H386.287V269.176H373.217V266.902H386.287V240.762H347.646V227.691H344.804V216.028H360.405V176.548H309.571V125.403H257.858V106.65H270.929V71.417H255.017V69.1445L220.921 46.4131L216.375 44.1406V19.7051L214.67 18H173.186L171.481 20.8418V41.8672L116.359 61.5195V108.923H128.861L129.197 137.905H77.7168V189.617H90.7871V221.44H88.1934V208.37H27.1406V241.898H42.4834V253.264H27.1406V279.973H39.0742V291.906H1V356.689H42.7412V368.313H26.8145V407.834H91.3555V395.332H141.931V430.564H176.027V455H205.577V430.564ZM219.784 164.046V125.403H157.274V137.905H155.569V87.8975H231.718V164.046H219.784ZM117.495 279.404V253.264H62.9414V241.898H117.495V166.887H104.425V164.614H155.569V151.544H180.005V189.618H167.503V215.758H180.005V227.691H167.503V266.902H183.983V279.404H155.569L145.909 269.176H128.861V279.404H117.495ZM244.788 260.083V241.33H257.858V215.189H220.921V227.691H219.216V189.618H206.714V177.116H257.858V151.544H269.792V215.758H309.571V203.256H321.505V215.758H324.346V227.691H320.937L296.501 240.762H269.792V260.083H244.788ZM293.091 381.693V368.623H257.858V356.121H232.854V317.479H200.463V305.545H213.533V279.404H203.305V266.902H218.079V241.33H231.718V243.604H224.898V286.224H257.858V273.153H282.862V305.545H334.007V317.479H282.862V343.619H298.773V356.121H295.933V381.693H293.091ZM357.306 311.228V269.176H311.62V291.906H309.571V266.902H359.579V311.228H357.306ZM65.7832 381.693V368.623H62.9414V356.689H65.7832V343.619H104.425V323.729H91.3555V318.047H104.425V292.475H128.861V302.703H165.23V292.475H167.503V305.545H186.824V317.479H154.433V356.121H128.861V368.623H68.0557V381.693H65.7832ZM27.709 330.549V305.545H29.9814V318.047H77.8105V330.549H27.709ZM181.406 393.627L168.64 369.76V331.117H218.647V369.417L205.577 393.627H181.406Z" fill="#271406"/>
<path d="M205.577 430.564H205.077V430.064H205.577V430.564ZM245.356 430.564H245.856V431.064H245.356V430.564ZM245.356 395.332H244.856V394.832H245.356V395.332ZM269.792 395.332V394.832H270.292V395.332H269.792ZM269.792 407.834V408.334H269.292V407.834H269.792ZM334.575 407.834H335.075V408.334H334.575V407.834ZM334.575 356.121V355.621H335.075V356.121H334.575ZM319.231 356.121V356.621H318.731V356.121H319.231ZM319.231 343.619H318.731V343.119H319.231V343.619ZM357.306 343.619H357.806V344.119H357.306V343.619ZM357.306 324.866H356.806V324.366H357.306V324.866ZM359.579 324.866V324.366H360.079V324.866H359.579ZM359.579 337.368V337.868H359.079V337.368H359.579ZM386.287 337.368H386.787V337.868H386.287V337.368ZM386.287 269.176V268.676H386.787V269.176H386.287ZM373.217 269.176V269.676H372.717V269.176H373.217ZM373.217 266.902H372.717V266.402H373.217V266.902ZM386.287 266.902H386.787V267.402H386.287V266.902ZM386.287 240.762V240.262H386.787V240.762H386.287ZM347.646 240.762V241.262H347.146V240.762H347.646ZM347.646 227.691V227.191H348.146V227.691H347.646ZM344.804 227.691V228.191H344.304V227.691H344.804ZM344.804 216.028H344.304V215.528H344.804V216.028ZM360.405 216.028H360.905V216.528H360.405V216.028ZM360.405 176.548V176.048H360.905V176.548H360.405ZM309.571 176.548V177.048H309.071V176.548H309.571ZM309.571 125.403V124.903H310.071V125.403H309.571ZM257.858 125.403V125.903H257.358V125.403H257.858ZM257.858 106.65H257.358V106.15H257.858V106.65ZM270.929 106.65H271.429V107.15H270.929V106.65ZM270.929 71.417V70.917H271.429V71.417H270.929ZM255.017 71.417V71.917H254.517V71.417H255.017ZM255.017 69.1445L255.294 68.7285L255.517 68.8769V69.1445H255.017ZM220.921 46.4131L221.144 45.9659L221.172 45.9798L221.198 45.9971L220.921 46.4131ZM216.375 44.1406L216.151 44.5879L215.875 44.4497V44.1406H216.375ZM216.375 19.7051L216.729 19.3515L216.875 19.498V19.7051H216.375ZM214.67 18V17.5H214.877L215.023 17.6464L214.67 18ZM173.186 18L172.757 17.7429L172.902 17.5H173.186V18ZM171.481 20.8418H170.981V20.7034L171.053 20.5847L171.481 20.8418ZM171.481 41.8672H171.981V42.2198L171.649 42.3382L171.481 41.8672ZM116.359 61.5195H115.859V61.167L116.191 61.0486L116.359 61.5195ZM116.359 108.923V109.423H115.859V108.923H116.359ZM128.861 108.923V108.423H129.356L129.361 108.917L128.861 108.923ZM129.197 137.905L129.697 137.899L129.703 138.405H129.197V137.905ZM77.7168 137.905H77.2168V137.405H77.7168V137.905ZM77.7168 189.617V190.117H77.2168V189.617H77.7168ZM90.7871 189.617V189.117H91.2871V189.617H90.7871ZM90.7871 221.44H91.2871V221.94H90.7871V221.44ZM88.1934 221.44V221.94H87.6934V221.44H88.1934ZM88.1934 208.37V207.87H88.6934V208.37H88.1934ZM27.1406 208.37H26.6406V207.87H27.1406V208.37ZM27.1406 241.898V242.398H26.6406V241.898H27.1406ZM42.4834 241.898V241.398H42.9834V241.898H42.4834ZM42.4834 253.264H42.9834V253.764H42.4834V253.264ZM27.1406 253.264H26.6406V252.764H27.1406V253.264ZM27.1406 279.973V280.473H26.6406V279.973H27.1406ZM39.0742 279.973V279.473H39.5742V279.973H39.0742ZM39.0742 291.906H39.5742V292.406H39.0742V291.906ZM1 291.906H0.5V291.406H1V291.906ZM1 356.689V357.189H0.5V356.689H1ZM42.7412 356.689V356.189H43.2412V356.689H42.7412ZM42.7412 368.313H43.2412V368.813H42.7412V368.313ZM26.8145 368.313H26.3145V367.813H26.8145V368.313ZM26.8145 407.834V408.334H26.3145V407.834H26.8145ZM91.3555 407.834H91.8555V408.334H91.3555V407.834ZM91.3555 395.332H90.8555V394.832H91.3555V395.332ZM141.931 395.332V394.832H142.431V395.332H141.931ZM141.931 430.564V431.064H141.431V430.564H141.931ZM176.027 430.564V430.064H176.527V430.564H176.027ZM176.027 455V455.5H175.527V455H176.027ZM205.577 455H206.077V455.5H205.577V455ZM219.784 164.046V164.546H219.284V164.046H219.784ZM219.784 125.403V124.903H220.284V125.403H219.784ZM157.274 125.403H156.774V124.903H157.274V125.403ZM157.274 137.905H157.774V138.405H157.274V137.905ZM155.569 137.905V138.405H155.069V137.905H155.569ZM155.569 87.8975H155.069V87.3975H155.569V87.8975ZM231.718 87.8975V87.3975H232.218V87.8975H231.718ZM231.718 164.046H232.218V164.546H231.718V164.046ZM117.495 279.404V279.904H116.995V279.404H117.495ZM117.495 253.264V252.764H117.995V253.264H117.495ZM62.9414 253.264V253.764H62.4414V253.264H62.9414ZM62.9414 241.898H62.4414V241.398H62.9414V241.898ZM117.495 241.898H117.995V242.398H117.495V241.898ZM117.495 166.887V166.387H117.995V166.887H117.495ZM104.425 166.887V167.387H103.925V166.887H104.425ZM104.425 164.614H103.925V164.114H104.425V164.614ZM155.569 164.614H156.069V165.114H155.569V164.614ZM155.569 151.544H155.069V151.044H155.569V151.544ZM180.005 151.544V151.044H180.505V151.544H180.005ZM180.005 189.618H180.505V190.118H180.005V189.618ZM167.503 189.618H167.003V189.118H167.503V189.618ZM167.503 215.758V216.258H167.003V215.758H167.503ZM180.005 215.758V215.258H180.505V215.758H180.005ZM180.005 227.691H180.505V228.191H180.005V227.691ZM167.503 227.691H167.003V227.191H167.503V227.691ZM167.503 266.902V267.402H167.003V266.902H167.503ZM183.983 266.902V266.402H184.483V266.902H183.983ZM183.983 279.404H184.483V279.904H183.983V279.404ZM155.569 279.404V279.904H155.354L155.206 279.748L155.569 279.404ZM145.909 269.176V268.676H146.125L146.273 268.832L145.909 269.176ZM128.861 269.176H128.361V268.676H128.861V269.176ZM128.861 279.404H129.361V279.904H128.861V279.404ZM244.788 260.083V260.583H244.288V260.083H244.788ZM244.788 241.33H244.288V240.83H244.788V241.33ZM257.858 241.33H258.358V241.83H257.858V241.33ZM257.858 215.189V214.689H258.358V215.189H257.858ZM220.921 215.189H220.421V214.689H220.921V215.189ZM220.921 227.691H221.421V228.191H220.921V227.691ZM219.216 227.691V228.191H218.716V227.691H219.216ZM219.216 189.618V189.118H219.716V189.618H219.216ZM206.714 189.618V190.118H206.214V189.618H206.714ZM206.714 177.116H206.214V176.616H206.714V177.116ZM257.858 177.116H258.358V177.616H257.858V177.116ZM257.858 151.544H257.358V151.044H257.858V151.544ZM269.792 151.544V151.044H270.292V151.544H269.792ZM269.792 215.758V216.258H269.292V215.758H269.792ZM309.571 215.758H310.071V216.258H309.571V215.758ZM309.571 203.256H309.071V202.756H309.571V203.256ZM321.505 203.256V202.756H322.005V203.256H321.505ZM321.505 215.758V216.258H321.005V215.758H321.505ZM324.346 215.758V215.258H324.846V215.758H324.346ZM324.346 227.691H324.846V228.191H324.346V227.691ZM320.937 227.691L320.701 227.251L320.811 227.191H320.937V227.691ZM296.501 240.762L296.737 241.203L296.626 241.262H296.501V240.762ZM269.792 240.762H269.292V240.262H269.792V240.762ZM269.792 260.083H270.292V260.583H269.792V260.083ZM293.091 381.693V382.193H292.591V381.693H293.091ZM293.091 368.623V368.123H293.591V368.623H293.091ZM257.858 368.623V369.123H257.358V368.623H257.858ZM257.858 356.121V355.621H258.358V356.121H257.858ZM232.854 356.121V356.621H232.354V356.121H232.854ZM232.854 317.479V316.979H233.354V317.479H232.854ZM200.463 317.479V317.979H199.963V317.479H200.463ZM200.463 305.545H199.963V305.045H200.463V305.545ZM213.533 305.545H214.033V306.045H213.533V305.545ZM213.533 279.404V278.904H214.033V279.404H213.533ZM203.305 279.404V279.904H202.805V279.404H203.305ZM203.305 266.902H202.805V266.402H203.305V266.902ZM218.079 266.902H218.579V267.402H218.079V266.902ZM218.079 241.33H217.579V240.83H218.079V241.33ZM231.718 241.33V240.83H232.218V241.33H231.718ZM231.718 243.604H232.218V244.104H231.718V243.604ZM224.898 243.604H224.398V243.104H224.898V243.604ZM224.898 286.224V286.724H224.398V286.224H224.898ZM257.858 286.224H258.358V286.724H257.858V286.224ZM257.858 273.153H257.358V272.653H257.858V273.153ZM282.862 273.153V272.653H283.362V273.153H282.862ZM282.862 305.545V306.045H282.362V305.545H282.862ZM334.007 305.545V305.045H334.507V305.545H334.007ZM334.007 317.479H334.507V317.979H334.007V317.479ZM282.862 317.479H282.362V316.979H282.862V317.479ZM282.862 343.619V344.119H282.362V343.619H282.862ZM298.773 343.619V343.119H299.273V343.619H298.773ZM298.773 356.121H299.273V356.621H298.773V356.121ZM295.933 356.121H295.433V355.621H295.933V356.121ZM295.933 381.693H296.433V382.193H295.933V381.693ZM357.306 311.228V311.728H356.806V311.228H357.306ZM357.306 269.176V268.676H357.806V269.176H357.306ZM311.62 269.176H311.12V268.676H311.62V269.176ZM311.62 291.906H312.12V292.406H311.62V291.906ZM309.571 291.906V292.406H309.071V291.906H309.571ZM309.571 266.902H309.071V266.402H309.571V266.902ZM359.579 266.902V266.402H360.079V266.902H359.579ZM359.579 311.228H360.079V311.728H359.579V311.228ZM65.7832 381.693V382.193H65.2832V381.693H65.7832ZM65.7832 368.623V368.123H66.2832V368.623H65.7832ZM62.9414 368.623V369.123H62.4414V368.623H62.9414ZM62.9414 356.689H62.4414V356.189H62.9414V356.689ZM65.7832 356.689H66.2832V357.189H65.7832V356.689ZM65.7832 343.619H65.2832V343.119H65.7832V343.619ZM104.425 343.619H104.925V344.119H104.425V343.619ZM104.425 323.729V323.229H104.925V323.729H104.425ZM91.3555 323.729V324.229H90.8555V323.729H91.3555ZM91.3555 318.047H90.8555V317.547H91.3555V318.047ZM104.425 318.047H104.925V318.547H104.425V318.047ZM104.425 292.475H103.925V291.975H104.425V292.475ZM128.861 292.475V291.975H129.361V292.475H128.861ZM128.861 302.703V303.203H128.361V302.703H128.861ZM165.23 302.703H165.73V303.203H165.23V302.703ZM165.23 292.475H164.73V291.975H165.23V292.475ZM167.503 292.475V291.975H168.003V292.475H167.503ZM167.503 305.545V306.045H167.003V305.545H167.503ZM186.824 305.545V305.045H187.324V305.545H186.824ZM186.824 317.479H187.324V317.979H186.824V317.479ZM154.433 317.479H153.933V316.979H154.433V317.479ZM154.433 356.121H154.933V356.621H154.433V356.121ZM128.861 356.121H128.361V355.621H128.861V356.121ZM128.861 368.623H129.361V369.123H128.861V368.623ZM68.0557 368.623H67.5557V368.123H68.0557V368.623ZM68.0557 381.693H68.5557V382.193H68.0557V381.693ZM27.709 330.549V331.049H27.209V330.549H27.709ZM27.709 305.545H27.209V305.045H27.709V305.545ZM29.9814 305.545V305.045H30.4814V305.545H29.9814ZM29.9814 318.047V318.547H29.4814V318.047H29.9814ZM77.8105 318.047V317.547H78.3105V318.047H77.8105ZM77.8105 330.549H78.3105V331.049H77.8105V330.549ZM181.406 393.627V394.127H181.107L180.965 393.863L181.406 393.627ZM168.64 369.76L168.199 369.996L168.14 369.885V369.76H168.64ZM168.64 331.117H168.14V330.617H168.64V331.117ZM218.647 331.117V330.617H219.147V331.117H218.647ZM218.647 369.417H219.147V369.543L219.087 369.655L218.647 369.417ZM205.577 393.627L206.017 393.864L205.875 394.127H205.577V393.627ZM205.577 430.564V430.064H245.356V430.564V431.064H205.577V430.564ZM245.356 430.564H244.856V395.332H245.356H245.856V430.564H245.356ZM245.356 395.332V394.832H269.792V395.332V395.832H245.356V395.332ZM269.792 395.332H270.292V407.834H269.792H269.292V395.332H269.792ZM269.792 407.834V407.334H334.575V407.834V408.334H269.792V407.834ZM334.575 407.834H334.075V356.121H334.575H335.075V407.834H334.575ZM334.575 356.121V356.621H319.231V356.121V355.621H334.575V356.121ZM319.231 356.121H318.731V343.619H319.231H319.731V356.121H319.231ZM319.231 343.619V343.119H357.306V343.619V344.119H319.231V343.619ZM357.306 343.619H356.806V324.866H357.306H357.806V343.619H357.306ZM357.306 324.866V324.366H359.579V324.866V325.366H357.306V324.866ZM359.579 324.866H360.079V337.368H359.579H359.079V324.866H359.579ZM359.579 337.368V336.868H386.287V337.368V337.868H359.579V337.368ZM386.287 337.368H385.787V269.176H386.287H386.787V337.368H386.287ZM386.287 269.176V269.676H373.217V269.176V268.676H386.287V269.176ZM373.217 269.176H372.717V266.902H373.217H373.717V269.176H373.217ZM373.217 266.902V266.402H386.287V266.902V267.402H373.217V266.902ZM386.287 266.902H385.787V240.762H386.287H386.787V266.902H386.287ZM386.287 240.762V241.262H347.646V240.762V240.262H386.287V240.762ZM347.646 240.762H347.146V227.691H347.646H348.146V240.762H347.646ZM347.646 227.691V228.191H344.804V227.691V227.191H347.646V227.691ZM344.804 227.691H344.304V216.028H344.804H345.304V227.691H344.804ZM344.804 216.028V215.528H360.405V216.028V216.528H344.804V216.028ZM360.405 216.028H359.905V176.548H360.405H360.905V216.028H360.405ZM360.405 176.548V177.048H309.571V176.548V176.048H360.405V176.548ZM309.571 176.548H309.071V125.403H309.571H310.071V176.548H309.571ZM309.571 125.403V125.903H257.858V125.403V124.903H309.571V125.403ZM257.858 125.403H257.358V106.65H257.858H258.358V125.403H257.858ZM257.858 106.65V106.15H270.929V106.65V107.15H257.858V106.65ZM270.929 106.65H270.429V71.417H270.929H271.429V106.65H270.929ZM270.929 71.417V71.917H255.017V71.417V70.917H270.929V71.417ZM255.017 71.417H254.517V69.1445H255.017H255.517V71.417H255.017ZM255.017 69.1445L254.739 69.5606L220.644 46.8291L220.921 46.4131L221.198 45.9971L255.294 68.7285L255.017 69.1445ZM220.921 46.4131L220.697 46.8603L216.151 44.5879L216.375 44.1406L216.599 43.6934L221.144 45.9659L220.921 46.4131ZM216.375 44.1406H215.875V19.7051H216.375H216.875V44.1406H216.375ZM216.375 19.7051L216.021 20.0586L214.316 18.3536L214.67 18L215.023 17.6464L216.729 19.3515L216.375 19.7051ZM214.67 18V18.5H173.186V18V17.5H214.67V18ZM173.186 18L173.614 18.2571L171.91 21.0989L171.481 20.8418L171.053 20.5847L172.757 17.7429L173.186 18ZM171.481 20.8418H171.981V41.8672H171.481H170.981V20.8418H171.481ZM171.481 41.8672L171.649 42.3382L116.527 61.9905L116.359 61.5195L116.191 61.0486L171.314 41.3962L171.481 41.8672ZM116.359 61.5195H116.859V108.923H116.359H115.859V61.5195H116.359ZM116.359 108.923V108.423H128.861V108.923V109.423H116.359V108.923ZM128.861 108.923L129.361 108.917L129.697 137.899L129.197 137.905L128.697 137.911L128.361 108.929L128.861 108.923ZM129.197 137.905V138.405H77.7168V137.905V137.405H129.197V137.905ZM77.7168 137.905H78.2168V189.617H77.7168H77.2168V137.905H77.7168ZM77.7168 189.617V189.117H90.7871V189.617V190.117H77.7168V189.617ZM90.7871 189.617H91.2871V221.44H90.7871H90.2871V189.617H90.7871ZM90.7871 221.44V221.94H88.1934V221.44V220.94H90.7871V221.44ZM88.1934 221.44H87.6934V208.37H88.1934H88.6934V221.44H88.1934ZM88.1934 208.37V208.87H27.1406V208.37V207.87H88.1934V208.37ZM27.1406 208.37H27.6406V241.898H27.1406H26.6406V208.37H27.1406ZM27.1406 241.898V241.398H42.4834V241.898V242.398H27.1406V241.898ZM42.4834 241.898H42.9834V253.264H42.4834H41.9834V241.898H42.4834ZM42.4834 253.264V253.764H27.1406V253.264V252.764H42.4834V253.264ZM27.1406 253.264H27.6406V279.973H27.1406H26.6406V253.264H27.1406ZM27.1406 279.973V279.473H39.0742V279.973V280.473H27.1406V279.973ZM39.0742 279.973H39.5742V291.906H39.0742H38.5742V279.973H39.0742ZM39.0742 291.906V292.406H1V291.906V291.406H39.0742V291.906ZM1 291.906H1.5V356.689H1H0.5V291.906H1ZM1 356.689V356.189H42.7412V356.689V357.189H1V356.689ZM42.7412 356.689H43.2412V368.313H42.7412H42.2412V356.689H42.7412ZM42.7412 368.313V368.813H26.8145V368.313V367.813H42.7412V368.313ZM26.8145 368.313H27.3145V407.834H26.8145H26.3145V368.313H26.8145ZM26.8145 407.834V407.334H91.3555V407.834V408.334H26.8145V407.834ZM91.3555 407.834H90.8555V395.332H91.3555H91.8555V407.834H91.3555ZM91.3555 395.332V394.832H141.931V395.332V395.832H91.3555V395.332ZM141.931 395.332H142.431V430.564H141.931H141.431V395.332H141.931ZM141.931 430.564V430.064H176.027V430.564V431.064H141.931V430.564ZM176.027 430.564H176.527V455H176.027H175.527V430.564H176.027ZM176.027 455V454.5H205.577V455V455.5H176.027V455ZM205.577 455H205.077V430.564H205.577H206.077V455H205.577ZM219.784 164.046H219.284V125.403H219.784H220.284V164.046H219.784ZM219.784 125.403V125.903H157.274V125.403V124.903H219.784V125.403ZM157.274 125.403H157.774V137.905H157.274H156.774V125.403H157.274ZM157.274 137.905V138.405H155.569V137.905V137.405H157.274V137.905ZM155.569 137.905H155.069V87.8975H155.569H156.069V137.905H155.569ZM155.569 87.8975V87.3975H231.718V87.8975V88.3975H155.569V87.8975ZM231.718 87.8975H232.218V164.046H231.718H231.218V87.8975H231.718ZM231.718 164.046V164.546H219.784V164.046V163.546H231.718V164.046ZM117.495 279.404H116.995V253.264H117.495H117.995V279.404H117.495ZM117.495 253.264V253.764H62.9414V253.264V252.764H117.495V253.264ZM62.9414 253.264H62.4414V241.898H62.9414H63.4414V253.264H62.9414ZM62.9414 241.898V241.398H117.495V241.898V242.398H62.9414V241.898ZM117.495 241.898H116.995V166.887H117.495H117.995V241.898H117.495ZM117.495 166.887V167.387H104.425V166.887V166.387H117.495V166.887ZM104.425 166.887H103.925V164.614H104.425H104.925V166.887H104.425ZM104.425 164.614V164.114H155.569V164.614V165.114H104.425V164.614ZM155.569 164.614H155.069V151.544H155.569H156.069V164.614H155.569ZM155.569 151.544V151.044H180.005V151.544V152.044H155.569V151.544ZM180.005 151.544H180.505V189.618H180.005H179.505V151.544H180.005ZM180.005 189.618V190.118H167.503V189.618V189.118H180.005V189.618ZM167.503 189.618H168.003V215.758H167.503H167.003V189.618H167.503ZM167.503 215.758V215.258H180.005V215.758V216.258H167.503V215.758ZM180.005 215.758H180.505V227.691H180.005H179.505V215.758H180.005ZM180.005 227.691V228.191H167.503V227.691V227.191H180.005V227.691ZM167.503 227.691H168.003V266.902H167.503H167.003V227.691H167.503ZM167.503 266.902V266.402H183.983V266.902V267.402H167.503V266.902ZM183.983 266.902H184.483V279.404H183.983H183.483V266.902H183.983ZM183.983 279.404V279.904H155.569V279.404V278.904H183.983V279.404ZM155.569 279.404L155.206 279.748L145.546 269.519L145.909 269.176L146.273 268.832L155.933 279.061L155.569 279.404ZM145.909 269.176V269.676H128.861V269.176V268.676H145.909V269.176ZM128.861 269.176H129.361V279.404H128.861H128.361V269.176H128.861ZM128.861 279.404V279.904H117.495V279.404V278.904H128.861V279.404ZM244.788 260.083H244.288V241.33H244.788H245.288V260.083H244.788ZM244.788 241.33V240.83H257.858V241.33V241.83H244.788V241.33ZM257.858 241.33H257.358V215.189H257.858H258.358V241.33H257.858ZM257.858 215.189V215.689H220.921V215.189V214.689H257.858V215.189ZM220.921 215.189H221.421V227.691H220.921H220.421V215.189H220.921ZM220.921 227.691V228.191H219.216V227.691V227.191H220.921V227.691ZM219.216 227.691H218.716V189.618H219.216H219.716V227.691H219.216ZM219.216 189.618V190.118H206.714V189.618V189.118H219.216V189.618ZM206.714 189.618H206.214V177.116H206.714H207.214V189.618H206.714ZM206.714 177.116V176.616H257.858V177.116V177.616H206.714V177.116ZM257.858 177.116H257.358V151.544H257.858H258.358V177.116H257.858ZM257.858 151.544V151.044H269.792V151.544V152.044H257.858V151.544ZM269.792 151.544H270.292V215.758H269.792H269.292V151.544H269.792ZM269.792 215.758V215.258H309.571V215.758V216.258H269.792V215.758ZM309.571 215.758H309.071V203.256H309.571H310.071V215.758H309.571ZM309.571 203.256V202.756H321.505V203.256V203.756H309.571V203.256ZM321.505 203.256H322.005V215.758H321.505H321.005V203.256H321.505ZM321.505 215.758V215.258H324.346V215.758V216.258H321.505V215.758ZM324.346 215.758H324.846V227.691H324.346H323.846V215.758H324.346ZM324.346 227.691V228.191H320.937V227.691V227.191H324.346V227.691ZM320.937 227.691L321.172 228.132L296.737 241.203L296.501 240.762L296.265 240.321L320.701 227.251L320.937 227.691ZM296.501 240.762V241.262H269.792V240.762V240.262H296.501V240.762ZM269.792 240.762H270.292V260.083H269.792H269.292V240.762H269.792ZM269.792 260.083V260.583H244.788V260.083V259.583H269.792V260.083ZM293.091 381.693H292.591V368.623H293.091H293.591V381.693H293.091ZM293.091 368.623V369.123H257.858V368.623V368.123H293.091V368.623ZM257.858 368.623H257.358V356.121H257.858H258.358V368.623H257.858ZM257.858 356.121V356.621H232.854V356.121V355.621H257.858V356.121ZM232.854 356.121H232.354V317.479H232.854H233.354V356.121H232.854ZM232.854 317.479V317.979H200.463V317.479V316.979H232.854V317.479ZM200.463 317.479H199.963V305.545H200.463H200.963V317.479H200.463ZM200.463 305.545V305.045H213.533V305.545V306.045H200.463V305.545ZM213.533 305.545H213.033V279.404H213.533H214.033V305.545H213.533ZM213.533 279.404V279.904H203.305V279.404V278.904H213.533V279.404ZM203.305 279.404H202.805V266.902H203.305H203.805V279.404H203.305ZM203.305 266.902V266.402H218.079V266.902V267.402H203.305V266.902ZM218.079 266.902H217.579V241.33H218.079H218.579V266.902H218.079ZM218.079 241.33V240.83H231.718V241.33V241.83H218.079V241.33ZM231.718 241.33H232.218V243.604H231.718H231.218V241.33H231.718ZM231.718 243.604V244.104H224.898V243.604V243.104H231.718V243.604ZM224.898 243.604H225.398V286.224H224.898H224.398V243.604H224.898ZM224.898 286.224V285.724H257.858V286.224V286.724H224.898V286.224ZM257.858 286.224H257.358V273.153H257.858H258.358V286.224H257.858ZM257.858 273.153V272.653H282.862V273.153V273.653H257.858V273.153ZM282.862 273.153H283.362V305.545H282.862H282.362V273.153H282.862ZM282.862 305.545V305.045H334.007V305.545V306.045H282.862V305.545ZM334.007 305.545H334.507V317.479H334.007H333.507V305.545H334.007ZM334.007 317.479V317.979H282.862V317.479V316.979H334.007V317.479ZM282.862 317.479H283.362V343.619H282.862H282.362V317.479H282.862ZM282.862 343.619V343.119H298.773V343.619V344.119H282.862V343.619ZM298.773 343.619H299.273V356.121H298.773H298.273V343.619H298.773ZM298.773 356.121V356.621H295.933V356.121V355.621H298.773V356.121ZM295.933 356.121H296.433V381.693H295.933H295.433V356.121H295.933ZM295.933 381.693V382.193H293.091V381.693V381.193H295.933V381.693ZM357.306 311.228H356.806V269.176H357.306H357.806V311.228H357.306ZM357.306 269.176V269.676H311.62V269.176V268.676H357.306V269.176ZM311.62 269.176H312.12V291.906H311.62H311.12V269.176H311.62ZM311.62 291.906V292.406H309.571V291.906V291.406H311.62V291.906ZM309.571 291.906H309.071V266.902H309.571H310.071V291.906H309.571ZM309.571 266.902V266.402H359.579V266.902V267.402H309.571V266.902ZM359.579 266.902H360.079V311.228H359.579H359.079V266.902H359.579ZM359.579 311.228V311.728H357.306V311.228V310.728H359.579V311.228ZM65.7832 381.693H65.2832V368.623H65.7832H66.2832V381.693H65.7832ZM65.7832 368.623V369.123H62.9414V368.623V368.123H65.7832V368.623ZM62.9414 368.623H62.4414V356.689H62.9414H63.4414V368.623H62.9414ZM62.9414 356.689V356.189H65.7832V356.689V357.189H62.9414V356.689ZM65.7832 356.689H65.2832V343.619H65.7832H66.2832V356.689H65.7832ZM65.7832 343.619V343.119H104.425V343.619V344.119H65.7832V343.619ZM104.425 343.619H103.925V323.729H104.425H104.925V343.619H104.425ZM104.425 323.729V324.229H91.3555V323.729V323.229H104.425V323.729ZM91.3555 323.729H90.8555V318.047H91.3555H91.8555V323.729H91.3555ZM91.3555 318.047V317.547H104.425V318.047V318.547H91.3555V318.047ZM104.425 318.047H103.925V292.475H104.425H104.925V318.047H104.425ZM104.425 292.475V291.975H128.861V292.475V292.975H104.425V292.475ZM128.861 292.475H129.361V302.703H128.861H128.361V292.475H128.861ZM128.861 302.703V302.203H165.23V302.703V303.203H128.861V302.703ZM165.23 302.703H164.73V292.475H165.23H165.73V302.703H165.23ZM165.23 292.475V291.975H167.503V292.475V292.975H165.23V292.475ZM167.503 292.475H168.003V305.545H167.503H167.003V292.475H167.503ZM167.503 305.545V305.045H186.824V305.545V306.045H167.503V305.545ZM186.824 305.545H187.324V317.479H186.824H186.324V305.545H186.824ZM186.824 317.479V317.979H154.433V317.479V316.979H186.824V317.479ZM154.433 317.479H154.933V356.121H154.433H153.933V317.479H154.433ZM154.433 356.121V356.621H128.861V356.121V355.621H154.433V356.121ZM128.861 356.121H129.361V368.623H128.861H128.361V356.121H128.861ZM128.861 368.623V369.123H68.0557V368.623V368.123H128.861V368.623ZM68.0557 368.623H68.5557V381.693H68.0557H67.5557V368.623H68.0557ZM68.0557 381.693V382.193H65.7832V381.693V381.193H68.0557V381.693ZM27.709 330.549H27.209V305.545H27.709H28.209V330.549H27.709ZM27.709 305.545V305.045H29.9814V305.545V306.045H27.709V305.545ZM29.9814 305.545H30.4814V318.047H29.9814H29.4814V305.545H29.9814ZM29.9814 318.047V317.547H77.8105V318.047V318.547H29.9814V318.047ZM77.8105 318.047H78.3105V330.549H77.8105H77.3105V318.047H77.8105ZM77.8105 330.549V331.049H27.709V330.549V330.049H77.8105V330.549ZM181.406 393.627L180.965 393.863L168.199 369.996L168.64 369.76L169.081 369.524L181.847 393.391L181.406 393.627ZM168.64 369.76H168.14V331.117H168.64H169.14V369.76H168.64ZM168.64 331.117V330.617H218.647V331.117V331.617H168.64V331.117ZM218.647 331.117H219.147V369.417H218.647H218.147V331.117H218.647ZM218.647 369.417L219.087 369.655L206.017 393.864L205.577 393.627L205.137 393.389L218.207 369.179L218.647 369.417ZM205.577 393.627V394.127H181.406V393.627V393.127H205.577V393.627Z" fill="#B27C40"/>
<path d="M77.7165 318.047V315.206H91.355V318.047M27.7087 330.549V336.8H33.3914V330.549M1 327.707H7.25098V321.457H1M14.0702 291.906V330.549M94.7646 253.264V260.083H100.447V253.264M65.7828 241.899V234.511H72.0338V241.899M27.1404 215.19H33.3914V208.371M148.75 164.614V157.795H155.57M180.005 173.706H186.824V168.023H180.005M295.932 240.762L299.342 246.445L304.456 243.603L301.047 237.921M359.579 295.316H366.398V289.633H359.579M357.306 291.906H351.055V286.224H357.306M334.007 305.545V299.294H328.324V305.545M306.161 317.479V324.298H311.844V317.479M218.079 242.467H206.146V241.33H218.079M219.216 211.78H212.965V206.098H219.216M193.644 125.403V132.222H219.784M231.718 131.654H237.969V119.152H231.718M286.84 125.403V131.654H292.523V125.403M269.792 151.544H276.611V157.226H269.792M331.733 176.548V182.798H337.416V176.548M347.645 240.762V253.264H353.896V240.762M79.4213 298.157H91.355V273.154H79.4213V298.157ZM289.681 176.548H309.571V172.57H289.681V176.548Z" stroke="#B27C40"/>
<path d="M206.145 242.467H194.212V215.758H195.348V225.419M206.145 241.33H195.348V231.101M195.348 231.101H198.19V225.419H195.348M195.348 231.101V225.419M149.318 49.8232L152.16 51.528L153.865 56.0742L157.274 54.9376L155.569 50.3915L156.138 47.5501M194.212 18V20.8414L199.894 25.3876L205.009 20.8414V18M234.559 55.5059V58.3472L231.718 61.7569L235.127 64.5982L237.969 60.6203L240.242 59.4838M87.9452 137.905V141.315H94.1961V137.905M65.7826 343.619C65.7826 343.443 65.7826 342.069 65.7826 340.209M65.7826 330.549C65.7826 333.103 65.7826 337.265 65.7826 340.209M65.7826 345.892H62.9413V340.209H65.7826M186.824 311.228H200.463M200.463 307.25H186.824M213.533 286.224L206.714 279.404M302.751 172.57V166.319H309.571M353.896 253.264H360.147M189.097 69.7127L186.256 64.0299C187.203 62.1357 189.666 58.3472 189.666 58.3472C189.666 58.3472 194.022 58.3472 195.917 58.3472L199.326 64.0299L195.917 69.7127H189.097ZM71.4653 306.113H52.7124V265.198H72.0336V266.334H53.8489V304.977H71.4653V306.113Z" stroke="#B27C40" stroke-width="0.5"/>
<path d="M53.8491 291.906H59.5318V279.404H53.8491" stroke="#B27C40"/>
<path d="M79.9897 295.316H85.6725V275.995H79.9897" stroke="#B27C40" stroke-opacity="0.23"/>
<path d="M356.738 269.744H312.203V304.977H356.738V269.744ZM350.554 292.406V285.724H356.669V292.406H350.554ZM327.824 304.908V298.794H334.506V304.908H327.824Z" fill="#F08234" fill-opacity="0.23"/>
<path d="M327.299 290.973H325.752L328.568 282.973H330.357L333.178 290.973H331.631L329.494 284.613H329.432L327.299 290.973ZM327.35 287.836H331.568V289H327.35V287.836Z" fill="white"/>
<path d="M91.355 266.654H54.1333V278.904H60.0317V292.406H54.1333V304.672H91.355V266.654ZM78.9214 298.657V294.815H85.1724V276.495H78.9214V272.653H91.2866V298.657H78.9214Z" fill="#F08234" fill-opacity="0.23"/>
<path d="M66.0034 292.109V284.109H69.0659C69.644 284.109 70.1245 284.2 70.5073 284.383C70.8927 284.562 71.1805 284.808 71.3706 285.121C71.5633 285.433 71.6597 285.788 71.6597 286.183C71.6597 286.509 71.5972 286.788 71.4722 287.019C71.3472 287.249 71.1792 287.435 70.9683 287.578C70.7573 287.721 70.5216 287.824 70.2612 287.887V287.965C70.5451 287.98 70.8172 288.068 71.0776 288.226C71.3407 288.383 71.5555 288.604 71.7222 288.891C71.8888 289.177 71.9722 289.523 71.9722 289.93C71.9722 290.344 71.8719 290.716 71.6714 291.047C71.4709 291.375 71.1688 291.634 70.7651 291.824C70.3615 292.014 69.8537 292.109 69.2417 292.109H66.0034ZM67.4526 290.898H69.0112C69.5373 290.898 69.9162 290.798 70.1479 290.598C70.3823 290.394 70.4995 290.134 70.4995 289.816C70.4995 289.579 70.4409 289.366 70.3237 289.176C70.2065 288.983 70.0399 288.832 69.8237 288.723C69.6076 288.611 69.3498 288.555 69.0503 288.555H67.4526V290.898ZM67.4526 287.512H68.8862C69.1362 287.512 69.3615 287.466 69.562 287.375C69.7625 287.281 69.9201 287.15 70.0347 286.98C70.1519 286.808 70.2104 286.605 70.2104 286.371C70.2104 286.061 70.1011 285.806 69.8823 285.605C69.6662 285.405 69.3446 285.305 68.9175 285.305H67.4526V287.512Z" fill="white"/>
<circle cx="2.27308" cy="2.27308" r="2.02308" transform="matrix(1 0 0 -1 144.772 165.182)" stroke="#B27C40" stroke-width="0.5"/>
<circle cx="1.70481" cy="1.70481" r="1.45481" transform="matrix(1 0 0 -1 190.234 132.222)" stroke="#B27C40" stroke-width="0.5"/>
<circle cx="1.70481" cy="1.70481" r="1.45481" transform="matrix(1 0 0 -1 190.234 128.813)" stroke="#B27C40" stroke-width="0.5"/>
</svg>
