<svg width="340" height="421" viewBox="0 0 340 421" fill="none" xmlns="http://www.w3.org/2000/svg">
<path d="M180.5 39.5H215.5V70.5H237V59.5H294V105H280.5V116H314V132.5H316V121.5H339.5V181.5H328V183.5H339.5V206.5H305.5V218H303V228.262H316.728V263H272V308H226.5V324.5H238V355.5H224V357.5L194 377.5L190 379.5V401L188.5 402.5H152L150.5 400V381.5L102 364.209V322.5H113L113.296 297H68V251.5H79.5V223.5H77.2188V235H23.5V205.5H37V195.5H23.5V172H34V161.5H0.5V104.5H37.2266V94.2725H23.2139V59.5H80V70.5H124.5V39.5H154.5V18H180.5V39.5ZM193 274V308H138V297H136.5V341H203.5V274H193ZM103 172.5V195.5H55V205.5H103V271.5H91.5V273.5H136.5V285H158V251.5H147V228.5H158V218H147V183.5H161.5V172.5H136.5L128 181.5H113V172.5H103ZM215 189.5V206H226.5V229H194V218H192.5V251.5H181.5V262.5H226.5V285H237V228.5H272V239.5H282.5V228.5H285V218H282L260.5 206.5H237V189.5H215ZM257.5 82.5V94H226.5V105H204.5V139H176V149.5H187.5V172.5H178.5V183.5H191.5V206H203.5V204H197.5V166.5H226.5V178H248.5V149.5H293.5V139H248.5V116H262.5V105H260V82.5H257.5ZM314 144.5V181.5H273.804V161.5H272V183.5H316V144.5H314ZM57.5 82.5V94H55V104.5H57.5V116H91.5V133.5H80V138.5H91.5V161H113V152H145V161H147V149.5H164V139H135.5V105H113V94H59.5V82.5H57.5ZM24 127.5V149.5H26V138.5H68.083V127.5H24ZM159.232 72L148 93V127H192V93.3008L180.5 72H159.232Z" fill="#271406"/>
<path d="M180.5 39.5H180V40H180.5V39.5ZM215.5 39.5H216V39H215.5V39.5ZM215.5 70.5H215V71H215.5V70.5ZM237 70.5V71H237.5V70.5H237ZM237 59.5V59H236.5V59.5H237ZM294 59.5H294.5V59H294V59.5ZM294 105V105.5H294.5V105H294ZM280.5 105V104.5H280V105H280.5ZM280.5 116H280V116.5H280.5V116ZM314 116H314.5V115.5H314V116ZM314 132.5H313.5V133H314V132.5ZM316 132.5V133H316.5V132.5H316ZM316 121.5V121H315.5V121.5H316ZM339.5 121.5H340V121H339.5V121.5ZM339.5 181.5V182H340V181.5H339.5ZM328 181.5V181H327.5V181.5H328ZM328 183.5H327.5V184H328V183.5ZM339.5 183.5H340V183H339.5V183.5ZM339.5 206.5V207H340V206.5H339.5ZM305.5 206.5V206H305V206.5H305.5ZM305.5 218V218.5H306V218H305.5ZM303 218V217.5H302.5V218H303ZM303 228.262H302.5V228.762H303V228.262ZM316.728 228.262H317.228V227.762H316.728V228.262ZM316.728 263V263.5H317.228V263H316.728ZM272 263V262.5H271.5V263H272ZM272 308V308.5H272.5V308H272ZM226.5 308V307.5H226V308H226.5ZM226.5 324.5H226V325H226.5V324.5ZM238 324.5H238.5V324H238V324.5ZM238 355.5V356H238.5V355.5H238ZM224 355.5V355H223.5V355.5H224ZM224 357.5L224.277 357.916L224.5 357.768V357.5H224ZM194 377.5L194.224 377.947L194.251 377.933L194.277 377.916L194 377.5ZM190 379.5L189.776 379.053L189.5 379.191V379.5H190ZM190 401L190.354 401.354L190.5 401.207V401H190ZM188.5 402.5V403H188.707L188.854 402.854L188.5 402.5ZM152 402.5L151.571 402.757L151.717 403H152V402.5ZM150.5 400H150V400.138L150.071 400.257L150.5 400ZM150.5 381.5H151V381.147L150.668 381.029L150.5 381.5ZM102 364.209H101.5V364.562L101.832 364.68L102 364.209ZM102 322.5V322H101.5V322.5H102ZM113 322.5V323H113.494L113.5 322.506L113 322.5ZM113.296 297L113.796 297.006L113.802 296.5H113.296V297ZM68 297H67.5V297.5H68V297ZM68 251.5V251H67.5V251.5H68ZM79.5 251.5V252H80V251.5H79.5ZM79.5 223.5H80V223H79.5V223.5ZM77.2188 223.5V223H76.7188V223.5H77.2188ZM77.2188 235V235.5H77.7188V235H77.2188ZM23.5 235H23V235.5H23.5V235ZM23.5 205.5V205H23V205.5H23.5ZM37 205.5V206H37.5V205.5H37ZM37 195.5H37.5V195H37V195.5ZM23.5 195.5H23V196H23.5V195.5ZM23.5 172V171.5H23V172H23.5ZM34 172V172.5H34.5V172H34ZM34 161.5H34.5V161H34V161.5ZM0.5 161.5H0V162H0.5V161.5ZM0.5 104.5V104H0V104.5H0.5ZM37.2266 104.5V105H37.7266V104.5H37.2266ZM37.2266 94.2725H37.7266V93.7725H37.2266V94.2725ZM23.2139 94.2725H22.7139V94.7725H23.2139V94.2725ZM23.2139 59.5V59H22.7139V59.5H23.2139ZM80 59.5H80.5V59H80V59.5ZM80 70.5H79.5V71H80V70.5ZM124.5 70.5V71H125V70.5H124.5ZM124.5 39.5V39H124V39.5H124.5ZM154.5 39.5V40H155V39.5H154.5ZM154.5 18V17.5H154V18H154.5ZM180.5 18H181V17.5H180.5V18ZM193 274V273.5H192.5V274H193ZM193 308V308.5H193.5V308H193ZM138 308H137.5V308.5H138V308ZM138 297H138.5V296.5H138V297ZM136.5 297V296.5H136V297H136.5ZM136.5 341H136V341.5H136.5V341ZM203.5 341V341.5H204V341H203.5ZM203.5 274H204V273.5H203.5V274ZM103 172.5V172H102.5V172.5H103ZM103 195.5V196H103.5V195.5H103ZM55 195.5V195H54.5V195.5H55ZM55 205.5H54.5V206H55V205.5ZM103 205.5H103.5V205H103V205.5ZM103 271.5V272H103.5V271.5H103ZM91.5 271.5V271H91V271.5H91.5ZM91.5 273.5H91V274H91.5V273.5ZM136.5 273.5H137V273H136.5V273.5ZM136.5 285H136V285.5H136.5V285ZM158 285V285.5H158.5V285H158ZM158 251.5H158.5V251H158V251.5ZM147 251.5H146.5V252H147V251.5ZM147 228.5V228H146.5V228.5H147ZM158 228.5V229H158.5V228.5H158ZM158 218H158.5V217.5H158V218ZM147 218H146.5V218.5H147V218ZM147 183.5V183H146.5V183.5H147ZM161.5 183.5V184H162V183.5H161.5ZM161.5 172.5H162V172H161.5V172.5ZM136.5 172.5V172H136.284L136.136 172.157L136.5 172.5ZM128 181.5V182H128.216L128.364 181.843L128 181.5ZM113 181.5H112.5V182H113V181.5ZM113 172.5H113.5V172H113V172.5ZM215 189.5V189H214.5V189.5H215ZM215 206H214.5V206.5H215V206ZM226.5 206H227V205.5H226.5V206ZM226.5 229V229.5H227V229H226.5ZM194 229H193.5V229.5H194V229ZM194 218H194.5V217.5H194V218ZM192.5 218V217.5H192V218H192.5ZM192.5 251.5V252H193V251.5H192.5ZM181.5 251.5V251H181V251.5H181.5ZM181.5 262.5H181V263H181.5V262.5ZM226.5 262.5H227V262H226.5V262.5ZM226.5 285H226V285.5H226.5V285ZM237 285V285.5H237.5V285H237ZM237 228.5V228H236.5V228.5H237ZM272 228.5H272.5V228H272V228.5ZM272 239.5H271.5V240H272V239.5ZM282.5 239.5V240H283V239.5H282.5ZM282.5 228.5V228H282V228.5H282.5ZM285 228.5V229H285.5V228.5H285ZM285 218H285.5V217.5H285V218ZM282 218L281.764 218.441L281.875 218.5H282V218ZM260.5 206.5L260.736 206.059L260.625 206H260.5V206.5ZM237 206.5H236.5V207H237V206.5ZM237 189.5H237.5V189H237V189.5ZM257.5 82.5V82H257V82.5H257.5ZM257.5 94V94.5H258V94H257.5ZM226.5 94V93.5H226V94H226.5ZM226.5 105V105.5H227V105H226.5ZM204.5 105V104.5H204V105H204.5ZM204.5 139V139.5H205V139H204.5ZM176 139V138.5H175.5V139H176ZM176 149.5H175.5V150H176V149.5ZM187.5 149.5H188V149H187.5V149.5ZM187.5 172.5V173H188V172.5H187.5ZM178.5 172.5V172H178V172.5H178.5ZM178.5 183.5H178V184H178.5V183.5ZM191.5 183.5H192V183H191.5V183.5ZM191.5 206H191V206.5H191.5V206ZM203.5 206V206.5H204V206H203.5ZM203.5 204H204V203.5H203.5V204ZM197.5 204H197V204.5H197.5V204ZM197.5 166.5V166H197V166.5H197.5ZM226.5 166.5H227V166H226.5V166.5ZM226.5 178H226V178.5H226.5V178ZM248.5 178V178.5H249V178H248.5ZM248.5 149.5V149H248V149.5H248.5ZM293.5 149.5V150H294V149.5H293.5ZM293.5 139H294V138.5H293.5V139ZM248.5 139H248V139.5H248.5V139ZM248.5 116V115.5H248V116H248.5ZM262.5 116V116.5H263V116H262.5ZM262.5 105H263V104.5H262.5V105ZM260 105H259.5V105.5H260V105ZM260 82.5H260.5V82H260V82.5ZM314 144.5V144H313.5V144.5H314ZM314 181.5V182H314.5V181.5H314ZM273.804 181.5H273.304V182H273.804V181.5ZM273.804 161.5H274.304V161H273.804V161.5ZM272 161.5V161H271.5V161.5H272ZM272 183.5H271.5V184H272V183.5ZM316 183.5V184H316.5V183.5H316ZM316 144.5H316.5V144H316V144.5ZM57.5 82.5V82H57V82.5H57.5ZM57.5 94V94.5H58V94H57.5ZM55 94V93.5H54.5V94H55ZM55 104.5H54.5V105H55V104.5ZM57.5 104.5H58V104H57.5V104.5ZM57.5 116H57V116.5H57.5V116ZM91.5 116H92V115.5H91.5V116ZM91.5 133.5V134H92V133.5H91.5ZM80 133.5V133H79.5V133.5H80ZM80 138.5H79.5V139H80V138.5ZM91.5 138.5H92V138H91.5V138.5ZM91.5 161H91V161.5H91.5V161ZM113 161V161.5H113.5V161H113ZM113 152V151.5H112.5V152H113ZM145 152H145.5V151.5H145V152ZM145 161H144.5V161.5H145V161ZM147 161V161.5H147.5V161H147ZM147 149.5V149H146.5V149.5H147ZM164 149.5V150H164.5V149.5H164ZM164 139H164.5V138.5H164V139ZM135.5 139H135V139.5H135.5V139ZM135.5 105H136V104.5H135.5V105ZM113 105H112.5V105.5H113V105ZM113 94H113.5V93.5H113V94ZM59.5 94H59V94.5H59.5V94ZM59.5 82.5H60V82H59.5V82.5ZM24 127.5V127H23.5V127.5H24ZM24 149.5H23.5V150H24V149.5ZM26 149.5V150H26.5V149.5H26ZM26 138.5V138H25.5V138.5H26ZM68.083 138.5V139H68.583V138.5H68.083ZM68.083 127.5H68.583V127H68.083V127.5ZM159.232 72V71.5H158.933L158.792 71.7642L159.232 72ZM148 93L147.559 92.7642L147.5 92.8747V93H148ZM148 127H147.5V127.5H148V127ZM192 127V127.5H192.5V127H192ZM192 93.3008H192.5V93.1744L192.44 93.0632L192 93.3008ZM180.5 72L180.94 71.7625L180.798 71.5H180.5V72ZM180.5 39.5V40H215.5V39.5V39H180.5V39.5ZM215.5 39.5H215V70.5H215.5H216V39.5H215.5ZM215.5 70.5V71H237V70.5V70H215.5V70.5ZM237 70.5H237.5V59.5H237H236.5V70.5H237ZM237 59.5V60H294V59.5V59H237V59.5ZM294 59.5H293.5V105H294H294.5V59.5H294ZM294 105V104.5H280.5V105V105.5H294V105ZM280.5 105H280V116H280.5H281V105H280.5ZM280.5 116V116.5H314V116V115.5H280.5V116ZM314 116H313.5V132.5H314H314.5V116H314ZM314 132.5V133H316V132.5V132H314V132.5ZM316 132.5H316.5V121.5H316H315.5V132.5H316ZM316 121.5V122H339.5V121.5V121H316V121.5ZM339.5 121.5H339V181.5H339.5H340V121.5H339.5ZM339.5 181.5V181H328V181.5V182H339.5V181.5ZM328 181.5H327.5V183.5H328H328.5V181.5H328ZM328 183.5V184H339.5V183.5V183H328V183.5ZM339.5 183.5H339V206.5H339.5H340V183.5H339.5ZM339.5 206.5V206H305.5V206.5V207H339.5V206.5ZM305.5 206.5H305V218H305.5H306V206.5H305.5ZM305.5 218V217.5H303V218V218.5H305.5V218ZM303 218H302.5V228.262H303H303.5V218H303ZM303 228.262V228.762H316.728V228.262V227.762H303V228.262ZM316.728 228.262H316.228V263H316.728H317.228V228.262H316.728ZM316.728 263V262.5H272V263V263.5H316.728V263ZM272 263H271.5V308H272H272.5V263H272ZM272 308V307.5H226.5V308V308.5H272V308ZM226.5 308H226V324.5H226.5H227V308H226.5ZM226.5 324.5V325H238V324.5V324H226.5V324.5ZM238 324.5H237.5V355.5H238H238.5V324.5H238ZM238 355.5V355H224V355.5V356H238V355.5ZM224 355.5H223.5V357.5H224H224.5V355.5H224ZM224 357.5L223.723 357.084L193.723 377.084L194 377.5L194.277 377.916L224.277 357.916L224 357.5ZM194 377.5L193.776 377.053L189.776 379.053L190 379.5L190.224 379.947L194.224 377.947L194 377.5ZM190 379.5H189.5V401H190H190.5V379.5H190ZM190 401L189.646 400.646L188.146 402.146L188.5 402.5L188.854 402.854L190.354 401.354L190 401ZM188.5 402.5V402H152V402.5V403H188.5V402.5ZM152 402.5L152.429 402.243L150.929 399.743L150.5 400L150.071 400.257L151.571 402.757L152 402.5ZM150.5 400H151V381.5H150.5H150V400H150.5ZM150.5 381.5L150.668 381.029L102.168 363.738L102 364.209L101.832 364.68L150.332 381.971L150.5 381.5ZM102 364.209H102.5V322.5H102H101.5V364.209H102ZM102 322.5V323H113V322.5V322H102V322.5ZM113 322.5L113.5 322.506L113.796 297.006L113.296 297L112.796 296.994L112.5 322.494L113 322.5ZM113.296 297V296.5H68V297V297.5H113.296V297ZM68 297H68.5V251.5H68H67.5V297H68ZM68 251.5V252H79.5V251.5V251H68V251.5ZM79.5 251.5H80V223.5H79.5H79V251.5H79.5ZM79.5 223.5V223H77.2188V223.5V224H79.5V223.5ZM77.2188 223.5H76.7188V235H77.2188H77.7188V223.5H77.2188ZM77.2188 235V234.5H23.5V235V235.5H77.2188V235ZM23.5 235H24V205.5H23.5H23V235H23.5ZM23.5 205.5V206H37V205.5V205H23.5V205.5ZM37 205.5H37.5V195.5H37H36.5V205.5H37ZM37 195.5V195H23.5V195.5V196H37V195.5ZM23.5 195.5H24V172H23.5H23V195.5H23.5ZM23.5 172V172.5H34V172V171.5H23.5V172ZM34 172H34.5V161.5H34H33.5V172H34ZM34 161.5V161H0.5V161.5V162H34V161.5ZM0.5 161.5H1V104.5H0.5H0V161.5H0.5ZM0.5 104.5V105H37.2266V104.5V104H0.5V104.5ZM37.2266 104.5H37.7266V94.2725H37.2266H36.7266V104.5H37.2266ZM37.2266 94.2725V93.7725H23.2139V94.2725V94.7725H37.2266V94.2725ZM23.2139 94.2725H23.7139V59.5H23.2139H22.7139V94.2725H23.2139ZM23.2139 59.5V60H80V59.5V59H23.2139V59.5ZM80 59.5H79.5V70.5H80H80.5V59.5H80ZM80 70.5V71H124.5V70.5V70H80V70.5ZM124.5 70.5H125V39.5H124.5H124V70.5H124.5ZM124.5 39.5V40H154.5V39.5V39H124.5V39.5ZM154.5 39.5H155V18H154.5H154V39.5H154.5ZM154.5 18V18.5H180.5V18V17.5H154.5V18ZM180.5 18H180V39.5H180.5H181V18H180.5ZM193 274H192.5V308H193H193.5V274H193ZM193 308V307.5H138V308V308.5H193V308ZM138 308H138.5V297H138H137.5V308H138ZM138 297V296.5H136.5V297V297.5H138V297ZM136.5 297H136V341H136.5H137V297H136.5ZM136.5 341V341.5H203.5V341V340.5H136.5V341ZM203.5 341H204V274H203.5H203V341H203.5ZM203.5 274V273.5H193V274V274.5H203.5V274ZM103 172.5H102.5V195.5H103H103.5V172.5H103ZM103 195.5V195H55V195.5V196H103V195.5ZM55 195.5H54.5V205.5H55H55.5V195.5H55ZM55 205.5V206H103V205.5V205H55V205.5ZM103 205.5H102.5V271.5H103H103.5V205.5H103ZM103 271.5V271H91.5V271.5V272H103V271.5ZM91.5 271.5H91V273.5H91.5H92V271.5H91.5ZM91.5 273.5V274H136.5V273.5V273H91.5V273.5ZM136.5 273.5H136V285H136.5H137V273.5H136.5ZM136.5 285V285.5H158V285V284.5H136.5V285ZM158 285H158.5V251.5H158H157.5V285H158ZM158 251.5V251H147V251.5V252H158V251.5ZM147 251.5H147.5V228.5H147H146.5V251.5H147ZM147 228.5V229H158V228.5V228H147V228.5ZM158 228.5H158.5V218H158H157.5V228.5H158ZM158 218V217.5H147V218V218.5H158V218ZM147 218H147.5V183.5H147H146.5V218H147ZM147 183.5V184H161.5V183.5V183H147V183.5ZM161.5 183.5H162V172.5H161.5H161V183.5H161.5ZM161.5 172.5V172H136.5V172.5V173H161.5V172.5ZM136.5 172.5L136.136 172.157L127.636 181.157L128 181.5L128.364 181.843L136.864 172.843L136.5 172.5ZM128 181.5V181H113V181.5V182H128V181.5ZM113 181.5H113.5V172.5H113H112.5V181.5H113ZM113 172.5V172H103V172.5V173H113V172.5ZM215 189.5H214.5V206H215H215.5V189.5H215ZM215 206V206.5H226.5V206V205.5H215V206ZM226.5 206H226V229H226.5H227V206H226.5ZM226.5 229V228.5H194V229V229.5H226.5V229ZM194 229H194.5V218H194H193.5V229H194ZM194 218V217.5H192.5V218V218.5H194V218ZM192.5 218H192V251.5H192.5H193V218H192.5ZM192.5 251.5V251H181.5V251.5V252H192.5V251.5ZM181.5 251.5H181V262.5H181.5H182V251.5H181.5ZM181.5 262.5V263H226.5V262.5V262H181.5V262.5ZM226.5 262.5H226V285H226.5H227V262.5H226.5ZM226.5 285V285.5H237V285V284.5H226.5V285ZM237 285H237.5V228.5H237H236.5V285H237ZM237 228.5V229H272V228.5V228H237V228.5ZM272 228.5H271.5V239.5H272H272.5V228.5H272ZM272 239.5V240H282.5V239.5V239H272V239.5ZM282.5 239.5H283V228.5H282.5H282V239.5H282.5ZM282.5 228.5V229H285V228.5V228H282.5V228.5ZM285 228.5H285.5V218H285H284.5V228.5H285ZM285 218V217.5H282V218V218.5H285V218ZM282 218L282.236 217.559L260.736 206.059L260.5 206.5L260.264 206.941L281.764 218.441L282 218ZM260.5 206.5V206H237V206.5V207H260.5V206.5ZM237 206.5H237.5V189.5H237H236.5V206.5H237ZM237 189.5V189H215V189.5V190H237V189.5ZM257.5 82.5H257V94H257.5H258V82.5H257.5ZM257.5 94V93.5H226.5V94V94.5H257.5V94ZM226.5 94H226V105H226.5H227V94H226.5ZM226.5 105V104.5H204.5V105V105.5H226.5V105ZM204.5 105H204V139H204.5H205V105H204.5ZM204.5 139V138.5H176V139V139.5H204.5V139ZM176 139H175.5V149.5H176H176.5V139H176ZM176 149.5V150H187.5V149.5V149H176V149.5ZM187.5 149.5H187V172.5H187.5H188V149.5H187.5ZM187.5 172.5V172H178.5V172.5V173H187.5V172.5ZM178.5 172.5H178V183.5H178.5H179V172.5H178.5ZM178.5 183.5V184H191.5V183.5V183H178.5V183.5ZM191.5 183.5H191V206H191.5H192V183.5H191.5ZM191.5 206V206.5H203.5V206V205.5H191.5V206ZM203.5 206H204V204H203.5H203V206H203.5ZM203.5 204V203.5H197.5V204V204.5H203.5V204ZM197.5 204H198V166.5H197.5H197V204H197.5ZM197.5 166.5V167H226.5V166.5V166H197.5V166.5ZM226.5 166.5H226V178H226.5H227V166.5H226.5ZM226.5 178V178.5H248.5V178V177.5H226.5V178ZM248.5 178H249V149.5H248.5H248V178H248.5ZM248.5 149.5V150H293.5V149.5V149H248.5V149.5ZM293.5 149.5H294V139H293.5H293V149.5H293.5ZM293.5 139V138.5H248.5V139V139.5H293.5V139ZM248.5 139H249V116H248.5H248V139H248.5ZM248.5 116V116.5H262.5V116V115.5H248.5V116ZM262.5 116H263V105H262.5H262V116H262.5ZM262.5 105V104.5H260V105V105.5H262.5V105ZM260 105H260.5V82.5H260H259.5V105H260ZM260 82.5V82H257.5V82.5V83H260V82.5ZM314 144.5H313.5V181.5H314H314.5V144.5H314ZM314 181.5V181H273.804V181.5V182H314V181.5ZM273.804 181.5H274.304V161.5H273.804H273.304V181.5H273.804ZM273.804 161.5V161H272V161.5V162H273.804V161.5ZM272 161.5H271.5V183.5H272H272.5V161.5H272ZM272 183.5V184H316V183.5V183H272V183.5ZM316 183.5H316.5V144.5H316H315.5V183.5H316ZM316 144.5V144H314V144.5V145H316V144.5ZM57.5 82.5H57V94H57.5H58V82.5H57.5ZM57.5 94V93.5H55V94V94.5H57.5V94ZM55 94H54.5V104.5H55H55.5V94H55ZM55 104.5V105H57.5V104.5V104H55V104.5ZM57.5 104.5H57V116H57.5H58V104.5H57.5ZM57.5 116V116.5H91.5V116V115.5H57.5V116ZM91.5 116H91V133.5H91.5H92V116H91.5ZM91.5 133.5V133H80V133.5V134H91.5V133.5ZM80 133.5H79.5V138.5H80H80.5V133.5H80ZM80 138.5V139H91.5V138.5V138H80V138.5ZM91.5 138.5H91V161H91.5H92V138.5H91.5ZM91.5 161V161.5H113V161V160.5H91.5V161ZM113 161H113.5V152H113H112.5V161H113ZM113 152V152.5H145V152V151.5H113V152ZM145 152H144.5V161H145H145.5V152H145ZM145 161V161.5H147V161V160.5H145V161ZM147 161H147.5V149.5H147H146.5V161H147ZM147 149.5V150H164V149.5V149H147V149.5ZM164 149.5H164.5V139H164H163.5V149.5H164ZM164 139V138.5H135.5V139V139.5H164V139ZM135.5 139H136V105H135.5H135V139H135.5ZM135.5 105V104.5H113V105V105.5H135.5V105ZM113 105H113.5V94H113H112.5V105H113ZM113 94V93.5H59.5V94V94.5H113V94ZM59.5 94H60V82.5H59.5H59V94H59.5ZM59.5 82.5V82H57.5V82.5V83H59.5V82.5ZM24 127.5H23.5V149.5H24H24.5V127.5H24ZM24 149.5V150H26V149.5V149H24V149.5ZM26 149.5H26.5V138.5H26H25.5V149.5H26ZM26 138.5V139H68.083V138.5V138H26V138.5ZM68.083 138.5H68.583V127.5H68.083H67.583V138.5H68.083ZM68.083 127.5V127H24V127.5V128H68.083V127.5ZM159.232 72L158.792 71.7642L147.559 92.7642L148 93L148.441 93.2358L159.673 72.2358L159.232 72ZM148 93H147.5V127H148H148.5V93H148ZM148 127V127.5H192V127V126.5H148V127ZM192 127H192.5V93.3008H192H191.5V127H192ZM192 93.3008L192.44 93.0632L180.94 71.7625L180.5 72L180.06 72.2375L191.56 93.5383L192 93.3008ZM180.5 72V71.5H159.232V72V72.5H180.5V72Z" fill="#B27C40"/>
<path d="M68 138.5V141H80V138.5M24 127.5V122H29V127.5M0.5 130H6V135.5H0.5M12 161.5V127.5M83 195.5V189.5H88V195.5M57.5 205.5V212H63V205.5M23.5 229H29V235M130.5 273.5V279.5H136.5M158 265.5H164V270.5H158M260 206.5L263 201.5L267.5 204L264.5 209M316 158.5H322V163.5H316M314 161.5H308.5V166.5H314M293.5 149.5V155H288.5V149.5M269 139V133H274V139M191.5 205H181V206H191.5M192.5 232H187V237H192.5M170 308V302H193M203.5 302.5H209V313.5H203.5M252 308V302.5H257V308M237 285H243V280H237M291.5 263V257.5H296.5V263M305.5 206.5V195.5H311V206.5M69.5 156H80V178H69.5V156ZM254.5 263H272V266.5H254.5V263Z" stroke="#B27C40"/>
<path d="M181 205H170.5V228.5H171.5V220M181 206H171.5V215M171.5 215H174V220H171.5M171.5 215V220M131 374.5L133.5 373L135 369L138 370L136.5 374L137 376.5M170.5 402.5V400L175.5 396L180 400V402.5M206 369.5V367L203.5 364L206.5 361.5L209 365L211 366M77 297V294H82.5V297M57.5 116C57.5 116.155 57.5 117.364 57.5 119M57.5 127.5C57.5 125.253 57.5 121.591 57.5 119M57.5 114H55V119H57.5M164 144.5H176M176 148H164M187.5 166.5L181.5 172.5M266 266.5V272H272M311 195.5H316.5M166 357L163.5 362C164.333 363.667 166.5 367 166.5 367C166.5 367 170.333 367 172 367L175 362L172 357H166ZM62.5 149H46V185H63V184H47V150H62.5V149Z" stroke="#B27C40" stroke-width="0.5"/>
<path d="M47 161.5H52V172.5H47" stroke="#B27C40"/>
<path d="M70 158.5H75V175.5H70" stroke="#B27C40" stroke-opacity="0.23"/>
<path d="M313.5 161H308V167H313.5V181H274.315V150H288V155.5H294V150H313.5V161Z" fill="#F08234" fill-opacity="0.23"/>
<path d="M287.816 170H286.27L289.086 162H290.875L293.695 170H292.148L290.012 163.641H289.949L287.816 170ZM287.867 166.863H292.086V168.027H287.867V166.863Z" fill="white"/>
<path d="M80 155.5H69V159H74.5V175H69V178.5H80V183.719H47.25V173H52.5V161H47.25V150.268H80V155.5Z" fill="#F08234" fill-opacity="0.23"/>
<path d="M57.7891 169V161H60.8516C61.4297 161 61.9102 161.091 62.293 161.273C62.6784 161.453 62.9661 161.699 63.1563 162.012C63.349 162.324 63.4453 162.678 63.4453 163.074C63.4453 163.4 63.3828 163.678 63.2578 163.91C63.1328 164.139 62.9648 164.326 62.7539 164.469C62.543 164.612 62.3073 164.715 62.0469 164.777V164.855C62.3307 164.871 62.6029 164.958 62.8633 165.117C63.1263 165.273 63.3411 165.495 63.5078 165.781C63.6745 166.068 63.7578 166.414 63.7578 166.82C63.7578 167.234 63.6576 167.607 63.457 167.937C63.2565 168.266 62.9544 168.525 62.5508 168.715C62.1471 168.905 61.6393 169 61.0273 169H57.7891ZM59.2383 167.789H60.7969C61.3229 167.789 61.7018 167.689 61.9336 167.488C62.168 167.285 62.2852 167.025 62.2852 166.707C62.2852 166.47 62.2266 166.257 62.1094 166.066C61.9922 165.874 61.8255 165.723 61.6094 165.613C61.3932 165.501 61.1354 165.445 60.8359 165.445H59.2383V167.789ZM59.2383 164.402H60.6719C60.9219 164.402 61.1471 164.357 61.3477 164.266C61.5482 164.172 61.7057 164.04 61.8203 163.871C61.9375 163.699 61.9961 163.496 61.9961 163.262C61.9961 162.952 61.8867 162.697 61.668 162.496C61.4518 162.296 61.1302 162.195 60.7031 162.195H59.2383V164.402Z" fill="white"/>
<circle cx="129" cy="275" r="1.75" stroke="#B27C40" stroke-width="0.5"/>
<circle cx="168.5" cy="303.5" r="1.25" stroke="#B27C40" stroke-width="0.5"/>
<circle cx="168.5" cy="306.5" r="1.25" stroke="#B27C40" stroke-width="0.5"/>
</svg>
