<svg width="413" height="429" viewBox="0 0 413 429" fill="none" xmlns="http://www.w3.org/2000/svg">
<path fill-rule="evenodd" clip-rule="evenodd" d="M44 84V95.5L55.5 103.5L31 144.5V156.5H41.5V184.5H40L30.5 169.5H14.5V175.5H8V233.5H1V245.5H43V272L49 279.5H58.5V283L78.5 303H123.5V328.5H112.5V385L138.5 410.5H240.5L245.5 407.5H248L251.5 405.5L255.5 402H260L267 400H272L291.5 397L309.5 396L321.5 382V363H312.5V354L318.5 332.5L324.5 316.5C324.313 314.691 323.936 313.845 323 312.5L320.5 310L322.5 307C327.61 305.064 330.451 304.562 335.5 304L362 285V226.5H352.5V222.5H370.5V240.5H412.5V171H381V158H384.5V104.5L352.5 72.5H321.5V83.5H287.5V56.5H298.5V25.5L288.5 20.5H252V18.5H193.5V58H186V47.5H153.5V55.5H142L130 49H108V48.5H86V84H44ZM302 217.5H323.5V226L327 233.5H338V240H327.5V276H338V283.5H312C301.553 295.582 296.203 303.001 288.273 317.5L288 336.5L287 337.5V345.5L288.273 352.5H290.5V362.5H288V369.5H252V346.5H195V368.5H163L145.5 351V336H161.5L172.5 321.5V291H146V260.5H174L184.5 255.5H286L302 239V217.5ZM259.5 194V156.5H263V184.5L279 198H304.5V202.5H285.5V227.5H266V194H259.5ZM317 136.5V124H336V112.215H354.5V158.5H364.5V171L355 183.5H338V174H296.5V156.5H297.5L317 136.5ZM94.5 183.5H133.5L150 200V213L159 222V241.5H168V212.5L136 180.5H94.5V183.5ZM73.5 113.5L62.5 134V160.5H89V122.5L73.5 113.5ZM112.5 160.5H117.5V154H144.5L184 193.5H212.5V228H233V194H245V143H270V132.5L287 115.5H308.5V108H264.5V51.5H260V56.5H238.5V96H237.5V97.5L236 99V101.5H193.5V94.5H164.5L153.5 74H141.5L112.5 136.5V160.5ZM106 274.5V227.5H130V263.5H120V274.5H106ZM67.5 230H21.5V234H54.5V266H58.5V259.5H78V238H88V222.5H67.5V230Z" fill="#271406"/>
<path d="M44 95.5L43.7145 95.9105L43.5 95.7613V95.5H44ZM44 84H43.5V83.5H44V84ZM55.5 103.5L55.7855 103.09L56.1685 103.356L55.9292 103.756L55.5 103.5ZM31 144.5H30.5V144.362L30.5708 144.244L31 144.5ZM31 156.5V157H30.5V156.5H31ZM41.5 156.5V156H42V156.5H41.5ZM41.5 184.5H42V185H41.5V184.5ZM40 184.5V185H39.7248L39.5776 184.768L40 184.5ZM30.5 169.5V169H30.7752L30.9224 169.232L30.5 169.5ZM14.5 169.5H14V169H14.5V169.5ZM14.5 175.5H15V176H14.5V175.5ZM8 175.5H7.5V175H8V175.5ZM8 233.5H8.5V234H8V233.5ZM1 233.5H0.5V233H1V233.5ZM1 245.5V246H0.5V245.5H1ZM43 245.5V245H43.5V245.5H43ZM43 272L42.6096 272.312L42.5 272.175V272H43ZM49 279.5V280H48.7597L48.6096 279.812L49 279.5ZM58.5 279.5V279H59V279.5H58.5ZM58.5 283L58.1464 283.354L58 283.207V283H58.5ZM78.5 303V303.5H78.2929L78.1464 303.354L78.5 303ZM123.5 303V302.5H124V303H123.5ZM123.5 328.5H124V329H123.5V328.5ZM112.5 328.5H112V328H112.5V328.5ZM112.5 385L112.15 385.357L112 385.21V385H112.5ZM138.5 410.5V411H138.296L138.15 410.857L138.5 410.5ZM240.5 410.5L240.757 410.929L240.638 411H240.5V410.5ZM245.5 407.5L245.243 407.071L245.362 407H245.5V407.5ZM248 407.5L248.248 407.934L248.133 408H248V407.5ZM251.5 405.5L251.829 405.876L251.792 405.909L251.748 405.934L251.5 405.5ZM255.5 402L255.171 401.624L255.312 401.5H255.5V402ZM260 402L260.137 402.481L260.07 402.5H260V402ZM267 400L266.863 399.519L266.93 399.5H267V400ZM272 400L272.076 400.494L272.038 400.5H272V400ZM291.5 397L291.424 396.506L291.448 396.502L291.472 396.501L291.5 397ZM309.5 396L309.88 396.325L309.741 396.487L309.528 396.499L309.5 396ZM321.5 382H322V382.185L321.88 382.325L321.5 382ZM321.5 363V362.5H322V363H321.5ZM312.5 363V363.5H312V363H312.5ZM312.5 354H312V353.932L312.018 353.866L312.5 354ZM318.5 332.5L318.018 332.366L318.024 332.345L318.032 332.324L318.5 332.5ZM324.5 316.5L324.997 316.449L325.009 316.565L324.968 316.676L324.5 316.5ZM323 312.5L323.354 312.146L323.385 312.178L323.41 312.214L323 312.5ZM320.5 310L320.146 310.354L319.857 310.064L320.084 309.723L320.5 310ZM322.5 307L322.084 306.723L322.173 306.589L322.323 306.532L322.5 307ZM335.5 304L335.791 304.406L335.685 304.482L335.555 304.497L335.5 304ZM362 285H362.5V285.257L362.291 285.406L362 285ZM362 226.5V226H362.5V226.5H362ZM352.5 226.5V227H352V226.5H352.5ZM352.5 222.5H352V222H352.5V222.5ZM370.5 222.5V222H371V222.5H370.5ZM370.5 240.5V241H370V240.5H370.5ZM412.5 240.5H413V241H412.5V240.5ZM412.5 171V170.5H413V171H412.5ZM381 171V171.5H380.5V171H381ZM381 158H380.5V157.5H381V158ZM384.5 158H385V158.5H384.5V158ZM384.5 104.5L384.854 104.146L385 104.293V104.5H384.5ZM352.5 72.5V72H352.707L352.854 72.1464L352.5 72.5ZM321.5 72.5H321V72H321.5V72.5ZM321.5 83.5H322V84H321.5V83.5ZM287.5 83.5V84H287V83.5H287.5ZM287.5 56.5H287V56H287.5V56.5ZM298.5 56.5H299V57H298.5V56.5ZM298.5 25.5L298.724 25.0528L299 25.191V25.5H298.5ZM288.5 20.5V20H288.618L288.724 20.0528L288.5 20.5ZM252 20.5V21H251.5V20.5H252ZM252 18.5V18H252.5V18.5H252ZM193.5 18.5H193V18H193.5V18.5ZM193.5 58H194V58.5H193.5V58ZM186 58V58.5H185.5V58H186ZM186 47.5V47H186.5V47.5H186ZM153.5 47.5H153V47H153.5V47.5ZM153.5 55.5H154V56H153.5V55.5ZM142 55.5V56H141.873L141.762 55.9396L142 55.5ZM130 49V48.5H130.127L130.238 48.5604L130 49ZM108 49V49.5H107.5V49H108ZM108 48.5V48H108.5V48.5H108ZM86 48.5H85.5V48H86V48.5ZM86 84H86.5V84.5H86V84ZM323.5 217.5V217H324V217.5H323.5ZM302 217.5H301.5V217H302V217.5ZM323.5 226L323.047 226.211L323 226.111V226H323.5ZM327 233.5V234H326.682L326.547 233.711L327 233.5ZM338 233.5V233H338.5V233.5H338ZM338 240H338.5V240.5H338V240ZM327.5 240H327V239.5H327.5V240ZM327.5 276V276.5H327V276H327.5ZM338 276V275.5H338.5V276H338ZM338 283.5H338.5V284H338V283.5ZM312 283.5L311.622 283.173L311.771 283H312V283.5ZM288.273 317.5L287.773 317.493L287.775 317.369L287.834 317.26L288.273 317.5ZM288 336.5L288.5 336.507L288.497 336.71L288.354 336.854L288 336.5ZM287 337.5H286.5V337.293L286.646 337.146L287 337.5ZM287 345.5L286.508 345.589L286.5 345.545V345.5H287ZM288.273 352.5V353H287.856L287.781 352.589L288.273 352.5ZM290.5 352.5V352H291V352.5H290.5ZM290.5 362.5H291V363H290.5V362.5ZM288 362.5H287.5V362H288V362.5ZM288 369.5H288.5V370H288V369.5ZM252 369.5V370H251.5V369.5H252ZM252 346.5V346H252.5V346.5H252ZM195 346.5H194.5V346H195V346.5ZM195 368.5H195.5V369H195V368.5ZM163 368.5V369H162.793L162.646 368.854L163 368.5ZM145.5 351L145.146 351.354L145 351.207V351H145.5ZM145.5 336H145V335.5H145.5V336ZM161.5 336L161.898 336.302L161.748 336.5H161.5V336ZM172.5 321.5H173V321.668L172.898 321.802L172.5 321.5ZM172.5 291V290.5H173V291H172.5ZM146 291V291.5H145.5V291H146ZM146 260.5H145.5V260H146V260.5ZM174 260.5L174.215 260.951L174.113 261H174V260.5ZM184.5 255.5L184.285 255.049L184.387 255H184.5V255.5ZM286 255.5L286.359 255.848L286.212 256H286V255.5ZM302 239H302.5V239.203L302.359 239.348L302 239ZM259.5 156.5H259V156H259.5V156.5ZM259.5 194V194.5H259V194H259.5ZM263 156.5V156H263.5V156.5H263ZM263 184.5L262.678 184.882L262.5 184.732V184.5H263ZM279 198V198.5H278.817L278.678 198.382L279 198ZM304.5 198V197.5H305V198H304.5ZM304.5 202.5H305V203H304.5V202.5ZM285.5 202.5H285V202H285.5V202.5ZM285.5 227.5H286V228H285.5V227.5ZM266 227.5V228H265.5V227.5H266ZM266 194V193.5H266.5V194H266ZM317 124H316.5V123.5H317V124ZM317 136.5H317.5V136.703L317.358 136.849L317 136.5ZM336 124H336.5V124.5H336V124ZM336 112.215H335.5V111.715H336V112.215ZM354.5 112.215V111.715H355V112.215H354.5ZM354.5 158.5V159H354V158.5H354.5ZM364.5 158.5V158H365V158.5H364.5ZM364.5 171H365V171.168L364.898 171.303L364.5 171ZM355 183.5L355.398 183.803L355.248 184H355V183.5ZM338 183.5V184H337.5V183.5H338ZM338 174V173.5H338.5V174H338ZM296.5 174V174.5H296V174H296.5ZM296.5 156.5H296V156H296.5V156.5ZM297.5 156.5L297.858 156.849L297.711 157H297.5V156.5ZM133.5 183.5V183H133.707L133.854 183.146L133.5 183.5ZM94.5 183.5V184H94V183.5H94.5ZM150 200L150.354 199.646L150.5 199.793V200H150ZM150 213L149.646 213.354L149.5 213.207V213H150ZM159 222L159.354 221.646L159.5 221.793V222H159ZM159 241.5V242H158.5V241.5H159ZM168 241.5H168.5V242H168V241.5ZM168 212.5L168.354 212.146L168.5 212.293V212.5H168ZM136 180.5V180H136.207L136.354 180.146L136 180.5ZM94.5 180.5H94V180H94.5V180.5ZM62.5 134H62V133.874L62.0594 133.764L62.5 134ZM73.5 113.5L73.0594 113.264L73.3039 112.808L73.7511 113.068L73.5 113.5ZM62.5 160.5V161H62V160.5H62.5ZM89 160.5H89.5V161H89V160.5ZM89 122.5L89.2511 122.068L89.5 122.212V122.5H89ZM117.5 160.5H118V161H117.5V160.5ZM112.5 160.5V161H112V160.5H112.5ZM117.5 154H117V153.5H117.5V154ZM144.5 154V153.5H144.707L144.854 153.646L144.5 154ZM184 193.5V194H183.793L183.646 193.854L184 193.5ZM212.5 193.5V193H213V193.5H212.5ZM212.5 228V228.5H212V228H212.5ZM233 228H233.5V228.5H233V228ZM233 194H232.5V193.5H233V194ZM245 194H245.5V194.5H245V194ZM245 143H244.5V142.5H245V143ZM270 143H270.5V143.5H270V143ZM270 132.5H269.5V132.293L269.646 132.146L270 132.5ZM287 115.5L286.646 115.146L286.793 115H287V115.5ZM308.5 115.5H309V116H308.5V115.5ZM308.5 108V107.5H309V108H308.5ZM264.5 108V108.5H264V108H264.5ZM264.5 51.5V51H265V51.5H264.5ZM260 51.5H259.5V51H260V51.5ZM260 56.5H260.5V57H260V56.5ZM238.5 56.5H238V56H238.5V56.5ZM238.5 96H239V96.5H238.5V96ZM237.5 96H237V95.5H237.5V96ZM237.5 97.5H238V97.7071L237.854 97.8536L237.5 97.5ZM236 99H235.5V98.7929L235.646 98.6464L236 99ZM236 101.5H236.5V102H236V101.5ZM193.5 101.5V102H193V101.5H193.5ZM193.5 94.5V94H194V94.5H193.5ZM164.5 94.5V95H164.201L164.059 94.7364L164.5 94.5ZM153.5 74V73.5H153.799L153.941 73.7636L153.5 74ZM141.5 74L141.046 73.7896L141.181 73.5H141.5V74ZM112.5 136.5H112V136.39L112.046 136.29L112.5 136.5ZM106 227.5H105.5V227H106V227.5ZM106 274.5V275H105.5V274.5H106ZM130 227.5V227H130.5V227.5H130ZM130 263.5H130.5V264H130V263.5ZM120 263.5H119.5V263H120V263.5ZM120 274.5H120.5V275H120V274.5ZM21.5 230H21V229.5H21.5V230ZM67.5 230H68V230.5H67.5V230ZM21.5 234V234.5H21V234H21.5ZM54.5 234V233.5H55V234H54.5ZM54.5 266V266.5H54V266H54.5ZM58.5 266H59V266.5H58.5V266ZM58.5 259.5H58V259H58.5V259.5ZM78 259.5H78.5V260H78V259.5ZM78 238H77.5V237.5H78V238ZM88 238H88.5V238.5H88V238ZM88 222.5V222H88.5V222.5H88ZM67.5 222.5H67V222H67.5V222.5ZM44 95.5H43.5V84H44H44.5V95.5H44ZM55.5 103.5L55.2145 103.91L43.7145 95.9105L44 95.5L44.2855 95.0895L55.7855 103.09L55.5 103.5ZM31 144.5L30.5708 144.244L55.0708 103.244L55.5 103.5L55.9292 103.756L31.4292 144.756L31 144.5ZM31 156.5H30.5V144.5H31H31.5V156.5H31ZM41.5 156.5V157H31V156.5V156H41.5V156.5ZM41.5 184.5H41V156.5H41.5H42V184.5H41.5ZM40 184.5V184H41.5V184.5V185H40V184.5ZM30.5 169.5L30.9224 169.232L40.4224 184.232L40 184.5L39.5776 184.768L30.0776 169.768L30.5 169.5ZM14.5 169.5V169H30.5V169.5V170H14.5V169.5ZM14.5 175.5H14V169.5H14.5H15V175.5H14.5ZM8 175.5V175H14.5V175.5V176H8V175.5ZM8 233.5H7.5V175.5H8H8.5V233.5H8ZM1 233.5V233H8V233.5V234H1V233.5ZM1 245.5H0.5V233.5H1H1.5V245.5H1ZM43 245.5V246H1V245.5V245H43V245.5ZM43 272H42.5V245.5H43H43.5V272H43ZM49 279.5L48.6096 279.812L42.6096 272.312L43 272L43.3904 271.688L49.3904 279.188L49 279.5ZM58.5 279.5V280H49V279.5V279H58.5V279.5ZM58.5 283H58V279.5H58.5H59V283H58.5ZM78.5 303L78.1464 303.354L58.1464 283.354L58.5 283L58.8536 282.646L78.8536 302.646L78.5 303ZM123.5 303V303.5H78.5V303V302.5H123.5V303ZM123.5 328.5H123V303H123.5H124V328.5H123.5ZM112.5 328.5V328H123.5V328.5V329H112.5V328.5ZM112.5 385H112V328.5H112.5H113V385H112.5ZM138.5 410.5L138.15 410.857L112.15 385.357L112.5 385L112.85 384.643L138.85 410.143L138.5 410.5ZM240.5 410.5V411H138.5V410.5V410H240.5V410.5ZM245.5 407.5L245.757 407.929L240.757 410.929L240.5 410.5L240.243 410.071L245.243 407.071L245.5 407.5ZM248 407.5V408H245.5V407.5V407H248V407.5ZM251.5 405.5L251.748 405.934L248.248 407.934L248 407.5L247.752 407.066L251.252 405.066L251.5 405.5ZM255.5 402L255.829 402.376L251.829 405.876L251.5 405.5L251.171 405.124L255.171 401.624L255.5 402ZM260 402V402.5H255.5V402V401.5H260V402ZM267 400L267.137 400.481L260.137 402.481L260 402L259.863 401.519L266.863 399.519L267 400ZM272 400V400.5H267V400V399.5H272V400ZM291.5 397L291.576 397.494L272.076 400.494L272 400L271.924 399.506L291.424 396.506L291.5 397ZM309.5 396L309.528 396.499L291.528 397.499L291.5 397L291.472 396.501L309.472 395.501L309.5 396ZM321.5 382L321.88 382.325L309.88 396.325L309.5 396L309.12 395.675L321.12 381.675L321.5 382ZM321.5 363H322V382H321.5H321V363H321.5ZM312.5 363V362.5H321.5V363V363.5H312.5V363ZM312.5 354H313V363H312.5H312V354H312.5ZM318.5 332.5L318.982 332.634L312.982 354.134L312.5 354L312.018 353.866L318.018 332.366L318.5 332.5ZM324.5 316.5L324.968 316.676L318.968 332.676L318.5 332.5L318.032 332.324L324.032 316.324L324.5 316.5ZM323 312.5L323.41 312.214C323.888 312.9 324.242 313.486 324.497 314.145C324.753 314.807 324.901 315.518 324.997 316.449L324.5 316.5L324.003 316.551C323.912 315.673 323.778 315.057 323.565 314.507C323.351 313.955 323.049 313.445 322.59 312.786L323 312.5ZM320.5 310L320.854 309.646L323.354 312.146L323 312.5L322.646 312.854L320.146 310.354L320.5 310ZM322.5 307L322.916 307.277L320.916 310.277L320.5 310L320.084 309.723L322.084 306.723L322.5 307ZM335.5 304L335.555 304.497C330.534 305.056 327.737 305.551 322.677 307.468L322.5 307L322.323 306.532C327.483 304.577 330.367 304.068 335.445 303.503L335.5 304ZM362 285L362.291 285.406L335.791 304.406L335.5 304L335.209 303.594L361.709 284.594L362 285ZM362 226.5H362.5V285H362H361.5V226.5H362ZM352.5 226.5V226H362V226.5V227H352.5V226.5ZM352.5 222.5H353V226.5H352.5H352V222.5H352.5ZM370.5 222.5V223H352.5V222.5V222H370.5V222.5ZM370.5 240.5H370V222.5H370.5H371V240.5H370.5ZM412.5 240.5V241H370.5V240.5V240H412.5V240.5ZM412.5 171H413V240.5H412.5H412V171H412.5ZM381 171V170.5H412.5V171V171.5H381V171ZM381 158H381.5V171H381H380.5V158H381ZM384.5 158V158.5H381V158V157.5H384.5V158ZM384.5 104.5H385V158H384.5H384V104.5H384.5ZM352.5 72.5L352.854 72.1464L384.854 104.146L384.5 104.5L384.146 104.854L352.146 72.8536L352.5 72.5ZM321.5 72.5V72H352.5V72.5V73H321.5V72.5ZM321.5 83.5H321V72.5H321.5H322V83.5H321.5ZM287.5 83.5V83H321.5V83.5V84H287.5V83.5ZM287.5 56.5H288V83.5H287.5H287V56.5H287.5ZM298.5 56.5V57H287.5V56.5V56H298.5V56.5ZM298.5 25.5H299V56.5H298.5H298V25.5H298.5ZM288.5 20.5L288.724 20.0528L298.724 25.0528L298.5 25.5L298.276 25.9472L288.276 20.9472L288.5 20.5ZM252 20.5V20H288.5V20.5V21H252V20.5ZM252 18.5H252.5V20.5H252H251.5V18.5H252ZM193.5 18.5V18H252V18.5V19H193.5V18.5ZM193.5 58H193V18.5H193.5H194V58H193.5ZM186 58V57.5H193.5V58V58.5H186V58ZM186 47.5H186.5V58H186H185.5V47.5H186ZM153.5 47.5V47H186V47.5V48H153.5V47.5ZM153.5 55.5H153V47.5H153.5H154V55.5H153.5ZM142 55.5V55H153.5V55.5V56H142V55.5ZM130 49L130.238 48.5604L142.238 55.0604L142 55.5L141.762 55.9396L129.762 49.4396L130 49ZM108 49V48.5H130V49V49.5H108V49ZM108 48.5H108.5V49H108H107.5V48.5H108ZM86 48.5V48H108V48.5V49H86V48.5ZM86 84H85.5V48.5H86H86.5V84H86ZM44 84V83.5H86V84V84.5H44V84ZM323.5 217.5V218H302V217.5V217H323.5V217.5ZM323.5 226H323V217.5H323.5H324V226H323.5ZM327 233.5L326.547 233.711L323.047 226.211L323.5 226L323.953 225.789L327.453 233.289L327 233.5ZM338 233.5V234H327V233.5V233H338V233.5ZM338 240H337.5V233.5H338H338.5V240H338ZM327.5 240V239.5H338V240V240.5H327.5V240ZM327.5 276H327V240H327.5H328V276H327.5ZM338 276V276.5H327.5V276V275.5H338V276ZM338 283.5H337.5V276H338H338.5V283.5H338ZM312 283.5V283H338V283.5V284H312V283.5ZM288.273 317.5L287.834 317.26C295.783 302.727 301.154 295.279 311.622 283.173L312 283.5L312.378 283.827C301.952 295.885 296.622 303.275 288.712 317.74L288.273 317.5ZM288 336.5L287.5 336.493L287.773 317.493L288.273 317.5L288.773 317.507L288.5 336.507L288 336.5ZM287 337.5L286.646 337.146L287.646 336.146L288 336.5L288.354 336.854L287.354 337.854L287 337.5ZM287 345.5H286.5V337.5H287H287.5V345.5H287ZM288.273 352.5L287.781 352.589L286.508 345.589L287 345.5L287.492 345.411L288.765 352.411L288.273 352.5ZM290.5 352.5V353H288.273V352.5V352H290.5V352.5ZM290.5 362.5H290V352.5H290.5H291V362.5H290.5ZM288 362.5V362H290.5V362.5V363H288V362.5ZM288 369.5H287.5V362.5H288H288.5V369.5H288ZM252 369.5V369H288V369.5V370H252V369.5ZM252 346.5H252.5V369.5H252H251.5V346.5H252ZM195 346.5V346H252V346.5V347H195V346.5ZM195 368.5H194.5V346.5H195H195.5V368.5H195ZM163 368.5V368H195V368.5V369H163V368.5ZM145.5 351L145.854 350.646L163.354 368.146L163 368.5L162.646 368.854L145.146 351.354L145.5 351ZM145.5 336H146V351H145.5H145V336H145.5ZM161.5 336V336.5H145.5V336V335.5H161.5V336ZM172.5 321.5L172.898 321.802L161.898 336.302L161.5 336L161.102 335.698L172.102 321.198L172.5 321.5ZM172.5 291H173V321.5H172.5H172V291H172.5ZM146 291V290.5H172.5V291V291.5H146V291ZM146 260.5H146.5V291H146H145.5V260.5H146ZM174 260.5V261H146V260.5V260H174V260.5ZM184.5 255.5L184.715 255.951L174.215 260.951L174 260.5L173.785 260.049L184.285 255.049L184.5 255.5ZM286 255.5V256H184.5V255.5V255H286V255.5ZM302 239L302.359 239.348L286.359 255.848L286 255.5L285.641 255.152L301.641 238.652L302 239ZM302 217.5H302.5V239H302H301.5V217.5H302ZM259.5 156.5H260V194H259.5H259V156.5H259.5ZM263 156.5V157H259.5V156.5V156H263V156.5ZM263 184.5H262.5V156.5H263H263.5V184.5H263ZM279 198L278.678 198.382L262.678 184.882L263 184.5L263.322 184.118L279.322 197.618L279 198ZM304.5 198V198.5H279V198V197.5H304.5V198ZM304.5 202.5H304V198H304.5H305V202.5H304.5ZM285.5 202.5V202H304.5V202.5V203H285.5V202.5ZM285.5 227.5H285V202.5H285.5H286V227.5H285.5ZM266 227.5V227H285.5V227.5V228H266V227.5ZM266 194H266.5V227.5H266H265.5V194H266ZM259.5 194V193.5H266V194V194.5H259.5V194ZM317 124H317.5V136.5H317H316.5V124H317ZM336 124V124.5H317V124V123.5H336V124ZM336 112.215H336.5V124H336H335.5V112.215H336ZM354.5 112.215V112.715H336V112.215V111.715H354.5V112.215ZM354.5 158.5H354V112.215H354.5H355V158.5H354.5ZM364.5 158.5V159H354.5V158.5V158H364.5V158.5ZM364.5 171H364V158.5H364.5H365V171H364.5ZM355 183.5L354.602 183.197L364.102 170.697L364.5 171L364.898 171.303L355.398 183.803L355 183.5ZM338 183.5V183H355V183.5V184H338V183.5ZM338 174H338.5V183.5H338H337.5V174H338ZM296.5 174V173.5H338V174V174.5H296.5V174ZM296.5 156.5H297V174H296.5H296V156.5H296.5ZM297.5 156.5V157H296.5V156.5V156H297.5V156.5ZM317 136.5L317.358 136.849L297.858 156.849L297.5 156.5L297.142 156.151L316.642 136.151L317 136.5ZM133.5 183.5V184H94.5V183.5V183H133.5V183.5ZM150 200L149.646 200.354L133.146 183.854L133.5 183.5L133.854 183.146L150.354 199.646L150 200ZM150 213H149.5V200H150H150.5V213H150ZM159 222L158.646 222.354L149.646 213.354L150 213L150.354 212.646L159.354 221.646L159 222ZM159 241.5H158.5V222H159H159.5V241.5H159ZM168 241.5V242H159V241.5V241H168V241.5ZM168 212.5H168.5V241.5H168H167.5V212.5H168ZM136 180.5L136.354 180.146L168.354 212.146L168 212.5L167.646 212.854L135.646 180.854L136 180.5ZM94.5 180.5V180H136V180.5V181H94.5V180.5ZM94.5 183.5H94V180.5H94.5H95V183.5H94.5ZM62.5 134L62.0594 133.764L73.0594 113.264L73.5 113.5L73.9406 113.736L62.9406 134.236L62.5 134ZM62.5 160.5H62V134H62.5H63V160.5H62.5ZM89 160.5V161H62.5V160.5V160H89V160.5ZM89 122.5H89.5V160.5H89H88.5V122.5H89ZM73.5 113.5L73.7511 113.068L89.2511 122.068L89 122.5L88.7489 122.932L73.2489 113.932L73.5 113.5ZM117.5 160.5V161H112.5V160.5V160H117.5V160.5ZM117.5 154H118V160.5H117.5H117V154H117.5ZM144.5 154V154.5H117.5V154V153.5H144.5V154ZM184 193.5L183.646 193.854L144.146 154.354L144.5 154L144.854 153.646L184.354 193.146L184 193.5ZM212.5 193.5V194H184V193.5V193H212.5V193.5ZM212.5 228H212V193.5H212.5H213V228H212.5ZM233 228V228.5H212.5V228V227.5H233V228ZM233 194H233.5V228H233H232.5V194H233ZM245 194V194.5H233V194V193.5H245V194ZM245 143H245.5V194H245H244.5V143H245ZM270 143V143.5H245V143V142.5H270V143ZM270 132.5H270.5V143H270H269.5V132.5H270ZM287 115.5L287.354 115.854L270.354 132.854L270 132.5L269.646 132.146L286.646 115.146L287 115.5ZM308.5 115.5V116H287V115.5V115H308.5V115.5ZM308.5 108H309V115.5H308.5H308V108H308.5ZM264.5 108V107.5H308.5V108V108.5H264.5V108ZM264.5 51.5H265V108H264.5H264V51.5H264.5ZM260 51.5V51H264.5V51.5V52H260V51.5ZM260 56.5H259.5V51.5H260H260.5V56.5H260ZM238.5 56.5V56H260V56.5V57H238.5V56.5ZM238.5 96H238V56.5H238.5H239V96H238.5ZM237.5 96V95.5H238.5V96V96.5H237.5V96ZM237.5 97.5H237V96H237.5H238V97.5H237.5ZM236 99L235.646 98.6464L237.146 97.1464L237.5 97.5L237.854 97.8536L236.354 99.3536L236 99ZM236 101.5H235.5V99H236H236.5V101.5H236ZM193.5 101.5V101H236V101.5V102H193.5V101.5ZM193.5 94.5H194V101.5H193.5H193V94.5H193.5ZM164.5 94.5V94H193.5V94.5V95H164.5V94.5ZM153.5 74L153.941 73.7636L164.941 94.2636L164.5 94.5L164.059 94.7364L153.059 74.2364L153.5 74ZM141.5 74V73.5H153.5V74V74.5H141.5V74ZM112.5 136.5L112.046 136.29L141.046 73.7896L141.5 74L141.954 74.2104L112.954 136.71L112.5 136.5ZM112.5 160.5H112V136.5H112.5H113V160.5H112.5ZM106 227.5H106.5V274.5H106H105.5V227.5H106ZM130 227.5V228H106V227.5V227H130V227.5ZM130 263.5H129.5V227.5H130H130.5V263.5H130ZM120 263.5V263H130V263.5V264H120V263.5ZM120 274.5H119.5V263.5H120H120.5V274.5H120ZM106 274.5V274H120V274.5V275H106V274.5ZM21.5 230V229.5H67.5V230V230.5H21.5V230ZM21.5 234H21V230H21.5H22V234H21.5ZM54.5 234V234.5H21.5V234V233.5H54.5V234ZM54.5 266H54V234H54.5H55V266H54.5ZM58.5 266V266.5H54.5V266V265.5H58.5V266ZM58.5 259.5H59V266H58.5H58V259.5H58.5ZM78 259.5V260H58.5V259.5V259H78V259.5ZM78 238H78.5V259.5H78H77.5V238H78ZM88 238V238.5H78V238V237.5H88V238ZM88 222.5H88.5V238H88H87.5V222.5H88ZM67.5 222.5V222H88V222.5V223H67.5V222.5ZM67.5 230H67V222.5H67.5H68V230H67.5ZM288.273 317.5L288.712 317.74C288.621 317.905 288.53 318.072 288.439 318.239L288 318L287.561 317.761C287.652 317.593 287.744 317.426 287.834 317.26L288.273 317.5Z" fill="#B27C40"/>
<path d="M249.5 391.5H257.5C259.697 392.717 260.895 392.357 263 391H272L274 391.5" stroke="#B27C40" stroke-width="0.5"/>
<path d="M63 177V193.5H68.5V195.5H75.5V209.5M75.5 209.5H68.5M75.5 209.5H81" stroke="#B27C40"/>
<path d="M336 112V105H342.5V112M384.5 134H375V126.5H384.5M77.5 277L88 287.5L93 282.5L82.5 272L77.5 277Z" stroke="#B27C40"/>
<path d="M89 160.5H112.5" stroke="#B27C40"/>
<path d="M112 180.5V183.5H94.5V180.5H112Z" fill="#271406" stroke="#B27C40"/>
<path d="M79.5 160.5V167H85.5V160.5M41.5 184.5V194M64.5 203.5H57.5V210.5H64.5V206.5M64.5 203.5V206.5M64.5 203.5V199.5H72V206.5H64.5M115 183.5V207H122V183.5M146.5 260.5H132V227.5H127.5M266 227.5H259.5V224M266 217H259.5V224M266 224H259.5" stroke="#B27C40"/>
<path d="M296.5 198V192.5H304.5V198M348 183.5V190H354.5V183.5M122 116.5L107.5 106L108.739 104.189M126.5 105.5L114 96.5L108.739 104.189M111.5 100L106 96L103 100L108.739 104.189" stroke="#B27C40"/>
<path d="M86 84V85.5H93.5V78H86M186 58V64.5H193.5V58M193.5 94.5V81.5M214.5 36.2273L212.5 36.5V31L223.5 29.5V32M214.5 36.2273V39.5H218.5M214.5 36.2273L218.5 35.6818M218.5 39.5V35.6818M218.5 39.5H222.5V35.1364M218.5 35.6818L222.5 35.1364M222.5 35.1364L223.5 35V34.5M223.5 32H227V35.6818H223.5V34.5M223.5 32V34.5" stroke="#B27C40"/>
<path d="M211 337L207.969 342.25H214.031L211 337Z" fill="#B27C40"/>
<path d="M226.5 112L229.964 106H223.036L226.5 112Z" fill="#B27C40"/>
<path d="M210.697 333V255.5M226.5 342V255.5M226.5 227.5V115M210.818 193.5V106" stroke="#B27C40" stroke-width="0.5"/>
<path d="M208 193.5V235H237.776V194M270 190.5V143M245 146.5H250L251.5 145.5V143M308 115L317.5 124.5M267.5 108V105H264.5M324 217.5H330.5V233.5M338 233.5H352.5V226.5M338 255V276" stroke="#B27C40" stroke-width="0.5"/>
<path d="M58.5 279.5V266M166.5 290.5V329.269M392.5 179.5H405.5V194.5H391.5M383.5 206.5V222.5H412.5" stroke="#B27C40" stroke-width="0.5"/>
<path d="M383.5 206.5V194.5H391.5" stroke="#B27C40"/>
<path d="M405.5 222.5V215.5H412.5M203.5 410.5V405H210.5V398H217.5V410.5M245.5 407.5V402C246.336 400.373 246.259 399.503 245.5 398V392L247.5 391H249L250 392V397C248.934 399.501 249.15 400.634 250 402.5V406.5" stroke="#B27C40"/>
<path d="M21.5 210V220V230" stroke="#B27C40"/>
<path d="M89 160.5V211.5H129.743V227.292M146.5 260.5V196.408L142.5 192.5H112V183.5M112.5 180.5V160.5" stroke="#B27C40" stroke-opacity="0.23"/>
<path d="M394 211.5V222H384V211.5H394Z" stroke="#B27C40" stroke-opacity="0.23"/>
<path d="M412 194.299H405.5V179.756H371V240H412V194.299Z" fill="#F08234" fill-opacity="0.2"/>
<path d="M376.316 194H374.77L377.586 186H379.375L382.195 194H380.648L378.512 187.641H378.449L376.316 194ZM376.367 190.863H380.586V192.027H376.367V190.863Z" fill="white"/>
<path d="M21.5 194H41.5V183.413L40.5 185L30.4219 169H14.5V175H8.5V210H21.5V194Z" fill="#F08234" fill-opacity="0.2"/>
<path d="M67.5 230V222H68.5V207H64.5V211H57.5V204H64.5V199H68.5V194H21.5V230H67.5Z" fill="#F08234" fill-opacity="0.2"/>
<path d="M31.2891 215V207H34.3516C34.9297 207 35.4102 207.091 35.793 207.273C36.1784 207.453 36.4661 207.699 36.6563 208.012C36.849 208.324 36.9453 208.678 36.9453 209.074C36.9453 209.4 36.8828 209.678 36.7578 209.91C36.6328 210.139 36.4648 210.326 36.2539 210.469C36.043 210.612 35.8073 210.715 35.5469 210.777V210.855C35.8307 210.871 36.1029 210.958 36.3633 211.117C36.6263 211.273 36.8411 211.495 37.0078 211.781C37.1745 212.068 37.2578 212.414 37.2578 212.82C37.2578 213.234 37.1576 213.607 36.957 213.937C36.7565 214.266 36.4544 214.525 36.0508 214.715C35.6471 214.905 35.1393 215 34.5273 215H31.2891ZM32.7383 213.789H34.2969C34.8229 213.789 35.2018 213.689 35.4336 213.488C35.668 213.285 35.7852 213.025 35.7852 212.707C35.7852 212.47 35.7266 212.257 35.6094 212.066C35.4922 211.874 35.3255 211.723 35.1094 211.613C34.8932 211.501 34.6354 211.445 34.3359 211.445H32.7383V213.789ZM32.7383 210.402H34.1719C34.4219 210.402 34.6471 210.357 34.8477 210.266C35.0482 210.172 35.2057 210.04 35.3203 209.871C35.4375 209.699 35.4961 209.496 35.4961 209.262C35.4961 208.952 35.3867 208.697 35.168 208.496C34.9518 208.296 34.6302 208.195 34.2031 208.195H32.7383V210.402Z" fill="white"/>
</svg>
