<svg width="413" height="429" viewBox="0 0 413 429" fill="none" xmlns="http://www.w3.org/2000/svg">
<path fill-rule="evenodd" clip-rule="evenodd" d="M43.5 345V333.5L55 325.5L30.5 284.5V272.5H41V244.5H39.5L30 259.5H14V253.5H7.5V195.5H0.5V183.5H42.5V157L48.5 149.5H58V146L78 126H123V100.5H112V44L138 18.5H240L245 21.5H247.5L251 23.5L255 27H259.5L266.5 29H271.5L291 32L309 33L321 47V66H312V75L318 96.5L324 112.5C323.813 114.309 323.436 115.155 322.5 116.5L320 119L322 122C327.11 123.936 329.951 124.438 335 125L361.5 144V202.5H352V206.5H370V188.5H412V258H380.5V271H384V324.5L352 356.5H321V345.5H287V372.5H298V403.5L288 408.5H251.5V410.5H193V371H185.5V381.5H153V373.5H141.5L129.5 380H107.5V380.5H85.5V345H43.5ZM301.5 211.5H323V203L326.5 195.5H337.5V189H327V153H337.5V145.5H311.5C301.053 133.418 295.703 125.999 287.773 111.5L287.5 92.5L286.5 91.5V83.5L287.773 76.5H290V66.5H287.5V59.5H251.5V82.5H194.5V60.5H162.5L145 78V93H161L172 107.5V138H145.5V168.5H173.5L184 173.5H285.5L301.5 190V211.5ZM259 235V272.5H262.5V244.5L278.5 231H304V226.5H285V201.5H265.5V235H259ZM316.5 292.5V305H335.5V316.785H354V270.5H364V258L354.5 245.5H337.5V255H296V272.5H297L316.5 292.5ZM94 245.5H133L149.5 229V216L158.5 207V187.5H167.5V216.5L135.5 248.5H94V245.5ZM73 315.5L62 295V268.5H88.5V306.5L73 315.5ZM112 268.5H117V275H144L183.5 235.5H212V201H232.5V235H244.5V286H269.5V296.5L286.5 313.5H308V321H264V377.5H259.5V372.5H238V333H237V331.5L235.5 330V327.5H193V334.5H164L153 355H141L112 292.5V268.5ZM105.5 154.5V201.5H129.5V165.5H119.5V154.5H105.5ZM67 199H21V195H54V163H58V169.5H77.5V191H87.5V206.5H67V199Z" fill="#271406"/>
<path d="M43.5 333.5L43.2145 333.09L43 333.239V333.5H43.5ZM43.5 345H43V345.5H43.5V345ZM55 325.5L55.2855 325.91L55.6685 325.644L55.4292 325.244L55 325.5ZM30.5 284.5H30V284.638L30.0708 284.756L30.5 284.5ZM30.5 272.5V272H30V272.5H30.5ZM41 272.5V273H41.5V272.5H41ZM41 244.5H41.5V244H41V244.5ZM39.5 244.5V244H39.2248L39.0776 244.232L39.5 244.5ZM30 259.5V260H30.2752L30.4224 259.768L30 259.5ZM14 259.5H13.5V260H14V259.5ZM14 253.5H14.5V253H14V253.5ZM7.5 253.5H7V254H7.5V253.5ZM7.5 195.5H8V195H7.5V195.5ZM0.5 195.5H0V196H0.5V195.5ZM0.5 183.5V183H0V183.5H0.5ZM42.5 183.5V184H43V183.5H42.5ZM42.5 157L42.1096 156.688L42 156.825V157H42.5ZM48.5 149.5V149H48.2597L48.1096 149.188L48.5 149.5ZM58 149.5V150H58.5V149.5H58ZM58 146L57.6464 145.646L57.5 145.793V146H58ZM78 126V125.5H77.7929L77.6464 125.646L78 126ZM123 126V126.5H123.5V126H123ZM123 100.5H123.5V100H123V100.5ZM112 100.5H111.5V101H112V100.5ZM112 44L111.65 43.643L111.5 43.79V44H112ZM138 18.5V18H137.796L137.65 18.143L138 18.5ZM240 18.5L240.257 18.0713L240.138 18H240V18.5ZM245 21.5L244.743 21.9287L244.862 22H245V21.5ZM247.5 21.5L247.748 21.0659L247.633 21H247.5V21.5ZM251 23.5L251.329 23.1237L251.292 23.0907L251.248 23.0659L251 23.5ZM255 27L254.671 27.3763L254.812 27.5H255V27ZM259.5 27L259.637 26.5192L259.57 26.5H259.5V27ZM266.5 29L266.363 29.4808L266.43 29.5H266.5V29ZM271.5 29L271.576 28.5058L271.538 28.5H271.5V29ZM291 32L290.924 32.4942L290.948 32.4979L290.972 32.4992L291 32ZM309 33L309.38 32.6746L309.241 32.5126L309.028 32.5008L309 33ZM321 47H321.5V46.815L321.38 46.6746L321 47ZM321 66V66.5H321.5V66H321ZM312 66V65.5H311.5V66H312ZM312 75H311.5V75.0685L311.518 75.1344L312 75ZM318 96.5L317.518 96.6344L317.524 96.6553L317.532 96.6756L318 96.5ZM324 112.5L324.497 112.551L324.509 112.435L324.468 112.324L324 112.5ZM322.5 116.5L322.854 116.854L322.885 116.822L322.91 116.786L322.5 116.5ZM320 119L319.646 118.646L319.357 118.936L319.584 119.277L320 119ZM322 122L321.584 122.277L321.673 122.411L321.823 122.468L322 122ZM335 125L335.291 124.594L335.185 124.518L335.055 124.503L335 125ZM361.5 144H362V143.743L361.791 143.594L361.5 144ZM361.5 202.5V203H362V202.5H361.5ZM352 202.5V202H351.5V202.5H352ZM352 206.5H351.5V207H352V206.5ZM370 206.5V207H370.5V206.5H370ZM370 188.5V188H369.5V188.5H370ZM412 188.5H412.5V188H412V188.5ZM412 258V258.5H412.5V258H412ZM380.5 258V257.5H380V258H380.5ZM380.5 271H380V271.5H380.5V271ZM384 271H384.5V270.5H384V271ZM384 324.5L384.354 324.854L384.5 324.707V324.5H384ZM352 356.5V357H352.207L352.354 356.854L352 356.5ZM321 356.5H320.5V357H321V356.5ZM321 345.5H321.5V345H321V345.5ZM287 345.5V345H286.5V345.5H287ZM287 372.5H286.5V373H287V372.5ZM298 372.5H298.5V372H298V372.5ZM298 403.5L298.224 403.947L298.5 403.809V403.5H298ZM288 408.5V409H288.118L288.224 408.947L288 408.5ZM251.5 408.5V408H251V408.5H251.5ZM251.5 410.5V411H252V410.5H251.5ZM193 410.5H192.5V411H193V410.5ZM193 371H193.5V370.5H193V371ZM185.5 371V370.5H185V371H185.5ZM185.5 381.5V382H186V381.5H185.5ZM153 381.5H152.5V382H153V381.5ZM153 373.5H153.5V373H153V373.5ZM141.5 373.5V373H141.373L141.262 373.06L141.5 373.5ZM129.5 380V380.5H129.627L129.738 380.44L129.5 380ZM107.5 380V379.5H107V380H107.5ZM107.5 380.5V381H108V380.5H107.5ZM85.5 380.5H85V381H85.5V380.5ZM85.5 345H86V344.5H85.5V345ZM323 211.5V212H323.5V211.5H323ZM301.5 211.5H301V212H301.5V211.5ZM323 203L322.547 202.789L322.5 202.889V203H323ZM326.5 195.5V195H326.182L326.047 195.289L326.5 195.5ZM337.5 195.5V196H338V195.5H337.5ZM337.5 189H338V188.5H337.5V189ZM327 189H326.5V189.5H327V189ZM327 153V152.5H326.5V153H327ZM337.5 153V153.5H338V153H337.5ZM337.5 145.5H338V145H337.5V145.5ZM311.5 145.5L311.122 145.827L311.271 146H311.5V145.5ZM287.773 111.5L287.273 111.507L287.275 111.631L287.334 111.74L287.773 111.5ZM287.5 92.5L288 92.4928L287.997 92.2899L287.854 92.1464L287.5 92.5ZM286.5 91.5H286V91.7071L286.146 91.8536L286.5 91.5ZM286.5 83.5L286.008 83.4105L286 83.4549V83.5H286.5ZM287.773 76.5V76H287.356L287.281 76.4105L287.773 76.5ZM290 76.5V77H290.5V76.5H290ZM290 66.5H290.5V66H290V66.5ZM287.5 66.5H287V67H287.5V66.5ZM287.5 59.5H288V59H287.5V59.5ZM251.5 59.5V59H251V59.5H251.5ZM251.5 82.5V83H252V82.5H251.5ZM194.5 82.5H194V83H194.5V82.5ZM194.5 60.5H195V60H194.5V60.5ZM162.5 60.5V60H162.293L162.146 60.1464L162.5 60.5ZM145 78L144.646 77.6464L144.5 77.7929V78H145ZM145 93H144.5V93.5H145V93ZM161 93L161.398 92.6978L161.248 92.5H161V93ZM172 107.5H172.5V107.332L172.398 107.198L172 107.5ZM172 138V138.5H172.5V138H172ZM145.5 138V137.5H145V138H145.5ZM145.5 168.5H145V169H145.5V168.5ZM173.5 168.5L173.715 168.049L173.613 168H173.5V168.5ZM184 173.5L183.785 173.951L183.887 174H184V173.5ZM285.5 173.5L285.859 173.152L285.712 173H285.5V173.5ZM301.5 190H302V189.797L301.859 189.652L301.5 190ZM259 272.5H258.5V273H259V272.5ZM259 235V234.5H258.5V235H259ZM262.5 272.5V273H263V272.5H262.5ZM262.5 244.5L262.178 244.118L262 244.268V244.5H262.5ZM278.5 231V230.5H278.317L278.178 230.618L278.5 231ZM304 231V231.5H304.5V231H304ZM304 226.5H304.5V226H304V226.5ZM285 226.5H284.5V227H285V226.5ZM285 201.5H285.5V201H285V201.5ZM265.5 201.5V201H265V201.5H265.5ZM265.5 235V235.5H266V235H265.5ZM316.5 305H316V305.5H316.5V305ZM316.5 292.5H317V292.297L316.858 292.151L316.5 292.5ZM335.5 305H336V304.5H335.5V305ZM335.5 316.785H335V317.285H335.5V316.785ZM354 316.785V317.285H354.5V316.785H354ZM354 270.5V270H353.5V270.5H354ZM364 270.5V271H364.5V270.5H364ZM364 258H364.5V257.832L364.398 257.697L364 258ZM354.5 245.5L354.898 245.197L354.748 245H354.5V245.5ZM337.5 245.5V245H337V245.5H337.5ZM337.5 255V255.5H338V255H337.5ZM296 255V254.5H295.5V255H296ZM296 272.5H295.5V273H296V272.5ZM297 272.5L297.358 272.151L297.211 272H297V272.5ZM133 245.5V246H133.207L133.354 245.854L133 245.5ZM94 245.5V245H93.5V245.5H94ZM149.5 229L149.854 229.354L150 229.207V229H149.5ZM149.5 216L149.146 215.646L149 215.793V216H149.5ZM158.5 207L158.854 207.354L159 207.207V207H158.5ZM158.5 187.5V187H158V187.5H158.5ZM167.5 187.5H168V187H167.5V187.5ZM167.5 216.5L167.854 216.854L168 216.707V216.5H167.5ZM135.5 248.5V249H135.707L135.854 248.854L135.5 248.5ZM94 248.5H93.5V249H94V248.5ZM62 295H61.5V295.126L61.5594 295.236L62 295ZM73 315.5L72.5594 315.736L72.8039 316.192L73.2511 315.932L73 315.5ZM62 268.5V268H61.5V268.5H62ZM88.5 268.5H89V268H88.5V268.5ZM88.5 306.5L88.7511 306.932L89 306.788V306.5H88.5ZM117 268.5H117.5V268H117V268.5ZM112 268.5V268H111.5V268.5H112ZM117 275H116.5V275.5H117V275ZM144 275V275.5H144.207L144.354 275.354L144 275ZM183.5 235.5V235H183.293L183.146 235.146L183.5 235.5ZM212 235.5V236H212.5V235.5H212ZM212 201V200.5H211.5V201H212ZM232.5 201H233V200.5H232.5V201ZM232.5 235H232V235.5H232.5V235ZM244.5 235H245V234.5H244.5V235ZM244.5 286H244V286.5H244.5V286ZM269.5 286H270V285.5H269.5V286ZM269.5 296.5H269V296.707L269.146 296.854L269.5 296.5ZM286.5 313.5L286.146 313.854L286.293 314H286.5V313.5ZM308 313.5H308.5V313H308V313.5ZM308 321V321.5H308.5V321H308ZM264 321V320.5H263.5V321H264ZM264 377.5V378H264.5V377.5H264ZM259.5 377.5H259V378H259.5V377.5ZM259.5 372.5H260V372H259.5V372.5ZM238 372.5H237.5V373H238V372.5ZM238 333H238.5V332.5H238V333ZM237 333H236.5V333.5H237V333ZM237 331.5H237.5V331.293L237.354 331.146L237 331.5ZM235.5 330H235V330.207L235.146 330.354L235.5 330ZM235.5 327.5H236V327H235.5V327.5ZM193 327.5V327H192.5V327.5H193ZM193 334.5V335H193.5V334.5H193ZM164 334.5V334H163.701L163.559 334.264L164 334.5ZM153 355V355.5H153.299L153.441 355.236L153 355ZM141 355L140.546 355.21L140.681 355.5H141V355ZM112 292.5H111.5V292.61L111.546 292.71L112 292.5ZM105.5 201.5H105V202H105.5V201.5ZM105.5 154.5V154H105V154.5H105.5ZM129.5 201.5V202H130V201.5H129.5ZM129.5 165.5H130V165H129.5V165.5ZM119.5 165.5H119V166H119.5V165.5ZM119.5 154.5H120V154H119.5V154.5ZM21 199H20.5V199.5H21V199ZM67 199H67.5V198.5H67V199ZM21 195V194.5H20.5V195H21ZM54 195V195.5H54.5V195H54ZM54 163V162.5H53.5V163H54ZM58 163H58.5V162.5H58V163ZM58 169.5H57.5V170H58V169.5ZM77.5 169.5H78V169H77.5V169.5ZM77.5 191H77V191.5H77.5V191ZM87.5 191H88V190.5H87.5V191ZM87.5 206.5V207H88V206.5H87.5ZM67 206.5H66.5V207H67V206.5ZM43 333.5V345H44V333.5H43ZM54.7145 325.09L43.2145 333.09L43.7855 333.91L55.2855 325.91L54.7145 325.09ZM30.0708 284.756L54.5708 325.756L55.4292 325.244L30.9292 284.244L30.0708 284.756ZM30 272.5V284.5H31V272.5H30ZM41 272H30.5V273H41V272ZM40.5 244.5V272.5H41.5V244.5H40.5ZM39.5 245H41V244H39.5V245ZM30.4224 259.768L39.9224 244.768L39.0776 244.232L29.5776 259.232L30.4224 259.768ZM14 260H30V259H14V260ZM13.5 253.5V259.5H14.5V253.5H13.5ZM7.5 254H14V253H7.5V254ZM7 195.5V253.5H8V195.5H7ZM0.5 196H7.5V195H0.5V196ZM0 183.5V195.5H1V183.5H0ZM42.5 183H0.5V184H42.5V183ZM42 157V183.5H43V157H42ZM48.1096 149.188L42.1096 156.688L42.8904 157.312L48.8904 149.812L48.1096 149.188ZM58 149H48.5V150H58V149ZM57.5 146V149.5H58.5V146H57.5ZM77.6464 125.646L57.6464 145.646L58.3536 146.354L78.3536 126.354L77.6464 125.646ZM123 125.5H78V126.5H123V125.5ZM122.5 100.5V126H123.5V100.5H122.5ZM112 101H123V100H112V101ZM111.5 44V100.5H112.5V44H111.5ZM137.65 18.143L111.65 43.643L112.35 44.357L138.35 18.857L137.65 18.143ZM240 18H138V19H240V18ZM245.257 21.0713L240.257 18.0713L239.743 18.9287L244.743 21.9287L245.257 21.0713ZM247.5 21H245V22H247.5V21ZM251.248 23.0659L247.748 21.0659L247.252 21.9341L250.752 23.9341L251.248 23.0659ZM255.329 26.6237L251.329 23.1237L250.671 23.8763L254.671 27.3763L255.329 26.6237ZM259.5 26.5H255V27.5H259.5V26.5ZM266.637 28.5192L259.637 26.5192L259.363 27.4808L266.363 29.4808L266.637 28.5192ZM271.5 28.5H266.5V29.5H271.5V28.5ZM291.076 31.5058L271.576 28.5058L271.424 29.4942L290.924 32.4942L291.076 31.5058ZM309.028 32.5008L291.028 31.5008L290.972 32.4992L308.972 33.4992L309.028 32.5008ZM321.38 46.6746L309.38 32.6746L308.62 33.3254L320.62 47.3254L321.38 46.6746ZM321.5 66V47H320.5V66H321.5ZM312 66.5H321V65.5H312V66.5ZM312.5 75V66H311.5V75H312.5ZM318.482 96.3656L312.482 74.8656L311.518 75.1344L317.518 96.6344L318.482 96.3656ZM324.468 112.324L318.468 96.3244L317.532 96.6756L323.532 112.676L324.468 112.324ZM322.91 116.786C323.388 116.1 323.742 115.514 323.997 114.855C324.253 114.193 324.401 113.482 324.497 112.551L323.503 112.449C323.412 113.327 323.278 113.943 323.065 114.493C322.851 115.045 322.549 115.555 322.09 116.214L322.91 116.786ZM320.354 119.354L322.854 116.854L322.146 116.146L319.646 118.646L320.354 119.354ZM322.416 121.723L320.416 118.723L319.584 119.277L321.584 122.277L322.416 121.723ZM335.055 124.503C330.034 123.944 327.237 123.449 322.177 121.532L321.823 122.468C326.983 124.423 329.867 124.932 334.945 125.497L335.055 124.503ZM361.791 143.594L335.291 124.594L334.709 125.406L361.209 144.406L361.791 143.594ZM362 202.5V144H361V202.5H362ZM352 203H361.5V202H352V203ZM352.5 206.5V202.5H351.5V206.5H352.5ZM370 206H352V207H370V206ZM369.5 188.5V206.5H370.5V188.5H369.5ZM412 188H370V189H412V188ZM412.5 258V188.5H411.5V258H412.5ZM380.5 258.5H412V257.5H380.5V258.5ZM381 271V258H380V271H381ZM384 270.5H380.5V271.5H384V270.5ZM384.5 324.5V271H383.5V324.5H384.5ZM352.354 356.854L384.354 324.854L383.646 324.146L351.646 356.146L352.354 356.854ZM321 357H352V356H321V357ZM320.5 345.5V356.5H321.5V345.5H320.5ZM287 346H321V345H287V346ZM287.5 372.5V345.5H286.5V372.5H287.5ZM298 372H287V373H298V372ZM298.5 403.5V372.5H297.5V403.5H298.5ZM288.224 408.947L298.224 403.947L297.776 403.053L287.776 408.053L288.224 408.947ZM251.5 409H288V408H251.5V409ZM252 410.5V408.5H251V410.5H252ZM193 411H251.5V410H193V411ZM192.5 371V410.5H193.5V371H192.5ZM185.5 371.5H193V370.5H185.5V371.5ZM186 381.5V371H185V381.5H186ZM153 382H185.5V381H153V382ZM152.5 373.5V381.5H153.5V373.5H152.5ZM141.5 374H153V373H141.5V374ZM129.738 380.44L141.738 373.94L141.262 373.06L129.262 379.56L129.738 380.44ZM107.5 380.5H129.5V379.5H107.5V380.5ZM108 380.5V380H107V380.5H108ZM85.5 381H107.5V380H85.5V381ZM85 345V380.5H86V345H85ZM43.5 345.5H85.5V344.5H43.5V345.5ZM323 211H301.5V212H323V211ZM322.5 203V211.5H323.5V203H322.5ZM326.047 195.289L322.547 202.789L323.453 203.211L326.953 195.711L326.047 195.289ZM337.5 195H326.5V196H337.5V195ZM337 189V195.5H338V189H337ZM327 189.5H337.5V188.5H327V189.5ZM326.5 153V189H327.5V153H326.5ZM337.5 152.5H327V153.5H337.5V152.5ZM337 145.5V153H338V145.5H337ZM311.5 146H337.5V145H311.5V146ZM287.334 111.74C295.283 126.273 300.654 133.721 311.122 145.827L311.878 145.173C301.452 133.115 296.122 125.725 288.212 111.26L287.334 111.74ZM287 92.5072L287.273 111.507L288.273 111.493L288 92.4928L287 92.5072ZM286.146 91.8536L287.146 92.8536L287.854 92.1464L286.854 91.1464L286.146 91.8536ZM286 83.5V91.5H287V83.5H286ZM287.281 76.4105L286.008 83.4105L286.992 83.5895L288.265 76.5895L287.281 76.4105ZM290 76H287.773V77H290V76ZM289.5 66.5V76.5H290.5V66.5H289.5ZM287.5 67H290V66H287.5V67ZM287 59.5V66.5H288V59.5H287ZM251.5 60H287.5V59H251.5V60ZM252 82.5V59.5H251V82.5H252ZM194.5 83H251.5V82H194.5V83ZM194 60.5V82.5H195V60.5H194ZM162.5 61H194.5V60H162.5V61ZM145.354 78.3536L162.854 60.8536L162.146 60.1464L144.646 77.6464L145.354 78.3536ZM145.5 93V78H144.5V93H145.5ZM161 92.5H145V93.5H161V92.5ZM172.398 107.198L161.398 92.6978L160.602 93.3022L171.602 107.802L172.398 107.198ZM172.5 138V107.5H171.5V138H172.5ZM145.5 138.5H172V137.5H145.5V138.5ZM146 168.5V138H145V168.5H146ZM173.5 168H145.5V169H173.5V168ZM184.215 173.049L173.715 168.049L173.285 168.951L183.785 173.951L184.215 173.049ZM285.5 173H184V174H285.5V173ZM301.859 189.652L285.859 173.152L285.141 173.848L301.141 190.348L301.859 189.652ZM302 211.5V190H301V211.5H302ZM259.5 272.5V235H258.5V272.5H259.5ZM262.5 272H259V273H262.5V272ZM262 244.5V272.5H263V244.5H262ZM278.178 230.618L262.178 244.118L262.822 244.882L278.822 231.382L278.178 230.618ZM304 230.5H278.5V231.5H304V230.5ZM303.5 226.5V231H304.5V226.5H303.5ZM285 227H304V226H285V227ZM284.5 201.5V226.5H285.5V201.5H284.5ZM265.5 202H285V201H265.5V202ZM266 235V201.5H265V235H266ZM259 235.5H265.5V234.5H259V235.5ZM317 305V292.5H316V305H317ZM335.5 304.5H316.5V305.5H335.5V304.5ZM336 316.785V305H335V316.785H336ZM354 316.285H335.5V317.285H354V316.285ZM353.5 270.5V316.785H354.5V270.5H353.5ZM364 270H354V271H364V270ZM363.5 258V270.5H364.5V258H363.5ZM354.102 245.803L363.602 258.303L364.398 257.697L354.898 245.197L354.102 245.803ZM337.5 246H354.5V245H337.5V246ZM338 255V245.5H337V255H338ZM296 255.5H337.5V254.5H296V255.5ZM296.5 272.5V255H295.5V272.5H296.5ZM297 272H296V273H297V272ZM316.858 292.151L297.358 272.151L296.642 272.849L316.142 292.849L316.858 292.151ZM133 245H94V246H133V245ZM149.146 228.646L132.646 245.146L133.354 245.854L149.854 229.354L149.146 228.646ZM149 216V229H150V216H149ZM158.146 206.646L149.146 215.646L149.854 216.354L158.854 207.354L158.146 206.646ZM158 187.5V207H159V187.5H158ZM167.5 187H158.5V188H167.5V187ZM168 216.5V187.5H167V216.5H168ZM135.854 248.854L167.854 216.854L167.146 216.146L135.146 248.146L135.854 248.854ZM94 249H135.5V248H94V249ZM93.5 245.5V248.5H94.5V245.5H93.5ZM61.5594 295.236L72.5594 315.736L73.4406 315.264L62.4406 294.764L61.5594 295.236ZM61.5 268.5V295H62.5V268.5H61.5ZM88.5 268H62V269H88.5V268ZM89 306.5V268.5H88V306.5H89ZM73.2511 315.932L88.7511 306.932L88.2489 306.068L72.7489 315.068L73.2511 315.932ZM117 268H112V269H117V268ZM117.5 275V268.5H116.5V275H117.5ZM144 274.5H117V275.5H144V274.5ZM183.146 235.146L143.646 274.646L144.354 275.354L183.854 235.854L183.146 235.146ZM212 235H183.5V236H212V235ZM211.5 201V235.5H212.5V201H211.5ZM232.5 200.5H212V201.5H232.5V200.5ZM233 235V201H232V235H233ZM244.5 234.5H232.5V235.5H244.5V234.5ZM245 286V235H244V286H245ZM269.5 285.5H244.5V286.5H269.5V285.5ZM270 296.5V286H269V296.5H270ZM286.854 313.146L269.854 296.146L269.146 296.854L286.146 313.854L286.854 313.146ZM308 313H286.5V314H308V313ZM308.5 321V313.5H307.5V321H308.5ZM264 321.5H308V320.5H264V321.5ZM264.5 377.5V321H263.5V377.5H264.5ZM259.5 378H264V377H259.5V378ZM259 372.5V377.5H260V372.5H259ZM238 373H259.5V372H238V373ZM237.5 333V372.5H238.5V333H237.5ZM237 333.5H238V332.5H237V333.5ZM236.5 331.5V333H237.5V331.5H236.5ZM235.146 330.354L236.646 331.854L237.354 331.146L235.854 329.646L235.146 330.354ZM235 327.5V330H236V327.5H235ZM193 328H235.5V327H193V328ZM193.5 334.5V327.5H192.5V334.5H193.5ZM164 335H193V334H164V335ZM153.441 355.236L164.441 334.736L163.559 334.264L152.559 354.764L153.441 355.236ZM141 355.5H153V354.5H141V355.5ZM111.546 292.71L140.546 355.21L141.454 354.79L112.454 292.29L111.546 292.71ZM111.5 268.5V292.5H112.5V268.5H111.5ZM106 201.5V154.5H105V201.5H106ZM129.5 201H105.5V202H129.5V201ZM129 165.5V201.5H130V165.5H129ZM119.5 166H129.5V165H119.5V166ZM119 154.5V165.5H120V154.5H119ZM105.5 155H119.5V154H105.5V155ZM21 199.5H67V198.5H21V199.5ZM20.5 195V199H21.5V195H20.5ZM54 194.5H21V195.5H54V194.5ZM53.5 163V195H54.5V163H53.5ZM58 162.5H54V163.5H58V162.5ZM58.5 169.5V163H57.5V169.5H58.5ZM77.5 169H58V170H77.5V169ZM78 191V169.5H77V191H78ZM87.5 190.5H77.5V191.5H87.5V190.5ZM88 206.5V191H87V206.5H88ZM67 207H87.5V206H67V207ZM66.5 199V206.5H67.5V199H66.5ZM288.212 111.26C288.121 111.095 288.03 110.928 287.939 110.761L287.061 111.239C287.152 111.407 287.244 111.574 287.334 111.74L288.212 111.26Z" fill="#B27C40"/>
<path d="M249 37.5H257C259.197 36.2828 260.395 36.6431 262.5 38H271.5L273.5 37.5" stroke="#B27C40" stroke-width="0.5"/>
<path d="M62.5 252V235.5H68V233.5H75V219.5M75 219.5H68M75 219.5H80.5" stroke="#B27C40"/>
<path d="M335.5 317V324H342V317M384 295H374.5V302.5H384M77 152L87.5 141.5L92.5 146.5L82 157L77 152Z" stroke="#B27C40"/>
<path d="M88.5 268.5H112" stroke="#B27C40"/>
<path d="M111.5 248.5V245.5H94V248.5H111.5Z" fill="#271406" stroke="#B27C40"/>
<path d="M79 268.5V262H85V268.5M41 244.5V235M64 225.5H57V218.5H64V222.5M64 225.5V222.5M64 225.5V229.5H71.5V222.5H64M114.5 245.5V222H121.5V245.5M146 168.5H131.5V201.5H127M265.5 201.5H259V205M265.5 212H259V205M265.5 205H259" stroke="#B27C40"/>
<path d="M296 231V236.5H304V231M347.5 245.5V239H354V245.5M121.5 312.5L107 323L108.239 324.811M126 323.5L113.5 332.5L108.239 324.811M111 329L105.5 333L102.5 329L108.239 324.811" stroke="#B27C40"/>
<path d="M85.5 345V343.5H93V351H85.5M185.5 371V364.5H193V371M193 334.5V347.5M214 392.773L212 392.5V398L223 399.5V397M214 392.773V389.5H218M214 392.773L218 393.318M218 389.5V393.318M218 389.5H222V393.864M218 393.318L222 393.864M222 393.864L223 394V394.5M223 397H226.5V393.318H223V394.5M223 397V394.5" stroke="#B27C40"/>
<path d="M210.5 92L207.469 86.75H213.531L210.5 92Z" fill="#B27C40"/>
<path d="M226 317L229.464 323H222.536L226 317Z" fill="#B27C40"/>
<path d="M210.197 96V173.5M226 87V173.5M226 201.5V314M210.318 235.5V323" stroke="#B27C40" stroke-width="0.5"/>
<path d="M207.5 235.5V194H237.276V235M269.5 238.5V286M244.5 282.5H249.5L251 283.5V286M307.5 314L317 304.5M267 321V324H264M323.5 211.5H330V195.5M337.5 195.5H352V202.5M337.5 174V153" stroke="#B27C40" stroke-width="0.5"/>
<path d="M58 149.5V163M166 138.5V99.7308M392 249.5H405V234.5H391M383 222.5V206.5H412" stroke="#B27C40" stroke-width="0.5"/>
<path d="M383 222.5V234.5H391" stroke="#B27C40"/>
<path d="M405 206.5V213.5H412M203 18.5V24H210V31H217V18.5M245 21.5V27C245.836 28.6271 245.759 29.4972 245 31V37L247 38H248.5L249.5 37V32C248.434 29.499 248.65 28.3662 249.5 26.5V22.5" stroke="#B27C40"/>
<path d="M21 219V209V199" stroke="#B27C40"/>
<path d="M88.5 268.5V217.5H129.243V201.708M146 168.5V232.592L142 236.5H111.5V245.5M112 248.5V268.5" stroke="#B27C40" stroke-opacity="0.23"/>
<path d="M393.5 217.5V207H383.5V217.5H393.5Z" stroke="#B27C40" stroke-opacity="0.23"/>
</svg>
