<svg width="460" height="473" viewBox="0 0 460 473" fill="none" xmlns="http://www.w3.org/2000/svg">
<path fill-rule="evenodd" clip-rule="evenodd" d="M48.4362 91.5191V104.339L61.2564 113.258L33.9439 158.964V172.342H45.6492V203.556H43.977L33.3865 186.834H15.5497V193.523H8.30357V258.181H0.5V271.559H47.3214V301.101L54.0102 309.462H64.6008V313.364L86.8967 335.659H137.062V364.087H124.8V427.073L153.784 455.5H267.494L273.068 452.156H275.855L279.756 449.926L284.216 446.024H289.232L297.036 443.795H302.61L324.348 440.45L344.415 439.335L357.792 423.728V402.547H347.759V392.514L354.448 368.546L361.136 350.709C360.928 348.693 360.508 347.749 359.464 346.25L356.677 343.463L358.907 340.119C364.603 337.96 367.77 337.4 373.399 336.774L402.941 315.593V250.378H392.351V245.918H412.417V265.985H459.239V188.506H424.122V174.014H428.024V114.372L392.351 78.699H357.792V90.9617H319.889V60.8622H332.152V26.3036L321.004 20.7296H280.314V18.5H215.098V62.5344H206.737V50.8291H170.506V59.7474H157.686L144.309 52.5013H119.783V51.9439H95.2577V91.5191H48.4362ZM336.054 240.344H360.022V249.82L363.924 258.181H376.186V265.427H364.481V305.56H376.186V313.921H347.202C335.555 327.39 329.591 335.66 320.751 351.824L320.446 373.005L319.332 374.12V383.038L320.751 390.842H323.233V401.99H320.446V409.793H280.314V384.153H216.77V408.679H181.097L161.588 389.17V372.448H179.425L191.688 356.283V322.282H162.145V288.281H193.36L205.065 282.707H318.217L336.054 264.312V240.344ZM288.675 214.147V172.342H292.577V203.556L310.413 218.606H338.841V223.622H317.659V251.492H295.921V214.147H288.675ZM352.776 150.046V136.111H373.957V122.973H394.58V174.571H405.728V188.506L395.138 202.441H376.186V191.851H329.922V172.342H331.037L352.776 150.046ZM104.733 202.441H148.211L166.605 220.835V235.328L176.638 245.361V267.099H186.671V234.77L150.997 199.097H104.733V202.441ZM81.3227 124.406L69.06 147.259V176.801H98.6021V134.439L81.3227 124.406ZM124.8 176.801H130.374V169.555H160.473L204.508 213.589H236.279V252.05H259.133V214.147H272.51V157.292H300.38V145.587L319.332 126.635H343.3V118.274H294.249V55.2883H289.232V60.8622H265.264V104.897H264.149V106.569L262.477 108.241V111.028H215.098V103.224H182.769L170.506 80.3712H157.129L124.8 150.046V176.801ZM117.554 303.888V251.492H144.309V291.625H133.161V303.888H117.554ZM74.634 254.279H23.3534V258.739H60.1416V294.412H64.6008V287.166H86.3393V263.198H97.4873V245.918H74.634V254.279Z" fill="#271406"/>
<path d="M48.4362 104.339L48.1507 104.75L47.9362 104.601V104.339H48.4362ZM48.4362 91.5191H47.9362V91.0191H48.4362V91.5191ZM61.2564 113.258L61.5419 112.847L61.9249 113.114L61.6856 113.514L61.2564 113.258ZM33.9439 158.964H33.4439V158.826L33.5147 158.708L33.9439 158.964ZM33.9439 172.342V172.842H33.4439V172.342H33.9439ZM45.6492 172.342V171.842H46.1492V172.342H45.6492ZM45.6492 203.556H46.1492V204.056H45.6492V203.556ZM43.977 203.556V204.056H43.7019L43.5546 203.824L43.977 203.556ZM33.3865 186.834V186.334H33.6617L33.8089 186.567L33.3865 186.834ZM15.5497 186.834H15.0497V186.334H15.5497V186.834ZM15.5497 193.523H16.0497V194.023H15.5497V193.523ZM8.30357 193.523H7.80357V193.023H8.30357V193.523ZM8.30357 258.181H8.80357V258.681H8.30357V258.181ZM0.5 258.181H0V257.681H0.5V258.181ZM0.5 271.559V272.059H0V271.559H0.5ZM47.3214 271.559V271.059H47.8214V271.559H47.3214ZM47.3214 301.101L46.931 301.413L46.8214 301.276V301.101H47.3214ZM54.0102 309.462V309.962H53.7699L53.6198 309.774L54.0102 309.462ZM64.6008 309.462V308.962H65.1008V309.462H64.6008ZM64.6008 313.364L64.2472 313.717L64.1008 313.571V313.364H64.6008ZM86.8967 335.659V336.159H86.6896L86.5431 336.013L86.8967 335.659ZM137.062 335.659V335.159H137.562V335.659H137.062ZM137.062 364.087H137.562V364.587H137.062V364.087ZM124.8 364.087H124.3V363.587H124.8V364.087ZM124.8 427.073L124.45 427.43L124.3 427.283V427.073H124.8ZM153.784 455.5V456H153.58L153.434 455.857L153.784 455.5ZM267.494 455.5L267.751 455.929L267.632 456H267.494V455.5ZM273.068 452.156L272.81 451.727L272.929 451.656H273.068V452.156ZM275.855 452.156L276.103 452.59L275.987 452.656H275.855V452.156ZM279.756 449.926L280.086 450.302L280.048 450.335L280.004 450.36L279.756 449.926ZM284.216 446.024L283.886 445.648L284.028 445.524H284.216V446.024ZM289.232 446.024L289.37 446.505L289.302 446.524H289.232V446.024ZM297.036 443.795L296.898 443.314L296.966 443.295H297.036V443.795ZM302.61 443.795L302.686 444.289L302.648 444.295H302.61V443.795ZM324.348 440.45L324.272 439.956L324.296 439.952L324.32 439.951L324.348 440.45ZM344.415 439.335L344.794 439.661L344.655 439.823L344.442 439.835L344.415 439.335ZM357.792 423.728H358.292V423.913L358.172 424.054L357.792 423.728ZM357.792 402.547V402.047H358.292V402.547H357.792ZM347.759 402.547V403.047H347.259V402.547H347.759ZM347.759 392.514H347.259V392.446L347.277 392.38L347.759 392.514ZM354.448 368.546L353.966 368.412L353.972 368.391L353.98 368.37L354.448 368.546ZM361.136 350.709L361.634 350.658L361.646 350.775L361.605 350.885L361.136 350.709ZM359.464 346.25L359.818 345.896L359.849 345.928L359.875 345.964L359.464 346.25ZM356.677 343.463L356.324 343.817L356.034 343.527L356.261 343.186L356.677 343.463ZM358.907 340.119L358.491 339.841L358.58 339.708L358.73 339.651L358.907 340.119ZM373.399 336.774L373.691 337.181L373.584 337.257L373.455 337.271L373.399 336.774ZM402.941 315.593H403.441V315.85L403.233 315.999L402.941 315.593ZM402.941 250.378V249.878H403.441V250.378H402.941ZM392.351 250.378V250.878H391.851V250.378H392.351ZM392.351 245.918H391.851V245.418H392.351V245.918ZM412.417 245.918V245.418H412.917V245.918H412.417ZM412.417 265.985V266.485H411.917V265.985H412.417ZM459.239 265.985H459.739V266.485H459.239V265.985ZM459.239 188.506V188.006H459.739V188.506H459.239ZM424.122 188.506V189.006H423.622V188.506H424.122ZM424.122 174.014H423.622V173.514H424.122V174.014ZM428.024 174.014H428.524V174.514H428.024V174.014ZM428.024 114.372L428.378 114.019L428.524 114.165V114.372H428.024ZM392.351 78.699V78.199H392.558L392.704 78.3454L392.351 78.699ZM357.792 78.699H357.292V78.199H357.792V78.699ZM357.792 90.9617H358.292V91.4617H357.792V90.9617ZM319.889 90.9617V91.4617H319.389V90.9617H319.889ZM319.889 60.8622H319.389V60.3622H319.889V60.8622ZM332.152 60.8622H332.652V61.3622H332.152V60.8622ZM332.152 26.3036L332.375 25.8563L332.652 25.9945V26.3036H332.152ZM321.004 20.7296V20.2296H321.122L321.227 20.2824L321.004 20.7296ZM280.314 20.7296V21.2296H279.814V20.7296H280.314ZM280.314 18.5V18H280.814V18.5H280.314ZM215.098 18.5H214.598V18H215.098V18.5ZM215.098 62.5344H215.598V63.0344H215.098V62.5344ZM206.737 62.5344V63.0344H206.237V62.5344H206.737ZM206.737 50.8291V50.3291H207.237V50.8291H206.737ZM170.506 50.8291H170.006V50.3291H170.506V50.8291ZM170.506 59.7474H171.006V60.2474H170.506V59.7474ZM157.686 59.7474V60.2474H157.559L157.448 60.1871L157.686 59.7474ZM144.309 52.5013V52.0013H144.435L144.547 52.0616L144.309 52.5013ZM119.783 52.5013V53.0013H119.283V52.5013H119.783ZM119.783 51.9439V51.4439H120.283V51.9439H119.783ZM95.2577 51.9439H94.7577V51.4439H95.2577V51.9439ZM95.2577 91.5191H95.7577V92.0191H95.2577V91.5191ZM360.022 240.344V239.844H360.522V240.344H360.022ZM336.054 240.344H335.554V239.844H336.054V240.344ZM360.022 249.82L359.569 250.032L359.522 249.931V249.82H360.022ZM363.924 258.181V258.681H363.605L363.47 258.393L363.924 258.181ZM376.186 258.181V257.681H376.686V258.181H376.186ZM376.186 265.427H376.686V265.927H376.186V265.427ZM364.481 265.427H363.981V264.927H364.481V265.427ZM364.481 305.56V306.06H363.981V305.56H364.481ZM376.186 305.56V305.06H376.686V305.56H376.186ZM376.186 313.921H376.686V314.421H376.186V313.921ZM347.202 313.921L346.823 313.594L346.973 313.421H347.202V313.921ZM320.751 351.824L320.251 351.817L320.253 351.693L320.312 351.584L320.751 351.824ZM320.446 373.005L320.946 373.012L320.944 373.215L320.8 373.359L320.446 373.005ZM319.332 374.12H318.832V373.913L318.978 373.766L319.332 374.12ZM319.332 383.038L318.84 383.128L318.832 383.083V383.038H319.332ZM320.751 390.842V391.342H320.333L320.259 390.931L320.751 390.842ZM323.233 390.842V390.342H323.733V390.842H323.233ZM323.233 401.99H323.733V402.49H323.233V401.99ZM320.446 401.99H319.946V401.49H320.446V401.99ZM320.446 409.793H320.946V410.293H320.446V409.793ZM280.314 409.793V410.293H279.814V409.793H280.314ZM280.314 384.153V383.653H280.814V384.153H280.314ZM216.77 384.153H216.27V383.653H216.77V384.153ZM216.77 408.679H217.27V409.179H216.77V408.679ZM181.097 408.679V409.179H180.89L180.743 409.032L181.097 408.679ZM161.588 389.17L161.235 389.523L161.088 389.377V389.17H161.588ZM161.588 372.448H161.088V371.948H161.588V372.448ZM179.425 372.448L179.823 372.75L179.673 372.948H179.425V372.448ZM191.688 356.283H192.188V356.451L192.086 356.585L191.688 356.283ZM191.688 322.282V321.782H192.188V322.282H191.688ZM162.145 322.282V322.782H161.645V322.282H162.145ZM162.145 288.281H161.645V287.781H162.145V288.281ZM193.36 288.281L193.575 288.732L193.473 288.781H193.36V288.281ZM205.065 282.707L204.85 282.255L204.952 282.207H205.065V282.707ZM318.217 282.707L318.576 283.055L318.429 283.207H318.217V282.707ZM336.054 264.312H336.554V264.515L336.413 264.661L336.054 264.312ZM288.675 172.342H288.175V171.842H288.675V172.342ZM288.675 214.147V214.647H288.175V214.147H288.675ZM292.577 172.342V171.842H293.077V172.342H292.577ZM292.577 203.556L292.254 203.938L292.077 203.788V203.556H292.577ZM310.413 218.606V219.106H310.231L310.091 218.988L310.413 218.606ZM338.841 218.606V218.106H339.341V218.606H338.841ZM338.841 223.622H339.341V224.122H338.841V223.622ZM317.659 223.622H317.159V223.122H317.659V223.622ZM317.659 251.492H318.159V251.992H317.659V251.492ZM295.921 251.492V251.992H295.421V251.492H295.921ZM295.921 214.147V213.647H296.421V214.147H295.921ZM352.776 136.111H352.276V135.611H352.776V136.111ZM352.776 150.046H353.276V150.249L353.134 150.395L352.776 150.046ZM373.957 136.111H374.457V136.611H373.957V136.111ZM373.957 122.973H373.457V122.473H373.957V122.973ZM394.58 122.973V122.473H395.08V122.973H394.58ZM394.58 174.571V175.071H394.08V174.571H394.58ZM405.728 174.571V174.071H406.228V174.571H405.728ZM405.728 188.506H406.228V188.675L406.126 188.809L405.728 188.506ZM395.138 202.441L395.536 202.744L395.386 202.941H395.138V202.441ZM376.186 202.441V202.941H375.686V202.441H376.186ZM376.186 191.851V191.351H376.686V191.851H376.186ZM329.922 191.851V192.351H329.422V191.851H329.922ZM329.922 172.342H329.422V171.842H329.922V172.342ZM331.037 172.342L331.395 172.691L331.248 172.842H331.037V172.342ZM148.211 202.441V201.941H148.418L148.564 202.088L148.211 202.441ZM104.733 202.441V202.941H104.233V202.441H104.733ZM166.605 220.835L166.958 220.482L167.105 220.628V220.835H166.605ZM166.605 235.328L166.251 235.681L166.105 235.535V235.328H166.605ZM176.638 245.361L176.991 245.007L177.138 245.154V245.361H176.638ZM176.638 267.099V267.599H176.138V267.099H176.638ZM186.671 267.099H187.171V267.599H186.671V267.099ZM186.671 234.77L187.025 234.417L187.171 234.563V234.77H186.671ZM150.997 199.097V198.597H151.205L151.351 198.743L150.997 199.097ZM104.733 199.097H104.233V198.597H104.733V199.097ZM69.06 147.259H68.56V147.133L68.6194 147.023L69.06 147.259ZM81.3227 124.406L80.8822 124.169L81.1267 123.714L81.5738 123.973L81.3227 124.406ZM69.06 176.801V177.301H68.56V176.801H69.06ZM98.6021 176.801H99.1021V177.301H98.6021V176.801ZM98.6021 134.439L98.8531 134.006L99.1021 134.151V134.439H98.6021ZM130.374 176.801H130.874V177.301H130.374V176.801ZM124.8 176.801V177.301H124.3V176.801H124.8ZM130.374 169.555H129.874V169.055H130.374V169.555ZM160.473 169.555V169.055H160.68L160.827 169.201L160.473 169.555ZM204.508 213.589V214.089H204.301L204.154 213.943L204.508 213.589ZM236.279 213.589V213.089H236.779V213.589H236.279ZM236.279 252.05V252.55H235.779V252.05H236.279ZM259.133 252.05H259.633V252.55H259.133V252.05ZM259.133 214.147H258.633V213.647H259.133V214.147ZM272.51 214.147H273.01V214.647H272.51V214.147ZM272.51 157.292H272.01V156.792H272.51V157.292ZM300.38 157.292H300.88V157.792H300.38V157.292ZM300.38 145.587H299.88V145.38L300.027 145.233L300.38 145.587ZM319.332 126.635L318.978 126.282L319.125 126.135H319.332V126.635ZM343.3 126.635H343.8V127.135H343.3V126.635ZM343.3 118.274V117.774H343.8V118.274H343.3ZM294.249 118.274V118.774H293.749V118.274H294.249ZM294.249 55.2883V54.7883H294.749V55.2883H294.249ZM289.232 55.2883H288.732V54.7883H289.232V55.2883ZM289.232 60.8622H289.732V61.3622H289.232V60.8622ZM265.264 60.8622H264.764V60.3622H265.264V60.8622ZM265.264 104.897H265.764V105.397H265.264V104.897ZM264.149 104.897H263.649V104.397H264.149V104.897ZM264.149 106.569H264.649V106.776L264.503 106.922L264.149 106.569ZM262.477 108.241H261.977V108.034L262.124 107.888L262.477 108.241ZM262.477 111.028H262.977V111.528H262.477V111.028ZM215.098 111.028V111.528H214.598V111.028H215.098ZM215.098 103.224V102.724H215.598V103.224H215.098ZM182.769 103.224V103.724H182.47L182.329 103.461L182.769 103.224ZM170.506 80.3712V79.8712H170.806L170.947 80.1347L170.506 80.3712ZM157.129 80.3712L156.675 80.1607L156.81 79.8712H157.129V80.3712ZM124.8 150.046H124.3V149.936L124.346 149.835L124.8 150.046ZM117.554 251.492H117.054V250.992H117.554V251.492ZM117.554 303.888V304.388H117.054V303.888H117.554ZM144.309 251.492V250.992H144.809V251.492H144.309ZM144.309 291.625H144.809V292.125H144.309V291.625ZM133.161 291.625H132.661V291.125H133.161V291.625ZM133.161 303.888H133.661V304.388H133.161V303.888ZM23.3534 254.279H22.8534V253.779H23.3534V254.279ZM74.634 254.279H75.134V254.779H74.634V254.279ZM23.3534 258.739V259.239H22.8534V258.739H23.3534ZM60.1416 258.739V258.239H60.6416V258.739H60.1416ZM60.1416 294.412V294.912H59.6416V294.412H60.1416ZM64.6008 294.412H65.1008V294.912H64.6008V294.412ZM64.6008 287.166H64.1008V286.666H64.6008V287.166ZM86.3393 287.166H86.8393V287.666H86.3393V287.166ZM86.3393 263.198H85.8393V262.698H86.3393V263.198ZM97.4873 263.198H97.9873V263.698H97.4873V263.198ZM97.4873 245.918V245.418H97.9873V245.918H97.4873ZM74.634 245.918H74.134V245.418H74.634V245.918ZM320.63 352.046L320.191 351.806L320.191 351.806L320.63 352.046ZM48.4362 104.339H47.9362V91.5191H48.4362H48.9362V104.339H48.4362ZM61.2564 113.258L60.9708 113.668L48.1507 104.75L48.4362 104.339L48.7218 103.929L61.5419 112.847L61.2564 113.258ZM33.9439 158.964L33.5147 158.708L60.8272 113.001L61.2564 113.258L61.6856 113.514L34.3731 159.221L33.9439 158.964ZM33.9439 172.342H33.4439V158.964H33.9439H34.4439V172.342H33.9439ZM45.6492 172.342V172.842H33.9439V172.342V171.842H45.6492V172.342ZM45.6492 203.556H45.1492V172.342H45.6492H46.1492V203.556H45.6492ZM43.977 203.556V203.056H45.6492V203.556V204.056H43.977V203.556ZM33.3865 186.834L33.8089 186.567L44.3994 203.289L43.977 203.556L43.5546 203.824L32.9641 187.102L33.3865 186.834ZM15.5497 186.834V186.334H33.3865V186.834V187.334H15.5497V186.834ZM15.5497 193.523H15.0497V186.834H15.5497H16.0497V193.523H15.5497ZM8.30357 193.523V193.023H15.5497V193.523V194.023H8.30357V193.523ZM8.30357 258.181H7.80357V193.523H8.30357H8.80357V258.181H8.30357ZM0.5 258.181V257.681H8.30357V258.181V258.681H0.5V258.181ZM0.5 271.559H0V258.181H0.5H1V271.559H0.5ZM47.3214 271.559V272.059H0.5V271.559V271.059H47.3214V271.559ZM47.3214 301.101H46.8214V271.559H47.3214H47.8214V301.101H47.3214ZM54.0102 309.462L53.6198 309.774L46.931 301.413L47.3214 301.101L47.7119 300.788L54.4006 309.149L54.0102 309.462ZM64.6008 309.462V309.962H54.0102V309.462V308.962H64.6008V309.462ZM64.6008 313.364H64.1008V309.462H64.6008H65.1008V313.364H64.6008ZM86.8967 335.659L86.5431 336.013L64.2472 313.717L64.6008 313.364L64.9543 313.01L87.2502 335.306L86.8967 335.659ZM137.062 335.659V336.159H86.8967V335.659V335.159H137.062V335.659ZM137.062 364.087H136.562V335.659H137.062H137.562V364.087H137.062ZM124.8 364.087V363.587H137.062V364.087V364.587H124.8V364.087ZM124.8 427.073H124.3V364.087H124.8H125.3V427.073H124.8ZM153.784 455.5L153.434 455.857L124.45 427.43L124.8 427.073L125.15 426.716L154.135 455.143L153.784 455.5ZM267.494 455.5V456H153.784V455.5V455H267.494V455.5ZM273.068 452.156L273.325 452.584L267.751 455.929L267.494 455.5L267.236 455.071L272.81 451.727L273.068 452.156ZM275.855 452.156V452.656H273.068V452.156V451.656H275.855V452.156ZM279.756 449.926L280.004 450.36L276.103 452.59L275.855 452.156L275.607 451.721L279.508 449.492L279.756 449.926ZM284.216 446.024L284.545 446.401L280.086 450.302L279.756 449.926L279.427 449.55L283.886 445.648L284.216 446.024ZM289.232 446.024V446.524H284.216V446.024V445.524H289.232V446.024ZM297.036 443.795L297.173 444.275L289.37 446.505L289.232 446.024L289.095 445.543L296.898 443.314L297.036 443.795ZM302.61 443.795V444.295H297.036V443.795V443.295H302.61V443.795ZM324.348 440.45L324.424 440.944L302.686 444.289L302.61 443.795L302.534 443.3L324.272 439.956L324.348 440.45ZM344.415 439.335L344.442 439.835L324.376 440.949L324.348 440.45L324.32 439.951L344.387 438.836L344.415 439.335ZM357.792 423.728L358.172 424.054L344.794 439.661L344.415 439.335L344.035 439.01L357.412 423.403L357.792 423.728ZM357.792 402.547H358.292V423.728H357.792H357.292V402.547H357.792ZM347.759 402.547V402.047H357.792V402.547V403.047H347.759V402.547ZM347.759 392.514H348.259V402.547H347.759H347.259V392.514H347.759ZM354.448 368.546L354.929 368.68L348.241 392.648L347.759 392.514L347.277 392.38L353.966 368.412L354.448 368.546ZM361.136 350.709L361.605 350.885L354.916 368.721L354.448 368.546L353.98 368.37L360.668 350.534L361.136 350.709ZM359.464 346.25L359.875 345.964C360.406 346.727 360.797 347.376 361.08 348.105C361.363 348.836 361.527 349.623 361.634 350.658L361.136 350.709L360.639 350.761C360.538 349.779 360.387 349.086 360.147 348.466C359.907 347.845 359.567 347.272 359.054 346.536L359.464 346.25ZM356.677 343.463L357.031 343.109L359.818 345.896L359.464 346.25L359.111 346.604L356.324 343.817L356.677 343.463ZM358.907 340.119L359.323 340.396L357.093 343.74L356.677 343.463L356.261 343.186L358.491 339.841L358.907 340.119ZM373.399 336.774L373.455 337.271C367.854 337.894 364.73 338.447 359.084 340.586L358.907 340.119L358.73 339.651C364.477 337.474 367.687 336.907 373.344 336.277L373.399 336.774ZM402.941 315.593L403.233 315.999L373.691 337.181L373.399 336.774L373.108 336.368L402.65 315.187L402.941 315.593ZM402.941 250.378H403.441V315.593H402.941H402.441V250.378H402.941ZM392.351 250.378V249.878H402.941V250.378V250.878H392.351V250.378ZM392.351 245.918H392.851V250.378H392.351H391.851V245.918H392.351ZM412.417 245.918V246.418H392.351V245.918V245.418H412.417V245.918ZM412.417 265.985H411.917V245.918H412.417H412.917V265.985H412.417ZM459.239 265.985V266.485H412.417V265.985V265.485H459.239V265.985ZM459.239 188.506H459.739V265.985H459.239H458.739V188.506H459.239ZM424.122 188.506V188.006H459.239V188.506V189.006H424.122V188.506ZM424.122 174.014H424.622V188.506H424.122H423.622V174.014H424.122ZM428.024 174.014V174.514H424.122V174.014V173.514H428.024V174.014ZM428.024 114.372H428.524V174.014H428.024H427.524V114.372H428.024ZM392.351 78.699L392.704 78.3454L428.378 114.019L428.024 114.372L427.671 114.726L391.997 79.0525L392.351 78.699ZM357.792 78.699V78.199H392.351V78.699V79.199H357.792V78.699ZM357.792 90.9617H357.292V78.699H357.792H358.292V90.9617H357.792ZM319.889 90.9617V90.4617H357.792V90.9617V91.4617H319.889V90.9617ZM319.889 60.8622H320.389V90.9617H319.889H319.389V60.8622H319.889ZM332.152 60.8622V61.3622H319.889V60.8622V60.3622H332.152V60.8622ZM332.152 26.3036H332.652V60.8622H332.152H331.652V26.3036H332.152ZM321.004 20.7296L321.227 20.2824L332.375 25.8563L332.152 26.3036L331.928 26.7508L320.78 21.1768L321.004 20.7296ZM280.314 20.7296V20.2296H321.004V20.7296V21.2296H280.314V20.7296ZM280.314 18.5H280.814V20.7296H280.314H279.814V18.5H280.314ZM215.098 18.5V18H280.314V18.5V19H215.098V18.5ZM215.098 62.5344H214.598V18.5H215.098H215.598V62.5344H215.098ZM206.737 62.5344V62.0344H215.098V62.5344V63.0344H206.737V62.5344ZM206.737 50.8291H207.237V62.5344H206.737H206.237V50.8291H206.737ZM170.506 50.8291V50.3291H206.737V50.8291V51.3291H170.506V50.8291ZM170.506 59.7474H170.006V50.8291H170.506H171.006V59.7474H170.506ZM157.686 59.7474V59.2474H170.506V59.7474V60.2474H157.686V59.7474ZM144.309 52.5013L144.547 52.0616L157.924 59.3078L157.686 59.7474L157.448 60.1871L144.071 52.9409L144.309 52.5013ZM119.783 52.5013V52.0013H144.309V52.5013V53.0013H119.783V52.5013ZM119.783 51.9439H120.283V52.5013H119.783H119.283V51.9439H119.783ZM95.2577 51.9439V51.4439H119.783V51.9439V52.4439H95.2577V51.9439ZM95.2577 91.5191H94.7577V51.9439H95.2577H95.7577V91.5191H95.2577ZM48.4362 91.5191V91.0191H95.2577V91.5191V92.0191H48.4362V91.5191ZM360.022 240.344V240.844H336.054V240.344V239.844H360.022V240.344ZM360.022 249.82H359.522V240.344H360.022H360.522V249.82H360.022ZM363.924 258.181L363.47 258.393L359.569 250.032L360.022 249.82L360.475 249.609L364.377 257.97L363.924 258.181ZM376.186 258.181V258.681H363.924V258.181V257.681H376.186V258.181ZM376.186 265.427H375.686V258.181H376.186H376.686V265.427H376.186ZM364.481 265.427V264.927H376.186V265.427V265.927H364.481V265.427ZM364.481 305.56H363.981V265.427H364.481H364.981V305.56H364.481ZM376.186 305.56V306.06H364.481V305.56V305.06H376.186V305.56ZM376.186 313.921H375.686V305.56H376.186H376.686V313.921H376.186ZM347.202 313.921V313.421H376.186V313.921V314.421H347.202V313.921ZM320.751 351.824L320.312 351.584C329.171 335.386 335.156 327.087 346.823 313.594L347.202 313.921L347.58 314.248C335.954 327.693 330.011 335.934 321.189 352.064L320.751 351.824ZM320.446 373.005L319.947 372.998L320.251 351.817L320.751 351.824L321.251 351.831L320.946 373.012L320.446 373.005ZM319.332 374.12L318.978 373.766L320.093 372.652L320.446 373.005L320.8 373.359L319.685 374.473L319.332 374.12ZM319.332 383.038H318.832V374.12H319.332H319.832V383.038H319.332ZM320.751 390.842L320.259 390.931L318.84 383.128L319.332 383.038L319.824 382.949L321.243 390.752L320.751 390.842ZM323.233 390.842V391.342H320.751V390.842V390.342H323.233V390.842ZM323.233 401.99H322.733V390.842H323.233H323.733V401.99H323.233ZM320.446 401.99V401.49H323.233V401.99V402.49H320.446V401.99ZM320.446 409.793H319.946V401.99H320.446H320.946V409.793H320.446ZM280.314 409.793V409.293H320.446V409.793V410.293H280.314V409.793ZM280.314 384.153H280.814V409.793H280.314H279.814V384.153H280.314ZM216.77 384.153V383.653H280.314V384.153V384.653H216.77V384.153ZM216.77 408.679H216.27V384.153H216.77H217.27V408.679H216.77ZM181.097 408.679V408.179H216.77V408.679V409.179H181.097V408.679ZM161.588 389.17L161.942 388.816L181.451 408.325L181.097 408.679L180.743 409.032L161.235 389.523L161.588 389.17ZM161.588 372.448H162.088V389.17H161.588H161.088V372.448H161.588ZM179.425 372.448V372.948H161.588V372.448V371.948H179.425V372.448ZM191.688 356.283L192.086 356.585L179.823 372.75L179.425 372.448L179.026 372.146L191.289 355.981L191.688 356.283ZM191.688 322.282H192.188V356.283H191.688H191.188V322.282H191.688ZM162.145 322.282V321.782H191.688V322.282V322.782H162.145V322.282ZM162.145 288.281H162.645V322.282H162.145H161.645V288.281H162.145ZM193.36 288.281V288.781H162.145V288.281V287.781H193.36V288.281ZM205.065 282.707L205.28 283.158L193.575 288.732L193.36 288.281L193.145 287.829L204.85 282.255L205.065 282.707ZM318.217 282.707V283.207H205.065V282.707V282.207H318.217V282.707ZM336.054 264.312L336.413 264.661L318.576 283.055L318.217 282.707L317.858 282.359L335.695 263.964L336.054 264.312ZM336.054 240.344H336.554V264.312H336.054H335.554V240.344H336.054ZM288.675 172.342H289.175V214.147H288.675H288.175V172.342H288.675ZM292.577 172.342V172.842H288.675V172.342V171.842H292.577V172.342ZM292.577 203.556H292.077V172.342H292.577H293.077V203.556H292.577ZM310.413 218.606L310.091 218.988L292.254 203.938L292.577 203.556L292.899 203.174L310.736 218.224L310.413 218.606ZM338.841 218.606V219.106H310.413V218.606V218.106H338.841V218.606ZM338.841 223.622H338.341V218.606H338.841H339.341V223.622H338.841ZM317.659 223.622V223.122H338.841V223.622V224.122H317.659V223.622ZM317.659 251.492H317.159V223.622H317.659H318.159V251.492H317.659ZM295.921 251.492V250.992H317.659V251.492V251.992H295.921V251.492ZM295.921 214.147H296.421V251.492H295.921H295.421V214.147H295.921ZM288.675 214.147V213.647H295.921V214.147V214.647H288.675V214.147ZM352.776 136.111H353.276V150.046H352.776H352.276V136.111H352.776ZM373.957 136.111V136.611H352.776V136.111V135.611H373.957V136.111ZM373.957 122.973H374.457V136.111H373.957H373.457V122.973H373.957ZM394.58 122.973V123.473H373.957V122.973V122.473H394.58V122.973ZM394.58 174.571H394.08V122.973H394.58H395.08V174.571H394.58ZM405.728 174.571V175.071H394.58V174.571V174.071H405.728V174.571ZM405.728 188.506H405.228V174.571H405.728H406.228V188.506H405.728ZM395.138 202.441L394.74 202.139L405.33 188.204L405.728 188.506L406.126 188.809L395.536 202.744L395.138 202.441ZM376.186 202.441V201.941H395.138V202.441V202.941H376.186V202.441ZM376.186 191.851H376.686V202.441H376.186H375.686V191.851H376.186ZM329.922 191.851V191.351H376.186V191.851V192.351H329.922V191.851ZM329.922 172.342H330.422V191.851H329.922H329.422V172.342H329.922ZM331.037 172.342V172.842H329.922V172.342V171.842H331.037V172.342ZM352.776 150.046L353.134 150.395L331.395 172.691L331.037 172.342L330.679 171.993L352.418 149.697L352.776 150.046ZM148.211 202.441V202.941H104.733V202.441V201.941H148.211V202.441ZM166.605 220.835L166.251 221.189L147.857 202.795L148.211 202.441L148.564 202.088L166.958 220.482L166.605 220.835ZM166.605 235.328H166.105V220.835H166.605H167.105V235.328H166.605ZM176.638 245.361L176.284 245.715L166.251 235.681L166.605 235.328L166.958 234.974L176.991 245.007L176.638 245.361ZM176.638 267.099H176.138V245.361H176.638H177.138V267.099H176.638ZM186.671 267.099V267.599H176.638V267.099V266.599H186.671V267.099ZM186.671 234.77H187.171V267.099H186.671H186.171V234.77H186.671ZM150.997 199.097L151.351 198.743L187.025 234.417L186.671 234.77L186.317 235.124L150.644 199.45L150.997 199.097ZM104.733 199.097V198.597H150.997V199.097V199.597H104.733V199.097ZM104.733 202.441H104.233V199.097H104.733H105.233V202.441H104.733ZM69.06 147.259L68.6194 147.023L80.8822 124.169L81.3227 124.406L81.7633 124.642L69.5006 147.495L69.06 147.259ZM69.06 176.801H68.56V147.259H69.06H69.56V176.801H69.06ZM98.6021 176.801V177.301H69.06V176.801V176.301H98.6021V176.801ZM98.6021 134.439H99.1021V176.801H98.6021H98.1021V134.439H98.6021ZM81.3227 124.406L81.5738 123.973L98.8531 134.006L98.6021 134.439L98.351 134.871L81.0717 124.838L81.3227 124.406ZM130.374 176.801V177.301H124.8V176.801V176.301H130.374V176.801ZM130.374 169.555H130.874V176.801H130.374H129.874V169.555H130.374ZM160.473 169.555V170.055H130.374V169.555V169.055H160.473V169.555ZM204.508 213.589L204.154 213.943L160.12 169.908L160.473 169.555L160.827 169.201L204.861 213.236L204.508 213.589ZM236.279 213.589V214.089H204.508V213.589V213.089H236.279V213.589ZM236.279 252.05H235.779V213.589H236.279H236.779V252.05H236.279ZM259.133 252.05V252.55H236.279V252.05V251.55H259.133V252.05ZM259.133 214.147H259.633V252.05H259.133H258.633V214.147H259.133ZM272.51 214.147V214.647H259.133V214.147V213.647H272.51V214.147ZM272.51 157.292H273.01V214.147H272.51H272.01V157.292H272.51ZM300.38 157.292V157.792H272.51V157.292V156.792H300.38V157.292ZM300.38 145.587H300.88V157.292H300.38H299.88V145.587H300.38ZM319.332 126.635L319.685 126.989L300.734 145.94L300.38 145.587L300.027 145.233L318.978 126.282L319.332 126.635ZM343.3 126.635V127.135H319.332V126.635V126.135H343.3V126.635ZM343.3 118.274H343.8V126.635H343.3H342.8V118.274H343.3ZM294.249 118.274V117.774H343.3V118.274V118.774H294.249V118.274ZM294.249 55.2883H294.749V118.274H294.249H293.749V55.2883H294.249ZM289.232 55.2883V54.7883H294.249V55.2883V55.7883H289.232V55.2883ZM289.232 60.8622H288.732V55.2883H289.232H289.732V60.8622H289.232ZM265.264 60.8622V60.3622H289.232V60.8622V61.3622H265.264V60.8622ZM265.264 104.897H264.764V60.8622H265.264H265.764V104.897H265.264ZM264.149 104.897V104.397H265.264V104.897V105.397H264.149V104.897ZM264.149 106.569H263.649V104.897H264.149H264.649V106.569H264.149ZM262.477 108.241L262.124 107.888L263.796 106.215L264.149 106.569L264.503 106.922L262.831 108.595L262.477 108.241ZM262.477 111.028H261.977V108.241H262.477H262.977V111.028H262.477ZM215.098 111.028V110.528H262.477V111.028V111.528H215.098V111.028ZM215.098 103.224H215.598V111.028H215.098H214.598V103.224H215.098ZM182.769 103.224V102.724H215.098V103.224V103.724H182.769V103.224ZM170.506 80.3712L170.947 80.1347L183.21 102.988L182.769 103.224L182.329 103.461L170.066 80.6076L170.506 80.3712ZM157.129 80.3712V79.8712H170.506V80.3712V80.8712H157.129V80.3712ZM124.8 150.046L124.346 149.835L156.675 80.1607L157.129 80.3712L157.582 80.5816L125.253 150.256L124.8 150.046ZM124.8 176.801H124.3V150.046H124.8H125.3V176.801H124.8ZM117.554 251.492H118.054V303.888H117.554H117.054V251.492H117.554ZM144.309 251.492V251.992H117.554V251.492V250.992H144.309V251.492ZM144.309 291.625H143.809V251.492H144.309H144.809V291.625H144.309ZM133.161 291.625V291.125H144.309V291.625V292.125H133.161V291.625ZM133.161 303.888H132.661V291.625H133.161H133.661V303.888H133.161ZM117.554 303.888V303.388H133.161V303.888V304.388H117.554V303.888ZM23.3534 254.279V253.779H74.634V254.279V254.779H23.3534V254.279ZM23.3534 258.739H22.8534V254.279H23.3534H23.8534V258.739H23.3534ZM60.1416 258.739V259.239H23.3534V258.739V258.239H60.1416V258.739ZM60.1416 294.412H59.6416V258.739H60.1416H60.6416V294.412H60.1416ZM64.6008 294.412V294.912H60.1416V294.412V293.912H64.6008V294.412ZM64.6008 287.166H65.1008V294.412H64.6008H64.1008V287.166H64.6008ZM86.3393 287.166V287.666H64.6008V287.166V286.666H86.3393V287.166ZM86.3393 263.198H86.8393V287.166H86.3393H85.8393V263.198H86.3393ZM97.4873 263.198V263.698H86.3393V263.198V262.698H97.4873V263.198ZM97.4873 245.918H97.9873V263.198H97.4873H96.9873V245.918H97.4873ZM74.634 245.918V245.418H97.4873V245.918V246.418H74.634V245.918ZM74.634 254.279H74.134V245.918H74.634H75.134V254.279H74.634ZM320.751 351.824L321.19 352.064L321.068 352.285L320.63 352.046L320.191 351.806L320.312 351.584L320.751 351.824ZM320.63 352.046L321.069 352.285L320.885 352.621L320.446 352.381L320.008 352.142L320.191 351.806L320.63 352.046Z" fill="#B27C40"/>
<path d="M277.527 434.319H286.445C288.895 435.676 290.23 435.274 292.577 433.762H302.61L304.839 434.319" stroke="#B27C40" stroke-width="0.5"/>
<path d="M69.6177 195.195V213.589H75.7491V215.819H83.5526V231.426M83.5526 231.426H75.7491M83.5526 231.426H89.684" stroke="#B27C40"/>
<path d="M373.957 122.733V114.93H381.203V122.733M428.025 147.259H417.434V138.898H428.025M85.7822 306.675L97.4876 318.38L103.062 312.806L91.3562 301.101L85.7822 306.675Z" stroke="#B27C40"/>
<path d="M98.6021 176.801H124.8" stroke="#B27C40"/>
<path d="M124.243 199.097V202.441H104.734V199.097H124.243Z" fill="#271406" stroke="#B27C40"/>
<path d="M88.0117 176.801V184.047H94.7004V176.801M45.6494 203.556V214.147M71.2897 224.737H63.4861V232.541H71.2897V228.082M71.2897 224.737V228.082M71.2897 224.737V220.278H79.6507V228.082H71.2897M127.587 202.441V228.639H135.39V202.441M162.703 288.281H146.538V251.492H141.522M295.921 251.492H288.675V247.591M295.921 239.787H288.675V247.591M295.921 247.591H288.675" stroke="#B27C40"/>
<path d="M329.922 218.606V212.474H338.841V218.606M387.334 202.441V209.687H394.581V202.441M135.391 127.75L119.226 116.045L120.608 114.026M140.407 115.487L126.472 105.454L120.608 114.026M123.685 109.356L117.554 104.897L114.209 109.356L120.608 114.026" stroke="#B27C40"/>
<path d="M95.2578 91.5191V93.1913H103.619V84.8304H95.2578M206.737 62.5344V69.7806H215.098V62.5344M215.098 103.224V88.7321M238.509 38.2623L236.279 38.5663V32.435L248.542 30.7628V33.5497M238.509 38.2623V41.9107H242.968M238.509 38.2623L242.968 37.6542M242.968 41.9107V37.6542M242.968 41.9107H247.427V37.0462M242.968 37.6542L247.427 37.0462M247.427 37.0462L248.542 36.8941V36.3367M248.542 33.5497H252.444V37.6542H248.542V36.3367M248.542 33.5497V36.3367" stroke="#B27C40"/>
<path d="M234.607 373.562L231.228 379.415H237.987L234.607 373.562Z" fill="#B27C40"/>
<path d="M251.887 122.733L255.749 116.045H248.025L251.887 122.733Z" fill="#B27C40"/>
<path d="M234.27 369.103V282.707M251.886 379.136V282.707M251.886 251.492V126.078M234.405 213.589V116.045" stroke="#B27C40" stroke-width="0.5"/>
<path d="M231.263 213.589V259.853H264.457V214.147M300.381 210.245V157.292M272.511 161.194H278.085L279.757 160.079V157.292M342.743 126.078L353.333 136.668M297.594 118.274V114.93H294.249M360.58 240.344H367.826V258.181M376.187 258.181H392.351V250.378M376.187 282.149V305.56" stroke="#B27C40" stroke-width="0.5"/>
<path d="M64.6011 309.462V294.412M184.999 321.725V364.944M436.943 197.982H451.435V214.704H435.828M426.91 228.082V245.918H459.239" stroke="#B27C40" stroke-width="0.5"/>
<path d="M426.91 228.082V214.704H435.828" stroke="#B27C40"/>
<path d="M451.435 245.918V238.115H459.239M226.247 455.5V449.369H234.05V441.565H241.854V455.5M273.068 452.156V446.024C274 444.21 273.914 443.24 273.068 441.565V434.876L275.298 433.761H276.97L278.085 434.876V440.45C276.896 443.238 277.137 444.501 278.085 446.582V451.041" stroke="#B27C40"/>
<path d="M23.3535 231.983V243.131V254.279" stroke="#B27C40"/>
<path d="M98.6021 176.801V233.656H144.022V251.26M162.703 288.281V216.831L158.244 212.475H124.242V202.441M124.8 199.097V176.801" stroke="#B27C40" stroke-opacity="0.23"/>
<path d="M438.615 233.656V245.361H427.467V233.656H438.615Z" stroke="#B27C40" stroke-opacity="0.23"/>
<path d="M458.681 214.48H451.434V198.267H412.974V265.427H458.681V214.48Z" fill="#F08234" fill-opacity="0.2"/>
<path d="M418.692 212.884H417.146L419.962 204.884H421.751L424.571 212.884H423.024L420.888 206.525H420.825L418.692 212.884ZM418.743 209.747H422.962V210.911H418.743V209.747Z" fill="white"/>
<path d="M23.353 214.146H45.6489V202.345L44.5347 204.113L33.2993 186.276H15.5493V192.966H8.86084V231.983H23.353V214.146Z" fill="#F08234" fill-opacity="0.2"/>
<path d="M74.6333 254.279V245.361H75.7485V228.639H71.2896V233.099H63.4858V225.295H71.2896V219.721H75.7485V214.146H23.353V254.279H74.6333Z" fill="#F08234" fill-opacity="0.2"/>
<path d="M34.1753 236.295V228.295H37.2378C37.8159 228.295 38.2964 228.386 38.6792 228.568C39.0646 228.748 39.3524 228.994 39.5425 229.306C39.7352 229.619 39.8315 229.973 39.8315 230.369C39.8315 230.694 39.769 230.973 39.644 231.205C39.519 231.434 39.3511 231.62 39.1401 231.763C38.9292 231.907 38.6935 232.009 38.4331 232.072V232.15C38.717 232.166 38.9891 232.253 39.2495 232.412C39.5125 232.568 39.7274 232.789 39.894 233.076C40.0607 233.362 40.144 233.709 40.144 234.115C40.144 234.529 40.0438 234.901 39.8433 235.232C39.6427 235.56 39.3407 235.819 38.937 236.009C38.5334 236.2 38.0256 236.295 37.4136 236.295H34.1753ZM35.6245 235.084H37.1831C37.7091 235.084 38.0881 234.983 38.3198 234.783C38.5542 234.58 38.6714 234.319 38.6714 234.002C38.6714 233.765 38.6128 233.551 38.4956 233.361C38.3784 233.168 38.2118 233.017 37.9956 232.908C37.7795 232.796 37.5216 232.74 37.2222 232.74H35.6245V235.084ZM35.6245 231.697H37.0581C37.3081 231.697 37.5334 231.651 37.7339 231.56C37.9344 231.466 38.092 231.335 38.2065 231.166C38.3237 230.994 38.3823 230.791 38.3823 230.556C38.3823 230.246 38.2729 229.991 38.0542 229.791C37.8381 229.59 37.5164 229.49 37.0894 229.49H35.6245V231.697Z" fill="white"/>
</svg>
