<svg width="388" height="417" viewBox="0 0 388 417" fill="none" xmlns="http://www.w3.org/2000/svg">
<path d="M324.5 296H329V293.5H314V307H324.5V296Z" fill="#271406" fill-opacity="0.9" stroke="#B27C40" stroke-opacity="0.23" stroke-width="0.5"/>
<path fill-rule="evenodd" clip-rule="evenodd" d="M63.0004 119.5V107.5H13.0004V142.766H14.7433V151.298H27.0004V175.298H24.5004V205.231H8.28208V242.304H0.735352V286H62.0002V301.5H105V325.5H151V357.5H165V356.5H187.5V372.5L216 398.5L235 384.5V356.5H256V325.5H314V293.774H335.5V279.5H342V224H330V197H342V171.5H313.5L278 150H268.5V141.5H240V156H238V137H225.5V135.5H237.5V89H182.5V65.397H204.185V34.5L179 18.5H139L117.5 34.5V85.744H56.0002V102H65.0002V119.5H63.0004ZM118.5 308V276.5H136.5V270H142.5V274L152 283.5H160.5V301.5H186V283.5H194L204 273.5V258H209V264.5H237V309.5H218V337H185.5V308H118.5ZM72.0002 227.5H102V235H112.5V236.5H96.0002V250H98.5002V251.5H96.0002V254.5H93.5002V271H96.0002V285.5H81.1114V242.5H72.0002V227.5ZM256 309.5V298.5H277V304H295.5V279.5H301.5V309.5H256ZM198 120V118.5H203V126.5L212.5 135.5H215.5V137H204V174H215V175.5H212.5V205.5H209.5V209H206.5V231H237.5V221.5H240.5V231H253V224.5H277V230H261.5V273.5H277V285.384H256.075V239.634L209 240V245.5H204V221.223H176.188V218.5H185.5V175.899H200.675V147.5H179.5V146H200.675V120H198ZM106 251.5H130.5V256H136.5V257.41H142V221.5H163V218.5H142V199.5H154V175.5H136.5V187.5H127.5V190H136.5V235H126V236.5H136.5V250H106V251.5ZM41.5002 156.5V142H57.0002V135.5H63.0002V132.5H65.0002V142H94.0002V108H117.5V120.5H131V122.249H102V187.5H111V190H102V215.5H72.0002V205.5H41.5002V179H57.0002V156.5H41.5002ZM139.5 142V147.5H161V146H151V132L187.274 132.157V120.135H190.258V118.774H182V108.5L158.206 108.323V120.31H146V142H139.5ZM130 65V92.3213H171V65H130ZM228.5 180V206H237.5V215H240V210H253V211.746H282.5V199.291H308V224H313.5V197L278 176H256V185H239.805V169.847H237.833V174H224.5V176L228.5 180Z" fill="#271406"/>
<path d="M63.0004 107.5V107H63.5004V107.5H63.0004ZM63.0004 119.5V120H62.5004V119.5H63.0004ZM13.0004 107.5H12.5004V107H13.0004V107.5ZM13.0004 142.766V143.266H12.5004V142.766H13.0004ZM14.7433 142.766V142.266H15.2433V142.766H14.7433ZM14.7433 151.298V151.798H14.2433V151.298H14.7433ZM27.0004 151.298V150.798H27.5004V151.298H27.0004ZM27.0004 175.298H27.5004V175.798H27.0004V175.298ZM24.5004 175.298H24.0004V174.798H24.5004V175.298ZM24.5004 205.231H25.0004V205.731H24.5004V205.231ZM8.28208 205.231H7.78208V204.731H8.28208V205.231ZM8.28208 242.304H8.78208V242.804H8.28208V242.304ZM0.735352 242.304H0.235352V241.804H0.735352V242.304ZM0.735352 286V286.5H0.235352V286H0.735352ZM62.0002 286V285.5H62.5002V286H62.0002ZM62.0002 301.5V302H61.5002V301.5H62.0002ZM105 301.5V301H105.5V301.5H105ZM105 325.5V326H104.5V325.5H105ZM151 325.5V325H151.5V325.5H151ZM151 357.5V358H150.5V357.5H151ZM165 357.5H165.5V358H165V357.5ZM165 356.5H164.5V356H165V356.5ZM187.5 356.5V356H188V356.5H187.5ZM187.5 372.5L187.163 372.869L187 372.721V372.5H187.5ZM216 398.5L216.297 398.903L215.966 399.146L215.663 398.869L216 398.5ZM235 384.5H235.5V384.753L235.297 384.903L235 384.5ZM235 356.5H234.5V356H235V356.5ZM256 356.5H256.5V357H256V356.5ZM256 325.5H255.5V325H256V325.5ZM314 325.5H314.5V326H314V325.5ZM314 293.774H313.5V293.274H314V293.774ZM335.5 293.774H336V294.274H335.5V293.774ZM335.5 279.5H335V279H335.5V279.5ZM342 279.5H342.5V280H342V279.5ZM342 224V223.5H342.5V224H342ZM330 224V224.5H329.5V224H330ZM330 197H329.5V196.5H330V197ZM342 197H342.5V197.5H342V197ZM342 171.5V171H342.5V171.5H342ZM313.5 171.5V172H313.361L313.241 171.928L313.5 171.5ZM278 150V149.5H278.14L278.259 149.572L278 150ZM268.5 150V150.5H268V150H268.5ZM268.5 141.5V141H269V141.5H268.5ZM240 141.5H239.5V141H240V141.5ZM240 156H240.5V156.5H240V156ZM238 156V156.5H237.5V156H238ZM238 137V136.5H238.5V137H238ZM225.5 137V137.5H225V137H225.5ZM225.5 135.5H225V135H225.5V135.5ZM237.5 135.5H238V136H237.5V135.5ZM237.5 89V88.5H238V89H237.5ZM182.5 89V89.5H182V89H182.5ZM182.5 65.397H182V64.897H182.5V65.397ZM204.185 65.397H204.685V65.897H204.185V65.397ZM204.185 34.5L204.453 34.078L204.685 34.2253V34.5H204.185ZM179 18.5V18H179.146L179.268 18.078L179 18.5ZM139 18.5L138.702 18.0989L138.835 18H139V18.5ZM117.5 34.5H117V34.2488L117.202 34.0989L117.5 34.5ZM117.5 85.744H118V86.244H117.5V85.744ZM56.0002 85.744H55.5002V85.244H56.0002V85.744ZM56.0002 102V102.5H55.5002V102H56.0002ZM65.0002 102V101.5H65.5002V102H65.0002ZM65.0002 119.5H65.5002V120H65.0002V119.5ZM118.5 276.5H118V276H118.5V276.5ZM118.5 308V308.5H118V308H118.5ZM136.5 276.5H137V277H136.5V276.5ZM136.5 270H136V269.5H136.5V270ZM142.5 270V269.5H143V270H142.5ZM142.5 274L142.147 274.354L142 274.207V274H142.5ZM152 283.5V284H151.793L151.647 283.854L152 283.5ZM160.5 283.5V283H161V283.5H160.5ZM160.5 301.5V302H160V301.5H160.5ZM186 301.5H186.5V302H186V301.5ZM186 283.5H185.5V283H186V283.5ZM194 283.5L194.354 283.854L194.207 284H194V283.5ZM204 273.5H204.5V273.707L204.354 273.854L204 273.5ZM204 258H203.5V257.5H204V258ZM209 258V257.5H209.5V258H209ZM209 264.5V265H208.5V264.5H209ZM237 264.5V264H237.5V264.5H237ZM237 309.5H237.5V310H237V309.5ZM218 309.5H217.5V309H218V309.5ZM218 337H218.5V337.5H218V337ZM185.5 337V337.5H185V337H185.5ZM185.5 308V307.5H186V308H185.5ZM102 227.5V227H102.5V227.5H102ZM72.0002 227.5H71.5002V227H72.0002V227.5ZM102 235V235.5H101.5V235H102ZM112.5 235V234.5H113V235H112.5ZM112.5 236.5H113V237H112.5V236.5ZM96.0002 236.5H95.5002V236H96.0002V236.5ZM96.0002 250V250.5H95.5002V250H96.0002ZM98.5002 250V249.5H99.0002V250H98.5002ZM98.5002 251.5H99.0002V252H98.5002V251.5ZM96.0002 251.5H95.5002V251H96.0002V251.5ZM96.0002 254.5H96.5002V255H96.0002V254.5ZM93.5002 254.5H93.0002V254H93.5002V254.5ZM93.5002 271V271.5H93.0002V271H93.5002ZM96.0002 271V270.5H96.5002V271H96.0002ZM96.0002 285.5H96.5002V286H96.0002V285.5ZM81.1114 285.5V286H80.6114V285.5H81.1114ZM81.1114 242.5V242H81.6114V242.5H81.1114ZM72.0002 242.5V243H71.5002V242.5H72.0002ZM256 298.5H255.5V298H256V298.5ZM256 309.5V310H255.5V309.5H256ZM277 298.5V298H277.5V298.5H277ZM277 304V304.5H276.5V304H277ZM295.5 304H296V304.5H295.5V304ZM295.5 279.5H295V279H295.5V279.5ZM301.5 279.5V279H302V279.5H301.5ZM301.5 309.5H302V310H301.5V309.5ZM198 118.5H197.5V118H198V118.5ZM198 120V120.5H197.5V120H198ZM203 118.5V118H203.5V118.5H203ZM203 126.5L202.656 126.863L202.5 126.715V126.5H203ZM212.5 135.5V136H212.301L212.156 135.863L212.5 135.5ZM215.5 135.5V135H216V135.5H215.5ZM215.5 137H216V137.5H215.5V137ZM204 137H203.5V136.5H204V137ZM204 174V174.5H203.5V174H204ZM215 174V173.5H215.5V174H215ZM215 175.5H215.5V176H215V175.5ZM212.5 175.5H212V175H212.5V175.5ZM212.5 205.5H213V206H212.5V205.5ZM209.5 205.5H209V205H209.5V205.5ZM209.5 209H210V209.5H209.5V209ZM206.5 209H206V208.5H206.5V209ZM206.5 231V231.5H206V231H206.5ZM237.5 231H238V231.5H237.5V231ZM237.5 221.5H237V221H237.5V221.5ZM240.5 221.5V221H241V221.5H240.5ZM240.5 231V231.5H240V231H240.5ZM253 231H253.5V231.5H253V231ZM253 224.5H252.5V224H253V224.5ZM277 224.5V224H277.5V224.5H277ZM277 230H277.5V230.5H277V230ZM261.5 230H261V229.5H261.5V230ZM261.5 273.5V274H261V273.5H261.5ZM277 273.5V273H277.5V273.5H277ZM277 285.384H277.5V285.884H277V285.384ZM256.075 285.384V285.884H255.575V285.384H256.075ZM256.075 239.634L256.071 239.134L256.575 239.13V239.634H256.075ZM209 240H208.5V239.504L208.996 239.5L209 240ZM209 245.5H209.5V246H209V245.5ZM204 245.5V246H203.5V245.5H204ZM204 221.223V220.723H204.5V221.223H204ZM176.188 221.223V221.723H175.688V221.223H176.188ZM176.188 218.5H175.688V218H176.188V218.5ZM185.5 218.5H186V219H185.5V218.5ZM185.5 175.899H185V175.399H185.5V175.899ZM200.675 175.899H201.175V176.399H200.675V175.899ZM200.675 147.5V147H201.175V147.5H200.675ZM179.5 147.5V148H179V147.5H179.5ZM179.5 146H179V145.5H179.5V146ZM200.675 146H201.175V146.5H200.675V146ZM200.675 120V119.5H201.175V120H200.675ZM130.5 251.5V251H131V251.5H130.5ZM106 251.5V252H105.5V251.5H106ZM130.5 256V256.5H130V256H130.5ZM136.5 256V255.5H137V256H136.5ZM136.5 257.41V257.91H136V257.41H136.5ZM142 257.41H142.5V257.91H142V257.41ZM142 221.5H141.5V221H142V221.5ZM163 221.5H163.5V222H163V221.5ZM163 218.5V218H163.5V218.5H163ZM142 218.5V219H141.5V218.5H142ZM142 199.5H141.5V199H142V199.5ZM154 199.5H154.5V200H154V199.5ZM154 175.5V175H154.5V175.5H154ZM136.5 175.5H136V175H136.5V175.5ZM136.5 187.5H137V188H136.5V187.5ZM127.5 187.5H127V187H127.5V187.5ZM127.5 190V190.5H127V190H127.5ZM136.5 190V189.5H137V190H136.5ZM136.5 235H137V235.5H136.5V235ZM126 235H125.5V234.5H126V235ZM126 236.5V237H125.5V236.5H126ZM136.5 236.5V236H137V236.5H136.5ZM136.5 250H137V250.5H136.5V250ZM106 250H105.5V249.5H106V250ZM41.5002 142H41.0002V141.5H41.5002V142ZM41.5002 156.5V157H41.0002V156.5H41.5002ZM57.0002 142H57.5002V142.5H57.0002V142ZM57.0002 135.5H56.5002V135H57.0002V135.5ZM63.0002 135.5H63.5002V136H63.0002V135.5ZM63.0002 132.5H62.5002V132H63.0002V132.5ZM65.0002 132.5V132H65.5002V132.5H65.0002ZM65.0002 142V142.5H64.5002V142H65.0002ZM94.0002 142H94.5002V142.5H94.0002V142ZM94.0002 108H93.5002V107.5H94.0002V108ZM117.5 108V107.5H118V108H117.5ZM117.5 120.5V121H117V120.5H117.5ZM131 120.5V120H131.5V120.5H131ZM131 122.249H131.5V122.749H131V122.249ZM102 122.249H101.5V121.749H102V122.249ZM102 187.5V188H101.5V187.5H102ZM111 187.5V187H111.5V187.5H111ZM111 190H111.5V190.5H111V190ZM102 190H101.5V189.5H102V190ZM102 215.5H102.5V216H102V215.5ZM72.0002 215.5V216H71.5002V215.5H72.0002ZM72.0002 205.5V205H72.5002V205.5H72.0002ZM41.5002 205.5V206H41.0002V205.5H41.5002ZM41.5002 179H41.0002V178.5H41.5002V179ZM57.0002 179H57.5002V179.5H57.0002V179ZM57.0002 156.5V156H57.5002V156.5H57.0002ZM139.5 147.5V148H139V147.5H139.5ZM139.5 142H139V141.5H139.5V142ZM161 147.5H161.5V148H161V147.5ZM161 146V145.5H161.5V146H161ZM151 146V146.5H150.5V146H151ZM151 132H150.5V131.498L151.002 131.5L151 132ZM187.274 132.157H187.774V132.659L187.272 132.657L187.274 132.157ZM187.274 120.135H186.774V119.635H187.274V120.135ZM190.258 120.135H190.758V120.635H190.258V120.135ZM190.258 118.774V118.274H190.758V118.774H190.258ZM182 118.774V119.274H181.5V118.774H182ZM182 108.5L182.004 108L182.5 108.004V108.5H182ZM158.206 108.323H157.706V107.819L158.21 107.823L158.206 108.323ZM158.206 120.31H158.706V120.81H158.206V120.31ZM146 120.31H145.5V119.81H146V120.31ZM146 142H146.5V142.5H146V142ZM130 92.3213V92.8213H129.5V92.3213H130ZM130 65H129.5V64.5H130V65ZM171 92.3213H171.5V92.8213H171V92.3213ZM171 65V64.5H171.5V65H171ZM228.5 206V206.5H228V206H228.5ZM228.5 180L228.854 179.646L229 179.793V180H228.5ZM237.5 206V205.5H238V206H237.5ZM237.5 215V215.5H237V215H237.5ZM240 215H240.5V215.5H240V215ZM240 210H239.5V209.5H240V210ZM253 210V209.5H253.5V210H253ZM253 211.746V212.246H252.5V211.746H253ZM282.5 211.746H283V212.246H282.5V211.746ZM282.5 199.291H282V198.791H282.5V199.291ZM308 199.291V198.791H308.5V199.291H308ZM308 224V224.5H307.5V224H308ZM313.5 224H314V224.5H313.5V224ZM313.5 197L313.755 196.57L314 196.715V197H313.5ZM278 176V175.5H278.137L278.255 175.57L278 176ZM256 176H255.5V175.5H256V176ZM256 185H256.5V185.5H256V185ZM239.805 185V185.5H239.305V185H239.805ZM239.805 169.847V169.347H240.305V169.847H239.805ZM237.833 169.847H237.333V169.347H237.833V169.847ZM237.833 174H238.333V174.5H237.833V174ZM224.5 174H224V173.5H224.5V174ZM224.5 176L224.147 176.354L224 176.207V176H224.5ZM63.0004 107.5H63.5004V119.5H63.0004H62.5004V107.5H63.0004ZM13.0004 107.5V107H63.0004V107.5V108H13.0004V107.5ZM13.0004 142.766H12.5004V107.5H13.0004H13.5004V142.766H13.0004ZM14.7433 142.766V143.266H13.0004V142.766V142.266H14.7433V142.766ZM14.7433 151.298H14.2433V142.766H14.7433H15.2433V151.298H14.7433ZM27.0004 151.298V151.798H14.7433V151.298V150.798H27.0004V151.298ZM27.0004 175.298H26.5004V151.298H27.0004H27.5004V175.298H27.0004ZM24.5004 175.298V174.798H27.0004V175.298V175.798H24.5004V175.298ZM24.5004 205.231H24.0004V175.298H24.5004H25.0004V205.231H24.5004ZM8.28208 205.231V204.731H24.5004V205.231V205.731H8.28208V205.231ZM8.28208 242.304H7.78208V205.231H8.28208H8.78208V242.304H8.28208ZM0.735352 242.304V241.804H8.28208V242.304V242.804H0.735352V242.304ZM0.735352 286H0.235352V242.304H0.735352H1.23535V286H0.735352ZM62.0002 286V286.5H0.735352V286V285.5H62.0002V286ZM62.0002 301.5H61.5002V286H62.0002H62.5002V301.5H62.0002ZM105 301.5V302H62.0002V301.5V301H105V301.5ZM105 325.5H104.5V301.5H105H105.5V325.5H105ZM151 325.5V326H105V325.5V325H151V325.5ZM151 357.5H150.5V325.5H151H151.5V357.5H151ZM165 357.5V358H151V357.5V357H165V357.5ZM165 356.5H165.5V357.5H165H164.5V356.5H165ZM187.5 356.5V357H165V356.5V356H187.5V356.5ZM187.5 372.5H187V356.5H187.5H188V372.5H187.5ZM216 398.5L215.663 398.869L187.163 372.869L187.5 372.5L187.837 372.131L216.337 398.131L216 398.5ZM235 384.5L235.297 384.903L216.297 398.903L216 398.5L215.704 398.097L234.704 384.097L235 384.5ZM235 356.5H235.5V384.5H235H234.5V356.5H235ZM256 356.5V357H235V356.5V356H256V356.5ZM256 325.5H256.5V356.5H256H255.5V325.5H256ZM314 325.5V326H256V325.5V325H314V325.5ZM314 293.774H314.5V325.5H314H313.5V293.774H314ZM335.5 293.774V294.274H314V293.774V293.274H335.5V293.774ZM335.5 279.5H336V293.774H335.5H335V279.5H335.5ZM342 279.5V280H335.5V279.5V279H342V279.5ZM342 224H342.5V279.5H342H341.5V224H342ZM330 224V223.5H342V224V224.5H330V224ZM330 197H330.5V224H330H329.5V197H330ZM342 197V197.5H330V197V196.5H342V197ZM342 171.5H342.5V197H342H341.5V171.5H342ZM313.5 171.5V171H342V171.5V172H313.5V171.5ZM278 150L278.259 149.572L313.759 171.072L313.5 171.5L313.241 171.928L277.741 150.428L278 150ZM268.5 150V149.5H278V150V150.5H268.5V150ZM268.5 141.5H269V150H268.5H268V141.5H268.5ZM240 141.5V141H268.5V141.5V142H240V141.5ZM240 156H239.5V141.5H240H240.5V156H240ZM238 156V155.5H240V156V156.5H238V156ZM238 137H238.5V156H238H237.5V137H238ZM225.5 137V136.5H238V137V137.5H225.5V137ZM225.5 135.5H226V137H225.5H225V135.5H225.5ZM237.5 135.5V136H225.5V135.5V135H237.5V135.5ZM237.5 89H238V135.5H237.5H237V89H237.5ZM182.5 89V88.5H237.5V89V89.5H182.5V89ZM182.5 65.397H183V89H182.5H182V65.397H182.5ZM204.185 65.397V65.897H182.5V65.397V64.897H204.185V65.397ZM204.185 34.5H204.685V65.397H204.185H203.685V34.5H204.185ZM179 18.5L179.268 18.078L204.453 34.078L204.185 34.5L203.917 34.922L178.732 18.922L179 18.5ZM139 18.5V18H179V18.5V19H139V18.5ZM117.5 34.5L117.202 34.0989L138.702 18.0989L139 18.5L139.299 18.9011L117.799 34.9011L117.5 34.5ZM117.5 85.744H117V34.5H117.5H118V85.744H117.5ZM56.0002 85.744V85.244H117.5V85.744V86.244H56.0002V85.744ZM56.0002 102H55.5002V85.744H56.0002H56.5002V102H56.0002ZM65.0002 102V102.5H56.0002V102V101.5H65.0002V102ZM65.0002 119.5H64.5002V102H65.0002H65.5002V119.5H65.0002ZM63.0004 119.5V119H65.0002V119.5V120H63.0004V119.5ZM118.5 276.5H119V308H118.5H118V276.5H118.5ZM136.5 276.5V277H118.5V276.5V276H136.5V276.5ZM136.5 270H137V276.5H136.5H136V270H136.5ZM142.5 270V270.5H136.5V270V269.5H142.5V270ZM142.5 274H142V270H142.5H143V274H142.5ZM152 283.5L151.647 283.854L142.147 274.354L142.5 274L142.854 273.646L152.354 283.146L152 283.5ZM160.5 283.5V284H152V283.5V283H160.5V283.5ZM160.5 301.5H160V283.5H160.5H161V301.5H160.5ZM186 301.5V302H160.5V301.5V301H186V301.5ZM186 283.5H186.5V301.5H186H185.5V283.5H186ZM194 283.5V284H186V283.5V283H194V283.5ZM204 273.5L204.354 273.854L194.354 283.854L194 283.5L193.647 283.146L203.647 273.146L204 273.5ZM204 258H204.5V273.5H204H203.5V258H204ZM209 258V258.5H204V258V257.5H209V258ZM209 264.5H208.5V258H209H209.5V264.5H209ZM237 264.5V265H209V264.5V264H237V264.5ZM237 309.5H236.5V264.5H237H237.5V309.5H237ZM218 309.5V309H237V309.5V310H218V309.5ZM218 337H217.5V309.5H218H218.5V337H218ZM185.5 337V336.5H218V337V337.5H185.5V337ZM185.5 308H186V337H185.5H185V308H185.5ZM118.5 308V307.5H185.5V308V308.5H118.5V308ZM102 227.5V228H72.0002V227.5V227H102V227.5ZM102 235H101.5V227.5H102H102.5V235H102ZM112.5 235V235.5H102V235V234.5H112.5V235ZM112.5 236.5H112V235H112.5H113V236.5H112.5ZM96.0002 236.5V236H112.5V236.5V237H96.0002V236.5ZM96.0002 250H95.5002V236.5H96.0002H96.5002V250H96.0002ZM98.5002 250V250.5H96.0002V250V249.5H98.5002V250ZM98.5002 251.5H98.0002V250H98.5002H99.0002V251.5H98.5002ZM96.0002 251.5V251H98.5002V251.5V252H96.0002V251.5ZM96.0002 254.5H95.5002V251.5H96.0002H96.5002V254.5H96.0002ZM93.5002 254.5V254H96.0002V254.5V255H93.5002V254.5ZM93.5002 271H93.0002V254.5H93.5002H94.0002V271H93.5002ZM96.0002 271V271.5H93.5002V271V270.5H96.0002V271ZM96.0002 285.5H95.5002V271H96.0002H96.5002V285.5H96.0002ZM81.1114 285.5V285H96.0002V285.5V286H81.1114V285.5ZM81.1114 242.5H81.6114V285.5H81.1114H80.6114V242.5H81.1114ZM72.0002 242.5V242H81.1114V242.5V243H72.0002V242.5ZM72.0002 227.5H72.5002V242.5H72.0002H71.5002V227.5H72.0002ZM256 298.5H256.5V309.5H256H255.5V298.5H256ZM277 298.5V299H256V298.5V298H277V298.5ZM277 304H276.5V298.5H277H277.5V304H277ZM295.5 304V304.5H277V304V303.5H295.5V304ZM295.5 279.5H296V304H295.5H295V279.5H295.5ZM301.5 279.5V280H295.5V279.5V279H301.5V279.5ZM301.5 309.5H301V279.5H301.5H302V309.5H301.5ZM256 309.5V309H301.5V309.5V310H256V309.5ZM198 118.5H198.5V120H198H197.5V118.5H198ZM203 118.5V119H198V118.5V118H203V118.5ZM203 126.5H202.5V118.5H203H203.5V126.5H203ZM212.5 135.5L212.156 135.863L202.656 126.863L203 126.5L203.344 126.137L212.844 135.137L212.5 135.5ZM215.5 135.5V136H212.5V135.5V135H215.5V135.5ZM215.5 137H215V135.5H215.5H216V137H215.5ZM204 137V136.5H215.5V137V137.5H204V137ZM204 174H203.5V137H204H204.5V174H204ZM215 174V174.5H204V174V173.5H215V174ZM215 175.5H214.5V174H215H215.5V175.5H215ZM212.5 175.5V175H215V175.5V176H212.5V175.5ZM212.5 205.5H212V175.5H212.5H213V205.5H212.5ZM209.5 205.5V205H212.5V205.5V206H209.5V205.5ZM209.5 209H209V205.5H209.5H210V209H209.5ZM206.5 209V208.5H209.5V209V209.5H206.5V209ZM206.5 231H206V209H206.5H207V231H206.5ZM237.5 231V231.5H206.5V231V230.5H237.5V231ZM237.5 221.5H238V231H237.5H237V221.5H237.5ZM240.5 221.5V222H237.5V221.5V221H240.5V221.5ZM240.5 231H240V221.5H240.5H241V231H240.5ZM253 231V231.5H240.5V231V230.5H253V231ZM253 224.5H253.5V231H253H252.5V224.5H253ZM277 224.5V225H253V224.5V224H277V224.5ZM277 230H276.5V224.5H277H277.5V230H277ZM261.5 230V229.5H277V230V230.5H261.5V230ZM261.5 273.5H261V230H261.5H262V273.5H261.5ZM277 273.5V274H261.5V273.5V273H277V273.5ZM277 285.384H276.5V273.5H277H277.5V285.384H277ZM256.075 285.384V284.884H277V285.384V285.884H256.075V285.384ZM256.075 239.634H256.575V285.384H256.075H255.575V239.634H256.075ZM209 240L208.996 239.5L256.071 239.134L256.075 239.634L256.079 240.134L209.004 240.5L209 240ZM209 245.5H208.5V240H209H209.5V245.5H209ZM204 245.5V245H209V245.5V246H204V245.5ZM204 221.223H204.5V245.5H204H203.5V221.223H204ZM176.188 221.223V220.723H204V221.223V221.723H176.188V221.223ZM176.188 218.5H176.688V221.223H176.188H175.688V218.5H176.188ZM185.5 218.5V219H176.188V218.5V218H185.5V218.5ZM185.5 175.899H186V218.5H185.5H185V175.899H185.5ZM200.675 175.899V176.399H185.5V175.899V175.399H200.675V175.899ZM200.675 147.5H201.175V175.899H200.675H200.175V147.5H200.675ZM179.5 147.5V147H200.675V147.5V148H179.5V147.5ZM179.5 146H180V147.5H179.5H179V146H179.5ZM200.675 146V146.5H179.5V146V145.5H200.675V146ZM200.675 120H201.175V146H200.675H200.175V120H200.675ZM198 120V119.5H200.675V120V120.5H198V120ZM130.5 251.5V252H106V251.5V251H130.5V251.5ZM130.5 256H130V251.5H130.5H131V256H130.5ZM136.5 256V256.5H130.5V256V255.5H136.5V256ZM136.5 257.41H136V256H136.5H137V257.41H136.5ZM142 257.41V257.91H136.5V257.41V256.91H142V257.41ZM142 221.5H142.5V257.41H142H141.5V221.5H142ZM163 221.5V222H142V221.5V221H163V221.5ZM163 218.5H163.5V221.5H163H162.5V218.5H163ZM142 218.5V218H163V218.5V219H142V218.5ZM142 199.5H142.5V218.5H142H141.5V199.5H142ZM154 199.5V200H142V199.5V199H154V199.5ZM154 175.5H154.5V199.5H154H153.5V175.5H154ZM136.5 175.5V175H154V175.5V176H136.5V175.5ZM136.5 187.5H136V175.5H136.5H137V187.5H136.5ZM127.5 187.5V187H136.5V187.5V188H127.5V187.5ZM127.5 190H127V187.5H127.5H128V190H127.5ZM136.5 190V190.5H127.5V190V189.5H136.5V190ZM136.5 235H136V190H136.5H137V235H136.5ZM126 235V234.5H136.5V235V235.5H126V235ZM126 236.5H125.5V235H126H126.5V236.5H126ZM136.5 236.5V237H126V236.5V236H136.5V236.5ZM136.5 250H136V236.5H136.5H137V250H136.5ZM106 250V249.5H136.5V250V250.5H106V250ZM106 251.5H105.5V250H106H106.5V251.5H106ZM41.5002 142H42.0002V156.5H41.5002H41.0002V142H41.5002ZM57.0002 142V142.5H41.5002V142V141.5H57.0002V142ZM57.0002 135.5H57.5002V142H57.0002H56.5002V135.5H57.0002ZM63.0002 135.5V136H57.0002V135.5V135H63.0002V135.5ZM63.0002 132.5H63.5002V135.5H63.0002H62.5002V132.5H63.0002ZM65.0002 132.5V133H63.0002V132.5V132H65.0002V132.5ZM65.0002 142H64.5002V132.5H65.0002H65.5002V142H65.0002ZM94.0002 142V142.5H65.0002V142V141.5H94.0002V142ZM94.0002 108H94.5002V142H94.0002H93.5002V108H94.0002ZM117.5 108V108.5H94.0002V108V107.5H117.5V108ZM117.5 120.5H117V108H117.5H118V120.5H117.5ZM131 120.5V121H117.5V120.5V120H131V120.5ZM131 122.249H130.5V120.5H131H131.5V122.249H131ZM102 122.249V121.749H131V122.249V122.749H102V122.249ZM102 187.5H101.5V122.249H102H102.5V187.5H102ZM111 187.5V188H102V187.5V187H111V187.5ZM111 190H110.5V187.5H111H111.5V190H111ZM102 190V189.5H111V190V190.5H102V190ZM102 215.5H101.5V190H102H102.5V215.5H102ZM72.0002 215.5V215H102V215.5V216H72.0002V215.5ZM72.0002 205.5H72.5002V215.5H72.0002H71.5002V205.5H72.0002ZM41.5002 205.5V205H72.0002V205.5V206H41.5002V205.5ZM41.5002 179H42.0002V205.5H41.5002H41.0002V179H41.5002ZM57.0002 179V179.5H41.5002V179V178.5H57.0002V179ZM57.0002 156.5H57.5002V179H57.0002H56.5002V156.5H57.0002ZM41.5002 156.5V156H57.0002V156.5V157H41.5002V156.5ZM139.5 147.5H139V142H139.5H140V147.5H139.5ZM161 147.5V148H139.5V147.5V147H161V147.5ZM161 146H161.5V147.5H161H160.5V146H161ZM151 146V145.5H161V146V146.5H151V146ZM151 132H151.5V146H151H150.5V132H151ZM187.274 132.157L187.272 132.657L150.998 132.5L151 132L151.002 131.5L187.277 131.657L187.274 132.157ZM187.274 120.135H187.774V132.157H187.274H186.774V120.135H187.274ZM190.258 120.135V120.635H187.274V120.135V119.635H190.258V120.135ZM190.258 118.774H190.758V120.135H190.258H189.758V118.774H190.258ZM182 118.774V118.274H190.258V118.774V119.274H182V118.774ZM182 108.5H182.5V118.774H182H181.5V108.5H182ZM158.206 108.323L158.21 107.823L182.004 108L182 108.5L181.997 109L158.203 108.823L158.206 108.323ZM158.206 120.31H157.706V108.323H158.206H158.706V120.31H158.206ZM146 120.31V119.81H158.206V120.31V120.81H146V120.31ZM146 142H145.5V120.31H146H146.5V142H146ZM139.5 142V141.5H146V142V142.5H139.5V142ZM130 92.3213H129.5V65H130H130.5V92.3213H130ZM171 92.3213V92.8213H130V92.3213V91.8213H171V92.3213ZM171 65H171.5V92.3213H171H170.5V65H171ZM130 65V64.5H171V65V65.5H130V65ZM228.5 206H228V180H228.5H229V206H228.5ZM237.5 206V206.5H228.5V206V205.5H237.5V206ZM237.5 215H237V206H237.5H238V215H237.5ZM240 215V215.5H237.5V215V214.5H240V215ZM240 210H240.5V215H240H239.5V210H240ZM253 210V210.5H240V210V209.5H253V210ZM253 211.746H252.5V210H253H253.5V211.746H253ZM282.5 211.746V212.246H253V211.746V211.246H282.5V211.746ZM282.5 199.291H283V211.746H282.5H282V199.291H282.5ZM308 199.291V199.791H282.5V199.291V198.791H308V199.291ZM308 224H307.5V199.291H308H308.5V224H308ZM313.5 224V224.5H308V224V223.5H313.5V224ZM313.5 197H314V224H313.5H313V197H313.5ZM278 176L278.255 175.57L313.755 196.57L313.5 197L313.246 197.43L277.746 176.43L278 176ZM256 176V175.5H278V176V176.5H256V176ZM256 185H255.5V176H256H256.5V185H256ZM239.805 185V184.5H256V185V185.5H239.805V185ZM239.805 169.847H240.305V185H239.805H239.305V169.847H239.805ZM237.833 169.847V169.347H239.805V169.847V170.347H237.833V169.847ZM237.833 174H237.333V169.847H237.833H238.333V174H237.833ZM224.5 174V173.5H237.833V174V174.5H224.5V174ZM224.5 176H224V174H224.5H225V176H224.5ZM228.5 180L228.147 180.354L224.147 176.354L224.5 176L224.854 175.646L228.854 179.646L228.5 180Z" fill="#B27C40"/>
<circle cx="1" cy="1" r="1.5" transform="matrix(1 0 0 -1 124.5 120)" stroke="#B27C40"/>
<path d="M161.5 147.5H179M179 146H161.5M161 147.5V154H179.5V147.5M158.713 147.5V156.5H182.23V147.5M160.5 298H186M81 254.5H75M75 254.5V242.5M75 254.5V261H81M8.5 242.5H19.5V261H4M1 261H4M4 261V266.5H1M41.5 179V163H47.5M111.5 188.5L118 191M127.5 189L120.5 186.5M112.5 236.5H126.5M111 235V229H127.5V235M231 135.5V96H206.5V89M203.5 89V99H228V135.5M268.5 150H265V147.5M265 141.5V147.5M265 147.5H263.5V141.5M335.5 279.5V275M342 273.5H335.5V275M342 275H335.5M318 279.5H327.5M109 160H111.5V157H108.5M112.5 235H126V231H112.5V235Z" stroke="#B27C40" stroke-width="0.5"/>
<path d="M237 277.5H240M237 272H243V277.5H240M240 277.5V280.5H237M290.5 304V299H295.5M277 230H282V225.5H277M308 219H301.5V230.5H313.5V224.5M301.5 279.5H318.5M327 279.5H335.5M308.5 168.5L305.5 174L310.5 177L314.5 171.5M136.5 210H130V205H136.5M102 163H108.5V157H102M292.5 255L316 261.5L318 254.5L294.5 248L292.5 255Z" stroke="#B27C40"/>
<path d="M182.5 89V95H188V89M231.5 137V143H238M204 156.5H212.5V151H204M206.5 224.5H212.5V231M197 221V227H200.5M204 227H200.5M200.5 227V230.5H204M148 221V248.5H142M62.5 248.5V255H38V248.5H57M62.5 248.5V243H57V248.5M62.5 248.5H57M29 286V280H35V286M62 294.5H69V301.5M47.5 205.5V212H53V205.5M51 142L57 136M65 135.5H71.5V138.75M71.5 142V138.75M71.5 138.75H75V142M94 108V102.5H99V108M117.5 114H124V120.5M146 138.5H133V147.5H139.5M158 261V246H167V240H179V246H188V261H158ZM167 282.5V284H179V282.5H167Z" stroke="#B27C40"/>
<path d="M133 142H139.5M185.5 181H179.5V175.89H185.5" stroke="#B27C40"/>
<circle cx="1.5" cy="1.5" r="2" transform="matrix(1 0 0 -1 132.5 194)" stroke="#B27C40"/>
<path d="M329 279.5V293.5M306 279.5V307H314" stroke="#B27C40" stroke-opacity="0.23" stroke-width="0.5"/>
<path d="M28.5005 279H35.5005V285.5H61.5005V255.5H37.5005V248H56.5005V242.5H1.24072V242.691H19.4995V261H4.24365V266.764H1.24072V285.5H28.5005V279Z" fill="#F08234" fill-opacity="0.23"/>
<path d="M34.1367 265.699H32.6758C32.6341 265.46 32.5573 265.247 32.4453 265.062C32.3333 264.875 32.194 264.716 32.0273 264.586C31.8607 264.456 31.6706 264.358 31.457 264.293C31.2461 264.225 31.0182 264.191 30.7734 264.191C30.3385 264.191 29.9531 264.301 29.6172 264.52C29.2813 264.736 29.0182 265.053 28.8281 265.473C28.638 265.889 28.543 266.398 28.543 267C28.543 267.612 28.638 268.128 28.8281 268.547C29.0208 268.964 29.2839 269.279 29.6172 269.492C29.9531 269.703 30.3372 269.809 30.7695 269.809C31.0091 269.809 31.2331 269.777 31.4414 269.715C31.6523 269.65 31.8411 269.555 32.0078 269.43C32.1771 269.305 32.319 269.151 32.4336 268.969C32.5508 268.786 32.6315 268.578 32.6758 268.344L34.1367 268.352C34.082 268.732 33.9635 269.089 33.7812 269.422C33.6016 269.755 33.3659 270.049 33.0742 270.305C32.7826 270.557 32.4414 270.755 32.0508 270.898C31.6602 271.039 31.2266 271.109 30.75 271.109C30.0469 271.109 29.4193 270.947 28.8672 270.621C28.3151 270.296 27.8802 269.826 27.5625 269.211C27.2448 268.596 27.0859 267.859 27.0859 267C27.0859 266.138 27.2461 265.401 27.5664 264.789C27.8867 264.174 28.3229 263.704 28.875 263.379C29.4271 263.053 30.0521 262.891 30.75 262.891C31.1953 262.891 31.6094 262.953 31.9922 263.078C32.375 263.203 32.7161 263.387 33.0156 263.629C33.3151 263.868 33.5612 264.163 33.7539 264.512C33.9492 264.858 34.0768 265.254 34.1367 265.699Z" fill="white"/>
<path d="M194.5 233H151.5V271H194.5V233ZM157.5 246H167.5V240H178.5V246H187.5V261H157.5V246Z" fill="#F08234" fill-opacity="0.23"/>
<path d="M170.289 256V248H173.352C173.93 248 174.41 248.091 174.793 248.273C175.178 248.453 175.466 248.699 175.656 249.012C175.849 249.324 175.945 249.678 175.945 250.074C175.945 250.4 175.883 250.678 175.758 250.91C175.633 251.139 175.465 251.326 175.254 251.469C175.043 251.612 174.807 251.715 174.547 251.777V251.855C174.831 251.871 175.103 251.958 175.363 252.117C175.626 252.273 175.841 252.495 176.008 252.781C176.174 253.068 176.258 253.414 176.258 253.82C176.258 254.234 176.158 254.607 175.957 254.937C175.757 255.266 175.454 255.525 175.051 255.715C174.647 255.905 174.139 256 173.527 256H170.289ZM171.738 254.789H173.297C173.823 254.789 174.202 254.689 174.434 254.488C174.668 254.285 174.785 254.025 174.785 253.707C174.785 253.47 174.727 253.257 174.609 253.066C174.492 252.874 174.326 252.723 174.109 252.613C173.893 252.501 173.635 252.445 173.336 252.445H171.738V254.789ZM171.738 251.402H173.172C173.422 251.402 173.647 251.357 173.848 251.266C174.048 251.172 174.206 251.04 174.32 250.871C174.438 250.699 174.496 250.496 174.496 250.262C174.496 249.952 174.387 249.697 174.168 249.496C173.952 249.296 173.63 249.195 173.203 249.195H171.738V251.402Z" fill="white"/>
<path d="M335.268 273.259H341.501V279H341.528L341.506 241.75H297.006L297.01 248.747L297.152 248.236L318.505 254.185L316.316 262.04L297.015 256.664L297.028 279H335.268V273.259Z" fill="#F08234" fill-opacity="0.23"/>
<path d="M324.317 269H322.77L325.586 261H327.375L330.196 269H328.649L326.512 262.641H326.45L324.317 269ZM324.368 265.863H328.586V267.027H324.368V265.863Z" fill="white"/>
</svg>
