<svg width="395" height="474" viewBox="0 0 395 474" fill="none" xmlns="http://www.w3.org/2000/svg">
<path d="M373.565 337.625H378.74V334.75H361.49V350.275H373.565V337.625Z" fill="#271406" fill-opacity="0.9" stroke="#B27C40" stroke-opacity="0.23" stroke-width="0.5"/>
<path fill-rule="evenodd" clip-rule="evenodd" d="M72.8401 134.65V120.85H15.3401V161.405H17.3445V171.218H31.4401V198.818H28.5651V233.241H9.91409V275.875H1.23535V326.125H71.69V343.95H121.14V371.55H174.04V408.35H190.14V407.2H216.015V425.6L248.79 455.5L270.64 439.4V407.2H294.79V371.55H361.49V335.065H386.215V318.65H393.69V254.825H379.89V223.775H393.69V194.45H360.915L320.09 169.725H309.165V159.95H276.39V176.625H274.09V154.775H259.715V153.05H273.515V99.575H210.265V72.4315H235.203V36.9L206.24 18.5H160.24L135.515 36.9V95.8307H64.79V114.525H75.14V134.65H72.8401ZM136.665 351.425V315.2H157.365V307.725H164.265V312.325L175.19 323.25H184.965V343.95H214.29V323.25H223.49L234.99 311.75V293.925H240.74V301.4H272.94V353.15H251.09V384.775H213.715V351.425H136.665ZM83.19 258.85H117.69V267.475H129.765V269.2H110.79V284.725H113.665V286.45H110.79V289.9H107.915V308.875H110.79V325.55H93.6678V276.1H83.19V258.85ZM294.79 353.15V340.5H318.94V346.825H340.215V318.65H347.115V353.15H294.79ZM228.09 135.225V133.5H233.84V142.7L244.765 153.05H248.215V154.775H234.99V197.325H247.64V199.05H244.765V233.55H241.315V237.575H237.865V262.875H273.515V251.95H276.965V262.875H291.34V255.4H318.94V261.725H301.115V311.75H318.94V325.417H294.876V272.804L240.74 273.225V279.55H234.99V251.631H203.006V248.5H213.715V199.509H231.166V166.85H206.815V165.125H231.166V135.225H228.09ZM122.29 286.45H150.465V291.625H157.365V293.247H163.69V251.95H187.84V248.5H163.69V226.65H177.49V199.05H157.365V212.85H147.015V215.725H157.365V267.475H145.29V269.2H157.365V284.725H122.29V286.45ZM48.115 177.2V160.525H65.94V153.05H72.84V149.6H75.14V160.525H108.49V121.425H135.515V135.8H151.04V137.812H117.69V212.85H128.04V215.725H117.69V245.05H83.19V233.55H48.115V203.075H65.94V177.2H48.115ZM160.815 160.525V166.85H185.54V165.125H174.04V149.025L215.755 149.205V135.381H219.186V133.816H209.69V122L182.327 121.797V135.581H168.29V160.525H160.815ZM149.89 71.975V103.394H197.04V71.975H149.89ZM263.165 204.225V234.125H273.515V244.475H276.39V238.725H291.34V240.733H325.265V226.41H354.59V254.825H360.915V223.775L320.09 199.625H294.79V209.975H276.166V192.549H273.897V197.325H258.565V199.625L263.165 204.225Z" fill="#271406"/>
<path d="M72.8401 120.85V120.35H73.3401V120.85H72.8401ZM72.8401 134.65V135.15H72.3401V134.65H72.8401ZM15.3401 120.85H14.8401V120.35H15.3401V120.85ZM15.3401 161.405V161.905H14.8401V161.405H15.3401ZM17.3445 161.405V160.905H17.8445V161.405H17.3445ZM17.3445 171.218V171.718H16.8445V171.218H17.3445ZM31.4401 171.218V170.718H31.9401V171.218H31.4401ZM31.4401 198.818H31.9401V199.318H31.4401V198.818ZM28.5651 198.818H28.0651V198.318H28.5651V198.818ZM28.5651 233.241H29.0651V233.741H28.5651V233.241ZM9.91409 233.241H9.41409V232.741H9.91409V233.241ZM9.91409 275.875H10.4141V276.375H9.91409V275.875ZM1.23535 275.875H0.735352V275.375H1.23535V275.875ZM1.23535 326.125V326.625H0.735352V326.125H1.23535ZM71.69 326.125V325.625H72.19V326.125H71.69ZM71.69 343.95V344.45H71.19V343.95H71.69ZM121.14 343.95V343.45H121.64V343.95H121.14ZM121.14 371.55V372.05H120.64V371.55H121.14ZM174.04 371.55V371.05H174.54V371.55H174.04ZM174.04 408.35V408.85H173.54V408.35H174.04ZM190.14 408.35H190.64V408.85H190.14V408.35ZM190.14 407.2H189.64V406.7H190.14V407.2ZM216.015 407.2V406.7H216.515V407.2H216.015ZM216.015 425.6L215.678 425.969L215.515 425.821V425.6H216.015ZM248.79 455.5L249.087 455.903L248.756 456.146L248.453 455.869L248.79 455.5ZM270.64 439.4H271.14V439.653L270.937 439.803L270.64 439.4ZM270.64 407.2H270.14V406.7H270.64V407.2ZM294.79 407.2H295.29V407.7H294.79V407.2ZM294.79 371.55H294.29V371.05H294.79V371.55ZM361.49 371.55H361.99V372.05H361.49V371.55ZM361.49 335.065H360.99V334.565H361.49V335.065ZM386.215 335.065H386.715V335.565H386.215V335.065ZM386.215 318.65H385.715V318.15H386.215V318.65ZM393.69 318.65H394.19V319.15H393.69V318.65ZM393.69 254.825V254.325H394.19V254.825H393.69ZM379.89 254.825V255.325H379.39V254.825H379.89ZM379.89 223.775H379.39V223.275H379.89V223.775ZM393.69 223.775H394.19V224.275H393.69V223.775ZM393.69 194.45V193.95H394.19V194.45H393.69ZM360.915 194.45V194.95H360.775L360.656 194.878L360.915 194.45ZM320.09 169.725V169.225H320.23L320.349 169.297L320.09 169.725ZM309.165 169.725V170.225H308.665V169.725H309.165ZM309.165 159.95V159.45H309.665V159.95H309.165ZM276.39 159.95H275.89V159.45H276.39V159.95ZM276.39 176.625H276.89V177.125H276.39V176.625ZM274.09 176.625V177.125H273.59V176.625H274.09ZM274.09 154.775V154.275H274.59V154.775H274.09ZM259.715 154.775V155.275H259.215V154.775H259.715ZM259.715 153.05H259.215V152.55H259.715V153.05ZM273.515 153.05H274.015V153.55H273.515V153.05ZM273.515 99.575V99.075H274.015V99.575H273.515ZM210.265 99.575V100.075H209.765V99.575H210.265ZM210.265 72.4315H209.765V71.9315H210.265V72.4315ZM235.203 72.4315H235.703V72.9315H235.203V72.4315ZM235.203 36.9L235.471 36.478L235.703 36.6253V36.9H235.203ZM206.24 18.5V18H206.385L206.508 18.078L206.24 18.5ZM160.24 18.5L159.941 18.0989L160.074 18H160.24V18.5ZM135.515 36.9H135.015V36.6488L135.216 36.4989L135.515 36.9ZM135.515 95.8307H136.015V96.3307H135.515V95.8307ZM64.79 95.8307H64.29V95.3307H64.79V95.8307ZM64.79 114.525V115.025H64.29V114.525H64.79ZM75.14 114.525V114.025H75.64V114.525H75.14ZM75.14 134.65H75.64V135.15H75.14V134.65ZM136.665 315.2H136.165V314.7H136.665V315.2ZM136.665 351.425V351.925H136.165V351.425H136.665ZM157.365 315.2H157.865V315.7H157.365V315.2ZM157.365 307.725H156.865V307.225H157.365V307.725ZM164.265 307.725V307.225H164.765V307.725H164.265ZM164.265 312.325L163.911 312.679L163.765 312.532V312.325H164.265ZM175.19 323.25V323.75H174.983L174.836 323.604L175.19 323.25ZM184.965 323.25V322.75H185.465V323.25H184.965ZM184.965 343.95V344.45H184.465V343.95H184.965ZM214.29 343.95H214.79V344.45H214.29V343.95ZM214.29 323.25H213.79V322.75H214.29V323.25ZM223.49 323.25L223.844 323.604L223.697 323.75H223.49V323.25ZM234.99 311.75H235.49V311.957L235.344 312.104L234.99 311.75ZM234.99 293.925H234.49V293.425H234.99V293.925ZM240.74 293.925V293.425H241.24V293.925H240.74ZM240.74 301.4V301.9H240.24V301.4H240.74ZM272.94 301.4V300.9H273.44V301.4H272.94ZM272.94 353.15H273.44V353.65H272.94V353.15ZM251.09 353.15H250.59V352.65H251.09V353.15ZM251.09 384.775H251.59V385.275H251.09V384.775ZM213.715 384.775V385.275H213.215V384.775H213.715ZM213.715 351.425V350.925H214.215V351.425H213.715ZM117.69 258.85V258.35H118.19V258.85H117.69ZM83.19 258.85H82.69V258.35H83.19V258.85ZM117.69 267.475V267.975H117.19V267.475H117.69ZM129.765 267.475V266.975H130.265V267.475H129.765ZM129.765 269.2H130.265V269.7H129.765V269.2ZM110.79 269.2H110.29V268.7H110.79V269.2ZM110.79 284.725V285.225H110.29V284.725H110.79ZM113.665 284.725V284.225H114.165V284.725H113.665ZM113.665 286.45H114.165V286.95H113.665V286.45ZM110.79 286.45H110.29V285.95H110.79V286.45ZM110.79 289.9H111.29V290.4H110.79V289.9ZM107.915 289.9H107.415V289.4H107.915V289.9ZM107.915 308.875V309.375H107.415V308.875H107.915ZM110.79 308.875V308.375H111.29V308.875H110.79ZM110.79 325.55H111.29V326.05H110.79V325.55ZM93.6678 325.55V326.05H93.1678V325.55H93.6678ZM93.6678 276.1V275.6H94.1678V276.1H93.6678ZM83.19 276.1V276.6H82.69V276.1H83.19ZM294.79 340.5H294.29V340H294.79V340.5ZM294.79 353.15V353.65H294.29V353.15H294.79ZM318.94 340.5V340H319.44V340.5H318.94ZM318.94 346.825V347.325H318.44V346.825H318.94ZM340.215 346.825H340.715V347.325H340.215V346.825ZM340.215 318.65H339.715V318.15H340.215V318.65ZM347.115 318.65V318.15H347.615V318.65H347.115ZM347.115 353.15H347.615V353.65H347.115V353.15ZM228.09 133.5H227.59V133H228.09V133.5ZM228.09 135.225V135.725H227.59V135.225H228.09ZM233.84 133.5V133H234.34V133.5H233.84ZM233.84 142.7L233.496 143.063L233.34 142.915V142.7H233.84ZM244.765 153.05V153.55H244.566L244.421 153.413L244.765 153.05ZM248.215 153.05V152.55H248.715V153.05H248.215ZM248.215 154.775H248.715V155.275H248.215V154.775ZM234.99 154.775H234.49V154.275H234.99V154.775ZM234.99 197.325V197.825H234.49V197.325H234.99ZM247.64 197.325V196.825H248.14V197.325H247.64ZM247.64 199.05H248.14V199.55H247.64V199.05ZM244.765 199.05H244.265V198.55H244.765V199.05ZM244.765 233.55H245.265V234.05H244.765V233.55ZM241.315 233.55H240.815V233.05H241.315V233.55ZM241.315 237.575H241.815V238.075H241.315V237.575ZM237.865 237.575H237.365V237.075H237.865V237.575ZM237.865 262.875V263.375H237.365V262.875H237.865ZM273.515 262.875H274.015V263.375H273.515V262.875ZM273.515 251.95H273.015V251.45H273.515V251.95ZM276.965 251.95V251.45H277.465V251.95H276.965ZM276.965 262.875V263.375H276.465V262.875H276.965ZM291.34 262.875H291.84V263.375H291.34V262.875ZM291.34 255.4H290.84V254.9H291.34V255.4ZM318.94 255.4V254.9H319.44V255.4H318.94ZM318.94 261.725H319.44V262.225H318.94V261.725ZM301.115 261.725H300.615V261.225H301.115V261.725ZM301.115 311.75V312.25H300.615V311.75H301.115ZM318.94 311.75V311.25H319.44V311.75H318.94ZM318.94 325.417H319.44V325.917H318.94V325.417ZM294.876 325.417V325.917H294.376V325.417H294.876ZM294.876 272.804L294.872 272.304L295.376 272.3V272.804H294.876ZM240.74 273.225H240.24V272.729L240.736 272.725L240.74 273.225ZM240.74 279.55H241.24V280.05H240.74V279.55ZM234.99 279.55V280.05H234.49V279.55H234.99ZM234.99 251.631V251.131H235.49V251.631H234.99ZM203.006 251.631V252.131H202.506V251.631H203.006ZM203.006 248.5H202.506V248H203.006V248.5ZM213.715 248.5H214.215V249H213.715V248.5ZM213.715 199.509H213.215V199.009H213.715V199.509ZM231.166 199.509H231.666V200.009H231.166V199.509ZM231.166 166.85V166.35H231.666V166.85H231.166ZM206.815 166.85V167.35H206.315V166.85H206.815ZM206.815 165.125H206.315V164.625H206.815V165.125ZM231.166 165.125H231.666V165.625H231.166V165.125ZM231.166 135.225V134.725H231.666V135.225H231.166ZM150.465 286.45V285.95H150.965V286.45H150.465ZM122.29 286.45V286.95H121.79V286.45H122.29ZM150.465 291.625V292.125H149.965V291.625H150.465ZM157.365 291.625V291.125H157.865V291.625H157.365ZM157.365 293.247V293.747H156.865V293.247H157.365ZM163.69 293.247H164.19V293.747H163.69V293.247ZM163.69 251.95H163.19V251.45H163.69V251.95ZM187.84 251.95H188.34V252.45H187.84V251.95ZM187.84 248.5V248H188.34V248.5H187.84ZM163.69 248.5V249H163.19V248.5H163.69ZM163.69 226.65H163.19V226.15H163.69V226.65ZM177.49 226.65H177.99V227.15H177.49V226.65ZM177.49 199.05V198.55H177.99V199.05H177.49ZM157.365 199.05H156.865V198.55H157.365V199.05ZM157.365 212.85H157.865V213.35H157.365V212.85ZM147.015 212.85H146.515V212.35H147.015V212.85ZM147.015 215.725V216.225H146.515V215.725H147.015ZM157.365 215.725V215.225H157.865V215.725H157.365ZM157.365 267.475H157.865V267.975H157.365V267.475ZM145.29 267.475H144.79V266.975H145.29V267.475ZM145.29 269.2V269.7H144.79V269.2H145.29ZM157.365 269.2V268.7H157.865V269.2H157.365ZM157.365 284.725H157.865V285.225H157.365V284.725ZM122.29 284.725H121.79V284.225H122.29V284.725ZM48.115 160.525H47.615V160.025H48.115V160.525ZM48.115 177.2V177.7H47.615V177.2H48.115ZM65.94 160.525H66.44V161.025H65.94V160.525ZM65.94 153.05H65.44V152.55H65.94V153.05ZM72.84 153.05H73.34V153.55H72.84V153.05ZM72.84 149.6H72.34V149.1H72.84V149.6ZM75.14 149.6V149.1H75.64V149.6H75.14ZM75.14 160.525V161.025H74.64V160.525H75.14ZM108.49 160.525H108.99V161.025H108.49V160.525ZM108.49 121.425H107.99V120.925H108.49V121.425ZM135.515 121.425V120.925H136.015V121.425H135.515ZM135.515 135.8V136.3H135.015V135.8H135.515ZM151.04 135.8V135.3H151.54V135.8H151.04ZM151.04 137.812H151.54V138.312H151.04V137.812ZM117.69 137.812H117.19V137.312H117.69V137.812ZM117.69 212.85V213.35H117.19V212.85H117.69ZM128.04 212.85V212.35H128.54V212.85H128.04ZM128.04 215.725H128.54V216.225H128.04V215.725ZM117.69 215.725H117.19V215.225H117.69V215.725ZM117.69 245.05H118.19V245.55H117.69V245.05ZM83.19 245.05V245.55H82.69V245.05H83.19ZM83.19 233.55V233.05H83.69V233.55H83.19ZM48.115 233.55V234.05H47.615V233.55H48.115ZM48.115 203.075H47.615V202.575H48.115V203.075ZM65.94 203.075H66.44V203.575H65.94V203.075ZM65.94 177.2V176.7H66.44V177.2H65.94ZM160.815 166.85V167.35H160.315V166.85H160.815ZM160.815 160.525H160.315V160.025H160.815V160.525ZM185.54 166.85H186.04V167.35H185.54V166.85ZM185.54 165.125V164.625H186.04V165.125H185.54ZM174.04 165.125V165.625H173.54V165.125H174.04ZM174.04 149.025H173.54V148.523L174.042 148.525L174.04 149.025ZM215.755 149.205H216.255V149.708L215.753 149.705L215.755 149.205ZM215.755 135.381H215.255V134.881H215.755V135.381ZM219.186 135.381H219.686V135.881H219.186V135.381ZM219.186 133.816V133.316H219.686V133.816H219.186ZM209.69 133.816V134.316H209.19V133.816H209.69ZM209.69 122L209.694 121.5L210.19 121.504V122H209.69ZM182.327 121.797H181.827V121.293L182.331 121.297L182.327 121.797ZM182.327 135.581H182.827V136.081H182.327V135.581ZM168.29 135.581H167.79V135.081H168.29V135.581ZM168.29 160.525H168.79V161.025H168.29V160.525ZM149.89 103.394V103.894H149.39V103.394H149.89ZM149.89 71.975H149.39V71.475H149.89V71.975ZM197.04 103.394H197.54V103.894H197.04V103.394ZM197.04 71.975V71.475H197.54V71.975H197.04ZM263.165 234.125V234.625H262.665V234.125H263.165ZM263.165 204.225L263.519 203.871L263.665 204.018V204.225H263.165ZM273.515 234.125V233.625H274.015V234.125H273.515ZM273.515 244.475V244.975H273.015V244.475H273.515ZM276.39 244.475H276.89V244.975H276.39V244.475ZM276.39 238.725H275.89V238.225H276.39V238.725ZM291.34 238.725V238.225H291.84V238.725H291.34ZM291.34 240.733V241.233H290.84V240.733H291.34ZM325.265 240.733H325.765V241.233H325.265V240.733ZM325.265 226.41H324.765V225.91H325.265V226.41ZM354.59 226.41V225.91H355.09V226.41H354.59ZM354.59 254.825V255.325H354.09V254.825H354.59ZM360.915 254.825H361.415V255.325H360.915V254.825ZM360.915 223.775L361.17 223.345L361.415 223.49V223.775H360.915ZM320.09 199.625V199.125H320.227L320.345 199.195L320.09 199.625ZM294.79 199.625H294.29V199.125H294.79V199.625ZM294.79 209.975H295.29V210.475H294.79V209.975ZM276.166 209.975V210.475H275.666V209.975H276.166ZM276.166 192.549V192.049H276.666V192.549H276.166ZM273.897 192.549H273.397V192.049H273.897V192.549ZM273.897 197.325H274.397V197.825H273.897V197.325ZM258.565 197.325H258.065V196.825H258.565V197.325ZM258.565 199.625L258.211 199.979L258.065 199.832V199.625H258.565ZM72.8401 120.85H73.3401V134.65H72.8401H72.3401V120.85H72.8401ZM15.3401 120.85V120.35H72.8401V120.85V121.35H15.3401V120.85ZM15.3401 161.405H14.8401V120.85H15.3401H15.8401V161.405H15.3401ZM17.3445 161.405V161.905H15.3401V161.405V160.905H17.3445V161.405ZM17.3445 171.218H16.8445V161.405H17.3445H17.8445V171.218H17.3445ZM31.4401 171.218V171.718H17.3445V171.218V170.718H31.4401V171.218ZM31.4401 198.818H30.9401V171.218H31.4401H31.9401V198.818H31.4401ZM28.5651 198.818V198.318H31.4401V198.818V199.318H28.5651V198.818ZM28.5651 233.241H28.0651V198.818H28.5651H29.0651V233.241H28.5651ZM9.91409 233.241V232.741H28.5651V233.241V233.741H9.91409V233.241ZM9.91409 275.875H9.41409V233.241H9.91409H10.4141V275.875H9.91409ZM1.23535 275.875V275.375H9.91409V275.875V276.375H1.23535V275.875ZM1.23535 326.125H0.735352V275.875H1.23535H1.73535V326.125H1.23535ZM71.69 326.125V326.625H1.23535V326.125V325.625H71.69V326.125ZM71.69 343.95H71.19V326.125H71.69H72.19V343.95H71.69ZM121.14 343.95V344.45H71.69V343.95V343.45H121.14V343.95ZM121.14 371.55H120.64V343.95H121.14H121.64V371.55H121.14ZM174.04 371.55V372.05H121.14V371.55V371.05H174.04V371.55ZM174.04 408.35H173.54V371.55H174.04H174.54V408.35H174.04ZM190.14 408.35V408.85H174.04V408.35V407.85H190.14V408.35ZM190.14 407.2H190.64V408.35H190.14H189.64V407.2H190.14ZM216.015 407.2V407.7H190.14V407.2V406.7H216.015V407.2ZM216.015 425.6H215.515V407.2H216.015H216.515V425.6H216.015ZM248.79 455.5L248.453 455.869L215.678 425.969L216.015 425.6L216.352 425.231L249.127 455.131L248.79 455.5ZM270.64 439.4L270.937 439.803L249.087 455.903L248.79 455.5L248.493 455.097L270.343 438.997L270.64 439.4ZM270.64 407.2H271.14V439.4H270.64H270.14V407.2H270.64ZM294.79 407.2V407.7H270.64V407.2V406.7H294.79V407.2ZM294.79 371.55H295.29V407.2H294.79H294.29V371.55H294.79ZM361.49 371.55V372.05H294.79V371.55V371.05H361.49V371.55ZM361.49 335.065H361.99V371.55H361.49H360.99V335.065H361.49ZM386.215 335.065V335.565H361.49V335.065V334.565H386.215V335.065ZM386.215 318.65H386.715V335.065H386.215H385.715V318.65H386.215ZM393.69 318.65V319.15H386.215V318.65V318.15H393.69V318.65ZM393.69 254.825H394.19V318.65H393.69H393.19V254.825H393.69ZM379.89 254.825V254.325H393.69V254.825V255.325H379.89V254.825ZM379.89 223.775H380.39V254.825H379.89H379.39V223.775H379.89ZM393.69 223.775V224.275H379.89V223.775V223.275H393.69V223.775ZM393.69 194.45H394.19V223.775H393.69H393.19V194.45H393.69ZM360.915 194.45V193.95H393.69V194.45V194.95H360.915V194.45ZM320.09 169.725L320.349 169.297L361.174 194.022L360.915 194.45L360.656 194.878L319.831 170.153L320.09 169.725ZM309.165 169.725V169.225H320.09V169.725V170.225H309.165V169.725ZM309.165 159.95H309.665V169.725H309.165H308.665V159.95H309.165ZM276.39 159.95V159.45H309.165V159.95V160.45H276.39V159.95ZM276.39 176.625H275.89V159.95H276.39H276.89V176.625H276.39ZM274.09 176.625V176.125H276.39V176.625V177.125H274.09V176.625ZM274.09 154.775H274.59V176.625H274.09H273.59V154.775H274.09ZM259.715 154.775V154.275H274.09V154.775V155.275H259.715V154.775ZM259.715 153.05H260.215V154.775H259.715H259.215V153.05H259.715ZM273.515 153.05V153.55H259.715V153.05V152.55H273.515V153.05ZM273.515 99.575H274.015V153.05H273.515H273.015V99.575H273.515ZM210.265 99.575V99.075H273.515V99.575V100.075H210.265V99.575ZM210.265 72.4315H210.765V99.575H210.265H209.765V72.4315H210.265ZM235.203 72.4315V72.9315H210.265V72.4315V71.9315H235.203V72.4315ZM235.203 36.9H235.703V72.4315H235.203H234.703V36.9H235.203ZM206.24 18.5L206.508 18.078L235.471 36.478L235.203 36.9L234.934 37.322L205.972 18.922L206.24 18.5ZM160.24 18.5V18H206.24V18.5V19H160.24V18.5ZM135.515 36.9L135.216 36.4989L159.941 18.0989L160.24 18.5L160.538 18.9011L135.813 37.3011L135.515 36.9ZM135.515 95.8307H135.015V36.9H135.515H136.015V95.8307H135.515ZM64.79 95.8307V95.3307H135.515V95.8307V96.3307H64.79V95.8307ZM64.79 114.525H64.29V95.8307H64.79H65.29V114.525H64.79ZM75.14 114.525V115.025H64.79V114.525V114.025H75.14V114.525ZM75.14 134.65H74.64V114.525H75.14H75.64V134.65H75.14ZM72.8401 134.65V134.15H75.14V134.65V135.15H72.8401V134.65ZM136.665 315.2H137.165V351.425H136.665H136.165V315.2H136.665ZM157.365 315.2V315.7H136.665V315.2V314.7H157.365V315.2ZM157.365 307.725H157.865V315.2H157.365H156.865V307.725H157.365ZM164.265 307.725V308.225H157.365V307.725V307.225H164.265V307.725ZM164.265 312.325H163.765V307.725H164.265H164.765V312.325H164.265ZM175.19 323.25L174.836 323.604L163.911 312.679L164.265 312.325L164.619 311.971L175.544 322.896L175.19 323.25ZM184.965 323.25V323.75H175.19V323.25V322.75H184.965V323.25ZM184.965 343.95H184.465V323.25H184.965H185.465V343.95H184.965ZM214.29 343.95V344.45H184.965V343.95V343.45H214.29V343.95ZM214.29 323.25H214.79V343.95H214.29H213.79V323.25H214.29ZM223.49 323.25V323.75H214.29V323.25V322.75H223.49V323.25ZM234.99 311.75L235.344 312.104L223.844 323.604L223.49 323.25L223.136 322.896L234.636 311.396L234.99 311.75ZM234.99 293.925H235.49V311.75H234.99H234.49V293.925H234.99ZM240.74 293.925V294.425H234.99V293.925V293.425H240.74V293.925ZM240.74 301.4H240.24V293.925H240.74H241.24V301.4H240.74ZM272.94 301.4V301.9H240.74V301.4V300.9H272.94V301.4ZM272.94 353.15H272.44V301.4H272.94H273.44V353.15H272.94ZM251.09 353.15V352.65H272.94V353.15V353.65H251.09V353.15ZM251.09 384.775H250.59V353.15H251.09H251.59V384.775H251.09ZM213.715 384.775V384.275H251.09V384.775V385.275H213.715V384.775ZM213.715 351.425H214.215V384.775H213.715H213.215V351.425H213.715ZM136.665 351.425V350.925H213.715V351.425V351.925H136.665V351.425ZM117.69 258.85V259.35H83.19V258.85V258.35H117.69V258.85ZM117.69 267.475H117.19V258.85H117.69H118.19V267.475H117.69ZM129.765 267.475V267.975H117.69V267.475V266.975H129.765V267.475ZM129.765 269.2H129.265V267.475H129.765H130.265V269.2H129.765ZM110.79 269.2V268.7H129.765V269.2V269.7H110.79V269.2ZM110.79 284.725H110.29V269.2H110.79H111.29V284.725H110.79ZM113.665 284.725V285.225H110.79V284.725V284.225H113.665V284.725ZM113.665 286.45H113.165V284.725H113.665H114.165V286.45H113.665ZM110.79 286.45V285.95H113.665V286.45V286.95H110.79V286.45ZM110.79 289.9H110.29V286.45H110.79H111.29V289.9H110.79ZM107.915 289.9V289.4H110.79V289.9V290.4H107.915V289.9ZM107.915 308.875H107.415V289.9H107.915H108.415V308.875H107.915ZM110.79 308.875V309.375H107.915V308.875V308.375H110.79V308.875ZM110.79 325.55H110.29V308.875H110.79H111.29V325.55H110.79ZM93.6678 325.55V325.05H110.79V325.55V326.05H93.6678V325.55ZM93.6678 276.1H94.1678V325.55H93.6678H93.1678V276.1H93.6678ZM83.19 276.1V275.6H93.6678V276.1V276.6H83.19V276.1ZM83.19 258.85H83.69V276.1H83.19H82.69V258.85H83.19ZM294.79 340.5H295.29V353.15H294.79H294.29V340.5H294.79ZM318.94 340.5V341H294.79V340.5V340H318.94V340.5ZM318.94 346.825H318.44V340.5H318.94H319.44V346.825H318.94ZM340.215 346.825V347.325H318.94V346.825V346.325H340.215V346.825ZM340.215 318.65H340.715V346.825H340.215H339.715V318.65H340.215ZM347.115 318.65V319.15H340.215V318.65V318.15H347.115V318.65ZM347.115 353.15H346.615V318.65H347.115H347.615V353.15H347.115ZM294.79 353.15V352.65H347.115V353.15V353.65H294.79V353.15ZM228.09 133.5H228.59V135.225H228.09H227.59V133.5H228.09ZM233.84 133.5V134H228.09V133.5V133H233.84V133.5ZM233.84 142.7H233.34V133.5H233.84H234.34V142.7H233.84ZM244.765 153.05L244.421 153.413L233.496 143.063L233.84 142.7L234.184 142.337L245.109 152.687L244.765 153.05ZM248.215 153.05V153.55H244.765V153.05V152.55H248.215V153.05ZM248.215 154.775H247.715V153.05H248.215H248.715V154.775H248.215ZM234.99 154.775V154.275H248.215V154.775V155.275H234.99V154.775ZM234.99 197.325H234.49V154.775H234.99H235.49V197.325H234.99ZM247.64 197.325V197.825H234.99V197.325V196.825H247.64V197.325ZM247.64 199.05H247.14V197.325H247.64H248.14V199.05H247.64ZM244.765 199.05V198.55H247.64V199.05V199.55H244.765V199.05ZM244.765 233.55H244.265V199.05H244.765H245.265V233.55H244.765ZM241.315 233.55V233.05H244.765V233.55V234.05H241.315V233.55ZM241.315 237.575H240.815V233.55H241.315H241.815V237.575H241.315ZM237.865 237.575V237.075H241.315V237.575V238.075H237.865V237.575ZM237.865 262.875H237.365V237.575H237.865H238.365V262.875H237.865ZM273.515 262.875V263.375H237.865V262.875V262.375H273.515V262.875ZM273.515 251.95H274.015V262.875H273.515H273.015V251.95H273.515ZM276.965 251.95V252.45H273.515V251.95V251.45H276.965V251.95ZM276.965 262.875H276.465V251.95H276.965H277.465V262.875H276.965ZM291.34 262.875V263.375H276.965V262.875V262.375H291.34V262.875ZM291.34 255.4H291.84V262.875H291.34H290.84V255.4H291.34ZM318.94 255.4V255.9H291.34V255.4V254.9H318.94V255.4ZM318.94 261.725H318.44V255.4H318.94H319.44V261.725H318.94ZM301.115 261.725V261.225H318.94V261.725V262.225H301.115V261.725ZM301.115 311.75H300.615V261.725H301.115H301.615V311.75H301.115ZM318.94 311.75V312.25H301.115V311.75V311.25H318.94V311.75ZM318.94 325.417H318.44V311.75H318.94H319.44V325.417H318.94ZM294.876 325.417V324.917H318.94V325.417V325.917H294.876V325.417ZM294.876 272.804H295.376V325.417H294.876H294.376V272.804H294.876ZM240.74 273.225L240.736 272.725L294.872 272.304L294.876 272.804L294.88 273.304L240.744 273.725L240.74 273.225ZM240.74 279.55H240.24V273.225H240.74H241.24V279.55H240.74ZM234.99 279.55V279.05H240.74V279.55V280.05H234.99V279.55ZM234.99 251.631H235.49V279.55H234.99H234.49V251.631H234.99ZM203.006 251.631V251.131H234.99V251.631V252.131H203.006V251.631ZM203.006 248.5H203.506V251.631H203.006H202.506V248.5H203.006ZM213.715 248.5V249H203.006V248.5V248H213.715V248.5ZM213.715 199.509H214.215V248.5H213.715H213.215V199.509H213.715ZM231.166 199.509V200.009H213.715V199.509V199.009H231.166V199.509ZM231.166 166.85H231.666V199.509H231.166H230.666V166.85H231.166ZM206.815 166.85V166.35H231.166V166.85V167.35H206.815V166.85ZM206.815 165.125H207.315V166.85H206.815H206.315V165.125H206.815ZM231.166 165.125V165.625H206.815V165.125V164.625H231.166V165.125ZM231.166 135.225H231.666V165.125H231.166H230.666V135.225H231.166ZM228.09 135.225V134.725H231.166V135.225V135.725H228.09V135.225ZM150.465 286.45V286.95H122.29V286.45V285.95H150.465V286.45ZM150.465 291.625H149.965V286.45H150.465H150.965V291.625H150.465ZM157.365 291.625V292.125H150.465V291.625V291.125H157.365V291.625ZM157.365 293.247H156.865V291.625H157.365H157.865V293.247H157.365ZM163.69 293.247V293.747H157.365V293.247V292.747H163.69V293.247ZM163.69 251.95H164.19V293.247H163.69H163.19V251.95H163.69ZM187.84 251.95V252.45H163.69V251.95V251.45H187.84V251.95ZM187.84 248.5H188.34V251.95H187.84H187.34V248.5H187.84ZM163.69 248.5V248H187.84V248.5V249H163.69V248.5ZM163.69 226.65H164.19V248.5H163.69H163.19V226.65H163.69ZM177.49 226.65V227.15H163.69V226.65V226.15H177.49V226.65ZM177.49 199.05H177.99V226.65H177.49H176.99V199.05H177.49ZM157.365 199.05V198.55H177.49V199.05V199.55H157.365V199.05ZM157.365 212.85H156.865V199.05H157.365H157.865V212.85H157.365ZM147.015 212.85V212.35H157.365V212.85V213.35H147.015V212.85ZM147.015 215.725H146.515V212.85H147.015H147.515V215.725H147.015ZM157.365 215.725V216.225H147.015V215.725V215.225H157.365V215.725ZM157.365 267.475H156.865V215.725H157.365H157.865V267.475H157.365ZM145.29 267.475V266.975H157.365V267.475V267.975H145.29V267.475ZM145.29 269.2H144.79V267.475H145.29H145.79V269.2H145.29ZM157.365 269.2V269.7H145.29V269.2V268.7H157.365V269.2ZM157.365 284.725H156.865V269.2H157.365H157.865V284.725H157.365ZM122.29 284.725V284.225H157.365V284.725V285.225H122.29V284.725ZM122.29 286.45H121.79V284.725H122.29H122.79V286.45H122.29ZM48.115 160.525H48.615V177.2H48.115H47.615V160.525H48.115ZM65.94 160.525V161.025H48.115V160.525V160.025H65.94V160.525ZM65.94 153.05H66.44V160.525H65.94H65.44V153.05H65.94ZM72.84 153.05V153.55H65.94V153.05V152.55H72.84V153.05ZM72.84 149.6H73.34V153.05H72.84H72.34V149.6H72.84ZM75.14 149.6V150.1H72.84V149.6V149.1H75.14V149.6ZM75.14 160.525H74.64V149.6H75.14H75.64V160.525H75.14ZM108.49 160.525V161.025H75.14V160.525V160.025H108.49V160.525ZM108.49 121.425H108.99V160.525H108.49H107.99V121.425H108.49ZM135.515 121.425V121.925H108.49V121.425V120.925H135.515V121.425ZM135.515 135.8H135.015V121.425H135.515H136.015V135.8H135.515ZM151.04 135.8V136.3H135.515V135.8V135.3H151.04V135.8ZM151.04 137.812H150.54V135.8H151.04H151.54V137.812H151.04ZM117.69 137.812V137.312H151.04V137.812V138.312H117.69V137.812ZM117.69 212.85H117.19V137.812H117.69H118.19V212.85H117.69ZM128.04 212.85V213.35H117.69V212.85V212.35H128.04V212.85ZM128.04 215.725H127.54V212.85H128.04H128.54V215.725H128.04ZM117.69 215.725V215.225H128.04V215.725V216.225H117.69V215.725ZM117.69 245.05H117.19V215.725H117.69H118.19V245.05H117.69ZM83.19 245.05V244.55H117.69V245.05V245.55H83.19V245.05ZM83.19 233.55H83.69V245.05H83.19H82.69V233.55H83.19ZM48.115 233.55V233.05H83.19V233.55V234.05H48.115V233.55ZM48.115 203.075H48.615V233.55H48.115H47.615V203.075H48.115ZM65.94 203.075V203.575H48.115V203.075V202.575H65.94V203.075ZM65.94 177.2H66.44V203.075H65.94H65.44V177.2H65.94ZM48.115 177.2V176.7H65.94V177.2V177.7H48.115V177.2ZM160.815 166.85H160.315V160.525H160.815H161.315V166.85H160.815ZM185.54 166.85V167.35H160.815V166.85V166.35H185.54V166.85ZM185.54 165.125H186.04V166.85H185.54H185.04V165.125H185.54ZM174.04 165.125V164.625H185.54V165.125V165.625H174.04V165.125ZM174.04 149.025H174.54V165.125H174.04H173.54V149.025H174.04ZM215.755 149.205L215.753 149.705L174.038 149.525L174.04 149.025L174.042 148.525L215.757 148.705L215.755 149.205ZM215.755 135.381H216.255V149.205H215.755H215.255V135.381H215.755ZM219.186 135.381V135.881H215.755V135.381V134.881H219.186V135.381ZM219.186 133.816H219.686V135.381H219.186H218.686V133.816H219.186ZM209.69 133.816V133.316H219.186V133.816V134.316H209.69V133.816ZM209.69 122H210.19V133.816H209.69H209.19V122H209.69ZM182.327 121.797L182.331 121.297L209.694 121.5L209.69 122L209.686 122.5L182.323 122.297L182.327 121.797ZM182.327 135.581H181.827V121.797H182.327H182.827V135.581H182.327ZM168.29 135.581V135.081H182.327V135.581V136.081H168.29V135.581ZM168.29 160.525H167.79V135.581H168.29H168.79V160.525H168.29ZM160.815 160.525V160.025H168.29V160.525V161.025H160.815V160.525ZM149.89 103.394H149.39V71.975H149.89H150.39V103.394H149.89ZM197.04 103.394V103.894H149.89V103.394V102.894H197.04V103.394ZM197.04 71.975H197.54V103.394H197.04H196.54V71.975H197.04ZM149.89 71.975V71.475H197.04V71.975V72.475H149.89V71.975ZM263.165 234.125H262.665V204.225H263.165H263.665V234.125H263.165ZM273.515 234.125V234.625H263.165V234.125V233.625H273.515V234.125ZM273.515 244.475H273.015V234.125H273.515H274.015V244.475H273.515ZM276.39 244.475V244.975H273.515V244.475V243.975H276.39V244.475ZM276.39 238.725H276.89V244.475H276.39H275.89V238.725H276.39ZM291.34 238.725V239.225H276.39V238.725V238.225H291.34V238.725ZM291.34 240.733H290.84V238.725H291.34H291.84V240.733H291.34ZM325.265 240.733V241.233H291.34V240.733V240.233H325.265V240.733ZM325.265 226.41H325.765V240.733H325.265H324.765V226.41H325.265ZM354.59 226.41V226.91H325.265V226.41V225.91H354.59V226.41ZM354.59 254.825H354.09V226.41H354.59H355.09V254.825H354.59ZM360.915 254.825V255.325H354.59V254.825V254.325H360.915V254.825ZM360.915 223.775H361.415V254.825H360.915H360.415V223.775H360.915ZM320.09 199.625L320.345 199.195L361.17 223.345L360.915 223.775L360.66 224.205L319.835 200.055L320.09 199.625ZM294.79 199.625V199.125H320.09V199.625V200.125H294.79V199.625ZM294.79 209.975H294.29V199.625H294.79H295.29V209.975H294.79ZM276.166 209.975V209.475H294.79V209.975V210.475H276.166V209.975ZM276.166 192.549H276.666V209.975H276.166H275.666V192.549H276.166ZM273.897 192.549V192.049H276.166V192.549V193.049H273.897V192.549ZM273.897 197.325H273.397V192.549H273.897H274.397V197.325H273.897ZM258.565 197.325V196.825H273.897V197.325V197.825H258.565V197.325ZM258.565 199.625H258.065V197.325H258.565H259.065V199.625H258.565ZM263.165 204.225L262.811 204.579L258.211 199.979L258.565 199.625L258.919 199.271L263.519 203.871L263.165 204.225Z" fill="#B27C40"/>
<circle cx="1.15" cy="1.15" r="1.65" transform="matrix(1 0 0 -1 143.565 135.225)" stroke="#B27C40"/>
<path d="M186.115 166.85H206.24M206.24 165.125H186.115M185.54 166.85V174.325H206.815V166.85M182.91 166.85V177.2H209.955V166.85M184.965 339.925H214.29M93.54 289.9H86.64M86.64 289.9V276.1M86.64 289.9V297.375H93.54M10.165 276.1H22.815V297.375H4.99004M1.54004 297.375H4.99004M4.99004 297.375V303.7H1.54004M48.115 203.075V184.675H55.015M128.615 214L136.09 216.875M147.015 214.575L138.965 211.7M129.765 269.2H145.865M128.04 267.475V260.575H147.015V267.475M266.04 153.05V107.625H237.865V99.5751M234.415 99.5751V111.075H262.59V153.05M309.165 169.725H305.14V166.85M305.14 159.95V166.85M305.14 166.85H303.415V159.95M386.215 318.65V313.475M393.69 311.75H386.215V313.475M393.69 313.475H386.215M366.09 318.65H377.015M125.74 181.225H128.615V177.775H125.165M129.765 267.475H145.29V262.875H129.765V267.475Z" stroke="#B27C40" stroke-width="0.5"/>
<path d="M272.94 316.35H276.39M272.94 310.025H279.84V316.35H276.39M276.39 316.35V319.8H272.94M334.465 346.825V341.075H340.215M318.94 261.725H324.69V256.55H318.94M354.59 249.075H347.115V262.3H360.915V255.4M347.115 318.65H366.665M376.44 318.65H386.215M355.165 191L351.715 197.325L357.465 200.775L362.065 194.45M157.365 238.725H149.89V232.975H157.365M117.69 184.675H125.165V177.775H117.69M336.765 290.475L363.79 297.95L366.09 289.9L339.065 282.425L336.765 290.475Z" stroke="#B27C40"/>
<path d="M210.265 99.5751V106.475H216.59V99.5751M266.615 154.775V161.675H274.09M234.99 177.2H244.765V170.875H234.99M237.865 255.4H244.765V262.875M226.94 251.375V258.275H230.965M234.99 258.275H230.965M230.965 258.275V262.3H234.99M170.59 251.375V283H163.69M72.2647 283V290.475H44.0897V283H65.9397M72.2647 283V276.675H65.9397V283M72.2647 283H65.9397M33.7397 326.125V319.225H40.6397V326.125M71.6897 335.9H79.7397V343.95M55.0147 233.55V241.025H61.3397V233.55M59.0397 160.525L65.9397 153.625M75.1397 153.05H82.6147V156.788M82.6147 160.525V156.788M82.6147 156.788H86.6397V160.525M108.49 121.425V115.1H114.24V121.425M135.515 128.325H142.99V135.8M168.29 156.5H153.34V166.85H160.815M182.09 297.375V280.125H192.44V273.225H206.24V280.125H216.59V297.375H182.09ZM192.44 322.1V323.825H206.24V322.1H192.44Z" stroke="#B27C40"/>
<path d="M153.34 160.525H160.815M213.715 205.375H206.815V199.498H213.715" stroke="#B27C40"/>
<circle cx="1.725" cy="1.725" r="2.225" transform="matrix(1 0 0 -1 152.765 220.325)" stroke="#B27C40"/>
<path d="M378.74 318.65V334.75M352.29 318.65V350.275H361.49" stroke="#B27C40" stroke-opacity="0.23" stroke-width="0.5"/>
<path d="M33.165 318.075H41.2148V325.55H71.1152V276.1H71.1143V291.05H43.5146V282.425H65.3643V276.1H1.81641V276.32H22.8145V297.375H5.27051V304.003H1.81641V325.55H33.165V318.075Z" fill="#F08234" fill-opacity="0.23"/>
<path d="M38.5015 301.924H37.0405C36.9989 301.685 36.922 301.472 36.8101 301.288C36.6981 301.1 36.5588 300.941 36.3921 300.811C36.2254 300.681 36.0353 300.583 35.8218 300.518C35.6108 300.45 35.383 300.417 35.1382 300.417C34.7033 300.417 34.3179 300.526 33.9819 300.745C33.646 300.961 33.383 301.278 33.1929 301.698C33.0028 302.114 32.9077 302.624 32.9077 303.225C32.9077 303.837 33.0028 304.353 33.1929 304.772C33.3856 305.189 33.6486 305.504 33.9819 305.717C34.3179 305.928 34.702 306.034 35.1343 306.034C35.3739 306.034 35.5978 306.002 35.8062 305.94C36.0171 305.875 36.2059 305.78 36.3726 305.655C36.5418 305.53 36.6838 305.376 36.7983 305.194C36.9155 305.012 36.9963 304.803 37.0405 304.569L38.5015 304.577C38.4468 304.957 38.3283 305.314 38.146 305.647C37.9663 305.98 37.7306 306.275 37.439 306.53C37.1473 306.782 36.8062 306.98 36.4155 307.124C36.0249 307.264 35.5913 307.334 35.1147 307.334C34.4116 307.334 33.784 307.172 33.2319 306.846C32.6799 306.521 32.245 306.051 31.9272 305.436C31.6095 304.821 31.4507 304.084 31.4507 303.225C31.4507 302.363 31.6108 301.626 31.9312 301.014C32.2515 300.4 32.6877 299.93 33.2397 299.604C33.7918 299.278 34.4168 299.116 35.1147 299.116C35.5601 299.116 35.9741 299.178 36.3569 299.303C36.7397 299.428 37.0809 299.612 37.3804 299.854C37.6799 300.094 37.9259 300.388 38.1187 300.737C38.314 301.083 38.4416 301.479 38.5015 301.924Z" fill="white"/>
<path d="M224.065 265.175H174.615V308.875H224.065V265.175ZM181.515 280.125H193.015V273.225H205.665V280.125H216.015V297.375H181.515V280.125Z" fill="#F08234" fill-opacity="0.23"/>
<path d="M196.104 289.975V281.975H199.167C199.745 281.975 200.225 282.066 200.608 282.248C200.993 282.428 201.281 282.674 201.471 282.987C201.664 283.299 201.76 283.653 201.76 284.049C201.76 284.375 201.698 284.653 201.573 284.885C201.448 285.114 201.28 285.3 201.069 285.444C200.858 285.587 200.622 285.69 200.362 285.752V285.83C200.646 285.846 200.918 285.933 201.178 286.092C201.441 286.248 201.656 286.47 201.823 286.756C201.989 287.043 202.073 287.389 202.073 287.795C202.073 288.209 201.972 288.582 201.772 288.912C201.571 289.241 201.269 289.5 200.866 289.69C200.462 289.88 199.954 289.975 199.342 289.975H196.104ZM197.553 288.764H199.112C199.638 288.764 200.017 288.664 200.249 288.463C200.483 288.26 200.6 288 200.6 287.682C200.6 287.445 200.542 287.231 200.424 287.041C200.307 286.849 200.14 286.698 199.924 286.588C199.708 286.476 199.45 286.42 199.151 286.42H197.553V288.764ZM197.553 285.377H198.987C199.237 285.377 199.462 285.332 199.663 285.241C199.863 285.147 200.021 285.015 200.135 284.846C200.252 284.674 200.311 284.471 200.311 284.237C200.311 283.927 200.202 283.672 199.983 283.471C199.767 283.271 199.445 283.17 199.018 283.17H197.553V285.377Z" fill="white"/>
<path d="M385.947 311.473H393.115V318.075H393.147L393.122 275.238H341.946L341.95 283.287L342.115 282.697L366.67 289.537L364.153 298.571L341.956 292.387L341.972 318.075H385.947V311.473Z" fill="#F08234" fill-opacity="0.23"/>
<path d="M373.082 304.925H371.535L374.351 296.925H376.14L378.96 304.925H377.414L375.277 298.566H375.214L373.082 304.925ZM373.132 301.788H377.351V302.952H373.132V301.788Z" fill="white"/>
</svg>
