<svg width="388" height="417" viewBox="0 0 388 417" fill="none" xmlns="http://www.w3.org/2000/svg">
<path d="M325 121H329.5V123.5H314.5V110H325V121Z" fill="#271406" fill-opacity="0.9" stroke="#B27C40" stroke-opacity="0.23" stroke-width="0.5"/>
<path fill-rule="evenodd" clip-rule="evenodd" d="M63.5001 297.5V309.5H13.5001V274.234H15.243V265.702H27.5001V241.702H25.0001V211.769H8.78183V174.696H1.23511V131H62.5V115.5H105.5V91.5H151.5V59.5H165.5V60.5H188V44.5L216.5 18.5L235.5 32.5V60.5H256.5V91.5H314.5V123.226H336V137.5H342.5V193H330.5V220H342.5V245.5H314L278.5 267H269V275.5H240.5V261H238.5V280H226V281.5H238V328H183V351.603H204.685V382.5L179.5 398.5H139.5L118 382.5V331.256H56.5V315H65.5V297.5H63.5001ZM119 109V140.5H137V147H143V143L152.5 133.5H161V115.5H186.5V133.5H194.5L204.5 143.5V159H209.5V152.5H237.5V107.5H218.5V80H186V109H119ZM72.5 189.5H102.5V182H113V180.5H96.5V167H99V165.5H96.5V162.5H94V146H96.5V131.5H81.6112V174.5H72.5V189.5ZM256.5 107.5V118.5H277.5V113H296V137.5H302V107.5H256.5ZM198.5 297V298.5H203.5V290.5L213 281.5H216V280H204.5V243H215.5V241.5H213V211.5H210V208H207V186H238V195.5H241V186H253.5V192.5H277.5V187H262V143.5H277.5V131.616H256.575V177.366L209.5 177V171.5H204.5V195.777H176.688V198.5H186V241.101H201.175V269.5H180V271H201.175V297H198.5ZM106.5 165.5H131V161H137V159.59H142.5V195.5H163.5V198.5H142.5V217.5H154.5V241.5H137V229.5H128V227H137V182H126.5V180.5H137V167H106.5V165.5ZM42 260.5V275H57.5V281.5H63.5V284.5H65.5V275H94.5V309H118V296.5H131.5V294.751H102.5V229.5H111.5V227H102.5V201.5H72.5V211.5H42V238H57.5V260.5H42ZM140 275V269.5H161.5V271H151.5V285L187.774 284.843V296.865H190.758V298.226H182.5V308.5L158.706 308.677V296.69H146.5V275H140ZM130.5 352V324.679H171.5V352H130.5ZM229 237V211H238V202H240.5V207H253.5V205.254H283V217.709H308.5V193H314V220L278.5 241H256.5V232H240.305V247.153H238.332V243H225V241L229 237Z" fill="#271406"/>
<path d="M63.5001 309.5V310H64.0001V309.5H63.5001ZM63.5001 297.5V297H63.0001V297.5H63.5001ZM13.5001 309.5H13.0001V310H13.5001V309.5ZM13.5001 274.234V273.734H13.0001V274.234H13.5001ZM15.243 274.234V274.734H15.743V274.234H15.243ZM15.243 265.702V265.202H14.743V265.702H15.243ZM27.5001 265.702V266.202H28.0001V265.702H27.5001ZM27.5001 241.702H28.0001V241.202H27.5001V241.702ZM25.0001 241.702H24.5001V242.202H25.0001V241.702ZM25.0001 211.769H25.5001V211.269H25.0001V211.769ZM8.78183 211.769H8.28183V212.269H8.78183V211.769ZM8.78183 174.696H9.28183V174.196H8.78183V174.696ZM1.23511 174.696H0.735107V175.196H1.23511V174.696ZM1.23511 131V130.5H0.735107V131H1.23511ZM62.5 131V131.5H63V131H62.5ZM62.5 115.5V115H62V115.5H62.5ZM105.5 115.5V116H106V115.5H105.5ZM105.5 91.5V91H105V91.5H105.5ZM151.5 91.5V92H152V91.5H151.5ZM151.5 59.5V59H151V59.5H151.5ZM165.5 59.5H166V59H165.5V59.5ZM165.5 60.5H165V61H165.5V60.5ZM188 60.5V61H188.5V60.5H188ZM188 44.5L187.663 44.1306L187.5 44.2793V44.5H188ZM216.5 18.5L216.797 18.0975L216.466 17.854L216.163 18.1306L216.5 18.5ZM235.5 32.5H236V32.2473L235.797 32.0975L235.5 32.5ZM235.5 60.5H235V61H235.5V60.5ZM256.5 60.5H257V60H256.5V60.5ZM256.5 91.5H256V92H256.5V91.5ZM314.5 91.5H315V91H314.5V91.5ZM314.5 123.226H314V123.726H314.5V123.226ZM336 123.226H336.5V122.726H336V123.226ZM336 137.5H335.5V138H336V137.5ZM342.5 137.5H343V137H342.5V137.5ZM342.5 193V193.5H343V193H342.5ZM330.5 193V192.5H330V193H330.5ZM330.5 220H330V220.5H330.5V220ZM342.5 220H343V219.5H342.5V220ZM342.5 245.5V246H343V245.5H342.5ZM314 245.5V245H313.86L313.741 245.072L314 245.5ZM278.5 267V267.5H278.64L278.759 267.428L278.5 267ZM269 267V266.5H268.5V267H269ZM269 275.5V276H269.5V275.5H269ZM240.5 275.5H240V276H240.5V275.5ZM240.5 261H241V260.5H240.5V261ZM238.5 261V260.5H238V261H238.5ZM238.5 280V280.5H239V280H238.5ZM226 280V279.5H225.5V280H226ZM226 281.5H225.5V282H226V281.5ZM238 281.5H238.5V281H238V281.5ZM238 328V328.5H238.5V328H238ZM183 328V327.5H182.5V328H183ZM183 351.603H182.5V352.103H183V351.603ZM204.685 351.603H205.185V351.103H204.685V351.603ZM204.685 382.5L204.953 382.922L205.185 382.775V382.5H204.685ZM179.5 398.5V399H179.645L179.768 398.922L179.5 398.5ZM139.5 398.5L139.201 398.901L139.334 399H139.5V398.5ZM118 382.5H117.5V382.751L117.701 382.901L118 382.5ZM118 331.256H118.5V330.756H118V331.256ZM56.5 331.256H56V331.756H56.5V331.256ZM56.5 315V314.5H56V315H56.5ZM65.5 315V315.5H66V315H65.5ZM65.5 297.5H66V297H65.5V297.5ZM119 140.5H118.5V141H119V140.5ZM119 109V108.5H118.5V109H119ZM137 140.5H137.5V140H137V140.5ZM137 147H136.5V147.5H137V147ZM143 147V147.5H143.5V147H143ZM143 143L142.646 142.646L142.5 142.793V143H143ZM152.5 133.5V133H152.293L152.146 133.146L152.5 133.5ZM161 133.5V134H161.5V133.5H161ZM161 115.5V115H160.5V115.5H161ZM186.5 115.5H187V115H186.5V115.5ZM186.5 133.5H186V134H186.5V133.5ZM194.5 133.5L194.854 133.146L194.707 133H194.5V133.5ZM204.5 143.5H205V143.293L204.854 143.146L204.5 143.5ZM204.5 159H204V159.5H204.5V159ZM209.5 159V159.5H210V159H209.5ZM209.5 152.5V152H209V152.5H209.5ZM237.5 152.5V153H238V152.5H237.5ZM237.5 107.5H238V107H237.5V107.5ZM218.5 107.5H218V108H218.5V107.5ZM218.5 80H219V79.5H218.5V80ZM186 80V79.5H185.5V80H186ZM186 109V109.5H186.5V109H186ZM102.5 189.5V190H103V189.5H102.5ZM72.5 189.5H72V190H72.5V189.5ZM102.5 182V181.5H102V182H102.5ZM113 182V182.5H113.5V182H113ZM113 180.5H113.5V180H113V180.5ZM96.5 180.5H96V181H96.5V180.5ZM96.5 167V166.5H96V167H96.5ZM99 167V167.5H99.5V167H99ZM99 165.5H99.5V165H99V165.5ZM96.5 165.5H96V166H96.5V165.5ZM96.5 162.5H97V162H96.5V162.5ZM94 162.5H93.5V163H94V162.5ZM94 146V145.5H93.5V146H94ZM96.5 146V146.5H97V146H96.5ZM96.5 131.5H97V131H96.5V131.5ZM81.6112 131.5V131H81.1112V131.5H81.6112ZM81.6112 174.5V175H82.1112V174.5H81.6112ZM72.5 174.5V174H72V174.5H72.5ZM256.5 118.5H256V119H256.5V118.5ZM256.5 107.5V107H256V107.5H256.5ZM277.5 118.5V119H278V118.5H277.5ZM277.5 113V112.5H277V113H277.5ZM296 113H296.5V112.5H296V113ZM296 137.5H295.5V138H296V137.5ZM302 137.5V138H302.5V137.5H302ZM302 107.5H302.5V107H302V107.5ZM198.5 298.5H198V299H198.5V298.5ZM198.5 297V296.5H198V297H198.5ZM203.5 298.5V299H204V298.5H203.5ZM203.5 290.5L203.156 290.137L203 290.285V290.5H203.5ZM213 281.5V281H212.801L212.656 281.137L213 281.5ZM216 281.5V282H216.5V281.5H216ZM216 280H216.5V279.5H216V280ZM204.5 280H204V280.5H204.5V280ZM204.5 243V242.5H204V243H204.5ZM215.5 243V243.5H216V243H215.5ZM215.5 241.5H216V241H215.5V241.5ZM213 241.5H212.5V242H213V241.5ZM213 211.5H213.5V211H213V211.5ZM210 211.5H209.5V212H210V211.5ZM210 208H210.5V207.5H210V208ZM207 208H206.5V208.5H207V208ZM207 186V185.5H206.5V186H207ZM238 186H238.5V185.5H238V186ZM238 195.5H237.5V196H238V195.5ZM241 195.5V196H241.5V195.5H241ZM241 186V185.5H240.5V186H241ZM253.5 186H254V185.5H253.5V186ZM253.5 192.5H253V193H253.5V192.5ZM277.5 192.5V193H278V192.5H277.5ZM277.5 187H278V186.5H277.5V187ZM262 187H261.5V187.5H262V187ZM262 143.5V143H261.5V143.5H262ZM277.5 143.5V144H278V143.5H277.5ZM277.5 131.616H278V131.116H277.5V131.616ZM256.575 131.616V131.116H256.075V131.616H256.575ZM256.575 177.366L256.571 177.866L257.075 177.87V177.366H256.575ZM209.5 177H209V177.496L209.496 177.5L209.5 177ZM209.5 171.5H210V171H209.5V171.5ZM204.5 171.5V171H204V171.5H204.5ZM204.5 195.777V196.277H205V195.777H204.5ZM176.688 195.777V195.277H176.188V195.777H176.688ZM176.688 198.5H176.188V199H176.688V198.5ZM186 198.5H186.5V198H186V198.5ZM186 241.101H185.5V241.601H186V241.101ZM201.175 241.101H201.675V240.601H201.175V241.101ZM201.175 269.5V270H201.675V269.5H201.175ZM180 269.5V269H179.5V269.5H180ZM180 271H179.5V271.5H180V271ZM201.175 271H201.675V270.5H201.175V271ZM201.175 297V297.5H201.675V297H201.175ZM131 165.5V166H131.5V165.5H131ZM106.5 165.5V165H106V165.5H106.5ZM131 161V160.5H130.5V161H131ZM137 161V161.5H137.5V161H137ZM137 159.59V159.09H136.5V159.59H137ZM142.5 159.59H143V159.09H142.5V159.59ZM142.5 195.5H142V196H142.5V195.5ZM163.5 195.5H164V195H163.5V195.5ZM163.5 198.5V199H164V198.5H163.5ZM142.5 198.5V198H142V198.5H142.5ZM142.5 217.5H142V218H142.5V217.5ZM154.5 217.5H155V217H154.5V217.5ZM154.5 241.5V242H155V241.5H154.5ZM137 241.5H136.5V242H137V241.5ZM137 229.5H137.5V229H137V229.5ZM128 229.5H127.5V230H128V229.5ZM128 227V226.5H127.5V227H128ZM137 227V227.5H137.5V227H137ZM137 182H137.5V181.5H137V182ZM126.5 182H126V182.5H126.5V182ZM126.5 180.5V180H126V180.5H126.5ZM137 180.5V181H137.5V180.5H137ZM137 167H137.5V166.5H137V167ZM106.5 167H106V167.5H106.5V167ZM42 275H41.5V275.5H42V275ZM42 260.5V260H41.5V260.5H42ZM57.5 275H58V274.5H57.5V275ZM57.5 281.5H57V282H57.5V281.5ZM63.5 281.5H64V281H63.5V281.5ZM63.5 284.5H63V285H63.5V284.5ZM65.5 284.5V285H66V284.5H65.5ZM65.5 275V274.5H65V275H65.5ZM94.5 275H95V274.5H94.5V275ZM94.5 309H94V309.5H94.5V309ZM118 309V309.5H118.5V309H118ZM118 296.5V296H117.5V296.5H118ZM131.5 296.5V297H132V296.5H131.5ZM131.5 294.751H132V294.251H131.5V294.751ZM102.5 294.751H102V295.251H102.5V294.751ZM102.5 229.5V229H102V229.5H102.5ZM111.5 229.5V230H112V229.5H111.5ZM111.5 227H112V226.5H111.5V227ZM102.5 227H102V227.5H102.5V227ZM102.5 201.5H103V201H102.5V201.5ZM72.5 201.5V201H72V201.5H72.5ZM72.5 211.5V212H73V211.5H72.5ZM42 211.5V211H41.5V211.5H42ZM42 238H41.5V238.5H42V238ZM57.5 238H58V237.5H57.5V238ZM57.5 260.5V261H58V260.5H57.5ZM140 269.5V269H139.5V269.5H140ZM140 275H139.5V275.5H140V275ZM161.5 269.5H162V269H161.5V269.5ZM161.5 271V271.5H162V271H161.5ZM151.5 271V270.5H151V271H151.5ZM151.5 285H151V285.502L151.502 285.5L151.5 285ZM187.774 284.843H188.274V284.341L187.772 284.343L187.774 284.843ZM187.774 296.865H187.274V297.365H187.774V296.865ZM190.758 296.865H191.258V296.365H190.758V296.865ZM190.758 298.226V298.726H191.258V298.226H190.758ZM182.5 298.226V297.726H182V298.226H182.5ZM182.5 308.5L182.504 309L183 308.996V308.5H182.5ZM158.706 308.677H158.206V309.181L158.71 309.177L158.706 308.677ZM158.706 296.69H159.206V296.19H158.706V296.69ZM146.5 296.69H146V297.19H146.5V296.69ZM146.5 275H147V274.5H146.5V275ZM130.5 324.679V324.179H130V324.679H130.5ZM130.5 352H130V352.5H130.5V352ZM171.5 324.679H172V324.179H171.5V324.679ZM171.5 352V352.5H172V352H171.5ZM229 211V210.5H228.5V211H229ZM229 237L229.354 237.354L229.5 237.207V237H229ZM238 211V211.5H238.5V211H238ZM238 202V201.5H237.5V202H238ZM240.5 202H241V201.5H240.5V202ZM240.5 207H240V207.5H240.5V207ZM253.5 207V207.5H254V207H253.5ZM253.5 205.254V204.754H253V205.254H253.5ZM283 205.254H283.5V204.754H283V205.254ZM283 217.709H282.5V218.209H283V217.709ZM308.5 217.709V218.209H309V217.709H308.5ZM308.5 193V192.5H308V193H308.5ZM314 193H314.5V192.5H314V193ZM314 220L314.255 220.43L314.5 220.285V220H314ZM278.5 241V241.5H278.637L278.755 241.43L278.5 241ZM256.5 241H256V241.5H256.5V241ZM256.5 232H257V231.5H256.5V232ZM240.305 232V231.5H239.805V232H240.305ZM240.305 247.153V247.653H240.805V247.153H240.305ZM238.332 247.153H237.832V247.653H238.332V247.153ZM238.332 243H238.832V242.5H238.332V243ZM225 243H224.5V243.5H225V243ZM225 241L224.646 240.646L224.5 240.793V241H225ZM64.0001 309.5V297.5H63.0001V309.5H64.0001ZM13.5001 310H63.5001V309H13.5001V310ZM13.0001 274.234V309.5H14.0001V274.234H13.0001ZM15.243 273.734H13.5001V274.734H15.243V273.734ZM14.743 265.702V274.234H15.743V265.702H14.743ZM27.5001 265.202H15.243V266.202H27.5001V265.202ZM27.0001 241.702V265.702H28.0001V241.702H27.0001ZM25.0001 242.202H27.5001V241.202H25.0001V242.202ZM24.5001 211.769V241.702H25.5001V211.769H24.5001ZM8.78183 212.269H25.0001V211.269H8.78183V212.269ZM8.28183 174.696V211.769H9.28183V174.696H8.28183ZM1.23511 175.196H8.78183V174.196H1.23511V175.196ZM0.735107 131V174.696H1.73511V131H0.735107ZM62.5 130.5H1.23511V131.5H62.5V130.5ZM62 115.5V131H63V115.5H62ZM105.5 115H62.5V116H105.5V115ZM105 91.5V115.5H106V91.5H105ZM151.5 91H105.5V92H151.5V91ZM151 59.5V91.5H152V59.5H151ZM165.5 59H151.5V60H165.5V59ZM166 60.5V59.5H165V60.5H166ZM188 60H165.5V61H188V60ZM187.5 44.5V60.5H188.5V44.5H187.5ZM216.163 18.1306L187.663 44.1306L188.337 44.8694L216.837 18.8694L216.163 18.1306ZM235.797 32.0975L216.797 18.0975L216.203 18.9025L235.203 32.9025L235.797 32.0975ZM236 60.5V32.5H235V60.5H236ZM256.5 60H235.5V61H256.5V60ZM257 91.5V60.5H256V91.5H257ZM314.5 91H256.5V92H314.5V91ZM315 123.226V91.5H314V123.226H315ZM336 122.726H314.5V123.726H336V122.726ZM336.5 137.5V123.226H335.5V137.5H336.5ZM342.5 137H336V138H342.5V137ZM343 193V137.5H342V193H343ZM330.5 193.5H342.5V192.5H330.5V193.5ZM331 220V193H330V220H331ZM342.5 219.5H330.5V220.5H342.5V219.5ZM343 245.5V220H342V245.5H343ZM314 246H342.5V245H314V246ZM278.759 267.428L314.259 245.928L313.741 245.072L278.241 266.572L278.759 267.428ZM269 267.5H278.5V266.5H269V267.5ZM269.5 275.5V267H268.5V275.5H269.5ZM240.5 276H269V275H240.5V276ZM240 261V275.5H241V261H240ZM238.5 261.5H240.5V260.5H238.5V261.5ZM239 280V261H238V280H239ZM226 280.5H238.5V279.5H226V280.5ZM226.5 281.5V280H225.5V281.5H226.5ZM238 281H226V282H238V281ZM238.5 328V281.5H237.5V328H238.5ZM183 328.5H238V327.5H183V328.5ZM183.5 351.603V328H182.5V351.603H183.5ZM204.685 351.103H183V352.103H204.685V351.103ZM205.185 382.5V351.603H204.185V382.5H205.185ZM179.768 398.922L204.953 382.922L204.417 382.078L179.232 398.078L179.768 398.922ZM139.5 399H179.5V398H139.5V399ZM117.701 382.901L139.201 398.901L139.799 398.099L118.299 382.099L117.701 382.901ZM117.5 331.256V382.5H118.5V331.256H117.5ZM56.5 331.756H118V330.756H56.5V331.756ZM56 315V331.256H57V315H56ZM65.5 314.5H56.5V315.5H65.5V314.5ZM65 297.5V315H66V297.5H65ZM63.5001 298H65.5V297H63.5001V298ZM119.5 140.5V109H118.5V140.5H119.5ZM137 140H119V141H137V140ZM137.5 147V140.5H136.5V147H137.5ZM143 146.5H137V147.5H143V146.5ZM142.5 143V147H143.5V143H142.5ZM152.146 133.146L142.646 142.646L143.354 143.354L152.854 133.854L152.146 133.146ZM161 133H152.5V134H161V133ZM160.5 115.5V133.5H161.5V115.5H160.5ZM186.5 115H161V116H186.5V115ZM187 133.5V115.5H186V133.5H187ZM194.5 133H186.5V134H194.5V133ZM204.854 143.146L194.854 133.146L194.146 133.854L204.146 143.854L204.854 143.146ZM205 159V143.5H204V159H205ZM209.5 158.5H204.5V159.5H209.5V158.5ZM209 152.5V159H210V152.5H209ZM237.5 152H209.5V153H237.5V152ZM237 107.5V152.5H238V107.5H237ZM218.5 108H237.5V107H218.5V108ZM218 80V107.5H219V80H218ZM186 80.5H218.5V79.5H186V80.5ZM186.5 109V80H185.5V109H186.5ZM119 109.5H186V108.5H119V109.5ZM102.5 189H72.5V190H102.5V189ZM102 182V189.5H103V182H102ZM113 181.5H102.5V182.5H113V181.5ZM112.5 180.5V182H113.5V180.5H112.5ZM96.5 181H113V180H96.5V181ZM96 167V180.5H97V167H96ZM99 166.5H96.5V167.5H99V166.5ZM98.5 165.5V167H99.5V165.5H98.5ZM96.5 166H99V165H96.5V166ZM96 162.5V165.5H97V162.5H96ZM94 163H96.5V162H94V163ZM93.5 146V162.5H94.5V146H93.5ZM96.5 145.5H94V146.5H96.5V145.5ZM96 131.5V146H97V131.5H96ZM81.6112 132H96.5V131H81.6112V132ZM82.1112 174.5V131.5H81.1112V174.5H82.1112ZM72.5 175H81.6112V174H72.5V175ZM73 189.5V174.5H72V189.5H73ZM257 118.5V107.5H256V118.5H257ZM277.5 118H256.5V119H277.5V118ZM277 113V118.5H278V113H277ZM296 112.5H277.5V113.5H296V112.5ZM296.5 137.5V113H295.5V137.5H296.5ZM302 137H296V138H302V137ZM301.5 107.5V137.5H302.5V107.5H301.5ZM256.5 108H302V107H256.5V108ZM199 298.5V297H198V298.5H199ZM203.5 298H198.5V299H203.5V298ZM203 290.5V298.5H204V290.5H203ZM212.656 281.137L203.156 290.137L203.844 290.863L213.344 281.863L212.656 281.137ZM216 281H213V282H216V281ZM215.5 280V281.5H216.5V280H215.5ZM204.5 280.5H216V279.5H204.5V280.5ZM204 243V280H205V243H204ZM215.5 242.5H204.5V243.5H215.5V242.5ZM215 241.5V243H216V241.5H215ZM213 242H215.5V241H213V242ZM212.5 211.5V241.5H213.5V211.5H212.5ZM210 212H213V211H210V212ZM209.5 208V211.5H210.5V208H209.5ZM207 208.5H210V207.5H207V208.5ZM206.5 186V208H207.5V186H206.5ZM238 185.5H207V186.5H238V185.5ZM238.5 195.5V186H237.5V195.5H238.5ZM241 195H238V196H241V195ZM240.5 186V195.5H241.5V186H240.5ZM253.5 185.5H241V186.5H253.5V185.5ZM254 192.5V186H253V192.5H254ZM277.5 192H253.5V193H277.5V192ZM277 187V192.5H278V187H277ZM262 187.5H277.5V186.5H262V187.5ZM261.5 143.5V187H262.5V143.5H261.5ZM277.5 143H262V144H277.5V143ZM277 131.616V143.5H278V131.616H277ZM256.575 132.116H277.5V131.116H256.575V132.116ZM257.075 177.366V131.616H256.075V177.366H257.075ZM209.496 177.5L256.571 177.866L256.579 176.866L209.504 176.5L209.496 177.5ZM209 171.5V177H210V171.5H209ZM204.5 172H209.5V171H204.5V172ZM205 195.777V171.5H204V195.777H205ZM176.688 196.277H204.5V195.277H176.688V196.277ZM177.188 198.5V195.777H176.188V198.5H177.188ZM186 198H176.688V199H186V198ZM186.5 241.101V198.5H185.5V241.101H186.5ZM201.175 240.601H186V241.601H201.175V240.601ZM201.675 269.5V241.101H200.675V269.5H201.675ZM180 270H201.175V269H180V270ZM180.5 271V269.5H179.5V271H180.5ZM201.175 270.5H180V271.5H201.175V270.5ZM201.675 297V271H200.675V297H201.675ZM198.5 297.5H201.175V296.5H198.5V297.5ZM131 165H106.5V166H131V165ZM130.5 161V165.5H131.5V161H130.5ZM137 160.5H131V161.5H137V160.5ZM136.5 159.59V161H137.5V159.59H136.5ZM142.5 159.09H137V160.09H142.5V159.09ZM143 195.5V159.59H142V195.5H143ZM163.5 195H142.5V196H163.5V195ZM164 198.5V195.5H163V198.5H164ZM142.5 199H163.5V198H142.5V199ZM143 217.5V198.5H142V217.5H143ZM154.5 217H142.5V218H154.5V217ZM155 241.5V217.5H154V241.5H155ZM137 242H154.5V241H137V242ZM136.5 229.5V241.5H137.5V229.5H136.5ZM128 230H137V229H128V230ZM127.5 227V229.5H128.5V227H127.5ZM137 226.5H128V227.5H137V226.5ZM136.5 182V227H137.5V182H136.5ZM126.5 182.5H137V181.5H126.5V182.5ZM126 180.5V182H127V180.5H126ZM137 180H126.5V181H137V180ZM136.5 167V180.5H137.5V167H136.5ZM106.5 167.5H137V166.5H106.5V167.5ZM106 165.5V167H107V165.5H106ZM42.5 275V260.5H41.5V275H42.5ZM57.5 274.5H42V275.5H57.5V274.5ZM58 281.5V275H57V281.5H58ZM63.5 281H57.5V282H63.5V281ZM64 284.5V281.5H63V284.5H64ZM65.5 284H63.5V285H65.5V284ZM65 275V284.5H66V275H65ZM94.5 274.5H65.5V275.5H94.5V274.5ZM95 309V275H94V309H95ZM118 308.5H94.5V309.5H118V308.5ZM117.5 296.5V309H118.5V296.5H117.5ZM131.5 296H118V297H131.5V296ZM131 294.751V296.5H132V294.751H131ZM102.5 295.251H131.5V294.251H102.5V295.251ZM102 229.5V294.751H103V229.5H102ZM111.5 229H102.5V230H111.5V229ZM111 227V229.5H112V227H111ZM102.5 227.5H111.5V226.5H102.5V227.5ZM102 201.5V227H103V201.5H102ZM72.5 202H102.5V201H72.5V202ZM73 211.5V201.5H72V211.5H73ZM42 212H72.5V211H42V212ZM42.5 238V211.5H41.5V238H42.5ZM57.5 237.5H42V238.5H57.5V237.5ZM58 260.5V238H57V260.5H58ZM42 261H57.5V260H42V261ZM139.5 269.5V275H140.5V269.5H139.5ZM161.5 269H140V270H161.5V269ZM162 271V269.5H161V271H162ZM151.5 271.5H161.5V270.5H151.5V271.5ZM152 285V271H151V285H152ZM187.772 284.343L151.498 284.5L151.502 285.5L187.776 285.343L187.772 284.343ZM188.274 296.865V284.843H187.274V296.865H188.274ZM190.758 296.365H187.774V297.365H190.758V296.365ZM191.258 298.226V296.865H190.258V298.226H191.258ZM182.5 298.726H190.758V297.726H182.5V298.726ZM183 308.5V298.226H182V308.5H183ZM158.71 309.177L182.504 309L182.496 308L158.702 308.177L158.71 309.177ZM158.206 296.69V308.677H159.206V296.69H158.206ZM146.5 297.19H158.706V296.19H146.5V297.19ZM146 275V296.69H147V275H146ZM140 275.5H146.5V274.5H140V275.5ZM130 324.679V352H131V324.679H130ZM171.5 324.179H130.5V325.179H171.5V324.179ZM172 352V324.679H171V352H172ZM130.5 352.5H171.5V351.5H130.5V352.5ZM228.5 211V237H229.5V211H228.5ZM238 210.5H229V211.5H238V210.5ZM237.5 202V211H238.5V202H237.5ZM240.5 201.5H238V202.5H240.5V201.5ZM241 207V202H240V207H241ZM253.5 206.5H240.5V207.5H253.5V206.5ZM253 205.254V207H254V205.254H253ZM283 204.754H253.5V205.754H283V204.754ZM283.5 217.709V205.254H282.5V217.709H283.5ZM308.5 217.209H283V218.209H308.5V217.209ZM308 193V217.709H309V193H308ZM314 192.5H308.5V193.5H314V192.5ZM314.5 220V193H313.5V220H314.5ZM278.755 241.43L314.255 220.43L313.745 219.57L278.245 240.57L278.755 241.43ZM256.5 241.5H278.5V240.5H256.5V241.5ZM256 232V241H257V232H256ZM240.305 232.5H256.5V231.5H240.305V232.5ZM240.805 247.153V232H239.805V247.153H240.805ZM238.332 247.653H240.305V246.653H238.332V247.653ZM237.832 243V247.153H238.832V243H237.832ZM225 243.5H238.332V242.5H225V243.5ZM224.5 241V243H225.5V241H224.5ZM228.646 236.646L224.646 240.646L225.354 241.354L229.354 237.354L228.646 236.646Z" fill="#B27C40"/>
<circle cx="126" cy="298" r="1.5" stroke="#B27C40"/>
<path d="M162 269.5H179.5M179.5 271H162M161.5 269.5V263H180V269.5M159.213 269.5V260.5H182.73V269.5M161 119H186.5M81.5 162.5H75.5M75.5 162.5V174.5M75.5 162.5V156H81.5M9 174.5H20V156H4.5M1.5 156H4.5M4.5 156V150.5H1.5M42 238V254H48M112 228.5L118.5 226M128 228L121 230.5M113 180.5H127M111.5 182V188H128V182M231.5 281.5V321H207V328M204 328V318H228.5V281.5M269 267H265.5V269.5M265.5 275.5V269.5M265.5 269.5H264V275.5M336 137.5V142M342.5 143.5H336V142M342.5 142H336M318.5 137.5H328M109.5 257H112V260H109M113 182H126.5V186H113V182Z" stroke="#B27C40" stroke-width="0.5"/>
<path d="M237.5 139.5H240.5M237.5 145H243.5V139.5H240.5M240.5 139.5V136.5H237.5M291 113V118H296M277.5 187H282.5V191.5H277.5M308.5 198H302V186.5H314V192.5M302 137.5H319M327.5 137.5H336M309 248.5L306 243L311 240L315 245.5M137 207H130.5V212H137M102.5 254H109V260H102.5M293 162L316.5 155.5L318.5 162.5L295 169L293 162Z" stroke="#B27C40"/>
<path d="M183 328V322H188.5V328M232 280V274H238.5M204.5 260.5H213V266H204.5M207 192.5H213V186M197.5 196V190H201M204.5 190H201M201 190V186.5H204.5M148.5 196V168.5H142.5M63 168.5V162H38.5V168.5H57.5M63 168.5V174H57.5V168.5M63 168.5H57.5M29.5 131V137H35.5V131M62.5 122.5H69.5V115.5M48 211.5V205H53.5V211.5M51.5 275L57.5 281M65.5 281.5H72V278.25M72 275V278.25M72 278.25H75.5V275M94.5 309V314.5H99.5V309M118 303H124.5V296.5M146.5 278.5H133.5V269.5H140M158.5 156V171H167.5V177H179.5V171H188.5V156H158.5ZM167.5 134.5V133H179.5V134.5H167.5Z" stroke="#B27C40"/>
<path d="M133.5 275H140M186 236H180V241.11H186" stroke="#B27C40"/>
<circle cx="134.5" cy="224.5" r="2" stroke="#B27C40"/>
<path d="M329.5 137.5V123.5M306.5 137.5V110H314.5" stroke="#B27C40" stroke-opacity="0.23" stroke-width="0.5"/>
<path fill-rule="evenodd" clip-rule="evenodd" d="M62.0002 131.5H36V138H29V131.5H1.74048V150.237L4.74365 150.237V156L19.9993 156V174.309H1.74048V174.5H57V169H38V161.5H62L62.0002 131.5Z" fill="#F08234" fill-opacity="0.23"/>
<path d="M34.6367 149.699H33.1758C33.1341 149.46 33.0573 149.247 32.9453 149.062C32.8333 148.875 32.694 148.716 32.5273 148.586C32.3607 148.456 32.1706 148.358 31.957 148.293C31.7461 148.225 31.5182 148.191 31.2734 148.191C30.8385 148.191 30.4531 148.301 30.1172 148.52C29.7813 148.736 29.5182 149.053 29.3281 149.473C29.138 149.889 29.043 150.398 29.043 151C29.043 151.612 29.138 152.128 29.3281 152.547C29.5208 152.964 29.7839 153.279 30.1172 153.492C30.4531 153.703 30.8372 153.809 31.2695 153.809C31.5091 153.809 31.7331 153.777 31.9414 153.715C32.1523 153.65 32.3411 153.555 32.5078 153.43C32.6771 153.305 32.819 153.151 32.9336 152.969C33.0508 152.786 33.1315 152.578 33.1758 152.344L34.6367 152.352C34.582 152.732 34.4635 153.089 34.2812 153.422C34.1016 153.755 33.8659 154.049 33.5742 154.305C33.2826 154.557 32.9414 154.755 32.5508 154.898C32.1602 155.039 31.7266 155.109 31.25 155.109C30.5469 155.109 29.9193 154.947 29.3672 154.621C28.8151 154.296 28.3802 153.826 28.0625 153.211C27.7448 152.596 27.5859 151.859 27.5859 151C27.5859 150.138 27.7461 149.401 28.0664 148.789C28.3867 148.174 28.8229 147.704 29.375 147.379C29.9271 147.053 30.5521 146.891 31.25 146.891C31.6953 146.891 32.1094 146.953 32.4922 147.078C32.875 147.203 33.2161 147.387 33.5156 147.629C33.8151 147.868 34.0612 148.163 34.2539 148.512C34.4492 148.858 34.5768 149.254 34.6367 149.699Z" fill="white"/>
<path fill-rule="evenodd" clip-rule="evenodd" d="M152 146H195V184H152V146ZM158 156H188V171H179V177H168V171H158V156Z" fill="#F08234" fill-opacity="0.23"/>
<path d="M170.789 170V162H173.852C174.43 162 174.91 162.091 175.293 162.273C175.678 162.453 175.966 162.699 176.156 163.012C176.349 163.324 176.445 163.678 176.445 164.074C176.445 164.4 176.383 164.678 176.258 164.91C176.133 165.139 175.965 165.326 175.754 165.469C175.543 165.612 175.307 165.715 175.047 165.777V165.855C175.331 165.871 175.603 165.958 175.863 166.117C176.126 166.273 176.341 166.495 176.508 166.781C176.674 167.068 176.758 167.414 176.758 167.82C176.758 168.234 176.658 168.607 176.457 168.937C176.257 169.266 175.954 169.525 175.551 169.715C175.147 169.905 174.639 170 174.027 170H170.789ZM172.238 168.789H173.797C174.323 168.789 174.702 168.689 174.934 168.488C175.168 168.285 175.285 168.025 175.285 167.707C175.285 167.47 175.227 167.257 175.109 167.066C174.992 166.874 174.826 166.723 174.609 166.613C174.393 166.501 174.135 166.445 173.836 166.445H172.238V168.789ZM172.238 165.402H173.672C173.922 165.402 174.147 165.357 174.348 165.266C174.548 165.172 174.706 165.04 174.82 164.871C174.938 164.699 174.996 164.496 174.996 164.262C174.996 163.952 174.887 163.697 174.668 163.496C174.452 163.296 174.13 163.195 173.703 163.195H172.238V165.402Z" fill="white"/>
<path fill-rule="evenodd" clip-rule="evenodd" d="M297.528 138H335.767V143.741H342V138H342.028L342.006 175.25H297.505L297.51 168.253L297.652 168.764L319.004 162.816L316.816 154.96L297.514 160.337L297.528 138Z" fill="#F08234" fill-opacity="0.23"/>
<path d="M324.816 157H323.27L326.086 149H327.875L330.695 157H329.148L327.012 150.641H326.949L324.816 157ZM324.867 153.863H329.086V155.027H324.867V153.863Z" fill="white"/>
</svg>
