<svg width="387" height="473" viewBox="0 0 387 473" fill="none" xmlns="http://www.w3.org/2000/svg">
<path fill-rule="evenodd" clip-rule="evenodd" d="M1 179.75V278.445H14.1593L30.6085 291.605V306.957L13.0627 321.213H5.93476V356.305L13.611 368.368H56.9272V384.817L66.7967 390.848L79.9561 372.754H82.6976L87.6324 375.496H88.729L91.4705 372.754H117.789L124.917 367.819H129.852L136.432 371.657H162.75V381.527L173.716 389.203V390.848L180.844 393.041L185.231 396.88V403.459L189.069 411.684H202.228V423.747L192.359 436.906V455H252.124V433.068L244.996 424.295V411.136H263.09L267.477 407.297H271.863L276.25 411.136L280.636 411.684L286.119 414.425L290.506 408.942L315.179 399.073L325.597 397.976L334.918 401.266V356.305H332.725V353.563H386.459V280.639L360.689 270.769V265.545H386.459V163.849H376.041V160.316H376.59V157.818H377.138V128.21H376.041V95.8595H253.221V110.115H251.576V90.6855H287.216V75.0238H266.38V70.6374H263.639V18H215.936V70.6374H213.194V75.0238H202.777L165.492 70.0891V90.9247L231.289 90.6855V110.115H229.095V95.8595H165.492V130.951H141.915V157.27H115.048V175.592H79.4078V168.236H55.8306V179.75H1ZM266.38 356.305V323.955H268.573V353.563H317.921V356.305H266.38ZM229.095 312.989V280.639H243.9V312.989H229.095ZM291.602 163.849V160.56H265.832V207.166H223.236V219.568H212.409V255.965H224.161V254.32H265.832V300.378H299.279V276.801H311.341V266.383H316.276V259.255H311.341V253.223H269.122V163.849H291.602ZM63.5069 215.939V251.03H129.852V238.419H178.651V198.393H193.455V184.137H225.257V150.142H213.743V147.949H180.296V192.91H164.944V215.939H63.5069ZM130.4 167.688V177.557H165.492V140.821H163.299V171.526H136.432L132.593 167.688H130.4ZM315.179 163.849V160.56H353.561V163.849H315.179ZM286.119 202.779V179.202L319.725 178.98V202.779H286.119ZM108.468 269.673V303.119H153.429V269.673H108.468ZM54.734 337.662V302.571H66.0006V312.989H141.915V314.634H137.528V337.662H102.985H88.729H54.734ZM150.139 325.6V337.662H205.518V302.571H194.552L202.228 321.762V332.179H164.944L150.139 325.6Z" fill="#271406"/>
<path d="M1 278.445V278.945H0.5V278.445H1ZM1 179.75H0.5V179.25H1V179.75ZM14.1593 278.445V277.945H14.3347L14.4717 278.055L14.1593 278.445ZM30.6085 291.605L30.9209 291.214L31.1085 291.364V291.605H30.6085ZM30.6085 306.957H31.1085V307.195L30.9238 307.345L30.6085 306.957ZM13.0627 321.213L13.378 321.601L13.2403 321.713H13.0627V321.213ZM5.93476 321.213H5.43476V320.713H5.93476V321.213ZM5.93476 356.305L5.51292 356.573L5.43476 356.45V356.305H5.93476ZM13.611 368.368V368.868H13.3366L13.1892 368.636L13.611 368.368ZM56.9272 368.368V367.868H57.4272V368.368H56.9272ZM56.9272 384.817L56.6665 385.243L56.4272 385.097V384.817H56.9272ZM66.7967 390.848L67.2011 391.142L66.9297 391.515L66.536 391.275L66.7967 390.848ZM79.9561 372.754L79.5517 372.46L79.7015 372.254H79.9561V372.754ZM82.6976 372.754V372.254H82.8272L82.9404 372.317L82.6976 372.754ZM87.6324 375.496V375.996H87.5028L87.3896 375.933L87.6324 375.496ZM88.729 375.496L89.0825 375.849L88.9361 375.996H88.729V375.496ZM91.4705 372.754L91.117 372.401L91.2634 372.254H91.4705V372.754ZM117.789 372.754L118.074 373.165L117.945 373.254H117.789V372.754ZM124.917 367.819L124.633 367.408L124.761 367.319H124.917V367.819ZM129.852 367.819V367.319H129.987L130.104 367.387L129.852 367.819ZM136.432 371.657V372.157H136.296L136.18 372.089L136.432 371.657ZM162.75 371.657V371.157H163.25V371.657H162.75ZM162.75 381.527L162.464 381.937L162.25 381.787V381.527H162.75ZM173.716 389.203L174.003 388.794L174.216 388.943V389.203H173.716ZM173.716 390.848L173.569 391.326L173.216 391.217V390.848H173.716ZM180.844 393.041L180.991 392.564L181.093 392.595L181.174 392.665L180.844 393.041ZM185.231 396.88L185.56 396.503L185.731 396.653V396.88H185.231ZM185.231 403.459L184.778 403.671L184.731 403.57V403.459H185.231ZM189.069 411.684V412.184H188.751L188.616 411.895L189.069 411.684ZM202.228 411.684V411.184H202.728V411.684H202.228ZM202.228 423.747H202.728V423.913L202.628 424.047L202.228 423.747ZM192.359 436.906H191.859V436.739L191.959 436.606L192.359 436.906ZM192.359 455V455.5H191.859V455H192.359ZM252.124 455H252.624V455.5H252.124V455ZM252.124 433.068L252.512 432.752L252.624 432.89V433.068H252.124ZM244.996 424.295L244.608 424.61L244.496 424.472V424.295H244.996ZM244.996 411.136H244.496V410.636H244.996V411.136ZM263.09 411.136L263.42 411.512L263.278 411.636H263.09V411.136ZM267.477 407.297L267.148 406.921L267.289 406.797H267.477V407.297ZM271.863 407.297V406.797H272.051L272.193 406.921L271.863 407.297ZM276.25 411.136L276.188 411.632L276.036 411.613L275.92 411.512L276.25 411.136ZM280.636 411.684L280.698 411.188L280.783 411.198L280.86 411.237L280.636 411.684ZM286.119 414.425L286.51 414.738L286.257 415.053L285.896 414.873L286.119 414.425ZM290.506 408.942L290.115 408.63L290.198 408.527L290.32 408.478L290.506 408.942ZM315.179 399.073L314.994 398.609L315.058 398.583L315.127 398.576L315.179 399.073ZM325.597 397.976L325.545 397.479L325.657 397.467L325.764 397.505L325.597 397.976ZM334.918 401.266H335.418V401.973L334.752 401.737L334.918 401.266ZM334.918 356.305V355.805H335.418V356.305H334.918ZM332.725 356.305V356.805H332.225V356.305H332.725ZM332.725 353.563H332.225V353.063H332.725V353.563ZM386.459 353.563H386.959V354.063H386.459V353.563ZM386.459 280.639L386.638 280.172L386.959 280.295V280.639H386.459ZM360.689 270.769L360.51 271.236L360.189 271.113V270.769H360.689ZM360.689 265.545H360.189V265.045H360.689V265.545ZM386.459 265.545H386.959V266.045H386.459V265.545ZM386.459 163.849V163.349H386.959V163.849H386.459ZM376.041 163.849V164.349H375.541V163.849H376.041ZM376.041 160.316H375.541V159.816H376.041V160.316ZM376.59 160.316H377.09V160.816H376.59V160.316ZM376.59 157.818H376.09V157.318H376.59V157.818ZM377.138 157.818H377.638V158.318H377.138V157.818ZM377.138 128.21V127.71H377.638V128.21H377.138ZM376.041 128.21V128.71H375.541V128.21H376.041ZM376.041 95.8595V95.3595H376.541V95.8595H376.041ZM253.221 95.8595H252.721V95.3595H253.221V95.8595ZM253.221 110.115H253.721V110.615H253.221V110.115ZM251.576 110.115V110.615H251.076V110.115H251.576ZM251.576 90.6855H251.076V90.1855H251.576V90.6855ZM287.216 90.6855H287.716V91.1855H287.216V90.6855ZM287.216 75.0238V74.5238H287.716V75.0238H287.216ZM266.38 75.0238V75.5238H265.88V75.0238H266.38ZM266.38 70.6374V70.1374H266.88V70.6374H266.38ZM263.639 70.6374V71.1374H263.139V70.6374H263.639ZM263.639 18V17.5H264.139V18H263.639ZM215.936 18H215.436V17.5H215.936V18ZM215.936 70.6374H216.436V71.1374H215.936V70.6374ZM213.194 70.6374H212.694V70.1374H213.194V70.6374ZM213.194 75.0238H213.694V75.5238H213.194V75.0238ZM202.777 75.0238V75.5238H202.744L202.711 75.5195L202.777 75.0238ZM165.492 70.0891H164.992V69.5185L165.557 69.5934L165.492 70.0891ZM165.492 90.9247L165.494 91.4247L164.992 91.4265V90.9247H165.492ZM231.289 90.6855L231.287 90.1855L231.789 90.1837V90.6855H231.289ZM231.289 110.115H231.789V110.615H231.289V110.115ZM229.095 110.115V110.615H228.595V110.115H229.095ZM229.095 95.8595V95.3595H229.595V95.8595H229.095ZM165.492 95.8595H164.992V95.3595H165.492V95.8595ZM165.492 130.951H165.992V131.451H165.492V130.951ZM141.915 130.951H141.415V130.451H141.915V130.951ZM141.915 157.27H142.415V157.77H141.915V157.27ZM115.048 157.27H114.548V156.77H115.048V157.27ZM115.048 175.592H115.548V176.092H115.048V175.592ZM79.4078 175.592V176.092H78.9078V175.592H79.4078ZM79.4078 168.236V167.736H79.9078V168.236H79.4078ZM55.8306 168.236H55.3306V167.736H55.8306V168.236ZM55.8306 179.75H56.3306V180.25H55.8306V179.75ZM266.38 323.955H265.88V323.455H266.38V323.955ZM266.38 356.305V356.805H265.88V356.305H266.38ZM268.573 323.955V323.455H269.073V323.955H268.573ZM268.573 353.563V354.063H268.073V353.563H268.573ZM317.921 353.563V353.063H318.421V353.563H317.921ZM317.921 356.305H318.421V356.805H317.921V356.305ZM229.095 280.639H228.595V280.139H229.095V280.639ZM229.095 312.989V313.489H228.595V312.989H229.095ZM243.9 280.639V280.139H244.4V280.639H243.9ZM243.9 312.989H244.4V313.489H243.9V312.989ZM291.602 160.56V160.06H292.102V160.56H291.602ZM291.602 163.849H292.102V164.349H291.602V163.849ZM265.832 160.56H265.332V160.06H265.832V160.56ZM265.832 207.166H266.332V207.666H265.832V207.166ZM223.236 207.166H222.736V206.666H223.236V207.166ZM223.236 219.568H223.736V220.068H223.236V219.568ZM212.409 219.568H211.909V219.068H212.409V219.568ZM212.409 255.965V256.465H211.909V255.965H212.409ZM224.161 255.965H224.661V256.465H224.161V255.965ZM224.161 254.32H223.661V253.82H224.161V254.32ZM265.832 254.32V253.82H266.332V254.32H265.832ZM265.832 300.378V300.878H265.332V300.378H265.832ZM299.279 300.378H299.779V300.878H299.279V300.378ZM299.279 276.801H298.779V276.301H299.279V276.801ZM311.341 276.801H311.841V277.301H311.341V276.801ZM311.341 266.383H310.841V265.883H311.341V266.383ZM316.276 266.383H316.776V266.883H316.276V266.383ZM316.276 259.255V258.755H316.776V259.255H316.276ZM311.341 259.255V259.755H310.841V259.255H311.341ZM311.341 253.223V252.723H311.841V253.223H311.341ZM269.122 253.223V253.723H268.622V253.223H269.122ZM269.122 163.849H268.622V163.349H269.122V163.849ZM63.5069 251.03V251.53H63.0069V251.03H63.5069ZM63.5069 215.939H63.0069V215.439H63.5069V215.939ZM129.852 251.03H130.352V251.53H129.852V251.03ZM129.852 238.419H129.352V237.919H129.852V238.419ZM178.651 238.419H179.151V238.919H178.651V238.419ZM178.651 198.393H178.151V197.893H178.651V198.393ZM193.455 198.393H193.955V198.893H193.455V198.393ZM193.455 184.137H192.955V183.637H193.455V184.137ZM225.257 184.137H225.757V184.637H225.257V184.137ZM225.257 150.142V149.642H225.757V150.142H225.257ZM213.743 150.142V150.642H213.243V150.142H213.743ZM213.743 147.949V147.449H214.243V147.949H213.743ZM180.296 147.949H179.796V147.449H180.296V147.949ZM180.296 192.91H180.796V193.41H180.296V192.91ZM164.944 192.91H164.444V192.41H164.944V192.91ZM164.944 215.939H165.444V216.439H164.944V215.939ZM130.4 177.557V178.057H129.9V177.557H130.4ZM130.4 167.688H129.9V167.188H130.4V167.688ZM165.492 177.557H165.992V178.057H165.492V177.557ZM165.492 140.821V140.321H165.992V140.821H165.492ZM163.299 140.821H162.799V140.321H163.299V140.821ZM163.299 171.526H163.799V172.026H163.299V171.526ZM136.432 171.526V172.026H136.225L136.078 171.879L136.432 171.526ZM132.593 167.688V167.188H132.801L132.947 167.334L132.593 167.688ZM315.179 160.56H314.679V160.06H315.179V160.56ZM315.179 163.849V164.349H314.679V163.849H315.179ZM353.561 160.56V160.06H354.061V160.56H353.561ZM353.561 163.849H354.061V164.349H353.561V163.849ZM286.119 179.202H285.619V178.705L286.116 178.702L286.119 179.202ZM286.119 202.779V203.279H285.619V202.779H286.119ZM319.725 178.98L319.722 178.48L320.225 178.477V178.98H319.725ZM319.725 202.779H320.225V203.279H319.725V202.779ZM108.468 303.119V303.619H107.968V303.119H108.468ZM108.468 269.673H107.968V269.173H108.468V269.673ZM153.429 303.119H153.929V303.619H153.429V303.119ZM153.429 269.673V269.173H153.929V269.673H153.429ZM54.734 302.571H54.234V302.071H54.734V302.571ZM54.734 337.662V338.162H54.234V337.662H54.734ZM66.0006 302.571V302.071H66.5006V302.571H66.0006ZM66.0006 312.989V313.489H65.5006V312.989H66.0006ZM141.915 312.989V312.489H142.415V312.989H141.915ZM141.915 314.634H142.415V315.134H141.915V314.634ZM137.528 314.634H137.028V314.134H137.528V314.634ZM137.528 337.662H138.028V338.162H137.528V337.662ZM150.139 337.662V338.162H149.639V337.662H150.139ZM150.139 325.6H149.639V324.83L150.342 325.143L150.139 325.6ZM205.518 337.662H206.018V338.162H205.518V337.662ZM205.518 302.571V302.071H206.018V302.571H205.518ZM194.552 302.571L194.088 302.757L193.814 302.071H194.552V302.571ZM202.228 321.762L202.693 321.576L202.728 321.665V321.762H202.228ZM202.228 332.179H202.728V332.679H202.228V332.179ZM164.944 332.179V332.679H164.837L164.74 332.636L164.944 332.179ZM1 278.445H0.5V179.75H1H1.5V278.445H1ZM14.1593 278.445V278.945H1V278.445V277.945H14.1593V278.445ZM30.6085 291.605L30.2962 291.995L13.847 278.836L14.1593 278.445L14.4717 278.055L30.9209 291.214L30.6085 291.605ZM30.6085 306.957H30.1085V291.605H30.6085H31.1085V306.957H30.6085ZM13.0627 321.213L12.7474 320.825L30.2932 306.569L30.6085 306.957L30.9238 307.345L13.378 321.601L13.0627 321.213ZM5.93476 321.213V320.713H13.0627V321.213V321.713H5.93476V321.213ZM5.93476 356.305H5.43476V321.213H5.93476H6.43476V356.305H5.93476ZM13.611 368.368L13.1892 368.636L5.51292 356.573L5.93476 356.305L6.35659 356.036L14.0329 368.099L13.611 368.368ZM56.9272 368.368V368.868H13.611V368.368V367.868H56.9272V368.368ZM56.9272 384.817H56.4272V368.368H56.9272H57.4272V384.817H56.9272ZM66.7967 390.848L66.536 391.275L56.6665 385.243L56.9272 384.817L57.188 384.39L67.0575 390.422L66.7967 390.848ZM79.9561 372.754L80.3605 373.048L67.2011 391.142L66.7967 390.848L66.3924 390.554L79.5517 372.46L79.9561 372.754ZM82.6976 372.754V373.254H79.9561V372.754V372.254H82.6976V372.754ZM87.6324 375.496L87.3896 375.933L82.4548 373.191L82.6976 372.754L82.9404 372.317L87.8752 375.059L87.6324 375.496ZM88.729 375.496V375.996H87.6324V375.496V374.996H88.729V375.496ZM91.4705 372.754L91.8241 373.108L89.0825 375.849L88.729 375.496L88.3754 375.142L91.117 372.401L91.4705 372.754ZM117.789 372.754V373.254H91.4705V372.754V372.254H117.789V372.754ZM124.917 367.819L125.202 368.23L118.074 373.165L117.789 372.754L117.505 372.343L124.633 367.408L124.917 367.819ZM129.852 367.819V368.319H124.917V367.819V367.319H129.852V367.819ZM136.432 371.657L136.18 372.089L129.6 368.251L129.852 367.819L130.104 367.387L136.684 371.226L136.432 371.657ZM162.75 371.657V372.157H136.432V371.657V371.157H162.75V371.657ZM162.75 381.527H162.25V371.657H162.75H163.25V381.527H162.75ZM173.716 389.203L173.43 389.613L162.464 381.937L162.75 381.527L163.037 381.117L174.003 388.794L173.716 389.203ZM173.716 390.848H173.216V389.203H173.716H174.216V390.848H173.716ZM180.844 393.041L180.697 393.519L173.569 391.326L173.716 390.848L173.863 390.37L180.991 392.564L180.844 393.041ZM185.231 396.88L184.902 397.256L180.515 393.418L180.844 393.041L181.174 392.665L185.56 396.503L185.231 396.88ZM185.231 403.459H184.731V396.88H185.231H185.731V403.459H185.231ZM189.069 411.684L188.616 411.895L184.778 403.671L185.231 403.459L185.684 403.248L189.522 411.472L189.069 411.684ZM202.228 411.684V412.184H189.069V411.684V411.184H202.228V411.684ZM202.228 423.747H201.728V411.684H202.228H202.728V423.747H202.228ZM192.359 436.906L191.959 436.606L201.828 423.447L202.228 423.747L202.628 424.047L192.759 437.206L192.359 436.906ZM192.359 455H191.859V436.906H192.359H192.859V455H192.359ZM252.124 455V455.5H192.359V455V454.5H252.124V455ZM252.124 433.068H252.624V455H252.124H251.624V433.068H252.124ZM244.996 424.295L245.384 423.98L252.512 432.752L252.124 433.068L251.736 433.383L244.608 424.61L244.996 424.295ZM244.996 411.136H245.496V424.295H244.996H244.496V411.136H244.996ZM263.09 411.136V411.636H244.996V411.136V410.636H263.09V411.136ZM267.477 407.297L267.806 407.674L263.42 411.512L263.09 411.136L262.761 410.759L267.148 406.921L267.477 407.297ZM271.863 407.297V407.797H267.477V407.297V406.797H271.863V407.297ZM276.25 411.136L275.92 411.512L271.534 407.674L271.863 407.297L272.193 406.921L276.579 410.759L276.25 411.136ZM280.636 411.684L280.574 412.18L276.188 411.632L276.25 411.136L276.312 410.639L280.698 411.188L280.636 411.684ZM286.119 414.425L285.896 414.873L280.413 412.131L280.636 411.684L280.86 411.237L286.343 413.978L286.119 414.425ZM290.506 408.942L290.896 409.255L286.51 414.738L286.119 414.425L285.729 414.113L290.115 408.63L290.506 408.942ZM315.179 399.073L315.365 399.537L290.691 409.407L290.506 408.942L290.32 408.478L314.994 398.609L315.179 399.073ZM325.597 397.976L325.65 398.473L315.232 399.57L315.179 399.073L315.127 398.576L325.545 397.479L325.597 397.976ZM334.918 401.266L334.752 401.737L325.431 398.448L325.597 397.976L325.764 397.505L335.085 400.794L334.918 401.266ZM334.918 356.305H335.418V401.266H334.918H334.418V356.305H334.918ZM332.725 356.305V355.805H334.918V356.305V356.805H332.725V356.305ZM332.725 353.563H333.225V356.305H332.725H332.225V353.563H332.725ZM386.459 353.563V354.063H332.725V353.563V353.063H386.459V353.563ZM386.459 280.639H386.959V353.563H386.459H385.959V280.639H386.459ZM360.689 270.769L360.868 270.302L386.638 280.172L386.459 280.639L386.28 281.106L360.51 271.236L360.689 270.769ZM360.689 265.545H361.189V270.769H360.689H360.189V265.545H360.689ZM386.459 265.545V266.045H360.689V265.545V265.045H386.459V265.545ZM386.459 163.849H386.959V265.545H386.459H385.959V163.849H386.459ZM376.041 163.849V163.349H386.459V163.849V164.349H376.041V163.849ZM376.041 160.316H376.541V163.849H376.041H375.541V160.316H376.041ZM376.59 160.316V160.816H376.041V160.316V159.816H376.59V160.316ZM376.59 157.818H377.09V160.316H376.59H376.09V157.818H376.59ZM377.138 157.818V158.318H376.59V157.818V157.318H377.138V157.818ZM377.138 128.21H377.638V157.818H377.138H376.638V128.21H377.138ZM376.041 128.21V127.71H377.138V128.21V128.71H376.041V128.21ZM376.041 95.8595H376.541V128.21H376.041H375.541V95.8595H376.041ZM253.221 95.8595V95.3595H376.041V95.8595V96.3595H253.221V95.8595ZM253.221 110.115H252.721V95.8595H253.221H253.721V110.115H253.221ZM251.576 110.115V109.615H253.221V110.115V110.615H251.576V110.115ZM251.576 90.6855H252.076V110.115H251.576H251.076V90.6855H251.576ZM287.216 90.6855V91.1855H251.576V90.6855V90.1855H287.216V90.6855ZM287.216 75.0238H287.716V90.6855H287.216H286.716V75.0238H287.216ZM266.38 75.0238V74.5238H287.216V75.0238V75.5238H266.38V75.0238ZM266.38 70.6374H266.88V75.0238H266.38H265.88V70.6374H266.38ZM263.639 70.6374V70.1374H266.38V70.6374V71.1374H263.639V70.6374ZM263.639 18H264.139V70.6374H263.639H263.139V18H263.639ZM215.936 18V17.5H263.639V18V18.5H215.936V18ZM215.936 70.6374H215.436V18H215.936H216.436V70.6374H215.936ZM213.194 70.6374V70.1374H215.936V70.6374V71.1374H213.194V70.6374ZM213.194 75.0238H212.694V70.6374H213.194H213.694V75.0238H213.194ZM202.777 75.0238V74.5238H213.194V75.0238V75.5238H202.777V75.0238ZM165.492 70.0891L165.557 69.5934L202.842 74.5282L202.777 75.0238L202.711 75.5195L165.426 70.5848L165.492 70.0891ZM165.492 90.9247H164.992V70.0891H165.492H165.992V90.9247H165.492ZM231.289 90.6855L231.29 91.1855L165.494 91.4247L165.492 90.9247L165.49 90.4247L231.287 90.1855L231.289 90.6855ZM231.289 110.115H230.789V90.6855H231.289H231.789V110.115H231.289ZM229.095 110.115V109.615H231.289V110.115V110.615H229.095V110.115ZM229.095 95.8595H229.595V110.115H229.095H228.595V95.8595H229.095ZM165.492 95.8595V95.3595H229.095V95.8595V96.3595H165.492V95.8595ZM165.492 130.951H164.992V95.8595H165.492H165.992V130.951H165.492ZM141.915 130.951V130.451H165.492V130.951V131.451H141.915V130.951ZM141.915 157.27H141.415V130.951H141.915H142.415V157.27H141.915ZM115.048 157.27V156.77H141.915V157.27V157.77H115.048V157.27ZM115.048 175.592H114.548V157.27H115.048H115.548V175.592H115.048ZM79.4078 175.592V175.092H115.048V175.592V176.092H79.4078V175.592ZM79.4078 168.236H79.9078V175.592H79.4078H78.9078V168.236H79.4078ZM55.8306 168.236V167.736H79.4078V168.236V168.736H55.8306V168.236ZM55.8306 179.75H55.3306V168.236H55.8306H56.3306V179.75H55.8306ZM1 179.75V179.25H55.8306V179.75V180.25H1V179.75ZM266.38 323.955H266.88V356.305H266.38H265.88V323.955H266.38ZM268.573 323.955V324.455H266.38V323.955V323.455H268.573V323.955ZM268.573 353.563H268.073V323.955H268.573H269.073V353.563H268.573ZM317.921 353.563V354.063H268.573V353.563V353.063H317.921V353.563ZM317.921 356.305H317.421V353.563H317.921H318.421V356.305H317.921ZM266.38 356.305V355.805H317.921V356.305V356.805H266.38V356.305ZM229.095 280.639H229.595V312.989H229.095H228.595V280.639H229.095ZM243.9 280.639V281.139H229.095V280.639V280.139H243.9V280.639ZM243.9 312.989H243.4V280.639H243.9H244.4V312.989H243.9ZM229.095 312.989V312.489H243.9V312.989V313.489H229.095V312.989ZM291.602 160.56H292.102V163.849H291.602H291.102V160.56H291.602ZM265.832 160.56V160.06H291.602V160.56V161.06H265.832V160.56ZM265.832 207.166H265.332V160.56H265.832H266.332V207.166H265.832ZM223.236 207.166V206.666H265.832V207.166V207.666H223.236V207.166ZM223.236 219.568H222.736V207.166H223.236H223.736V219.568H223.236ZM212.409 219.568V219.068H223.236V219.568V220.068H212.409V219.568ZM212.409 255.965H211.909V219.568H212.409H212.909V255.965H212.409ZM224.161 255.965V256.465H212.409V255.965V255.465H224.161V255.965ZM224.161 254.32H224.661V255.965H224.161H223.661V254.32H224.161ZM265.832 254.32V254.82H224.161V254.32V253.82H265.832V254.32ZM265.832 300.378H265.332V254.32H265.832H266.332V300.378H265.832ZM299.279 300.378V300.878H265.832V300.378V299.878H299.279V300.378ZM299.279 276.801H299.779V300.378H299.279H298.779V276.801H299.279ZM311.341 276.801V277.301H299.279V276.801V276.301H311.341V276.801ZM311.341 266.383H311.841V276.801H311.341H310.841V266.383H311.341ZM316.276 266.383V266.883H311.341V266.383V265.883H316.276V266.383ZM316.276 259.255H316.776V266.383H316.276H315.776V259.255H316.276ZM311.341 259.255V258.755H316.276V259.255V259.755H311.341V259.255ZM311.341 253.223H311.841V259.255H311.341H310.841V253.223H311.341ZM269.122 253.223V252.723H311.341V253.223V253.723H269.122V253.223ZM269.122 163.849H269.622V253.223H269.122H268.622V163.849H269.122ZM291.602 163.849V164.349H269.122V163.849V163.349H291.602V163.849ZM63.5069 251.03H63.0069V215.939H63.5069H64.0069V251.03H63.5069ZM129.852 251.03V251.53H63.5069V251.03V250.53H129.852V251.03ZM129.852 238.419H130.352V251.03H129.852H129.352V238.419H129.852ZM178.651 238.419V238.919H129.852V238.419V237.919H178.651V238.419ZM178.651 198.393H179.151V238.419H178.651H178.151V198.393H178.651ZM193.455 198.393V198.893H178.651V198.393V197.893H193.455V198.393ZM193.455 184.137H193.955V198.393H193.455H192.955V184.137H193.455ZM225.257 184.137V184.637H193.455V184.137V183.637H225.257V184.137ZM225.257 150.142H225.757V184.137H225.257H224.757V150.142H225.257ZM213.743 150.142V149.642H225.257V150.142V150.642H213.743V150.142ZM213.743 147.949H214.243V150.142H213.743H213.243V147.949H213.743ZM180.296 147.949V147.449H213.743V147.949V148.449H180.296V147.949ZM180.296 192.91H179.796V147.949H180.296H180.796V192.91H180.296ZM164.944 192.91V192.41H180.296V192.91V193.41H164.944V192.91ZM164.944 215.939H164.444V192.91H164.944H165.444V215.939H164.944ZM63.5069 215.939V215.439H164.944V215.939V216.439H63.5069V215.939ZM130.4 177.557H129.9V167.688H130.4H130.9V177.557H130.4ZM165.492 177.557V178.057H130.4V177.557V177.057H165.492V177.557ZM165.492 140.821H165.992V177.557H165.492H164.992V140.821H165.492ZM163.299 140.821V140.321H165.492V140.821V141.321H163.299V140.821ZM163.299 171.526H162.799V140.821H163.299H163.799V171.526H163.299ZM136.432 171.526V171.026H163.299V171.526V172.026H136.432V171.526ZM132.593 167.688L132.947 167.334L136.785 171.172L136.432 171.526L136.078 171.879L132.24 168.041L132.593 167.688ZM130.4 167.688V167.188H132.593V167.688V168.188H130.4V167.688ZM315.179 160.56H315.679V163.849H315.179H314.679V160.56H315.179ZM353.561 160.56V161.06H315.179V160.56V160.06H353.561V160.56ZM353.561 163.849H353.061V160.56H353.561H354.061V163.849H353.561ZM315.179 163.849V163.349H353.561V163.849V164.349H315.179V163.849ZM286.119 179.202H286.619V202.779H286.119H285.619V179.202H286.119ZM319.725 178.98L319.728 179.48L286.122 179.702L286.119 179.202L286.116 178.702L319.722 178.48L319.725 178.98ZM319.725 202.779H319.225V178.98H319.725H320.225V202.779H319.725ZM286.119 202.779V202.279H319.725V202.779V203.279H286.119V202.779ZM108.468 303.119H107.968V269.673H108.468H108.968V303.119H108.468ZM153.429 303.119V303.619H108.468V303.119V302.619H153.429V303.119ZM153.429 269.673H153.929V303.119H153.429H152.929V269.673H153.429ZM108.468 269.673V269.173H153.429V269.673V270.173H108.468V269.673ZM54.734 302.571H55.234V337.662H54.734H54.234V302.571H54.734ZM66.0006 302.571V303.071H54.734V302.571V302.071H66.0006V302.571ZM66.0006 312.989H65.5006V302.571H66.0006H66.5006V312.989H66.0006ZM141.915 312.989V313.489H66.0006V312.989V312.489H141.915V312.989ZM141.915 314.634H141.415V312.989H141.915H142.415V314.634H141.915ZM137.528 314.634V314.134H141.915V314.634V315.134H137.528V314.634ZM137.528 337.662H137.028V314.634H137.528H138.028V337.662H137.528ZM102.985 337.662V337.162H137.528V337.662V338.162H102.985V337.662ZM88.729 337.662V337.162H102.985V337.662V338.162H88.729V337.662ZM54.734 337.662V337.162H88.729V337.662V338.162H54.734V337.662ZM150.139 337.662H149.639V325.6H150.139H150.639V337.662H150.139ZM205.518 337.662V338.162H150.139V337.662V337.162H205.518V337.662ZM205.518 302.571H206.018V337.662H205.518H205.018V302.571H205.518ZM194.552 302.571V302.071H205.518V302.571V303.071H194.552V302.571ZM202.228 321.762L201.764 321.947L194.088 302.757L194.552 302.571L195.016 302.385L202.693 321.576L202.228 321.762ZM202.228 332.179H201.728V321.762H202.228H202.728V332.179H202.228ZM164.944 332.179V331.679H202.228V332.179V332.679H164.944V332.179ZM150.139 325.6L150.342 325.143L165.147 331.723L164.944 332.179L164.74 332.636L149.936 326.057L150.139 325.6Z" fill="#B27C40"/>
<path d="M161.654 371.109V359.046H162.75M162.75 350.822H161.654V337.662" stroke="#B27C40" stroke-opacity="0.23" stroke-width="0.5"/>
<path d="M137.528 369.464H150.139M150.139 369.464V371.657M150.139 369.464C150.139 369.026 150.139 366.723 150.139 365.626M150.139 359.595V350.274M150.139 344.242V339.856M150.139 337.662V339.856M150.139 339.856H137.528" stroke="#B27C40" stroke-opacity="0.23"/>
<path d="M313.535 319.02V331.083M353.013 319.02V331.083M268.574 343.146H386.459M328.339 369.464C328.339 370.342 328.339 374.947 328.339 377.141H332.177M334.919 377.141H332.177M332.177 377.141V379.882H334.919M154.526 327.793L156.171 324.503L172.072 332.179M198.39 332.179V312.989" stroke="#B27C40" stroke-width="0.5"/>
<path d="M354.657 213.197V228.001M354.657 228.001H315.179M354.657 228.001V238.967H348.078M339.853 238.967H315.179M253.221 107.374C254.098 107.374 260.166 107.374 263.09 107.374M263.09 107.374V111.76H270.218V111.212M263.09 107.374V104.084M270.218 104.084V111.212M270.218 104.084H270.766M270.218 104.084H263.09M278.991 104.084V109.567M278.991 104.084H283.378M278.991 104.084H270.766M270.218 111.212H278.991V109.567M278.991 109.567H283.378M285.571 95.8595V109.567H283.378M283.378 109.567V104.084M283.378 95.8595V104.084M270.766 95.8595V104.084M263.09 95.8595V104.084M230.74 135.886V110.115M252.124 135.886V113.954M252.124 110.115V113.954M252.124 113.954H254.317C255.286 111.053 256.237 110.44 258.155 110.115V107.922M229.095 109.567C228.937 109.567 226.068 109.567 221.967 109.567M196.745 95.8595V109.567C197.348 109.567 197.986 109.567 198.652 109.567M198.652 109.567V102.713M198.652 109.567C201.483 109.567 204.834 109.567 208.26 109.567M198.652 95.8595V102.713M198.652 102.713H208.26M208.26 102.713V109.567M208.26 102.713V97.5044M208.26 95.8595V97.5044M208.26 109.567C213.097 109.567 218.085 109.567 221.967 109.567M208.26 97.5044H221.967M221.967 97.5044V95.8595M221.967 97.5044V101.891M221.967 109.567V101.891M221.967 101.891H229.095M141.366 157.27H147.946V151.787H141.915M253.769 207.166V173.719H255.414M265.832 173.719H258.704M255.414 173.719V169.881H258.704M255.414 173.719H258.704M258.704 169.881V173.719M258.704 169.881V167.139H261.994M265.832 167.139H262.268H261.994M261.994 167.139V163.301H265.832M252.124 254.32V261.448H258.704M265.283 261.448H258.704M258.704 261.448V254.32M202.228 411.684V405.104M202.228 384.817V405.104M245.544 384.817V411.136M202.228 405.104H194.004M188.521 410.587V405.104H194.004M194.004 411.684V405.104" stroke="#B27C40"/>
<path d="M339.305 238.967H349.174M334.918 288.315V300.378M337.66 319.02V314.085H339.853M339.853 314.085H347.529V318.472M339.853 314.085V318.472M339.853 319.02V318.472M347.529 319.02V318.472M347.529 318.472H339.853" stroke="#B27C40" stroke-width="0.5"/>
<path d="M60.217 269.673H88.7289M47.606 283.38H70.0865M78.8594 283.38H81.6009M88.7289 283.38H84.8908M66.2484 302.571H70.0865V303.668H66.2484M108.468 303.119H87.084M81.6009 283.38V279.542H84.8908V283.38M81.6009 283.38H84.8908M124.369 251.03V257.61H129.852V251.03M153.429 303.119H159.46V302.023H153.429M179.748 302.023V303.119H166.588V302.023H178.651M179.748 302.023V210.456M179.748 302.023H178.651M178.651 245.547V302.023M192.359 210.456V269.673M193.455 210.456V230.743M193.455 245.547V269.673M193.455 280.09V303.119H194.552M192.359 280.09V284.477M192.359 303.668V284.477M192.359 284.477H188.521V280.639H191.81M218.677 332.728V312.989H229.095M185.231 347.532H162.202M142.463 337.663H137.528M148.494 337.663H150.688M81.6009 372.754V353.563H110.661V372.754M280.088 369.464C280.526 369.464 316.459 369.464 334.37 369.464M312.986 331.083H353.561M353.561 319.02H346.981M340.401 319.02H329.984M321.759 319.02H312.986M386.459 311.892H374.945V304.764H386.459M360.14 304.764V288.315H355.206M315.728 304.764V288.315H321.759M321.759 288.315V300.378H355.206V288.315M321.759 288.315H355.206M78.8594 302.571H88.1806V303.668H78.8594V302.571ZM367.268 333.276L366.72 326.148L373.848 325.6L374.396 332.728L367.268 333.276Z" stroke="#B27C40"/>
<path d="M330.532 300.378C330.532 299.939 330.532 292.153 330.532 288.315M292.15 300.378V320.665H299.278V300.378M269.122 242.257C269.56 242.257 273.691 242.257 275.701 242.257V242.806M275.701 253.223V246.644M279.539 246.644V242.806M279.539 246.644H282.829M279.539 246.644H275.701M279.539 242.806H275.701M279.539 242.806H282.829V246.644M275.701 242.806V246.644M282.829 246.644V253.223M292.699 253.223V244.45H300.375V253.223M364.527 178.654C363.65 178.654 334.187 178.654 319.566 178.654M325.597 190.168H386.459M319.566 202.779H346.981M360.689 266.383V253.223H376.59V213.197H353.561V209.359M353.561 209.359V202.779H346.981M353.561 209.359H346.981V202.779" stroke="#B27C40"/>
<path d="M110.661 215.939V209.359H117.241V215.939M130.948 215.939V204.424M164.943 192.91H130.948V204.424M164.943 204.424H130.948" stroke="#B27C40"/>
<path d="M47.606 269.673H51.4441" stroke="#B27C40"/>
<path d="M35.5433 232.388H22.3839V198.941H35.5433V226.356M35.5433 232.388H42.6713V226.356H35.5433M35.5433 232.388V226.356M1 189.62H4.83814V185.233M4.83814 185.233H8.67629V179.75M4.83814 185.233H1M87.0841 192.91H63.5069V203.876H96.4053V192.91H93.6637M87.0841 192.91V185.782H93.6637V192.91M87.0841 192.91H93.6637" stroke="#B27C40"/>
<path d="M93.6636 189.072C95.7658 188.945 96.2412 189.987 96.4051 192.91" stroke="#B27C40"/>
<path d="M311.341 253.223C311.78 253.223 329.435 253.223 338.208 253.223V276.801H311.341M311.341 270.769H331.629V266.383H316.276M332.177 266.383H333.274V259.255H316.276" stroke="#B27C40"/>
<path d="M48.1543 283.38V269.673M88.1806 269.673V283.38M69.5382 283.38V303.119M79.4077 283.38V303.119M113.951 312.989V309.699H117.241V312.989M169.33 303.119V306.409H173.168V303.119M159.46 302.571H166.588M170.427 302.023V294.346H153.429M193.455 280.639V269.124M205.518 302.571H229.095M218.677 321.213C219.116 321.213 226.537 321.213 230.192 321.213M230.192 321.213H234.03V312.989H230.192V321.213ZM162.75 371.657V347.532" stroke="#B27C40" stroke-width="0.5"/>
<path d="M137.528 371.658V337.663M56.927 370.561L64.055 385.913M64.055 385.913H67.3449L68.9898 388.107M64.055 385.913L63.8357 386.462M62.9584 388.655L63.8357 386.462M63.8357 386.462L61.8618 384.817H61.3135M59.6686 386.462L60.7652 384.817H61.3135M61.3135 384.817V381.527L59.6686 379.334H56.927M7.57949 358.498L9.22441 356.853V352.467L5.93457 350.274M189.069 147.949V144.659H192.907V147.949M319.566 178.654V174.267H323.952V178.654M315.728 238.967V228.001M283.377 160.56H287.764C288.665 158.785 288.76 157.917 287.764 156.722H283.377C281.937 157.835 281.778 158.634 283.377 160.56Z" stroke="#B27C40" stroke-width="0.5"/>
<path d="M245.544 405.104H252.672M252.672 405.104V408.394M252.672 405.104H259.8V408.394M256.511 408.394V411.136H252.672V408.394M256.511 408.394H252.672M256.511 408.394H259.8M259.8 408.394V411.136M381.524 163.849V170.429H386.459M321.211 319.02H330.532M292.15 320.665C291.712 320.665 287.947 320.665 286.119 320.665M272.96 408.394L274.056 405.652L278.443 406.749V408.942M278.443 408.942L276.798 411.136M278.443 408.942L280.636 410.587M280.636 410.587L280.088 411.684M280.636 410.587L282.829 406.749L287.216 406.201L289.409 407.846V410.587M297.634 406.201L300.375 402.911H300.923L302.02 401.814H304.213M304.213 401.814V403.459M304.213 401.814V399.621L307.503 397.428L310.793 400.718M317.921 399.073V396.331L320.114 395.235H323.952L324.262 395.545M325.049 397.976V396.331L324.262 395.545M324.262 395.545L326.694 392.493L329.984 390.848L334.918 393.041M330.532 95.8595V109.567H333.273V95.8595" stroke="#B27C40" stroke-width="0.5"/>
<path d="M50.896 269.673C51.7733 269.673 57.8412 269.673 60.7655 269.673" stroke="#B27C40" stroke-width="0.5"/>
<path d="M179.748 245.547H192.359M192.359 231.291H179.2" stroke="#B27C40" stroke-opacity="0.23" stroke-width="0.5"/>
<path d="M326.694 353.563H332.725M326.694 353.563V346.435H334.37V353.563M326.694 353.563C326.255 353.563 320.662 353.563 317.921 353.563M55.2822 269.673V276.8H81.0526V269.673" stroke="#B27C40" stroke-opacity="0.23"/>
<path fill-rule="evenodd" clip-rule="evenodd" d="M299.827 353.015H385.911V311.892H374.945V304.764L299.827 304.764V353.015ZM385.911 304.764L386.459 304.764V311.892H385.911V304.764ZM367.268 333.276L366.72 326.148L373.848 325.6L374.396 332.728L367.268 333.276Z" fill="#F08234" fill-opacity="0.2"/>
<path d="M361.409 320.151H359.862L362.678 312.151H364.467L367.288 320.151H365.741L363.604 313.791H363.542L361.409 320.151ZM361.459 317.014H365.678V318.178H361.459V317.014Z" fill="white"/>
<path d="M54.7339 302.571H95.3091V251.031H63.5073V244.45H40.478V308.054H54.7339V302.571Z" fill="#F08234" fill-opacity="0.23"/>
<path d="M48.9434 294.928V286.928H52.0059C52.584 286.928 53.0645 287.02 53.4473 287.202C53.8327 287.382 54.1204 287.628 54.3105 287.94C54.5033 288.253 54.5996 288.607 54.5996 289.003C54.5996 289.328 54.5371 289.607 54.4121 289.839C54.2871 290.068 54.1191 290.254 53.9082 290.397C53.6973 290.54 53.4616 290.643 53.2012 290.706V290.784C53.485 290.8 53.7572 290.887 54.0176 291.046C54.2806 291.202 54.4954 291.423 54.6621 291.71C54.8288 291.996 54.9121 292.343 54.9121 292.749C54.9121 293.163 54.8118 293.535 54.6113 293.866C54.4108 294.194 54.1087 294.453 53.7051 294.643C53.3014 294.833 52.7936 294.928 52.1816 294.928H48.9434ZM50.3926 293.718H51.9512C52.4772 293.718 52.8561 293.617 53.0879 293.417C53.3223 293.214 53.4395 292.953 53.4395 292.635C53.4395 292.399 53.3809 292.185 53.2637 291.995C53.1465 291.802 52.9798 291.651 52.7637 291.542C52.5475 291.43 52.2897 291.374 51.9902 291.374H50.3926V293.718ZM50.3926 290.331H51.8262C52.0762 290.331 52.3014 290.285 52.502 290.194C52.7025 290.1 52.86 289.969 52.9746 289.8C53.0918 289.628 53.1504 289.425 53.1504 289.19C53.1504 288.88 53.041 288.625 52.8223 288.425C52.6061 288.224 52.2845 288.124 51.8574 288.124H50.3926V290.331Z" fill="white"/>
<path d="M343.691 238.967V318.472" stroke="#B27C40" stroke-opacity="0.23" stroke-dasharray="3 3"/>
</svg>
