<svg width="353" height="436" viewBox="0 0 353 436" fill="none" xmlns="http://www.w3.org/2000/svg">
<path fill-rule="evenodd" clip-rule="evenodd" d="M1 269V179H13L28 167V153L12 140H5.5V108L12.5 97H52V82L61 76.5L73 93H75.5L80 90.5H81L83.5 93H107.5L114 97.5H118.5L124.5 94H148.5V85L158.5 78V76.5L165 74.5L169 71V65L172.5 57.5H184.5V46.5L175.5 34.5V18H230V38L223.5 46V58H240L244 61.5H248L252 58L256 57.5L261 55L265 60L287.5 69L297 70L305.5 67V108H303.5V110.5H352.5V177L329 186V190.764H352.5V283.5H343V286.722H343.5V289H344V316H343V345.5H231V332.5H229.5V350.218H262V364.5H243V368.5H240.5V416.5H197V368.5H194.5V364.5H185L151 369V350L211 350.218V332.5H209V345.5H151V313.5H129.5V289.5H105V272.792H72.5V279.5H51V269H1ZM243 108V137.5H245V110.5H290V108H243ZM209 147.5V177H222.5V147.5H209ZM266 283.5V286.5H242.5V244H203.657V232.691H193.784V199.5H204.5V201H242.5V159H273V180.5H284V190H288.5V196.5H284V202H245.5V283.5H266ZM58 236V204H118.5V215.5H163V252H176.5V265H205.5V296H195V298H164.5V257H150.5V236H58ZM119 280V271H151V304.5H149V276.5H124.5L121 280H119ZM287.5 283.5V286.5H322.5V283.5H287.5ZM261 248V269.5L291.645 269.702V248H261ZM99 187V156.5H140V187H99ZM50 125V157H60.274V147.5H129.5V146H125.5V125H94H81H50ZM137 136V125H187.5V157H177.5L184.5 139.5V130H150.5L137 136Z" fill="#271406"/>
<path d="M1 179V178.5H0.5V179H1ZM1 269H0.5V269.5H1V269ZM13 179V179.5H13.1754L13.3123 179.39L13 179ZM28 167L28.3123 167.39L28.5 167.24V167H28ZM28 153H28.5V152.762L28.3153 152.612L28 153ZM12 140L12.3153 139.612L12.1775 139.5H12V140ZM5.5 140H5V140.5H5.5V140ZM5.5 108L5.07817 107.732L5 107.854V108H5.5ZM12.5 97V96.5H12.2255L12.0782 96.7316L12.5 97ZM52 97V97.5H52.5V97H52ZM52 82L51.7393 81.5734L51.5 81.7196V82H52ZM61 76.5L61.4044 76.2059L61.133 75.8328L60.7393 76.0734L61 76.5ZM73 93L72.5956 93.2941L72.7454 93.5H73V93ZM75.5 93V93.5H75.6296L75.7428 93.4371L75.5 93ZM80 90.5V90H79.8704L79.7572 90.0629L80 90.5ZM81 90.5L81.3536 90.1464L81.2071 90H81V90.5ZM83.5 93L83.1464 93.3536L83.2929 93.5H83.5V93ZM107.5 93L107.785 92.5889L107.656 92.5H107.5V93ZM114 97.5L113.715 97.9111L113.844 98H114V97.5ZM118.5 97.5V98H118.635L118.752 97.9319L118.5 97.5ZM124.5 94V93.5H124.365L124.248 93.5681L124.5 94ZM148.5 94V94.5H149V94H148.5ZM148.5 85L148.213 84.5904L148 84.7397V85H148.5ZM158.5 78L158.787 78.4096L159 78.2603V78H158.5ZM158.5 76.5L158.353 76.0221L158 76.1307V76.5H158.5ZM165 74.5L165.147 74.9779L165.249 74.9465L165.329 74.8763L165 74.5ZM169 71L169.329 71.3763L169.5 71.2269V71H169ZM169 65L168.547 64.7886L168.5 64.8891V65H169ZM172.5 57.5V57H172.182L172.047 57.2886L172.5 57.5ZM184.5 57.5V58H185V57.5H184.5ZM184.5 46.5H185V46.3333L184.9 46.2L184.5 46.5ZM175.5 34.5H175V34.6667L175.1 34.8L175.5 34.5ZM175.5 18V17.5H175V18H175.5ZM230 18H230.5V17.5H230V18ZM230 38L230.388 38.3153L230.5 38.1775V38H230ZM223.5 46L223.112 45.6847L223 45.8225V46H223.5ZM223.5 58H223V58.5H223.5V58ZM240 58L240.329 57.6237L240.188 57.5H240V58ZM244 61.5L243.671 61.8763L243.812 62H244V61.5ZM248 61.5V62H248.188L248.329 61.8763L248 61.5ZM252 58L251.938 57.5039L251.786 57.5229L251.671 57.6237L252 58ZM256 57.5L256.062 57.9961L256.147 57.9855L256.224 57.9472L256 57.5ZM261 55L261.39 54.6877L261.138 54.372L260.776 54.5528L261 55ZM265 60L264.61 60.3123L264.692 60.4153L264.814 60.4642L265 60ZM287.5 69L287.314 69.4642L287.379 69.49L287.448 69.4973L287.5 69ZM297 70L296.948 70.4973L297.06 70.5091L297.166 70.4715L297 70ZM305.5 67H306V66.2933L305.334 66.5285L305.5 67ZM305.5 108V108.5H306V108H305.5ZM303.5 108V107.5H303V108H303.5ZM303.5 110.5H303V111H303.5V110.5ZM352.5 110.5H353V110H352.5V110.5ZM352.5 177L352.679 177.467L353 177.344V177H352.5ZM329 186L328.821 185.533L328.5 185.656V186H329ZM329 190.764H328.5V191.264H329V190.764ZM352.5 190.764H353V190.264H352.5V190.764ZM352.5 283.5V284H353V283.5H352.5ZM343 283.5V283H342.5V283.5H343ZM343 286.722H342.5V287.222H343V286.722ZM343.5 286.722H344V286.222H343.5V286.722ZM343.5 289H343V289.5H343.5V289ZM344 289H344.5V288.5H344V289ZM344 316V316.5H344.5V316H344ZM343 316V315.5H342.5V316H343ZM343 345.5V346H343.5V345.5H343ZM231 345.5H230.5V346H231V345.5ZM231 332.5H231.5V332H231V332.5ZM229.5 332.5V332H229V332.5H229.5ZM229.5 350.218H229V350.718H229.5V350.218ZM262 350.218H262.5V349.718H262V350.218ZM262 364.5V365H262.5V364.5H262ZM243 364.5V364H242.5V364.5H243ZM243 368.5V369H243.5V368.5H243ZM240.5 368.5V368H240V368.5H240.5ZM240.5 416.5V417H241V416.5H240.5ZM197 416.5H196.5V417H197V416.5ZM197 368.5H197.5V368H197V368.5ZM194.5 368.5H194V369H194.5V368.5ZM194.5 364.5H195V364H194.5V364.5ZM185 364.5V364H184.967L184.934 364.004L185 364.5ZM151 369H150.5V369.571L151.066 369.496L151 369ZM151 350L151.002 349.5L150.5 349.498V350H151ZM211 350.218L210.998 350.718L211.5 350.72V350.218H211ZM211 332.5H211.5V332H211V332.5ZM209 332.5V332H208.5V332.5H209ZM209 345.5V346H209.5V345.5H209ZM151 345.5H150.5V346H151V345.5ZM151 313.5H151.5V313H151V313.5ZM129.5 313.5H129V314H129.5V313.5ZM129.5 289.5H130V289H129.5V289.5ZM105 289.5H104.5V290H105V289.5ZM105 272.792H105.5V272.292H105V272.792ZM72.5 272.792V272.292H72V272.792H72.5ZM72.5 279.5V280H73V279.5H72.5ZM51 279.5H50.5V280H51V279.5ZM51 269H51.5V268.5H51V269ZM243 137.5H242.5V138H243V137.5ZM243 108V107.5H242.5V108H243ZM245 137.5V138H245.5V137.5H245ZM245 110.5V110H244.5V110.5H245ZM290 110.5V111H290.5V110.5H290ZM290 108H290.5V107.5H290V108ZM209 177H208.5V177.5H209V177ZM209 147.5V147H208.5V147.5H209ZM222.5 177V177.5H223V177H222.5ZM222.5 147.5H223V147H222.5V147.5ZM266 286.5V287H266.5V286.5H266ZM266 283.5H266.5V283H266V283.5ZM242.5 286.5H242V287H242.5V286.5ZM242.5 244H243V243.5H242.5V244ZM203.657 244H203.157V244.5H203.657V244ZM203.657 232.691H204.157V232.191H203.657V232.691ZM193.784 232.691H193.284V233.191H193.784V232.691ZM193.784 199.5V199H193.284V199.5H193.784ZM204.5 199.5H205V199H204.5V199.5ZM204.5 201H204V201.5H204.5V201ZM242.5 201V201.5H243V201H242.5ZM242.5 159V158.5H242V159H242.5ZM273 159H273.5V158.5H273V159ZM273 180.5H272.5V181H273V180.5ZM284 180.5H284.5V180H284V180.5ZM284 190H283.5V190.5H284V190ZM288.5 190H289V189.5H288.5V190ZM288.5 196.5V197H289V196.5H288.5ZM284 196.5V196H283.5V196.5H284ZM284 202V202.5H284.5V202H284ZM245.5 202V201.5H245V202H245.5ZM245.5 283.5H245V284H245.5V283.5ZM58 204V203.5H57.5V204H58ZM58 236H57.5V236.5H58V236ZM118.5 204H119V203.5H118.5V204ZM118.5 215.5H118V216H118.5V215.5ZM163 215.5H163.5V215H163V215.5ZM163 252H162.5V252.5H163V252ZM176.5 252H177V251.5H176.5V252ZM176.5 265H176V265.5H176.5V265ZM205.5 265H206V264.5H205.5V265ZM205.5 296V296.5H206V296H205.5ZM195 296V295.5H194.5V296H195ZM195 298V298.5H195.5V298H195ZM164.5 298H164V298.5H164.5V298ZM164.5 257H165V256.5H164.5V257ZM150.5 257H150V257.5H150.5V257ZM150.5 236H151V235.5H150.5V236ZM119 271V270.5H118.5V271H119ZM119 280H118.5V280.5H119V280ZM151 271H151.5V270.5H151V271ZM151 304.5V305H151.5V304.5H151ZM149 304.5H148.5V305H149V304.5ZM149 276.5H149.5V276H149V276.5ZM124.5 276.5V276H124.293L124.146 276.146L124.5 276.5ZM121 280V280.5H121.207L121.354 280.354L121 280ZM287.5 286.5H287V287H287.5V286.5ZM287.5 283.5V283H287V283.5H287.5ZM322.5 286.5V287H323V286.5H322.5ZM322.5 283.5H323V283H322.5V283.5ZM261 269.5H260.5V269.997L260.997 270L261 269.5ZM261 248V247.5H260.5V248H261ZM291.645 269.702L291.642 270.202L292.145 270.206V269.702H291.645ZM291.645 248H292.145V247.5H291.645V248ZM99 156.5V156H98.5V156.5H99ZM99 187H98.5V187.5H99V187ZM140 156.5H140.5V156H140V156.5ZM140 187V187.5H140.5V187H140ZM50 157H49.5V157.5H50V157ZM50 125V124.5H49.5V125H50ZM60.274 157V157.5H60.774V157H60.274ZM60.274 147.5V147H59.774V147.5H60.274ZM129.5 147.5V148H130V147.5H129.5ZM129.5 146H130V145.5H129.5V146ZM125.5 146H125V146.5H125.5V146ZM125.5 125H126V124.5H125.5V125ZM137 125V124.5H136.5V125H137ZM137 136H136.5V136.769L137.203 136.457L137 136ZM187.5 125H188V124.5H187.5V125ZM187.5 157V157.5H188V157H187.5ZM177.5 157L177.036 156.814L176.761 157.5H177.5V157ZM184.5 139.5L184.964 139.686L185 139.596V139.5H184.5ZM184.5 130H185V129.5H184.5V130ZM150.5 130V129.5H150.394L150.297 129.543L150.5 130ZM0.5 179V269H1.5V179H0.5ZM13 178.5H1V179.5H13V178.5ZM27.6877 166.61L12.6877 178.61L13.3123 179.39L28.3123 167.39L27.6877 166.61ZM27.5 153V167H28.5V153H27.5ZM11.6847 140.388L27.6847 153.388L28.3153 152.612L12.3153 139.612L11.6847 140.388ZM5.5 140.5H12V139.5H5.5V140.5ZM5 108V140H6V108H5ZM12.0782 96.7316L5.07817 107.732L5.92183 108.268L12.9218 97.2684L12.0782 96.7316ZM52 96.5H12.5V97.5H52V96.5ZM51.5 82V97H52.5V82H51.5ZM60.7393 76.0734L51.7393 81.5734L52.2607 82.4266L61.2607 76.9266L60.7393 76.0734ZM73.4044 92.7059L61.4044 76.2059L60.5956 76.7941L72.5956 93.2941L73.4044 92.7059ZM75.5 92.5H73V93.5H75.5V92.5ZM79.7572 90.0629L75.2572 92.5629L75.7428 93.4371L80.2428 90.9371L79.7572 90.0629ZM81 90H80V91H81V90ZM83.8536 92.6464L81.3536 90.1464L80.6464 90.8536L83.1464 93.3536L83.8536 92.6464ZM107.5 92.5H83.5V93.5H107.5V92.5ZM114.285 97.0889L107.785 92.5889L107.215 93.4111L113.715 97.9111L114.285 97.0889ZM118.5 97H114V98H118.5V97ZM124.248 93.5681L118.248 97.0681L118.752 97.9319L124.752 94.4319L124.248 93.5681ZM148.5 93.5H124.5V94.5H148.5V93.5ZM148 85V94H149V85H148ZM158.213 77.5904L148.213 84.5904L148.787 85.4096L158.787 78.4096L158.213 77.5904ZM158 76.5V78H159V76.5H158ZM164.853 74.0221L158.353 76.0221L158.647 76.9779L165.147 74.9779L164.853 74.0221ZM168.671 70.6237L164.671 74.1237L165.329 74.8763L169.329 71.3763L168.671 70.6237ZM168.5 65V71H169.5V65H168.5ZM172.047 57.2886L168.547 64.7886L169.453 65.2114L172.953 57.7114L172.047 57.2886ZM184.5 57H172.5V58H184.5V57ZM184 46.5V57.5H185V46.5H184ZM175.1 34.8L184.1 46.8L184.9 46.2L175.9 34.2L175.1 34.8ZM175 18V34.5H176V18H175ZM230 17.5H175.5V18.5H230V17.5ZM230.5 38V18H229.5V38H230.5ZM223.888 46.3153L230.388 38.3153L229.612 37.6847L223.112 45.6847L223.888 46.3153ZM224 58V46H223V58H224ZM240 57.5H223.5V58.5H240V57.5ZM244.329 61.1237L240.329 57.6237L239.671 58.3763L243.671 61.8763L244.329 61.1237ZM248 61H244V62H248V61ZM251.671 57.6237L247.671 61.1237L248.329 61.8763L252.329 58.3763L251.671 57.6237ZM255.938 57.0039L251.938 57.5039L252.062 58.4961L256.062 57.9961L255.938 57.0039ZM260.776 54.5528L255.776 57.0528L256.224 57.9472L261.224 55.4472L260.776 54.5528ZM265.39 59.6877L261.39 54.6877L260.61 55.3123L264.61 60.3123L265.39 59.6877ZM287.686 68.5358L265.186 59.5358L264.814 60.4642L287.314 69.4642L287.686 68.5358ZM297.052 69.5027L287.552 68.5027L287.448 69.4973L296.948 70.4973L297.052 69.5027ZM305.334 66.5285L296.834 69.5285L297.166 70.4715L305.666 67.4715L305.334 66.5285ZM306 108V67H305V108H306ZM303.5 108.5H305.5V107.5H303.5V108.5ZM304 110.5V108H303V110.5H304ZM352.5 110H303.5V111H352.5V110ZM353 177V110.5H352V177H353ZM329.179 186.467L352.679 177.467L352.321 176.533L328.821 185.533L329.179 186.467ZM329.5 190.764V186H328.5V190.764H329.5ZM352.5 190.264H329V191.264H352.5V190.264ZM353 283.5V190.764H352V283.5H353ZM343 284H352.5V283H343V284ZM343.5 286.722V283.5H342.5V286.722H343.5ZM343.5 286.222H343V287.222H343.5V286.222ZM344 289V286.722H343V289H344ZM344 288.5H343.5V289.5H344V288.5ZM344.5 316V289H343.5V316H344.5ZM343 316.5H344V315.5H343V316.5ZM343.5 345.5V316H342.5V345.5H343.5ZM231 346H343V345H231V346ZM230.5 332.5V345.5H231.5V332.5H230.5ZM229.5 333H231V332H229.5V333ZM230 350.218V332.5H229V350.218H230ZM262 349.718H229.5V350.718H262V349.718ZM262.5 364.5V350.218H261.5V364.5H262.5ZM243 365H262V364H243V365ZM243.5 368.5V364.5H242.5V368.5H243.5ZM240.5 369H243V368H240.5V369ZM241 416.5V368.5H240V416.5H241ZM197 417H240.5V416H197V417ZM196.5 368.5V416.5H197.5V368.5H196.5ZM194.5 369H197V368H194.5V369ZM194 364.5V368.5H195V364.5H194ZM185 365H194.5V364H185V365ZM151.066 369.496L185.066 364.996L184.934 364.004L150.934 368.504L151.066 369.496ZM150.5 350V369H151.5V350H150.5ZM211.002 349.718L151.002 349.5L150.998 350.5L210.998 350.718L211.002 349.718ZM210.5 332.5V350.218H211.5V332.5H210.5ZM209 333H211V332H209V333ZM209.5 345.5V332.5H208.5V345.5H209.5ZM151 346H209V345H151V346ZM150.5 313.5V345.5H151.5V313.5H150.5ZM129.5 314H151V313H129.5V314ZM129 289.5V313.5H130V289.5H129ZM105 290H129.5V289H105V290ZM104.5 272.792V289.5H105.5V272.792H104.5ZM72.5 273.292H105V272.292H72.5V273.292ZM73 279.5V272.792H72V279.5H73ZM51 280H72.5V279H51V280ZM50.5 269V279.5H51.5V269H50.5ZM1 269.5H51V268.5H1V269.5ZM243.5 137.5V108H242.5V137.5H243.5ZM245 137H243V138H245V137ZM244.5 110.5V137.5H245.5V110.5H244.5ZM290 110H245V111H290V110ZM289.5 108V110.5H290.5V108H289.5ZM243 108.5H290V107.5H243V108.5ZM209.5 177V147.5H208.5V177H209.5ZM222.5 176.5H209V177.5H222.5V176.5ZM222 147.5V177H223V147.5H222ZM209 148H222.5V147H209V148ZM266.5 286.5V283.5H265.5V286.5H266.5ZM242.5 287H266V286H242.5V287ZM242 244V286.5H243V244H242ZM203.657 244.5H242.5V243.5H203.657V244.5ZM203.157 232.691V244H204.157V232.691H203.157ZM193.784 233.191H203.657V232.191H193.784V233.191ZM193.284 199.5V232.691H194.284V199.5H193.284ZM204.5 199H193.784V200H204.5V199ZM205 201V199.5H204V201H205ZM242.5 200.5H204.5V201.5H242.5V200.5ZM242 159V201H243V159H242ZM273 158.5H242.5V159.5H273V158.5ZM273.5 180.5V159H272.5V180.5H273.5ZM284 180H273V181H284V180ZM284.5 190V180.5H283.5V190H284.5ZM288.5 189.5H284V190.5H288.5V189.5ZM289 196.5V190H288V196.5H289ZM284 197H288.5V196H284V197ZM284.5 202V196.5H283.5V202H284.5ZM245.5 202.5H284V201.5H245.5V202.5ZM246 283.5V202H245V283.5H246ZM266 283H245.5V284H266V283ZM57.5 204V236H58.5V204H57.5ZM118.5 203.5H58V204.5H118.5V203.5ZM119 215.5V204H118V215.5H119ZM163 215H118.5V216H163V215ZM163.5 252V215.5H162.5V252H163.5ZM176.5 251.5H163V252.5H176.5V251.5ZM177 265V252H176V265H177ZM205.5 264.5H176.5V265.5H205.5V264.5ZM206 296V265H205V296H206ZM195 296.5H205.5V295.5H195V296.5ZM195.5 298V296H194.5V298H195.5ZM164.5 298.5H195V297.5H164.5V298.5ZM164 257V298H165V257H164ZM150.5 257.5H164.5V256.5H150.5V257.5ZM150 236V257H151V236H150ZM58 236.5H150.5V235.5H58V236.5ZM118.5 271V280H119.5V271H118.5ZM151 270.5H119V271.5H151V270.5ZM151.5 304.5V271H150.5V304.5H151.5ZM149 305H151V304H149V305ZM148.5 276.5V304.5H149.5V276.5H148.5ZM124.5 277H149V276H124.5V277ZM121.354 280.354L124.854 276.854L124.146 276.146L120.646 279.646L121.354 280.354ZM119 280.5H121V279.5H119V280.5ZM288 286.5V283.5H287V286.5H288ZM322.5 286H287.5V287H322.5V286ZM322 283.5V286.5H323V283.5H322ZM287.5 284H322.5V283H287.5V284ZM261.5 269.5V248H260.5V269.5H261.5ZM291.648 269.202L261.003 269L260.997 270L291.642 270.202L291.648 269.202ZM291.145 248V269.702H292.145V248H291.145ZM261 248.5H291.645V247.5H261V248.5ZM98.5 156.5V187H99.5V156.5H98.5ZM140 156H99V157H140V156ZM140.5 187V156.5H139.5V187H140.5ZM99 187.5H140V186.5H99V187.5ZM50.5 157V125H49.5V157H50.5ZM60.274 156.5H50V157.5H60.274V156.5ZM59.774 147.5V157H60.774V147.5H59.774ZM129.5 147H60.274V148H129.5V147ZM129 146V147.5H130V146H129ZM125.5 146.5H129.5V145.5H125.5V146.5ZM125 125V146H126V125H125ZM94 125.5H125.5V124.5H94V125.5ZM81 125.5H94V124.5H81V125.5ZM50 125.5H81V124.5H50V125.5ZM136.5 125V136H137.5V125H136.5ZM187.5 124.5H137V125.5H187.5V124.5ZM188 157V125H187V157H188ZM177.5 157.5H187.5V156.5H177.5V157.5ZM184.036 139.314L177.036 156.814L177.964 157.186L184.964 139.686L184.036 139.314ZM184 130V139.5H185V130H184ZM150.5 130.5H184.5V129.5H150.5V130.5ZM137.203 136.457L150.703 130.457L150.297 129.543L136.797 135.543L137.203 136.457Z" fill="#B27C40"/>
<path d="M147.5 94.5V105.5H148.5M148.5 113H147.5V125" stroke="#B27C40" stroke-opacity="0.23" stroke-width="0.5"/>
<path d="M125.5 96H137M137 96V94M137 96C137 96.4 137 98.5 137 99.5M137 105V113.5M137 119V123M137 125V123M137 123H125.5" stroke="#B27C40" stroke-opacity="0.23"/>
<path d="M286 142V131M322 142V131M245 120H352.5M299.5 96C299.5 95.2 299.5 91 299.5 89H303M305.5 89H303M303 89V86.5H305.5M141 134L142.5 137L157 130M181 130V147.5" stroke="#B27C40" stroke-width="0.5"/>
<path d="M323.5 238.5V225M323.5 225H287.5M323.5 225V215H317.5M310 215H287.5M231 335C231.8 335 237.333 335 240 335M240 335V331H246.5V331.5M240 335V338M246.5 338V331.5M246.5 338H247M246.5 338H240M254.5 338V333M254.5 338H258.5M254.5 338H247M246.5 331.5H254.5V333M254.5 333H258.5M260.5 345.5V333H258.5M258.5 333V338M258.5 345.5V338M247 345.5V338M240 345.5V338M210.5 309V332.5M230 309V329M230 332.5V329M230 329H232C232.883 331.645 233.75 332.204 235.5 332.5V334.5M209 333C208.856 333 206.24 333 202.5 333M179.5 345.5V333C180.05 333 180.631 333 181.239 333M181.239 333V339.25M181.239 333C183.82 333 186.876 333 190 333M181.239 345.5V339.25M181.239 339.25H190M190 339.25V333M190 339.25V344M190 345.5V344M190 333C194.412 333 198.959 333 202.5 333M190 344H202.5M202.5 344V345.5M202.5 344V340M202.5 333V340M202.5 340H209M129 289.5H135V294.5H129.5M231.5 244V274.5H233M242.5 274.5H236M233 274.5V278H236M233 274.5H236M236 278V274.5M236 278V280.5H239M242.5 280.5H239.25H239M239 280.5V284H242.5M230 201V194.5H236M242 194.5H236M236 194.5V201M184.5 57.5V63.5M184.5 82V63.5M224 82V58M184.5 63.5H177M172 58.5V63.5H177M177 57.5V63.5" stroke="#B27C40"/>
<path d="M309.5 215H318.5M305.5 170V159M308 142V146.5H310M310 146.5H317V142.5M310 146.5V142.5M310 142V142.5M317 142V142.5M317 142.5H310" stroke="#B27C40" stroke-width="0.5"/>
<path d="M55 187H81M43.5 174.5H64M72 174.5H74.5M81 174.5H77.5M60.5 157H64V156H60.5M99 156.5H79.5M74.5 174.5V178H77.5V174.5M74.5 174.5H77.5M113.5 204V198H118.5V204M140 156.5H145.5V157.5H140M164 157.5V156.5H152V157.5H163M164 157.5V241M164 157.5H163M163 209V157.5M175.5 241V187M176.5 241V222.5M176.5 209V187M176.5 177.5V156.5H177.5M175.5 177.5V173.5M175.5 156V173.5M175.5 173.5H172V177H175M199.5 129.5V147.5H209M169 116H148M130 125H125.5M135.5 125H137.5M74.5 93V110.5H101V93M255.5 96C255.9 96 288.667 96 305 96M285.5 131H322.5M322.5 142H316.5M310.5 142H301M293.5 142H285.5M352.5 148.5H342V155H352.5M328.5 155V170H324M288 155V170H293.5M293.5 170V159H324V170M293.5 170H324M72 157H80.5V156H72V157ZM335 129L334.5 135.5L341 136L341.5 129.5L335 129Z" stroke="#B27C40"/>
<path d="M301.5 159C301.5 159.4 301.5 166.5 301.5 170M266.5 159V140.5H273V159M245.5 212C245.9 212 249.667 212 251.5 212V211.5M251.5 202V208M255 208V211.5M255 208H258M255 208H251.5M255 211.5H251.5M255 211.5H258V208M251.5 211.5V208M258 208V202M267 202V210H274V202M332.5 270C331.7 270 304.833 270 291.5 270M297 259.5H352.5M291.5 248H316.5M329 190V202H343.5V238.5H322.5V242M322.5 242V248H316.5M322.5 242H316.5V248" stroke="#B27C40"/>
<path d="M101 236V242H107V236M119.5 236V246.5M150.5 257H119.5V246.5M150.5 246.5H119.5" stroke="#B27C40"/>
<path d="M43.5 187H47" stroke="#B27C40"/>
<path d="M32.5 221H20.5V251.5H32.5V226.5M32.5 221H39V226.5H32.5M32.5 221V226.5M1 260H4.5V264M4.5 264H8V269M4.5 264H1M79.5 257H58V247H88V257H85.5M79.5 257V263.5H85.5V257M79.5 257H85.5" stroke="#B27C40"/>
<path d="M85.5 260.5C87.417 260.615 87.8506 259.665 88 257" stroke="#B27C40"/>
<path d="M284 202C284.4 202 300.5 202 308.5 202V180.5H284M284 186H302.5V190H288.5M303 190H304V196.5H288.5" stroke="#B27C40"/>
<path d="M44 174.5V187M80.5 187V174.5M63.5 174.5V156.5M72.5 174.5V156.5M104 147.5V150.5H107V147.5M154.5 156.5V153.5H158V156.5M145.5 157H152M155.5 157.5V164.5H140M176.5 177V187.5M187.5 157H209M199.5 140C199.9 140 206.667 140 210 140M210 140H213.5V147.5H210V140ZM148.5 94V116" stroke="#B27C40" stroke-width="0.5"/>
<path d="M125.5 94V125M52 95L58.5 81M58.5 81H61.5L63 79M58.5 81L58.3 80.5M57.5 78.5L58.3 80.5M58.3 80.5L56.5 82H56M54.5 80.5L55.5 82H56M56 82V85L54.5 87H52M7 106L8.5 107.5V111.5L5.5 113.5M172.5 298V301H176V298M291.5 270V274H295.5V270M288 215V225M258.5 286.5H262.5C263.322 288.118 263.409 288.91 262.5 290H258.5C257.187 288.984 257.041 288.256 258.5 286.5Z" stroke="#B27C40" stroke-width="0.5"/>
<path d="M224 63.5H230.5M230.5 63.5V60.5M230.5 63.5H237V60.5M234 60.5V58H230.5V60.5M234 60.5H230.5M234 60.5H237M237 60.5V58M348 283.5V277.5H352.5M293 142H301.5M266.5 140.5C266.1 140.5 262.667 140.5 261 140.5M249 60.5L250 63L254 62V60M254 60L252.5 58M254 60L256 58.5M256 58.5L255.5 57.5M256 58.5L258 62L262 62.5L264 61V58.5M271.5 62.5L274 65.5H274.5L275.5 66.5H277.5M277.5 66.5V65M277.5 66.5V68.5L280.5 70.5L283.5 67.5M290 69V71.5L292 72.5H295.5L295.783 72.2172M296.5 70V71.5L295.783 72.2172M295.783 72.2172L298 75L301 76.5L305.5 74.5M301.5 345.5V333H304V345.5" stroke="#B27C40" stroke-width="0.5"/>
<path d="M46.5 187C47.3 187 52.8333 187 55.5 187" stroke="#B27C40" stroke-width="0.5"/>
<path d="M164 209H175.5M175.5 222H163.5" stroke="#B27C40" stroke-opacity="0.23" stroke-width="0.5"/>
<path d="M298 110.5H303.5M298 110.5V117H305V110.5M298 110.5C297.6 110.5 292.5 110.5 290 110.5M50.5 187V180.5H74V187" stroke="#B27C40" stroke-opacity="0.23"/>
<path fill-rule="evenodd" clip-rule="evenodd" d="M273.5 111H352V148.5H342V155H273.5V111ZM352 155H352.5V148.5H352V155ZM335 129L334.5 135.5L341 136L341.5 129.5L335 129Z" fill="#F08234" fill-opacity="0.2"/>
<path d="M329.816 149H328.27L331.086 141H332.875L335.695 149H334.148L332.012 142.641H331.949L329.816 149ZM329.867 145.863H334.086V147.027H329.867V145.863Z" fill="white"/>
<path fill-rule="evenodd" clip-rule="evenodd" d="M37 152H50V157H87V204H58V210H37V152Z" fill="#F08234" fill-opacity="0.23"/>
<path d="M44.7891 172V164H47.8516C48.4297 164 48.9102 164.091 49.293 164.273C49.6784 164.453 49.9661 164.699 50.1563 165.012C50.349 165.324 50.4453 165.678 50.4453 166.074C50.4453 166.4 50.3828 166.678 50.2578 166.91C50.1328 167.139 49.9648 167.326 49.7539 167.469C49.543 167.612 49.3073 167.715 49.0469 167.777V167.855C49.3307 167.871 49.6029 167.958 49.8633 168.117C50.1263 168.273 50.3411 168.495 50.5078 168.781C50.6745 169.068 50.7578 169.414 50.7578 169.82C50.7578 170.234 50.6576 170.607 50.457 170.937C50.2565 171.266 49.9544 171.525 49.5508 171.715C49.1471 171.905 48.6393 172 48.0273 172H44.7891ZM46.2383 170.789H47.7969C48.3229 170.789 48.7018 170.689 48.9336 170.488C49.168 170.285 49.2852 170.025 49.2852 169.707C49.2852 169.47 49.2266 169.257 49.1094 169.066C48.9922 168.874 48.8255 168.723 48.6094 168.613C48.3932 168.501 48.1354 168.445 47.8359 168.445H46.2383V170.789ZM46.2383 167.402H47.6719C47.9219 167.402 48.1471 167.357 48.3477 167.266C48.5482 167.172 48.7057 167.04 48.8203 166.871C48.9375 166.699 48.9961 166.496 48.9961 166.262C48.9961 165.952 48.8867 165.697 48.668 165.496C48.4518 165.296 48.1302 165.195 47.7031 165.195H46.2383V167.402Z" fill="white"/>
<path d="M313.5 215V142.5" stroke="#B27C40" stroke-opacity="0.23" stroke-dasharray="3 3"/>
</svg>
