<svg width="353" height="436" viewBox="0 0 353 436" fill="none" xmlns="http://www.w3.org/2000/svg">
<path fill-rule="evenodd" clip-rule="evenodd" d="M0.5 167V257H12.5L27.5 269V283L11.5 296H5V328L12 339H51.5V354L60.5 359.5L72.5 343H75L79.5 345.5H80.5L83 343H107L113.5 338.5H118L124 342H148V351L158 358V359.5L164.5 361.5L168.5 365V371L172 378.5H184V389.5L175 401.5V418H229.5V398L223 390V378H239.5L243.5 374.5H247.5L251.5 378L255.5 378.5L260.5 381L264.5 376L287 367L296.5 366L305 369V328H303V325.5H352V259L328.5 250V245.236H352V152.5H342.5V149.278H343V147H343.5V120H342.5V90.5H230.5V103.5H229V85.7819H261.5V71.5H242.5V67.5H240V19.5H196.5V67.5H194V71.5H184.5L150.5 67V86L210.5 85.7819V103.5H208.5V90.5H150.5V122.5H129V146.5H104.5V163.208H72V156.5H50.5V167H0.5ZM242.5 328V298.5H244.5V325.5H289.5V328H242.5ZM208.5 288.5V259H222V288.5H208.5ZM265.5 152.5V149.5H242V192H203.157V203.309H193.284V236.5H204V235H242V277H272.5V255.5H283.5V246H288V239.5H283.5V234H245V152.5H265.5ZM57.5 200V232H118V220.5H162.5V184H176V171H205V140H194.5V138H164V179H150V200H57.5ZM118.5 156V165H150.5V131.5H148.5V159.5H124L120.5 156H118.5ZM287 152.5V149.5H322V152.5H287ZM260.5 188V166.5L291.145 166.298V188H260.5ZM98.5 249V279.5H139.5V249H98.5ZM49.5 311V279H59.774V288.5H129V290H125V311H93.5H80.5H49.5ZM136.5 300V311H187V279H177L184 296.5V306H150L136.5 300Z" fill="#271406"/>
<path d="M0.5 257V257.5H0V257H0.5ZM0.5 167H0V166.5H0.5V167ZM12.5 257V256.5H12.6754L12.8123 256.61L12.5 257ZM27.5 269L27.8123 268.61L28 268.76V269H27.5ZM27.5 283H28V283.238L27.8153 283.388L27.5 283ZM11.5 296L11.8153 296.388L11.6775 296.5H11.5V296ZM5 296H4.5V295.5H5V296ZM5 328L4.57817 328.268L4.5 328.146V328H5ZM12 339V339.5H11.7255L11.5782 339.268L12 339ZM51.5 339V338.5H52V339H51.5ZM51.5 354L51.2393 354.427L51 354.28V354H51.5ZM60.5 359.5L60.9044 359.794L60.633 360.167L60.2393 359.927L60.5 359.5ZM72.5 343L72.0956 342.706L72.2454 342.5H72.5V343ZM75 343V342.5H75.1296L75.2428 342.563L75 343ZM79.5 345.5V346H79.3704L79.2572 345.937L79.5 345.5ZM80.5 345.5L80.8536 345.854L80.7071 346H80.5V345.5ZM83 343L82.6464 342.646L82.7929 342.5H83V343ZM107 343L107.285 343.411L107.156 343.5H107V343ZM113.5 338.5L113.215 338.089L113.344 338H113.5V338.5ZM118 338.5V338H118.135L118.252 338.068L118 338.5ZM124 342V342.5H123.865L123.748 342.432L124 342ZM148 342V341.5H148.5V342H148ZM148 351L147.713 351.41L147.5 351.26V351H148ZM158 358L158.287 357.59L158.5 357.74V358H158ZM158 359.5L157.853 359.978L157.5 359.869V359.5H158ZM164.5 361.5L164.647 361.022L164.749 361.053L164.829 361.124L164.5 361.5ZM168.5 365L168.829 364.624L169 364.773V365H168.5ZM168.5 371L168.047 371.211L168 371.111V371H168.5ZM172 378.5V379H171.682L171.547 378.711L172 378.5ZM184 378.5V378H184.5V378.5H184ZM184 389.5H184.5V389.667L184.4 389.8L184 389.5ZM175 401.5H174.5V401.333L174.6 401.2L175 401.5ZM175 418V418.5H174.5V418H175ZM229.5 418H230V418.5H229.5V418ZM229.5 398L229.888 397.685L230 397.822V398H229.5ZM223 390L222.612 390.315L222.5 390.178V390H223ZM223 378H222.5V377.5H223V378ZM239.5 378L239.829 378.376L239.688 378.5H239.5V378ZM243.5 374.5L243.171 374.124L243.312 374H243.5V374.5ZM247.5 374.5V374H247.688L247.829 374.124L247.5 374.5ZM251.5 378L251.438 378.496L251.286 378.477L251.171 378.376L251.5 378ZM255.5 378.5L255.562 378.004L255.647 378.014L255.724 378.053L255.5 378.5ZM260.5 381L260.89 381.312L260.638 381.628L260.276 381.447L260.5 381ZM264.5 376L264.11 375.688L264.192 375.585L264.314 375.536L264.5 376ZM287 367L286.814 366.536L286.879 366.51L286.948 366.503L287 367ZM296.5 366L296.448 365.503L296.56 365.491L296.666 365.529L296.5 366ZM305 369H305.5V369.707L304.834 369.471L305 369ZM305 328V327.5H305.5V328H305ZM303 328V328.5H302.5V328H303ZM303 325.5H302.5V325H303V325.5ZM352 325.5H352.5V326H352V325.5ZM352 259L352.179 258.533L352.5 258.656V259H352ZM328.5 250L328.321 250.467L328 250.344V250H328.5ZM328.5 245.236H328V244.736H328.5V245.236ZM352 245.236H352.5V245.736H352V245.236ZM352 152.5V152H352.5V152.5H352ZM342.5 152.5V153H342V152.5H342.5ZM342.5 149.278H342V148.778H342.5V149.278ZM343 149.278H343.5V149.778H343V149.278ZM343 147H342.5V146.5H343V147ZM343.5 147H344V147.5H343.5V147ZM343.5 120V119.5H344V120H343.5ZM342.5 120V120.5H342V120H342.5ZM342.5 90.5V90H343V90.5H342.5ZM230.5 90.5H230V90H230.5V90.5ZM230.5 103.5H231V104H230.5V103.5ZM229 103.5V104H228.5V103.5H229ZM229 85.7819H228.5V85.2819H229V85.7819ZM261.5 85.7819H262V86.2819H261.5V85.7819ZM261.5 71.5V71H262V71.5H261.5ZM242.5 71.5V72H242V71.5H242.5ZM242.5 67.5V67H243V67.5H242.5ZM240 67.5V68H239.5V67.5H240ZM240 19.5V19H240.5V19.5H240ZM196.5 19.5H196V19H196.5V19.5ZM196.5 67.5H197V68H196.5V67.5ZM194 67.5H193.5V67H194V67.5ZM194 71.5H194.5V72H194V71.5ZM184.5 71.5V72H184.467L184.434 71.9957L184.5 71.5ZM150.5 67H150V66.4295L150.566 66.5043L150.5 67ZM150.5 86L150.502 86.5L150 86.5018V86H150.5ZM210.5 85.7819L210.498 85.2819L211 85.28V85.7819H210.5ZM210.5 103.5H211V104H210.5V103.5ZM208.5 103.5V104H208V103.5H208.5ZM208.5 90.5V90H209V90.5H208.5ZM150.5 90.5H150V90H150.5V90.5ZM150.5 122.5H151V123H150.5V122.5ZM129 122.5H128.5V122H129V122.5ZM129 146.5H129.5V147H129V146.5ZM104.5 146.5H104V146H104.5V146.5ZM104.5 163.208H105V163.708H104.5V163.208ZM72 163.208V163.708H71.5V163.208H72ZM72 156.5V156H72.5V156.5H72ZM50.5 156.5H50V156H50.5V156.5ZM50.5 167H51V167.5H50.5V167ZM242.5 298.5H242V298H242.5V298.5ZM242.5 328V328.5H242V328H242.5ZM244.5 298.5V298H245V298.5H244.5ZM244.5 325.5V326H244V325.5H244.5ZM289.5 325.5V325H290V325.5H289.5ZM289.5 328H290V328.5H289.5V328ZM208.5 259H208V258.5H208.5V259ZM208.5 288.5V289H208V288.5H208.5ZM222 259V258.5H222.5V259H222ZM222 288.5H222.5V289H222V288.5ZM265.5 149.5V149H266V149.5H265.5ZM265.5 152.5H266V153H265.5V152.5ZM242 149.5H241.5V149H242V149.5ZM242 192H242.5V192.5H242V192ZM203.157 192H202.657V191.5H203.157V192ZM203.157 203.309H203.657V203.809H203.157V203.309ZM193.284 203.309H192.784V202.809H193.284V203.309ZM193.284 236.5V237H192.784V236.5H193.284ZM204 236.5H204.5V237H204V236.5ZM204 235H203.5V234.5H204V235ZM242 235V234.5H242.5V235H242ZM242 277V277.5H241.5V277H242ZM272.5 277H273V277.5H272.5V277ZM272.5 255.5H272V255H272.5V255.5ZM283.5 255.5H284V256H283.5V255.5ZM283.5 246H283V245.5H283.5V246ZM288 246H288.5V246.5H288V246ZM288 239.5V239H288.5V239.5H288ZM283.5 239.5V240H283V239.5H283.5ZM283.5 234V233.5H284V234H283.5ZM245 234V234.5H244.5V234H245ZM245 152.5H244.5V152H245V152.5ZM57.5 232V232.5H57V232H57.5ZM57.5 200H57V199.5H57.5V200ZM118 232H118.5V232.5H118V232ZM118 220.5H117.5V220H118V220.5ZM162.5 220.5H163V221H162.5V220.5ZM162.5 184H162V183.5H162.5V184ZM176 184H176.5V184.5H176V184ZM176 171H175.5V170.5H176V171ZM205 171H205.5V171.5H205V171ZM205 140V139.5H205.5V140H205ZM194.5 140V140.5H194V140H194.5ZM194.5 138V137.5H195V138H194.5ZM164 138H163.5V137.5H164V138ZM164 179H164.5V179.5H164V179ZM150 179H149.5V178.5H150V179ZM150 200H150.5V200.5H150V200ZM118.5 165V165.5H118V165H118.5ZM118.5 156H118V155.5H118.5V156ZM150.5 165H151V165.5H150.5V165ZM150.5 131.5V131H151V131.5H150.5ZM148.5 131.5H148V131H148.5V131.5ZM148.5 159.5H149V160H148.5V159.5ZM124 159.5V160H123.793L123.646 159.854L124 159.5ZM120.5 156V155.5H120.707L120.854 155.646L120.5 156ZM287 149.5H286.5V149H287V149.5ZM287 152.5V153H286.5V152.5H287ZM322 149.5V149H322.5V149.5H322ZM322 152.5H322.5V153H322V152.5ZM260.5 166.5H260V166.003L260.497 166L260.5 166.5ZM260.5 188V188.5H260V188H260.5ZM291.145 166.298L291.142 165.798L291.645 165.794V166.298H291.145ZM291.145 188H291.645V188.5H291.145V188ZM98.5 279.5V280H98V279.5H98.5ZM98.5 249H98V248.5H98.5V249ZM139.5 279.5H140V280H139.5V279.5ZM139.5 249V248.5H140V249H139.5ZM49.5 279H49V278.5H49.5V279ZM49.5 311V311.5H49V311H49.5ZM59.774 279V278.5H60.274V279H59.774ZM59.774 288.5V289H59.274V288.5H59.774ZM129 288.5V288H129.5V288.5H129ZM129 290H129.5V290.5H129V290ZM125 290H124.5V289.5H125V290ZM125 311H125.5V311.5H125V311ZM136.5 311V311.5H136V311H136.5ZM136.5 300H136V299.231L136.703 299.543L136.5 300ZM187 311H187.5V311.5H187V311ZM187 279V278.5H187.5V279H187ZM177 279L176.536 279.186L176.261 278.5H177V279ZM184 296.5L184.464 296.314L184.5 296.404V296.5H184ZM184 306H184.5V306.5H184V306ZM150 306V306.5H149.894L149.797 306.457L150 306ZM0.5 257H0V167H0.5H1V257H0.5ZM12.5 257V257.5H0.5V257V256.5H12.5V257ZM27.5 269L27.1877 269.39L12.1877 257.39L12.5 257L12.8123 256.61L27.8123 268.61L27.5 269ZM27.5 283H27V269H27.5H28V283H27.5ZM11.5 296L11.1847 295.612L27.1847 282.612L27.5 283L27.8153 283.388L11.8153 296.388L11.5 296ZM5 296V295.5H11.5V296V296.5H5V296ZM5 328H4.5V296H5H5.5V328H5ZM12 339L11.5782 339.268L4.57817 328.268L5 328L5.42183 327.732L12.4218 338.732L12 339ZM51.5 339V339.5H12V339V338.5H51.5V339ZM51.5 354H51V339H51.5H52V354H51.5ZM60.5 359.5L60.2393 359.927L51.2393 354.427L51.5 354L51.7607 353.573L60.7607 359.073L60.5 359.5ZM72.5 343L72.9044 343.294L60.9044 359.794L60.5 359.5L60.0956 359.206L72.0956 342.706L72.5 343ZM75 343V343.5H72.5V343V342.5H75V343ZM79.5 345.5L79.2572 345.937L74.7572 343.437L75 343L75.2428 342.563L79.7428 345.063L79.5 345.5ZM80.5 345.5V346H79.5V345.5V345H80.5V345.5ZM83 343L83.3536 343.354L80.8536 345.854L80.5 345.5L80.1464 345.146L82.6464 342.646L83 343ZM107 343V343.5H83V343V342.5H107V343ZM113.5 338.5L113.785 338.911L107.285 343.411L107 343L106.715 342.589L113.215 338.089L113.5 338.5ZM118 338.5V339H113.5V338.5V338H118V338.5ZM124 342L123.748 342.432L117.748 338.932L118 338.5L118.252 338.068L124.252 341.568L124 342ZM148 342V342.5H124V342V341.5H148V342ZM148 351H147.5V342H148H148.5V351H148ZM158 358L157.713 358.41L147.713 351.41L148 351L148.287 350.59L158.287 357.59L158 358ZM158 359.5H157.5V358H158H158.5V359.5H158ZM164.5 361.5L164.353 361.978L157.853 359.978L158 359.5L158.147 359.022L164.647 361.022L164.5 361.5ZM168.5 365L168.171 365.376L164.171 361.876L164.5 361.5L164.829 361.124L168.829 364.624L168.5 365ZM168.5 371H168V365H168.5H169V371H168.5ZM172 378.5L171.547 378.711L168.047 371.211L168.5 371L168.953 370.789L172.453 378.289L172 378.5ZM184 378.5V379H172V378.5V378H184V378.5ZM184 389.5H183.5V378.5H184H184.5V389.5H184ZM175 401.5L174.6 401.2L183.6 389.2L184 389.5L184.4 389.8L175.4 401.8L175 401.5ZM175 418H174.5V401.5H175H175.5V418H175ZM229.5 418V418.5H175V418V417.5H229.5V418ZM229.5 398H230V418H229.5H229V398H229.5ZM223 390L223.388 389.685L229.888 397.685L229.5 398L229.112 398.315L222.612 390.315L223 390ZM223 378H223.5V390H223H222.5V378H223ZM239.5 378V378.5H223V378V377.5H239.5V378ZM243.5 374.5L243.829 374.876L239.829 378.376L239.5 378L239.171 377.624L243.171 374.124L243.5 374.5ZM247.5 374.5V375H243.5V374.5V374H247.5V374.5ZM251.5 378L251.171 378.376L247.171 374.876L247.5 374.5L247.829 374.124L251.829 377.624L251.5 378ZM255.5 378.5L255.438 378.996L251.438 378.496L251.5 378L251.562 377.504L255.562 378.004L255.5 378.5ZM260.5 381L260.276 381.447L255.276 378.947L255.5 378.5L255.724 378.053L260.724 380.553L260.5 381ZM264.5 376L264.89 376.312L260.89 381.312L260.5 381L260.11 380.688L264.11 375.688L264.5 376ZM287 367L287.186 367.464L264.686 376.464L264.5 376L264.314 375.536L286.814 366.536L287 367ZM296.5 366L296.552 366.497L287.052 367.497L287 367L286.948 366.503L296.448 365.503L296.5 366ZM305 369L304.834 369.471L296.334 366.471L296.5 366L296.666 365.529L305.166 368.529L305 369ZM305 328H305.5V369H305H304.5V328H305ZM303 328V327.5H305V328V328.5H303V328ZM303 325.5H303.5V328H303H302.5V325.5H303ZM352 325.5V326H303V325.5V325H352V325.5ZM352 259H352.5V325.5H352H351.5V259H352ZM328.5 250L328.679 249.533L352.179 258.533L352 259L351.821 259.467L328.321 250.467L328.5 250ZM328.5 245.236H329V250H328.5H328V245.236H328.5ZM352 245.236V245.736H328.5V245.236V244.736H352V245.236ZM352 152.5H352.5V245.236H352H351.5V152.5H352ZM342.5 152.5V152H352V152.5V153H342.5V152.5ZM342.5 149.278H343V152.5H342.5H342V149.278H342.5ZM343 149.278V149.778H342.5V149.278V148.778H343V149.278ZM343 147H343.5V149.278H343H342.5V147H343ZM343.5 147V147.5H343V147V146.5H343.5V147ZM343.5 120H344V147H343.5H343V120H343.5ZM342.5 120V119.5H343.5V120V120.5H342.5V120ZM342.5 90.5H343V120H342.5H342V90.5H342.5ZM230.5 90.5V90H342.5V90.5V91H230.5V90.5ZM230.5 103.5H230V90.5H230.5H231V103.5H230.5ZM229 103.5V103H230.5V103.5V104H229V103.5ZM229 85.7819H229.5V103.5H229H228.5V85.7819H229ZM261.5 85.7819V86.2819H229V85.7819V85.2819H261.5V85.7819ZM261.5 71.5H262V85.7819H261.5H261V71.5H261.5ZM242.5 71.5V71H261.5V71.5V72H242.5V71.5ZM242.5 67.5H243V71.5H242.5H242V67.5H242.5ZM240 67.5V67H242.5V67.5V68H240V67.5ZM240 19.5H240.5V67.5H240H239.5V19.5H240ZM196.5 19.5V19H240V19.5V20H196.5V19.5ZM196.5 67.5H196V19.5H196.5H197V67.5H196.5ZM194 67.5V67H196.5V67.5V68H194V67.5ZM194 71.5H193.5V67.5H194H194.5V71.5H194ZM184.5 71.5V71H194V71.5V72H184.5V71.5ZM150.5 67L150.566 66.5043L184.566 71.0043L184.5 71.5L184.434 71.9957L150.434 67.4957L150.5 67ZM150.5 86H150V67H150.5H151V86H150.5ZM210.5 85.7819L210.502 86.2819L150.502 86.5L150.5 86L150.498 85.5L210.498 85.2819L210.5 85.7819ZM210.5 103.5H210V85.7819H210.5H211V103.5H210.5ZM208.5 103.5V103H210.5V103.5V104H208.5V103.5ZM208.5 90.5H209V103.5H208.5H208V90.5H208.5ZM150.5 90.5V90H208.5V90.5V91H150.5V90.5ZM150.5 122.5H150V90.5H150.5H151V122.5H150.5ZM129 122.5V122H150.5V122.5V123H129V122.5ZM129 146.5H128.5V122.5H129H129.5V146.5H129ZM104.5 146.5V146H129V146.5V147H104.5V146.5ZM104.5 163.208H104V146.5H104.5H105V163.208H104.5ZM72 163.208V162.708H104.5V163.208V163.708H72V163.208ZM72 156.5H72.5V163.208H72H71.5V156.5H72ZM50.5 156.5V156H72V156.5V157H50.5V156.5ZM50.5 167H50V156.5H50.5H51V167H50.5ZM0.5 167V166.5H50.5V167V167.5H0.5V167ZM242.5 298.5H243V328H242.5H242V298.5H242.5ZM244.5 298.5V299H242.5V298.5V298H244.5V298.5ZM244.5 325.5H244V298.5H244.5H245V325.5H244.5ZM289.5 325.5V326H244.5V325.5V325H289.5V325.5ZM289.5 328H289V325.5H289.5H290V328H289.5ZM242.5 328V327.5H289.5V328V328.5H242.5V328ZM208.5 259H209V288.5H208.5H208V259H208.5ZM222 259V259.5H208.5V259V258.5H222V259ZM222 288.5H221.5V259H222H222.5V288.5H222ZM208.5 288.5V288H222V288.5V289H208.5V288.5ZM265.5 149.5H266V152.5H265.5H265V149.5H265.5ZM242 149.5V149H265.5V149.5V150H242V149.5ZM242 192H241.5V149.5H242H242.5V192H242ZM203.157 192V191.5H242V192V192.5H203.157V192ZM203.157 203.309H202.657V192H203.157H203.657V203.309H203.157ZM193.284 203.309V202.809H203.157V203.309V203.809H193.284V203.309ZM193.284 236.5H192.784V203.309H193.284H193.784V236.5H193.284ZM204 236.5V237H193.284V236.5V236H204V236.5ZM204 235H204.5V236.5H204H203.5V235H204ZM242 235V235.5H204V235V234.5H242V235ZM242 277H241.5V235H242H242.5V277H242ZM272.5 277V277.5H242V277V276.5H272.5V277ZM272.5 255.5H273V277H272.5H272V255.5H272.5ZM283.5 255.5V256H272.5V255.5V255H283.5V255.5ZM283.5 246H284V255.5H283.5H283V246H283.5ZM288 246V246.5H283.5V246V245.5H288V246ZM288 239.5H288.5V246H288H287.5V239.5H288ZM283.5 239.5V239H288V239.5V240H283.5V239.5ZM283.5 234H284V239.5H283.5H283V234H283.5ZM245 234V233.5H283.5V234V234.5H245V234ZM245 152.5H245.5V234H245H244.5V152.5H245ZM265.5 152.5V153H245V152.5V152H265.5V152.5ZM57.5 232H57V200H57.5H58V232H57.5ZM118 232V232.5H57.5V232V231.5H118V232ZM118 220.5H118.5V232H118H117.5V220.5H118ZM162.5 220.5V221H118V220.5V220H162.5V220.5ZM162.5 184H163V220.5H162.5H162V184H162.5ZM176 184V184.5H162.5V184V183.5H176V184ZM176 171H176.5V184H176H175.5V171H176ZM205 171V171.5H176V171V170.5H205V171ZM205 140H205.5V171H205H204.5V140H205ZM194.5 140V139.5H205V140V140.5H194.5V140ZM194.5 138H195V140H194.5H194V138H194.5ZM164 138V137.5H194.5V138V138.5H164V138ZM164 179H163.5V138H164H164.5V179H164ZM150 179V178.5H164V179V179.5H150V179ZM150 200H149.5V179H150H150.5V200H150ZM57.5 200V199.5H150V200V200.5H57.5V200ZM118.5 165H118V156H118.5H119V165H118.5ZM150.5 165V165.5H118.5V165V164.5H150.5V165ZM150.5 131.5H151V165H150.5H150V131.5H150.5ZM148.5 131.5V131H150.5V131.5V132H148.5V131.5ZM148.5 159.5H148V131.5H148.5H149V159.5H148.5ZM124 159.5V159H148.5V159.5V160H124V159.5ZM120.5 156L120.854 155.646L124.354 159.146L124 159.5L123.646 159.854L120.146 156.354L120.5 156ZM118.5 156V155.5H120.5V156V156.5H118.5V156ZM287 149.5H287.5V152.5H287H286.5V149.5H287ZM322 149.5V150H287V149.5V149H322V149.5ZM322 152.5H321.5V149.5H322H322.5V152.5H322ZM287 152.5V152H322V152.5V153H287V152.5ZM260.5 166.5H261V188H260.5H260V166.5H260.5ZM291.145 166.298L291.148 166.798L260.503 167L260.5 166.5L260.497 166L291.142 165.798L291.145 166.298ZM291.145 188H290.645V166.298H291.145H291.645V188H291.145ZM260.5 188V187.5H291.145V188V188.5H260.5V188ZM98.5 279.5H98V249H98.5H99V279.5H98.5ZM139.5 279.5V280H98.5V279.5V279H139.5V279.5ZM139.5 249H140V279.5H139.5H139V249H139.5ZM98.5 249V248.5H139.5V249V249.5H98.5V249ZM49.5 279H50V311H49.5H49V279H49.5ZM59.774 279V279.5H49.5V279V278.5H59.774V279ZM59.774 288.5H59.274V279H59.774H60.274V288.5H59.774ZM129 288.5V289H59.774V288.5V288H129V288.5ZM129 290H128.5V288.5H129H129.5V290H129ZM125 290V289.5H129V290V290.5H125V290ZM125 311H124.5V290H125H125.5V311H125ZM93.5 311V310.5H125V311V311.5H93.5V311ZM80.5 311V310.5H93.5V311V311.5H80.5V311ZM49.5 311V310.5H80.5V311V311.5H49.5V311ZM136.5 311H136V300H136.5H137V311H136.5ZM187 311V311.5H136.5V311V310.5H187V311ZM187 279H187.5V311H187H186.5V279H187ZM177 279V278.5H187V279V279.5H177V279ZM184 296.5L183.536 296.686L176.536 279.186L177 279L177.464 278.814L184.464 296.314L184 296.5ZM184 306H183.5V296.5H184H184.5V306H184ZM150 306V305.5H184V306V306.5H150V306ZM136.5 300L136.703 299.543L150.203 305.543L150 306L149.797 306.457L136.297 300.457L136.5 300Z" fill="#B27C40"/>
<path d="M147 341.5V330.5H148M148 323H147V311" stroke="#B27C40" stroke-opacity="0.23" stroke-width="0.5"/>
<path d="M125 340H136.5M136.5 340V342M136.5 340C136.5 339.6 136.5 337.5 136.5 336.5M136.5 331V322.5M136.5 317V313M136.5 311V313M136.5 313H125" stroke="#B27C40" stroke-opacity="0.23"/>
<path d="M285.5 294V305M321.5 294V305M244.5 316H352M299 340C299 340.8 299 345 299 347H302.5M305 347H302.5M302.5 347V349.5H305M140.5 302L142 299L156.5 306M180.5 306V288.5" stroke="#B27C40" stroke-width="0.5"/>
<path d="M323 197.5V211M323 211H287M323 211V221H317M309.5 221H287M230.5 101C231.3 101 236.833 101 239.5 101M239.5 101V105H246V104.5M239.5 101V98M246 98V104.5M246 98H246.5M246 98H239.5M254 98V103M254 98H258M254 98H246.5M246 104.5H254V103M254 103H258M260 90.5V103H258M258 103V98M258 90.5V98M246.5 90.5V98M239.5 90.5V98M210 127V103.5M229.5 127V107M229.5 103.5V107M229.5 107H231.5C232.383 104.355 233.25 103.796 235 103.5V101.5M208.5 103C208.356 103 205.74 103 202 103M179 90.5V103C179.55 103 180.131 103 180.739 103M180.739 103V96.75M180.739 103C183.32 103 186.376 103 189.5 103M180.739 90.5V96.75M180.739 96.75H189.5M189.5 96.75V103M189.5 96.75V92M189.5 90.5V92M189.5 103C193.912 103 198.459 103 202 103M189.5 92H202M202 92V90.5M202 92V96M202 103V96M202 96H208.5M128.5 146.5H134.5V141.5H129M231 192V161.5H232.5M242 161.5H235.5M232.5 161.5V158H235.5M232.5 161.5H235.5M235.5 158V161.5M235.5 158V155.5H238.5M242 155.5H238.75H238.5M238.5 155.5V152H242M229.5 235V241.5H235.5M241.5 241.5H235.5M235.5 241.5V235M184 378.5V372.5M184 354V372.5M223.5 354V378M184 372.5H176.5M171.5 377.5V372.5H176.5M176.5 378.5V372.5" stroke="#B27C40"/>
<path d="M309 221H318M305 266V277M307.5 294V289.5H309.5M309.5 289.5H316.5V293.5M309.5 289.5V293.5M309.5 294V293.5M316.5 294V293.5M316.5 293.5H309.5" stroke="#B27C40" stroke-width="0.5"/>
<path d="M54.5 249H80.5M43 261.5H63.5M71.5 261.5H74M80.5 261.5H77M60 279H63.5V280H60M98.5 279.5H79M74 261.5V258H77V261.5M74 261.5H77M113 232V238H118V232M139.5 279.5H145V278.5H139.5M163.5 278.5V279.5H151.5V278.5H162.5M163.5 278.5V195M163.5 278.5H162.5M162.5 227V278.5M175 195V249M176 195V213.5M176 227V249M176 258.5V279.5H177M175 258.5V262.5M175 280V262.5M175 262.5H171.5V259H174.5M199 306.5V288.5H208.5M168.5 320H147.5M129.5 311H125M135 311H137M74 343V325.5H100.5V343M255 340C255.4 340 288.167 340 304.5 340M285 305H322M322 294H316M310 294H300.5M293 294H285M352 287.5H341.5V281H352M328 281V266H323.5M287.5 281V266H293M293 266V277H323.5V266M293 266H323.5M71.5 279H80V280H71.5V279ZM334.5 307L334 300.5L340.5 300L341 306.5L334.5 307Z" stroke="#B27C40"/>
<path d="M301 277C301 276.6 301 269.5 301 266M266 277V295.5H272.5V277M245 224C245.4 224 249.167 224 251 224V224.5M251 234V228M254.5 228V224.5M254.5 228H257.5M254.5 228H251M254.5 224.5H251M254.5 224.5H257.5V228M251 224.5V228M257.5 228V234M266.5 234V226H273.5V234M332 166C331.2 166 304.333 166 291 166M296.5 176.5H352M291 188H316M328.5 246V234H343V197.5H322V194M322 194V188H316M322 194H316V188" stroke="#B27C40"/>
<path d="M100.5 200V194H106.5V200M119 200V189.5M150 179H119V189.5M150 189.5H119" stroke="#B27C40"/>
<path d="M43 249H46.5" stroke="#B27C40"/>
<path d="M32 215H20V184.5H32V209.5M32 215H38.5V209.5H32M32 215V209.5M0.5 176H4V172M4 172H7.5V167M4 172H0.5M79 179H57.5V189H87.5V179H85M79 179V172.5H85V179M79 179H85" stroke="#B27C40"/>
<path d="M85 175.5C86.917 175.385 87.3506 176.335 87.5 179" stroke="#B27C40"/>
<path d="M283.5 234C283.9 234 300 234 308 234V255.5H283.5M283.5 250H302V246H288M302.5 246H303.5V239.5H288" stroke="#B27C40"/>
<path d="M43.5 261.5V249M80 249V261.5M63 261.5V279.5M72 261.5V279.5M103.5 288.5V285.5H106.5V288.5M154 279.5V282.5H157.5V279.5M145 279H151.5M155 278.5V271.5H139.5M176 259V248.5M187 279H208.5M199 296C199.4 296 206.167 296 209.5 296M209.5 296H213V288.5H209.5V296ZM148 342V320" stroke="#B27C40" stroke-width="0.5"/>
<path d="M125 342V311M51.5 341L58 355M58 355H61L62.5 357M58 355L57.8 355.5M57 357.5L57.8 355.5M57.8 355.5L56 354H55.5M54 355.5L55 354H55.5M55.5 354V351L54 349H51.5M6.5 330L8 328.5V324.5L5 322.5M172 138V135H175.5V138M291 166V162H295V166M287.5 221V211M258 149.5H262C262.822 147.882 262.909 147.09 262 146H258C256.687 147.016 256.541 147.744 258 149.5Z" stroke="#B27C40" stroke-width="0.5"/>
<path d="M223.5 372.5H230M230 372.5V375.5M230 372.5H236.5V375.5M233.5 375.5V378H230V375.5M233.5 375.5H230M233.5 375.5H236.5M236.5 375.5V378M347.5 152.5V158.5H352M292.5 294H301M266 295.5C265.6 295.5 262.167 295.5 260.5 295.5M248.5 375.5L249.5 373L253.5 374V376M253.5 376L252 378M253.5 376L255.5 377.5M255.5 377.5L255 378.5M255.5 377.5L257.5 374L261.5 373.5L263.5 375V377.5M271 373.5L273.5 370.5H274L275 369.5H277M277 369.5V371M277 369.5V367.5L280 365.5L283 368.5M289.5 367V364.5L291.5 363.5H295L295.283 363.783M296 366V364.5L295.283 363.783M295.283 363.783L297.5 361L300.5 359.5L305 361.5M301 90.5V103H303.5V90.5" stroke="#B27C40" stroke-width="0.5"/>
<path d="M46 249C46.8 249 52.3333 249 55 249" stroke="#B27C40" stroke-width="0.5"/>
<path d="M163.5 227H175M175 214H163" stroke="#B27C40" stroke-opacity="0.23" stroke-width="0.5"/>
<path d="M297.5 325.5H303M297.5 325.5V319H304.5V325.5M297.5 325.5C297.1 325.5 292 325.5 289.5 325.5M50 249V255.5H73.5V249" stroke="#B27C40" stroke-opacity="0.23"/>
<path fill-rule="evenodd" clip-rule="evenodd" d="M273 325H351.5V287.5H341.5V281H273V325ZM351.5 281H352V287.5H351.5V281ZM334.5 307L334 300.5L340.5 300L341 306.5L334.5 307Z" fill="#F08234" fill-opacity="0.2"/>
<path d="M329.316 296H327.77L330.586 288H332.375L335.195 296H333.648L331.512 289.641H331.449L329.316 296ZM329.367 292.863H333.586V294.027H329.367V292.863Z" fill="white"/>
<path d="M49.5 279H86.5V232H57.5V226H36.5V284H49.5V279Z" fill="#F08234" fill-opacity="0.23"/>
<path d="M44.2891 273V265H47.3516C47.9297 265 48.4102 265.091 48.793 265.273C49.1784 265.453 49.4661 265.699 49.6563 266.012C49.849 266.324 49.9453 266.678 49.9453 267.074C49.9453 267.4 49.8828 267.678 49.7578 267.91C49.6328 268.139 49.4648 268.326 49.2539 268.469C49.043 268.612 48.8073 268.715 48.5469 268.777V268.855C48.8307 268.871 49.1029 268.958 49.3633 269.117C49.6263 269.273 49.8411 269.495 50.0078 269.781C50.1745 270.068 50.2578 270.414 50.2578 270.82C50.2578 271.234 50.1576 271.607 49.957 271.937C49.7565 272.266 49.4544 272.525 49.0508 272.715C48.6471 272.905 48.1393 273 47.5273 273H44.2891ZM45.7383 271.789H47.2969C47.8229 271.789 48.2018 271.689 48.4336 271.488C48.668 271.285 48.7852 271.025 48.7852 270.707C48.7852 270.47 48.7266 270.257 48.6094 270.066C48.4922 269.874 48.3255 269.723 48.1094 269.613C47.8932 269.501 47.6354 269.445 47.3359 269.445H45.7383V271.789ZM45.7383 268.402H47.1719C47.4219 268.402 47.6471 268.357 47.8477 268.266C48.0482 268.172 48.2057 268.04 48.3203 267.871C48.4375 267.699 48.4961 267.496 48.4961 267.262C48.4961 266.952 48.3867 266.697 48.168 266.496C47.9518 266.296 47.6302 266.195 47.2031 266.195H45.7383V268.402Z" fill="white"/>
<path d="M313 221V293.5" stroke="#B27C40" stroke-opacity="0.23" stroke-dasharray="3 3"/>
</svg>
