<svg width="494" height="473" viewBox="0 0 494 473" fill="none" xmlns="http://www.w3.org/2000/svg">
<path fill-rule="evenodd" clip-rule="evenodd" d="M75.2229 188.059V204.034H93.7748V148.379L114.903 127.25V112.305H94.2901V92.2076L192.718 45.3125H224.153V18H301.453V82.4163H372.053C372.225 103.029 372.465 144.256 372.053 144.256H345.256V147.348H449.353V234.954H467.904L492.64 260.205V403.982H373.084V455H260.742C259.047 453.73 257.887 453.328 255.588 452.939L246.828 450.877C244.552 450.259 243.855 449.521 243.221 447.785C241.3 444.24 240.185 441.617 239.068 438.99C238.439 437.512 237.81 436.032 237.037 434.387L230.337 413.258V410.166L225.699 404.498V393.16H96.8667V350.388H23.1745V318.438H33.4811C33.6529 302.634 33.4811 271.027 33.4811 271.027H0.5V205.58C3.51285 193.495 8.13511 190.184 19.5672 188.059H75.2229ZM196.841 357.087V328.229V327.713H205.086V321.529H245.797V291.125H257.134V301.947H248.889V331.836H279.809V324.106H290.631V330.805H281.87V403.982H254.558V357.087H196.841ZM289.085 252.475H282.386V299.886H270.018V301.947H322.581V353.48H375.145V342.658L371.022 336.474V329.259C374.054 326.475 374.63 324.621 374.63 319.468C373.084 314.83 372.414 313.882 368.961 311.223V272.058H337.526V279.788C337.526 280.2 305.232 279.96 289.085 279.788V252.475ZM405.034 342.143V309.162H415.856V349.873H403.488V380.792H338.041V373.578H400.912V342.143H405.034ZM53.0637 311.738V318.438H119.026V357.087H177.774V327.713H133.971V277.211H91.1981V311.738H53.0637ZM75.2229 252.991V230.316H94.2901V234.439L102.535 242.169H144.792V213.825H161.283V222.071H204.055V236.5H188.08V291.125H220.031V306.07H205.601V293.702H158.706V245.261H125.725V252.991H75.2229ZM21.6285 235.985V245.261H33.4811V235.985H21.6285ZM55.125 290.094V275.15H61.309V290.094H55.125ZM397.304 178.268V187.544V188.059H407.096V178.268H397.304ZM421.009 230.316H423.586V261.751H429.77C430.922 262.965 431.211 263.773 431.316 265.358C431.212 266.886 430.833 267.536 429.77 268.45H423.586V279.788H470.481V284.941H404.004V261.751H421.009V230.316ZM438.531 339.566H434.923V315.861H466.874V339.566H463.782V331.836H438.531V339.566ZM432.862 373.578V380.792H479.242V373.578H432.862ZM317.943 107.667H270.018V224.132H240.129V211.764H225.699V236.5H337.526V261.236H340.618V221.04H378.752V216.917H366.9V205.065C364.024 203.234 362.789 201.99 361.231 199.396L353.501 188.059C352.428 186.233 351.566 185.498 348.863 185.482V179.814L342.679 176.206L330.311 172.084H327.735V144.256C326.993 142.076 325.715 141.799 323.097 141.679C322.751 138.143 321.495 137.133 317.943 136.526V107.667ZM205.086 75.717V120.551H147.884V127.765H154.068V188.059H244.251V171.053H211.785V119.005H241.159V116.428H224.153V75.717H205.086Z" fill="#271406"/>
<path d="M75.2229 204.034V204.534H74.7229V204.034H75.2229ZM75.2229 188.059V187.559H75.7229V188.059H75.2229ZM93.7748 204.034H94.2748V204.534H93.7748V204.034ZM93.7748 148.379H93.2748V148.171L93.4212 148.025L93.7748 148.379ZM114.903 127.25H115.403V127.457L115.257 127.604L114.903 127.25ZM114.903 112.305V111.805H115.403V112.305H114.903ZM94.2901 112.305V112.805H93.7901V112.305H94.2901ZM94.2901 92.2076H93.7901V91.8919L94.075 91.7562L94.2901 92.2076ZM192.718 45.3125L192.503 44.8611L192.605 44.8125H192.718V45.3125ZM224.153 45.3125H224.653V45.8125H224.153V45.3125ZM224.153 18H223.653V17.5H224.153V18ZM301.453 18V17.5H301.953V18H301.453ZM301.453 82.4163V82.9163H300.953V82.4163H301.453ZM372.053 82.4163V81.9163H372.549L372.553 82.4121L372.053 82.4163ZM345.256 144.256H344.756V143.756H345.256V144.256ZM345.256 147.348V147.848H344.756V147.348H345.256ZM449.353 147.348V146.848H449.853V147.348H449.353ZM449.353 234.954V235.454H448.853V234.954H449.353ZM467.904 234.954V234.454H468.115L468.262 234.604L467.904 234.954ZM492.64 260.205L492.998 259.855L493.14 260.001V260.205H492.64ZM492.64 403.982H493.14V404.482H492.64V403.982ZM373.084 403.982H372.584V403.482H373.084V403.982ZM373.084 455H373.584V455.5H373.084V455ZM260.742 455V455.5H260.575L260.442 455.4L260.742 455ZM255.588 452.939L255.505 453.432L255.489 453.429L255.474 453.425L255.588 452.939ZM246.828 450.877L246.713 451.364L246.705 451.362L246.697 451.36L246.828 450.877ZM243.221 447.785L243.66 447.547L243.678 447.579L243.69 447.614L243.221 447.785ZM239.068 438.99L238.608 439.186L238.608 439.186L239.068 438.99ZM237.037 434.387L236.584 434.599L236.57 434.569L236.56 434.538L237.037 434.387ZM230.337 413.258L229.861 413.409L229.837 413.336V413.258H230.337ZM230.337 410.166L230.724 409.85L230.837 409.988V410.166H230.337ZM225.699 404.498L225.312 404.814L225.199 404.676V404.498H225.699ZM225.699 393.16V392.66H226.199V393.16H225.699ZM96.8667 393.16V393.66H96.3667V393.16H96.8667ZM96.8667 350.388V349.888H97.3667V350.388H96.8667ZM23.1745 350.388V350.888H22.6745V350.388H23.1745ZM23.1745 318.438H22.6745V317.938H23.1745V318.438ZM33.4811 318.438L33.9811 318.443L33.9757 318.938H33.4811V318.438ZM33.4811 271.027V270.527H33.9784L33.9811 271.024L33.4811 271.027ZM0.5 271.027V271.527H0V271.027H0.5ZM0.5 205.58H0V205.519L0.0148479 205.459L0.5 205.58ZM19.5672 188.059L19.4758 187.567L19.5211 187.559H19.5672V188.059ZM196.841 357.087V357.587H196.341V357.087H196.841ZM196.841 327.713H196.341V327.213H196.841V327.713ZM205.086 327.713H205.586V328.213H205.086V327.713ZM205.086 321.529H204.586V321.029H205.086V321.529ZM245.797 321.529H246.297V322.029H245.797V321.529ZM245.797 291.125H245.297V290.625H245.797V291.125ZM257.134 291.125V290.625H257.634V291.125H257.134ZM257.134 301.947H257.634V302.447H257.134V301.947ZM248.889 301.947H248.389V301.447H248.889V301.947ZM248.889 331.836V332.336H248.389V331.836H248.889ZM279.809 331.836H280.309V332.336H279.809V331.836ZM279.809 324.106H279.309V323.606H279.809V324.106ZM290.631 324.106V323.606H291.131V324.106H290.631ZM290.631 330.805H291.131V331.305H290.631V330.805ZM281.87 330.805H281.37V330.305H281.87V330.805ZM281.87 403.982H282.37V404.482H281.87V403.982ZM254.558 403.982V404.482H254.058V403.982H254.558ZM254.558 357.087V356.587H255.058V357.087H254.558ZM282.386 252.475H281.886V251.975H282.386V252.475ZM289.085 252.475V251.975H289.585V252.475H289.085ZM282.386 299.886H282.886V300.386H282.386V299.886ZM270.018 299.886H269.518V299.386H270.018V299.886ZM270.018 301.947V302.447H269.518V301.947H270.018ZM322.581 301.947V301.447H323.081V301.947H322.581ZM322.581 353.48V353.98H322.081V353.48H322.581ZM375.145 353.48H375.645V353.98H375.145V353.48ZM375.145 342.658L375.561 342.381L375.645 342.507V342.658H375.145ZM371.022 336.474L370.606 336.751L370.522 336.625V336.474H371.022ZM371.022 329.259H370.522V329.04L370.684 328.891L371.022 329.259ZM374.63 319.468L375.104 319.31L375.13 319.387V319.468H374.63ZM368.961 311.223L368.656 311.619L368.461 311.469V311.223H368.961ZM368.961 272.058V271.558H369.461V272.058H368.961ZM337.526 272.058H337.026V271.558H337.526V272.058ZM289.085 279.788L289.08 280.288L288.585 280.282V279.788H289.085ZM405.034 309.162H404.534V308.662H405.034V309.162ZM405.034 342.143H405.534V342.643H405.034V342.143ZM415.856 309.162V308.662H416.356V309.162H415.856ZM415.856 349.873H416.356V350.373H415.856V349.873ZM403.488 349.873H402.988V349.373H403.488V349.873ZM403.488 380.792H403.988V381.292H403.488V380.792ZM338.041 380.792V381.292H337.541V380.792H338.041ZM338.041 373.578H337.541V373.078H338.041V373.578ZM400.912 373.578H401.412V374.078H400.912V373.578ZM400.912 342.143H400.412V341.643H400.912V342.143ZM53.0637 318.438V318.938H52.5637V318.438H53.0637ZM53.0637 311.738H52.5637V311.238H53.0637V311.738ZM119.026 318.438V317.938H119.526V318.438H119.026ZM119.026 357.087V357.587H118.526V357.087H119.026ZM177.774 357.087H178.274V357.587H177.774V357.087ZM177.774 327.713V327.213H178.274V327.713H177.774ZM133.971 327.713V328.213H133.471V327.713H133.971ZM133.971 277.211V276.711H134.471V277.211H133.971ZM91.1981 277.211H90.6981V276.711H91.1981V277.211ZM91.1981 311.738H91.6981V312.238H91.1981V311.738ZM75.2229 230.316H74.7229V229.816H75.2229V230.316ZM75.2229 252.991V253.491H74.7229V252.991H75.2229ZM94.2901 230.316V229.816H94.7901V230.316H94.2901ZM94.2901 234.439L93.9481 234.803L93.7901 234.655V234.439H94.2901ZM102.535 242.169V242.669H102.338L102.193 242.533L102.535 242.169ZM144.792 242.169H145.292V242.669H144.792V242.169ZM144.792 213.825H144.292V213.325H144.792V213.825ZM161.283 213.825V213.325H161.783V213.825H161.283ZM161.283 222.071V222.571H160.783V222.071H161.283ZM204.055 222.071V221.571H204.555V222.071H204.055ZM204.055 236.5H204.555V237H204.055V236.5ZM188.08 236.5H187.58V236H188.08V236.5ZM188.08 291.125V291.625H187.58V291.125H188.08ZM220.031 291.125V290.625H220.531V291.125H220.031ZM220.031 306.07H220.531V306.57H220.031V306.07ZM205.601 306.07V306.57H205.101V306.07H205.601ZM205.601 293.702V293.202H206.101V293.702H205.601ZM158.706 293.702V294.202H158.206V293.702H158.706ZM158.706 245.261V244.761H159.206V245.261H158.706ZM125.725 245.261H125.225V244.761H125.725V245.261ZM125.725 252.991H126.225V253.491H125.725V252.991ZM21.6285 245.261V245.761H21.1285V245.261H21.6285ZM21.6285 235.985H21.1285V235.485H21.6285V235.985ZM33.4811 245.261H33.9811V245.761H33.4811V245.261ZM33.4811 235.985V235.485H33.9811V235.985H33.4811ZM55.125 275.15H54.625V274.65H55.125V275.15ZM55.125 290.094V290.594H54.625V290.094H55.125ZM61.309 275.15V274.65H61.809V275.15H61.309ZM61.309 290.094H61.809V290.594H61.309V290.094ZM397.304 178.268H396.804V177.768H397.304V178.268ZM397.304 188.059V188.559H396.804V188.059H397.304ZM407.096 188.059H407.596V188.559H407.096V188.059ZM407.096 178.268V177.768H407.596V178.268H407.096ZM423.586 230.316V229.816H424.086V230.316H423.586ZM421.009 230.316H420.509V229.816H421.009V230.316ZM423.586 261.751V262.251H423.086V261.751H423.586ZM429.77 261.751V261.251H429.985L430.133 261.407L429.77 261.751ZM431.316 265.358L431.815 265.326L431.817 265.359L431.815 265.392L431.316 265.358ZM429.77 268.45L430.096 268.829L429.956 268.95H429.77V268.45ZM423.586 268.45H423.086V267.95H423.586V268.45ZM423.586 279.788V280.288H423.086V279.788H423.586ZM470.481 279.788V279.288H470.981V279.788H470.481ZM470.481 284.941H470.981V285.441H470.481V284.941ZM404.004 284.941V285.441H403.504V284.941H404.004ZM404.004 261.751H403.504V261.251H404.004V261.751ZM421.009 261.751H421.509V262.251H421.009V261.751ZM434.923 339.566V340.066H434.423V339.566H434.923ZM438.531 339.566H439.031V340.066H438.531V339.566ZM434.923 315.861H434.423V315.361H434.923V315.861ZM466.874 315.861V315.361H467.374V315.861H466.874ZM466.874 339.566H467.374V340.066H466.874V339.566ZM463.782 339.566V340.066H463.282V339.566H463.782ZM463.782 331.836V331.336H464.282V331.836H463.782ZM438.531 331.836H438.031V331.336H438.531V331.836ZM432.862 380.792V381.292H432.362V380.792H432.862ZM432.862 373.578H432.362V373.078H432.862V373.578ZM479.242 380.792H479.742V381.292H479.242V380.792ZM479.242 373.578V373.078H479.742V373.578H479.242ZM270.018 107.667H269.518V107.167H270.018V107.667ZM317.943 107.667V107.167H318.443V107.667H317.943ZM270.018 224.132H270.518V224.632H270.018V224.132ZM240.129 224.132V224.632H239.629V224.132H240.129ZM240.129 211.764V211.264H240.629V211.764H240.129ZM225.699 211.764H225.199V211.264H225.699V211.764ZM225.699 236.5V237H225.199V236.5H225.699ZM337.526 236.5V236H338.026V236.5H337.526ZM337.526 261.236V261.736H337.026V261.236H337.526ZM340.618 261.236H341.118V261.736H340.618V261.236ZM340.618 221.04H340.118V220.54H340.618V221.04ZM378.752 221.04H379.252V221.54H378.752V221.04ZM378.752 216.917V216.417H379.252V216.917H378.752ZM366.9 216.917V217.417H366.4V216.917H366.9ZM366.9 205.065L367.168 204.643L367.4 204.79V205.065H366.9ZM361.231 199.396L361.644 199.115L361.652 199.126L361.66 199.139L361.231 199.396ZM353.501 188.059L353.088 188.341L353.079 188.327L353.07 188.312L353.501 188.059ZM348.863 185.482L348.86 185.982L348.363 185.979V185.482H348.863ZM348.863 179.814L349.115 179.382L349.363 179.527V179.814H348.863ZM342.679 176.206L342.837 175.732L342.886 175.748L342.931 175.774L342.679 176.206ZM330.311 172.084V171.584H330.392L330.469 171.609L330.311 172.084ZM327.735 172.084V172.584H327.235V172.084H327.735ZM327.735 144.256L328.208 144.095L328.235 144.173V144.256H327.735ZM323.097 141.679L323.074 142.179L322.641 142.159L322.599 141.728L323.097 141.679ZM317.943 136.526L317.859 137.019L317.443 136.948V136.526H317.943ZM205.086 120.551H205.586V121.051H205.086V120.551ZM205.086 75.717H204.586V75.217H205.086V75.717ZM147.884 120.551H147.384V120.051H147.884V120.551ZM147.884 127.765V128.265H147.384V127.765H147.884ZM154.068 127.765V127.265H154.568V127.765H154.068ZM154.068 188.059V188.559H153.568V188.059H154.068ZM244.251 188.059H244.751V188.559H244.251V188.059ZM244.251 171.053V170.553H244.751V171.053H244.251ZM211.785 171.053V171.553H211.285V171.053H211.785ZM211.785 119.005H211.285V118.505H211.785V119.005ZM241.159 119.005H241.659V119.505H241.159V119.005ZM241.159 116.428V115.928H241.659V116.428H241.159ZM224.153 116.428V116.928H223.653V116.428H224.153ZM224.153 75.717V75.217H224.653V75.717H224.153ZM75.2229 204.034H74.7229V188.059H75.2229H75.7229V204.034H75.2229ZM93.7748 204.034V204.534H75.2229V204.034V203.534H93.7748V204.034ZM93.7748 148.379H94.2748V204.034H93.7748H93.2748V148.379H93.7748ZM114.903 127.25L115.257 127.604L94.1283 148.732L93.7748 148.379L93.4212 148.025L114.55 126.896L114.903 127.25ZM114.903 112.305H115.403V127.25H114.903H114.403V112.305H114.903ZM94.2901 112.305V111.805H114.903V112.305V112.805H94.2901V112.305ZM94.2901 92.2076H94.7901V112.305H94.2901H93.7901V92.2076H94.2901ZM192.718 45.3125L192.933 45.7639L94.5052 92.6589L94.2901 92.2076L94.075 91.7562L192.503 44.8611L192.718 45.3125ZM224.153 45.3125V45.8125H192.718V45.3125V44.8125H224.153V45.3125ZM224.153 18H224.653V45.3125H224.153H223.653V18H224.153ZM301.453 18V18.5H224.153V18V17.5H301.453V18ZM301.453 82.4163H300.953V18H301.453H301.953V82.4163H301.453ZM372.053 82.4163V82.9163H301.453V82.4163V81.9163H372.053V82.4163ZM372.053 144.256V143.756C371.779 143.756 371.652 143.962 371.639 143.982C371.608 144.032 371.596 144.074 371.594 144.079C371.589 144.096 371.59 144.097 371.595 144.064C371.604 144.005 371.614 143.904 371.624 143.754C371.644 143.457 371.662 143.013 371.679 142.43C371.711 141.268 371.735 139.581 371.751 137.488C371.784 133.304 371.787 127.508 371.772 121.067C371.742 108.185 371.639 92.7265 371.553 82.4204L372.053 82.4163L372.553 82.4121C372.639 92.7192 372.742 108.18 372.772 121.065C372.787 127.507 372.784 133.306 372.751 137.496C372.735 139.59 372.711 141.285 372.678 142.458C372.662 143.043 372.643 143.504 372.622 143.822C372.611 143.978 372.599 144.111 372.584 144.21C372.578 144.256 372.567 144.316 372.55 144.373C372.542 144.398 372.524 144.454 372.486 144.514C372.467 144.545 372.334 144.756 372.053 144.756V144.256ZM345.256 144.256V143.756H372.053V144.256V144.756H345.256V144.256ZM345.256 147.348H344.756V144.256H345.256H345.756V147.348H345.256ZM449.353 147.348V147.848H345.256V147.348V146.848H449.353V147.348ZM449.353 234.954H448.853V147.348H449.353H449.853V234.954H449.353ZM467.904 234.954V235.454H449.353V234.954V234.454H467.904V234.954ZM492.64 260.205L492.283 260.555L467.547 235.304L467.904 234.954L468.262 234.604L492.998 259.855L492.64 260.205ZM492.64 403.982H492.14V260.205H492.64H493.14V403.982H492.64ZM373.084 403.982V403.482H492.64V403.982V404.482H373.084V403.982ZM373.084 455H372.584V403.982H373.084H373.584V455H373.084ZM260.742 455V454.5H373.084V455V455.5H260.742V455ZM255.588 452.939L255.672 452.446C256.832 452.642 257.736 452.847 258.573 453.173C259.416 453.502 260.169 453.946 261.042 454.6L260.742 455L260.442 455.4C259.62 454.784 258.946 454.392 258.21 454.105C257.468 453.815 256.643 453.624 255.505 453.432L255.588 452.939ZM246.828 450.877L246.942 450.391L255.703 452.452L255.588 452.939L255.474 453.425L246.713 451.364L246.828 450.877ZM243.221 447.785L243.69 447.614C243.996 448.451 244.294 448.979 244.741 449.377C245.194 449.78 245.849 450.093 246.959 450.395L246.828 450.877L246.697 451.36C245.531 451.043 244.7 450.679 244.076 450.124C243.448 449.564 243.079 448.855 242.751 447.957L243.221 447.785ZM239.068 438.99L239.528 438.794C240.644 441.419 241.752 444.024 243.66 447.547L243.221 447.785L242.781 448.023C240.849 444.456 239.726 441.814 238.608 439.186L239.068 438.99ZM237.037 434.387L237.489 434.174C238.267 435.829 238.899 437.317 239.528 438.794L239.068 438.99L238.608 439.186C237.979 437.707 237.353 436.235 236.584 434.599L237.037 434.387ZM230.337 413.258L230.814 413.107L237.513 434.236L237.037 434.387L236.56 434.538L229.861 413.409L230.337 413.258ZM230.337 410.166H230.837V413.258H230.337H229.837V410.166H230.337ZM225.699 404.498L226.086 404.181L230.724 409.85L230.337 410.166L229.95 410.483L225.312 404.814L225.699 404.498ZM225.699 393.16H226.199V404.498H225.699H225.199V393.16H225.699ZM96.8667 393.16V392.66H225.699V393.16V393.66H96.8667V393.16ZM96.8667 350.388H97.3667V393.16H96.8667H96.3667V350.388H96.8667ZM23.1745 350.388V349.888H96.8667V350.388V350.888H23.1745V350.388ZM23.1745 318.438H23.6745V350.388H23.1745H22.6745V318.438H23.1745ZM33.4811 318.438V318.938H23.1745V318.438V317.938H33.4811V318.438ZM33.4811 271.027C33.9811 271.024 33.9811 271.025 33.9811 271.025C33.9811 271.025 33.9811 271.025 33.9811 271.026C33.9811 271.027 33.9811 271.028 33.9812 271.03C33.9812 271.034 33.9812 271.04 33.9812 271.047C33.9813 271.063 33.9815 271.085 33.9816 271.116C33.9819 271.176 33.9824 271.266 33.983 271.383C33.9842 271.619 33.986 271.966 33.9882 272.414C33.9925 273.309 33.9986 274.605 34.0053 276.211C34.0187 279.421 34.0348 283.866 34.0455 288.805C34.067 298.682 34.067 310.538 33.9811 318.443L33.4811 318.438L32.9812 318.432C33.067 310.534 33.067 298.684 33.0455 288.807C33.0348 283.869 33.0187 279.425 33.0053 276.215C32.9986 274.61 32.9925 273.314 32.9882 272.419C32.986 271.971 32.9842 271.624 32.983 271.389C32.9824 271.271 32.9819 271.181 32.9816 271.121C32.9815 271.091 32.9813 271.068 32.9813 271.053C32.9812 271.045 32.9812 271.039 32.9812 271.036C32.9812 271.034 32.9812 271.032 32.9811 271.031C32.9811 271.031 32.9811 271.03 32.9811 271.03C32.9811 271.03 32.9811 271.03 33.4811 271.027ZM0.5 271.027V270.527H33.4811V271.027V271.527H0.5V271.027ZM0.5 205.58H1V271.027H0.5H0V205.58H0.5ZM19.5672 188.059L19.6586 188.551C13.9623 189.61 10.0619 190.949 7.20656 193.46C4.35737 195.965 2.48175 199.698 0.985152 205.701L0.5 205.58L0.0148479 205.459C1.5311 199.377 3.47304 195.411 6.54621 192.709C9.61323 190.012 13.74 188.634 19.4758 187.567L19.5672 188.059ZM75.2229 188.059V188.559H19.5672V188.059V187.559H75.2229V188.059ZM196.841 328.229H197.341V357.087H196.841H196.341V328.229H196.841ZM196.841 327.713H197.341V328.229H196.841H196.341V327.713H196.841ZM205.086 327.713V328.213H196.841V327.713V327.213H205.086V327.713ZM205.086 321.529H205.586V327.713H205.086H204.586V321.529H205.086ZM245.797 321.529V322.029H205.086V321.529V321.029H245.797V321.529ZM245.797 291.125H246.297V321.529H245.797H245.297V291.125H245.797ZM257.134 291.125V291.625H245.797V291.125V290.625H257.134V291.125ZM257.134 301.947H256.634V291.125H257.134H257.634V301.947H257.134ZM248.889 301.947V301.447H257.134V301.947V302.447H248.889V301.947ZM248.889 331.836H248.389V301.947H248.889H249.389V331.836H248.889ZM279.809 331.836V332.336H248.889V331.836V331.336H279.809V331.836ZM279.809 324.106H280.309V331.836H279.809H279.309V324.106H279.809ZM290.631 324.106V324.606H279.809V324.106V323.606H290.631V324.106ZM290.631 330.805H290.131V324.106H290.631H291.131V330.805H290.631ZM281.87 330.805V330.305H290.631V330.805V331.305H281.87V330.805ZM281.87 403.982H281.37V330.805H281.87H282.37V403.982H281.87ZM254.558 403.982V403.482H281.87V403.982V404.482H254.558V403.982ZM254.558 357.087H255.058V403.982H254.558H254.058V357.087H254.558ZM196.841 357.087V356.587H254.558V357.087V357.587H196.841V357.087ZM282.386 252.475V251.975H289.085V252.475V252.975H282.386V252.475ZM282.386 299.886H281.886V252.475H282.386H282.886V299.886H282.386ZM270.018 299.886V299.386H282.386V299.886V300.386H270.018V299.886ZM270.018 301.947H269.518V299.886H270.018H270.518V301.947H270.018ZM322.581 301.947V302.447H270.018V301.947V301.447H322.581V301.947ZM322.581 353.48H322.081V301.947H322.581H323.081V353.48H322.581ZM375.145 353.48V353.98H322.581V353.48V352.98H375.145V353.48ZM375.145 342.658H375.645V353.48H375.145H374.645V342.658H375.145ZM371.022 336.474L371.438 336.197L375.561 342.381L375.145 342.658L374.729 342.935L370.606 336.751L371.022 336.474ZM371.022 329.259H371.522V336.474H371.022H370.522V329.259H371.022ZM374.63 319.468H375.13C375.13 322.05 374.988 323.878 374.433 325.421C373.872 326.984 372.906 328.208 371.361 329.628L371.022 329.259L370.684 328.891C372.17 327.526 373.008 326.432 373.492 325.083C373.984 323.715 374.13 322.04 374.13 319.468H374.63ZM368.961 311.223L369.266 310.827C370.996 312.159 372.082 313.101 372.922 314.32C373.759 315.534 374.331 316.992 375.104 319.31L374.63 319.468L374.155 319.626C373.382 317.306 372.847 315.972 372.099 314.887C371.355 313.808 370.38 312.946 368.656 311.619L368.961 311.223ZM368.961 272.058H369.461V311.223H368.961H368.461V272.058H368.961ZM337.526 272.058V271.558H368.961V272.058V272.558H337.526V272.058ZM337.526 279.788H337.026V272.058H337.526H338.026V279.788H337.526ZM289.085 279.788L289.09 279.288C297.163 279.374 309.272 279.477 319.362 279.507C324.407 279.522 328.946 279.519 332.223 279.486C333.862 279.469 335.181 279.446 336.089 279.413C336.544 279.397 336.889 279.379 337.116 279.359C337.232 279.349 337.304 279.34 337.34 279.333C337.362 279.329 337.348 279.33 337.32 279.341C337.308 279.346 337.26 279.365 337.207 279.407C337.161 279.445 337.026 279.57 337.026 279.788H337.526H338.026C338.026 280.012 337.887 280.144 337.833 280.187C337.772 280.236 337.713 280.261 337.685 280.272C337.625 280.296 337.565 280.308 337.526 280.316C337.439 280.332 337.327 280.345 337.202 280.356C336.949 280.378 336.584 280.396 336.125 280.413C335.203 280.446 333.874 280.469 332.233 280.486C328.949 280.519 324.406 280.522 319.359 280.507C309.265 280.477 297.154 280.374 289.08 280.288L289.085 279.788ZM289.085 252.475H289.585V279.788H289.085H288.585V252.475H289.085ZM405.034 309.162H405.534V342.143H405.034H404.534V309.162H405.034ZM415.856 309.162V309.662H405.034V309.162V308.662H415.856V309.162ZM415.856 349.873H415.356V309.162H415.856H416.356V349.873H415.856ZM403.488 349.873V349.373H415.856V349.873V350.373H403.488V349.873ZM403.488 380.792H402.988V349.873H403.488H403.988V380.792H403.488ZM338.041 380.792V380.292H403.488V380.792V381.292H338.041V380.792ZM338.041 373.578H338.541V380.792H338.041H337.541V373.578H338.041ZM400.912 373.578V374.078H338.041V373.578V373.078H400.912V373.578ZM400.912 342.143H401.412V373.578H400.912H400.412V342.143H400.912ZM405.034 342.143V342.643H400.912V342.143V341.643H405.034V342.143ZM53.0637 318.438H52.5637V311.738H53.0637H53.5637V318.438H53.0637ZM119.026 318.438V318.938H53.0637V318.438V317.938H119.026V318.438ZM119.026 357.087H118.526V318.438H119.026H119.526V357.087H119.026ZM177.774 357.087V357.587H119.026V357.087V356.587H177.774V357.087ZM177.774 327.713H178.274V357.087H177.774H177.274V327.713H177.774ZM133.971 327.713V327.213H177.774V327.713V328.213H133.971V327.713ZM133.971 277.211H134.471V327.713H133.971H133.471V277.211H133.971ZM91.1981 277.211V276.711H133.971V277.211V277.711H91.1981V277.211ZM91.1981 311.738H90.6981V277.211H91.1981H91.6981V311.738H91.1981ZM53.0637 311.738V311.238H91.1981V311.738V312.238H53.0637V311.738ZM75.2229 230.316H75.7229V252.991H75.2229H74.7229V230.316H75.2229ZM94.2901 230.316V230.816H75.2229V230.316V229.816H94.2901V230.316ZM94.2901 234.439H93.7901V230.316H94.2901H94.7901V234.439H94.2901ZM102.535 242.169L102.193 242.533L93.9481 234.803L94.2901 234.439L94.6321 234.074L102.877 241.804L102.535 242.169ZM144.792 242.169V242.669H102.535V242.169V241.669H144.792V242.169ZM144.792 213.825H145.292V242.169H144.792H144.292V213.825H144.792ZM161.283 213.825V214.325H144.792V213.825V213.325H161.283V213.825ZM161.283 222.071H160.783V213.825H161.283H161.783V222.071H161.283ZM204.055 222.071V222.571H161.283V222.071V221.571H204.055V222.071ZM204.055 236.5H203.555V222.071H204.055H204.555V236.5H204.055ZM188.08 236.5V236H204.055V236.5V237H188.08V236.5ZM188.08 291.125H187.58V236.5H188.08H188.58V291.125H188.08ZM220.031 291.125V291.625H188.08V291.125V290.625H220.031V291.125ZM220.031 306.07H219.531V291.125H220.031H220.531V306.07H220.031ZM205.601 306.07V305.57H220.031V306.07V306.57H205.601V306.07ZM205.601 293.702H206.101V306.07H205.601H205.101V293.702H205.601ZM158.706 293.702V293.202H205.601V293.702V294.202H158.706V293.702ZM158.706 245.261H159.206V293.702H158.706H158.206V245.261H158.706ZM125.725 245.261V244.761H158.706V245.261V245.761H125.725V245.261ZM125.725 252.991H125.225V245.261H125.725H126.225V252.991H125.725ZM75.2229 252.991V252.491H125.725V252.991V253.491H75.2229V252.991ZM21.6285 245.261H21.1285V235.985H21.6285H22.1285V245.261H21.6285ZM33.4811 245.261V245.761H21.6285V245.261V244.761H33.4811V245.261ZM33.4811 235.985H33.9811V245.261H33.4811H32.9811V235.985H33.4811ZM21.6285 235.985V235.485H33.4811V235.985V236.485H21.6285V235.985ZM55.125 275.15H55.625V290.094H55.125H54.625V275.15H55.125ZM61.309 275.15V275.65H55.125V275.15V274.65H61.309V275.15ZM61.309 290.094H60.809V275.15H61.309H61.809V290.094H61.309ZM55.125 290.094V289.594H61.309V290.094V290.594H55.125V290.094ZM397.304 187.544H396.804V178.268H397.304H397.804V187.544H397.304ZM397.304 188.059H396.804V187.544H397.304H397.804V188.059H397.304ZM407.096 188.059V188.559H397.304V188.059V187.559H407.096V188.059ZM407.096 178.268H407.596V188.059H407.096H406.596V178.268H407.096ZM397.304 178.268V177.768H407.096V178.268V178.768H397.304V178.268ZM423.586 230.316V230.816H421.009V230.316V229.816H423.586V230.316ZM423.586 261.751H423.086V230.316H423.586H424.086V261.751H423.586ZM429.77 261.751V262.251H423.586V261.751V261.251H429.77V261.751ZM431.316 265.358L430.817 265.391C430.766 264.62 430.673 264.085 430.474 263.607C430.277 263.132 429.96 262.677 429.407 262.095L429.77 261.751L430.133 261.407C430.732 262.038 431.136 262.594 431.397 263.223C431.658 263.849 431.761 264.511 431.815 265.326L431.316 265.358ZM429.77 268.45L429.444 268.071C429.956 267.631 430.261 267.289 430.458 266.906C430.655 266.523 430.768 266.055 430.817 265.325L431.316 265.358L431.815 265.392C431.761 266.19 431.632 266.811 431.347 267.363C431.063 267.915 430.647 268.356 430.096 268.829L429.77 268.45ZM423.586 268.45V267.95H429.77V268.45V268.95H423.586V268.45ZM423.586 279.788H423.086V268.45H423.586H424.086V279.788H423.586ZM470.481 279.788V280.288H423.586V279.788V279.288H470.481V279.788ZM470.481 284.941H469.981V279.788H470.481H470.981V284.941H470.481ZM404.004 284.941V284.441H470.481V284.941V285.441H404.004V284.941ZM404.004 261.751H404.504V284.941H404.004H403.504V261.751H404.004ZM421.009 261.751V262.251H404.004V261.751V261.251H421.009V261.751ZM421.009 230.316H421.509V261.751H421.009H420.509V230.316H421.009ZM434.923 339.566V339.066H438.531V339.566V340.066H434.923V339.566ZM434.923 315.861H435.423V339.566H434.923H434.423V315.861H434.923ZM466.874 315.861V316.361H434.923V315.861V315.361H466.874V315.861ZM466.874 339.566H466.374V315.861H466.874H467.374V339.566H466.874ZM463.782 339.566V339.066H466.874V339.566V340.066H463.782V339.566ZM463.782 331.836H464.282V339.566H463.782H463.282V331.836H463.782ZM438.531 331.836V331.336H463.782V331.836V332.336H438.531V331.836ZM438.531 339.566H438.031V331.836H438.531H439.031V339.566H438.531ZM432.862 380.792H432.362V373.578H432.862H433.362V380.792H432.862ZM479.242 380.792V381.292H432.862V380.792V380.292H479.242V380.792ZM479.242 373.578H479.742V380.792H479.242H478.742V373.578H479.242ZM432.862 373.578V373.078H479.242V373.578V374.078H432.862V373.578ZM270.018 107.667V107.167H317.943V107.667V108.167H270.018V107.667ZM270.018 224.132H269.518V107.667H270.018H270.518V224.132H270.018ZM240.129 224.132V223.632H270.018V224.132V224.632H240.129V224.132ZM240.129 211.764H240.629V224.132H240.129H239.629V211.764H240.129ZM225.699 211.764V211.264H240.129V211.764V212.264H225.699V211.764ZM225.699 236.5H225.199V211.764H225.699H226.199V236.5H225.699ZM337.526 236.5V237H225.699V236.5V236H337.526V236.5ZM337.526 261.236H337.026V236.5H337.526H338.026V261.236H337.526ZM340.618 261.236V261.736H337.526V261.236V260.736H340.618V261.236ZM340.618 221.04H341.118V261.236H340.618H340.118V221.04H340.618ZM378.752 221.04V221.54H340.618V221.04V220.54H378.752V221.04ZM378.752 216.917H379.252V221.04H378.752H378.252V216.917H378.752ZM366.9 216.917V216.417H378.752V216.917V217.417H366.9V216.917ZM366.9 205.065H367.4V216.917H366.9H366.4V205.065H366.9ZM361.231 199.396L361.66 199.139C362.426 200.415 363.101 201.338 363.925 202.163C364.752 202.991 365.745 203.737 367.168 204.643L366.9 205.065L366.631 205.487C365.179 204.562 364.117 203.771 363.218 202.87C362.316 201.967 361.594 200.971 360.803 199.654L361.231 199.396ZM353.501 188.059L353.914 187.777L361.644 199.115L361.231 199.396L360.818 199.678L353.088 188.341L353.501 188.059ZM348.863 185.482L348.866 184.982C350.254 184.991 351.251 185.182 352.051 185.664C352.85 186.145 353.386 186.876 353.932 187.806L353.501 188.059L353.07 188.312C352.543 187.415 352.111 186.867 351.535 186.52C350.96 186.174 350.175 185.99 348.86 185.982L348.863 185.482ZM348.863 179.814H349.363V185.482H348.863H348.363V179.814H348.863ZM342.679 176.206L342.931 175.774L349.115 179.382L348.863 179.814L348.611 180.246L342.427 176.638L342.679 176.206ZM330.311 172.084L330.469 171.609L342.837 175.732L342.679 176.206L342.521 176.681L330.153 172.558L330.311 172.084ZM327.735 172.084V171.584H330.311V172.084V172.584H327.735V172.084ZM327.735 144.256H328.235V172.084H327.735H327.235V144.256H327.735ZM323.097 141.679L323.119 141.18C324.417 141.239 325.492 141.337 326.337 141.744C327.23 142.175 327.807 142.918 328.208 144.095L327.735 144.256L327.261 144.417C326.92 143.414 326.488 142.928 325.902 142.645C325.268 142.339 324.395 142.239 323.074 142.179L323.097 141.679ZM317.943 136.526L318.028 136.033C319.817 136.339 321.151 136.762 322.069 137.644C322.999 138.539 323.418 139.822 323.594 141.631L323.097 141.679L322.599 141.728C322.43 140 322.048 139.011 321.376 138.365C320.691 137.706 319.622 137.32 317.859 137.019L317.943 136.526ZM317.943 107.667H318.443V136.526H317.943H317.443V107.667H317.943ZM205.086 120.551H204.586V75.717H205.086H205.586V120.551H205.086ZM147.884 120.551V120.051H205.086V120.551V121.051H147.884V120.551ZM147.884 127.765H147.384V120.551H147.884H148.384V127.765H147.884ZM154.068 127.765V128.265H147.884V127.765V127.265H154.068V127.765ZM154.068 188.059H153.568V127.765H154.068H154.568V188.059H154.068ZM244.251 188.059V188.559H154.068V188.059V187.559H244.251V188.059ZM244.251 171.053H244.751V188.059H244.251H243.751V171.053H244.251ZM211.785 171.053V170.553H244.251V171.053V171.553H211.785V171.053ZM211.785 119.005H212.285V171.053H211.785H211.285V119.005H211.785ZM241.159 119.005V119.505H211.785V119.005V118.505H241.159V119.005ZM241.159 116.428H241.659V119.005H241.159H240.659V116.428H241.159ZM224.153 116.428V115.928H241.159V116.428V116.928H224.153V116.428ZM224.153 75.717H224.653V116.428H224.153H223.653V75.717H224.153ZM205.086 75.717V75.217H224.153V75.717V76.217H205.086V75.717Z" fill="#B27C40"/>
<path d="M205.086 188.059C205.086 188.471 205.086 193.728 205.086 196.304H212.301V188.059" stroke="#B27C40"/>
<path d="M270.017 119.005H261.772V111.79M261.772 111.79V107.667H270.017V111.79H261.772Z" stroke="#B27C40"/>
<path d="M245.797 291.125V288.548M282.386 275.15H278.263M278.263 275.15H245.797V288.548M278.263 275.15V260.205H282.386M245.797 299.37H240.644V288.548H245.797" stroke="#B27C40"/>
<path d="M188.08 282.88H192.203M204.571 291.125V282.88H192.203M192.203 282.88V278.757H188.08M196.841 327.713V321.53H205.601M119.026 357.087V365.848H126.24V357.087M96.8665 341.627H23.1743" stroke="#B27C40"/>
<path d="M78.3147 311.738C78.3147 311.326 78.3147 308.131 78.3147 306.585H82.9527M82.9527 306.585V311.738M82.9527 306.585V302.978H91.198M21.6284 236.5V219.494H28.843V235.985M62.3395 188.059V192.182H66.4621M75.2228 196.304H66.9775V188.059M144.792 221.04H136.032V213.825H144.792M147.884 127.765H140.154V120.551H147.884M182.411 120.551V98.9068M182.411 90.6615V75.2016H190.141V90.6615H186.019M182.411 90.6615H186.019M182.411 90.6615V98.9068M186.019 90.6615V98.9068H182.411M228.276 153.016H229.822V151.47M228.276 153.016V151.47H229.822M228.276 153.016L229.822 151.47M228.276 136.526H229.822V134.98M228.276 136.526V134.98H229.822M228.276 136.526L229.822 134.98M112.327 185.998L103.051 176.722L109.75 160.746L130.363 153.016L142.731 158.685L146.854 174.145L140.67 185.482L122.633 190.12L112.327 185.998Z" stroke="#B27C40"/>
<path d="M471.511 373.578V365.333H479.241V373.578M462.751 380.792V403.982M432.862 373.578L415.856 349.357M403.488 380.792V388.522H396.273V380.792M373.083 434.387H363.807V437.479M363.807 455V441.601M373.083 441.601H363.807M363.807 441.601V437.479M352.47 455V446.755L363.807 437.479" stroke="#B27C40"/>
<path d="M372.053 182.906V180.844L367.93 176.722H363.808C361.901 177.137 361.275 177.993 360.716 180.329M407.096 188.059L410.703 189.09H413.28C413.967 188.746 415.547 188.059 416.371 188.059C417.196 188.059 430.114 188.059 436.469 188.059V181.875H435.954V178.268H407.096" stroke="#B27C40"/>
<path d="M405.034 321.014H391.635M447.291 315.861V307.1H455.021V315.861M368.961 279.272H377.206V272.058H368.961M367.93 221.04V229.285H372.053M378.752 221.04V229.285H372.053M372.053 229.285V221.04M365.354 204.034C366.462 201.557 367.432 199.405 368.776 197.335C370.671 192.969 371.589 188.933 372.053 182.906L344.225 177.237" stroke="#B27C40"/>
<path d="M61.5591 275.4V235.735H33.231V236.75H60.5435V275.4H61.5591Z" stroke="#B27C40" stroke-width="0.5"/>
<path d="M246.313 288.992C236.551 286.668 229.291 277.892 229.291 267.419C229.292 255.173 239.22 245.245 251.466 245.245C263.712 245.246 273.64 255.173 273.64 267.419C273.64 270.334 273.077 273.116 272.055 275.665H272.593C273.591 273.11 274.14 270.329 274.14 267.419L274.133 266.834C273.823 254.582 263.793 244.746 251.466 244.745L250.88 244.752C238.823 245.058 229.105 254.777 228.799 266.834L228.791 267.419C228.791 278.169 236.273 287.173 246.313 289.506V288.992Z" fill="#B27C40"/>
<path d="M245.281 299.886H240.128V288.033H245.281V263.752H205.086V290.609H220.546V306.585H245.281V299.886Z" fill="#F08234" fill-opacity="0.23"/>
<path d="M281.871 274.635H277.748V263.812H281.871L245.282 263.772V274.635L281.871 274.675V274.635Z" fill="#F08234" fill-opacity="0.23"/>
<path d="M218.243 283.573V275.573H221.306C221.884 275.573 222.364 275.664 222.747 275.847C223.132 276.026 223.42 276.272 223.61 276.585C223.803 276.897 223.899 277.252 223.899 277.647C223.899 277.973 223.837 278.252 223.712 278.483C223.587 278.712 223.419 278.899 223.208 279.042C222.997 279.185 222.761 279.288 222.501 279.35V279.429C222.785 279.444 223.057 279.531 223.317 279.69C223.58 279.847 223.795 280.068 223.962 280.354C224.129 280.641 224.212 280.987 224.212 281.393C224.212 281.807 224.112 282.18 223.911 282.511C223.711 282.839 223.409 283.098 223.005 283.288C222.601 283.478 222.093 283.573 221.481 283.573H218.243ZM219.692 282.362H221.251C221.777 282.362 222.156 282.262 222.388 282.061C222.622 281.858 222.739 281.598 222.739 281.28C222.739 281.043 222.681 280.83 222.563 280.64C222.446 280.447 222.28 280.296 222.063 280.186C221.847 280.074 221.59 280.018 221.29 280.018H219.692V282.362ZM219.692 278.975H221.126C221.376 278.975 221.601 278.93 221.802 278.839C222.002 278.745 222.16 278.613 222.274 278.444C222.392 278.272 222.45 278.069 222.45 277.835C222.45 277.525 222.341 277.27 222.122 277.069C221.906 276.869 221.584 276.768 221.157 276.768H219.692V278.975Z" fill="white"/>
<path d="M434.408 332.352H434.409L434.408 315.346H446.776V308.646H416.372V349.873L432.862 373.062H470.997V364.817H479.757V373.062H492.125V308.646H455.537V315.346H467.388L467.389 332.352V340.081H463.266V332.352H439.046V340.081H434.408V332.352Z" fill="#F08234" fill-opacity="0.2"/>
<path d="M449.108 357.781H447.561L450.377 349.781H452.167L454.987 357.781H453.44L451.303 351.421H451.241L449.108 357.781ZM449.159 354.644H453.377V355.808H449.159V354.644Z" fill="white"/>
<path d="M33.9966 274.634H60.2784V237.015H33.9966V274.634Z" fill="#F08234" fill-opacity="0.23"/>
<path d="M33.9966 290.61H54.6098V274.634H33.9966V290.61Z" fill="#F08234" fill-opacity="0.23"/>
<path d="M1.01538 270.512H33.9965V245.776H1.01538V270.512Z" fill="#F08234" fill-opacity="0.23"/>
<path d="M42.6638 259.72H41.2029C41.1612 259.481 41.0844 259.269 40.9724 259.084C40.8604 258.896 40.7211 258.737 40.5544 258.607C40.3878 258.477 40.1977 258.379 39.9841 258.314C39.7732 258.247 39.5453 258.213 39.3005 258.213C38.8656 258.213 38.4802 258.322 38.1443 258.541C37.8083 258.757 37.5453 259.075 37.3552 259.494C37.1651 259.911 37.0701 260.42 37.0701 261.021C37.0701 261.633 37.1651 262.149 37.3552 262.568C37.5479 262.985 37.811 263.3 38.1443 263.513C38.4802 263.724 38.8643 263.83 39.2966 263.83C39.5362 263.83 39.7602 263.799 39.9685 263.736C40.1794 263.671 40.3682 263.576 40.5349 263.451C40.7042 263.326 40.8461 263.172 40.9607 262.99C41.0779 262.808 41.1586 262.599 41.2029 262.365L42.6638 262.373C42.6091 262.753 42.4906 263.11 42.3083 263.443C42.1287 263.776 41.893 264.071 41.6013 264.326C41.3097 264.579 40.9685 264.776 40.5779 264.92C40.1873 265.06 39.7537 265.131 39.2771 265.131C38.574 265.131 37.9464 264.968 37.3943 264.642C36.8422 264.317 36.4073 263.847 36.0896 263.232C35.7719 262.618 35.613 261.881 35.613 261.021C35.613 260.159 35.7732 259.422 36.0935 258.81C36.4138 258.196 36.85 257.726 37.4021 257.4C37.9542 257.075 38.5792 256.912 39.2771 256.912C39.7224 256.912 40.1365 256.974 40.5193 257.099C40.9021 257.224 41.2432 257.408 41.5427 257.65C41.8422 257.89 42.0883 258.184 42.281 258.533C42.4763 258.879 42.6039 259.275 42.6638 259.72Z" fill="white"/>
</svg>
