<svg width="479" height="460" viewBox="0 0 479 460" fill="none" xmlns="http://www.w3.org/2000/svg">
<path fill-rule="evenodd" clip-rule="evenodd" d="M73.5 183V198.5H91.5V144.5L112 124V109.5H92V90L187.5 44.5H218V18H293V80.5H361.5C361.667 100.5 361.9 140.5 361.5 140.5H335.5V143.5H436.5V228.5H454.5L478.5 253V392.5H362.5V442H253.5C251.856 440.767 250.73 440.377 248.5 440L240 438C237.792 437.4 237.116 436.684 236.5 435C234.637 431.56 233.554 429.015 232.471 426.466C231.861 425.032 231.25 423.597 230.5 422L224 401.5V398.5L219.5 393V382H94.5V340.5H23V309.5H33C33.1667 294.167 33 263.5 33 263.5H1V200C3.92322 188.274 8.40798 185.062 19.5 183H73.5ZM191.5 347V319V318.5H199.5V312.5H239V283H250V293.5H242V322.5H272V315H282.5V321.5H274V392.5H247.5V347H191.5ZM281 245.5H274.5V291.5H262.5V293.5H313.5V343.5H364.5V333L360.5 327V320C363.441 317.299 364 315.5 364 310.5C362.5 306 361.851 305.081 358.5 302.5V264.5H328V272C328 272.4 296.667 272.167 281 272V245.5ZM393.5 332.5V300.5H404V340H392V370H328.5V363H389.5V332.5H393.5ZM52 303V309.5H116V347H173V318.5H130.5V269.5H89V303H52ZM73.5 246V224H92V228L100 235.5H141V208H157V216H198.5V230H183V283H214V297.5H200V285.5H154.5V238.5H122.5V246H73.5ZM21.5 229.5V238.5H33V229.5H21.5ZM54 282V267.5H60V282H54ZM386 173.5V182.5V183H395.5V173.5H386ZM409 224H411.5V254.5H417.5C418.617 255.677 418.898 256.461 419 258C418.899 259.483 418.531 260.112 417.5 261H411.5V272H457V277H392.5V254.5H409V224ZM426 330H422.5V307H453.5V330H450.5V322.5H426V330ZM420.5 363V370H465.5V363H420.5ZM309 105H262.5V218H233.5V206H219.5V230H328V254H331V215H368V211H356.5V199.5C353.71 197.724 352.512 196.516 351 194L343.5 183C342.459 181.228 341.622 180.516 339 180.5V175L333 171.5L321 167.5H318.5V140.5C317.78 138.385 316.541 138.116 314 138C313.665 134.569 312.446 133.589 309 133V105ZM199.5 74V117.5H144V124.5H150V183H237.5V166.5H206V116H234.5V113.5H218V74H199.5Z" fill="#271406"/>
<path d="M73.5 198.5V199H73V198.5H73.5ZM73.5 183V182.5H74V183H73.5ZM91.5 198.5H92V199H91.5V198.5ZM91.5 144.5H91V144.293L91.1464 144.146L91.5 144.5ZM112 124H112.5V124.207L112.354 124.354L112 124ZM112 109.5V109H112.5V109.5H112ZM92 109.5V110H91.5V109.5H92ZM92 90H91.5V89.6844L91.7849 89.5486L92 90ZM187.5 44.5L187.285 44.0486L187.387 44H187.5V44.5ZM218 44.5H218.5V45H218V44.5ZM218 18H217.5V17.5H218V18ZM293 18V17.5H293.5V18H293ZM293 80.5V81H292.5V80.5H293ZM361.5 80.5V80H361.996L362 80.4958L361.5 80.5ZM335.5 140.5H335V140H335.5V140.5ZM335.5 143.5V144H335V143.5H335.5ZM436.5 143.5V143H437V143.5H436.5ZM436.5 228.5V229H436V228.5H436.5ZM454.5 228.5V228H454.71L454.857 228.15L454.5 228.5ZM478.5 253L478.857 252.65L479 252.796V253H478.5ZM478.5 392.5H479V393H478.5V392.5ZM362.5 392.5H362V392H362.5V392.5ZM362.5 442H363V442.5H362.5V442ZM253.5 442V442.5H253.333L253.2 442.4L253.5 442ZM248.5 440L248.417 440.493L248.401 440.49L248.385 440.487L248.5 440ZM240 438L239.885 438.487L239.877 438.485L239.869 438.483L240 438ZM236.5 435L236.94 434.762L236.957 434.794L236.97 434.828L236.5 435ZM232.471 426.466L232.931 426.271L232.931 426.271L232.471 426.466ZM230.5 422L230.047 422.213L230.033 422.183L230.023 422.151L230.5 422ZM224 401.5L223.523 401.651L223.5 401.577V401.5H224ZM224 398.5L224.387 398.183L224.5 398.322V398.5H224ZM219.5 393L219.113 393.317L219 393.178V393H219.5ZM219.5 382V381.5H220V382H219.5ZM94.5 382V382.5H94V382H94.5ZM94.5 340.5V340H95V340.5H94.5ZM23 340.5V341H22.5V340.5H23ZM23 309.5H22.5V309H23V309.5ZM33 309.5L33.5 309.505L33.4946 310H33V309.5ZM33 263.5V263H33.4973L33.5 263.497L33 263.5ZM1 263.5V264H0.5V263.5H1ZM1 200H0.5V199.939L0.514848 199.879L1 200ZM19.5 183L19.4086 182.508L19.4539 182.5H19.5V183ZM191.5 347V347.5H191V347H191.5ZM191.5 318.5H191V318H191.5V318.5ZM199.5 318.5H200V319H199.5V318.5ZM199.5 312.5H199V312H199.5V312.5ZM239 312.5H239.5V313H239V312.5ZM239 283H238.5V282.5H239V283ZM250 283V282.5H250.5V283H250ZM250 293.5H250.5V294H250V293.5ZM242 293.5H241.5V293H242V293.5ZM242 322.5V323H241.5V322.5H242ZM272 322.5H272.5V323H272V322.5ZM272 315H271.5V314.5H272V315ZM282.5 315V314.5H283V315H282.5ZM282.5 321.5H283V322H282.5V321.5ZM274 321.5H273.5V321H274V321.5ZM274 392.5H274.5V393H274V392.5ZM247.5 392.5V393H247V392.5H247.5ZM247.5 347V346.5H248V347H247.5ZM274.5 245.5H274V245H274.5V245.5ZM281 245.5V245H281.5V245.5H281ZM274.5 291.5H275V292H274.5V291.5ZM262.5 291.5H262V291H262.5V291.5ZM262.5 293.5V294H262V293.5H262.5ZM313.5 293.5V293H314V293.5H313.5ZM313.5 343.5V344H313V343.5H313.5ZM364.5 343.5H365V344H364.5V343.5ZM364.5 333L364.916 332.723L365 332.849V333H364.5ZM360.5 327L360.084 327.277L360 327.151V327H360.5ZM360.5 320H360V319.78L360.162 319.632L360.5 320ZM364 310.5L364.474 310.342L364.5 310.419V310.5H364ZM358.5 302.5L358.195 302.896L358 302.746V302.5H358.5ZM358.5 264.5V264H359V264.5H358.5ZM328 264.5H327.5V264H328V264.5ZM281 272L280.995 272.5L280.5 272.495V272H281ZM393.5 300.5H393V300H393.5V300.5ZM393.5 332.5H394V333H393.5V332.5ZM404 300.5V300H404.5V300.5H404ZM404 340H404.5V340.5H404V340ZM392 340H391.5V339.5H392V340ZM392 370H392.5V370.5H392V370ZM328.5 370V370.5H328V370H328.5ZM328.5 363H328V362.5H328.5V363ZM389.5 363H390V363.5H389.5V363ZM389.5 332.5H389V332H389.5V332.5ZM52 309.5V310H51.5V309.5H52ZM52 303H51.5V302.5H52V303ZM116 309.5V309H116.5V309.5H116ZM116 347V347.5H115.5V347H116ZM173 347H173.5V347.5H173V347ZM173 318.5V318H173.5V318.5H173ZM130.5 318.5V319H130V318.5H130.5ZM130.5 269.5V269H131V269.5H130.5ZM89 269.5H88.5V269H89V269.5ZM89 303H89.5V303.5H89V303ZM73.5 224H73V223.5H73.5V224ZM73.5 246V246.5H73V246H73.5ZM92 224V223.5H92.5V224H92ZM92 228L91.658 228.365L91.5 228.217V228H92ZM100 235.5V236H99.8023L99.658 235.865L100 235.5ZM141 235.5H141.5V236H141V235.5ZM141 208H140.5V207.5H141V208ZM157 208V207.5H157.5V208H157ZM157 216V216.5H156.5V216H157ZM198.5 216V215.5H199V216H198.5ZM198.5 230H199V230.5H198.5V230ZM183 230H182.5V229.5H183V230ZM183 283V283.5H182.5V283H183ZM214 283V282.5H214.5V283H214ZM214 297.5H214.5V298H214V297.5ZM200 297.5V298H199.5V297.5H200ZM200 285.5V285H200.5V285.5H200ZM154.5 285.5V286H154V285.5H154.5ZM154.5 238.5V238H155V238.5H154.5ZM122.5 238.5H122V238H122.5V238.5ZM122.5 246H123V246.5H122.5V246ZM21.5 238.5V239H21V238.5H21.5ZM21.5 229.5H21V229H21.5V229.5ZM33 238.5H33.5V239H33V238.5ZM33 229.5V229H33.5V229.5H33ZM54 267.5H53.5V267H54V267.5ZM54 282V282.5H53.5V282H54ZM60 267.5V267H60.5V267.5H60ZM60 282H60.5V282.5H60V282ZM386 173.5H385.5V173H386V173.5ZM386 183V183.5H385.5V183H386ZM395.5 183H396V183.5H395.5V183ZM395.5 173.5V173H396V173.5H395.5ZM411.5 224V223.5H412V224H411.5ZM409 224H408.5V223.5H409V224ZM411.5 254.5V255H411V254.5H411.5ZM417.5 254.5V254H417.715L417.863 254.156L417.5 254.5ZM419 258L419.499 257.967L419.501 258L419.499 258.034L419 258ZM417.5 261L417.826 261.379L417.686 261.5H417.5V261ZM411.5 261H411V260.5H411.5V261ZM411.5 272V272.5H411V272H411.5ZM457 272V271.5H457.5V272H457ZM457 277H457.5V277.5H457V277ZM392.5 277V277.5H392V277H392.5ZM392.5 254.5H392V254H392.5V254.5ZM409 254.5H409.5V255H409V254.5ZM422.5 330V330.5H422V330H422.5ZM426 330H426.5V330.5H426V330ZM422.5 307H422V306.5H422.5V307ZM453.5 307V306.5H454V307H453.5ZM453.5 330H454V330.5H453.5V330ZM450.5 330V330.5H450V330H450.5ZM450.5 322.5V322H451V322.5H450.5ZM426 322.5H425.5V322H426V322.5ZM420.5 370V370.5H420V370H420.5ZM420.5 363H420V362.5H420.5V363ZM465.5 370H466V370.5H465.5V370ZM465.5 363V362.5H466V363H465.5ZM262.5 105H262V104.5H262.5V105ZM309 105V104.5H309.5V105H309ZM262.5 218H263V218.5H262.5V218ZM233.5 218V218.5H233V218H233.5ZM233.5 206V205.5H234V206H233.5ZM219.5 206H219V205.5H219.5V206ZM219.5 230V230.5H219V230H219.5ZM328 230V229.5H328.5V230H328ZM328 254V254.5H327.5V254H328ZM331 254H331.5V254.5H331V254ZM331 215H330.5V214.5H331V215ZM368 215H368.5V215.5H368V215ZM368 211V210.5H368.5V211H368ZM356.5 211V211.5H356V211H356.5ZM356.5 199.5L356.769 199.078L357 199.226V199.5H356.5ZM351 194L351.413 193.718L351.421 193.73L351.429 193.743L351 194ZM343.5 183L343.087 183.282L343.077 183.268L343.069 183.253L343.5 183ZM339 180.5L338.997 181L338.5 180.997V180.5H339ZM339 175L339.252 174.568L339.5 174.713V175H339ZM333 171.5L333.158 171.026L333.207 171.042L333.252 171.068L333 171.5ZM321 167.5V167H321.081L321.158 167.026L321 167.5ZM318.5 167.5V168H318V167.5H318.5ZM318.5 140.5L318.973 140.339L319 140.417V140.5H318.5ZM314 138L313.977 138.499L313.544 138.48L313.502 138.049L314 138ZM309 133L308.916 133.493L308.5 133.422V133H309ZM199.5 117.5H200V118H199.5V117.5ZM199.5 74H199V73.5H199.5V74ZM144 117.5H143.5V117H144V117.5ZM144 124.5V125H143.5V124.5H144ZM150 124.5V124H150.5V124.5H150ZM150 183V183.5H149.5V183H150ZM237.5 183H238V183.5H237.5V183ZM237.5 166.5V166H238V166.5H237.5ZM206 166.5V167H205.5V166.5H206ZM206 116H205.5V115.5H206V116ZM234.5 116H235V116.5H234.5V116ZM234.5 113.5V113H235V113.5H234.5ZM218 113.5V114H217.5V113.5H218ZM218 74V73.5H218.5V74H218ZM73.5 198.5H73V183H73.5H74V198.5H73.5ZM91.5 198.5V199H73.5V198.5V198H91.5V198.5ZM91.5 144.5H92V198.5H91.5H91V144.5H91.5ZM112 124L112.354 124.354L91.8536 144.854L91.5 144.5L91.1464 144.146L111.646 123.646L112 124ZM112 109.5H112.5V124H112H111.5V109.5H112ZM92 109.5V109H112V109.5V110H92V109.5ZM92 90H92.5V109.5H92H91.5V90H92ZM187.5 44.5L187.715 44.9514L92.2151 90.4514L92 90L91.7849 89.5486L187.285 44.0486L187.5 44.5ZM218 44.5V45H187.5V44.5V44H218V44.5ZM218 18H218.5V44.5H218H217.5V18H218ZM293 18V18.5H218V18V17.5H293V18ZM293 80.5H292.5V18H293H293.5V80.5H293ZM361.5 80.5V81H293V80.5V80H361.5V80.5ZM361.5 140.5V140C361.226 140 361.099 140.206 361.086 140.227C361.054 140.277 361.042 140.319 361.04 140.324C361.035 140.342 361.036 140.343 361.041 140.311C361.049 140.255 361.059 140.158 361.069 140.012C361.088 139.724 361.106 139.293 361.122 138.728C361.153 137.601 361.176 135.964 361.192 133.934C361.224 129.874 361.227 124.251 361.212 118.001C361.183 105.503 361.083 90.5036 361 80.5042L361.5 80.5L362 80.4958C362.083 90.4964 362.183 105.497 362.212 117.999C362.227 124.249 362.224 129.876 362.192 133.941C362.176 135.973 362.153 137.618 362.121 138.756C362.106 139.324 362.088 139.772 362.067 140.08C362.056 140.232 362.045 140.361 362.03 140.458C362.024 140.502 362.014 140.562 361.996 140.618C361.989 140.643 361.97 140.699 361.933 140.759C361.914 140.789 361.78 141 361.5 141V140.5ZM335.5 140.5V140H361.5V140.5V141H335.5V140.5ZM335.5 143.5H335V140.5H335.5H336V143.5H335.5ZM436.5 143.5V144H335.5V143.5V143H436.5V143.5ZM436.5 228.5H436V143.5H436.5H437V228.5H436.5ZM454.5 228.5V229H436.5V228.5V228H454.5V228.5ZM478.5 253L478.143 253.35L454.143 228.85L454.5 228.5L454.857 228.15L478.857 252.65L478.5 253ZM478.5 392.5H478V253H478.5H479V392.5H478.5ZM362.5 392.5V392H478.5V392.5V393H362.5V392.5ZM362.5 442H362V392.5H362.5H363V442H362.5ZM253.5 442V441.5H362.5V442V442.5H253.5V442ZM248.5 440L248.583 439.507C249.71 439.698 250.588 439.896 251.401 440.214C252.22 440.533 252.952 440.964 253.8 441.6L253.5 442L253.2 442.4C252.404 441.803 251.751 441.423 251.038 441.145C250.32 440.865 249.52 440.68 248.417 440.493L248.5 440ZM240 438L240.115 437.513L248.615 439.513L248.5 440L248.385 440.487L239.885 438.487L240 438ZM236.5 435L236.97 434.828C237.266 435.64 237.554 436.149 237.985 436.533C238.422 436.922 239.055 437.225 240.131 437.517L240 438L239.869 438.483C238.737 438.175 237.928 437.821 237.321 437.28C236.708 436.735 236.349 436.044 236.03 435.172L236.5 435ZM232.471 426.466L232.931 426.271C234.014 428.817 235.088 431.344 236.94 434.762L236.5 435L236.06 435.238C234.185 431.776 233.095 429.213 232.011 426.662L232.471 426.466ZM230.5 422L230.953 421.787C231.707 423.393 232.321 424.837 232.931 426.271L232.471 426.466L232.011 426.662C231.4 425.227 230.793 423.8 230.047 422.213L230.5 422ZM224 401.5L224.477 401.349L230.977 421.849L230.5 422L230.023 422.151L223.523 401.651L224 401.5ZM224 398.5H224.5V401.5H224H223.5V398.5H224ZM219.5 393L219.887 392.683L224.387 398.183L224 398.5L223.613 398.817L219.113 393.317L219.5 393ZM219.5 382H220V393H219.5H219V382H219.5ZM94.5 382V381.5H219.5V382V382.5H94.5V382ZM94.5 340.5H95V382H94.5H94V340.5H94.5ZM23 340.5V340H94.5V340.5V341H23V340.5ZM23 309.5H23.5V340.5H23H22.5V309.5H23ZM33 309.5V310H23V309.5V309H33V309.5ZM33 263.5C33.5 263.497 33.5 263.497 33.5 263.498C33.5 263.498 33.5 263.498 33.5 263.499C33.5 263.5 33.5 263.501 33.5 263.503C33.5 263.507 33.5001 263.512 33.5001 263.52C33.5002 263.534 33.5003 263.557 33.5005 263.586C33.5008 263.644 33.5012 263.731 33.5018 263.846C33.503 264.074 33.5047 264.411 33.5068 264.845C33.5111 265.714 33.5169 266.972 33.5234 268.529C33.5365 271.644 33.5521 275.957 33.5625 280.749C33.5833 290.332 33.5833 301.835 33.5 309.505L33 309.5L32.5 309.495C32.5833 301.832 32.5833 290.335 32.5625 280.751C32.5521 275.96 32.5365 271.648 32.5234 268.533C32.5169 266.976 32.5111 265.718 32.5068 264.85C32.5047 264.416 32.503 264.079 32.5018 263.851C32.5012 263.737 32.5008 263.65 32.5005 263.591C32.5003 263.562 32.5002 263.54 32.5001 263.525C32.5001 263.518 32.5001 263.512 32.5 263.508C32.5 263.506 32.5 263.505 32.5 263.504C32.5 263.504 32.5 263.503 32.5 263.503C32.5 263.503 32.5 263.503 33 263.5ZM1 263.5V263H33V263.5V264H1V263.5ZM1 200H1.5V263.5H1H0.5V200H1ZM19.5 183L19.5914 183.492C14.0651 184.519 10.2841 185.818 7.51688 188.252C4.75577 190.68 2.93694 194.297 1.48515 200.121L1 200L0.514848 199.879C1.98629 193.977 3.87144 190.126 6.85652 187.501C9.83546 184.881 13.8428 183.543 19.4086 182.508L19.5 183ZM73.5 183V183.5H19.5V183V182.5H73.5V183ZM191.5 319H192V347H191.5H191V319H191.5ZM191.5 318.5H192V319H191.5H191V318.5H191.5ZM199.5 318.5V319H191.5V318.5V318H199.5V318.5ZM199.5 312.5H200V318.5H199.5H199V312.5H199.5ZM239 312.5V313H199.5V312.5V312H239V312.5ZM239 283H239.5V312.5H239H238.5V283H239ZM250 283V283.5H239V283V282.5H250V283ZM250 293.5H249.5V283H250H250.5V293.5H250ZM242 293.5V293H250V293.5V294H242V293.5ZM242 322.5H241.5V293.5H242H242.5V322.5H242ZM272 322.5V323H242V322.5V322H272V322.5ZM272 315H272.5V322.5H272H271.5V315H272ZM282.5 315V315.5H272V315V314.5H282.5V315ZM282.5 321.5H282V315H282.5H283V321.5H282.5ZM274 321.5V321H282.5V321.5V322H274V321.5ZM274 392.5H273.5V321.5H274H274.5V392.5H274ZM247.5 392.5V392H274V392.5V393H247.5V392.5ZM247.5 347H248V392.5H247.5H247V347H247.5ZM191.5 347V346.5H247.5V347V347.5H191.5V347ZM274.5 245.5V245H281V245.5V246H274.5V245.5ZM274.5 291.5H274V245.5H274.5H275V291.5H274.5ZM262.5 291.5V291H274.5V291.5V292H262.5V291.5ZM262.5 293.5H262V291.5H262.5H263V293.5H262.5ZM313.5 293.5V294H262.5V293.5V293H313.5V293.5ZM313.5 343.5H313V293.5H313.5H314V343.5H313.5ZM364.5 343.5V344H313.5V343.5V343H364.5V343.5ZM364.5 333H365V343.5H364.5H364V333H364.5ZM360.5 327L360.916 326.723L364.916 332.723L364.5 333L364.084 333.277L360.084 327.277L360.5 327ZM360.5 320H361V327H360.5H360V320H360.5ZM364 310.5H364.5C364.5 313.005 364.362 314.781 363.823 316.281C363.278 317.8 362.339 318.99 360.838 320.368L360.5 320L360.162 319.632C361.602 318.308 362.413 317.249 362.882 315.943C363.358 314.619 363.5 312.995 363.5 310.5H364ZM358.5 302.5L358.805 302.104C360.483 303.396 361.539 304.312 362.356 305.496C363.169 306.676 363.725 308.093 364.474 310.342L364 310.5L363.526 310.658C362.775 308.407 362.256 307.114 361.532 306.064C360.812 305.019 359.867 304.184 358.195 302.896L358.5 302.5ZM358.5 264.5H359V302.5H358.5H358V264.5H358.5ZM328 264.5V264H358.5V264.5V265H328V264.5ZM328 272H327.5V264.5H328H328.5V272H328ZM281 272L281.005 271.5C288.838 271.583 300.587 271.683 310.376 271.712C315.272 271.727 319.675 271.724 322.854 271.692C324.445 271.676 325.725 271.653 326.605 271.622C327.047 271.606 327.381 271.589 327.601 271.57C327.714 271.56 327.783 271.551 327.817 271.544C327.838 271.54 327.824 271.541 327.794 271.553C327.782 271.558 327.735 271.577 327.682 271.619C327.635 271.657 327.5 271.782 327.5 272H328H328.5C328.5 272.224 328.361 272.356 328.307 272.399C328.246 272.448 328.187 272.473 328.16 272.484C328.101 272.507 328.041 272.52 328.002 272.527C327.917 272.543 327.808 272.555 327.687 272.566C327.441 272.587 327.086 272.606 326.641 272.621C325.747 272.653 324.456 272.676 322.864 272.692C319.679 272.724 315.27 272.727 310.374 272.712C300.58 272.683 288.829 272.583 280.995 272.5L281 272ZM281 245.5H281.5V272H281H280.5V245.5H281ZM393.5 300.5H394V332.5H393.5H393V300.5H393.5ZM404 300.5V301H393.5V300.5V300H404V300.5ZM404 340H403.5V300.5H404H404.5V340H404ZM392 340V339.5H404V340V340.5H392V340ZM392 370H391.5V340H392H392.5V370H392ZM328.5 370V369.5H392V370V370.5H328.5V370ZM328.5 363H329V370H328.5H328V363H328.5ZM389.5 363V363.5H328.5V363V362.5H389.5V363ZM389.5 332.5H390V363H389.5H389V332.5H389.5ZM393.5 332.5V333H389.5V332.5V332H393.5V332.5ZM52 309.5H51.5V303H52H52.5V309.5H52ZM116 309.5V310H52V309.5V309H116V309.5ZM116 347H115.5V309.5H116H116.5V347H116ZM173 347V347.5H116V347V346.5H173V347ZM173 318.5H173.5V347H173H172.5V318.5H173ZM130.5 318.5V318H173V318.5V319H130.5V318.5ZM130.5 269.5H131V318.5H130.5H130V269.5H130.5ZM89 269.5V269H130.5V269.5V270H89V269.5ZM89 303H88.5V269.5H89H89.5V303H89ZM52 303V302.5H89V303V303.5H52V303ZM73.5 224H74V246H73.5H73V224H73.5ZM92 224V224.5H73.5V224V223.5H92V224ZM92 228H91.5V224H92H92.5V228H92ZM100 235.5L99.658 235.865L91.658 228.365L92 228L92.342 227.635L100.342 235.135L100 235.5ZM141 235.5V236H100V235.5V235H141V235.5ZM141 208H141.5V235.5H141H140.5V208H141ZM157 208V208.5H141V208V207.5H157V208ZM157 216H156.5V208H157H157.5V216H157ZM198.5 216V216.5H157V216V215.5H198.5V216ZM198.5 230H198V216H198.5H199V230H198.5ZM183 230V229.5H198.5V230V230.5H183V230ZM183 283H182.5V230H183H183.5V283H183ZM214 283V283.5H183V283V282.5H214V283ZM214 297.5H213.5V283H214H214.5V297.5H214ZM200 297.5V297H214V297.5V298H200V297.5ZM200 285.5H200.5V297.5H200H199.5V285.5H200ZM154.5 285.5V285H200V285.5V286H154.5V285.5ZM154.5 238.5H155V285.5H154.5H154V238.5H154.5ZM122.5 238.5V238H154.5V238.5V239H122.5V238.5ZM122.5 246H122V238.5H122.5H123V246H122.5ZM73.5 246V245.5H122.5V246V246.5H73.5V246ZM21.5 238.5H21V229.5H21.5H22V238.5H21.5ZM33 238.5V239H21.5V238.5V238H33V238.5ZM33 229.5H33.5V238.5H33H32.5V229.5H33ZM21.5 229.5V229H33V229.5V230H21.5V229.5ZM54 267.5H54.5V282H54H53.5V267.5H54ZM60 267.5V268H54V267.5V267H60V267.5ZM60 282H59.5V267.5H60H60.5V282H60ZM54 282V281.5H60V282V282.5H54V282ZM386 182.5H385.5V173.5H386H386.5V182.5H386ZM386 183H385.5V182.5H386H386.5V183H386ZM395.5 183V183.5H386V183V182.5H395.5V183ZM395.5 173.5H396V183H395.5H395V173.5H395.5ZM386 173.5V173H395.5V173.5V174H386V173.5ZM411.5 224V224.5H409V224V223.5H411.5V224ZM411.5 254.5H411V224H411.5H412V254.5H411.5ZM417.5 254.5V255H411.5V254.5V254H417.5V254.5ZM419 258L418.501 258.033C418.452 257.285 418.361 256.768 418.169 256.306C417.979 255.848 417.673 255.408 417.137 254.844L417.5 254.5L417.863 254.156C418.445 254.769 418.838 255.31 419.093 255.923C419.346 256.532 419.447 257.176 419.499 257.967L419 258ZM417.5 261L417.174 260.621C417.67 260.194 417.964 259.864 418.154 259.494C418.344 259.126 418.453 258.674 418.501 257.966L419 258L419.499 258.034C419.446 258.809 419.321 259.413 419.044 259.952C418.767 260.49 418.361 260.919 417.826 261.379L417.5 261ZM411.5 261V260.5H417.5V261V261.5H411.5V261ZM411.5 272H411V261H411.5H412V272H411.5ZM457 272V272.5H411.5V272V271.5H457V272ZM457 277H456.5V272H457H457.5V277H457ZM392.5 277V276.5H457V277V277.5H392.5V277ZM392.5 254.5H393V277H392.5H392V254.5H392.5ZM409 254.5V255H392.5V254.5V254H409V254.5ZM409 224H409.5V254.5H409H408.5V224H409ZM422.5 330V329.5H426V330V330.5H422.5V330ZM422.5 307H423V330H422.5H422V307H422.5ZM453.5 307V307.5H422.5V307V306.5H453.5V307ZM453.5 330H453V307H453.5H454V330H453.5ZM450.5 330V329.5H453.5V330V330.5H450.5V330ZM450.5 322.5H451V330H450.5H450V322.5H450.5ZM426 322.5V322H450.5V322.5V323H426V322.5ZM426 330H425.5V322.5H426H426.5V330H426ZM420.5 370H420V363H420.5H421V370H420.5ZM465.5 370V370.5H420.5V370V369.5H465.5V370ZM465.5 363H466V370H465.5H465V363H465.5ZM420.5 363V362.5H465.5V363V363.5H420.5V363ZM262.5 105V104.5H309V105V105.5H262.5V105ZM262.5 218H262V105H262.5H263V218H262.5ZM233.5 218V217.5H262.5V218V218.5H233.5V218ZM233.5 206H234V218H233.5H233V206H233.5ZM219.5 206V205.5H233.5V206V206.5H219.5V206ZM219.5 230H219V206H219.5H220V230H219.5ZM328 230V230.5H219.5V230V229.5H328V230ZM328 254H327.5V230H328H328.5V254H328ZM331 254V254.5H328V254V253.5H331V254ZM331 215H331.5V254H331H330.5V215H331ZM368 215V215.5H331V215V214.5H368V215ZM368 211H368.5V215H368H367.5V211H368ZM356.5 211V210.5H368V211V211.5H356.5V211ZM356.5 199.5H357V211H356.5H356V199.5H356.5ZM351 194L351.429 193.743C352.172 194.98 352.826 195.874 353.624 196.674C354.425 197.476 355.388 198.199 356.769 199.078L356.5 199.5L356.231 199.922C354.822 199.024 353.791 198.256 352.917 197.381C352.041 196.504 351.34 195.536 350.571 194.257L351 194ZM343.5 183L343.913 182.718L351.413 193.718L351 194L350.587 194.282L343.087 183.282L343.5 183ZM339 180.5L339.003 180C340.351 180.008 341.321 180.194 342.101 180.663C342.879 181.132 343.401 181.845 343.931 182.747L343.5 183L343.069 183.253C342.558 182.384 342.14 181.854 341.585 181.52C341.03 181.186 340.271 181.008 338.997 181L339 180.5ZM339 175H339.5V180.5H339H338.5V175H339ZM333 171.5L333.252 171.068L339.252 174.568L339 175L338.748 175.432L332.748 171.932L333 171.5ZM321 167.5L321.158 167.026L333.158 171.026L333 171.5L332.842 171.974L320.842 167.974L321 167.5ZM318.5 167.5V167H321V167.5V168H318.5V167.5ZM318.5 140.5H319V167.5H318.5H318V140.5H318.5ZM314 138L314.023 137.501C315.281 137.558 316.327 137.653 317.15 138.05C318.021 138.47 318.584 139.194 318.973 140.339L318.5 140.5L318.027 140.661C317.696 139.691 317.279 139.222 316.716 138.951C316.104 138.655 315.26 138.558 313.977 138.499L314 138ZM309 133L309.084 132.507C310.82 132.804 312.119 133.215 313.013 134.074C313.92 134.946 314.326 136.196 314.498 137.951L314 138L313.502 138.049C313.339 136.374 312.968 135.418 312.32 134.795C311.659 134.159 310.625 133.785 308.916 133.493L309 133ZM309 105H309.5V133H309H308.5V105H309ZM199.5 117.5H199V74H199.5H200V117.5H199.5ZM144 117.5V117H199.5V117.5V118H144V117.5ZM144 124.5H143.5V117.5H144H144.5V124.5H144ZM150 124.5V125H144V124.5V124H150V124.5ZM150 183H149.5V124.5H150H150.5V183H150ZM237.5 183V183.5H150V183V182.5H237.5V183ZM237.5 166.5H238V183H237.5H237V166.5H237.5ZM206 166.5V166H237.5V166.5V167H206V166.5ZM206 116H206.5V166.5H206H205.5V116H206ZM234.5 116V116.5H206V116V115.5H234.5V116ZM234.5 113.5H235V116H234.5H234V113.5H234.5ZM218 113.5V113H234.5V113.5V114H218V113.5ZM218 74H218.5V113.5H218H217.5V74H218ZM199.5 74V73.5H218V74V74.5H199.5V74Z" fill="#B27C40"/>
<path d="M199.5 183C199.5 183.4 199.5 188.5 199.5 191H206.5V183" stroke="#B27C40"/>
<path d="M262.5 116H254.5V109M254.5 109V105H262.5V109H254.5Z" stroke="#B27C40"/>
<path d="M239 283V280.5M274.5 267.5H270.5M270.5 267.5H239V280.5M270.5 267.5V253H274.5M239 291H234V280.5H239" stroke="#B27C40"/>
<path d="M183 275H187M199 283V275H187M187 275V271H183M191.5 318.5V312.5H200M116 347V355.5H123V347M94.5 332H23" stroke="#B27C40"/>
<path d="M76.5 303C76.5 302.6 76.5 299.5 76.5 298H81M81 298V303M81 298V294.5H89M21.5 230V213.5H28.5V229.5M61 183V187H65M73.5 191H65.5V183M141 215H132.5V208H141M144 124.5H136.5V117.5H144M177.5 117.5V96.5M177.5 88.5V73.5H185V88.5H181M177.5 88.5H181M177.5 88.5V96.5M181 88.5V96.5H177.5M222 149H223.5V147.5M222 149V147.5H223.5M222 149L223.5 147.5M222 133H223.5V131.5M222 133V131.5H223.5M222 133L223.5 131.5M109.5 181L100.5 172L107 156.5L127 149L139 154.5L143 169.5L137 180.5L119.5 185L109.5 181Z" stroke="#B27C40"/>
<path d="M458 363V355H465.5V363M449.5 370V392.5M420.5 363L404 339.5M392 370V377.5H385V370M362.5 422H353.5V425M353.5 442V429M362.5 429H353.5M353.5 429V425M342.5 442V434L353.5 425" stroke="#B27C40"/>
<path d="M361.5 178V176L357.5 172H353.5C351.65 172.403 351.043 173.233 350.5 175.5M395.5 183L399 184H401.5C402.167 183.667 403.7 183 404.5 183C405.3 183 417.833 183 424 183V177H423.5V173.5H395.5" stroke="#B27C40"/>
<path d="M393.5 312H380.5M434.5 307V298.5H442V307M358.5 271.5H366.5V264.5H358.5M357.5 215V223H361.5M368 215V223H361.5M361.5 223V215M355 198.5C356.075 196.096 357.017 194.009 358.32 192C360.159 187.764 361.05 183.848 361.5 178L334.5 172.5" stroke="#B27C40"/>
<path d="M60.25 267.75V229.25H32.75V230.25H59.25V267.75H60.25Z" stroke="#B27C40" stroke-width="0.5"/>
<path d="M239.5 280.915C230.037 278.661 223 270.152 223 260C223 248.126 232.626 238.5 244.5 238.5C256.374 238.5 266 248.126 266 260C266 262.827 265.453 265.527 264.461 268H264.999C265.967 265.52 266.5 262.822 266.5 260C266.5 247.85 256.65 238 244.5 238C232.35 238 222.5 247.85 222.5 260C222.5 270.43 229.759 279.165 239.5 281.429V280.915Z" fill="#B27C40"/>
<path d="M238.5 291.5H233.5V280H238.5V256.441H199.5V282.5H214.5V298H238.5V291.5Z" fill="#F08234" fill-opacity="0.23"/>
<path d="M274 267H270V256.5H274L238.5 256.461V267L274 267.039V267Z" fill="#F08234" fill-opacity="0.23"/>
<path d="M212.289 276V268H215.352C215.93 268 216.41 268.091 216.793 268.273C217.178 268.453 217.466 268.699 217.656 269.012C217.849 269.324 217.945 269.678 217.945 270.074C217.945 270.4 217.883 270.678 217.758 270.91C217.633 271.139 217.465 271.326 217.254 271.469C217.043 271.612 216.807 271.715 216.547 271.777V271.855C216.831 271.871 217.103 271.958 217.363 272.117C217.626 272.273 217.841 272.495 218.008 272.781C218.174 273.068 218.258 273.414 218.258 273.82C218.258 274.234 218.158 274.607 217.957 274.937C217.757 275.266 217.454 275.525 217.051 275.715C216.647 275.905 216.139 276 215.527 276H212.289ZM213.738 274.789H215.297C215.823 274.789 216.202 274.689 216.434 274.488C216.668 274.285 216.785 274.025 216.785 273.707C216.785 273.47 216.727 273.257 216.609 273.066C216.492 272.874 216.326 272.723 216.109 272.613C215.893 272.501 215.635 272.445 215.336 272.445H213.738V274.789ZM213.738 271.402H215.172C215.422 271.402 215.647 271.357 215.848 271.266C216.048 271.172 216.206 271.04 216.32 270.871C216.438 270.699 216.496 270.496 216.496 270.262C216.496 269.952 216.387 269.697 216.168 269.496C215.952 269.296 215.63 269.195 215.203 269.195H213.738V271.402Z" fill="white"/>
<path d="M422 323H422.001L422 306.5H434V300H404.5V340L420.5 362.5H457.5V354.5H466V362.5H478V300H442.5V306.5H453.999L454 323V330.5H450V323H426.5V330.5H422V323Z" fill="#F08234" fill-opacity="0.2"/>
<path d="M436.316 348H434.77L437.586 340H439.375L442.195 348H440.648L438.512 341.641H438.449L436.316 348ZM436.367 344.863H440.586V346.027H436.367V344.863Z" fill="white"/>
<path d="M33.5 267H59V230.5H33.5V267Z" fill="#F08234" fill-opacity="0.23"/>
<path d="M33.5 282.5H53.5V267H33.5V282.5Z" fill="#F08234" fill-opacity="0.23"/>
<path d="M1.5 263H33.5V239H1.5V263Z" fill="#F08234" fill-opacity="0.23"/>
<path d="M42.1367 252.699H40.6758C40.6341 252.46 40.5573 252.247 40.4453 252.062C40.3333 251.875 40.194 251.716 40.0273 251.586C39.8607 251.456 39.6706 251.358 39.457 251.293C39.2461 251.225 39.0182 251.191 38.7734 251.191C38.3385 251.191 37.9531 251.301 37.6172 251.52C37.2813 251.736 37.0182 252.053 36.8281 252.473C36.638 252.889 36.543 253.398 36.543 254C36.543 254.612 36.638 255.128 36.8281 255.547C37.0208 255.964 37.2839 256.279 37.6172 256.492C37.9531 256.703 38.3372 256.809 38.7695 256.809C39.0091 256.809 39.2331 256.777 39.4414 256.715C39.6523 256.65 39.8411 256.555 40.0078 256.43C40.1771 256.305 40.319 256.151 40.4336 255.969C40.5508 255.786 40.6315 255.578 40.6758 255.344L42.1367 255.352C42.082 255.732 41.9635 256.089 41.7812 256.422C41.6016 256.755 41.3659 257.049 41.0742 257.305C40.7826 257.557 40.4414 257.755 40.0508 257.898C39.6602 258.039 39.2266 258.109 38.75 258.109C38.0469 258.109 37.4193 257.947 36.8672 257.621C36.3151 257.296 35.8802 256.826 35.5625 256.211C35.2448 255.596 35.0859 254.859 35.0859 254C35.0859 253.138 35.2461 252.401 35.5664 251.789C35.8867 251.174 36.3229 250.704 36.875 250.379C37.4271 250.053 38.0521 249.891 38.75 249.891C39.1953 249.891 39.6094 249.953 39.9922 250.078C40.375 250.203 40.7161 250.387 41.0156 250.629C41.3151 250.868 41.5612 251.163 41.7539 251.512C41.9492 251.858 42.0768 252.254 42.1367 252.699Z" fill="white"/>
</svg>
