<svg width="479" height="460" viewBox="0 0 479 460" fill="none" xmlns="http://www.w3.org/2000/svg">
<path fill-rule="evenodd" clip-rule="evenodd" d="M73 277V261.5H91V315.5L111.5 336V350.5H91.5V370L187 415.5H217.5V442H292.5V379.5H361C361.167 359.5 361.4 319.5 361 319.5H335V316.5H436V231.5H454L478 207V67.5H362V18H253C251.356 19.2325 250.23 19.6226 248 20L239.5 22C237.292 22.5996 236.616 23.3159 236 25C234.137 28.4402 233.054 30.9853 231.971 33.5337C231.361 34.9681 230.75 36.4034 230 38L223.5 58.5V61.5L219 67V78H94V119.5H22.5V150.5H32.5C32.6667 165.833 32.9 196.5 32.5 196.5H0.5V260C3.42322 271.726 7.90798 274.938 19 277H73ZM191 113V141V141.5H199V147.5H238.5V177H249.5V166.5H241.5V137.5H271.5V145H282V138.5H273.5V67.5H247V113H191ZM280.5 214.5H274V168.5H262V166.5H313V116.5H364V127L360 133V140C362.941 142.701 363.5 144.5 363.5 149.5C362 154 361.351 154.919 358 157.5V195.5H327.5V188C327.5 187.6 296.167 187.833 280.5 188V214.5ZM393 127.5V159.5H403.5V120H391.5V90H328V97H389V127.5H393ZM51.5 157V150.5H115.5V113H172.5V141.5H130V190.5H88.5V157H51.5ZM73 214V236H91.5V232L99.5 224.5H140.5V252H156.5V244H198V230H182.5V177H213.5V162.5C208.833 162.333 199.5 162.1 199.5 162.5V174.5H154V221.5H122V214H73ZM21 230.5V221.5H32.5V230.5H21ZM53.5 178V192.5H59.5V178H53.5ZM385.5 286.5V277.5V277H395V286.5H385.5ZM408.5 236H411V205.5H417C418.117 204.323 418.398 203.539 418.5 202C418.399 200.517 418.031 199.888 417 199H411V188H456.5V183H392V205.5H408.5V236ZM425.5 130H422V153H453V130H450V137.5H425.5V130ZM420 97V90H465V97H420ZM308.5 355H262V242H233V254H219V230H327.5V206H330.5V245H367.5V249H356V260.5C353.21 262.276 352.012 263.484 350.5 266L343 277C341.959 278.772 341.122 279.484 338.5 279.5V285L332.5 288.5L320.5 292.5H318V319.5C317.28 321.615 316.041 321.884 313.5 322C313.165 325.431 311.946 326.411 308.5 327V355ZM199 386V342.5H143.5V335.5H149.5V277H237V293.5H205.5V344H234V346.5H217.5V386H199Z" fill="#271406"/>
<path d="M73 261.5V261H72.5V261.5H73ZM73 277V277.5H73.5V277H73ZM91 261.5H91.5V261H91V261.5ZM91 315.5H90.5V315.707L90.6464 315.854L91 315.5ZM111.5 336H112V335.793L111.854 335.646L111.5 336ZM111.5 350.5V351H112V350.5H111.5ZM91.5 350.5V350H91V350.5H91.5ZM91.5 370H91V370.316L91.2849 370.451L91.5 370ZM187 415.5L186.785 415.951L186.887 416H187V415.5ZM217.5 415.5H218V415H217.5V415.5ZM217.5 442H217V442.5H217.5V442ZM292.5 442V442.5H293V442H292.5ZM292.5 379.5V379H292V379.5H292.5ZM361 379.5V380H361.496L361.5 379.504L361 379.5ZM335 319.5H334.5V320H335V319.5ZM335 316.5V316H334.5V316.5H335ZM436 316.5V317H436.5V316.5H436ZM436 231.5V231H435.5V231.5H436ZM454 231.5V232H454.21L454.357 231.85L454 231.5ZM478 207L478.357 207.35L478.5 207.204V207H478ZM478 67.5H478.5V67H478V67.5ZM362 67.5H361.5V68H362V67.5ZM362 18H362.5V17.5H362V18ZM253 18V17.5H252.833L252.7 17.5999L253 18ZM248 20L247.917 19.507L247.901 19.5097L247.885 19.5133L248 20ZM239.5 22L239.385 21.5133L239.377 21.5152L239.369 21.5175L239.5 22ZM236 25L236.44 25.2381L236.457 25.206L236.47 25.1717L236 25ZM231.971 33.5337L232.431 33.7293L232.431 33.7293L231.971 33.5337ZM230 38L229.547 37.7873L229.533 37.8173L229.523 37.8489L230 38ZM223.5 58.5L223.023 58.3489L223 58.4226V58.5H223.5ZM223.5 61.5L223.887 61.8166L224 61.6785V61.5H223.5ZM219 67L218.613 66.6834L218.5 66.8215V67H219ZM219 78V78.5H219.5V78H219ZM94 78V77.5H93.5V78H94ZM94 119.5V120H94.5V119.5H94ZM22.5 119.5V119H22V119.5H22.5ZM22.5 150.5H22V151H22.5V150.5ZM32.5 150.5L33 150.495L32.9946 150H32.5V150.5ZM0.5 196.5V196H0V196.5H0.5ZM0.5 260H0V260.061L0.014848 260.121L0.5 260ZM19 277L18.9086 277.492L18.9539 277.5H19V277ZM191 113V112.5H190.5V113H191ZM191 141.5H190.5V142H191V141.5ZM199 141.5H199.5V141H199V141.5ZM199 147.5H198.5V148H199V147.5ZM238.5 147.5H239V147H238.5V147.5ZM238.5 177H238V177.5H238.5V177ZM249.5 177V177.5H250V177H249.5ZM249.5 166.5H250V166H249.5V166.5ZM241.5 166.5H241V167H241.5V166.5ZM241.5 137.5V137H241V137.5H241.5ZM271.5 137.5H272V137H271.5V137.5ZM271.5 145H271V145.5H271.5V145ZM282 145V145.5H282.5V145H282ZM282 138.5H282.5V138H282V138.5ZM273.5 138.5H273V139H273.5V138.5ZM273.5 67.5H274V67H273.5V67.5ZM247 67.5V67H246.5V67.5H247ZM247 113V113.5H247.5V113H247ZM274 214.5H273.5V215H274V214.5ZM280.5 214.5V215H281V214.5H280.5ZM274 168.5H274.5V168H274V168.5ZM262 168.5H261.5V169H262V168.5ZM262 166.5V166H261.5V166.5H262ZM313 166.5V167H313.5V166.5H313ZM313 116.5V116H312.5V116.5H313ZM364 116.5H364.5V116H364V116.5ZM364 127L364.416 127.277L364.5 127.151V127H364ZM360 133L359.584 132.723L359.5 132.849V133H360ZM360 140H359.5V140.22L359.662 140.368L360 140ZM363.5 149.5L363.974 149.658L364 149.581V149.5H363.5ZM358 157.5L357.695 157.104L357.5 157.254V157.5H358ZM358 195.5V196H358.5V195.5H358ZM327.5 195.5H327V196H327.5V195.5ZM280.5 188L280.495 187.5L280 187.505V188H280.5ZM393 159.5H392.5V160H393V159.5ZM393 127.5H393.5V127H393V127.5ZM403.5 159.5V160H404V159.5H403.5ZM403.5 120H404V119.5H403.5V120ZM391.5 120H391V120.5H391.5V120ZM391.5 90H392V89.5H391.5V90ZM328 90V89.5H327.5V90H328ZM328 97H327.5V97.5H328V97ZM389 97H389.5V96.5H389V97ZM389 127.5H388.5V128H389V127.5ZM51.5 150.5V150H51V150.5H51.5ZM51.5 157H51V157.5H51.5V157ZM115.5 150.5V151H116V150.5H115.5ZM115.5 113V112.5H115V113H115.5ZM172.5 113H173V112.5H172.5V113ZM172.5 141.5V142H173V141.5H172.5ZM130 141.5V141H129.5V141.5H130ZM130 190.5V191H130.5V190.5H130ZM88.5 190.5H88V191H88.5V190.5ZM88.5 157H89V156.5H88.5V157ZM73 236H72.5V236.5H73V236ZM73 214V213.5H72.5V214H73ZM91.5 236V236.5H92V236H91.5ZM91.5 232L91.158 231.635L91 231.783V232H91.5ZM99.5 224.5V224H99.3023L99.158 224.135L99.5 224.5ZM140.5 224.5H141V224H140.5V224.5ZM140.5 252H140V252.5H140.5V252ZM156.5 252V252.5H157V252H156.5ZM156.5 244V243.5H156V244H156.5ZM198 244V244.5H198.5V244H198ZM198 230H198.5V229.5H198V230ZM182.5 230H182V230.5H182.5V230ZM182.5 177V176.5H182V177H182.5ZM213.5 177V177.5H214V177H213.5ZM213.5 162.5H214V162.018L213.518 162L213.5 162.5ZM199.5 174.5V175H200V174.5H199.5ZM154 174.5V174H153.5V174.5H154ZM154 221.5V222H154.5V221.5H154ZM122 221.5H121.5V222H122V221.5ZM122 214H122.5V213.5H122V214ZM21 221.5V221H20.5V221.5H21ZM21 230.5H20.5V231H21V230.5ZM32.5 221.5H33V221H32.5V221.5ZM32.5 230.5V231H33V230.5H32.5ZM53.5 192.5H53V193H53.5V192.5ZM53.5 178V177.5H53V178H53.5ZM59.5 192.5V193H60V192.5H59.5ZM59.5 178H60V177.5H59.5V178ZM385.5 286.5H385V287H385.5V286.5ZM385.5 277V276.5H385V277H385.5ZM395 277H395.5V276.5H395V277ZM395 286.5V287H395.5V286.5H395ZM411 236V236.5H411.5V236H411ZM408.5 236H408V236.5H408.5V236ZM411 205.5V205H410.5V205.5H411ZM417 205.5V206H417.215L417.363 205.844L417 205.5ZM418.5 202L418.999 202.033L419.001 202L418.999 201.966L418.5 202ZM417 199L417.326 198.621L417.186 198.5H417V199ZM411 199H410.5V199.5H411V199ZM411 188V187.5H410.5V188H411ZM456.5 188V188.5H457V188H456.5ZM456.5 183H457V182.5H456.5V183ZM392 183V182.5H391.5V183H392ZM392 205.5H391.5V206H392V205.5ZM408.5 205.5H409V205H408.5V205.5ZM422 130V129.5H421.5V130H422ZM425.5 130H426V129.5H425.5V130ZM422 153H421.5V153.5H422V153ZM453 153V153.5H453.5V153H453ZM453 130H453.5V129.5H453V130ZM450 130V129.5H449.5V130H450ZM450 137.5V138H450.5V137.5H450ZM425.5 137.5H425V138H425.5V137.5ZM420 90V89.5H419.5V90H420ZM420 97H419.5V97.5H420V97ZM465 90H465.5V89.5H465V90ZM465 97V97.5H465.5V97H465ZM262 355H261.5V355.5H262V355ZM308.5 355V355.5H309V355H308.5ZM262 242H262.5V241.5H262V242ZM233 242V241.5H232.5V242H233ZM233 254V254.5H233.5V254H233ZM219 254H218.5V254.5H219V254ZM219 230V229.5H218.5V230H219ZM327.5 230V230.5H328V230H327.5ZM327.5 206V205.5H327V206H327.5ZM330.5 206H331V205.5H330.5V206ZM330.5 245H330V245.5H330.5V245ZM367.5 245H368V244.5H367.5V245ZM367.5 249V249.5H368V249H367.5ZM356 249V248.5H355.5V249H356ZM356 260.5L356.269 260.922L356.5 260.774V260.5H356ZM350.5 266L350.913 266.282L350.921 266.27L350.929 266.257L350.5 266ZM343 277L342.587 276.718L342.577 276.732L342.569 276.747L343 277ZM338.5 279.5L338.497 279L338 279.003V279.5H338.5ZM338.5 285L338.752 285.432L339 285.287V285H338.5ZM332.5 288.5L332.658 288.974L332.707 288.958L332.752 288.932L332.5 288.5ZM320.5 292.5V293H320.581L320.658 292.974L320.5 292.5ZM318 292.5V292H317.5V292.5H318ZM318 319.5L318.473 319.661L318.5 319.583V319.5H318ZM313.5 322L313.477 321.501L313.044 321.52L313.002 321.951L313.5 322ZM308.5 327L308.416 326.507L308 326.578V327H308.5ZM199 342.5H199.5V342H199V342.5ZM199 386H198.5V386.5H199V386ZM143.5 342.5H143V343H143.5V342.5ZM143.5 335.5V335H143V335.5H143.5ZM149.5 335.5V336H150V335.5H149.5ZM149.5 277V276.5H149V277H149.5ZM237 277H237.5V276.5H237V277ZM237 293.5V294H237.5V293.5H237ZM205.5 293.5V293H205V293.5H205.5ZM205.5 344H205V344.5H205.5V344ZM234 344H234.5V343.5H234V344ZM234 346.5V347H234.5V346.5H234ZM217.5 346.5V346H217V346.5H217.5ZM217.5 386V386.5H218V386H217.5ZM72.5 261.5V277H73.5V261.5H72.5ZM91 261H73V262H91V261ZM91.5 315.5V261.5H90.5V315.5H91.5ZM111.854 335.646L91.3536 315.146L90.6464 315.854L111.146 336.354L111.854 335.646ZM112 350.5V336H111V350.5H112ZM91.5 351H111.5V350H91.5V351ZM92 370V350.5H91V370H92ZM187.215 415.049L91.7151 369.549L91.2849 370.451L186.785 415.951L187.215 415.049ZM217.5 415H187V416H217.5V415ZM218 442V415.5H217V442H218ZM292.5 441.5H217.5V442.5H292.5V441.5ZM292 379.5V442H293V379.5H292ZM361 379H292.5V380H361V379ZM361 320C360.726 320 360.599 319.794 360.586 319.773C360.554 319.723 360.542 319.681 360.54 319.676C360.535 319.658 360.536 319.657 360.541 319.689C360.549 319.745 360.559 319.842 360.569 319.988C360.588 320.276 360.606 320.707 360.622 321.272C360.653 322.399 360.676 324.036 360.692 326.066C360.724 330.126 360.727 335.749 360.712 341.999C360.683 354.497 360.583 369.496 360.5 379.496L361.5 379.504C361.583 369.504 361.683 354.503 361.712 342.001C361.727 335.751 361.724 330.124 361.692 326.059C361.676 324.027 361.653 322.382 361.621 321.244C361.606 320.676 361.588 320.228 361.567 319.92C361.556 319.768 361.545 319.639 361.53 319.542C361.524 319.498 361.514 319.438 361.496 319.382C361.489 319.357 361.47 319.301 361.433 319.241C361.414 319.211 361.28 319 361 319V320ZM335 320H361V319H335V320ZM334.5 316.5V319.5H335.5V316.5H334.5ZM436 316H335V317H436V316ZM435.5 231.5V316.5H436.5V231.5H435.5ZM454 231H436V232H454V231ZM477.643 206.65L453.643 231.15L454.357 231.85L478.357 207.35L477.643 206.65ZM477.5 67.5V207H478.5V67.5H477.5ZM362 68H478V67H362V68ZM361.5 18V67.5H362.5V18H361.5ZM253 18.5H362V17.5H253V18.5ZM248.083 20.493C249.21 20.3024 250.088 20.1038 250.901 19.7865C251.72 19.467 252.452 19.0355 253.3 18.4001L252.7 17.5999C251.904 18.197 251.251 18.5768 250.538 18.8549C249.82 19.135 249.02 19.3202 247.917 19.507L248.083 20.493ZM239.615 22.4867L248.115 20.4867L247.885 19.5133L239.385 21.5133L239.615 22.4867ZM236.47 25.1717C236.766 24.3599 237.054 23.8507 237.485 23.4669C237.922 23.0783 238.555 22.7747 239.631 22.4825L239.369 21.5175C238.237 21.825 237.428 22.1793 236.821 22.7198C236.208 23.2651 235.849 23.956 235.53 24.8283L236.47 25.1717ZM232.431 33.7293C233.514 31.1832 234.588 28.6563 236.44 25.2381L235.56 24.7619C233.685 28.224 232.595 30.7875 231.511 33.338L232.431 33.7293ZM230.453 38.2127C231.207 36.6066 231.821 35.1631 232.431 33.7293L231.511 33.338C230.9 34.773 230.293 36.2003 229.547 37.7873L230.453 38.2127ZM223.977 58.6511L230.477 38.1511L229.523 37.8489L223.023 58.3489L223.977 58.6511ZM224 61.5V58.5H223V61.5H224ZM219.387 67.3166L223.887 61.8166L223.113 61.1834L218.613 66.6834L219.387 67.3166ZM219.5 78V67H218.5V78H219.5ZM94 78.5H219V77.5H94V78.5ZM94.5 119.5V78H93.5V119.5H94.5ZM22.5 120H94V119H22.5V120ZM23 150.5V119.5H22V150.5H23ZM32.5 150H22.5V151H32.5V150ZM32.5 197C32.7198 197 32.8505 196.867 32.8961 196.811C32.9457 196.751 32.9712 196.692 32.9823 196.664C33.0063 196.604 33.0193 196.544 33.0266 196.506C33.0429 196.422 33.0553 196.314 33.0658 196.196C33.0872 195.954 33.1055 195.607 33.1214 195.171C33.1532 194.295 33.1763 193.032 33.1922 191.474C33.224 188.356 33.2271 184.041 33.2125 179.248C33.1833 169.663 33.0833 158.162 33 150.495L32 150.505C32.0834 158.171 32.1833 169.67 32.2125 179.252C32.2271 184.043 32.224 188.352 32.1922 191.464C32.1763 193.02 32.1533 194.272 32.122 195.134C32.1063 195.566 32.0887 195.893 32.0697 196.108C32.0599 196.218 32.051 196.284 32.0447 196.317C32.0408 196.337 32.0421 196.322 32.0543 196.291C32.0594 196.279 32.079 196.231 32.1224 196.178C32.1619 196.129 32.2865 196 32.5 196V197ZM0.5 197H32.5V196H0.5V197ZM1 260V196.5H0V260H1ZM19.0914 276.508C13.5651 275.481 9.78413 274.182 7.01688 271.748C4.25577 269.32 2.43694 265.703 0.985152 259.879L0.014848 260.121C1.48629 266.023 3.37144 269.874 6.35652 272.499C9.33546 275.119 13.3428 276.457 18.9086 277.492L19.0914 276.508ZM73 276.5H19V277.5H73V276.5ZM191.5 141V113H190.5V141H191.5ZM191.5 141.5V141H190.5V141.5H191.5ZM199 141H191V142H199V141ZM199.5 147.5V141.5H198.5V147.5H199.5ZM238.5 147H199V148H238.5V147ZM239 177V147.5H238V177H239ZM249.5 176.5H238.5V177.5H249.5V176.5ZM249 166.5V177H250V166.5H249ZM241.5 167H249.5V166H241.5V167ZM241 137.5V166.5H242V137.5H241ZM271.5 137H241.5V138H271.5V137ZM272 145V137.5H271V145H272ZM282 144.5H271.5V145.5H282V144.5ZM281.5 138.5V145H282.5V138.5H281.5ZM273.5 139H282V138H273.5V139ZM273 67.5V138.5H274V67.5H273ZM247 68H273.5V67H247V68ZM247.5 113V67.5H246.5V113H247.5ZM191 113.5H247V112.5H191V113.5ZM274 215H280.5V214H274V215ZM273.5 168.5V214.5H274.5V168.5H273.5ZM262 169H274V168H262V169ZM261.5 166.5V168.5H262.5V166.5H261.5ZM313 166H262V167H313V166ZM312.5 116.5V166.5H313.5V116.5H312.5ZM364 116H313V117H364V116ZM364.5 127V116.5H363.5V127H364.5ZM360.416 133.277L364.416 127.277L363.584 126.723L359.584 132.723L360.416 133.277ZM360.5 140V133H359.5V140H360.5ZM364 149.5C364 146.995 363.862 145.219 363.323 143.719C362.778 142.2 361.839 141.01 360.338 139.632L359.662 140.368C361.102 141.692 361.913 142.751 362.382 144.057C362.858 145.381 363 147.005 363 149.5H364ZM358.305 157.896C359.983 156.604 361.039 155.688 361.856 154.504C362.669 153.324 363.225 151.907 363.974 149.658L363.026 149.342C362.275 151.593 361.756 152.886 361.032 153.936C360.312 154.981 359.367 155.816 357.695 157.104L358.305 157.896ZM358.5 195.5V157.5H357.5V195.5H358.5ZM327.5 196H358V195H327.5V196ZM327 188V195.5H328V188H327ZM280.505 188.5C288.338 188.417 300.087 188.317 309.876 188.288C314.772 188.273 319.175 188.276 322.354 188.308C323.945 188.324 325.225 188.347 326.105 188.378C326.547 188.394 326.881 188.411 327.101 188.43C327.214 188.44 327.283 188.449 327.317 188.456C327.338 188.46 327.324 188.459 327.294 188.447C327.282 188.442 327.235 188.423 327.182 188.381C327.135 188.343 327 188.218 327 188H328C328 187.776 327.861 187.644 327.807 187.601C327.746 187.552 327.687 187.527 327.66 187.516C327.601 187.493 327.541 187.48 327.502 187.473C327.417 187.457 327.308 187.445 327.187 187.434C326.941 187.413 326.586 187.394 326.141 187.379C325.247 187.347 323.956 187.324 322.364 187.308C319.179 187.276 314.77 187.273 309.874 187.288C300.08 187.317 288.329 187.417 280.495 187.5L280.505 188.5ZM281 214.5V188H280V214.5H281ZM393.5 159.5V127.5H392.5V159.5H393.5ZM403.5 159H393V160H403.5V159ZM403 120V159.5H404V120H403ZM391.5 120.5H403.5V119.5H391.5V120.5ZM391 90V120H392V90H391ZM328 90.5H391.5V89.5H328V90.5ZM328.5 97V90H327.5V97H328.5ZM389 96.5H328V97.5H389V96.5ZM389.5 127.5V97H388.5V127.5H389.5ZM393 127H389V128H393V127ZM51 150.5V157H52V150.5H51ZM115.5 150H51.5V151H115.5V150ZM115 113V150.5H116V113H115ZM172.5 112.5H115.5V113.5H172.5V112.5ZM173 141.5V113H172V141.5H173ZM130 142H172.5V141H130V142ZM130.5 190.5V141.5H129.5V190.5H130.5ZM88.5 191H130V190H88.5V191ZM88 157V190.5H89V157H88ZM51.5 157.5H88.5V156.5H51.5V157.5ZM73.5 236V214H72.5V236H73.5ZM91.5 235.5H73V236.5H91.5V235.5ZM91 232V236H92V232H91ZM99.158 224.135L91.158 231.635L91.842 232.365L99.842 224.865L99.158 224.135ZM140.5 224H99.5V225H140.5V224ZM141 252V224.5H140V252H141ZM156.5 251.5H140.5V252.5H156.5V251.5ZM156 244V252H157V244H156ZM198 243.5H156.5V244.5H198V243.5ZM197.5 230V244H198.5V230H197.5ZM182.5 230.5H198V229.5H182.5V230.5ZM182 177V230H183V177H182ZM213.5 176.5H182.5V177.5H213.5V176.5ZM213 162.5V177H214V162.5H213ZM200 162.5C200 162.754 199.816 162.873 199.795 162.887C199.754 162.913 199.727 162.918 199.746 162.912C199.775 162.904 199.844 162.89 199.969 162.875C200.212 162.846 200.577 162.823 201.048 162.808C201.985 162.776 203.288 162.773 204.745 162.787C207.656 162.817 211.151 162.916 213.482 163L213.518 162C211.182 161.917 207.678 161.817 204.755 161.788C203.295 161.773 201.974 161.776 201.015 161.808C200.537 161.824 200.137 161.848 199.851 161.882C199.712 161.898 199.576 161.92 199.466 161.952C199.415 161.967 199.336 161.993 199.259 162.042C199.202 162.078 199 162.221 199 162.5H200ZM200 174.5V162.5H199V174.5H200ZM154 175H199.5V174H154V175ZM154.5 221.5V174.5H153.5V221.5H154.5ZM122 222H154V221H122V222ZM121.5 214V221.5H122.5V214H121.5ZM73 214.5H122V213.5H73V214.5ZM20.5 221.5V230.5H21.5V221.5H20.5ZM32.5 221H21V222H32.5V221ZM33 230.5V221.5H32V230.5H33ZM21 231H32.5V230H21V231ZM54 192.5V178H53V192.5H54ZM59.5 192H53.5V193H59.5V192ZM59 178V192.5H60V178H59ZM53.5 178.5H59.5V177.5H53.5V178.5ZM385 277.5V286.5H386V277.5H385ZM385 277V277.5H386V277H385ZM395 276.5H385.5V277.5H395V276.5ZM395.5 286.5V277H394.5V286.5H395.5ZM385.5 287H395V286H385.5V287ZM411 235.5H408.5V236.5H411V235.5ZM410.5 205.5V236H411.5V205.5H410.5ZM417 205H411V206H417V205ZM418.001 201.967C417.952 202.715 417.861 203.232 417.669 203.694C417.479 204.152 417.173 204.592 416.637 205.156L417.363 205.844C417.945 205.231 418.338 204.69 418.593 204.077C418.846 203.468 418.947 202.824 418.999 202.033L418.001 201.967ZM416.674 199.379C417.17 199.806 417.464 200.136 417.654 200.506C417.844 200.874 417.953 201.326 418.001 202.034L418.999 201.966C418.946 201.191 418.821 200.587 418.544 200.048C418.267 199.51 417.861 199.081 417.326 198.621L416.674 199.379ZM411 199.5H417V198.5H411V199.5ZM410.5 188V199H411.5V188H410.5ZM456.5 187.5H411V188.5H456.5V187.5ZM456 183V188H457V183H456ZM392 183.5H456.5V182.5H392V183.5ZM392.5 205.5V183H391.5V205.5H392.5ZM408.5 205H392V206H408.5V205ZM409 236V205.5H408V236H409ZM422 130.5H425.5V129.5H422V130.5ZM422.5 153V130H421.5V153H422.5ZM453 152.5H422V153.5H453V152.5ZM452.5 130V153H453.5V130H452.5ZM450 130.5H453V129.5H450V130.5ZM450.5 137.5V130H449.5V137.5H450.5ZM425.5 138H450V137H425.5V138ZM425 130V137.5H426V130H425ZM419.5 90V97H420.5V90H419.5ZM465 89.5H420V90.5H465V89.5ZM465.5 97V90H464.5V97H465.5ZM420 97.5H465V96.5H420V97.5ZM262 355.5H308.5V354.5H262V355.5ZM261.5 242V355H262.5V242H261.5ZM233 242.5H262V241.5H233V242.5ZM233.5 254V242H232.5V254H233.5ZM219 254.5H233V253.5H219V254.5ZM218.5 230V254H219.5V230H218.5ZM327.5 229.5H219V230.5H327.5V229.5ZM327 206V230H328V206H327ZM330.5 205.5H327.5V206.5H330.5V205.5ZM331 245V206H330V245H331ZM367.5 244.5H330.5V245.5H367.5V244.5ZM368 249V245H367V249H368ZM356 249.5H367.5V248.5H356V249.5ZM356.5 260.5V249H355.5V260.5H356.5ZM350.929 266.257C351.672 265.02 352.326 264.126 353.124 263.326C353.925 262.524 354.888 261.801 356.269 260.922L355.731 260.078C354.322 260.976 353.291 261.744 352.417 262.619C351.541 263.496 350.84 264.464 350.071 265.743L350.929 266.257ZM343.413 277.282L350.913 266.282L350.087 265.718L342.587 276.718L343.413 277.282ZM338.503 280C339.851 279.992 340.821 279.806 341.601 279.337C342.379 278.868 342.901 278.155 343.431 277.253L342.569 276.747C342.058 277.616 341.64 278.146 341.085 278.48C340.53 278.814 339.771 278.992 338.497 279L338.503 280ZM339 285V279.5H338V285H339ZM332.752 288.932L338.752 285.432L338.248 284.568L332.248 288.068L332.752 288.932ZM320.658 292.974L332.658 288.974L332.342 288.026L320.342 292.026L320.658 292.974ZM318 293H320.5V292H318V293ZM318.5 319.5V292.5H317.5V319.5H318.5ZM313.523 322.499C314.781 322.442 315.827 322.347 316.65 321.95C317.521 321.53 318.084 320.806 318.473 319.661L317.527 319.339C317.196 320.309 316.779 320.778 316.216 321.049C315.604 321.345 314.76 321.442 313.477 321.501L313.523 322.499ZM308.584 327.493C310.32 327.196 311.619 326.785 312.513 325.926C313.42 325.054 313.826 323.804 313.998 322.049L313.002 321.951C312.839 323.626 312.468 324.582 311.82 325.205C311.159 325.841 310.125 326.215 308.416 326.507L308.584 327.493ZM309 355V327H308V355H309ZM198.5 342.5V386H199.5V342.5H198.5ZM143.5 343H199V342H143.5V343ZM143 335.5V342.5H144V335.5H143ZM149.5 335H143.5V336H149.5V335ZM149 277V335.5H150V277H149ZM237 276.5H149.5V277.5H237V276.5ZM237.5 293.5V277H236.5V293.5H237.5ZM205.5 294H237V293H205.5V294ZM206 344V293.5H205V344H206ZM234 343.5H205.5V344.5H234V343.5ZM234.5 346.5V344H233.5V346.5H234.5ZM217.5 347H234V346H217.5V347ZM218 386V346.5H217V386H218ZM199 386.5H217.5V385.5H199V386.5Z" fill="#B27C40"/>
<path d="M199 277C199 276.6 199 271.5 199 269H206V277" stroke="#B27C40"/>
<path d="M262 344H254V351M254 351V355H262V351H254Z" stroke="#B27C40"/>
<path d="M238.5 177V179.5M274 192.5H270M270 192.5H238.5V179.5M270 192.5V207H274M238.5 169H233.5V179.5H238.5" stroke="#B27C40"/>
<path d="M182.5 185H186.5M198.5 177V185H186.5M186.5 185V189H182.5M191 141.5V147.5H199.5M115.5 113V104.5H122.5V113M94 128H22.5" stroke="#B27C40"/>
<path d="M76 157C76 157.4 76 160.5 76 162H80.5M80.5 162V157M80.5 162V165.5H88.5M21 230V246.5H28V230.5M60.5 277V273H64.5M73 269H65V277M140.5 245H132V252H140.5M143.5 335.5H136V342.5H143.5M177 342.5V363.5M177 371.5V386.5H184.5V371.5H180.5M177 371.5H180.5M177 371.5V363.5M180.5 371.5V363.5H177M221.5 311H223V312.5M221.5 311V312.5H223M221.5 311L223 312.5M221.5 327H223V328.5M221.5 327V328.5H223M221.5 327L223 328.5M109 279L100 288L106.5 303.5L126.5 311L138.5 305.5L142.5 290.5L136.5 279.5L119 275L109 279Z" stroke="#B27C40"/>
<path d="M457.5 97V105H465V97M449 90V67.5M420 97L403.5 120.5M391.5 90V82.5H384.5V90M362 38H353V35M353 18V31M362 31H353M353 31V35M342 18V26L353 35" stroke="#B27C40"/>
<path d="M361 282V284L357 288H353C351.15 287.597 350.543 286.767 350 284.5M395 277L398.5 276H401C401.667 276.333 403.2 277 404 277C404.8 277 417.333 277 423.5 277V283H423V286.5H395" stroke="#B27C40"/>
<path d="M393 148H380M434 153V161.5H441.5V153M358 188.5H366V195.5H358M357 245V237H361M367.5 245V237H361M361 237V245M354.5 261.5C355.575 263.904 356.517 265.991 357.82 268C359.659 272.236 360.55 276.152 361 282L334 287.5" stroke="#B27C40"/>
<path d="M59.75 192.5V192.25H59.5H59H58.75V192.5V229.75H32.5H32.25V230V230.5V230.75H32.5H59.5H59.75V230.5V192.5Z" stroke="#B27C40" stroke-width="0.5"/>
<path fill-rule="evenodd" clip-rule="evenodd" d="M239 178.571C229.259 180.835 222 189.57 222 200C222 212.15 231.85 222 244 222C256.15 222 266 212.15 266 200C266 197.178 265.469 194.479 264.5 192H263.962C264.954 194.473 265.5 197.173 265.5 200C265.5 211.874 255.874 221.5 244 221.5C232.126 221.5 222.5 211.874 222.5 200C222.5 189.847 229.537 181.338 239 179.084V178.571Z" fill="#B27C40"/>
</svg>
