<svg width="464" height="468" viewBox="0 0 464 468" fill="none" xmlns="http://www.w3.org/2000/svg">
<path fill-rule="evenodd" clip-rule="evenodd" d="M107.5 399.5V350.5H84.7202V365H16.5V328.5H19V281H1V268L19 250V159H50V155.5H42.5V129.5H119.5V159H123V108.5H145.5L191 93H238V45.5C238 30.3122 250.312 18 265.5 18C280.688 18 293 30.3122 293 45.5V51H376.5L437 111.5V158H414.5V159.5H429.5V196.5H396.5V218H404V207H438L463.5 232.5V255L436.5 293H402V285.5H391V293H365.5V348.5L325.5 388.5H292.5V450H203.5V410.5L192.5 399.5H107.5ZM361 99L356.5 103.5L368 115H404V107.5H391.5L369.5 85.5V75L362.5 65.5H351V89L361 99ZM281.5 330V315.5H296.5V274.5H281.5V257H285.5V262H347.5V239L338.5 230V176H371V196.5H375.5V218H364.5V232.5L417 251V258L380 267.5H324.5V355.5L321 363H315.5V330H281.5ZM282 182V193.5H306.5V145H319.5L338 154H364V133H359.5L348.5 122L353.5 117L348.5 112L343.5 116.5L333 106V87.5H330L326 89.5H292.741V80.2557H289V118.5H273.5V122.5L275.5 130V153L282 167V182ZM203.5 389.5L213 399L223.5 389V356H295.5L299 363H304.5V352H260.5V330H261.5V326.5H235.5L215.5 306.5H199.5V336.5H209V384.5L203.5 389.5ZM216 217V197H221.5L253 182.5H265.278V175H267V208H314.5V215.5H306.799V237H259.5V261H245.5V217H216ZM142 123H146V159H142V123ZM63 144V158.5H105.5V144H63ZM119.5 195.5V229.5H172.5V217H205V167L252 153L263 118.5V109.5H279V106H266.5V80.3058H262.5V107.5H259V118.5H227V142H186V133H169.5V177H142V206H123V195.5H119.5ZM66.5 266.5H63V328.5H154V378H170.5V286.5H202.5L210.5 293.716H212.5V257.5H229L235.5 251.5C235.795 249.976 235.339 249.646 234 249.5H228V248H179.5V263H164.5H150L134.5 252H98.5V224.5H105.5V215.5H75.5H63V238.5V242.5H66.5V266.5ZM36.5 263H45.5V280.5H36.5V263ZM140 347.5C140 349.985 137.985 352 135.5 352C133.015 352 131 349.985 131 347.5C131 345.015 133.015 343 135.5 343C137.985 343 140 345.015 140 347.5Z" fill="#271406"/>
<path d="M107.5 350.5H108V350H107.5V350.5ZM107.5 399.5H107V400H107.5V399.5ZM84.7202 350.5V350H84.2202V350.5H84.7202ZM84.7202 365V365.5H85.2202V365H84.7202ZM16.5 365H16V365.5H16.5V365ZM16.5 328.5V328H16V328.5H16.5ZM19 328.5V329H19.5V328.5H19ZM19 281H19.5V280.5H19V281ZM1 281H0.5V281.5H1V281ZM1 268L0.646447 267.646L0.5 267.793V268H1ZM19 250L19.3536 250.354L19.5 250.207V250H19ZM19 159V158.5H18.5V159H19ZM50 159V159.5H50.5V159H50ZM50 155.5H50.5V155H50V155.5ZM42.5 155.5H42V156H42.5V155.5ZM42.5 129.5V129H42V129.5H42.5ZM119.5 129.5H120V129H119.5V129.5ZM119.5 159H119V159.5H119.5V159ZM123 159V159.5H123.5V159H123ZM123 108.5V108H122.5V108.5H123ZM145.5 108.5V109H145.583L145.661 108.973L145.5 108.5ZM191 93V92.5H190.917L190.839 92.5267L191 93ZM238 93V93.5H238.5V93H238ZM293 51H292.5V51.5H293V51ZM376.5 51L376.854 50.6464L376.707 50.5H376.5V51ZM437 111.5H437.5V111.293L437.354 111.146L437 111.5ZM437 158V158.5H437.5V158H437ZM414.5 158V157.5H414V158H414.5ZM414.5 159.5H414V160H414.5V159.5ZM429.5 159.5H430V159H429.5V159.5ZM429.5 196.5V197H430V196.5H429.5ZM396.5 196.5V196H396V196.5H396.5ZM396.5 218H396V218.5H396.5V218ZM404 218V218.5H404.5V218H404ZM404 207V206.5H403.5V207H404ZM438 207L438.354 206.646L438.207 206.5H438V207ZM463.5 232.5H464V232.293L463.854 232.146L463.5 232.5ZM463.5 255L463.908 255.29L464 255.16V255H463.5ZM436.5 293V293.5H436.758L436.908 293.29L436.5 293ZM402 293H401.5V293.5H402V293ZM402 285.5H402.5V285H402V285.5ZM391 285.5V285H390.5V285.5H391ZM391 293V293.5H391.5V293H391ZM365.5 293V292.5H365V293H365.5ZM365.5 348.5L365.854 348.854L366 348.707V348.5H365.5ZM325.5 388.5V389H325.707L325.854 388.854L325.5 388.5ZM292.5 388.5V388H292V388.5H292.5ZM292.5 450V450.5H293V450H292.5ZM203.5 450H203V450.5H203.5V450ZM203.5 410.5H204V410.293L203.854 410.146L203.5 410.5ZM192.5 399.5L192.854 399.146L192.707 399H192.5V399.5ZM356.5 103.5L356.146 103.146L355.793 103.5L356.146 103.854L356.5 103.5ZM361 99L361.354 99.3536L361.707 99L361.354 98.6464L361 99ZM368 115L367.646 115.354L367.793 115.5H368V115ZM404 115V115.5H404.5V115H404ZM404 107.5H404.5V107H404V107.5ZM391.5 107.5L391.146 107.854L391.293 108H391.5V107.5ZM369.5 85.5H369V85.7071L369.146 85.8536L369.5 85.5ZM369.5 75H370V74.8357L369.903 74.7034L369.5 75ZM362.5 65.5L362.903 65.2034L362.753 65H362.5V65.5ZM351 65.5V65H350.5V65.5H351ZM351 89H350.5V89.2071L350.646 89.3536L351 89ZM281.5 315.5V315H281V315.5H281.5ZM281.5 330H281V330.5H281.5V330ZM296.5 315.5V316H297V315.5H296.5ZM296.5 274.5H297V274H296.5V274.5ZM281.5 274.5H281V275H281.5V274.5ZM281.5 257V256.5H281V257H281.5ZM285.5 257H286V256.5H285.5V257ZM285.5 262H285V262.5H285.5V262ZM347.5 262V262.5H348V262H347.5ZM347.5 239H348V238.793L347.854 238.646L347.5 239ZM338.5 230H338V230.207L338.146 230.354L338.5 230ZM338.5 176V175.5H338V176H338.5ZM371 176H371.5V175.5H371V176ZM371 196.5H370.5V197H371V196.5ZM375.5 196.5H376V196H375.5V196.5ZM375.5 218V218.5H376V218H375.5ZM364.5 218V217.5H364V218H364.5ZM364.5 232.5H364V232.854L364.334 232.972L364.5 232.5ZM417 251H417.5V250.646L417.166 250.528L417 251ZM417 258L417.124 258.484L417.5 258.388V258H417ZM380 267.5V268H380.063L380.124 267.984L380 267.5ZM324.5 267.5V267H324V267.5H324.5ZM324.5 355.5L324.953 355.711L325 355.611V355.5H324.5ZM321 363V363.5H321.318L321.453 363.211L321 363ZM315.5 363H315V363.5H315.5V363ZM315.5 330H316V329.5H315.5V330ZM282 193.5H281.5V194H282V193.5ZM306.5 193.5V194H307V193.5H306.5ZM306.5 145V144.5H306V145H306.5ZM319.5 145L319.719 144.55L319.615 144.5H319.5V145ZM338 154L337.781 154.45L337.885 154.5H338V154ZM364 154V154.5H364.5V154H364ZM364 133H364.5V132.5H364V133ZM359.5 133L359.146 133.354L359.293 133.5H359.5V133ZM348.5 122L348.146 121.646L347.793 122L348.146 122.354L348.5 122ZM353.5 117L353.854 117.354L354.207 117L353.854 116.646L353.5 117ZM348.5 112L348.854 111.646L348.518 111.311L348.166 111.628L348.5 112ZM343.5 116.5L343.146 116.854L343.482 117.189L343.834 116.872L343.5 116.5ZM333 106H332.5V106.207L332.646 106.354L333 106ZM333 87.5H333.5V87H333V87.5ZM330 87.5V87H329.882L329.776 87.0528L330 87.5ZM326 89.5V90H326.118L326.224 89.9472L326 89.5ZM292.741 89.5H292.241V90H292.741V89.5ZM292.741 80.2557H293.241V79.7557H292.741V80.2557ZM289 80.2557V79.7557H288.5V80.2557H289ZM289 118.5V119H289.5V118.5H289ZM273.5 118.5V118H273V118.5H273.5ZM273.5 122.5H273V122.566L273.017 122.629L273.5 122.5ZM275.5 130H276V129.934L275.983 129.871L275.5 130ZM275.5 153H275V153.11L275.047 153.211L275.5 153ZM282 167H282.5V166.89L282.453 166.789L282 167ZM213 399L212.646 399.354L212.991 399.699L213.345 399.362L213 399ZM203.5 389.5L203.164 389.13L202.776 389.483L203.146 389.854L203.5 389.5ZM223.5 389L223.845 389.362L224 389.214V389H223.5ZM223.5 356V355.5H223V356H223.5ZM295.5 356L295.947 355.776L295.809 355.5H295.5V356ZM299 363L298.553 363.224L298.691 363.5H299V363ZM304.5 363V363.5H305V363H304.5ZM304.5 352H305V351.5H304.5V352ZM260.5 352H260V352.5H260.5V352ZM260.5 330V329.5H260V330H260.5ZM261.5 330V330.5H262V330H261.5ZM261.5 326.5H262V326H261.5V326.5ZM235.5 326.5L235.146 326.854L235.293 327H235.5V326.5ZM215.5 306.5L215.854 306.146L215.707 306H215.5V306.5ZM199.5 306.5V306H199V306.5H199.5ZM199.5 336.5H199V337H199.5V336.5ZM209 336.5H209.5V336H209V336.5ZM209 384.5L209.336 384.87L209.5 384.721V384.5H209ZM216 197V196.5H215.5V197H216ZM216 217H215.5V217.5H216V217ZM221.5 197V197.5H221.61L221.709 197.454L221.5 197ZM253 182.5V182H252.89L252.791 182.046L253 182.5ZM265.278 182.5V183H265.778V182.5H265.278ZM265.278 175V174.5H264.778V175H265.278ZM267 175H267.5V174.5H267V175ZM267 208H266.5V208.5H267V208ZM314.5 208H315V207.5H314.5V208ZM314.5 215.5V216H315V215.5H314.5ZM306.799 215.5V215H306.299V215.5H306.799ZM306.799 237V237.5H307.299V237H306.799ZM259.5 237V236.5H259V237H259.5ZM259.5 261V261.5H260V261H259.5ZM245.5 261H245V261.5H245.5V261ZM245.5 217H246V216.5H245.5V217ZM146 123H146.5V122.5H146V123ZM142 123V122.5H141.5V123H142ZM146 159V159.5H146.5V159H146ZM142 159H141.5V159.5H142V159ZM63 158.5H62.5V159H63V158.5ZM63 144V143.5H62.5V144H63ZM105.5 158.5V159H106V158.5H105.5ZM105.5 144H106V143.5H105.5V144ZM119.5 229.5H119V230H119.5V229.5ZM119.5 195.5V195H119V195.5H119.5ZM172.5 229.5V230H173V229.5H172.5ZM172.5 217V216.5H172V217H172.5ZM205 217V217.5H205.5V217H205ZM205 167L204.857 166.521L204.5 166.627V167H205ZM252 153L252.143 153.479L252.396 153.404L252.476 153.152L252 153ZM263 118.5L263.476 118.652L263.5 118.578V118.5H263ZM263 109.5V109H262.5V109.5H263ZM279 109.5V110H279.5V109.5H279ZM279 106H279.5V105.5H279V106ZM266.5 106H266V106.5H266.5V106ZM266.5 80.3058H267V79.8058H266.5V80.3058ZM262.5 80.3058V79.8058H262V80.3058H262.5ZM262.5 107.5V108H263V107.5H262.5ZM259 107.5V107H258.5V107.5H259ZM259 118.5V119H259.5V118.5H259ZM227 118.5V118H226.5V118.5H227ZM227 142V142.5H227.5V142H227ZM186 142H185.5V142.5H186V142ZM186 133H186.5V132.5H186V133ZM169.5 133V132.5H169V133H169.5ZM169.5 177V177.5H170V177H169.5ZM142 177V176.5H141.5V177H142ZM142 206V206.5H142.5V206H142ZM123 206H122.5V206.5H123V206ZM123 195.5H123.5V195H123V195.5ZM63 266.5V266H62.5V266.5H63ZM66.5 266.5V267H67V266.5H66.5ZM63 328.5H62.5V329H63V328.5ZM154 328.5H154.5V328H154V328.5ZM154 378H153.5V378.5H154V378ZM170.5 378V378.5H171V378H170.5ZM170.5 286.5V286H170V286.5H170.5ZM202.5 286.5L202.835 286.129L202.692 286H202.5V286.5ZM210.5 293.716L210.165 294.087L210.308 294.216H210.5V293.716ZM212.5 293.716V294.216H213V293.716H212.5ZM212.5 257.5V257H212V257.5H212.5ZM229 257.5V258H229.195L229.339 257.867L229 257.5ZM235.5 251.5L235.839 251.867L235.96 251.756L235.991 251.595L235.5 251.5ZM234 249.5L234.054 249.003L234.027 249H234V249.5ZM228 249.5H227.5V250H228V249.5ZM228 248H228.5V247.5H228V248ZM179.5 248V247.5H179V248H179.5ZM179.5 263V263.5H180V263H179.5ZM150 263L149.711 263.408L149.841 263.5H150V263ZM134.5 252L134.789 251.592L134.659 251.5H134.5V252ZM98.5 252H98V252.5H98.5V252ZM98.5 224.5V224H98V224.5H98.5ZM105.5 224.5V225H106V224.5H105.5ZM105.5 215.5H106V215H105.5V215.5ZM63 215.5V215H62.5V215.5H63ZM63 242.5H62.5V243H63V242.5ZM66.5 242.5H67V242H66.5V242.5ZM45.5 263H46V262.5H45.5V263ZM36.5 263V262.5H36V263H36.5ZM45.5 280.5V281H46V280.5H45.5ZM36.5 280.5H36V281H36.5V280.5ZM107 350.5V399.5H108V350.5H107ZM84.7202 351H107.5V350H84.7202V351ZM85.2202 365V350.5H84.2202V365H85.2202ZM16.5 365.5H84.7202V364.5H16.5V365.5ZM16 328.5V365H17V328.5H16ZM19 328H16.5V329H19V328ZM18.5 281V328.5H19.5V281H18.5ZM1 281.5H19V280.5H1V281.5ZM0.5 268V281H1.5V268H0.5ZM18.6464 249.646L0.646447 267.646L1.35355 268.354L19.3536 250.354L18.6464 249.646ZM18.5 159V250H19.5V159H18.5ZM50 158.5H19V159.5H50V158.5ZM49.5 155.5V159H50.5V155.5H49.5ZM42.5 156H50V155H42.5V156ZM42 129.5V155.5H43V129.5H42ZM119.5 129H42.5V130H119.5V129ZM120 159V129.5H119V159H120ZM123 158.5H119.5V159.5H123V158.5ZM122.5 108.5V159H123.5V108.5H122.5ZM145.5 108H123V109H145.5V108ZM190.839 92.5267L145.339 108.027L145.661 108.973L191.161 93.4733L190.839 92.5267ZM238 92.5H191V93.5H238V92.5ZM237.5 45.5V93H238.5V45.5H237.5ZM265.5 17.5C250.036 17.5 237.5 30.036 237.5 45.5H238.5C238.5 30.5883 250.588 18.5 265.5 18.5V17.5ZM293.5 45.5C293.5 30.036 280.964 17.5 265.5 17.5V18.5C280.412 18.5 292.5 30.5883 292.5 45.5H293.5ZM293.5 51V45.5H292.5V51H293.5ZM376.5 50.5H293V51.5H376.5V50.5ZM437.354 111.146L376.854 50.6464L376.146 51.3536L436.646 111.854L437.354 111.146ZM437.5 158V111.5H436.5V158H437.5ZM414.5 158.5H437V157.5H414.5V158.5ZM415 159.5V158H414V159.5H415ZM429.5 159H414.5V160H429.5V159ZM430 196.5V159.5H429V196.5H430ZM396.5 197H429.5V196H396.5V197ZM397 218V196.5H396V218H397ZM404 217.5H396.5V218.5H404V217.5ZM403.5 207V218H404.5V207H403.5ZM438 206.5H404V207.5H438V206.5ZM463.854 232.146L438.354 206.646L437.646 207.354L463.146 232.854L463.854 232.146ZM464 255V232.5H463V255H464ZM436.908 293.29L463.908 255.29L463.092 254.71L436.092 292.71L436.908 293.29ZM402 293.5H436.5V292.5H402V293.5ZM401.5 285.5V293H402.5V285.5H401.5ZM391 286H402V285H391V286ZM391.5 293V285.5H390.5V293H391.5ZM365.5 293.5H391V292.5H365.5V293.5ZM366 348.5V293H365V348.5H366ZM325.854 388.854L365.854 348.854L365.146 348.146L325.146 388.146L325.854 388.854ZM292.5 389H325.5V388H292.5V389ZM293 450V388.5H292V450H293ZM203.5 450.5H292.5V449.5H203.5V450.5ZM203 410.5V450H204V410.5H203ZM192.146 399.854L203.146 410.854L203.854 410.146L192.854 399.146L192.146 399.854ZM107.5 400H192.5V399H107.5V400ZM356.854 103.854L361.354 99.3536L360.646 98.6464L356.146 103.146L356.854 103.854ZM368.354 114.646L356.854 103.146L356.146 103.854L367.646 115.354L368.354 114.646ZM404 114.5H368V115.5H404V114.5ZM403.5 107.5V115H404.5V107.5H403.5ZM391.5 108H404V107H391.5V108ZM369.146 85.8536L391.146 107.854L391.854 107.146L369.854 85.1464L369.146 85.8536ZM369 75V85.5H370V75H369ZM362.097 65.7966L369.097 75.2966L369.903 74.7034L362.903 65.2034L362.097 65.7966ZM351 66H362.5V65H351V66ZM351.5 89V65.5H350.5V89H351.5ZM361.354 98.6464L351.354 88.6464L350.646 89.3536L360.646 99.3536L361.354 98.6464ZM281 315.5V330H282V315.5H281ZM296.5 315H281.5V316H296.5V315ZM296 274.5V315.5H297V274.5H296ZM281.5 275H296.5V274H281.5V275ZM281 257V274.5H282V257H281ZM285.5 256.5H281.5V257.5H285.5V256.5ZM286 262V257H285V262H286ZM347.5 261.5H285.5V262.5H347.5V261.5ZM347 239V262H348V239H347ZM338.146 230.354L347.146 239.354L347.854 238.646L338.854 229.646L338.146 230.354ZM338 176V230H339V176H338ZM371 175.5H338.5V176.5H371V175.5ZM371.5 196.5V176H370.5V196.5H371.5ZM375.5 196H371V197H375.5V196ZM376 218V196.5H375V218H376ZM364.5 218.5H375.5V217.5H364.5V218.5ZM365 232.5V218H364V232.5H365ZM417.166 250.528L364.666 232.028L364.334 232.972L416.834 251.472L417.166 250.528ZM417.5 258V251H416.5V258H417.5ZM380.124 267.984L417.124 258.484L416.876 257.516L379.876 267.016L380.124 267.984ZM324.5 268H380V267H324.5V268ZM325 355.5V267.5H324V355.5H325ZM321.453 363.211L324.953 355.711L324.047 355.289L320.547 362.789L321.453 363.211ZM315.5 363.5H321V362.5H315.5V363.5ZM315 330V363H316V330H315ZM281.5 330.5H315.5V329.5H281.5V330.5ZM282.5 193.5V182H281.5V193.5H282.5ZM306.5 193H282V194H306.5V193ZM306 145V193.5H307V145H306ZM319.5 144.5H306.5V145.5H319.5V144.5ZM338.219 153.55L319.719 144.55L319.281 145.45L337.781 154.45L338.219 153.55ZM364 153.5H338V154.5H364V153.5ZM363.5 133V154H364.5V133H363.5ZM359.5 133.5H364V132.5H359.5V133.5ZM348.146 122.354L359.146 133.354L359.854 132.646L348.854 121.646L348.146 122.354ZM353.146 116.646L348.146 121.646L348.854 122.354L353.854 117.354L353.146 116.646ZM348.146 112.354L353.146 117.354L353.854 116.646L348.854 111.646L348.146 112.354ZM343.834 116.872L348.834 112.372L348.166 111.628L343.166 116.128L343.834 116.872ZM332.646 106.354L343.146 116.854L343.854 116.146L333.354 105.646L332.646 106.354ZM332.5 87.5V106H333.5V87.5H332.5ZM330 88H333V87H330V88ZM326.224 89.9472L330.224 87.9472L329.776 87.0528L325.776 89.0528L326.224 89.9472ZM292.741 90H326V89H292.741V90ZM292.241 80.2557V89.5H293.241V80.2557H292.241ZM289 80.7557H292.741V79.7557H289V80.7557ZM289.5 118.5V80.2557H288.5V118.5H289.5ZM273.5 119H289V118H273.5V119ZM274 122.5V118.5H273V122.5H274ZM275.983 129.871L273.983 122.371L273.017 122.629L275.017 130.129L275.983 129.871ZM276 153V130H275V153H276ZM282.453 166.789L275.953 152.789L275.047 153.211L281.547 167.211L282.453 166.789ZM282.5 182V167H281.5V182H282.5ZM213.354 398.646L203.854 389.146L203.146 389.854L212.646 399.354L213.354 398.646ZM223.155 388.638L212.655 398.638L213.345 399.362L223.845 389.362L223.155 388.638ZM223 356V389H224V356H223ZM295.5 355.5H223.5V356.5H295.5V355.5ZM299.447 362.776L295.947 355.776L295.053 356.224L298.553 363.224L299.447 362.776ZM304.5 362.5H299V363.5H304.5V362.5ZM304 352V363H305V352H304ZM260.5 352.5H304.5V351.5H260.5V352.5ZM260 330V352H261V330H260ZM261.5 329.5H260.5V330.5H261.5V329.5ZM261 326.5V330H262V326.5H261ZM235.5 327H261.5V326H235.5V327ZM215.146 306.854L235.146 326.854L235.854 326.146L215.854 306.146L215.146 306.854ZM199.5 307H215.5V306H199.5V307ZM200 336.5V306.5H199V336.5H200ZM209 336H199.5V337H209V336ZM209.5 384.5V336.5H208.5V384.5H209.5ZM203.836 389.87L209.336 384.87L208.664 384.13L203.164 389.13L203.836 389.87ZM215.5 197V217H216.5V197H215.5ZM221.5 196.5H216V197.5H221.5V196.5ZM252.791 182.046L221.291 196.546L221.709 197.454L253.209 182.954L252.791 182.046ZM265.278 182H253V183H265.278V182ZM264.778 175V182.5H265.778V175H264.778ZM267 174.5H265.278V175.5H267V174.5ZM267.5 208V175H266.5V208H267.5ZM314.5 207.5H267V208.5H314.5V207.5ZM315 215.5V208H314V215.5H315ZM306.799 216H314.5V215H306.799V216ZM307.299 237V215.5H306.299V237H307.299ZM259.5 237.5H306.799V236.5H259.5V237.5ZM260 261V237H259V261H260ZM245.5 261.5H259.5V260.5H245.5V261.5ZM245 217V261H246V217H245ZM216 217.5H245.5V216.5H216V217.5ZM146 122.5H142V123.5H146V122.5ZM146.5 159V123H145.5V159H146.5ZM142 159.5H146V158.5H142V159.5ZM141.5 123V159H142.5V123H141.5ZM63.5 158.5V144H62.5V158.5H63.5ZM105.5 158H63V159H105.5V158ZM105 144V158.5H106V144H105ZM63 144.5H105.5V143.5H63V144.5ZM120 229.5V195.5H119V229.5H120ZM172.5 229H119.5V230H172.5V229ZM172 217V229.5H173V217H172ZM205 216.5H172.5V217.5H205V216.5ZM204.5 167V217H205.5V167H204.5ZM251.857 152.521L204.857 166.521L205.143 167.479L252.143 153.479L251.857 152.521ZM262.524 118.348L251.524 152.848L252.476 153.152L263.476 118.652L262.524 118.348ZM262.5 109.5V118.5H263.5V109.5H262.5ZM279 109H263V110H279V109ZM278.5 106V109.5H279.5V106H278.5ZM266.5 106.5H279V105.5H266.5V106.5ZM266 80.3058V106H267V80.3058H266ZM262.5 80.8058H266.5V79.8058H262.5V80.8058ZM263 107.5V80.3058H262V107.5H263ZM259 108H262.5V107H259V108ZM259.5 118.5V107.5H258.5V118.5H259.5ZM227 119H259V118H227V119ZM227.5 142V118.5H226.5V142H227.5ZM186 142.5H227V141.5H186V142.5ZM185.5 133V142H186.5V133H185.5ZM169.5 133.5H186V132.5H169.5V133.5ZM170 177V133H169V177H170ZM142 177.5H169.5V176.5H142V177.5ZM142.5 206V177H141.5V206H142.5ZM123 206.5H142V205.5H123V206.5ZM122.5 195.5V206H123.5V195.5H122.5ZM119.5 196H123V195H119.5V196ZM63 267H66.5V266H63V267ZM63.5 328.5V266.5H62.5V328.5H63.5ZM154 328H63V329H154V328ZM154.5 378V328.5H153.5V378H154.5ZM170.5 377.5H154V378.5H170.5V377.5ZM170 286.5V378H171V286.5H170ZM202.5 286H170.5V287H202.5V286ZM210.835 293.344L202.835 286.129L202.165 286.871L210.165 294.087L210.835 293.344ZM212.5 293.216H210.5V294.216H212.5V293.216ZM212 257.5V293.716H213V257.5H212ZM229 257H212.5V258H229V257ZM235.161 251.133L228.661 257.133L229.339 257.867L235.839 251.867L235.161 251.133ZM233.946 249.997C234.269 250.032 234.507 250.076 234.683 250.134C234.855 250.191 234.936 250.253 234.98 250.305C235.063 250.404 235.155 250.652 235.009 251.405L235.991 251.595C236.14 250.824 236.151 250.145 235.745 249.662C235.545 249.422 235.279 249.279 234.998 249.185C234.721 249.093 234.4 249.041 234.054 249.003L233.946 249.997ZM228 250H234V249H228V250ZM227.5 248V249.5H228.5V248H227.5ZM179.5 248.5H228V247.5H179.5V248.5ZM180 263V248H179V263H180ZM164.5 263.5H179.5V262.5H164.5V263.5ZM150 263.5H164.5V262.5H150V263.5ZM134.211 252.408L149.711 263.408L150.289 262.592L134.789 251.592L134.211 252.408ZM98.5 252.5H134.5V251.5H98.5V252.5ZM98 224.5V252H99V224.5H98ZM105.5 224H98.5V225H105.5V224ZM105 215.5V224.5H106V215.5H105ZM75.5 216H105.5V215H75.5V216ZM63 216H75.5V215H63V216ZM63.5 238.5V215.5H62.5V238.5H63.5ZM63.5 242.5V238.5H62.5V242.5H63.5ZM66.5 242H63V243H66.5V242ZM67 266.5V242.5H66V266.5H67ZM45.5 262.5H36.5V263.5H45.5V262.5ZM46 280.5V263H45V280.5H46ZM36.5 281H45.5V280H36.5V281ZM36 263V280.5H37V263H36ZM135.5 352.5C138.261 352.5 140.5 350.261 140.5 347.5H139.5C139.5 349.709 137.709 351.5 135.5 351.5V352.5ZM130.5 347.5C130.5 350.261 132.739 352.5 135.5 352.5V351.5C133.291 351.5 131.5 349.709 131.5 347.5H130.5ZM135.5 342.5C132.739 342.5 130.5 344.739 130.5 347.5H131.5C131.5 345.291 133.291 343.5 135.5 343.5V342.5ZM140.5 347.5C140.5 344.739 138.261 342.5 135.5 342.5V343.5C137.709 343.5 139.5 345.291 139.5 347.5H140.5Z" fill="#B27C40"/>
<path d="M169.5 133V126.5H177V129.75M177 133V129.75M177 129.75H180V133M123 159V177H119V181.5H96V190.5H119.5V195.5M142 159V177" stroke="#B27C40"/>
<path d="M135 328.5V343M130.5 328.5V373M199.5 329.5H192.5V336.5M192.5 379.5V336.5M199.5 336.5H192.5" stroke="#B27C40"/>
<path d="M204.5 336.5V341H209" stroke="#B27C40"/>
<path d="M230.5 217V224.5H238.5V217" stroke="#B27C40"/>
<path d="M172.5 229.5H201.5" stroke="#B27C40"/>
<path d="M119.5 237V230H126.5V237H119.5Z" stroke="#B27C40"/>
<path d="M15.5 281V274H19V281" stroke="#B27C40"/>
<path d="M37.5 346.5H34V339H48V346.5H44.5M37.5 346.5V350H44.5V346.5M37.5 346.5H44.5" stroke="#B27C40"/>
<path d="M19 193H26.5M19 200.5H41V193H30M26.5 193H30M26.5 193V189.5M19 186H26.5V189.5M30 193V189.5H26.5M70 158.5V166.5H77.5V158.5M80.5 215.5V208H87.5V215.5" stroke="#B27C40"/>
<path d="M150 229.5V234H192" stroke="#B27C40"/>
<path d="M245.5 255L236.5 262" stroke="#B27C40"/>
<path d="M248.5 261V286H256.5V260.812" stroke="#B27C40"/>
<path d="M259.5 261H263.5V237" stroke="#B27C40"/>
<path d="M289 193.5V200.5M289 208V200.5M289 200.5H293V208M320 245.5V253H327.5V245.5H320Z" stroke="#B27C40"/>
<path d="M338.5 176H331.5V183H338.5M279 106C279 105.6 279 98.8333 279 95.5H266.5V106H279Z" stroke="#B27C40"/>
<path d="M203.5 440.5H233.5V450M203.5 425.5H206.5V416H203.5M255.5 450V440.5H292.5M292.5 416H289V425.5H292.5M324.5 326.5H337.5V348M365.5 321H358V328.5H365.5M337.5 279V280.5H336.5V310.5H337.5V312H335V279H337.5ZM337.5 279H344M414.5 158V132.5M414.5 132.5H412.5M414.5 132.5H416.5M417 158V132.5H416.5M416.5 132.5C416.5 132.1 416.5 128.333 416.5 126.5M416.5 126.5H419.5M416.5 126.5H412.5M431.5 257L440 242.5L446.5 246.5L438 261L431.5 257ZM378.5 140V156H385.5V149H400V140H378.5Z" stroke="#B27C40"/>
<path d="M351 65.5H343.5V69.5M351 70H347.25M347.25 70H343.5V69.5M347.25 70V73.5H351M344 70.5H307V69.5H343.5" stroke="#B27C40"/>
<path d="M414 160H429V175.647H414V160Z" fill="#F08234" fill-opacity="0.23"/>
<path d="M414 127H416V132H414V127Z" fill="#F08234" fill-opacity="0.23"/>
<path fill-rule="evenodd" clip-rule="evenodd" d="M371.5 115.5H403.5L412.5 124.5V126H414V175.651H371.5V115.5ZM378 139.5H400.5V149.5H386V156.5H378V149.5V139.5Z" fill="#F08234" fill-opacity="0.23"/>
<path d="M400.816 164H399.27L402.086 156H403.875L406.695 164H405.148L403.012 157.641H402.949L400.816 164ZM400.867 160.863H405.086V162.027H400.867V160.863Z" fill="white"/>
<path fill-rule="evenodd" clip-rule="evenodd" d="M69.5 159H62.5V215L80 215V207.5H88V215L106 215V191H95.5V181H106V159H78V167H69.5V159Z" fill="#F08234" fill-opacity="0.23"/>
<path d="M80.7891 192V184H83.8516C84.4297 184 84.9102 184.091 85.293 184.273C85.6784 184.453 85.9661 184.699 86.1563 185.012C86.349 185.324 86.4453 185.678 86.4453 186.074C86.4453 186.4 86.3828 186.678 86.2578 186.91C86.1328 187.139 85.9648 187.326 85.7539 187.469C85.543 187.612 85.3073 187.715 85.0469 187.777V187.855C85.3307 187.871 85.6029 187.958 85.8633 188.117C86.1263 188.273 86.3411 188.495 86.5078 188.781C86.6745 189.068 86.7578 189.414 86.7578 189.82C86.7578 190.234 86.6576 190.607 86.457 190.937C86.2565 191.266 85.9544 191.525 85.5508 191.715C85.1471 191.905 84.6393 192 84.0273 192H80.7891ZM82.2383 190.789H83.7969C84.3229 190.789 84.7018 190.689 84.9336 190.488C85.168 190.285 85.2852 190.025 85.2852 189.707C85.2852 189.47 85.2266 189.257 85.1094 189.066C84.9922 188.874 84.8255 188.723 84.6094 188.613C84.3932 188.501 84.1354 188.445 83.8359 188.445H82.2383V190.789ZM82.2383 187.402H83.6719C83.9219 187.402 84.1471 187.357 84.3477 187.266C84.5482 187.172 84.7057 187.04 84.8203 186.871C84.9375 186.699 84.9961 186.496 84.9961 186.262C84.9961 185.952 84.8867 185.697 84.668 185.496C84.4518 185.296 84.1302 185.195 83.7031 185.195H82.2383V187.402Z" fill="white"/>
<path d="M123 177H142M123 159C123.4 159 135.833 159 142 159M103.5 189.5V182.5H97V189.5H103.5Z" stroke="#B27C40" stroke-opacity="0.23"/>
</svg>
