<svg width="464" height="468" viewBox="0 0 464 468" fill="none" xmlns="http://www.w3.org/2000/svg">
<path fill-rule="evenodd" clip-rule="evenodd" d="M107 68.5V117.5H84.2202V103H16V139.5H18.5V187H0.5V200L18.5 218V309H49.5V312.5H42V338.5H119V309H122.5V359.5H145L190.5 375H237.5V422.5C237.5 437.688 249.812 450 265 450C280.188 450 292.5 437.688 292.5 422.5V417H376L436.5 356.5V310H414V308.5H429V271.5H396V250H403.5V261H437.5L463 235.5V213L436 175H401.5V182.5H390.5V175H365V119.5L325 79.5H292V18H203V57.5L192 68.5H107ZM360.5 369L356 364.5L367.5 353H403.5V360.5H391L369 382.5V393L362 402.5H350.5V379L360.5 369ZM281 138V152.5H296V193.5H281V211H285V206H347V229L338 238V292H370.5V271.5H375V250H364V235.5L416.5 217V210L379.5 200.5H324V112.5L320.5 105H315V138H281ZM281.5 286V274.5H306V323H319L337.5 314H363.5V335H359L348 346L353 351L348 356L343 351.5L332.5 362V380.5H329.5L325.5 378.5H292.241V387.744H288.5V349.5H273V345.5L275 338V315L281.5 301V286ZM203 78.5L212.5 69L223 79V112H295L298.5 105H304V116H260V138H261V141.5H235L215 161.5H199V131.5H208.5V83.5L203 78.5ZM215.5 251V271H221L252.5 285.5H264.778V293H266.5V260H314V252.5H306.299V231H259V207H245V251H215.5ZM141.5 345H145.5V309H141.5V345ZM62.5 324V309.5H105V324H62.5ZM119 272.5V238.5H172V251H204.5V301L251.5 315L262.5 349.5V358.5H278.5V362H266V387.694H262V360.5H258.5V349.5H226.5V326H185.5V335H169V291H141.5V262H122.5V272.5H119ZM66 201.5H62.5V139.5H153.5V90H170V181.5H202L210 174.284H212V210.5H228.5L235 216.5C235.295 218.024 234.839 218.354 233.5 218.5H227.5V220H179V205H164H149.5L134 216H98V243.5H105V252.5H75H62.5V229.5V225.5H66V201.5ZM36 205H45V187.5H36V205ZM139.5 120.5C139.5 118.015 137.485 116 135 116C132.515 116 130.5 118.015 130.5 120.5C130.5 122.985 132.515 125 135 125C137.485 125 139.5 122.985 139.5 120.5Z" fill="#271406"/>
<path d="M107 117.5H107.5V118H107V117.5ZM107 68.5H106.5V68H107V68.5ZM84.2202 117.5V118H83.7202V117.5H84.2202ZM84.2202 103V102.5H84.7202V103H84.2202ZM16 103H15.5V102.5H16V103ZM16 139.5V140H15.5V139.5H16ZM18.5 139.5V139H19V139.5H18.5ZM18.5 187H19V187.5H18.5V187ZM0.5 187H0V186.5H0.5V187ZM0.5 200L0.146447 200.354L0 200.207V200H0.5ZM18.5 218L18.8536 217.646L19 217.793V218H18.5ZM18.5 309V309.5H18V309H18.5ZM49.5 309V308.5H50V309H49.5ZM49.5 312.5H50V313H49.5V312.5ZM42 312.5H41.5V312H42V312.5ZM42 338.5V339H41.5V338.5H42ZM119 338.5H119.5V339H119V338.5ZM119 309H118.5V308.5H119V309ZM122.5 309V308.5H123V309H122.5ZM122.5 359.5V360H122V359.5H122.5ZM145 359.5V359H145.083L145.161 359.027L145 359.5ZM190.5 375V375.5H190.417L190.339 375.473L190.5 375ZM237.5 375V374.5H238V375H237.5ZM292.5 417H292V416.5H292.5V417ZM376 417L376.354 417.354L376.207 417.5H376V417ZM436.5 356.5H437V356.707L436.854 356.854L436.5 356.5ZM436.5 310V309.5H437V310H436.5ZM414 310V310.5H413.5V310H414ZM414 308.5H413.5V308H414V308.5ZM429 308.5H429.5V309H429V308.5ZM429 271.5V271H429.5V271.5H429ZM396 271.5V272H395.5V271.5H396ZM396 250H395.5V249.5H396V250ZM403.5 250V249.5H404V250H403.5ZM403.5 261V261.5H403V261H403.5ZM437.5 261L437.854 261.354L437.707 261.5H437.5V261ZM463 235.5H463.5V235.707L463.354 235.854L463 235.5ZM463 213L463.408 212.71L463.5 212.84V213H463ZM436 175V174.5H436.258L436.408 174.71L436 175ZM401.5 175H401V174.5H401.5V175ZM401.5 182.5H402V183H401.5V182.5ZM390.5 182.5V183H390V182.5H390.5ZM390.5 175V174.5H391V175H390.5ZM365 175V175.5H364.5V175H365ZM365 119.5L365.354 119.146L365.5 119.293V119.5H365ZM325 79.5V79H325.207L325.354 79.1464L325 79.5ZM292 79.5V80H291.5V79.5H292ZM292 18V17.5H292.5V18H292ZM203 18H202.5V17.5H203V18ZM203 57.5H203.5V57.7071L203.354 57.8536L203 57.5ZM192 68.5L192.354 68.8536L192.207 69H192V68.5ZM356 364.5L355.646 364.854L355.293 364.5L355.646 364.146L356 364.5ZM360.5 369L360.854 368.646L361.207 369L360.854 369.354L360.5 369ZM367.5 353L367.146 352.646L367.293 352.5H367.5V353ZM403.5 353V352.5H404V353H403.5ZM403.5 360.5H404V361H403.5V360.5ZM391 360.5L390.646 360.146L390.793 360H391V360.5ZM369 382.5H368.5V382.293L368.646 382.146L369 382.5ZM369 393H369.5V393.164L369.403 393.297L369 393ZM362 402.5L362.403 402.797L362.253 403H362V402.5ZM350.5 402.5V403H350V402.5H350.5ZM350.5 379H350V378.793L350.146 378.646L350.5 379ZM281 152.5V153H280.5V152.5H281ZM281 138H280.5V137.5H281V138ZM296 152.5V152H296.5V152.5H296ZM296 193.5H296.5V194H296V193.5ZM281 193.5H280.5V193H281V193.5ZM281 211V211.5H280.5V211H281ZM285 211H285.5V211.5H285V211ZM285 206H284.5V205.5H285V206ZM347 206V205.5H347.5V206H347ZM347 229H347.5V229.207L347.354 229.354L347 229ZM338 238H337.5V237.793L337.646 237.646L338 238ZM338 292V292.5H337.5V292H338ZM370.5 292H371V292.5H370.5V292ZM370.5 271.5H370V271H370.5V271.5ZM375 271.5H375.5V272H375V271.5ZM375 250V249.5H375.5V250H375ZM364 250V250.5H363.5V250H364ZM364 235.5H363.5V235.146L363.834 235.028L364 235.5ZM416.5 217H417V217.354L416.666 217.472L416.5 217ZM416.5 210L416.624 209.516L417 209.612V210H416.5ZM379.5 200.5V200H379.563L379.624 200.016L379.5 200.5ZM324 200.5V201H323.5V200.5H324ZM324 112.5L324.453 112.289L324.5 112.389V112.5H324ZM320.5 105V104.5H320.818L320.953 104.789L320.5 105ZM315 105H314.5V104.5H315V105ZM315 138H315.5V138.5H315V138ZM281.5 274.5H281V274H281.5V274.5ZM306 274.5V274H306.5V274.5H306ZM306 323V323.5H305.5V323H306ZM319 323L319.219 323.45L319.115 323.5H319V323ZM337.5 314L337.281 313.55L337.385 313.5H337.5V314ZM363.5 314V313.5H364V314H363.5ZM363.5 335H364V335.5H363.5V335ZM359 335L358.646 334.646L358.793 334.5H359V335ZM348 346L347.646 346.354L347.293 346L347.646 345.646L348 346ZM353 351L353.354 350.646L353.707 351L353.354 351.354L353 351ZM348 356L348.354 356.354L348.018 356.689L347.666 356.372L348 356ZM343 351.5L342.646 351.146L342.982 350.811L343.334 351.128L343 351.5ZM332.5 362H332V361.793L332.146 361.646L332.5 362ZM332.5 380.5H333V381H332.5V380.5ZM329.5 380.5V381H329.382L329.276 380.947L329.5 380.5ZM325.5 378.5V378H325.618L325.724 378.053L325.5 378.5ZM292.241 378.5H291.741V378H292.241V378.5ZM292.241 387.744H292.741V388.244H292.241V387.744ZM288.5 387.744V388.244H288V387.744H288.5ZM288.5 349.5V349H289V349.5H288.5ZM273 349.5V350H272.5V349.5H273ZM273 345.5H272.5V345.434L272.517 345.371L273 345.5ZM275 338H275.5V338.066L275.483 338.129L275 338ZM275 315H274.5V314.89L274.546 314.789L275 315ZM281.5 301H282V301.11L281.954 301.211L281.5 301ZM212.5 69L212.146 68.6464L212.491 68.3014L212.845 68.6379L212.5 69ZM203 78.5L202.664 78.87L202.276 78.5172L202.646 78.1464L203 78.5ZM223 79L223.345 78.6379L223.5 78.7857V79H223ZM223 112V112.5H222.5V112H223ZM295 112L295.447 112.224L295.309 112.5H295V112ZM298.5 105L298.053 104.776L298.191 104.5H298.5V105ZM304 105V104.5H304.5V105H304ZM304 116H304.5V116.5H304V116ZM260 116H259.5V115.5H260V116ZM260 138V138.5H259.5V138H260ZM261 138V137.5H261.5V138H261ZM261 141.5H261.5V142H261V141.5ZM235 141.5L234.646 141.146L234.793 141H235V141.5ZM215 161.5L215.354 161.854L215.207 162H215V161.5ZM199 161.5V162H198.5V161.5H199ZM199 131.5H198.5V131H199V131.5ZM208.5 131.5H209V132H208.5V131.5ZM208.5 83.5L208.836 83.13L209 83.2788V83.5H208.5ZM215.5 271V271.5H215V271H215.5ZM215.5 251H215V250.5H215.5V251ZM221 271V270.5H221.11L221.209 270.546L221 271ZM252.5 285.5V286H252.39L252.291 285.954L252.5 285.5ZM264.778 285.5V285H265.278V285.5H264.778ZM264.778 293V293.5H264.278V293H264.778ZM266.5 293H267V293.5H266.5V293ZM266.5 260H266V259.5H266.5V260ZM314 260H314.5V260.5H314V260ZM314 252.5V252H314.5V252.5H314ZM306.299 252.5V253H305.799V252.5H306.299ZM306.299 231V230.5H306.799V231H306.299ZM259 231V231.5H258.5V231H259ZM259 207V206.5H259.5V207H259ZM245 207H244.5V206.5H245V207ZM245 251H245.5V251.5H245V251ZM145.5 345H146V345.5H145.5V345ZM141.5 345V345.5H141V345H141.5ZM145.5 309V308.5H146V309H145.5ZM141.5 309H141V308.5H141.5V309ZM62.5 309.5H62V309H62.5V309.5ZM62.5 324V324.5H62V324H62.5ZM105 309.5V309H105.5V309.5H105ZM105 324H105.5V324.5H105V324ZM119 238.5H118.5V238H119V238.5ZM119 272.5V273H118.5V272.5H119ZM172 238.5V238H172.5V238.5H172ZM172 251V251.5H171.5V251H172ZM204.5 251V250.5H205V251H204.5ZM204.5 301L204.357 301.479L204 301.373V301H204.5ZM251.5 315L251.643 314.521L251.896 314.596L251.976 314.848L251.5 315ZM262.5 349.5L262.976 349.348L263 349.422V349.5H262.5ZM262.5 358.5V359H262V358.5H262.5ZM278.5 358.5V358H279V358.5H278.5ZM278.5 362H279V362.5H278.5V362ZM266 362H265.5V361.5H266V362ZM266 387.694H266.5V388.194H266V387.694ZM262 387.694V388.194H261.5V387.694H262ZM262 360.5V360H262.5V360.5H262ZM258.5 360.5V361H258V360.5H258.5ZM258.5 349.5V349H259V349.5H258.5ZM226.5 349.5V350H226V349.5H226.5ZM226.5 326V325.5H227V326H226.5ZM185.5 326H185V325.5H185.5V326ZM185.5 335H186V335.5H185.5V335ZM169 335V335.5H168.5V335H169ZM169 291V290.5H169.5V291H169ZM141.5 291V291.5H141V291H141.5ZM141.5 262V261.5H142V262H141.5ZM122.5 262H122V261.5H122.5V262ZM122.5 272.5H123V273H122.5V272.5ZM62.5 201.5V202H62V201.5H62.5ZM66 201.5V201H66.5V201.5H66ZM62.5 139.5H62V139H62.5V139.5ZM153.5 139.5H154V140H153.5V139.5ZM153.5 90H153V89.5H153.5V90ZM170 90V89.5H170.5V90H170ZM170 181.5V182H169.5V181.5H170ZM202 181.5L202.335 181.871L202.192 182H202V181.5ZM210 174.284L209.665 173.913L209.808 173.784H210V174.284ZM212 174.284V173.784H212.5V174.284H212ZM212 210.5V211H211.5V210.5H212ZM228.5 210.5V210H228.695L228.839 210.133L228.5 210.5ZM235 216.5L235.339 216.133L235.46 216.244L235.491 216.405L235 216.5ZM233.5 218.5L233.554 218.997L233.527 219H233.5V218.5ZM227.5 218.5H227V218H227.5V218.5ZM227.5 220H228V220.5H227.5V220ZM179 220V220.5H178.5V220H179ZM179 205V204.5H179.5V205H179ZM149.5 205L149.211 204.592L149.341 204.5H149.5V205ZM134 216L134.289 216.408L134.159 216.5H134V216ZM98 216H97.5V215.5H98V216ZM98 243.5V244H97.5V243.5H98ZM105 243.5V243H105.5V243.5H105ZM105 252.5H105.5V253H105V252.5ZM62.5 252.5V253H62V252.5H62.5ZM62.5 225.5H62V225H62.5V225.5ZM66 225.5H66.5V226H66V225.5ZM45 205H45.5V205.5H45V205ZM36 205V205.5H35.5V205H36ZM45 187.5V187H45.5V187.5H45ZM36 187.5H35.5V187H36V187.5ZM107 117.5H106.5V68.5H107H107.5V117.5H107ZM84.2202 117.5V117H107V117.5V118H84.2202V117.5ZM84.2202 103H84.7202V117.5H84.2202H83.7202V103H84.2202ZM16 103V102.5H84.2202V103V103.5H16V103ZM16 139.5H15.5V103H16H16.5V139.5H16ZM18.5 139.5V140H16V139.5V139H18.5V139.5ZM18.5 187H18V139.5H18.5H19V187H18.5ZM0.5 187V186.5H18.5V187V187.5H0.5V187ZM0.5 200H0V187H0.5H1V200H0.5ZM18.5 218L18.1464 218.354L0.146447 200.354L0.5 200L0.853553 199.646L18.8536 217.646L18.5 218ZM18.5 309H18V218H18.5H19V309H18.5ZM49.5 309V309.5H18.5V309V308.5H49.5V309ZM49.5 312.5H49V309H49.5H50V312.5H49.5ZM42 312.5V312H49.5V312.5V313H42V312.5ZM42 338.5H41.5V312.5H42H42.5V338.5H42ZM119 338.5V339H42V338.5V338H119V338.5ZM119 309H119.5V338.5H119H118.5V309H119ZM122.5 309V309.5H119V309V308.5H122.5V309ZM122.5 359.5H122V309H122.5H123V359.5H122.5ZM145 359.5V360H122.5V359.5V359H145V359.5ZM190.5 375L190.339 375.473L144.839 359.973L145 359.5L145.161 359.027L190.661 374.527L190.5 375ZM237.5 375V375.5H190.5V375V374.5H237.5V375ZM237.5 422.5H237V375H237.5H238V422.5H237.5ZM265 450V450.5C249.536 450.5 237 437.964 237 422.5H237.5H238C238 437.412 250.088 449.5 265 449.5V450ZM292.5 422.5H293C293 437.964 280.464 450.5 265 450.5V450V449.5C279.912 449.5 292 437.412 292 422.5H292.5ZM292.5 417H293V422.5H292.5H292V417H292.5ZM376 417V417.5H292.5V417V416.5H376V417ZM436.5 356.5L436.854 356.854L376.354 417.354L376 417L375.646 416.646L436.146 356.146L436.5 356.5ZM436.5 310H437V356.5H436.5H436V310H436.5ZM414 310V309.5H436.5V310V310.5H414V310ZM414 308.5H414.5V310H414H413.5V308.5H414ZM429 308.5V309H414V308.5V308H429V308.5ZM429 271.5H429.5V308.5H429H428.5V271.5H429ZM396 271.5V271H429V271.5V272H396V271.5ZM396 250H396.5V271.5H396H395.5V250H396ZM403.5 250V250.5H396V250V249.5H403.5V250ZM403.5 261H403V250H403.5H404V261H403.5ZM437.5 261V261.5H403.5V261V260.5H437.5V261ZM463 235.5L463.354 235.854L437.854 261.354L437.5 261L437.146 260.646L462.646 235.146L463 235.5ZM463 213H463.5V235.5H463H462.5V213H463ZM436 175L436.408 174.71L463.408 212.71L463 213L462.592 213.29L435.592 175.29L436 175ZM401.5 175V174.5H436V175V175.5H401.5V175ZM401.5 182.5H401V175H401.5H402V182.5H401.5ZM390.5 182.5V182H401.5V182.5V183H390.5V182.5ZM390.5 175H391V182.5H390.5H390V175H390.5ZM365 175V174.5H390.5V175V175.5H365V175ZM365 119.5H365.5V175H365H364.5V119.5H365ZM325 79.5L325.354 79.1464L365.354 119.146L365 119.5L364.646 119.854L324.646 79.8536L325 79.5ZM292 79.5V79H325V79.5V80H292V79.5ZM292 18H292.5V79.5H292H291.5V18H292ZM203 18V17.5H292V18V18.5H203V18ZM203 57.5H202.5V18H203H203.5V57.5H203ZM192 68.5L191.646 68.1464L202.646 57.1464L203 57.5L203.354 57.8536L192.354 68.8536L192 68.5ZM107 68.5V68H192V68.5V69H107V68.5ZM356 364.5L356.354 364.146L360.854 368.646L360.5 369L360.146 369.354L355.646 364.854L356 364.5ZM367.5 353L367.854 353.354L356.354 364.854L356 364.5L355.646 364.146L367.146 352.646L367.5 353ZM403.5 353V353.5H367.5V353V352.5H403.5V353ZM403.5 360.5H403V353H403.5H404V360.5H403.5ZM391 360.5V360H403.5V360.5V361H391V360.5ZM369 382.5L368.646 382.146L390.646 360.146L391 360.5L391.354 360.854L369.354 382.854L369 382.5ZM369 393H368.5V382.5H369H369.5V393H369ZM362 402.5L361.597 402.203L368.597 392.703L369 393L369.403 393.297L362.403 402.797L362 402.5ZM350.5 402.5V402H362V402.5V403H350.5V402.5ZM350.5 379H351V402.5H350.5H350V379H350.5ZM360.5 369L360.854 369.354L350.854 379.354L350.5 379L350.146 378.646L360.146 368.646L360.5 369ZM281 152.5H280.5V138H281H281.5V152.5H281ZM296 152.5V153H281V152.5V152H296V152.5ZM296 193.5H295.5V152.5H296H296.5V193.5H296ZM281 193.5V193H296V193.5V194H281V193.5ZM281 211H280.5V193.5H281H281.5V211H281ZM285 211V211.5H281V211V210.5H285V211ZM285 206H285.5V211H285H284.5V206H285ZM347 206V206.5H285V206V205.5H347V206ZM347 229H346.5V206H347H347.5V229H347ZM338 238L337.646 237.646L346.646 228.646L347 229L347.354 229.354L338.354 238.354L338 238ZM338 292H337.5V238H338H338.5V292H338ZM370.5 292V292.5H338V292V291.5H370.5V292ZM370.5 271.5H371V292H370.5H370V271.5H370.5ZM375 271.5V272H370.5V271.5V271H375V271.5ZM375 250H375.5V271.5H375H374.5V250H375ZM364 250V249.5H375V250V250.5H364V250ZM364 235.5H364.5V250H364H363.5V235.5H364ZM416.5 217L416.666 217.472L364.166 235.972L364 235.5L363.834 235.028L416.334 216.528L416.5 217ZM416.5 210H417V217H416.5H416V210H416.5ZM379.5 200.5L379.624 200.016L416.624 209.516L416.5 210L416.376 210.484L379.376 200.984L379.5 200.5ZM324 200.5V200H379.5V200.5V201H324V200.5ZM324 112.5H324.5V200.5H324H323.5V112.5H324ZM320.5 105L320.953 104.789L324.453 112.289L324 112.5L323.547 112.711L320.047 105.211L320.5 105ZM315 105V104.5H320.5V105V105.5H315V105ZM315 138H314.5V105H315H315.5V138H315ZM281 138V137.5H315V138V138.5H281V138ZM281.5 274.5H282V286H281.5H281V274.5H281.5ZM306 274.5V275H281.5V274.5V274H306V274.5ZM306 323H305.5V274.5H306H306.5V323H306ZM319 323V323.5H306V323V322.5H319V323ZM337.5 314L337.719 314.45L319.219 323.45L319 323L318.781 322.55L337.281 313.55L337.5 314ZM363.5 314V314.5H337.5V314V313.5H363.5V314ZM363.5 335H363V314H363.5H364V335H363.5ZM359 335V334.5H363.5V335V335.5H359V335ZM348 346L347.646 345.646L358.646 334.646L359 335L359.354 335.354L348.354 346.354L348 346ZM353 351L352.646 351.354L347.646 346.354L348 346L348.354 345.646L353.354 350.646L353 351ZM348 356L347.646 355.646L352.646 350.646L353 351L353.354 351.354L348.354 356.354L348 356ZM343 351.5L343.334 351.128L348.334 355.628L348 356L347.666 356.372L342.666 351.872L343 351.5ZM332.5 362L332.146 361.646L342.646 351.146L343 351.5L343.354 351.854L332.854 362.354L332.5 362ZM332.5 380.5H332V362H332.5H333V380.5H332.5ZM329.5 380.5V380H332.5V380.5V381H329.5V380.5ZM325.5 378.5L325.724 378.053L329.724 380.053L329.5 380.5L329.276 380.947L325.276 378.947L325.5 378.5ZM292.241 378.5V378H325.5V378.5V379H292.241V378.5ZM292.241 387.744H291.741V378.5H292.241H292.741V387.744H292.241ZM288.5 387.744V387.244H292.241V387.744V388.244H288.5V387.744ZM288.5 349.5H289V387.744H288.5H288V349.5H288.5ZM273 349.5V349H288.5V349.5V350H273V349.5ZM273 345.5H273.5V349.5H273H272.5V345.5H273ZM275 338L275.483 338.129L273.483 345.629L273 345.5L272.517 345.371L274.517 337.871L275 338ZM275 315H275.5V338H275H274.5V315H275ZM281.5 301L281.954 301.211L275.454 315.211L275 315L274.546 314.789L281.046 300.789L281.5 301ZM281.5 286H282V301H281.5H281V286H281.5ZM212.5 69L212.854 69.3536L203.354 78.8536L203 78.5L202.646 78.1464L212.146 68.6464L212.5 69ZM223 79L222.655 79.3621L212.155 69.3621L212.5 69L212.845 68.6379L223.345 78.6379L223 79ZM223 112H222.5V79H223H223.5V112H223ZM295 112V112.5H223V112V111.5H295V112ZM298.5 105L298.947 105.224L295.447 112.224L295 112L294.553 111.776L298.053 104.776L298.5 105ZM304 105V105.5H298.5V105V104.5H304V105ZM304 116H303.5V105H304H304.5V116H304ZM260 116V115.5H304V116V116.5H260V116ZM260 138H259.5V116H260H260.5V138H260ZM261 138V138.5H260V138V137.5H261V138ZM261 141.5H260.5V138H261H261.5V141.5H261ZM235 141.5V141H261V141.5V142H235V141.5ZM215 161.5L214.646 161.146L234.646 141.146L235 141.5L235.354 141.854L215.354 161.854L215 161.5ZM199 161.5V161H215V161.5V162H199V161.5ZM199 131.5H199.5V161.5H199H198.5V131.5H199ZM208.5 131.5V132H199V131.5V131H208.5V131.5ZM208.5 83.5H209V131.5H208.5H208V83.5H208.5ZM203 78.5L203.336 78.13L208.836 83.13L208.5 83.5L208.164 83.87L202.664 78.87L203 78.5ZM215.5 271H215V251H215.5H216V271H215.5ZM221 271V271.5H215.5V271V270.5H221V271ZM252.5 285.5L252.291 285.954L220.791 271.454L221 271L221.209 270.546L252.709 285.046L252.5 285.5ZM264.778 285.5V286H252.5V285.5V285H264.778V285.5ZM264.778 293H264.278V285.5H264.778H265.278V293H264.778ZM266.5 293V293.5H264.778V293V292.5H266.5V293ZM266.5 260H267V293H266.5H266V260H266.5ZM314 260V260.5H266.5V260V259.5H314V260ZM314 252.5H314.5V260H314H313.5V252.5H314ZM306.299 252.5V252H314V252.5V253H306.299V252.5ZM306.299 231H306.799V252.5H306.299H305.799V231H306.299ZM259 231V230.5H306.299V231V231.5H259V231ZM259 207H259.5V231H259H258.5V207H259ZM245 207V206.5H259V207V207.5H245V207ZM245 251H244.5V207H245H245.5V251H245ZM215.5 251V250.5H245V251V251.5H215.5V251ZM145.5 345V345.5H141.5V345V344.5H145.5V345ZM145.5 309H146V345H145.5H145V309H145.5ZM141.5 309V308.5H145.5V309V309.5H141.5V309ZM141.5 345H141V309H141.5H142V345H141.5ZM62.5 309.5H63V324H62.5H62V309.5H62.5ZM105 309.5V310H62.5V309.5V309H105V309.5ZM105 324H104.5V309.5H105H105.5V324H105ZM62.5 324V323.5H105V324V324.5H62.5V324ZM119 238.5H119.5V272.5H119H118.5V238.5H119ZM172 238.5V239H119V238.5V238H172V238.5ZM172 251H171.5V238.5H172H172.5V251H172ZM204.5 251V251.5H172V251V250.5H204.5V251ZM204.5 301H204V251H204.5H205V301H204.5ZM251.5 315L251.357 315.479L204.357 301.479L204.5 301L204.643 300.521L251.643 314.521L251.5 315ZM262.5 349.5L262.024 349.652L251.024 315.152L251.5 315L251.976 314.848L262.976 349.348L262.5 349.5ZM262.5 358.5H262V349.5H262.5H263V358.5H262.5ZM278.5 358.5V359H262.5V358.5V358H278.5V358.5ZM278.5 362H278V358.5H278.5H279V362H278.5ZM266 362V361.5H278.5V362V362.5H266V362ZM266 387.694H265.5V362H266H266.5V387.694H266ZM262 387.694V387.194H266V387.694V388.194H262V387.694ZM262 360.5H262.5V387.694H262H261.5V360.5H262ZM258.5 360.5V360H262V360.5V361H258.5V360.5ZM258.5 349.5H259V360.5H258.5H258V349.5H258.5ZM226.5 349.5V349H258.5V349.5V350H226.5V349.5ZM226.5 326H227V349.5H226.5H226V326H226.5ZM185.5 326V325.5H226.5V326V326.5H185.5V326ZM185.5 335H185V326H185.5H186V335H185.5ZM169 335V334.5H185.5V335V335.5H169V335ZM169 291H169.5V335H169H168.5V291H169ZM141.5 291V290.5H169V291V291.5H141.5V291ZM141.5 262H142V291H141.5H141V262H141.5ZM122.5 262V261.5H141.5V262V262.5H122.5V262ZM122.5 272.5H122V262H122.5H123V272.5H122.5ZM119 272.5V272H122.5V272.5V273H119V272.5ZM62.5 201.5V201H66V201.5V202H62.5V201.5ZM62.5 139.5H63V201.5H62.5H62V139.5H62.5ZM153.5 139.5V140H62.5V139.5V139H153.5V139.5ZM153.5 90H154V139.5H153.5H153V90H153.5ZM170 90V90.5H153.5V90V89.5H170V90ZM170 181.5H169.5V90H170H170.5V181.5H170ZM202 181.5V182H170V181.5V181H202V181.5ZM210 174.284L210.335 174.656L202.335 181.871L202 181.5L201.665 181.129L209.665 173.913L210 174.284ZM212 174.284V174.784H210V174.284V173.784H212V174.284ZM212 210.5H211.5V174.284H212H212.5V210.5H212ZM228.5 210.5V211H212V210.5V210H228.5V210.5ZM235 216.5L234.661 216.867L228.161 210.867L228.5 210.5L228.839 210.133L235.339 216.133L235 216.5ZM233.5 218.5L233.446 218.003C233.769 217.968 234.007 217.924 234.183 217.866C234.355 217.809 234.436 217.747 234.48 217.695C234.563 217.596 234.655 217.348 234.509 216.595L235 216.5L235.491 216.405C235.64 217.176 235.651 217.855 235.245 218.338C235.045 218.578 234.779 218.721 234.498 218.815C234.221 218.907 233.9 218.959 233.554 218.997L233.5 218.5ZM227.5 218.5V218H233.5V218.5V219H227.5V218.5ZM227.5 220H227V218.5H227.5H228V220H227.5ZM179 220V219.5H227.5V220V220.5H179V220ZM179 205H179.5V220H179H178.5V205H179ZM164 205V204.5H179V205V205.5H164V205ZM149.5 205V204.5H164V205V205.5H149.5V205ZM134 216L133.711 215.592L149.211 204.592L149.5 205L149.789 205.408L134.289 216.408L134 216ZM98 216V215.5H134V216V216.5H98V216ZM98 243.5H97.5V216H98H98.5V243.5H98ZM105 243.5V244H98V243.5V243H105V243.5ZM105 252.5H104.5V243.5H105H105.5V252.5H105ZM75 252.5V252H105V252.5V253H75V252.5ZM62.5 252.5V252H75V252.5V253H62.5V252.5ZM62.5 229.5H63V252.5H62.5H62V229.5H62.5ZM62.5 225.5H63V229.5H62.5H62V225.5H62.5ZM66 225.5V226H62.5V225.5V225H66V225.5ZM66 201.5H66.5V225.5H66H65.5V201.5H66ZM45 205V205.5H36V205V204.5H45V205ZM45 187.5H45.5V205H45H44.5V187.5H45ZM36 187.5V187H45V187.5V188H36V187.5ZM36 205H35.5V187.5H36H36.5V205H36ZM135 116V115.5C137.761 115.5 140 117.739 140 120.5H139.5H139C139 118.291 137.209 116.5 135 116.5V116ZM130.5 120.5H130C130 117.739 132.239 115.5 135 115.5V116V116.5C132.791 116.5 131 118.291 131 120.5H130.5ZM135 125V125.5C132.239 125.5 130 123.261 130 120.5H130.5H131C131 122.709 132.791 124.5 135 124.5V125ZM139.5 120.5H140C140 123.261 137.761 125.5 135 125.5V125V124.5C137.209 124.5 139 122.709 139 120.5H139.5Z" fill="#B27C40"/>
<path d="M169 335V341.5H176.5V338.25M176.5 335V338.25M176.5 338.25H179.5V335M122.5 309V291H118.5V286.5H95.5V277.5H119V272.5M141.5 309V291" stroke="#B27C40"/>
<path d="M134.5 139.5V125M130 139.5V95M199 138.5H192V131.5M192 88.5V131.5M199 131.5H192" stroke="#B27C40"/>
<path d="M204 131.5V127H208.5" stroke="#B27C40"/>
<path d="M230 251V243.5H238V251" stroke="#B27C40"/>
<path d="M172 238.5H201" stroke="#B27C40"/>
<path d="M126 238V231H119V238H126Z" stroke="#B27C40"/>
<path d="M15 187V194H18.5V187" stroke="#B27C40"/>
<path d="M37 121.5H33.5V129H47.5V121.5H44M37 121.5V118H44V121.5M37 121.5H44" stroke="#B27C40"/>
<path d="M18.5 275H26M18.5 267.5H40.5V275H29.5M26 275H29.5M26 275V278.5M18.5 282H26V278.5M29.5 275V278.5H26M69.5 309.5V301.5H77V309.5M80 252.5V260H87V252.5" stroke="#B27C40"/>
<path d="M149.5 238.5V234H191.5" stroke="#B27C40"/>
<path d="M245 213L236 206" stroke="#B27C40"/>
<path d="M248 207V182H256V207.188" stroke="#B27C40"/>
<path d="M259 207H263V231" stroke="#B27C40"/>
<path d="M288.5 274.5V267.5M288.5 260V267.5M288.5 267.5H292.5V260M319.5 222.5V215H327V222.5H319.5Z" stroke="#B27C40"/>
<path d="M338 292H331V285H338M278.5 362C278.5 362.4 278.5 369.167 278.5 372.5H266V362H278.5Z" stroke="#B27C40"/>
<path d="M203 27.5H233V18M203 42.5H206V52H203M255 18V27.5H292M292 52H288.5V42.5H292M324 141.5H337V120M365 147H357.5V139.5H365M337 189V187.5H336V157.5H337V156H334.5V189H337ZM337 189H343.5M414 310V335.5M414 335.5H412M414 335.5H416M416.5 310V335.5H416M416 335.5C416 335.9 416 339.667 416 341.5M416 341.5H419M416 341.5H412M431 211L439.5 225.5L446 221.5L437.5 207L431 211ZM378 328V312H385V319H399.5V328H378Z" stroke="#B27C40"/>
<path d="M350.5 402.5H343V398.5M350.5 398H346.75M346.75 398H343V398.5M346.75 398V394.5H350.5M343.5 397.5H306.5V398.5H343" stroke="#B27C40"/>
<path d="M413.5 308H428.5V292.353H413.5V308Z" fill="#F08234" fill-opacity="0.23"/>
<path d="M413.5 341H415.5V336H413.5V341Z" fill="#F08234" fill-opacity="0.23"/>
<path d="M412 343.5V342H413.5V292.35H371V352.5H403L412 343.5ZM377.5 311.5H385.5V318.5H400V328.5H377.5V311.5Z" fill="#F08234" fill-opacity="0.23"/>
<path d="M400.316 313H398.77L401.586 305H403.375L406.195 313H404.648L402.512 306.641H402.449L400.316 313ZM400.367 309.863H404.586V311.027H400.367V309.863Z" fill="white"/>
<path d="M69 301H77.5V309H105.5V287H95V277H105.5V253H87.5V260.5H79.5V253H62V309H69V301Z" fill="#F08234" fill-opacity="0.23"/>
<path d="M80.2891 285V277H83.3516C83.9297 277 84.4102 277.091 84.793 277.273C85.1784 277.453 85.4661 277.699 85.6563 278.012C85.849 278.324 85.9453 278.678 85.9453 279.074C85.9453 279.4 85.8828 279.678 85.7578 279.91C85.6328 280.139 85.4648 280.326 85.2539 280.469C85.043 280.612 84.8073 280.715 84.5469 280.777V280.855C84.8307 280.871 85.1029 280.958 85.3633 281.117C85.6263 281.273 85.8411 281.495 86.0078 281.781C86.1745 282.068 86.2578 282.414 86.2578 282.82C86.2578 283.234 86.1576 283.607 85.957 283.937C85.7565 284.266 85.4544 284.525 85.0508 284.715C84.6471 284.905 84.1393 285 83.5273 285H80.2891ZM81.7383 283.789H83.2969C83.8229 283.789 84.2018 283.689 84.4336 283.488C84.668 283.285 84.7852 283.025 84.7852 282.707C84.7852 282.47 84.7266 282.257 84.6094 282.066C84.4922 281.874 84.3255 281.723 84.1094 281.613C83.8932 281.501 83.6354 281.445 83.3359 281.445H81.7383V283.789ZM81.7383 280.402H83.1719C83.4219 280.402 83.6471 280.357 83.8477 280.266C84.0482 280.172 84.2057 280.04 84.3203 279.871C84.4375 279.699 84.4961 279.496 84.4961 279.262C84.4961 278.952 84.3867 278.697 84.168 278.496C83.9518 278.296 83.6302 278.195 83.2031 278.195H81.7383V280.402Z" fill="white"/>
<path d="M122.5 291H141.5M122.5 309C122.9 309 135.333 309 141.5 309M103 278.5V285.5H96.5V278.5H103Z" stroke="#B27C40" stroke-opacity="0.23"/>
</svg>
