<svg width="470" height="473" viewBox="0 0 470 473" fill="none" xmlns="http://www.w3.org/2000/svg">
<path fill-rule="evenodd" clip-rule="evenodd" d="M108.733 69.0845V118.652H85.6892V103.984H16.6794V140.906H19.2083V188.956H1V202.106L19.2083 220.315V312.368H50.5671V315.909H42.9803V342.209H120.872V312.368H124.412V363.453H147.172L193.199 379.132H240.743V427.182C240.743 442.545 253.198 455 268.561 455C283.925 455 296.38 442.545 296.38 427.182V421.618H380.846L442.046 360.418V313.38H419.286V311.862H434.459V274.434H401.078V252.685H408.664V263.813H443.058L468.853 238.017V215.257L441.54 176.817H406.641V184.404H395.514V176.817H369.719V120.675L329.256 80.2118H295.874V18H205.844V57.9572L194.716 69.0845H108.733ZM365.167 373.062L360.615 368.51L372.248 356.877H408.664V364.464H396.02L373.765 386.719V397.34L366.684 406.95H355.051V383.178L365.167 373.062ZM284.747 139.389V154.057H299.92V195.531H284.747V213.234H288.793V208.176H351.51V231.442L342.406 240.546V295.171H375.282V274.434H379.834V252.685H368.707V238.017L421.815 219.303V212.222L384.387 202.612H328.244V113.594L324.704 106.007H319.14V139.389H284.747ZM285.252 289.102V277.469H310.036V326.53H323.186L341.9 317.426H368.201V338.669H363.649L352.522 349.796L357.58 354.854L352.522 359.912L347.464 355.36L336.843 365.981V384.696H333.808L329.762 382.672H296.118V392.024H292.333V353.337H276.654V349.291L278.677 341.704V318.438L285.252 304.275V289.102ZM205.844 79.2002L215.454 69.5903L226.075 79.706V113.088H298.909L302.449 106.007H308.013V117.134H263.503V139.389H264.515V142.929H238.214L217.983 163.161H201.797V132.814H211.407V84.2581L205.844 79.2002ZM218.488 253.697V273.928H224.052L255.917 288.596H268.337V296.183H270.079V262.801H318.128V255.214H310.338V233.465H262.492V209.188H248.33V253.697H218.488ZM143.632 348.785H147.678V312.368H143.632V348.785ZM63.7176 327.542V312.874H106.709V327.542H63.7176ZM120.872 275.446V241.052H174.485V253.697H207.361V304.275L254.905 318.438L266.032 353.337V362.441H282.218V365.981H269.573V391.973H265.527V364.464H261.986V353.337H229.616V329.565H188.141V338.669H171.45V294.16H143.632V264.824H124.412V275.446H120.872ZM67.2581 203.624H63.7176V140.906H155.771V90.8333H172.462V183.392H204.832L212.925 176.093H214.948V212.728H231.639L238.214 218.797C238.512 220.339 238.051 220.673 236.697 220.821H230.627V222.338H181.566V207.164H166.392H151.725L136.045 218.292H99.6285V246.11H106.709V255.214H76.3623H63.7176V231.948V227.902H67.2581V203.624ZM36.9109 207.164H46.015V189.462H36.9109V207.164ZM141.609 121.686C141.609 119.172 139.571 117.134 137.057 117.134C134.543 117.134 132.505 119.172 132.505 121.686C132.505 124.2 134.543 126.238 137.057 126.238C139.571 126.238 141.609 124.2 141.609 121.686Z" fill="#271406"/>
<path d="M108.733 118.652H109.233V119.152H108.733V118.652ZM108.733 69.0845H108.233V68.5845H108.733V69.0845ZM85.6892 118.652V119.152H85.1892V118.652H85.6892ZM85.6892 103.984V103.484H86.1892V103.984H85.6892ZM16.6794 103.984H16.1794V103.484H16.6794V103.984ZM16.6794 140.906V141.406H16.1794V140.906H16.6794ZM19.2083 140.906V140.406H19.7083V140.906H19.2083ZM19.2083 188.956H19.7083V189.456H19.2083V188.956ZM1 188.956H0.5V188.456H1V188.956ZM1 202.106L0.646447 202.46L0.5 202.314V202.106H1ZM19.2083 220.315L19.5619 219.961L19.7083 220.108V220.315H19.2083ZM19.2083 312.368V312.868H18.7083V312.368H19.2083ZM50.5671 312.368V311.868H51.0671V312.368H50.5671ZM50.5671 315.909H51.0671V316.409H50.5671V315.909ZM42.9803 315.909H42.4803V315.409H42.9803V315.909ZM42.9803 342.209V342.709H42.4803V342.209H42.9803ZM120.872 342.209H121.372V342.709H120.872V342.209ZM120.872 312.368H120.372V311.868H120.872V312.368ZM124.412 312.368V311.868H124.912V312.368H124.412ZM124.412 363.453V363.953H123.912V363.453H124.412ZM147.172 363.453V362.953H147.255L147.334 362.979L147.172 363.453ZM193.199 379.132V379.632H193.116L193.038 379.605L193.199 379.132ZM240.743 379.132V378.632H241.243V379.132H240.743ZM296.38 421.618H295.88V421.118H296.38V421.618ZM380.846 421.618L381.2 421.972L381.053 422.118H380.846V421.618ZM442.046 360.418H442.546V360.625L442.4 360.771L442.046 360.418ZM442.046 313.38V312.88H442.546V313.38H442.046ZM419.286 313.38V313.88H418.786V313.38H419.286ZM419.286 311.862H418.786V311.362H419.286V311.862ZM434.459 311.862H434.959V312.362H434.459V311.862ZM434.459 274.434V273.934H434.959V274.434H434.459ZM401.078 274.434V274.934H400.578V274.434H401.078ZM401.078 252.685H400.578V252.185H401.078V252.685ZM408.664 252.685V252.185H409.164V252.685H408.664ZM408.664 263.813V264.313H408.164V263.813H408.664ZM443.058 263.813L443.411 264.166L443.265 264.313H443.058V263.813ZM468.853 238.017H469.353V238.224L469.207 238.371L468.853 238.017ZM468.853 215.257L469.261 214.967L469.353 215.097V215.257H468.853ZM441.54 176.817V176.317H441.799L441.948 176.528L441.54 176.817ZM406.641 176.817H406.141V176.317H406.641V176.817ZM406.641 184.404H407.141V184.904H406.641V184.404ZM395.514 184.404V184.904H395.014V184.404H395.514ZM395.514 176.817V176.317H396.014V176.817H395.514ZM369.719 176.817V177.317H369.219V176.817H369.719ZM369.719 120.675L370.072 120.321L370.219 120.468V120.675H369.719ZM329.256 80.2118V79.7118H329.463L329.609 79.8583L329.256 80.2118ZM295.874 80.2118V80.7118H295.374V80.2118H295.874ZM295.874 18V17.5H296.374V18H295.874ZM205.844 18H205.344V17.5H205.844V18ZM205.844 57.9572H206.344V58.1643L206.197 58.3107L205.844 57.9572ZM194.716 69.0845L195.07 69.4381L194.924 69.5845H194.716V69.0845ZM360.615 368.51L360.261 368.864L359.907 368.51L360.261 368.157L360.615 368.51ZM365.167 373.062L365.52 372.709L365.874 373.063L365.52 373.416L365.167 373.062ZM372.248 356.877L371.894 356.524L372.041 356.377H372.248V356.877ZM408.664 356.877V356.377H409.164V356.877H408.664ZM408.664 364.464H409.164V364.964H408.664V364.464ZM396.02 364.464L395.666 364.111L395.813 363.964H396.02V364.464ZM373.765 386.719H373.265V386.512L373.411 386.365L373.765 386.719ZM373.765 397.34H374.265V397.505L374.168 397.637L373.765 397.34ZM366.684 406.95L367.087 407.247L366.937 407.45H366.684V406.95ZM355.051 406.95V407.45H354.551V406.95H355.051ZM355.051 383.178H354.551V382.971L354.697 382.825L355.051 383.178ZM284.747 154.057V154.557H284.247V154.057H284.747ZM284.747 139.389H284.247V138.889H284.747V139.389ZM299.92 154.057V153.557H300.42V154.057H299.92ZM299.92 195.531H300.42V196.031H299.92V195.531ZM284.747 195.531H284.247V195.031H284.747V195.531ZM284.747 213.234V213.734H284.247V213.234H284.747ZM288.793 213.234H289.293V213.734H288.793V213.234ZM288.793 208.176H288.293V207.676H288.793V208.176ZM351.51 208.176V207.676H352.01V208.176H351.51ZM351.51 231.442H352.01V231.649L351.864 231.796L351.51 231.442ZM342.406 240.546H341.906V240.339L342.053 240.193L342.406 240.546ZM342.406 295.171V295.671H341.906V295.171H342.406ZM375.282 295.171H375.782V295.671H375.282V295.171ZM375.282 274.434H374.782V273.934H375.282V274.434ZM379.834 274.434H380.334V274.934H379.834V274.434ZM379.834 252.685V252.185H380.334V252.685H379.834ZM368.707 252.685V253.185H368.207V252.685H368.707ZM368.707 238.017H368.207V237.663L368.541 237.546L368.707 238.017ZM421.815 219.303H422.315V219.657L421.981 219.775L421.815 219.303ZM421.815 212.222L421.939 211.738L422.315 211.834V212.222H421.815ZM384.387 202.612V202.112H384.45L384.511 202.128L384.387 202.612ZM328.244 202.612V203.112H327.744V202.612H328.244ZM328.244 113.594L328.697 113.382L328.744 113.483V113.594H328.244ZM324.704 106.007V105.507H325.022L325.157 105.796L324.704 106.007ZM319.14 106.007H318.64V105.507H319.14V106.007ZM319.14 139.389H319.64V139.889H319.14V139.389ZM285.252 277.469H284.752V276.969H285.252V277.469ZM310.036 277.469V276.969H310.536V277.469H310.036ZM310.036 326.53V327.03H309.536V326.53H310.036ZM323.186 326.53L323.405 326.98L323.302 327.03H323.186V326.53ZM341.9 317.426L341.682 316.976L341.785 316.926H341.9V317.426ZM368.201 317.426V316.926H368.701V317.426H368.201ZM368.201 338.669H368.701V339.169H368.201V338.669ZM363.649 338.669L363.296 338.315L363.442 338.169H363.649V338.669ZM352.522 349.796L352.168 350.15L351.815 349.796L352.168 349.443L352.522 349.796ZM357.58 354.854L357.933 354.501L358.287 354.854L357.933 355.208L357.58 354.854ZM352.522 359.912L352.876 360.266L352.54 360.601L352.187 360.284L352.522 359.912ZM347.464 355.36L347.111 355.006L347.446 354.671L347.799 354.988L347.464 355.36ZM336.843 365.981H336.343V365.774L336.489 365.628L336.843 365.981ZM336.843 384.696H337.343V385.196H336.843V384.696ZM333.808 384.696V385.196H333.69L333.584 385.143L333.808 384.696ZM329.762 382.672V382.172H329.88L329.985 382.225L329.762 382.672ZM296.118 382.672H295.618V382.172H296.118V382.672ZM296.118 392.024H296.618V392.524H296.118V392.024ZM292.333 392.024V392.524H291.833V392.024H292.333ZM292.333 353.337V352.837H292.833V353.337H292.333ZM276.654 353.337V353.837H276.154V353.337H276.654ZM276.654 349.291H276.154V349.225L276.171 349.162L276.654 349.291ZM278.677 341.704H279.177V341.769L279.16 341.833L278.677 341.704ZM278.677 318.438H278.177V318.327L278.224 318.227L278.677 318.438ZM285.252 304.275H285.752V304.386L285.706 304.486L285.252 304.275ZM215.454 69.5903L215.1 69.2367L215.445 68.8917L215.799 69.2282L215.454 69.5903ZM205.844 79.2002L205.507 79.5702L205.119 79.2175L205.49 78.8467L205.844 79.2002ZM226.075 79.706L226.42 79.344L226.575 79.4917V79.706H226.075ZM226.075 113.088V113.588H225.575V113.088H226.075ZM298.909 113.088L299.356 113.312L299.218 113.588H298.909V113.088ZM302.449 106.007L302.002 105.783L302.14 105.507H302.449V106.007ZM308.013 106.007V105.507H308.513V106.007H308.013ZM308.013 117.134H308.513V117.634H308.013V117.134ZM263.503 117.134H263.003V116.634H263.503V117.134ZM263.503 139.389V139.889H263.003V139.389H263.503ZM264.515 139.389V138.889H265.015V139.389H264.515ZM264.515 142.929H265.015V143.429H264.515V142.929ZM238.214 142.929L237.861 142.576L238.007 142.429H238.214V142.929ZM217.983 163.161L218.336 163.514L218.19 163.661H217.983V163.161ZM201.797 163.161V163.661H201.297V163.161H201.797ZM201.797 132.814H201.297V132.314H201.797V132.814ZM211.407 132.814H211.907V133.314H211.407V132.814ZM211.407 84.2581L211.744 83.8881L211.907 84.0369V84.2581H211.407ZM218.488 273.928V274.428H217.988V273.928H218.488ZM218.488 253.697H217.988V253.197H218.488V253.697ZM224.052 273.928V273.428H224.162L224.261 273.474L224.052 273.928ZM255.917 288.596V289.096H255.807L255.708 289.05L255.917 288.596ZM268.337 288.596V288.096H268.837V288.596H268.337ZM268.337 296.183V296.683H267.837V296.183H268.337ZM270.079 296.183H270.579V296.683H270.079V296.183ZM270.079 262.801H269.579V262.301H270.079V262.801ZM318.128 262.801H318.628V263.301H318.128V262.801ZM318.128 255.214V254.714H318.628V255.214H318.128ZM310.338 255.214V255.714H309.838V255.214H310.338ZM310.338 233.465V232.965H310.838V233.465H310.338ZM262.492 233.465V233.965H261.992V233.465H262.492ZM262.492 209.188V208.688H262.992V209.188H262.492ZM248.33 209.188H247.83V208.688H248.33V209.188ZM248.33 253.697H248.83V254.197H248.33V253.697ZM147.678 348.785H148.178V349.285H147.678V348.785ZM143.632 348.785V349.285H143.132V348.785H143.632ZM147.678 312.368V311.868H148.178V312.368H147.678ZM143.632 312.368H143.132V311.868H143.632V312.368ZM63.7176 312.874H63.2176V312.374H63.7176V312.874ZM63.7176 327.542V328.042H63.2176V327.542H63.7176ZM106.709 312.874V312.374H107.209V312.874H106.709ZM106.709 327.542H107.209V328.042H106.709V327.542ZM120.872 241.052H120.372V240.552H120.872V241.052ZM120.872 275.446V275.946H120.372V275.446H120.872ZM174.485 241.052V240.552H174.985V241.052H174.485ZM174.485 253.697V254.197H173.985V253.697H174.485ZM207.361 253.697V253.197H207.861V253.697H207.361ZM207.361 304.275L207.218 304.755L206.861 304.648V304.275H207.361ZM254.905 318.438L255.048 317.958L255.301 318.034L255.381 318.286L254.905 318.438ZM266.032 353.337L266.509 353.185L266.532 353.259V353.337H266.032ZM266.032 362.441V362.941H265.532V362.441H266.032ZM282.218 362.441V361.941H282.718V362.441H282.218ZM282.218 365.981H282.718V366.481H282.218V365.981ZM269.573 365.981H269.073V365.481H269.573V365.981ZM269.573 391.973H270.073V392.473H269.573V391.973ZM265.527 391.973V392.473H265.027V391.973H265.527ZM265.527 364.464V363.964H266.027V364.464H265.527ZM261.986 364.464V364.964H261.486V364.464H261.986ZM261.986 353.337V352.837H262.486V353.337H261.986ZM229.616 353.337V353.837H229.116V353.337H229.616ZM229.616 329.565V329.065H230.116V329.565H229.616ZM188.141 329.565H187.641V329.065H188.141V329.565ZM188.141 338.669H188.641V339.169H188.141V338.669ZM171.45 338.669V339.169H170.95V338.669H171.45ZM171.45 294.16V293.66H171.95V294.16H171.45ZM143.632 294.16V294.66H143.132V294.16H143.632ZM143.632 264.824V264.324H144.132V264.824H143.632ZM124.412 264.824H123.912V264.324H124.412V264.824ZM124.412 275.446H124.912V275.946H124.412V275.446ZM63.7176 203.624V204.124H63.2176V203.624H63.7176ZM67.2581 203.624V203.124H67.7581V203.624H67.2581ZM63.7176 140.906H63.2176V140.406H63.7176V140.906ZM155.771 140.906H156.271V141.406H155.771V140.906ZM155.771 90.8333H155.271V90.3333H155.771V90.8333ZM172.462 90.8333V90.3333H172.962V90.8333H172.462ZM172.462 183.392V183.892H171.962V183.392H172.462ZM204.832 183.392L205.167 183.764L205.024 183.892H204.832V183.392ZM212.925 176.093L212.59 175.722L212.733 175.593H212.925V176.093ZM214.948 176.093V175.593H215.448V176.093H214.948ZM214.948 212.728V213.228H214.448V212.728H214.948ZM231.639 212.728V212.228H231.834L231.978 212.361L231.639 212.728ZM238.214 218.797L238.553 218.43L238.674 218.541L238.705 218.703L238.214 218.797ZM236.697 220.821L236.751 221.318L236.724 221.321H236.697V220.821ZM230.627 220.821H230.127V220.321H230.627V220.821ZM230.627 222.338H231.127V222.838H230.627V222.338ZM181.566 222.338V222.838H181.066V222.338H181.566ZM181.566 207.164V206.664H182.066V207.164H181.566ZM151.725 207.164L151.435 206.757L151.565 206.664H151.725V207.164ZM136.045 218.292L136.335 218.699L136.205 218.792H136.045V218.292ZM99.6285 218.292H99.1285V217.792H99.6285V218.292ZM99.6285 246.11V246.61H99.1285V246.11H99.6285ZM106.709 246.11V245.61H107.209V246.11H106.709ZM106.709 255.214H107.209V255.714H106.709V255.214ZM63.7176 255.214V255.714H63.2176V255.214H63.7176ZM63.7176 227.902H63.2176V227.402H63.7176V227.902ZM67.2581 227.902H67.7581V228.402H67.2581V227.902ZM46.015 207.164H46.515V207.664H46.015V207.164ZM36.9109 207.164V207.664H36.4109V207.164H36.9109ZM46.015 189.462V188.962H46.515V189.462H46.015ZM36.9109 189.462H36.4109V188.962H36.9109V189.462ZM108.733 118.652H108.233V69.0845H108.733H109.233V118.652H108.733ZM85.6892 118.652V118.152H108.733V118.652V119.152H85.6892V118.652ZM85.6892 103.984H86.1892V118.652H85.6892H85.1892V103.984H85.6892ZM16.6794 103.984V103.484H85.6892V103.984V104.484H16.6794V103.984ZM16.6794 140.906H16.1794V103.984H16.6794H17.1794V140.906H16.6794ZM19.2083 140.906V141.406H16.6794V140.906V140.406H19.2083V140.906ZM19.2083 188.956H18.7083V140.906H19.2083H19.7083V188.956H19.2083ZM1 188.956V188.456H19.2083V188.956V189.456H1V188.956ZM1 202.106H0.5V188.956H1H1.5V202.106H1ZM19.2083 220.315L18.8548 220.668L0.646447 202.46L1 202.106L1.35355 201.753L19.5619 219.961L19.2083 220.315ZM19.2083 312.368H18.7083V220.315H19.2083H19.7083V312.368H19.2083ZM50.5671 312.368V312.868H19.2083V312.368V311.868H50.5671V312.368ZM50.5671 315.909H50.0671V312.368H50.5671H51.0671V315.909H50.5671ZM42.9803 315.909V315.409H50.5671V315.909V316.409H42.9803V315.909ZM42.9803 342.209H42.4803V315.909H42.9803H43.4803V342.209H42.9803ZM120.872 342.209V342.709H42.9803V342.209V341.709H120.872V342.209ZM120.872 312.368H121.372V342.209H120.872H120.372V312.368H120.872ZM124.412 312.368V312.868H120.872V312.368V311.868H124.412V312.368ZM124.412 363.453H123.912V312.368H124.412H124.912V363.453H124.412ZM147.172 363.453V363.953H124.412V363.453V362.953H147.172V363.453ZM193.199 379.132L193.038 379.605L147.011 363.926L147.172 363.453L147.334 362.979L193.36 378.659L193.199 379.132ZM240.743 379.132V379.632H193.199V379.132V378.632H240.743V379.132ZM240.743 427.182H240.243V379.132H240.743H241.243V427.182H240.743ZM268.561 455V455.5C252.922 455.5 240.243 442.821 240.243 427.182H240.743H241.243C241.243 442.269 253.474 454.5 268.561 454.5V455ZM296.38 427.182H296.88C296.88 442.821 284.201 455.5 268.561 455.5V455V454.5C283.649 454.5 295.88 442.269 295.88 427.182H296.38ZM296.38 421.618H296.88V427.182H296.38H295.88V421.618H296.38ZM380.846 421.618V422.118H296.38V421.618V421.118H380.846V421.618ZM442.046 360.418L442.4 360.771L381.2 421.972L380.846 421.618L380.492 421.265L441.693 360.064L442.046 360.418ZM442.046 313.38H442.546V360.418H442.046H441.546V313.38H442.046ZM419.286 313.38V312.88H442.046V313.38V313.88H419.286V313.38ZM419.286 311.862H419.786V313.38H419.286H418.786V311.862H419.286ZM434.459 311.862V312.362H419.286V311.862V311.362H434.459V311.862ZM434.459 274.434H434.959V311.862H434.459H433.959V274.434H434.459ZM401.078 274.434V273.934H434.459V274.434V274.934H401.078V274.434ZM401.078 252.685H401.578V274.434H401.078H400.578V252.685H401.078ZM408.664 252.685V253.185H401.078V252.685V252.185H408.664V252.685ZM408.664 263.813H408.164V252.685H408.664H409.164V263.813H408.664ZM443.058 263.813V264.313H408.664V263.813V263.313H443.058V263.813ZM468.853 238.017L469.207 238.371L443.411 264.166L443.058 263.813L442.704 263.459L468.499 237.664L468.853 238.017ZM468.853 215.257H469.353V238.017H468.853H468.353V215.257H468.853ZM441.54 176.817L441.948 176.528L469.261 214.967L468.853 215.257L468.445 215.547L441.133 177.107L441.54 176.817ZM406.641 176.817V176.317H441.54V176.817V177.317H406.641V176.817ZM406.641 184.404H406.141V176.817H406.641H407.141V184.404H406.641ZM395.514 184.404V183.904H406.641V184.404V184.904H395.514V184.404ZM395.514 176.817H396.014V184.404H395.514H395.014V176.817H395.514ZM369.719 176.817V176.317H395.514V176.817V177.317H369.719V176.817ZM369.719 120.675H370.219V176.817H369.719H369.219V120.675H369.719ZM329.256 80.2118L329.609 79.8583L370.072 120.321L369.719 120.675L369.365 121.028L328.902 80.5654L329.256 80.2118ZM295.874 80.2118V79.7118H329.256V80.2118V80.7118H295.874V80.2118ZM295.874 18H296.374V80.2118H295.874H295.374V18H295.874ZM205.844 18V17.5H295.874V18V18.5H205.844V18ZM205.844 57.9572H205.344V18H205.844H206.344V57.9572H205.844ZM194.716 69.0845L194.363 68.731L205.49 57.6036L205.844 57.9572L206.197 58.3107L195.07 69.4381L194.716 69.0845ZM108.733 69.0845V68.5845H194.716V69.0845V69.5845H108.733V69.0845ZM360.615 368.51L360.968 368.157L365.52 372.709L365.167 373.062L364.813 373.416L360.261 368.864L360.615 368.51ZM372.248 356.877L372.601 357.231L360.968 368.864L360.615 368.51L360.261 368.157L371.894 356.524L372.248 356.877ZM408.664 356.877V357.377H372.248V356.877V356.377H408.664V356.877ZM408.664 364.464H408.164V356.877H408.664H409.164V364.464H408.664ZM396.02 364.464V363.964H408.664V364.464V364.964H396.02V364.464ZM373.765 386.719L373.411 386.365L395.666 364.111L396.02 364.464L396.373 364.818L374.119 387.072L373.765 386.719ZM373.765 397.34H373.265V386.719H373.765H374.265V397.34H373.765ZM366.684 406.95L366.281 406.654L373.363 397.044L373.765 397.34L374.168 397.637L367.087 407.247L366.684 406.95ZM355.051 406.95V406.45H366.684V406.95V407.45H355.051V406.95ZM355.051 383.178H355.551V406.95H355.051H354.551V383.178H355.051ZM365.167 373.062L365.52 373.416L355.404 383.532L355.051 383.178L354.697 382.825L364.813 372.709L365.167 373.062ZM284.747 154.057H284.247V139.389H284.747H285.247V154.057H284.747ZM299.92 154.057V154.557H284.747V154.057V153.557H299.92V154.057ZM299.92 195.531H299.42V154.057H299.92H300.42V195.531H299.92ZM284.747 195.531V195.031H299.92V195.531V196.031H284.747V195.531ZM284.747 213.234H284.247V195.531H284.747H285.247V213.234H284.747ZM288.793 213.234V213.734H284.747V213.234V212.734H288.793V213.234ZM288.793 208.176H289.293V213.234H288.793H288.293V208.176H288.793ZM351.51 208.176V208.676H288.793V208.176V207.676H351.51V208.176ZM351.51 231.442H351.01V208.176H351.51H352.01V231.442H351.51ZM342.406 240.546L342.053 240.193L351.157 231.089L351.51 231.442L351.864 231.796L342.76 240.9L342.406 240.546ZM342.406 295.171H341.906V240.546H342.406H342.906V295.171H342.406ZM375.282 295.171V295.671H342.406V295.171V294.671H375.282V295.171ZM375.282 274.434H375.782V295.171H375.282H374.782V274.434H375.282ZM379.834 274.434V274.934H375.282V274.434V273.934H379.834V274.434ZM379.834 252.685H380.334V274.434H379.834H379.334V252.685H379.834ZM368.707 252.685V252.185H379.834V252.685V253.185H368.707V252.685ZM368.707 238.017H369.207V252.685H368.707H368.207V238.017H368.707ZM421.815 219.303L421.981 219.775L368.873 238.489L368.707 238.017L368.541 237.546L421.649 218.832L421.815 219.303ZM421.815 212.222H422.315V219.303H421.815H421.315V212.222H421.815ZM384.387 202.612L384.511 202.128L421.939 211.738L421.815 212.222L421.69 212.707L384.262 203.097L384.387 202.612ZM328.244 202.612V202.112H384.387V202.612V203.112H328.244V202.612ZM328.244 113.594H328.744V202.612H328.244H327.744V113.594H328.244ZM324.704 106.007L325.157 105.796L328.697 113.382L328.244 113.594L327.791 113.805L324.251 106.218L324.704 106.007ZM319.14 106.007V105.507H324.704V106.007V106.507H319.14V106.007ZM319.14 139.389H318.64V106.007H319.14H319.64V139.389H319.14ZM284.747 139.389V138.889H319.14V139.389V139.889H284.747V139.389ZM285.252 277.469H285.752V289.102H285.252H284.752V277.469H285.252ZM310.036 277.469V277.969H285.252V277.469V276.969H310.036V277.469ZM310.036 326.53H309.536V277.469H310.036H310.536V326.53H310.036ZM323.186 326.53V327.03H310.036V326.53V326.03H323.186V326.53ZM341.9 317.426L342.119 317.876L323.405 326.98L323.186 326.53L322.968 326.08L341.682 316.976L341.9 317.426ZM368.201 317.426V317.926H341.9V317.426V316.926H368.201V317.426ZM368.201 338.669H367.701V317.426H368.201H368.701V338.669H368.201ZM363.649 338.669V338.169H368.201V338.669V339.169H363.649V338.669ZM352.522 349.796L352.168 349.443L363.296 338.315L363.649 338.669L364.003 339.023L352.876 350.15L352.522 349.796ZM357.58 354.854L357.226 355.208L352.168 350.15L352.522 349.796L352.876 349.443L357.933 354.501L357.58 354.854ZM352.522 359.912L352.168 359.558L357.226 354.501L357.58 354.854L357.933 355.208L352.876 360.266L352.522 359.912ZM347.464 355.36L347.799 354.988L352.856 359.54L352.522 359.912L352.187 360.284L347.13 355.732L347.464 355.36ZM336.843 365.981L336.489 365.628L347.111 355.006L347.464 355.36L347.818 355.714L337.196 366.335L336.843 365.981ZM336.843 384.696H336.343V365.981H336.843H337.343V384.696H336.843ZM333.808 384.696V384.196H336.843V384.696V385.196H333.808V384.696ZM329.762 382.672L329.985 382.225L334.031 384.248L333.808 384.696L333.584 385.143L329.538 383.12L329.762 382.672ZM296.118 382.672V382.172H329.762V382.672V383.172H296.118V382.672ZM296.118 392.024H295.618V382.672H296.118H296.618V392.024H296.118ZM292.333 392.024V391.524H296.118V392.024V392.524H292.333V392.024ZM292.333 353.337H292.833V392.024H292.333H291.833V353.337H292.333ZM276.654 353.337V352.837H292.333V353.337V353.837H276.654V353.337ZM276.654 349.291H277.154V353.337H276.654H276.154V349.291H276.654ZM278.677 341.704L279.16 341.833L277.137 349.419L276.654 349.291L276.171 349.162L278.194 341.575L278.677 341.704ZM278.677 318.438H279.177V341.704H278.677H278.177V318.438H278.677ZM285.252 304.275L285.706 304.486L279.131 318.648L278.677 318.438L278.224 318.227L284.799 304.065L285.252 304.275ZM285.252 289.102H285.752V304.275H285.252H284.752V289.102H285.252ZM215.454 69.5903L215.807 69.9438L206.197 79.5538L205.844 79.2002L205.49 78.8467L215.1 69.2367L215.454 69.5903ZM226.075 79.706L225.73 80.0681L215.109 69.9523L215.454 69.5903L215.799 69.2282L226.42 79.344L226.075 79.706ZM226.075 113.088H225.575V79.706H226.075H226.575V113.088H226.075ZM298.909 113.088V113.588H226.075V113.088V112.588H298.909V113.088ZM302.449 106.007L302.896 106.231L299.356 113.312L298.909 113.088L298.461 112.864L302.002 105.783L302.449 106.007ZM308.013 106.007V106.507H302.449V106.007V105.507H308.013V106.007ZM308.013 117.134H307.513V106.007H308.013H308.513V117.134H308.013ZM263.503 117.134V116.634H308.013V117.134V117.634H263.503V117.134ZM263.503 139.389H263.003V117.134H263.503H264.003V139.389H263.503ZM264.515 139.389V139.889H263.503V139.389V138.889H264.515V139.389ZM264.515 142.929H264.015V139.389H264.515H265.015V142.929H264.515ZM238.214 142.929V142.429H264.515V142.929V143.429H238.214V142.929ZM217.983 163.161L217.629 162.807L237.861 142.576L238.214 142.929L238.568 143.283L218.336 163.514L217.983 163.161ZM201.797 163.161V162.661H217.983V163.161V163.661H201.797V163.161ZM201.797 132.814H202.297V163.161H201.797H201.297V132.814H201.797ZM211.407 132.814V133.314H201.797V132.814V132.314H211.407V132.814ZM211.407 84.2581H211.907V132.814H211.407H210.907V84.2581H211.407ZM205.844 79.2002L206.18 78.8303L211.744 83.8881L211.407 84.2581L211.071 84.6281L205.507 79.5702L205.844 79.2002ZM218.488 273.928H217.988V253.697H218.488H218.988V273.928H218.488ZM224.052 273.928V274.428H218.488V273.928V273.428H224.052V273.928ZM255.917 288.596L255.708 289.05L223.843 274.382L224.052 273.928L224.261 273.474L256.126 288.142L255.917 288.596ZM268.337 288.596V289.096H255.917V288.596V288.096H268.337V288.596ZM268.337 296.183H267.837V288.596H268.337H268.837V296.183H268.337ZM270.079 296.183V296.683H268.337V296.183V295.683H270.079V296.183ZM270.079 262.801H270.579V296.183H270.079H269.579V262.801H270.079ZM318.128 262.801V263.301H270.079V262.801V262.301H318.128V262.801ZM318.128 255.214H318.628V262.801H318.128H317.628V255.214H318.128ZM310.338 255.214V254.714H318.128V255.214V255.714H310.338V255.214ZM310.338 233.465H310.838V255.214H310.338H309.838V233.465H310.338ZM262.492 233.465V232.965H310.338V233.465V233.965H262.492V233.465ZM262.492 209.188H262.992V233.465H262.492H261.992V209.188H262.492ZM248.33 209.188V208.688H262.492V209.188V209.688H248.33V209.188ZM248.33 253.697H247.83V209.188H248.33H248.83V253.697H248.33ZM218.488 253.697V253.197H248.33V253.697V254.197H218.488V253.697ZM147.678 348.785V349.285H143.632V348.785V348.285H147.678V348.785ZM147.678 312.368H148.178V348.785H147.678H147.178V312.368H147.678ZM143.632 312.368V311.868H147.678V312.368V312.868H143.632V312.368ZM143.632 348.785H143.132V312.368H143.632H144.132V348.785H143.632ZM63.7176 312.874H64.2176V327.542H63.7176H63.2176V312.874H63.7176ZM106.709 312.874V313.374H63.7176V312.874V312.374H106.709V312.874ZM106.709 327.542H106.209V312.874H106.709H107.209V327.542H106.709ZM63.7176 327.542V327.042H106.709V327.542V328.042H63.7176V327.542ZM120.872 241.052H121.372V275.446H120.872H120.372V241.052H120.872ZM174.485 241.052V241.552H120.872V241.052V240.552H174.485V241.052ZM174.485 253.697H173.985V241.052H174.485H174.985V253.697H174.485ZM207.361 253.697V254.197H174.485V253.697V253.197H207.361V253.697ZM207.361 304.275H206.861V253.697H207.361H207.861V304.275H207.361ZM254.905 318.438L254.762 318.917L207.218 304.755L207.361 304.275L207.504 303.796L255.048 317.958L254.905 318.438ZM266.032 353.337L265.556 353.489L254.429 318.589L254.905 318.438L255.381 318.286L266.509 353.185L266.032 353.337ZM266.032 362.441H265.532V353.337H266.032H266.532V362.441H266.032ZM282.218 362.441V362.941H266.032V362.441V361.941H282.218V362.441ZM282.218 365.981H281.718V362.441H282.218H282.718V365.981H282.218ZM269.573 365.981V365.481H282.218V365.981V366.481H269.573V365.981ZM269.573 391.973H269.073V365.981H269.573H270.073V391.973H269.573ZM265.527 391.973V391.473H269.573V391.973V392.473H265.527V391.973ZM265.527 364.464H266.027V391.973H265.527H265.027V364.464H265.527ZM261.986 364.464V363.964H265.527V364.464V364.964H261.986V364.464ZM261.986 353.337H262.486V364.464H261.986H261.486V353.337H261.986ZM229.616 353.337V352.837H261.986V353.337V353.837H229.616V353.337ZM229.616 329.565H230.116V353.337H229.616H229.116V329.565H229.616ZM188.141 329.565V329.065H229.616V329.565V330.065H188.141V329.565ZM188.141 338.669H187.641V329.565H188.141H188.641V338.669H188.141ZM171.45 338.669V338.169H188.141V338.669V339.169H171.45V338.669ZM171.45 294.16H171.95V338.669H171.45H170.95V294.16H171.45ZM143.632 294.16V293.66H171.45V294.16V294.66H143.632V294.16ZM143.632 264.824H144.132V294.16H143.632H143.132V264.824H143.632ZM124.412 264.824V264.324H143.632V264.824V265.324H124.412V264.824ZM124.412 275.446H123.912V264.824H124.412H124.912V275.446H124.412ZM120.872 275.446V274.946H124.412V275.446V275.946H120.872V275.446ZM63.7176 203.624V203.124H67.2581V203.624V204.124H63.7176V203.624ZM63.7176 140.906H64.2176V203.624H63.7176H63.2176V140.906H63.7176ZM155.771 140.906V141.406H63.7176V140.906V140.406H155.771V140.906ZM155.771 90.8333H156.271V140.906H155.771H155.271V90.8333H155.771ZM172.462 90.8333V91.3333H155.771V90.8333V90.3333H172.462V90.8333ZM172.462 183.392H171.962V90.8333H172.462H172.962V183.392H172.462ZM204.832 183.392V183.892H172.462V183.392V182.892H204.832V183.392ZM212.925 176.093L213.26 176.464L205.167 183.764L204.832 183.392L204.497 183.021L212.59 175.722L212.925 176.093ZM214.948 176.093V176.593H212.925V176.093V175.593H214.948V176.093ZM214.948 212.728H214.448V176.093H214.948H215.448V212.728H214.948ZM231.639 212.728V213.228H214.948V212.728V212.228H231.639V212.728ZM238.214 218.797L237.875 219.165L231.3 213.095L231.639 212.728L231.978 212.361L238.553 218.43L238.214 218.797ZM236.697 220.821L236.643 220.324C236.97 220.288 237.211 220.244 237.389 220.185C237.564 220.127 237.647 220.064 237.692 220.01C237.778 219.908 237.871 219.654 237.723 218.892L238.214 218.797L238.705 218.703C238.856 219.483 238.866 220.167 238.458 220.653C238.256 220.894 237.988 221.039 237.705 221.134C237.425 221.226 237.101 221.28 236.751 221.318L236.697 220.821ZM230.627 220.821V220.321H236.697V220.821V221.321H230.627V220.821ZM230.627 222.338H230.127V220.821H230.627H231.127V222.338H230.627ZM181.566 222.338V221.838H230.627V222.338V222.838H181.566V222.338ZM181.566 207.164H182.066V222.338H181.566H181.066V207.164H181.566ZM166.392 207.164V206.664H181.566V207.164V207.664H166.392V207.164ZM151.725 207.164V206.664H166.392V207.164V207.664H151.725V207.164ZM136.045 218.292L135.756 217.884L151.435 206.757L151.725 207.164L152.014 207.572L136.335 218.699L136.045 218.292ZM99.6285 218.292V217.792H136.045V218.292V218.792H99.6285V218.292ZM99.6285 246.11H99.1285V218.292H99.6285H100.128V246.11H99.6285ZM106.709 246.11V246.61H99.6285V246.11V245.61H106.709V246.11ZM106.709 255.214H106.209V246.11H106.709H107.209V255.214H106.709ZM76.3623 255.214V254.714H106.709V255.214V255.714H76.3623V255.214ZM63.7176 255.214V254.714H76.3623V255.214V255.714H63.7176V255.214ZM63.7176 231.948H64.2176V255.214H63.7176H63.2176V231.948H63.7176ZM63.7176 227.902H64.2176V231.948H63.7176H63.2176V227.902H63.7176ZM67.2581 227.902V228.402H63.7176V227.902V227.402H67.2581V227.902ZM67.2581 203.624H67.7581V227.902H67.2581H66.7581V203.624H67.2581ZM46.015 207.164V207.664H36.9109V207.164V206.664H46.015V207.164ZM46.015 189.462H46.515V207.164H46.015H45.515V189.462H46.015ZM36.9109 189.462V188.962H46.015V189.462V189.962H36.9109V189.462ZM36.9109 207.164H36.4109V189.462H36.9109H37.4109V207.164H36.9109ZM137.057 117.134V116.634C139.847 116.634 142.109 118.896 142.109 121.686H141.609H141.109C141.109 119.448 139.295 117.634 137.057 117.634V117.134ZM132.505 121.686H132.005C132.005 118.896 134.267 116.634 137.057 116.634V117.134V117.634C134.819 117.634 133.005 119.448 133.005 121.686H132.505ZM137.057 126.238V126.738C134.267 126.738 132.005 124.477 132.005 121.686H132.505H133.005C133.005 123.924 134.819 125.738 137.057 125.738V126.238ZM141.609 121.686H142.109C142.109 124.477 139.847 126.738 137.057 126.738V126.238V125.738C139.295 125.738 141.109 123.924 141.109 121.686H141.609Z" fill="#B27C40"/>
<path d="M171.45 338.669V345.244H179.037V341.957M179.037 338.669V341.957M179.037 341.957H182.072V338.669M124.412 312.368V294.16H120.366V289.608H97.0994V280.503H120.871V275.446M143.632 312.368V294.16" stroke="#B27C40"/>
<path d="M136.551 140.906V126.238M131.999 140.906V95.8912M201.797 139.895H194.716V132.814M194.716 89.316V132.814M201.797 132.814H194.716" stroke="#B27C40"/>
<path d="M206.855 132.814V128.262H211.407" stroke="#B27C40"/>
<path d="M233.156 253.697V246.11H241.249V253.697" stroke="#B27C40"/>
<path d="M174.485 241.052H203.821" stroke="#B27C40"/>
<path d="M127.958 240.552V233.459H120.866V240.552H127.958Z" stroke="#B27C40"/>
<path d="M15.6677 188.956V196.037H19.2082V188.956" stroke="#B27C40"/>
<path d="M37.9223 122.698H34.3818V130.285H48.5439V122.698H45.0034M37.9223 122.698V119.157H45.0034V122.698M37.9223 122.698H45.0034" stroke="#B27C40"/>
<path d="M19.2083 277.974H26.7951M19.2083 270.388H41.4629V277.974H30.3356M26.7951 277.974H30.3356M26.7951 277.974V281.515M19.2083 285.055H26.7951V281.515M30.3356 277.974V281.515H26.7951M70.7985 312.874V304.781H78.3853V312.874M81.4201 255.214V262.801H88.5011V255.214" stroke="#B27C40"/>
<path d="M151.724 241.052V236.5H194.21" stroke="#B27C40"/>
<path d="M248.33 215.257L239.226 208.176" stroke="#B27C40"/>
<path d="M251.365 209.187V183.898H259.457V209.378" stroke="#B27C40"/>
<path d="M262.492 209.187H266.538V233.465" stroke="#B27C40"/>
<path d="M292.333 277.469V270.388M292.333 262.801V270.388M292.333 270.388H296.38V262.801M323.692 224.867V217.28H331.279V224.867H323.692Z" stroke="#B27C40"/>
<path d="M342.406 295.171H335.325V288.09H342.406M282.217 365.981C282.217 366.386 282.217 373.231 282.217 376.603H269.573V365.981H282.217Z" stroke="#B27C40"/>
<path d="M205.844 27.6099H236.191V17.9999M205.844 42.7835H208.878V52.3935H205.844M258.446 17.9999V27.6099H295.874M295.874 52.3935H292.333V42.7835H295.874M328.244 142.929H341.395V121.18M369.719 148.493H362.132V140.906H369.719M341.395 190.979V189.462H340.383V159.115H341.395V157.597H338.866V190.979H341.395ZM341.395 190.979H347.97M419.286 313.38V339.175M419.286 339.175H417.263M419.286 339.175H421.309M421.815 313.38V339.175H421.309M421.309 339.175C421.309 339.579 421.309 343.39 421.309 345.244M421.309 345.244H424.344M421.309 345.244H417.263M436.483 213.234L445.081 227.902L451.656 223.855L443.058 209.187L436.483 213.234ZM382.869 331.588V315.403H389.95V322.484H404.618V331.588H382.869Z" stroke="#B27C40"/>
<path d="M355.051 406.95H347.464V402.904M355.051 402.398H351.257M351.257 402.398H347.464V402.904M351.257 402.398V398.858H355.051M347.97 401.892H310.542V402.904H347.464" stroke="#B27C40"/>
<path d="M418.78 311.357H433.954V295.529H418.78V311.357Z" fill="#F08234" fill-opacity="0.23"/>
<path d="M418.78 344.739H420.803V339.681H418.78V344.739Z" fill="#F08234" fill-opacity="0.23"/>
<path d="M417.263 347.268V345.75H418.78V295.525H375.788V356.372H408.158L417.263 347.268ZM382.363 314.897H390.456V321.978H405.124V332.094H382.363V314.897Z" fill="#F08234" fill-opacity="0.23"/>
<path d="M405.423 316.287H403.876L406.692 308.287H408.481L411.302 316.287H409.755L407.618 309.928H407.556L405.423 316.287ZM405.474 313.15H409.692V314.314H405.474V313.15Z" fill="white"/>
<path d="M70.293 304.275H78.8916V312.368H107.216V290.113H96.5938V279.998H107.216V255.72H89.0068V263.307H80.9141V255.72H63.2119V312.368H70.293V304.275Z" fill="#F08234" fill-opacity="0.23"/>
<path d="M81.7036 287.963V279.963H84.7661C85.3442 279.963 85.8247 280.054 86.2075 280.236C86.5929 280.416 86.8807 280.662 87.0708 280.975C87.2635 281.287 87.3599 281.641 87.3599 282.037C87.3599 282.363 87.2974 282.641 87.1724 282.873C87.0474 283.102 86.8794 283.288 86.6685 283.432C86.4575 283.575 86.2218 283.678 85.9614 283.74V283.818C86.2453 283.834 86.5174 283.921 86.7778 284.08C87.0409 284.236 87.2557 284.458 87.4224 284.744C87.589 285.031 87.6724 285.377 87.6724 285.783C87.6724 286.197 87.5721 286.57 87.3716 286.9C87.1711 287.229 86.869 287.488 86.4653 287.678C86.0617 287.868 85.5539 287.963 84.9419 287.963H81.7036ZM83.1528 286.752H84.7114C85.2375 286.752 85.6164 286.652 85.8481 286.451C86.0825 286.248 86.1997 285.988 86.1997 285.67C86.1997 285.433 86.1411 285.219 86.0239 285.029C85.9067 284.837 85.7401 284.686 85.5239 284.576C85.3078 284.464 85.05 284.408 84.7505 284.408H83.1528V286.752ZM83.1528 283.365H84.5864C84.8364 283.365 85.0617 283.32 85.2622 283.229C85.4627 283.135 85.6203 283.003 85.7349 282.834C85.8521 282.662 85.9106 282.459 85.9106 282.225C85.9106 281.915 85.8013 281.66 85.5825 281.459C85.3664 281.258 85.0448 281.158 84.6177 281.158H83.1528V283.365Z" fill="white"/>
<path d="M124.412 294.16H143.632M124.412 312.368C124.817 312.368 137.394 312.368 143.632 312.368M104.686 281.515V288.596H98.1111V281.515H104.686Z" stroke="#B27C40" stroke-opacity="0.23"/>
</svg>
