<svg width="470" height="473" viewBox="0 0 470 473" fill="none" xmlns="http://www.w3.org/2000/svg">
<path fill-rule="evenodd" clip-rule="evenodd" d="M108.733 403.915V354.348H85.6892V369.016H16.6794V332.094H19.2083V284.044H1V270.894L19.2083 252.685V160.632H50.5671V157.091H42.9803V130.791H120.872V160.632H124.412V109.547H147.172L193.199 93.868H240.743V45.8183C240.743 30.4547 253.198 18 268.561 18C283.925 18 296.38 30.4547 296.38 45.8183V51.3819H380.846L442.046 112.582V159.62H419.286V161.138H434.459V198.566H401.078V220.315H408.664V209.187H443.058L468.853 234.983V257.743L441.54 296.183H406.641V288.596H395.514V296.183H369.719V352.325L329.256 392.788H295.874V455H205.844V415.043L194.716 403.915H108.733ZM365.167 99.9375L360.615 104.49L372.248 116.123H408.664V108.536H396.02L373.765 86.2812V75.6597L366.684 66.0498H355.051V89.8218L365.167 99.9375ZM284.747 333.611V318.943H299.92V277.469H284.747V259.766H288.793V264.824H351.51V241.558L342.406 232.454V177.829H375.282V198.566H379.834V220.315H368.707V234.983L421.815 253.697V260.778L384.387 270.388H328.244V359.406L324.704 366.993H319.14V333.611H284.747ZM285.252 183.898V195.531H310.036V146.47H323.186L341.9 155.574H368.201V134.331H363.649L352.522 123.204L357.58 118.146L352.522 113.088L347.464 117.64L336.843 107.019V88.3044H333.808L329.762 90.3275H296.118V80.9763H292.333V119.663H276.654V123.709L278.677 131.296V154.562L285.252 168.725V183.898ZM205.844 393.8L215.454 403.41L226.075 393.294V359.912H298.909L302.449 366.993H308.013V355.866H263.503V333.611H264.515V330.071H238.214L217.983 309.839H201.797V340.186H211.407V388.742L205.844 393.8ZM218.488 219.303V199.072H224.052L255.917 184.404H268.337V176.817H270.079V210.199H318.128V217.786H310.338V239.535H262.492V263.812H248.33V219.303H218.488ZM143.632 124.215H147.678V160.632H143.632V124.215ZM63.7176 145.458V160.126H106.709V145.458H63.7176ZM120.872 197.554V231.948H174.485V219.303H207.361V168.725L254.905 154.562L266.032 119.663V110.559H282.218V107.019H269.573V81.0269H265.527V108.536H261.986V119.663H229.616V143.435H188.141V134.331H171.45V178.84H143.632V208.176H124.412V197.554H120.872ZM67.2581 269.376H63.7176V332.094H155.771V382.167H172.462V289.608H204.832L212.925 296.907H214.948V260.272H231.639L238.214 254.203C238.512 252.661 238.051 252.327 236.697 252.179H230.627V250.662H181.566V265.836H166.392H151.725L136.045 254.708H99.6285V226.89H106.709V217.786H76.3623H63.7176V241.052V245.098H67.2581V269.376ZM36.9109 265.836H46.015V283.538H36.9109V265.836ZM141.609 351.314C141.609 353.828 139.571 355.866 137.057 355.866C134.543 355.866 132.505 353.828 132.505 351.314C132.505 348.8 134.543 346.762 137.057 346.762C139.571 346.762 141.609 348.8 141.609 351.314Z" fill="#271406"/>
<path d="M108.733 354.348H109.233V353.848H108.733V354.348ZM108.733 403.915H108.233V404.415H108.733V403.915ZM85.6892 354.348V353.848H85.1892V354.348H85.6892ZM85.6892 369.016V369.516H86.1892V369.016H85.6892ZM16.6794 369.016H16.1794V369.516H16.6794V369.016ZM16.6794 332.094V331.594H16.1794V332.094H16.6794ZM19.2083 332.094V332.594H19.7083V332.094H19.2083ZM19.2083 284.044H19.7083V283.544H19.2083V284.044ZM1 284.044H0.5V284.544H1V284.044ZM1 270.894L0.646447 270.54L0.5 270.686V270.894H1ZM19.2083 252.685L19.5619 253.039L19.7083 252.892V252.685H19.2083ZM19.2083 160.632V160.132H18.7083V160.632H19.2083ZM50.5671 160.632V161.132H51.0671V160.632H50.5671ZM50.5671 157.091H51.0671V156.591H50.5671V157.091ZM42.9803 157.091H42.4803V157.591H42.9803V157.091ZM42.9803 130.791V130.291H42.4803V130.791H42.9803ZM120.872 130.791H121.372V130.291H120.872V130.791ZM120.872 160.632H120.372V161.132H120.872V160.632ZM124.412 160.632V161.132H124.912V160.632H124.412ZM124.412 109.547V109.047H123.912V109.547H124.412ZM147.172 109.547V110.047H147.255L147.334 110.021L147.172 109.547ZM193.199 93.868V93.368H193.116L193.038 93.3948L193.199 93.868ZM240.743 93.868V94.368H241.243V93.868H240.743ZM296.38 51.3819H295.88V51.8819H296.38V51.3819ZM380.846 51.3819L381.2 51.0284L381.053 50.8819H380.846V51.3819ZM442.046 112.582H442.546V112.375L442.4 112.229L442.046 112.582ZM442.046 159.62V160.12H442.546V159.62H442.046ZM419.286 159.62V159.12H418.786V159.62H419.286ZM419.286 161.138H418.786V161.638H419.286V161.138ZM434.459 161.138H434.959V160.638H434.459V161.138ZM434.459 198.566V199.066H434.959V198.566H434.459ZM401.078 198.566V198.066H400.578V198.566H401.078ZM401.078 220.315H400.578V220.815H401.078V220.315ZM408.664 220.315V220.815H409.164V220.315H408.664ZM408.664 209.187V208.687H408.164V209.187H408.664ZM443.058 209.187L443.411 208.834L443.265 208.687H443.058V209.187ZM468.853 234.983H469.353V234.776L469.207 234.629L468.853 234.983ZM468.853 257.743L469.261 258.033L469.353 257.903V257.743H468.853ZM441.54 296.183V296.683H441.799L441.948 296.472L441.54 296.183ZM406.641 296.183H406.141V296.683H406.641V296.183ZM406.641 288.596H407.141V288.096H406.641V288.596ZM395.514 288.596V288.096H395.014V288.596H395.514ZM395.514 296.183V296.683H396.014V296.183H395.514ZM369.719 296.183V295.683H369.219V296.183H369.719ZM369.719 352.325L370.072 352.679L370.219 352.532V352.325H369.719ZM329.256 392.788V393.288H329.463L329.609 393.142L329.256 392.788ZM295.874 392.788V392.288H295.374V392.788H295.874ZM295.874 455V455.5H296.374V455H295.874ZM205.844 455H205.344V455.5H205.844V455ZM205.844 415.043H206.344V414.836L206.197 414.689L205.844 415.043ZM194.716 403.915L195.07 403.562L194.924 403.415H194.716V403.915ZM360.615 104.49L360.261 104.136L359.907 104.49L360.261 104.843L360.615 104.49ZM365.167 99.9375L365.52 100.291L365.874 99.9375L365.52 99.5839L365.167 99.9375ZM372.248 116.123L371.894 116.476L372.041 116.623H372.248V116.123ZM408.664 116.123V116.623H409.164V116.123H408.664ZM408.664 108.536H409.164V108.036H408.664V108.536ZM396.02 108.536L395.666 108.889L395.813 109.036H396.02V108.536ZM373.765 86.2812H373.265V86.4884L373.411 86.6348L373.765 86.2812ZM373.765 75.6597H374.265V75.4954L374.168 75.3631L373.765 75.6597ZM366.684 66.0498L367.087 65.7532L366.937 65.5498H366.684V66.0498ZM355.051 66.0498V65.5498H354.551V66.0498H355.051ZM355.051 89.8218H354.551V90.0289L354.697 90.1753L355.051 89.8218ZM284.747 318.943V318.443H284.247V318.943H284.747ZM284.747 333.611H284.247V334.111H284.747V333.611ZM299.92 318.943V319.443H300.42V318.943H299.92ZM299.92 277.469H300.42V276.969H299.92V277.469ZM284.747 277.469H284.247V277.969H284.747V277.469ZM284.747 259.766V259.266H284.247V259.766H284.747ZM288.793 259.766H289.293V259.266H288.793V259.766ZM288.793 264.824H288.293V265.324H288.793V264.824ZM351.51 264.824V265.324H352.01V264.824H351.51ZM351.51 241.558H352.01V241.351L351.864 241.204L351.51 241.558ZM342.406 232.454H341.906V232.661L342.053 232.807L342.406 232.454ZM342.406 177.829V177.329H341.906V177.829H342.406ZM375.282 177.829H375.782V177.329H375.282V177.829ZM375.282 198.566H374.782V199.066H375.282V198.566ZM379.834 198.566H380.334V198.066H379.834V198.566ZM379.834 220.315V220.815H380.334V220.315H379.834ZM368.707 220.315V219.815H368.207V220.315H368.707ZM368.707 234.983H368.207V235.337L368.541 235.454L368.707 234.983ZM421.815 253.697H422.315V253.343L421.981 253.225L421.815 253.697ZM421.815 260.778L421.939 261.262L422.315 261.166V260.778H421.815ZM384.387 270.388V270.888H384.45L384.511 270.872L384.387 270.388ZM328.244 270.388V269.888H327.744V270.388H328.244ZM328.244 359.406L328.697 359.618L328.744 359.517V359.406H328.244ZM324.704 366.993V367.493H325.022L325.157 367.204L324.704 366.993ZM319.14 366.993H318.64V367.493H319.14V366.993ZM319.14 333.611H319.64V333.111H319.14V333.611ZM285.252 195.531H284.752V196.031H285.252V195.531ZM310.036 195.531V196.031H310.536V195.531H310.036ZM310.036 146.47V145.97H309.536V146.47H310.036ZM323.186 146.47L323.405 146.02L323.302 145.97H323.186V146.47ZM341.9 155.574L341.682 156.024L341.785 156.074H341.9V155.574ZM368.201 155.574V156.074H368.701V155.574H368.201ZM368.201 134.331H368.701V133.831H368.201V134.331ZM363.649 134.331L363.296 134.685L363.442 134.831H363.649V134.331ZM352.522 123.204L352.168 122.85L351.815 123.204L352.168 123.557L352.522 123.204ZM357.58 118.146L357.933 118.499L358.287 118.146L357.933 117.792L357.58 118.146ZM352.522 113.088L352.876 112.734L352.54 112.399L352.187 112.716L352.522 113.088ZM347.464 117.64L347.111 117.994L347.446 118.329L347.799 118.012L347.464 117.64ZM336.843 107.019H336.343V107.226L336.489 107.372L336.843 107.019ZM336.843 88.3044H337.343V87.8044H336.843V88.3044ZM333.808 88.3044V87.8044H333.69L333.584 87.8572L333.808 88.3044ZM329.762 90.3275V90.8275H329.88L329.985 90.7748L329.762 90.3275ZM296.118 90.3275H295.618V90.8275H296.118V90.3275ZM296.118 80.9763H296.618V80.4763H296.118V80.9763ZM292.333 80.9763V80.4763H291.833V80.9763H292.333ZM292.333 119.663V120.163H292.833V119.663H292.333ZM276.654 119.663V119.163H276.154V119.663H276.654ZM276.654 123.709H276.154V123.775L276.171 123.838L276.654 123.709ZM278.677 131.296H279.177V131.231L279.16 131.167L278.677 131.296ZM278.677 154.562H278.177V154.673L278.224 154.773L278.677 154.562ZM285.252 168.725H285.752V168.614L285.706 168.514L285.252 168.725ZM215.454 403.41L215.1 403.763L215.445 404.108L215.799 403.772L215.454 403.41ZM205.844 393.8L205.507 393.43L205.119 393.783L205.49 394.153L205.844 393.8ZM226.075 393.294L226.42 393.656L226.575 393.508V393.294H226.075ZM226.075 359.912V359.412H225.575V359.912H226.075ZM298.909 359.912L299.356 359.688L299.218 359.412H298.909V359.912ZM302.449 366.993L302.002 367.217L302.14 367.493H302.449V366.993ZM308.013 366.993V367.493H308.513V366.993H308.013ZM308.013 355.866H308.513V355.366H308.013V355.866ZM263.503 355.866H263.003V356.366H263.503V355.866ZM263.503 333.611V333.111H263.003V333.611H263.503ZM264.515 333.611V334.111H265.015V333.611H264.515ZM264.515 330.071H265.015V329.571H264.515V330.071ZM238.214 330.071L237.861 330.424L238.007 330.571H238.214V330.071ZM217.983 309.839L218.336 309.486L218.19 309.339H217.983V309.839ZM201.797 309.839V309.339H201.297V309.839H201.797ZM201.797 340.186H201.297V340.686H201.797V340.186ZM211.407 340.186H211.907V339.686H211.407V340.186ZM211.407 388.742L211.744 389.112L211.907 388.963V388.742H211.407ZM218.488 199.072V198.572H217.988V199.072H218.488ZM218.488 219.303H217.988V219.803H218.488V219.303ZM224.052 199.072V199.572H224.162L224.261 199.526L224.052 199.072ZM255.917 184.404V183.904H255.807L255.708 183.95L255.917 184.404ZM268.337 184.404V184.904H268.837V184.404H268.337ZM268.337 176.817V176.317H267.837V176.817H268.337ZM270.079 176.817H270.579V176.317H270.079V176.817ZM270.079 210.199H269.579V210.699H270.079V210.199ZM318.128 210.199H318.628V209.699H318.128V210.199ZM318.128 217.786V218.286H318.628V217.786H318.128ZM310.338 217.786V217.286H309.838V217.786H310.338ZM310.338 239.535V240.035H310.838V239.535H310.338ZM262.492 239.535V239.035H261.992V239.535H262.492ZM262.492 263.812V264.312H262.992V263.812H262.492ZM248.33 263.812H247.83V264.312H248.33V263.812ZM248.33 219.303H248.83V218.803H248.33V219.303ZM147.678 124.215H148.178V123.715H147.678V124.215ZM143.632 124.215V123.715H143.132V124.215H143.632ZM147.678 160.632V161.132H148.178V160.632H147.678ZM143.632 160.632H143.132V161.132H143.632V160.632ZM63.7176 160.126H63.2176V160.626H63.7176V160.126ZM63.7176 145.458V144.958H63.2176V145.458H63.7176ZM106.709 160.126V160.626H107.209V160.126H106.709ZM106.709 145.458H107.209V144.958H106.709V145.458ZM120.872 231.948H120.372V232.448H120.872V231.948ZM120.872 197.554V197.054H120.372V197.554H120.872ZM174.485 231.948V232.448H174.985V231.948H174.485ZM174.485 219.303V218.803H173.985V219.303H174.485ZM207.361 219.303V219.803H207.861V219.303H207.361ZM207.361 168.725L207.218 168.245L206.861 168.352V168.725H207.361ZM254.905 154.562L255.048 155.042L255.301 154.966L255.381 154.714L254.905 154.562ZM266.032 119.663L266.509 119.815L266.532 119.741V119.663H266.032ZM266.032 110.559V110.059H265.532V110.559H266.032ZM282.218 110.559V111.059H282.718V110.559H282.218ZM282.218 107.019H282.718V106.519H282.218V107.019ZM269.573 107.019H269.073V107.519H269.573V107.019ZM269.573 81.0269H270.073V80.5269H269.573V81.0269ZM265.527 81.0269V80.5269H265.027V81.0269H265.527ZM265.527 108.536V109.036H266.027V108.536H265.527ZM261.986 108.536V108.036H261.486V108.536H261.986ZM261.986 119.663V120.163H262.486V119.663H261.986ZM229.616 119.663V119.163H229.116V119.663H229.616ZM229.616 143.435V143.935H230.116V143.435H229.616ZM188.141 143.435H187.641V143.935H188.141V143.435ZM188.141 134.331H188.641V133.831H188.141V134.331ZM171.45 134.331V133.831H170.95V134.331H171.45ZM171.45 178.84V179.34H171.95V178.84H171.45ZM143.632 178.84V178.34H143.132V178.84H143.632ZM143.632 208.176V208.676H144.132V208.176H143.632ZM124.412 208.176H123.912V208.676H124.412V208.176ZM124.412 197.554H124.912V197.054H124.412V197.554ZM63.7176 269.376V268.876H63.2176V269.376H63.7176ZM67.2581 269.376V269.876H67.7581V269.376H67.2581ZM63.7176 332.094H63.2176V332.594H63.7176V332.094ZM155.771 332.094H156.271V331.594H155.771V332.094ZM155.771 382.167H155.271V382.667H155.771V382.167ZM172.462 382.167V382.667H172.962V382.167H172.462ZM172.462 289.608V289.108H171.962V289.608H172.462ZM204.832 289.608L205.167 289.236L205.024 289.108H204.832V289.608ZM212.925 296.907L212.59 297.278L212.733 297.407H212.925V296.907ZM214.948 296.907V297.407H215.448V296.907H214.948ZM214.948 260.272V259.772H214.448V260.272H214.948ZM231.639 260.272V260.772H231.834L231.978 260.639L231.639 260.272ZM238.214 254.203L238.553 254.57L238.674 254.459L238.705 254.297L238.214 254.203ZM236.697 252.179L236.751 251.682L236.724 251.679H236.697V252.179ZM230.627 252.179H230.127V252.679H230.627V252.179ZM230.627 250.662H231.127V250.162H230.627V250.662ZM181.566 250.662V250.162H181.066V250.662H181.566ZM181.566 265.836V266.336H182.066V265.836H181.566ZM151.725 265.836L151.435 266.243L151.565 266.336H151.725V265.836ZM136.045 254.708L136.335 254.301L136.205 254.208H136.045V254.708ZM99.6285 254.708H99.1285V255.208H99.6285V254.708ZM99.6285 226.89V226.39H99.1285V226.89H99.6285ZM106.709 226.89V227.39H107.209V226.89H106.709ZM106.709 217.786H107.209V217.286H106.709V217.786ZM63.7176 217.786V217.286H63.2176V217.786H63.7176ZM63.7176 245.098H63.2176V245.598H63.7176V245.098ZM67.2581 245.098H67.7581V244.598H67.2581V245.098ZM46.015 265.836H46.515V265.336H46.015V265.836ZM36.9109 265.836V265.336H36.4109V265.836H36.9109ZM46.015 283.538V284.038H46.515V283.538H46.015ZM36.9109 283.538H36.4109V284.038H36.9109V283.538ZM108.733 354.348H108.233V403.915H108.733H109.233V354.348H108.733ZM85.6892 354.348V354.848H108.733V354.348V353.848H85.6892V354.348ZM85.6892 369.016H86.1892V354.348H85.6892H85.1892V369.016H85.6892ZM16.6794 369.016V369.516H85.6892V369.016V368.516H16.6794V369.016ZM16.6794 332.094H16.1794V369.016H16.6794H17.1794V332.094H16.6794ZM19.2083 332.094V331.594H16.6794V332.094V332.594H19.2083V332.094ZM19.2083 284.044H18.7083V332.094H19.2083H19.7083V284.044H19.2083ZM1 284.044V284.544H19.2083V284.044V283.544H1V284.044ZM1 270.894H0.5V284.044H1H1.5V270.894H1ZM19.2083 252.685L18.8548 252.332L0.646447 270.54L1 270.894L1.35355 271.247L19.5619 253.039L19.2083 252.685ZM19.2083 160.632H18.7083V252.685H19.2083H19.7083V160.632H19.2083ZM50.5671 160.632V160.132H19.2083V160.632V161.132H50.5671V160.632ZM50.5671 157.091H50.0671V160.632H50.5671H51.0671V157.091H50.5671ZM42.9803 157.091V157.591H50.5671V157.091V156.591H42.9803V157.091ZM42.9803 130.791H42.4803V157.091H42.9803H43.4803V130.791H42.9803ZM120.872 130.791V130.291H42.9803V130.791V131.291H120.872V130.791ZM120.872 160.632H121.372V130.791H120.872H120.372V160.632H120.872ZM124.412 160.632V160.132H120.872V160.632V161.132H124.412V160.632ZM124.412 109.547H123.912V160.632H124.412H124.912V109.547H124.412ZM147.172 109.547V109.047H124.412V109.547V110.047H147.172V109.547ZM193.199 93.868L193.038 93.3948L147.011 109.074L147.172 109.547L147.334 110.021L193.36 94.3413L193.199 93.868ZM240.743 93.868V93.368H193.199V93.868V94.368H240.743V93.868ZM240.743 45.8183H240.243V93.868H240.743H241.243V45.8183H240.743ZM268.561 18V17.5C252.922 17.5 240.243 30.1785 240.243 45.8183H240.743H241.243C241.243 30.7308 253.474 18.5 268.561 18.5V18ZM296.38 45.8183H296.88C296.88 30.1785 284.201 17.5 268.561 17.5V18V18.5C283.649 18.5 295.88 30.7308 295.88 45.8183H296.38ZM296.38 51.3819H296.88V45.8183H296.38H295.88V51.3819H296.38ZM380.846 51.3819V50.8819H296.38V51.3819V51.8819H380.846V51.3819ZM442.046 112.582L442.4 112.229L381.2 51.0284L380.846 51.3819L380.492 51.7355L441.693 112.936L442.046 112.582ZM442.046 159.62H442.546V112.582H442.046H441.546V159.62H442.046ZM419.286 159.62V160.12H442.046V159.62V159.12H419.286V159.62ZM419.286 161.138H419.786V159.62H419.286H418.786V161.138H419.286ZM434.459 161.138V160.638H419.286V161.138V161.638H434.459V161.138ZM434.459 198.566H434.959V161.138H434.459H433.959V198.566H434.459ZM401.078 198.566V199.066H434.459V198.566V198.066H401.078V198.566ZM401.078 220.315H401.578V198.566H401.078H400.578V220.315H401.078ZM408.664 220.315V219.815H401.078V220.315V220.815H408.664V220.315ZM408.664 209.187H408.164V220.315H408.664H409.164V209.187H408.664ZM443.058 209.187V208.687H408.664V209.187V209.687H443.058V209.187ZM468.853 234.983L469.207 234.629L443.411 208.834L443.058 209.187L442.704 209.541L468.499 235.336L468.853 234.983ZM468.853 257.743H469.353V234.983H468.853H468.353V257.743H468.853ZM441.54 296.183L441.948 296.472L469.261 258.033L468.853 257.743L468.445 257.453L441.133 295.893L441.54 296.183ZM406.641 296.183V296.683H441.54V296.183V295.683H406.641V296.183ZM406.641 288.596H406.141V296.183H406.641H407.141V288.596H406.641ZM395.514 288.596V289.096H406.641V288.596V288.096H395.514V288.596ZM395.514 296.183H396.014V288.596H395.514H395.014V296.183H395.514ZM369.719 296.183V296.683H395.514V296.183V295.683H369.719V296.183ZM369.719 352.325H370.219V296.183H369.719H369.219V352.325H369.719ZM329.256 392.788L329.609 393.142L370.072 352.679L369.719 352.325L369.365 351.972L328.902 392.435L329.256 392.788ZM295.874 392.788V393.288H329.256V392.788V392.288H295.874V392.788ZM295.874 455H296.374V392.788H295.874H295.374V455H295.874ZM205.844 455V455.5H295.874V455V454.5H205.844V455ZM205.844 415.043H205.344V455H205.844H206.344V415.043H205.844ZM194.716 403.915L194.363 404.269L205.49 415.396L205.844 415.043L206.197 414.689L195.07 403.562L194.716 403.915ZM108.733 403.915V404.415H194.716V403.915V403.415H108.733V403.915ZM360.615 104.49L360.968 104.843L365.52 100.291L365.167 99.9375L364.813 99.5839L360.261 104.136L360.615 104.49ZM372.248 116.123L372.601 115.769L360.968 104.136L360.615 104.49L360.261 104.843L371.894 116.476L372.248 116.123ZM408.664 116.123V115.623H372.248V116.123V116.623H408.664V116.123ZM408.664 108.536H408.164V116.123H408.664H409.164V108.536H408.664ZM396.02 108.536V109.036H408.664V108.536V108.036H396.02V108.536ZM373.765 86.2812L373.411 86.6348L395.666 108.889L396.02 108.536L396.373 108.182L374.119 85.9277L373.765 86.2812ZM373.765 75.6597H373.265V86.2812H373.765H374.265V75.6597H373.765ZM366.684 66.0498L366.281 66.3464L373.363 75.9563L373.765 75.6597L374.168 75.3631L367.087 65.7532L366.684 66.0498ZM355.051 66.0498V66.5498H366.684V66.0498V65.5498H355.051V66.0498ZM355.051 89.8218H355.551V66.0498H355.051H354.551V89.8218H355.051ZM365.167 99.9375L365.52 99.5839L355.404 89.4682L355.051 89.8218L354.697 90.1753L364.813 100.291L365.167 99.9375ZM284.747 318.943H284.247V333.611H284.747H285.247V318.943H284.747ZM299.92 318.943V318.443H284.747V318.943V319.443H299.92V318.943ZM299.92 277.469H299.42V318.943H299.92H300.42V277.469H299.92ZM284.747 277.469V277.969H299.92V277.469V276.969H284.747V277.469ZM284.747 259.766H284.247V277.469H284.747H285.247V259.766H284.747ZM288.793 259.766V259.266H284.747V259.766V260.266H288.793V259.766ZM288.793 264.824H289.293V259.766H288.793H288.293V264.824H288.793ZM351.51 264.824V264.324H288.793V264.824V265.324H351.51V264.824ZM351.51 241.558H351.01V264.824H351.51H352.01V241.558H351.51ZM342.406 232.454L342.053 232.807L351.157 241.911L351.51 241.558L351.864 241.204L342.76 232.1L342.406 232.454ZM342.406 177.829H341.906V232.454H342.406H342.906V177.829H342.406ZM375.282 177.829V177.329H342.406V177.829V178.329H375.282V177.829ZM375.282 198.566H375.782V177.829H375.282H374.782V198.566H375.282ZM379.834 198.566V198.066H375.282V198.566V199.066H379.834V198.566ZM379.834 220.315H380.334V198.566H379.834H379.334V220.315H379.834ZM368.707 220.315V220.815H379.834V220.315V219.815H368.707V220.315ZM368.707 234.983H369.207V220.315H368.707H368.207V234.983H368.707ZM421.815 253.697L421.981 253.225L368.873 234.511L368.707 234.983L368.541 235.454L421.649 254.168L421.815 253.697ZM421.815 260.778H422.315V253.697H421.815H421.315V260.778H421.815ZM384.387 270.388L384.511 270.872L421.939 261.262L421.815 260.778L421.69 260.293L384.262 269.903L384.387 270.388ZM328.244 270.388V270.888H384.387V270.388V269.888H328.244V270.388ZM328.244 359.406H328.744V270.388H328.244H327.744V359.406H328.244ZM324.704 366.993L325.157 367.204L328.697 359.618L328.244 359.406L327.791 359.195L324.251 366.782L324.704 366.993ZM319.14 366.993V367.493H324.704V366.993V366.493H319.14V366.993ZM319.14 333.611H318.64V366.993H319.14H319.64V333.611H319.14ZM284.747 333.611V334.111H319.14V333.611V333.111H284.747V333.611ZM285.252 195.531H285.752V183.898H285.252H284.752V195.531H285.252ZM310.036 195.531V195.031H285.252V195.531V196.031H310.036V195.531ZM310.036 146.47H309.536V195.531H310.036H310.536V146.47H310.036ZM323.186 146.47V145.97H310.036V146.47V146.97H323.186V146.47ZM341.9 155.574L342.119 155.124L323.405 146.02L323.186 146.47L322.968 146.92L341.682 156.024L341.9 155.574ZM368.201 155.574V155.074H341.9V155.574V156.074H368.201V155.574ZM368.201 134.331H367.701V155.574H368.201H368.701V134.331H368.201ZM363.649 134.331V134.831H368.201V134.331V133.831H363.649V134.331ZM352.522 123.204L352.168 123.557L363.296 134.685L363.649 134.331L364.003 133.977L352.876 122.85L352.522 123.204ZM357.58 118.146L357.226 117.792L352.168 122.85L352.522 123.204L352.876 123.557L357.933 118.499L357.58 118.146ZM352.522 113.088L352.168 113.442L357.226 118.499L357.58 118.146L357.933 117.792L352.876 112.734L352.522 113.088ZM347.464 117.64L347.799 118.012L352.856 113.46L352.522 113.088L352.187 112.716L347.13 117.268L347.464 117.64ZM336.843 107.019L336.489 107.372L347.111 117.994L347.464 117.64L347.818 117.286L337.196 106.665L336.843 107.019ZM336.843 88.3044H336.343V107.019H336.843H337.343V88.3044H336.843ZM333.808 88.3044V88.8044H336.843V88.3044V87.8044H333.808V88.3044ZM329.762 90.3275L329.985 90.7748L334.031 88.7516L333.808 88.3044L333.584 87.8572L329.538 89.8803L329.762 90.3275ZM296.118 90.3275V90.8275H329.762V90.3275V89.8275H296.118V90.3275ZM296.118 80.9763H295.618V90.3275H296.118H296.618V80.9763H296.118ZM292.333 80.9763V81.4763H296.118V80.9763V80.4763H292.333V80.9763ZM292.333 119.663H292.833V80.9763H292.333H291.833V119.663H292.333ZM276.654 119.663V120.163H292.333V119.663V119.163H276.654V119.663ZM276.654 123.709H277.154V119.663H276.654H276.154V123.709H276.654ZM278.677 131.296L279.16 131.167L277.137 123.581L276.654 123.709L276.171 123.838L278.194 131.425L278.677 131.296ZM278.677 154.562H279.177V131.296H278.677H278.177V154.562H278.677ZM285.252 168.725L285.706 168.514L279.131 154.352L278.677 154.562L278.224 154.773L284.799 168.935L285.252 168.725ZM285.252 183.898H285.752V168.725H285.252H284.752V183.898H285.252ZM215.454 403.41L215.807 403.056L206.197 393.446L205.844 393.8L205.49 394.153L215.1 403.763L215.454 403.41ZM226.075 393.294L225.73 392.932L215.109 403.048L215.454 403.41L215.799 403.772L226.42 393.656L226.075 393.294ZM226.075 359.912H225.575V393.294H226.075H226.575V359.912H226.075ZM298.909 359.912V359.412H226.075V359.912V360.412H298.909V359.912ZM302.449 366.993L302.896 366.769L299.356 359.688L298.909 359.912L298.461 360.136L302.002 367.217L302.449 366.993ZM308.013 366.993V366.493H302.449V366.993V367.493H308.013V366.993ZM308.013 355.866H307.513V366.993H308.013H308.513V355.866H308.013ZM263.503 355.866V356.366H308.013V355.866V355.366H263.503V355.866ZM263.503 333.611H263.003V355.866H263.503H264.003V333.611H263.503ZM264.515 333.611V333.111H263.503V333.611V334.111H264.515V333.611ZM264.515 330.071H264.015V333.611H264.515H265.015V330.071H264.515ZM238.214 330.071V330.571H264.515V330.071V329.571H238.214V330.071ZM217.983 309.839L217.629 310.193L237.861 330.424L238.214 330.071L238.568 329.717L218.336 309.486L217.983 309.839ZM201.797 309.839V310.339H217.983V309.839V309.339H201.797V309.839ZM201.797 340.186H202.297V309.839H201.797H201.297V340.186H201.797ZM211.407 340.186V339.686H201.797V340.186V340.686H211.407V340.186ZM211.407 388.742H211.907V340.186H211.407H210.907V388.742H211.407ZM205.844 393.8L206.18 394.17L211.744 389.112L211.407 388.742L211.071 388.372L205.507 393.43L205.844 393.8ZM218.488 199.072H217.988V219.303H218.488H218.988V199.072H218.488ZM224.052 199.072V198.572H218.488V199.072V199.572H224.052V199.072ZM255.917 184.404L255.708 183.95L223.843 198.618L224.052 199.072L224.261 199.526L256.126 184.858L255.917 184.404ZM268.337 184.404V183.904H255.917V184.404V184.904H268.337V184.404ZM268.337 176.817H267.837V184.404H268.337H268.837V176.817H268.337ZM270.079 176.817V176.317H268.337V176.817V177.317H270.079V176.817ZM270.079 210.199H270.579V176.817H270.079H269.579V210.199H270.079ZM318.128 210.199V209.699H270.079V210.199V210.699H318.128V210.199ZM318.128 217.786H318.628V210.199H318.128H317.628V217.786H318.128ZM310.338 217.786V218.286H318.128V217.786V217.286H310.338V217.786ZM310.338 239.535H310.838V217.786H310.338H309.838V239.535H310.338ZM262.492 239.535V240.035H310.338V239.535V239.035H262.492V239.535ZM262.492 263.812H262.992V239.535H262.492H261.992V263.812H262.492ZM248.33 263.812V264.312H262.492V263.812V263.312H248.33V263.812ZM248.33 219.303H247.83V263.812H248.33H248.83V219.303H248.33ZM218.488 219.303V219.803H248.33V219.303V218.803H218.488V219.303ZM147.678 124.215V123.715H143.632V124.215V124.715H147.678V124.215ZM147.678 160.632H148.178V124.215H147.678H147.178V160.632H147.678ZM143.632 160.632V161.132H147.678V160.632V160.132H143.632V160.632ZM143.632 124.215H143.132V160.632H143.632H144.132V124.215H143.632ZM63.7176 160.126H64.2176V145.458H63.7176H63.2176V160.126H63.7176ZM106.709 160.126V159.626H63.7176V160.126V160.626H106.709V160.126ZM106.709 145.458H106.209V160.126H106.709H107.209V145.458H106.709ZM63.7176 145.458V145.958H106.709V145.458V144.958H63.7176V145.458ZM120.872 231.948H121.372V197.554H120.872H120.372V231.948H120.872ZM174.485 231.948V231.448H120.872V231.948V232.448H174.485V231.948ZM174.485 219.303H173.985V231.948H174.485H174.985V219.303H174.485ZM207.361 219.303V218.803H174.485V219.303V219.803H207.361V219.303ZM207.361 168.725H206.861V219.303H207.361H207.861V168.725H207.361ZM254.905 154.562L254.762 154.083L207.218 168.245L207.361 168.725L207.504 169.204L255.048 155.042L254.905 154.562ZM266.032 119.663L265.556 119.511L254.429 154.411L254.905 154.562L255.381 154.714L266.509 119.815L266.032 119.663ZM266.032 110.559H265.532V119.663H266.032H266.532V110.559H266.032ZM282.218 110.559V110.059H266.032V110.559V111.059H282.218V110.559ZM282.218 107.019H281.718V110.559H282.218H282.718V107.019H282.218ZM269.573 107.019V107.519H282.218V107.019V106.519H269.573V107.019ZM269.573 81.0269H269.073V107.019H269.573H270.073V81.0269H269.573ZM265.527 81.0269V81.5269H269.573V81.0269V80.5269H265.527V81.0269ZM265.527 108.536H266.027V81.0269H265.527H265.027V108.536H265.527ZM261.986 108.536V109.036H265.527V108.536V108.036H261.986V108.536ZM261.986 119.663H262.486V108.536H261.986H261.486V119.663H261.986ZM229.616 119.663V120.163H261.986V119.663V119.163H229.616V119.663ZM229.616 143.435H230.116V119.663H229.616H229.116V143.435H229.616ZM188.141 143.435V143.935H229.616V143.435V142.935H188.141V143.435ZM188.141 134.331H187.641V143.435H188.141H188.641V134.331H188.141ZM171.45 134.331V134.831H188.141V134.331V133.831H171.45V134.331ZM171.45 178.84H171.95V134.331H171.45H170.95V178.84H171.45ZM143.632 178.84V179.34H171.45V178.84V178.34H143.632V178.84ZM143.632 208.176H144.132V178.84H143.632H143.132V208.176H143.632ZM124.412 208.176V208.676H143.632V208.176V207.676H124.412V208.176ZM124.412 197.554H123.912V208.176H124.412H124.912V197.554H124.412ZM120.872 197.554V198.054H124.412V197.554V197.054H120.872V197.554ZM63.7176 269.376V269.876H67.2581V269.376V268.876H63.7176V269.376ZM63.7176 332.094H64.2176V269.376H63.7176H63.2176V332.094H63.7176ZM155.771 332.094V331.594H63.7176V332.094V332.594H155.771V332.094ZM155.771 382.167H156.271V332.094H155.771H155.271V382.167H155.771ZM172.462 382.167V381.667H155.771V382.167V382.667H172.462V382.167ZM172.462 289.608H171.962V382.167H172.462H172.962V289.608H172.462ZM204.832 289.608V289.108H172.462V289.608V290.108H204.832V289.608ZM212.925 296.907L213.26 296.536L205.167 289.236L204.832 289.608L204.497 289.979L212.59 297.278L212.925 296.907ZM214.948 296.907V296.407H212.925V296.907V297.407H214.948V296.907ZM214.948 260.272H214.448V296.907H214.948H215.448V260.272H214.948ZM231.639 260.272V259.772H214.948V260.272V260.772H231.639V260.272ZM238.214 254.203L237.875 253.835L231.3 259.905L231.639 260.272L231.978 260.639L238.553 254.57L238.214 254.203ZM236.697 252.179L236.643 252.676C236.97 252.712 237.211 252.756 237.389 252.815C237.564 252.873 237.647 252.936 237.692 252.99C237.778 253.092 237.871 253.346 237.723 254.108L238.214 254.203L238.705 254.297C238.856 253.517 238.866 252.833 238.458 252.347C238.256 252.106 237.988 251.961 237.705 251.866C237.425 251.774 237.101 251.72 236.751 251.682L236.697 252.179ZM230.627 252.179V252.679H236.697V252.179V251.679H230.627V252.179ZM230.627 250.662H230.127V252.179H230.627H231.127V250.662H230.627ZM181.566 250.662V251.162H230.627V250.662V250.162H181.566V250.662ZM181.566 265.836H182.066V250.662H181.566H181.066V265.836H181.566ZM166.392 265.836V266.336H181.566V265.836V265.336H166.392V265.836ZM151.725 265.836V266.336H166.392V265.836V265.336H151.725V265.836ZM136.045 254.708L135.756 255.116L151.435 266.243L151.725 265.836L152.014 265.428L136.335 254.301L136.045 254.708ZM99.6285 254.708V255.208H136.045V254.708V254.208H99.6285V254.708ZM99.6285 226.89H99.1285V254.708H99.6285H100.128V226.89H99.6285ZM106.709 226.89V226.39H99.6285V226.89V227.39H106.709V226.89ZM106.709 217.786H106.209V226.89H106.709H107.209V217.786H106.709ZM76.3623 217.786V218.286H106.709V217.786V217.286H76.3623V217.786ZM63.7176 217.786V218.286H76.3623V217.786V217.286H63.7176V217.786ZM63.7176 241.052H64.2176V217.786H63.7176H63.2176V241.052H63.7176ZM63.7176 245.098H64.2176V241.052H63.7176H63.2176V245.098H63.7176ZM67.2581 245.098V244.598H63.7176V245.098V245.598H67.2581V245.098ZM67.2581 269.376H67.7581V245.098H67.2581H66.7581V269.376H67.2581ZM46.015 265.836V265.336H36.9109V265.836V266.336H46.015V265.836ZM46.015 283.538H46.515V265.836H46.015H45.515V283.538H46.015ZM36.9109 283.538V284.038H46.015V283.538V283.038H36.9109V283.538ZM36.9109 265.836H36.4109V283.538H36.9109H37.4109V265.836H36.9109ZM137.057 355.866V356.366C139.847 356.366 142.109 354.104 142.109 351.314H141.609H141.109C141.109 353.552 139.295 355.366 137.057 355.366V355.866ZM132.505 351.314H132.005C132.005 354.104 134.267 356.366 137.057 356.366V355.866V355.366C134.819 355.366 133.005 353.552 133.005 351.314H132.505ZM137.057 346.762V346.262C134.267 346.262 132.005 348.523 132.005 351.314H132.505H133.005C133.005 349.076 134.819 347.262 137.057 347.262V346.762ZM141.609 351.314H142.109C142.109 348.523 139.847 346.262 137.057 346.262V346.762V347.262C139.295 347.262 141.109 349.076 141.109 351.314H141.609Z" fill="#B27C40"/>
<path d="M171.45 134.331V127.756H179.037V131.043M179.037 134.331V131.043M179.037 131.043H182.072V134.331M124.412 160.632V178.84H120.366V183.392H97.0995V192.497H120.871V197.554M143.632 160.632V178.84" stroke="#B27C40"/>
<path d="M136.551 332.094V346.762M131.999 332.094V377.109M201.797 333.105H194.716V340.186M194.716 383.684V340.186M201.797 340.186H194.716" stroke="#B27C40"/>
<path d="M206.855 340.186V344.738H211.407" stroke="#B27C40"/>
<path d="M233.156 219.303V226.89H241.249V219.303" stroke="#B27C40"/>
<path d="M174.485 231.948H203.821" stroke="#B27C40"/>
<path d="M127.958 232.448V239.541H120.866V232.448H127.958Z" stroke="#B27C40"/>
<path d="M15.6678 284.044V276.963H19.2084V284.044" stroke="#B27C40"/>
<path d="M37.9225 350.302H34.382V342.715H48.544V350.302H45.0035M37.9225 350.302V353.843H45.0035V350.302M37.9225 350.302H45.0035" stroke="#B27C40"/>
<path d="M19.2084 195.025H26.7952M19.2084 202.612H41.463V195.025H30.3357M26.7952 195.025H30.3357M26.7952 195.025V191.485M19.2084 187.944H26.7952V191.485M30.3357 195.025V191.485H26.7952M70.7986 160.126V168.219H78.3855V160.126M81.4202 217.786V210.199H88.5012V217.786" stroke="#B27C40"/>
<path d="M151.724 231.948V236.5H194.211" stroke="#B27C40"/>
<path d="M248.33 257.743L239.226 264.824" stroke="#B27C40"/>
<path d="M251.365 263.812V289.102H259.457V263.622" stroke="#B27C40"/>
<path d="M262.492 263.813H266.538V239.535" stroke="#B27C40"/>
<path d="M292.333 195.531V202.612M292.333 210.199V202.612M292.333 202.612H296.38V210.199M323.692 248.133V255.72H331.279V248.133H323.692Z" stroke="#B27C40"/>
<path d="M342.406 177.829H335.325V184.91H342.406M282.218 107.019C282.218 106.614 282.218 99.7689 282.218 96.397H269.573V107.019H282.218Z" stroke="#B27C40"/>
<path d="M205.844 445.39H236.191V455M205.844 430.216H208.878V420.606H205.844M258.446 455V445.39H295.874M295.874 420.606H292.333V430.216H295.874M328.244 330.071H341.395V351.819M369.719 324.507H362.132V332.094H369.719M341.395 282.021V283.538H340.383V313.885H341.395V315.403H338.866V282.021H341.395ZM341.395 282.021H347.97M419.286 159.62V133.825M419.286 133.825H417.263M419.286 133.825H421.309M421.815 159.62V133.825H421.309M421.309 133.825C421.309 133.421 421.309 129.61 421.309 127.756M421.309 127.756H424.344M421.309 127.756H417.263M436.483 259.766L445.081 245.098L451.656 249.145L443.058 263.812L436.483 259.766ZM382.869 141.412V157.597H389.95V150.516H404.618V141.412H382.869Z" stroke="#B27C40"/>
<path d="M355.051 66.0498H347.464V70.0961M355.051 70.6019H351.257M351.257 70.6019H347.464V70.0961M351.257 70.6019V74.1424H355.051M347.97 71.1076H310.542V70.0961H347.464" stroke="#B27C40"/>
<path d="M418.78 161.644H433.954V177.471H418.78V161.644Z" fill="#F08234" fill-opacity="0.23"/>
<path d="M418.78 128.262H420.803V133.319H418.78V128.262Z" fill="#F08234" fill-opacity="0.23"/>
<path d="M417.263 125.732V127.25H418.78V177.475H375.788V116.628H408.158L417.263 125.732ZM382.363 158.103H390.456V151.022H405.124V140.906H382.363V158.103Z" fill="#F08234" fill-opacity="0.23"/>
<path d="M405.423 165.562H403.876L406.692 157.562H408.481L411.302 165.562H409.755L407.618 159.203H407.556L405.423 165.562ZM405.474 162.426H409.692V163.59H405.474V162.426Z" fill="white"/>
<path d="M70.2928 168.725H78.8915V160.632H107.216V182.887H96.5936V193.002H107.216V217.28H89.0067V209.693H80.9139V217.28H63.2118V160.632H70.2928V168.725Z" fill="#F08234" fill-opacity="0.23"/>
<path d="M81.7034 193.887V185.887H84.7659C85.344 185.887 85.8245 185.978 86.2073 186.16C86.5927 186.34 86.8805 186.586 87.0706 186.898C87.2633 187.211 87.3596 187.565 87.3596 187.961C87.3596 188.286 87.2971 188.565 87.1721 188.797C87.0471 189.026 86.8792 189.212 86.6682 189.355C86.4573 189.499 86.2216 189.601 85.9612 189.664V189.742C86.245 189.758 86.5172 189.845 86.7776 190.004C87.0406 190.16 87.2555 190.381 87.4221 190.668C87.5888 190.954 87.6721 191.301 87.6721 191.707C87.6721 192.121 87.5719 192.493 87.3713 192.824C87.1708 193.152 86.8687 193.411 86.4651 193.601C86.0614 193.792 85.5536 193.887 84.9417 193.887H81.7034ZM83.1526 192.676H84.7112C85.2372 192.676 85.6161 192.575 85.8479 192.375C86.0823 192.172 86.1995 191.911 86.1995 191.594C86.1995 191.357 86.1409 191.143 86.0237 190.953C85.9065 190.76 85.7398 190.609 85.5237 190.5C85.3075 190.388 85.0497 190.332 84.7502 190.332H83.1526V192.676ZM83.1526 189.289H84.5862C84.8362 189.289 85.0614 189.243 85.262 189.152C85.4625 189.058 85.62 188.927 85.7346 188.758C85.8518 188.586 85.9104 188.383 85.9104 188.148C85.9104 187.838 85.801 187.583 85.5823 187.383C85.3661 187.182 85.0445 187.082 84.6174 187.082H83.1526V189.289Z" fill="white"/>
<path d="M124.412 178.84H143.632M124.412 160.632C124.817 160.632 137.394 160.632 143.632 160.632M104.686 191.485V184.404H98.1111V191.485H104.686Z" stroke="#B27C40" stroke-opacity="0.23"/>
</svg>
