<svg width="470" height="473" viewBox="0 0 470 473" fill="none" xmlns="http://www.w3.org/2000/svg">
<path fill-rule="evenodd" clip-rule="evenodd" d="M361.12 69.0845V118.652H384.164V103.984H453.174V140.906H450.645V188.956H468.853V202.106L450.645 220.315V312.368H419.286V315.909H426.873V342.209H348.982V312.368H345.441V363.453H322.681L276.654 379.132H229.11V427.182C229.11 442.545 216.655 455 201.292 455C185.928 455 173.473 442.545 173.473 427.182V421.618H89.007L27.8068 360.418V313.38H50.5672V311.862H35.3936V274.434H68.7755V252.685H61.1887V263.813H26.7952L1.00003 238.017V215.257L28.3125 176.817H63.2119V184.404H74.3391V176.817H100.134V120.675L140.597 80.2118H173.979V18H264.009V57.9572L275.137 69.0845H361.12ZM104.686 373.062L109.238 368.51L97.6053 356.877H61.1887V364.464H73.8333L96.088 386.719V397.34L103.169 406.95H114.802V383.178L104.686 373.062ZM185.107 139.389V154.057H169.933V195.531H185.107V213.234H181.06V208.176H118.343V231.442L127.447 240.546V295.171H94.5706V274.434H90.0186V252.685H101.146V238.017L48.0382 219.303V212.222L85.4665 202.612H141.609V113.594L145.149 106.007H150.713V139.389H185.107ZM184.601 289.102V277.469H159.817V326.53H146.667L127.953 317.426H101.652V338.669H106.204L117.331 349.796L112.273 354.854L117.331 359.912L122.389 355.36L133.01 365.981V384.696H136.045L140.091 382.672H173.735V392.024H177.52V353.337H193.199V349.291L191.176 341.704V318.438L184.601 304.275V289.102ZM264.009 79.2002L254.399 69.5903L243.778 79.706V113.088H170.944L167.404 106.007H161.84V117.134H206.35V139.389H205.338V142.929H231.639L251.87 163.161H268.056V132.814H258.446V84.2581L264.009 79.2002ZM251.365 253.697V273.928H245.801L213.936 288.596H201.516V296.183H199.774V262.801H151.725V255.214H159.515V233.465H207.361V209.188H221.523V253.697H251.365ZM326.221 348.785H322.175V312.368H326.221V348.785ZM406.135 327.542V312.874H363.144V327.542H406.135ZM348.982 275.446V241.052H295.368V253.697H262.492V304.275L214.948 318.438L203.821 353.337V362.441H187.635V365.981H200.28V391.973H204.326V364.464H207.867V353.337H240.237V329.565H281.712V338.669H298.403V294.16H326.221V264.824H345.441V275.446H348.982ZM402.595 203.624H406.135V140.906H314.082V90.8333H297.391V183.392H265.021L256.928 176.093H254.905V212.728H238.214L231.639 218.797C231.341 220.339 231.802 220.673 233.156 220.821H239.226V222.338H288.287V207.164H303.461H318.128L333.808 218.292H370.225V246.11H363.144V255.214H393.491H406.135V231.948V227.902H402.595V203.624ZM432.942 207.164H423.838V189.462H432.942V207.164ZM328.244 121.686C328.244 119.172 330.282 117.134 332.796 117.134C335.31 117.134 337.348 119.172 337.348 121.686C337.348 124.2 335.31 126.238 332.796 126.238C330.282 126.238 328.244 124.2 328.244 121.686Z" fill="#271406"/>
<path d="M361.12 118.652H360.62V119.152H361.12V118.652ZM361.12 69.0845H361.62V68.5845H361.12V69.0845ZM384.164 118.652V119.152H384.664V118.652H384.164ZM384.164 103.984V103.484H383.664V103.984H384.164ZM453.174 103.984H453.674V103.484H453.174V103.984ZM453.174 140.906V141.406H453.674V140.906H453.174ZM450.645 140.906V140.406H450.145V140.906H450.645ZM450.645 188.956H450.145V189.456H450.645V188.956ZM468.853 188.956H469.353V188.456H468.853V188.956ZM468.853 202.106L469.207 202.46L469.353 202.314V202.106H468.853ZM450.645 220.315L450.291 219.961L450.145 220.108V220.315H450.645ZM450.645 312.368V312.868H451.145V312.368H450.645ZM419.286 312.368V311.868H418.786V312.368H419.286ZM419.286 315.909H418.786V316.409H419.286V315.909ZM426.873 315.909H427.373V315.409H426.873V315.909ZM426.873 342.209V342.709H427.373V342.209H426.873ZM348.982 342.209H348.482V342.709H348.982V342.209ZM348.982 312.368H349.482V311.868H348.982V312.368ZM345.441 312.368V311.868H344.941V312.368H345.441ZM345.441 363.453V363.953H345.941V363.453H345.441ZM322.681 363.453V362.953H322.598L322.519 362.979L322.681 363.453ZM276.654 379.132V379.632H276.737L276.815 379.605L276.654 379.132ZM229.11 379.132V378.632H228.61V379.132H229.11ZM173.473 421.618H173.973V421.118H173.473V421.618ZM89.007 421.618L88.6534 421.972L88.7999 422.118H89.007V421.618ZM27.8068 360.418H27.3068V360.625L27.4532 360.771L27.8068 360.418ZM27.8068 313.38V312.88H27.3068V313.38H27.8068ZM50.5672 313.38V313.88H51.0672V313.38H50.5672ZM50.5672 311.862H51.0672V311.362H50.5672V311.862ZM35.3936 311.862H34.8936V312.362H35.3936V311.862ZM35.3936 274.434V273.934H34.8936V274.434H35.3936ZM68.7755 274.434V274.934H69.2755V274.434H68.7755ZM68.7755 252.685H69.2755V252.185H68.7755V252.685ZM61.1887 252.685V252.185H60.6887V252.685H61.1887ZM61.1887 263.813V264.313H61.6887V263.813H61.1887ZM26.7952 263.813L26.4416 264.166L26.5881 264.313H26.7952V263.813ZM1.00003 238.017H0.500031V238.224L0.646484 238.371L1.00003 238.017ZM1.00003 215.257L0.592438 214.967L0.500031 215.097V215.257H1.00003ZM28.3125 176.817V176.317H28.0544L27.9049 176.528L28.3125 176.817ZM63.2119 176.817H63.7119V176.317H63.2119V176.817ZM63.2119 184.404H62.7119V184.904H63.2119V184.404ZM74.3391 184.404V184.904H74.8391V184.404H74.3391ZM74.3391 176.817V176.317H73.8391V176.817H74.3391ZM100.134 176.817V177.317H100.634V176.817H100.134ZM100.134 120.675L99.7808 120.321L99.6343 120.468V120.675H100.134ZM140.597 80.2118V79.7118H140.39L140.244 79.8583L140.597 80.2118ZM173.979 80.2118V80.7118H174.479V80.2118H173.979ZM173.979 18V17.5H173.479V18H173.979ZM264.009 18H264.509V17.5H264.009V18ZM264.009 57.9572H263.509V58.1643L263.656 58.3107L264.009 57.9572ZM275.137 69.0845L274.783 69.438L274.929 69.5845H275.137V69.0845ZM109.238 368.51L109.592 368.864L109.946 368.51L109.592 368.157L109.238 368.51ZM104.686 373.062L104.333 372.709L103.979 373.062L104.333 373.416L104.686 373.062ZM97.6053 356.877L97.9589 356.524L97.8124 356.377H97.6053V356.877ZM61.1887 356.877V356.377H60.6887V356.877H61.1887ZM61.1887 364.464H60.6887V364.964H61.1887V364.464ZM73.8333 364.464L74.1869 364.111L74.0404 363.964H73.8333V364.464ZM96.088 386.719H96.588V386.512L96.4415 386.365L96.088 386.719ZM96.088 397.34H95.588V397.505L95.6855 397.637L96.088 397.34ZM103.169 406.95L102.766 407.247L102.916 407.45H103.169V406.95ZM114.802 406.95V407.45H115.302V406.95H114.802ZM114.802 383.178H115.302V382.971L115.156 382.825L114.802 383.178ZM185.107 154.057V154.557H185.607V154.057H185.107ZM185.107 139.389H185.607V138.889H185.107V139.389ZM169.933 154.057V153.557H169.433V154.057H169.933ZM169.933 195.531H169.433V196.031H169.933V195.531ZM185.107 195.531H185.607V195.031H185.107V195.531ZM185.107 213.234V213.734H185.607V213.234H185.107ZM181.06 213.234H180.56V213.734H181.06V213.234ZM181.06 208.176H181.56V207.676H181.06V208.176ZM118.343 208.176V207.676H117.843V208.176H118.343ZM118.343 231.442H117.843V231.649L117.989 231.796L118.343 231.442ZM127.447 240.546H127.947V240.339L127.8 240.193L127.447 240.546ZM127.447 295.171V295.671H127.947V295.171H127.447ZM94.5706 295.171H94.0706V295.671H94.5706V295.171ZM94.5706 274.434H95.0706V273.934H94.5706V274.434ZM90.0186 274.434H89.5186V274.934H90.0186V274.434ZM90.0186 252.685V252.185H89.5186V252.685H90.0186ZM101.146 252.685V253.185H101.646V252.685H101.146ZM101.146 238.017H101.646V237.663L101.312 237.546L101.146 238.017ZM48.0382 219.303H47.5382V219.657L47.8721 219.775L48.0382 219.303ZM48.0382 212.222L47.9139 211.738L47.5382 211.834V212.222H48.0382ZM85.4665 202.612V202.112H85.4033L85.3421 202.128L85.4665 202.612ZM141.609 202.612V203.112H142.109V202.612H141.609ZM141.609 113.594L141.156 113.382L141.109 113.483V113.594H141.609ZM145.149 106.007V105.507H144.831L144.696 105.796L145.149 106.007ZM150.713 106.007H151.213V105.507H150.713V106.007ZM150.713 139.389H150.213V139.889H150.713V139.389ZM184.601 277.469H185.101V276.969H184.601V277.469ZM159.817 277.469V276.969H159.317V277.469H159.817ZM159.817 326.53V327.03H160.317V326.53H159.817ZM146.667 326.53L146.448 326.98L146.552 327.03H146.667V326.53ZM127.953 317.426L128.171 316.976L128.068 316.926H127.953V317.426ZM101.652 317.426V316.926H101.152V317.426H101.652ZM101.652 338.669H101.152V339.169H101.652V338.669ZM106.204 338.669L106.557 338.315L106.411 338.169H106.204V338.669ZM117.331 349.796L117.685 350.15L118.038 349.796L117.685 349.443L117.331 349.796ZM112.273 354.854L111.92 354.501L111.566 354.854L111.92 355.208L112.273 354.854ZM117.331 359.912L116.978 360.266L117.313 360.601L117.666 360.284L117.331 359.912ZM122.389 355.36L122.742 355.006L122.407 354.671L122.054 354.988L122.389 355.36ZM133.01 365.981H133.51V365.774L133.364 365.628L133.01 365.981ZM133.01 384.696H132.51V385.196H133.01V384.696ZM136.045 384.696V385.196H136.163L136.269 385.143L136.045 384.696ZM140.091 382.672V382.172H139.973L139.868 382.225L140.091 382.672ZM173.735 382.672H174.235V382.172H173.735V382.672ZM173.735 392.024H173.235V392.524H173.735V392.024ZM177.52 392.024V392.524H178.02V392.024H177.52ZM177.52 353.337V352.837H177.02V353.337H177.52ZM193.199 353.337V353.837H193.699V353.337H193.199ZM193.199 349.291H193.699V349.225L193.682 349.162L193.199 349.291ZM191.176 341.704H190.676V341.769L190.693 341.833L191.176 341.704ZM191.176 318.438H191.676V318.327L191.629 318.227L191.176 318.438ZM184.601 304.275H184.101V304.386L184.147 304.486L184.601 304.275ZM254.399 69.5903L254.753 69.2367L254.408 68.8917L254.055 69.2282L254.399 69.5903ZM264.009 79.2002L264.346 79.5702L264.734 79.2175L264.363 78.8467L264.009 79.2002ZM243.778 79.706L243.433 79.344L243.278 79.4917V79.706H243.778ZM243.778 113.088V113.588H244.278V113.088H243.778ZM170.944 113.088L170.497 113.312L170.635 113.588H170.944V113.088ZM167.404 106.007L167.851 105.783L167.713 105.507H167.404V106.007ZM161.84 106.007V105.507H161.34V106.007H161.84ZM161.84 117.134H161.34V117.634H161.84V117.134ZM206.35 117.134H206.85V116.634H206.35V117.134ZM206.35 139.389V139.889H206.85V139.389H206.35ZM205.338 139.389V138.889H204.838V139.389H205.338ZM205.338 142.929H204.838V143.429H205.338V142.929ZM231.639 142.929L231.992 142.576L231.846 142.429H231.639V142.929ZM251.87 163.161L251.517 163.514L251.663 163.661H251.87V163.161ZM268.056 163.161V163.661H268.556V163.161H268.056ZM268.056 132.814H268.556V132.314H268.056V132.814ZM258.446 132.814H257.946V133.314H258.446V132.814ZM258.446 84.2581L258.109 83.8882L257.946 84.0369V84.2581H258.446ZM251.365 273.928V274.428H251.865V273.928H251.365ZM251.365 253.697H251.865V253.197H251.365V253.697ZM245.801 273.928V273.428H245.691L245.592 273.474L245.801 273.928ZM213.936 288.596V289.096H214.046L214.145 289.05L213.936 288.596ZM201.516 288.596V288.096H201.016V288.596H201.516ZM201.516 296.183V296.683H202.016V296.183H201.516ZM199.774 296.183H199.274V296.683H199.774V296.183ZM199.774 262.801H200.274V262.301H199.774V262.801ZM151.725 262.801H151.225V263.301H151.725V262.801ZM151.725 255.214V254.714H151.225V255.214H151.725ZM159.515 255.214V255.714H160.015V255.214H159.515ZM159.515 233.465V232.965H159.015V233.465H159.515ZM207.361 233.465V233.965H207.861V233.465H207.361ZM207.361 209.188V208.688H206.861V209.188H207.361ZM221.523 209.188H222.023V208.688H221.523V209.188ZM221.523 253.697H221.023V254.197H221.523V253.697ZM322.175 348.785H321.675V349.285H322.175V348.785ZM326.221 348.785V349.285H326.721V348.785H326.221ZM322.175 312.368V311.868H321.675V312.368H322.175ZM326.221 312.368H326.721V311.868H326.221V312.368ZM406.135 312.874H406.635V312.374H406.135V312.874ZM406.135 327.542V328.042H406.635V327.542H406.135ZM363.144 312.874V312.374H362.644V312.874H363.144ZM363.144 327.542H362.644V328.042H363.144V327.542ZM348.982 241.052H349.482V240.552H348.982V241.052ZM348.982 275.446V275.946H349.482V275.446H348.982ZM295.368 241.052V240.552H294.868V241.052H295.368ZM295.368 253.697V254.197H295.868V253.697H295.368ZM262.492 253.697V253.197H261.992V253.697H262.492ZM262.492 304.275L262.635 304.755L262.992 304.648V304.275H262.492ZM214.948 318.438L214.805 317.958L214.552 318.034L214.472 318.286L214.948 318.438ZM203.821 353.337L203.344 353.185L203.321 353.259V353.337H203.821ZM203.821 362.441V362.941H204.321V362.441H203.821ZM187.635 362.441V361.941H187.135V362.441H187.635ZM187.635 365.981H187.135V366.481H187.635V365.981ZM200.28 365.981H200.78V365.481H200.28V365.981ZM200.28 391.973H199.78V392.473H200.28V391.973ZM204.326 391.973V392.473H204.826V391.973H204.326ZM204.326 364.464V363.964H203.826V364.464H204.326ZM207.867 364.464V364.964H208.367V364.464H207.867ZM207.867 353.337V352.837H207.367V353.337H207.867ZM240.237 353.337V353.837H240.737V353.337H240.237ZM240.237 329.565V329.065H239.737V329.565H240.237ZM281.712 329.565H282.212V329.065H281.712V329.565ZM281.712 338.669H281.212V339.169H281.712V338.669ZM298.403 338.669V339.169H298.903V338.669H298.403ZM298.403 294.16V293.66H297.903V294.16H298.403ZM326.221 294.16V294.66H326.721V294.16H326.221ZM326.221 264.824V264.324H325.721V264.824H326.221ZM345.441 264.824H345.941V264.324H345.441V264.824ZM345.441 275.446H344.941V275.946H345.441V275.446ZM406.135 203.624V204.124H406.635V203.624H406.135ZM402.595 203.624V203.124H402.095V203.624H402.595ZM406.135 140.906H406.635V140.406H406.135V140.906ZM314.082 140.906H313.582V141.406H314.082V140.906ZM314.082 90.8333H314.582V90.3333H314.082V90.8333ZM297.391 90.8333V90.3333H296.891V90.8333H297.391ZM297.391 183.392V183.892H297.891V183.392H297.391ZM265.021 183.392L264.686 183.764L264.829 183.892H265.021V183.392ZM256.928 176.093L257.263 175.722L257.12 175.593H256.928V176.093ZM254.905 176.093V175.593H254.405V176.093H254.905ZM254.905 212.728V213.228H255.405V212.728H254.905ZM238.214 212.728V212.228H238.019L237.875 212.361L238.214 212.728ZM231.639 218.797L231.3 218.43L231.179 218.541L231.148 218.703L231.639 218.797ZM233.156 220.821L233.102 221.318L233.129 221.321H233.156V220.821ZM239.226 220.821H239.726V220.321H239.226V220.821ZM239.226 222.338H238.726V222.838H239.226V222.338ZM288.287 222.338V222.838H288.787V222.338H288.287ZM288.287 207.164V206.664H287.787V207.164H288.287ZM318.128 207.164L318.418 206.757L318.288 206.664H318.128V207.164ZM333.808 218.292L333.519 218.699L333.648 218.792H333.808V218.292ZM370.225 218.292H370.725V217.792H370.225V218.292ZM370.225 246.11V246.61H370.725V246.11H370.225ZM363.144 246.11V245.61H362.644V246.11H363.144ZM363.144 255.214H362.644V255.714H363.144V255.214ZM406.135 255.214V255.714H406.635V255.214H406.135ZM406.135 227.902H406.635V227.402H406.135V227.902ZM402.595 227.902H402.095V228.402H402.595V227.902ZM423.838 207.164H423.338V207.664H423.838V207.164ZM432.942 207.164V207.664H433.442V207.164H432.942ZM423.838 189.462V188.962H423.338V189.462H423.838ZM432.942 189.462H433.442V188.962H432.942V189.462ZM361.12 118.652H361.62V69.0845H361.12H360.62V118.652H361.12ZM384.164 118.652V118.152H361.12V118.652V119.152H384.164V118.652ZM384.164 103.984H383.664V118.652H384.164H384.664V103.984H384.164ZM453.174 103.984V103.484H384.164V103.984V104.484H453.174V103.984ZM453.174 140.906H453.674V103.984H453.174H452.674V140.906H453.174ZM450.645 140.906V141.406H453.174V140.906V140.406H450.645V140.906ZM450.645 188.956H451.145V140.906H450.645H450.145V188.956H450.645ZM468.853 188.956V188.456H450.645V188.956V189.456H468.853V188.956ZM468.853 202.106H469.353V188.956H468.853H468.353V202.106H468.853ZM450.645 220.315L450.998 220.668L469.207 202.46L468.853 202.106L468.499 201.753L450.291 219.961L450.645 220.315ZM450.645 312.368H451.145V220.315H450.645H450.145V312.368H450.645ZM419.286 312.368V312.868H450.645V312.368V311.868H419.286V312.368ZM419.286 315.909H419.786V312.368H419.286H418.786V315.909H419.286ZM426.873 315.909V315.409H419.286V315.909V316.409H426.873V315.909ZM426.873 342.209H427.373V315.909H426.873H426.373V342.209H426.873ZM348.982 342.209V342.709H426.873V342.209V341.709H348.982V342.209ZM348.982 312.368H348.482V342.209H348.982H349.482V312.368H348.982ZM345.441 312.368V312.868H348.982V312.368V311.868H345.441V312.368ZM345.441 363.453H345.941V312.368H345.441H344.941V363.453H345.441ZM322.681 363.453V363.953H345.441V363.453V362.953H322.681V363.453ZM276.654 379.132L276.815 379.605L322.842 363.926L322.681 363.453L322.519 362.979L276.493 378.659L276.654 379.132ZM229.11 379.132V379.632H276.654V379.132V378.632H229.11V379.132ZM229.11 427.182H229.61V379.132H229.11H228.61V427.182H229.11ZM201.292 455V455.5C216.931 455.5 229.61 442.821 229.61 427.182H229.11H228.61C228.61 442.269 216.379 454.5 201.292 454.5V455ZM173.473 427.182H172.973C172.973 442.821 185.652 455.5 201.292 455.5V455V454.5C186.204 454.5 173.973 442.269 173.973 427.182H173.473ZM173.473 421.618H172.973V427.182H173.473H173.973V421.618H173.473ZM89.007 421.618V422.118H173.473V421.618V421.118H89.007V421.618ZM27.8068 360.418L27.4532 360.771L88.6534 421.972L89.007 421.618L89.3605 421.265L28.1603 360.064L27.8068 360.418ZM27.8068 313.38H27.3068V360.418H27.8068H28.3068V313.38H27.8068ZM50.5672 313.38V312.88H27.8068V313.38V313.88H50.5672V313.38ZM50.5672 311.862H50.0672V313.38H50.5672H51.0672V311.862H50.5672ZM35.3936 311.862V312.362H50.5672V311.862V311.362H35.3936V311.862ZM35.3936 274.434H34.8936V311.862H35.3936H35.8936V274.434H35.3936ZM68.7755 274.434V273.934H35.3936V274.434V274.934H68.7755V274.434ZM68.7755 252.685H68.2755V274.434H68.7755H69.2755V252.685H68.7755ZM61.1887 252.685V253.185H68.7755V252.685V252.185H61.1887V252.685ZM61.1887 263.813H61.6887V252.685H61.1887H60.6887V263.813H61.1887ZM26.7952 263.813V264.313H61.1887V263.813V263.313H26.7952V263.813ZM1.00003 238.017L0.646484 238.371L26.4416 264.166L26.7952 263.813L27.1487 263.459L1.35358 237.664L1.00003 238.017ZM1.00003 215.257H0.500031V238.017H1.00003H1.50003V215.257H1.00003ZM28.3125 176.817L27.9049 176.528L0.592438 214.967L1.00003 215.257L1.40762 215.547L28.7201 177.107L28.3125 176.817ZM63.2119 176.817V176.317H28.3125V176.817V177.317H63.2119V176.817ZM63.2119 184.404H63.7119V176.817H63.2119H62.7119V184.404H63.2119ZM74.3391 184.404V183.904H63.2119V184.404V184.904H74.3391V184.404ZM74.3391 176.817H73.8391V184.404H74.3391H74.8391V176.817H74.3391ZM100.134 176.817V176.317H74.3391V176.817V177.317H100.134V176.817ZM100.134 120.675H99.6343V176.817H100.134H100.634V120.675H100.134ZM140.597 80.2118L140.244 79.8583L99.7808 120.321L100.134 120.675L100.488 121.028L140.951 80.5654L140.597 80.2118ZM173.979 80.2118V79.7118H140.597V80.2118V80.7118H173.979V80.2118ZM173.979 18H173.479V80.2118H173.979H174.479V18H173.979ZM264.009 18V17.5H173.979V18V18.5H264.009V18ZM264.009 57.9572H264.509V18H264.009H263.509V57.9572H264.009ZM275.137 69.0845L275.49 68.731L264.363 57.6036L264.009 57.9572L263.656 58.3107L274.783 69.438L275.137 69.0845ZM361.12 69.0845V68.5845H275.137V69.0845V69.5845H361.12V69.0845ZM109.238 368.51L108.885 368.157L104.333 372.709L104.686 373.062L105.04 373.416L109.592 368.864L109.238 368.51ZM97.6053 356.877L97.2518 357.231L108.885 368.864L109.238 368.51L109.592 368.157L97.9589 356.524L97.6053 356.877ZM61.1887 356.877V357.377H97.6053V356.877V356.377H61.1887V356.877ZM61.1887 364.464H61.6887V356.877H61.1887H60.6887V364.464H61.1887ZM73.8333 364.464V363.964H61.1887V364.464V364.964H73.8333V364.464ZM96.088 386.719L96.4415 386.365L74.1869 364.111L73.8333 364.464L73.4798 364.818L95.7344 387.072L96.088 386.719ZM96.088 397.34H96.588V386.719H96.088H95.588V397.34H96.088ZM103.169 406.95L103.572 406.654L96.4905 397.044L96.088 397.34L95.6855 397.637L102.766 407.247L103.169 406.95ZM114.802 406.95V406.45H103.169V406.95V407.45H114.802V406.95ZM114.802 383.178H114.302V406.95H114.802H115.302V383.178H114.802ZM104.686 373.062L104.333 373.416L114.449 383.532L114.802 383.178L115.156 382.825L105.04 372.709L104.686 373.062ZM185.107 154.057H185.607V139.389H185.107H184.607V154.057H185.107ZM169.933 154.057V154.557H185.107V154.057V153.557H169.933V154.057ZM169.933 195.531H170.433V154.057H169.933H169.433V195.531H169.933ZM185.107 195.531V195.031H169.933V195.531V196.031H185.107V195.531ZM185.107 213.234H185.607V195.531H185.107H184.607V213.234H185.107ZM181.06 213.234V213.734H185.107V213.234V212.734H181.06V213.234ZM181.06 208.176H180.56V213.234H181.06H181.56V208.176H181.06ZM118.343 208.176V208.676H181.06V208.176V207.676H118.343V208.176ZM118.343 231.442H118.843V208.176H118.343H117.843V231.442H118.343ZM127.447 240.546L127.8 240.193L118.696 231.089L118.343 231.442L117.989 231.796L127.093 240.9L127.447 240.546ZM127.447 295.171H127.947V240.546H127.447H126.947V295.171H127.447ZM94.5706 295.171V295.671H127.447V295.171V294.671H94.5706V295.171ZM94.5706 274.434H94.0706V295.171H94.5706H95.0706V274.434H94.5706ZM90.0186 274.434V274.934H94.5706V274.434V273.934H90.0186V274.434ZM90.0186 252.685H89.5186V274.434H90.0186H90.5186V252.685H90.0186ZM101.146 252.685V252.185H90.0186V252.685V253.185H101.146V252.685ZM101.146 238.017H100.646V252.685H101.146H101.646V238.017H101.146ZM48.0382 219.303L47.8721 219.775L100.98 238.489L101.146 238.017L101.312 237.546L48.2044 218.832L48.0382 219.303ZM48.0382 212.222H47.5382V219.303H48.0382H48.5382V212.222H48.0382ZM85.4665 202.612L85.3421 202.128L47.9139 211.738L48.0382 212.222L48.1626 212.707L85.5908 203.097L85.4665 202.612ZM141.609 202.612V202.112H85.4665V202.612V203.112H141.609V202.612ZM141.609 113.594H141.109V202.612H141.609H142.109V113.594H141.609ZM145.149 106.007L144.696 105.796L141.156 113.382L141.609 113.594L142.062 113.805L145.602 106.218L145.149 106.007ZM150.713 106.007V105.507H145.149V106.007V106.507H150.713V106.007ZM150.713 139.389H151.213V106.007H150.713H150.213V139.389H150.713ZM185.107 139.389V138.889H150.713V139.389V139.889H185.107V139.389ZM184.601 277.469H184.101V289.102H184.601H185.101V277.469H184.601ZM159.817 277.469V277.969H184.601V277.469V276.969H159.817V277.469ZM159.817 326.53H160.317V277.469H159.817H159.317V326.53H159.817ZM146.667 326.53V327.03H159.817V326.53V326.03H146.667V326.53ZM127.953 317.426L127.734 317.876L146.448 326.98L146.667 326.53L146.885 326.08L128.171 316.976L127.953 317.426ZM101.652 317.426V317.926H127.953V317.426V316.926H101.652V317.426ZM101.652 338.669H102.152V317.426H101.652H101.152V338.669H101.652ZM106.204 338.669V338.169H101.652V338.669V339.169H106.204V338.669ZM117.331 349.796L117.685 349.443L106.557 338.315L106.204 338.669L105.85 339.023L116.978 350.15L117.331 349.796ZM112.273 354.854L112.627 355.208L117.685 350.15L117.331 349.796L116.978 349.443L111.92 354.501L112.273 354.854ZM117.331 359.912L117.685 359.558L112.627 354.501L112.273 354.854L111.92 355.208L116.978 360.266L117.331 359.912ZM122.389 355.36L122.054 354.988L116.997 359.54L117.331 359.912L117.666 360.284L122.723 355.732L122.389 355.36ZM133.01 365.981L133.364 365.628L122.742 355.006L122.389 355.36L122.035 355.714L132.657 366.335L133.01 365.981ZM133.01 384.696H133.51V365.981H133.01H132.51V384.696H133.01ZM136.045 384.696V384.196H133.01V384.696V385.196H136.045V384.696ZM140.091 382.672L139.868 382.225L135.822 384.248L136.045 384.696L136.269 385.143L140.315 383.12L140.091 382.672ZM173.735 382.672V382.172H140.091V382.672V383.172H173.735V382.672ZM173.735 392.024H174.235V382.672H173.735H173.235V392.024H173.735ZM177.52 392.024V391.524H173.735V392.024V392.524H177.52V392.024ZM177.52 353.337H177.02V392.024H177.52H178.02V353.337H177.52ZM193.199 353.337V352.837H177.52V353.337V353.837H193.199V353.337ZM193.199 349.291H192.699V353.337H193.199H193.699V349.291H193.199ZM191.176 341.704L190.693 341.833L192.716 349.419L193.199 349.291L193.682 349.162L191.659 341.575L191.176 341.704ZM191.176 318.438H190.676V341.704H191.176H191.676V318.438H191.176ZM184.601 304.275L184.147 304.486L190.722 318.648L191.176 318.438L191.629 318.227L185.054 304.065L184.601 304.275ZM184.601 289.102H184.101V304.275H184.601H185.101V289.102H184.601ZM254.399 69.5903L254.046 69.9438L263.656 79.5538L264.009 79.2002L264.363 78.8467L254.753 69.2367L254.399 69.5903ZM243.778 79.706L244.123 80.0681L254.744 69.9523L254.399 69.5903L254.055 69.2282L243.433 79.344L243.778 79.706ZM243.778 113.088H244.278V79.706H243.778H243.278V113.088H243.778ZM170.944 113.088V113.588H243.778V113.088V112.588H170.944V113.088ZM167.404 106.007L166.957 106.231L170.497 113.312L170.944 113.088L171.392 112.864L167.851 105.783L167.404 106.007ZM161.84 106.007V106.507H167.404V106.007V105.507H161.84V106.007ZM161.84 117.134H162.34V106.007H161.84H161.34V117.134H161.84ZM206.35 117.134V116.634H161.84V117.134V117.634H206.35V117.134ZM206.35 139.389H206.85V117.134H206.35H205.85V139.389H206.35ZM205.338 139.389V139.889H206.35V139.389V138.889H205.338V139.389ZM205.338 142.929H205.838V139.389H205.338H204.838V142.929H205.338ZM231.639 142.929V142.429H205.338V142.929V143.429H231.639V142.929ZM251.87 163.161L252.224 162.807L231.992 142.576L231.639 142.929L231.285 143.283L251.517 163.514L251.87 163.161ZM268.056 163.161V162.661H251.87V163.161V163.661H268.056V163.161ZM268.056 132.814H267.556V163.161H268.056H268.556V132.814H268.056ZM258.446 132.814V133.314H268.056V132.814V132.314H258.446V132.814ZM258.446 84.2581H257.946V132.814H258.446H258.946V84.2581H258.446ZM264.009 79.2002L263.673 78.8303L258.109 83.8882L258.446 84.2581L258.782 84.6281L264.346 79.5702L264.009 79.2002ZM251.365 273.928H251.865V253.697H251.365H250.865V273.928H251.365ZM245.801 273.928V274.428H251.365V273.928V273.428H245.801V273.928ZM213.936 288.596L214.145 289.05L246.01 274.382L245.801 273.928L245.592 273.474L213.727 288.142L213.936 288.596ZM201.516 288.596V289.096H213.936V288.596V288.096H201.516V288.596ZM201.516 296.183H202.016V288.596H201.516H201.016V296.183H201.516ZM199.774 296.183V296.683H201.516V296.183V295.683H199.774V296.183ZM199.774 262.801H199.274V296.183H199.774H200.274V262.801H199.774ZM151.725 262.801V263.301H199.774V262.801V262.301H151.725V262.801ZM151.725 255.214H151.225V262.801H151.725H152.225V255.214H151.725ZM159.515 255.214V254.714H151.725V255.214V255.714H159.515V255.214ZM159.515 233.465H159.015V255.214H159.515H160.015V233.465H159.515ZM207.361 233.465V232.965H159.515V233.465V233.965H207.361V233.465ZM207.361 209.188H206.861V233.465H207.361H207.861V209.188H207.361ZM221.523 209.188V208.688H207.361V209.188V209.688H221.523V209.188ZM221.523 253.697H222.023V209.188H221.523H221.023V253.697H221.523ZM251.365 253.697V253.197H221.523V253.697V254.197H251.365V253.697ZM322.175 348.785V349.285H326.221V348.785V348.285H322.175V348.785ZM322.175 312.368H321.675V348.785H322.175H322.675V312.368H322.175ZM326.221 312.368V311.868H322.175V312.368V312.868H326.221V312.368ZM326.221 348.785H326.721V312.368H326.221H325.721V348.785H326.221ZM406.135 312.874H405.635V327.542H406.135H406.635V312.874H406.135ZM363.144 312.874V313.374H406.135V312.874V312.374H363.144V312.874ZM363.144 327.542H363.644V312.874H363.144H362.644V327.542H363.144ZM406.135 327.542V327.042H363.144V327.542V328.042H406.135V327.542ZM348.982 241.052H348.482V275.446H348.982H349.482V241.052H348.982ZM295.368 241.052V241.552H348.982V241.052V240.552H295.368V241.052ZM295.368 253.697H295.868V241.052H295.368H294.868V253.697H295.368ZM262.492 253.697V254.197H295.368V253.697V253.197H262.492V253.697ZM262.492 304.275H262.992V253.697H262.492H261.992V304.275H262.492ZM214.948 318.438L215.091 318.917L262.635 304.755L262.492 304.275L262.349 303.796L214.805 317.958L214.948 318.438ZM203.821 353.337L204.297 353.489L215.424 318.589L214.948 318.438L214.472 318.286L203.344 353.185L203.821 353.337ZM203.821 362.441H204.321V353.337H203.821H203.321V362.441H203.821ZM187.635 362.441V362.941H203.821V362.441V361.941H187.635V362.441ZM187.635 365.981H188.135V362.441H187.635H187.135V365.981H187.635ZM200.28 365.981V365.481H187.635V365.981V366.481H200.28V365.981ZM200.28 391.973H200.78V365.981H200.28H199.78V391.973H200.28ZM204.326 391.973V391.473H200.28V391.973V392.473H204.326V391.973ZM204.326 364.464H203.826V391.973H204.326H204.826V364.464H204.326ZM207.867 364.464V363.964H204.326V364.464V364.964H207.867V364.464ZM207.867 353.337H207.367V364.464H207.867H208.367V353.337H207.867ZM240.237 353.337V352.837H207.867V353.337V353.837H240.237V353.337ZM240.237 329.565H239.737V353.337H240.237H240.737V329.565H240.237ZM281.712 329.565V329.065H240.237V329.565V330.065H281.712V329.565ZM281.712 338.669H282.212V329.565H281.712H281.212V338.669H281.712ZM298.403 338.669V338.169H281.712V338.669V339.169H298.403V338.669ZM298.403 294.16H297.903V338.669H298.403H298.903V294.16H298.403ZM326.221 294.16V293.66H298.403V294.16V294.66H326.221V294.16ZM326.221 264.824H325.721V294.16H326.221H326.721V264.824H326.221ZM345.441 264.824V264.324H326.221V264.824V265.324H345.441V264.824ZM345.441 275.446H345.941V264.824H345.441H344.941V275.446H345.441ZM348.982 275.446V274.946H345.441V275.446V275.946H348.982V275.446ZM406.135 203.624V203.124H402.595V203.624V204.124H406.135V203.624ZM406.135 140.906H405.635V203.624H406.135H406.635V140.906H406.135ZM314.082 140.906V141.406H406.135V140.906V140.406H314.082V140.906ZM314.082 90.8333H313.582V140.906H314.082H314.582V90.8333H314.082ZM297.391 90.8333V91.3333H314.082V90.8333V90.3333H297.391V90.8333ZM297.391 183.392H297.891V90.8333H297.391H296.891V183.392H297.391ZM265.021 183.392V183.892H297.391V183.392V182.892H265.021V183.392ZM256.928 176.093L256.593 176.464L264.686 183.764L265.021 183.392L265.356 183.021L257.263 175.722L256.928 176.093ZM254.905 176.093V176.593H256.928V176.093V175.593H254.905V176.093ZM254.905 212.728H255.405V176.093H254.905H254.405V212.728H254.905ZM238.214 212.728V213.228H254.905V212.728V212.228H238.214V212.728ZM231.639 218.797L231.978 219.165L238.553 213.095L238.214 212.728L237.875 212.361L231.3 218.43L231.639 218.797ZM233.156 220.821L233.21 220.324C232.883 220.288 232.642 220.244 232.464 220.185C232.289 220.127 232.206 220.064 232.161 220.01C232.075 219.908 231.982 219.654 232.13 218.892L231.639 218.797L231.148 218.703C230.997 219.483 230.987 220.167 231.395 220.653C231.597 220.894 231.865 221.039 232.148 221.134C232.428 221.227 232.752 221.28 233.102 221.318L233.156 220.821ZM239.226 220.821V220.321H233.156V220.821V221.321H239.226V220.821ZM239.226 222.338H239.726V220.821H239.226H238.726V222.338H239.226ZM288.287 222.338V221.838H239.226V222.338V222.838H288.287V222.338ZM288.287 207.164H287.787V222.338H288.287H288.787V207.164H288.287ZM303.461 207.164V206.664H288.287V207.164V207.664H303.461V207.164ZM318.128 207.164V206.664H303.461V207.164V207.664H318.128V207.164ZM333.808 218.292L334.097 217.884L318.418 206.757L318.128 207.164L317.839 207.572L333.519 218.699L333.808 218.292ZM370.225 218.292V217.792H333.808V218.292V218.792H370.225V218.292ZM370.225 246.11H370.725V218.292H370.225H369.725V246.11H370.225ZM363.144 246.11V246.61H370.225V246.11V245.61H363.144V246.11ZM363.144 255.214H363.644V246.11H363.144H362.644V255.214H363.144ZM393.491 255.214V254.714H363.144V255.214V255.714H393.491V255.214ZM406.135 255.214V254.714H393.491V255.214V255.714H406.135V255.214ZM406.135 231.948H405.635V255.214H406.135H406.635V231.948H406.135ZM406.135 227.902H405.635V231.948H406.135H406.635V227.902H406.135ZM402.595 227.902V228.402H406.135V227.902V227.402H402.595V227.902ZM402.595 203.624H402.095V227.902H402.595H403.095V203.624H402.595ZM423.838 207.164V207.664H432.942V207.164V206.664H423.838V207.164ZM423.838 189.462H423.338V207.164H423.838H424.338V189.462H423.838ZM432.942 189.462V188.962H423.838V189.462V189.962H432.942V189.462ZM432.942 207.164H433.442V189.462H432.942H432.442V207.164H432.942ZM332.796 117.134V116.634C330.006 116.634 327.744 118.896 327.744 121.686H328.244H328.744C328.744 119.448 330.558 117.634 332.796 117.634V117.134ZM337.348 121.686H337.848C337.848 118.896 335.587 116.634 332.796 116.634V117.134V117.634C335.034 117.634 336.848 119.448 336.848 121.686H337.348ZM332.796 126.238V126.738C335.587 126.738 337.848 124.477 337.848 121.686H337.348H336.848C336.848 123.924 335.034 125.738 332.796 125.738V126.238ZM328.244 121.686H327.744C327.744 124.477 330.006 126.738 332.796 126.738V126.238V125.738C330.558 125.738 328.744 123.924 328.744 121.686H328.244Z" fill="#B27C40"/>
<path d="M298.403 338.669V345.244H290.816V341.957M290.816 338.669V341.957M290.816 341.957H287.781V338.669M345.441 312.368V294.16H349.487V289.608H372.754V280.503H348.982V275.446M326.221 312.368V294.16" stroke="#B27C40"/>
<path d="M333.302 140.906V126.238M337.854 140.906V95.8912M268.056 139.895H275.137V132.814M275.137 89.316V132.814M268.056 132.814H275.137" stroke="#B27C40"/>
<path d="M262.998 132.814V128.262H258.446" stroke="#B27C40"/>
<path d="M236.697 253.697V246.11H228.604V253.697" stroke="#B27C40"/>
<path d="M295.368 241.052H266.033" stroke="#B27C40"/>
<path d="M341.895 240.552V233.459H348.987V240.552H341.895Z" stroke="#B27C40"/>
<path d="M454.185 188.956V196.037H450.645V188.956" stroke="#B27C40"/>
<path d="M431.931 122.698H435.471V130.285H421.309V122.698H424.85M431.931 122.698V119.157H424.85V122.698M431.931 122.698H424.85" stroke="#B27C40"/>
<path d="M450.645 277.974H443.058M450.645 270.388H428.39V277.974H439.517M443.058 277.974H439.517M443.058 277.974V281.515M450.645 285.055H443.058V281.515M439.517 277.974V281.515H443.058M399.054 312.874V304.781H391.468V312.874M388.433 255.214V262.801H381.352V255.214" stroke="#B27C40"/>
<path d="M318.129 241.052V236.5H275.643" stroke="#B27C40"/>
<path d="M221.523 215.257L230.627 208.176" stroke="#B27C40"/>
<path d="M218.489 209.187V183.898H210.396V209.378" stroke="#B27C40"/>
<path d="M207.361 209.187H203.315V233.465" stroke="#B27C40"/>
<path d="M177.52 277.469V270.388M177.52 262.801V270.388M177.52 270.388H173.473V262.801M146.161 224.867V217.28H138.574V224.867H146.161Z" stroke="#B27C40"/>
<path d="M127.447 295.171H134.528V288.09H127.447M187.636 365.981C187.636 366.386 187.636 373.231 187.636 376.603H200.28V365.981H187.636Z" stroke="#B27C40"/>
<path d="M264.009 27.6099H233.662V17.9999M264.009 42.7835H260.975V52.3935H264.009M211.407 17.9999V27.6099H173.979M173.979 52.3935H177.52V42.7835H173.979M141.609 142.929H128.458V121.18M100.134 148.493H107.721V140.906H100.134M128.458 190.979V189.462H129.47V159.115H128.458V157.597H130.987V190.979H128.458ZM128.458 190.979H121.883M50.5672 313.38V339.175M50.5672 339.175H52.5903M50.5672 339.175H48.544M48.0382 313.38V339.175H48.544M48.544 339.175C48.544 339.579 48.544 343.39 48.544 345.244M48.544 345.244H45.5093M48.544 345.244H52.5903M33.3704 213.234L24.772 227.902L18.1968 223.855L26.7952 209.187L33.3704 213.234ZM86.9838 331.588V315.403H79.9028V322.484H65.235V331.588H86.9838Z" stroke="#B27C40"/>
<path d="M114.802 406.95H122.389V402.904M114.802 402.398H118.596M118.596 402.398H122.389V402.904M118.596 402.398V398.858H114.802M121.883 401.892H159.312V402.904H122.389" stroke="#B27C40"/>
<path d="M51.073 311.357H35.8994V295.529H51.073V311.357Z" fill="#F08234" fill-opacity="0.23"/>
<path d="M51.073 344.739H49.0498V339.681H51.073V344.739Z" fill="#F08234" fill-opacity="0.23"/>
<path d="M52.5903 347.268V345.75H51.0728V295.525H94.0649V356.372H61.6948L52.5903 347.268ZM87.4897 314.897H79.397V321.978H64.729V332.094H87.4897V314.897Z" fill="#F08234" fill-opacity="0.23"/>
<path d="M64.4302 316.287H65.9771L63.1606 308.287H61.3716L58.5513 316.287H60.0981L62.2349 309.928H62.2974L64.4302 316.287ZM64.3794 313.15H60.1606V314.314H64.3794V313.15Z" fill="white"/>
<path d="M399.56 304.275H390.961V312.368H362.637V290.113H373.259V279.998H362.637V255.72H380.846V263.307H388.939V255.72H406.641V312.368H399.56V304.275Z" fill="#F08234" fill-opacity="0.23"/>
<path d="M381.635 287.963V279.963H384.698C385.276 279.963 385.756 280.054 386.139 280.236C386.524 280.416 386.812 280.662 387.002 280.975C387.195 281.287 387.291 281.641 387.291 282.037C387.291 282.363 387.229 282.641 387.104 282.873C386.979 283.102 386.811 283.288 386.6 283.432C386.389 283.575 386.153 283.678 385.893 283.74V283.818C386.177 283.834 386.449 283.921 386.709 284.08C386.972 284.236 387.187 284.458 387.354 284.744C387.52 285.031 387.604 285.377 387.604 285.783C387.604 286.197 387.503 286.57 387.303 286.9C387.102 287.229 386.8 287.488 386.397 287.678C385.993 287.868 385.485 287.963 384.873 287.963H381.635ZM383.084 286.752H384.643C385.169 286.752 385.548 286.652 385.78 286.451C386.014 286.248 386.131 285.988 386.131 285.67C386.131 285.433 386.073 285.219 385.955 285.029C385.838 284.837 385.671 284.686 385.455 284.576C385.239 284.464 384.981 284.408 384.682 284.408H383.084V286.752ZM383.084 283.365H384.518C384.768 283.365 384.993 283.32 385.194 283.229C385.394 283.135 385.552 283.003 385.666 282.834C385.783 282.662 385.842 282.459 385.842 282.225C385.842 281.915 385.733 281.66 385.514 281.459C385.298 281.258 384.976 281.158 384.549 281.158H383.084V283.365Z" fill="white"/>
<path d="M345.441 294.16H326.221M345.441 312.368C345.036 312.368 332.459 312.368 326.221 312.368M365.167 281.515V288.596H371.742V281.515H365.167Z" stroke="#B27C40" stroke-opacity="0.23"/>
</svg>
