<svg width="439" height="447" viewBox="0 0 439 447" fill="none" xmlns="http://www.w3.org/2000/svg">
<path fill-rule="evenodd" clip-rule="evenodd" d="M16.5 280V202.5H1V101H31.5V128H73.5V105H69.5V82H131.5V106.5H193V18H230V80H297V54.5H386V81H365.5V84H368.5V91H411.5V107.5H438.5V123.5H436.5V178.5H438.5V193.5H428.5L400.5 173.5H367.5V221.5H378V206H407.5V264.5H421.5V291H400V339.768H312.5V375H233.5V429H216L202 428V426.5L184 428V426.5H173V378.5H175V373.295H168V377H102V365H64V272H75.5V265.5H50V280H16.5ZM277 96V103.5H323.5V125H342V105H345.5L350.5 99V84H353.5V81H329.5V71.5H326.748V96H277ZM369.5 103.5V128H400V103.5H369.5ZM319 149.5L307 172V174H314V189.5L309 199.5V218.5H337V202H351.5V188H330V153.5L324.5 141.5H323.5V149.5H319ZM227 204.5V250H225V272H263V265.5H275.5V293.5H342.5V272H372V275.5H374V264.5H381V243H374L359.5 258H337V234.5H319V249.5H289L277.5 238V173H266.5V199H222.5V202C222.847 203.313 223.232 203.903 224.5 204.5H227ZM109.5 324.5H138.5V302H152V317.5H177.5V302H180V313.5H225V287.5H263V309.5H358V287.5H372V284H374V294H366.5V315.5H276.5V355H233.5V344H223.5V357H136L132.5 353V335H109.5V324.5ZM159.5 211H153.5V158.4H178V125H193V131H218V106.5L226.5 96H265V134.5H281.5V159.5H248.5V185.5H241.5V172.5H200.5V184L209.74 193.5V200H189.5V211H186.5V196.5H159.5V211ZM87 128V105H98V97.5H112V125H163.663V148H137.5V170.5H108V128H87ZM73.5 160H38.5V176.5C38.5 176.9 61.8333 176.667 73.5 176.5V160ZM109 272V310.5H115.5V272.5H177.5V286.5H180V249.5H189.5V226.5H154L137 243.5H125V213H90.5L80.5 202.5H38.5V231.5H93.5V265.5H91V272H109Z" fill="#271406"/>
<path d="M16.5 202.5H17V202H16.5V202.5ZM16.5 280H16V280.5H16.5V280ZM1 202.5H0.5V203H1V202.5ZM1 101V100.5H0.5V101H1ZM31.5 101H32V100.5H31.5V101ZM31.5 128H31V128.5H31.5V128ZM73.5 128V128.5H74V128H73.5ZM73.5 105H74V104.5H73.5V105ZM69.5 105H69V105.5H69.5V105ZM69.5 82V81.5H69V82H69.5ZM131.5 82H132V81.5H131.5V82ZM131.5 106.5H131V107H131.5V106.5ZM193 106.5V107H193.5V106.5H193ZM193 18V17.5H192.5V18H193ZM230 18H230.5V17.5H230V18ZM230 80H229.5V80.5H230V80ZM297 80V80.5H297.5V80H297ZM297 54.5V54H296.5V54.5H297ZM386 54.5H386.5V54H386V54.5ZM386 81V81.5H386.5V81H386ZM365.5 81V80.5H365V81H365.5ZM365.5 84H365V84.5H365.5V84ZM368.5 84H369V83.5H368.5V84ZM368.5 91H368V91.5H368.5V91ZM411.5 91H412V90.5H411.5V91ZM411.5 107.5H411V108H411.5V107.5ZM438.5 107.5H439V107H438.5V107.5ZM438.5 123.5V124H439V123.5H438.5ZM436.5 123.5V123H436V123.5H436.5ZM436.5 178.5H436V179H436.5V178.5ZM438.5 178.5H439V178H438.5V178.5ZM438.5 193.5V194H439V193.5H438.5ZM428.5 193.5L428.209 193.907L428.34 194H428.5V193.5ZM400.5 173.5L400.791 173.093L400.66 173H400.5V173.5ZM367.5 173.5V173H367V173.5H367.5ZM367.5 221.5H367V222H367.5V221.5ZM378 221.5V222H378.5V221.5H378ZM378 206V205.5H377.5V206H378ZM407.5 206H408V205.5H407.5V206ZM407.5 264.5H407V265H407.5V264.5ZM421.5 264.5H422V264H421.5V264.5ZM421.5 291V291.5H422V291H421.5ZM400 291V290.5H399.5V291H400ZM400 339.768V340.268H400.5V339.768H400ZM312.5 339.768V339.268H312V339.768H312.5ZM312.5 375V375.5H313V375H312.5ZM233.5 375V374.5H233V375H233.5ZM233.5 429V429.5H234V429H233.5ZM216 429L215.964 429.499L215.982 429.5H216V429ZM202 428H201.5V428.466L201.964 428.499L202 428ZM202 426.5H202.5V425.957L201.958 426.002L202 426.5ZM184 428H183.5V428.543L184.042 428.498L184 428ZM184 426.5H184.5V426H184V426.5ZM173 426.5H172.5V427H173V426.5ZM173 378.5V378H172.5V378.5H173ZM175 378.5V379H175.5V378.5H175ZM175 373.295H175.5V372.795H175V373.295ZM168 373.295V372.795H167.5V373.295H168ZM168 377V377.5H168.5V377H168ZM102 377H101.5V377.5H102V377ZM102 365H102.5V364.5H102V365ZM64 365H63.5V365.5H64V365ZM64 272V271.5H63.5V272H64ZM75.5 272V272.5H76V272H75.5ZM75.5 265.5H76V265H75.5V265.5ZM50 265.5V265H49.5V265.5H50ZM50 280V280.5H50.5V280H50ZM277 103.5H276.5V104H277V103.5ZM277 96V95.5H276.5V96H277ZM323.5 103.5H324V103H323.5V103.5ZM323.5 125H323V125.5H323.5V125ZM342 125V125.5H342.5V125H342ZM342 105V104.5H341.5V105H342ZM345.5 105V105.5H345.734L345.884 105.32L345.5 105ZM350.5 99L350.884 99.3201L351 99.181V99H350.5ZM350.5 84V83.5H350V84H350.5ZM353.5 84V84.5H354V84H353.5ZM353.5 81H354V80.5H353.5V81ZM329.5 81H329V81.5H329.5V81ZM329.5 71.5H330V71H329.5V71.5ZM326.748 71.5V71H326.248V71.5H326.748ZM326.748 96V96.5H327.248V96H326.748ZM369.5 128H369V128.5H369.5V128ZM369.5 103.5V103H369V103.5H369.5ZM400 128V128.5H400.5V128H400ZM400 103.5H400.5V103H400V103.5ZM307 172L306.559 171.765L306.5 171.875V172H307ZM319 149.5V149H318.7L318.559 149.265L319 149.5ZM307 174H306.5V174.5H307V174ZM314 174H314.5V173.5H314V174ZM314 189.5L314.447 189.724L314.5 189.618V189.5H314ZM309 199.5L308.553 199.276L308.5 199.382V199.5H309ZM309 218.5H308.5V219H309V218.5ZM337 218.5V219H337.5V218.5H337ZM337 202V201.5H336.5V202H337ZM351.5 202V202.5H352V202H351.5ZM351.5 188H352V187.5H351.5V188ZM330 188H329.5V188.5H330V188ZM330 153.5H330.5V153.391L330.455 153.292L330 153.5ZM324.5 141.5L324.955 141.292L324.821 141H324.5V141.5ZM323.5 141.5V141H323V141.5H323.5ZM323.5 149.5V150H324V149.5H323.5ZM227 250V250.5H227.5V250H227ZM227 204.5H227.5V204H227V204.5ZM225 250V249.5H224.5V250H225ZM225 272H224.5V272.5H225V272ZM263 272V272.5H263.5V272H263ZM263 265.5V265H262.5V265.5H263ZM275.5 265.5H276V265H275.5V265.5ZM275.5 293.5H275V294H275.5V293.5ZM342.5 293.5V294H343V293.5H342.5ZM342.5 272V271.5H342V272H342.5ZM372 272H372.5V271.5H372V272ZM372 275.5H371.5V276H372V275.5ZM374 275.5V276H374.5V275.5H374ZM374 264.5V264H373.5V264.5H374ZM381 264.5V265H381.5V264.5H381ZM381 243H381.5V242.5H381V243ZM374 243V242.5H373.788L373.641 242.652L374 243ZM359.5 258V258.5H359.712L359.859 258.348L359.5 258ZM337 258H336.5V258.5H337V258ZM337 234.5H337.5V234H337V234.5ZM319 234.5V234H318.5V234.5H319ZM319 249.5V250H319.5V249.5H319ZM289 249.5L288.646 249.854L288.793 250H289V249.5ZM277.5 238H277V238.207L277.146 238.354L277.5 238ZM277.5 173H278V172.5H277.5V173ZM266.5 173V172.5H266V173H266.5ZM266.5 199V199.5H267V199H266.5ZM222.5 199V198.5H222V199H222.5ZM222.5 202H222V202.065L222.017 202.128L222.5 202ZM224.5 204.5L224.287 204.952L224.388 205H224.5V204.5ZM138.5 324.5V325H139V324.5H138.5ZM109.5 324.5V324H109V324.5H109.5ZM138.5 302V301.5H138V302H138.5ZM152 302H152.5V301.5H152V302ZM152 317.5H151.5V318H152V317.5ZM177.5 317.5V318H178V317.5H177.5ZM177.5 302V301.5H177V302H177.5ZM180 302H180.5V301.5H180V302ZM180 313.5H179.5V314H180V313.5ZM225 313.5V314H225.5V313.5H225ZM225 287.5V287H224.5V287.5H225ZM263 287.5H263.5V287H263V287.5ZM263 309.5H262.5V310H263V309.5ZM358 309.5V310H358.5V309.5H358ZM358 287.5V287H357.5V287.5H358ZM372 287.5V288H372.5V287.5H372ZM372 284V283.5H371.5V284H372ZM374 284H374.5V283.5H374V284ZM374 294V294.5H374.5V294H374ZM366.5 294V293.5H366V294H366.5ZM366.5 315.5V316H367V315.5H366.5ZM276.5 315.5V315H276V315.5H276.5ZM276.5 355V355.5H277V355H276.5ZM233.5 355H233V355.5H233.5V355ZM233.5 344H234V343.5H233.5V344ZM223.5 344V343.5H223V344H223.5ZM223.5 357V357.5H224V357H223.5ZM136 357L135.624 357.329L135.773 357.5H136V357ZM132.5 353H132V353.188L132.124 353.329L132.5 353ZM132.5 335H133V334.5H132.5V335ZM109.5 335H109V335.5H109.5V335ZM153.5 211H153V211.5H153.5V211ZM159.5 211V211.5H160V211H159.5ZM153.5 158.4V157.9H153V158.4H153.5ZM178 158.4V158.9H178.5V158.4H178ZM178 125V124.5H177.5V125H178ZM193 125H193.5V124.5H193V125ZM193 131H192.5V131.5H193V131ZM218 131V131.5H218.5V131H218ZM218 106.5L217.611 106.185L217.5 106.323V106.5H218ZM226.5 96V95.5H226.261L226.111 95.6854L226.5 96ZM265 96H265.5V95.5H265V96ZM265 134.5H264.5V135H265V134.5ZM281.5 134.5H282V134H281.5V134.5ZM281.5 159.5V160H282V159.5H281.5ZM248.5 159.5V159H248V159.5H248.5ZM248.5 185.5V186H249V185.5H248.5ZM241.5 185.5H241V186H241.5V185.5ZM241.5 172.5H242V172H241.5V172.5ZM200.5 172.5V172H200V172.5H200.5ZM200.5 184H200V184.203L200.142 184.349L200.5 184ZM209.74 193.5H210.24V193.297L210.099 193.151L209.74 193.5ZM209.74 200V200.5H210.24V200H209.74ZM189.5 200V199.5H189V200H189.5ZM189.5 211V211.5H190V211H189.5ZM186.5 211H186V211.5H186.5V211ZM186.5 196.5H187V196H186.5V196.5ZM159.5 196.5V196H159V196.5H159.5ZM87 105V104.5H86.5V105H87ZM87 128H86.5V128.5H87V128ZM98 105V105.5H98.5V105H98ZM98 97.5V97H97.5V97.5H98ZM112 97.5H112.5V97H112V97.5ZM112 125H111.5V125.5H112V125ZM163.663 125H164.163V124.5H163.663V125ZM163.663 148V148.5H164.163V148H163.663ZM137.5 148V147.5H137V148H137.5ZM137.5 170.5V171H138V170.5H137.5ZM108 170.5H107.5V171H108V170.5ZM108 128H108.5V127.5H108V128ZM38.5 160V159.5H38V160H38.5ZM73.5 160H74V159.5H73.5V160ZM73.5 176.5L73.5071 177L74 176.993V176.5H73.5ZM109 310.5H108.5V311H109V310.5ZM109 272H109.5V271.5H109V272ZM115.5 310.5V311H116V310.5H115.5ZM115.5 272.5V272H115V272.5H115.5ZM177.5 272.5H178V272H177.5V272.5ZM177.5 286.5H177V287H177.5V286.5ZM180 286.5V287H180.5V286.5H180ZM180 249.5V249H179.5V249.5H180ZM189.5 249.5V250H190V249.5H189.5ZM189.5 226.5H190V226H189.5V226.5ZM154 226.5V226H153.793L153.646 226.146L154 226.5ZM137 243.5V244H137.207L137.354 243.854L137 243.5ZM125 243.5H124.5V244H125V243.5ZM125 213H125.5V212.5H125V213ZM90.5 213L90.1379 213.345L90.2857 213.5H90.5V213ZM80.5 202.5L80.8621 202.155L80.7143 202H80.5V202.5ZM38.5 202.5V202H38V202.5H38.5ZM38.5 231.5H38V232H38.5V231.5ZM93.5 231.5H94V231H93.5V231.5ZM93.5 265.5V266H94V265.5H93.5ZM91 265.5V265H90.5V265.5H91ZM91 272H90.5V272.5H91V272ZM16 202.5V280H17V202.5H16ZM1 203H16.5V202H1V203ZM0.5 101V202.5H1.5V101H0.5ZM31.5 100.5H1V101.5H31.5V100.5ZM32 128V101H31V128H32ZM73.5 127.5H31.5V128.5H73.5V127.5ZM73 105V128H74V105H73ZM69.5 105.5H73.5V104.5H69.5V105.5ZM69 82V105H70V82H69ZM131.5 81.5H69.5V82.5H131.5V81.5ZM132 106.5V82H131V106.5H132ZM193 106H131.5V107H193V106ZM192.5 18V106.5H193.5V18H192.5ZM230 17.5H193V18.5H230V17.5ZM230.5 80V18H229.5V80H230.5ZM297 79.5H230V80.5H297V79.5ZM296.5 54.5V80H297.5V54.5H296.5ZM386 54H297V55H386V54ZM386.5 81V54.5H385.5V81H386.5ZM365.5 81.5H386V80.5H365.5V81.5ZM366 84V81H365V84H366ZM368.5 83.5H365.5V84.5H368.5V83.5ZM369 91V84H368V91H369ZM411.5 90.5H368.5V91.5H411.5V90.5ZM412 107.5V91H411V107.5H412ZM438.5 107H411.5V108H438.5V107ZM439 123.5V107.5H438V123.5H439ZM436.5 124H438.5V123H436.5V124ZM437 178.5V123.5H436V178.5H437ZM438.5 178H436.5V179H438.5V178ZM439 193.5V178.5H438V193.5H439ZM428.5 194H438.5V193H428.5V194ZM400.209 173.907L428.209 193.907L428.791 193.093L400.791 173.093L400.209 173.907ZM367.5 174H400.5V173H367.5V174ZM368 221.5V173.5H367V221.5H368ZM378 221H367.5V222H378V221ZM377.5 206V221.5H378.5V206H377.5ZM407.5 205.5H378V206.5H407.5V205.5ZM408 264.5V206H407V264.5H408ZM421.5 264H407.5V265H421.5V264ZM422 291V264.5H421V291H422ZM400 291.5H421.5V290.5H400V291.5ZM400.5 339.768V291H399.5V339.768H400.5ZM312.5 340.268H400V339.268H312.5V340.268ZM313 375V339.768H312V375H313ZM233.5 375.5H312.5V374.5H233.5V375.5ZM234 429V375H233V429H234ZM216 429.5H233.5V428.5H216V429.5ZM201.964 428.499L215.964 429.499L216.036 428.501L202.036 427.501L201.964 428.499ZM201.5 426.5V428H202.5V426.5H201.5ZM184.042 428.498L202.042 426.998L201.958 426.002L183.958 427.502L184.042 428.498ZM183.5 426.5V428H184.5V426.5H183.5ZM173 427H184V426H173V427ZM172.5 378.5V426.5H173.5V378.5H172.5ZM175 378H173V379H175V378ZM174.5 373.295V378.5H175.5V373.295H174.5ZM168 373.795H175V372.795H168V373.795ZM168.5 377V373.295H167.5V377H168.5ZM102 377.5H168V376.5H102V377.5ZM101.5 365V377H102.5V365H101.5ZM64 365.5H102V364.5H64V365.5ZM63.5 272V365H64.5V272H63.5ZM75.5 271.5H64V272.5H75.5V271.5ZM75 265.5V272H76V265.5H75ZM50 266H75.5V265H50V266ZM50.5 280V265.5H49.5V280H50.5ZM16.5 280.5H50V279.5H16.5V280.5ZM277.5 103.5V96H276.5V103.5H277.5ZM323.5 103H277V104H323.5V103ZM324 125V103.5H323V125H324ZM342 124.5H323.5V125.5H342V124.5ZM341.5 105V125H342.5V105H341.5ZM345.5 104.5H342V105.5H345.5V104.5ZM350.116 98.6799L345.116 104.68L345.884 105.32L350.884 99.3201L350.116 98.6799ZM350 84V99H351V84H350ZM353.5 83.5H350.5V84.5H353.5V83.5ZM353 81V84H354V81H353ZM329.5 81.5H353.5V80.5H329.5V81.5ZM329 71.5V81H330V71.5H329ZM326.748 72H329.5V71H326.748V72ZM327.248 96V71.5H326.248V96H327.248ZM277 96.5H326.748V95.5H277V96.5ZM370 128V103.5H369V128H370ZM400 127.5H369.5V128.5H400V127.5ZM399.5 103.5V128H400.5V103.5H399.5ZM369.5 104H400V103H369.5V104ZM307.441 172.235L319.441 149.735L318.559 149.265L306.559 171.765L307.441 172.235ZM307.5 174V172H306.5V174H307.5ZM314 173.5H307V174.5H314V173.5ZM314.5 189.5V174H313.5V189.5H314.5ZM309.447 199.724L314.447 189.724L313.553 189.276L308.553 199.276L309.447 199.724ZM309.5 218.5V199.5H308.5V218.5H309.5ZM337 218H309V219H337V218ZM336.5 202V218.5H337.5V202H336.5ZM351.5 201.5H337V202.5H351.5V201.5ZM351 188V202H352V188H351ZM330 188.5H351.5V187.5H330V188.5ZM329.5 153.5V188H330.5V153.5H329.5ZM324.045 141.708L329.545 153.708L330.455 153.292L324.955 141.292L324.045 141.708ZM323.5 142H324.5V141H323.5V142ZM324 149.5V141.5H323V149.5H324ZM319 150H323.5V149H319V150ZM227.5 250V204.5H226.5V250H227.5ZM225 250.5H227V249.5H225V250.5ZM225.5 272V250H224.5V272H225.5ZM263 271.5H225V272.5H263V271.5ZM262.5 265.5V272H263.5V265.5H262.5ZM275.5 265H263V266H275.5V265ZM276 293.5V265.5H275V293.5H276ZM342.5 293H275.5V294H342.5V293ZM342 272V293.5H343V272H342ZM372 271.5H342.5V272.5H372V271.5ZM372.5 275.5V272H371.5V275.5H372.5ZM374 275H372V276H374V275ZM373.5 264.5V275.5H374.5V264.5H373.5ZM381 264H374V265H381V264ZM380.5 243V264.5H381.5V243H380.5ZM374 243.5H381V242.5H374V243.5ZM359.859 258.348L374.359 243.348L373.641 242.652L359.141 257.652L359.859 258.348ZM337 258.5H359.5V257.5H337V258.5ZM336.5 234.5V258H337.5V234.5H336.5ZM319 235H337V234H319V235ZM319.5 249.5V234.5H318.5V249.5H319.5ZM289 250H319V249H289V250ZM277.146 238.354L288.646 249.854L289.354 249.146L277.854 237.646L277.146 238.354ZM277 173V238H278V173H277ZM266.5 173.5H277.5V172.5H266.5V173.5ZM267 199V173H266V199H267ZM222.5 199.5H266.5V198.5H222.5V199.5ZM223 202V199H222V202H223ZM224.713 204.048C224.118 203.767 223.782 203.513 223.55 203.213C223.314 202.907 223.152 202.51 222.983 201.872L222.017 202.128C222.195 202.803 222.399 203.357 222.759 203.824C223.123 204.296 223.614 204.635 224.287 204.952L224.713 204.048ZM227 204H224.5V205H227V204ZM138.5 324H109.5V325H138.5V324ZM138 302V324.5H139V302H138ZM152 301.5H138.5V302.5H152V301.5ZM152.5 317.5V302H151.5V317.5H152.5ZM177.5 317H152V318H177.5V317ZM177 302V317.5H178V302H177ZM180 301.5H177.5V302.5H180V301.5ZM180.5 313.5V302H179.5V313.5H180.5ZM225 313H180V314H225V313ZM224.5 287.5V313.5H225.5V287.5H224.5ZM263 287H225V288H263V287ZM263.5 309.5V287.5H262.5V309.5H263.5ZM358 309H263V310H358V309ZM357.5 287.5V309.5H358.5V287.5H357.5ZM372 287H358V288H372V287ZM371.5 284V287.5H372.5V284H371.5ZM374 283.5H372V284.5H374V283.5ZM374.5 294V284H373.5V294H374.5ZM366.5 294.5H374V293.5H366.5V294.5ZM367 315.5V294H366V315.5H367ZM276.5 316H366.5V315H276.5V316ZM277 355V315.5H276V355H277ZM233.5 355.5H276.5V354.5H233.5V355.5ZM233 344V355H234V344H233ZM223.5 344.5H233.5V343.5H223.5V344.5ZM224 357V344H223V357H224ZM136 357.5H223.5V356.5H136V357.5ZM132.124 353.329L135.624 357.329L136.376 356.671L132.876 352.671L132.124 353.329ZM132 335V353H133V335H132ZM109.5 335.5H132.5V334.5H109.5V335.5ZM109 324.5V335H110V324.5H109ZM153.5 211.5H159.5V210.5H153.5V211.5ZM153 158.4V211H154V158.4H153ZM178 157.9H153.5V158.9H178V157.9ZM177.5 125V158.4H178.5V125H177.5ZM193 124.5H178V125.5H193V124.5ZM193.5 131V125H192.5V131H193.5ZM218 130.5H193V131.5H218V130.5ZM217.5 106.5V131H218.5V106.5H217.5ZM226.111 95.6854L217.611 106.185L218.389 106.815L226.889 96.3146L226.111 95.6854ZM265 95.5H226.5V96.5H265V95.5ZM265.5 134.5V96H264.5V134.5H265.5ZM281.5 134H265V135H281.5V134ZM282 159.5V134.5H281V159.5H282ZM248.5 160H281.5V159H248.5V160ZM249 185.5V159.5H248V185.5H249ZM241.5 186H248.5V185H241.5V186ZM241 172.5V185.5H242V172.5H241ZM200.5 173H241.5V172H200.5V173ZM201 184V172.5H200V184H201ZM210.099 193.151L200.858 183.651L200.142 184.349L209.382 193.849L210.099 193.151ZM210.24 200V193.5H209.24V200H210.24ZM189.5 200.5H209.74V199.5H189.5V200.5ZM190 211V200H189V211H190ZM186.5 211.5H189.5V210.5H186.5V211.5ZM186 196.5V211H187V196.5H186ZM159.5 197H186.5V196H159.5V197ZM160 211V196.5H159V211H160ZM86.5 105V128H87.5V105H86.5ZM98 104.5H87V105.5H98V104.5ZM97.5 97.5V105H98.5V97.5H97.5ZM112 97H98V98H112V97ZM112.5 125V97.5H111.5V125H112.5ZM163.663 124.5H112V125.5H163.663V124.5ZM164.163 148V125H163.163V148H164.163ZM137.5 148.5H163.663V147.5H137.5V148.5ZM138 170.5V148H137V170.5H138ZM108 171H137.5V170H108V171ZM107.5 128V170.5H108.5V128H107.5ZM87 128.5H108V127.5H87V128.5ZM38.5 160.5H73.5V159.5H38.5V160.5ZM39 176.5V160H38V176.5H39ZM73.4929 176C67.6605 176.083 58.9123 176.183 51.623 176.212C47.9779 176.227 44.7001 176.224 42.3348 176.192C41.1512 176.176 40.2012 176.153 39.5493 176.122C39.2214 176.107 38.9789 176.089 38.8227 176.071C38.7413 176.062 38.7017 176.054 38.6902 176.051C38.6804 176.049 38.7089 176.054 38.7504 176.076C38.7706 176.087 38.8203 176.115 38.8706 176.169C38.9239 176.226 39 176.339 39 176.5H38C38 176.667 38.0789 176.786 38.1379 176.85C38.1939 176.91 38.2521 176.944 38.2836 176.96C38.3475 176.994 38.4097 177.012 38.4444 177.02C38.5219 177.04 38.6148 177.054 38.7071 177.064C38.8983 177.087 39.1685 177.105 39.5015 177.121C40.1712 177.153 41.1352 177.176 42.3214 177.192C44.6957 177.224 47.9805 177.227 51.627 177.212C58.921 177.183 67.6729 177.083 73.5071 177L73.4929 176ZM73 160V176.5H74V160H73ZM109.5 310.5V272H108.5V310.5H109.5ZM115.5 310H109V311H115.5V310ZM115 272.5V310.5H116V272.5H115ZM177.5 272H115.5V273H177.5V272ZM178 286.5V272.5H177V286.5H178ZM180 286H177.5V287H180V286ZM179.5 249.5V286.5H180.5V249.5H179.5ZM189.5 249H180V250H189.5V249ZM189 226.5V249.5H190V226.5H189ZM154 227H189.5V226H154V227ZM137.354 243.854L154.354 226.854L153.646 226.146L136.646 243.146L137.354 243.854ZM125 244H137V243H125V244ZM124.5 213V243.5H125.5V213H124.5ZM90.5 213.5H125V212.5H90.5V213.5ZM80.1379 202.845L90.1379 213.345L90.8621 212.655L80.8621 202.155L80.1379 202.845ZM38.5 203H80.5V202H38.5V203ZM39 231.5V202.5H38V231.5H39ZM93.5 231H38.5V232H93.5V231ZM94 265.5V231.5H93V265.5H94ZM91 266H93.5V265H91V266ZM91.5 272V265.5H90.5V272H91.5ZM109 271.5H91V272.5H109V271.5Z" fill="#B27C40"/>
<path d="M319 234.5H308" stroke="#B27C40"/>
<path d="M266.5 186.5H261.5V190V190.5M261.5 190.5H261V199M261.5 190.5H266.5M330 161.5H337M337 161.5V154.5M337 161.5H344.5V154.5H337M337 125V154.5" stroke="#B27C40" stroke-width="0.5"/>
<path d="M344.5 202V216.5H337M400.5 291H393V298M400 302H393V298M400 298H393" stroke="#B27C40"/>
<path d="M400 310H396V326.249H400M400 335H393V339.5M286 315.5V323.5H293M300 315.5V323.5H293M293 323.5V315.5" stroke="#B27C40"/>
<path d="M323.5 125V130H324.5V125M393 128V135.5H400V128M409.5 144V158H416.5V144H409.5Z" stroke="#B27C40"/>
<path d="M277.5 199H282M277.5 205.5H287.5V199H282M282 199V195H277.5M277.5 173H291V174H277.5" stroke="#B27C40"/>
<path d="M281.5 145H289V141H281.5M289.5 141V134.5H281.5" stroke="#B27C40"/>
<path d="M101 144H94V150.5H101M23.5 101V108H27M31.5 108H27M27 108V112H31.5M112 118H119.5V125M153.5 191H146V198H153.5M186.5 211H171M64 356.5H74L93 359V357.5H102V365M109.5 335H101V328H109.5M120.5 272.5V310.5H115M139 272.5V279.5M170.5 272.5V279.5H177.5M225 272H210.5V265.5H225M225 254H220.5V250H225M227 233.5H218.5V226.5H227M210 199H211.5V200H210" stroke="#B27C40"/>
<path d="M222.5 199H221V200.299M222.5 199V200.299H221M222.5 199L221 200.299" stroke="#B27C40"/>
<path d="M64.5 231.5V239H72V231.5M16.5 232H23.5V224.5H16.5" stroke="#B27C40"/>
<path d="M1 195H9.5M9.5 195V202.5M9.5 195V185.5H1M9.5 195H16.5V202.5" stroke="#B27C40"/>
<path d="M66 176.5V184H73.5V176.5M1 146.5H20.5V155H1M53.5 160V153H60.5V160M124 213V196.5H125V213" stroke="#B27C40"/>
<path d="M34.5 280V278H24M24 278V280M24 278V272.5H16.5M75.5 272V294.5M75.5 298.5H64M75.5 298.5V294.5M75.5 298.5H79V294.5H75.5" stroke="#B27C40"/>
<path d="M248.75 159.75H266.25V198.75H248.75V159.75Z" stroke="#B27C40" stroke-width="0.5"/>
<path d="M400.5 206V265.154M358 287.5V272M221 250H211V226M107 184H124V213H90.5L80.5 202.5H107V184Z" stroke="#B27C40" stroke-width="0.5"/>
<path d="M124 184V178.5H108.5V184H101V128" stroke="#B27C40" stroke-width="0.5"/>
<circle cx="184.5" cy="309.5" r="4" stroke="#B27C40"/>
<circle cx="190" cy="311" r="1.75" stroke="#B27C40" stroke-width="0.5"/>
<circle cx="74.5" cy="233.5" r="2.25" stroke="#B27C40" stroke-width="0.5"/>
</svg>
