<svg width="439" height="447" viewBox="0 0 439 447" fill="none" xmlns="http://www.w3.org/2000/svg">
<path fill-rule="evenodd" clip-rule="evenodd" d="M16 167V244.5H0.5V346H31V319H73V342H69V365H131V340.5H192.5V429H229.5V367H296.5V392.5H385.5V366H365V363H368V356H411V339.5H438V323.5H436V268.5H438V253.5H428L400 273.5H367V225.5H377.5V241H407V182.5H421V156H399.5V107.232H312V72H233V18H215.5L201.5 19V20.5L183.5 19V20.5H172.5V68.5H174.5V73.7051H167.5V70H101.5V82H63.5V175H75V181.5H49.5V167H16ZM276.5 351V343.5H323V322H341.5V342H345L350 348V363H353V366H329V375.5H326.248V351H276.5ZM369 343.5V319H399.5V343.5H369ZM318.5 297.5L306.5 275V273H313.5V257.5L308.5 247.5V228.5H336.5V245H351V259H329.5V293.5L324 305.5H323V297.5H318.5ZM226.5 242.5V197H224.5V175H262.5V181.5H275V153.5H342V175H371.5V171.5H373.5V182.5H380.5V204H373.5L359 189H336.5V212.5H318.5V197.5H288.5L277 209V274H266V248H222V245C222.347 243.687 222.732 243.097 224 242.5H226.5ZM109 122.5H138V145H151.5V129.5H177V145H179.5V133.5H224.5V159.5H262.5V137.5H357.5V159.5H371.5V163H373.5V153H366V131.5H276V92H233V103H223V90H135.5L132 94V112H109V122.5ZM159 236H153V288.6H177.5V322H192.5V316H217.5V340.5L226 351H264.5V312.5H281V287.5H248V261.5H241V274.5H200V263L209.24 253.5V247H189V236H186V250.5H159V236ZM86.5 319V342H97.5V349.5H111.5V322H163.163V299H137V276.5H107.5V319H86.5ZM73 287H38V270.5C38 270.1 61.3333 270.333 73 270.5V287ZM108.5 175V136.5H115V174.5H177V160.5H179.5V197.5H189V220.5H153.5L136.5 203.5H124.5V234H90L80 244.5H38V215.5H93V181.5H90.5V175H108.5Z" fill="#271406"/>
<path d="M16 244.5H16.5V245H16V244.5ZM16 167H15.5V166.5H16V167ZM0.5 244.5H0V244H0.5V244.5ZM0.5 346V346.5H0V346H0.5ZM31 346H31.5V346.5H31V346ZM31 319H30.5V318.5H31V319ZM73 319V318.5H73.5V319H73ZM73 342H73.5V342.5H73V342ZM69 342H68.5V341.5H69V342ZM69 365V365.5H68.5V365H69ZM131 365H131.5V365.5H131V365ZM131 340.5H130.5V340H131V340.5ZM192.5 340.5V340H193V340.5H192.5ZM192.5 429V429.5H192V429H192.5ZM229.5 429H230V429.5H229.5V429ZM229.5 367H229V366.5H229.5V367ZM296.5 367V366.5H297V367H296.5ZM296.5 392.5V393H296V392.5H296.5ZM385.5 392.5H386V393H385.5V392.5ZM385.5 366V365.5H386V366H385.5ZM365 366V366.5H364.5V366H365ZM365 363H364.5V362.5H365V363ZM368 363H368.5V363.5H368V363ZM368 356H367.5V355.5H368V356ZM411 356H411.5V356.5H411V356ZM411 339.5H410.5V339H411V339.5ZM438 339.5H438.5V340H438V339.5ZM438 323.5V323H438.5V323.5H438ZM436 323.5V324H435.5V323.5H436ZM436 268.5H435.5V268H436V268.5ZM438 268.5H438.5V269H438V268.5ZM438 253.5V253H438.5V253.5H438ZM428 253.5L427.709 253.093L427.84 253H428V253.5ZM400 273.5L400.291 273.907L400.16 274H400V273.5ZM367 273.5V274H366.5V273.5H367ZM367 225.5H366.5V225H367V225.5ZM377.5 225.5V225H378V225.5H377.5ZM377.5 241V241.5H377V241H377.5ZM407 241H407.5V241.5H407V241ZM407 182.5H406.5V182H407V182.5ZM421 182.5H421.5V183H421V182.5ZM421 156V155.5H421.5V156H421ZM399.5 156V156.5H399V156H399.5ZM399.5 107.232V106.732H400V107.232H399.5ZM312 107.232V107.732H311.5V107.232H312ZM312 72V71.5H312.5V72H312ZM233 72V72.5H232.5V72H233ZM233 18V17.5H233.5V18H233ZM215.5 18L215.464 17.5013L215.482 17.5H215.5V18ZM201.5 19H201V18.5344L201.464 18.5013L201.5 19ZM201.5 20.5H202V21.0434L201.458 20.9983L201.5 20.5ZM183.5 19H183V18.4566L183.542 18.5017L183.5 19ZM183.5 20.5H184V21H183.5V20.5ZM172.5 20.5H172V20H172.5V20.5ZM172.5 68.5V69H172V68.5H172.5ZM174.5 68.5V68H175V68.5H174.5ZM174.5 73.7051H175V74.2051H174.5V73.7051ZM167.5 73.7051V74.2051H167V73.7051H167.5ZM167.5 70V69.5H168V70H167.5ZM101.5 70H101V69.5H101.5V70ZM101.5 82H102V82.5H101.5V82ZM63.5 82H63V81.5H63.5V82ZM63.5 175V175.5H63V175H63.5ZM75 175V174.5H75.5V175H75ZM75 181.5H75.5V182H75V181.5ZM49.5 181.5V182H49V181.5H49.5ZM49.5 167V166.5H50V167H49.5ZM276.5 343.5H276V343H276.5V343.5ZM276.5 351V351.5H276V351H276.5ZM323 343.5H323.5V344H323V343.5ZM323 322H322.5V321.5H323V322ZM341.5 322V321.5H342V322H341.5ZM341.5 342V342.5H341V342H341.5ZM345 342V341.5H345.234L345.384 341.68L345 342ZM350 348L350.384 347.68L350.5 347.819V348H350ZM350 363V363.5H349.5V363H350ZM353 363V362.5H353.5V363H353ZM353 366H353.5V366.5H353V366ZM329 366H328.5V365.5H329V366ZM329 375.5H329.5V376H329V375.5ZM326.248 375.5V376H325.748V375.5H326.248ZM326.248 351V350.5H326.748V351H326.248ZM369 319H368.5V318.5H369V319ZM369 343.5V344H368.5V343.5H369ZM399.5 319V318.5H400V319H399.5ZM399.5 343.5H400V344H399.5V343.5ZM306.5 275L306.059 275.235L306 275.125V275H306.5ZM318.5 297.5V298H318.2L318.059 297.735L318.5 297.5ZM306.5 273H306V272.5H306.5V273ZM313.5 273H314V273.5H313.5V273ZM313.5 257.5L313.947 257.276L314 257.382V257.5H313.5ZM308.5 247.5L308.053 247.724L308 247.618V247.5H308.5ZM308.5 228.5H308V228H308.5V228.5ZM336.5 228.5V228H337V228.5H336.5ZM336.5 245V245.5H336V245H336.5ZM351 245V244.5H351.5V245H351ZM351 259H351.5V259.5H351V259ZM329.5 259H329V258.5H329.5V259ZM329.5 293.5H330V293.609L329.955 293.708L329.5 293.5ZM324 305.5L324.455 305.708L324.321 306H324V305.5ZM323 305.5V306H322.5V305.5H323ZM323 297.5V297H323.5V297.5H323ZM226.5 197V196.5H227V197H226.5ZM226.5 242.5H227V243H226.5V242.5ZM224.5 197V197.5H224V197H224.5ZM224.5 175H224V174.5H224.5V175ZM262.5 175V174.5H263V175H262.5ZM262.5 181.5V182H262V181.5H262.5ZM275 181.5H275.5V182H275V181.5ZM275 153.5H274.5V153H275V153.5ZM342 153.5V153H342.5V153.5H342ZM342 175V175.5H341.5V175H342ZM371.5 175H372V175.5H371.5V175ZM371.5 171.5H371V171H371.5V171.5ZM373.5 171.5V171H374V171.5H373.5ZM373.5 182.5V183H373V182.5H373.5ZM380.5 182.5V182H381V182.5H380.5ZM380.5 204H381V204.5H380.5V204ZM373.5 204V204.5H373.288L373.141 204.348L373.5 204ZM359 189V188.5H359.212L359.359 188.652L359 189ZM336.5 189H336V188.5H336.5V189ZM336.5 212.5H337V213H336.5V212.5ZM318.5 212.5V213H318V212.5H318.5ZM318.5 197.5V197H319V197.5H318.5ZM288.5 197.5L288.146 197.146L288.293 197H288.5V197.5ZM277 209H276.5V208.793L276.646 208.646L277 209ZM277 274H277.5V274.5H277V274ZM266 274V274.5H265.5V274H266ZM266 248V247.5H266.5V248H266ZM222 248V248.5H221.5V248H222ZM222 245H221.5V244.935L221.517 244.872L222 245ZM224 242.5L223.787 242.048L223.888 242H224V242.5ZM138 122.5V122H138.5V122.5H138ZM109 122.5V123H108.5V122.5H109ZM138 145V145.5H137.5V145H138ZM151.5 145H152V145.5H151.5V145ZM151.5 129.5H151V129H151.5V129.5ZM177 129.5V129H177.5V129.5H177ZM177 145V145.5H176.5V145H177ZM179.5 145H180V145.5H179.5V145ZM179.5 133.5H179V133H179.5V133.5ZM224.5 133.5V133H225V133.5H224.5ZM224.5 159.5V160H224V159.5H224.5ZM262.5 159.5H263V160H262.5V159.5ZM262.5 137.5H262V137H262.5V137.5ZM357.5 137.5V137H358V137.5H357.5ZM357.5 159.5V160H357V159.5H357.5ZM371.5 159.5V159H372V159.5H371.5ZM371.5 163V163.5H371V163H371.5ZM373.5 163H374V163.5H373.5V163ZM373.5 153V152.5H374V153H373.5ZM366 153V153.5H365.5V153H366ZM366 131.5V131H366.5V131.5H366ZM276 131.5V132H275.5V131.5H276ZM276 92V91.5H276.5V92H276ZM233 92H232.5V91.5H233V92ZM233 103H233.5V103.5H233V103ZM223 103V103.5H222.5V103H223ZM223 90V89.5H223.5V90H223ZM135.5 90L135.124 89.6707L135.273 89.5H135.5V90ZM132 94H131.5V93.8121L131.624 93.6707L132 94ZM132 112H132.5V112.5H132V112ZM109 112H108.5V111.5H109V112ZM153 236H152.5V235.5H153V236ZM159 236V235.5H159.5V236H159ZM153 288.6V289.1H152.5V288.6H153ZM177.5 288.6V288.1H178V288.6H177.5ZM177.5 322V322.5H177V322H177.5ZM192.5 322H193V322.5H192.5V322ZM192.5 316H192V315.5H192.5V316ZM217.5 316V315.5H218V316H217.5ZM217.5 340.5L217.111 340.815L217 340.677V340.5H217.5ZM226 351V351.5H225.761L225.611 351.315L226 351ZM264.5 351H265V351.5H264.5V351ZM264.5 312.5H264V312H264.5V312.5ZM281 312.5H281.5V313H281V312.5ZM281 287.5V287H281.5V287.5H281ZM248 287.5V288H247.5V287.5H248ZM248 261.5V261H248.5V261.5H248ZM241 261.5H240.5V261H241V261.5ZM241 274.5H241.5V275H241V274.5ZM200 274.5V275H199.5V274.5H200ZM200 263H199.5V262.797L199.642 262.651L200 263ZM209.24 253.5H209.74V253.703L209.599 253.849L209.24 253.5ZM209.24 247V246.5H209.74V247H209.24ZM189 247V247.5H188.5V247H189ZM189 236V235.5H189.5V236H189ZM186 236H185.5V235.5H186V236ZM186 250.5H186.5V251H186V250.5ZM159 250.5V251H158.5V250.5H159ZM86.5 342V342.5H86V342H86.5ZM86.5 319H86V318.5H86.5V319ZM97.5 342V341.5H98V342H97.5ZM97.5 349.5V350H97V349.5H97.5ZM111.5 349.5H112V350H111.5V349.5ZM111.5 322H111V321.5H111.5V322ZM163.163 322H163.663V322.5H163.163V322ZM163.163 299V298.5H163.663V299H163.163ZM137 299V299.5H136.5V299H137ZM137 276.5V276H137.5V276.5H137ZM107.5 276.5H107V276H107.5V276.5ZM107.5 319H108V319.5H107.5V319ZM38 287V287.5H37.5V287H38ZM73 287H73.5V287.5H73V287ZM73 270.5L73.0071 270L73.5 270.007V270.5H73ZM108.5 136.5H108V136H108.5V136.5ZM108.5 175H109V175.5H108.5V175ZM115 136.5V136H115.5V136.5H115ZM115 174.5V175H114.5V174.5H115ZM177 174.5H177.5V175H177V174.5ZM177 160.5H176.5V160H177V160.5ZM179.5 160.5V160H180V160.5H179.5ZM179.5 197.5V198H179V197.5H179.5ZM189 197.5V197H189.5V197.5H189ZM189 220.5H189.5V221H189V220.5ZM153.5 220.5V221H153.293L153.146 220.854L153.5 220.5ZM136.5 203.5V203H136.707L136.854 203.146L136.5 203.5ZM124.5 203.5H124V203H124.5V203.5ZM124.5 234H125V234.5H124.5V234ZM90 234L89.6379 233.655L89.7857 233.5H90V234ZM80 244.5L80.3621 244.845L80.2143 245H80V244.5ZM38 244.5V245H37.5V244.5H38ZM38 215.5H37.5V215H38V215.5ZM93 215.5H93.5V216H93V215.5ZM93 181.5V181H93.5V181.5H93ZM90.5 181.5V182H90V181.5H90.5ZM90.5 175H90V174.5H90.5V175ZM16 244.5H15.5V167H16H16.5V244.5H16ZM0.5 244.5V244H16V244.5V245H0.5V244.5ZM0.5 346H0V244.5H0.5H1V346H0.5ZM31 346V346.5H0.5V346V345.5H31V346ZM31 319H31.5V346H31H30.5V319H31ZM73 319V319.5H31V319V318.5H73V319ZM73 342H72.5V319H73H73.5V342H73ZM69 342V341.5H73V342V342.5H69V342ZM69 365H68.5V342H69H69.5V365H69ZM131 365V365.5H69V365V364.5H131V365ZM131 340.5H131.5V365H131H130.5V340.5H131ZM192.5 340.5V341H131V340.5V340H192.5V340.5ZM192.5 429H192V340.5H192.5H193V429H192.5ZM229.5 429V429.5H192.5V429V428.5H229.5V429ZM229.5 367H230V429H229.5H229V367H229.5ZM296.5 367V367.5H229.5V367V366.5H296.5V367ZM296.5 392.5H296V367H296.5H297V392.5H296.5ZM385.5 392.5V393H296.5V392.5V392H385.5V392.5ZM385.5 366H386V392.5H385.5H385V366H385.5ZM365 366V365.5H385.5V366V366.5H365V366ZM365 363H365.5V366H365H364.5V363H365ZM368 363V363.5H365V363V362.5H368V363ZM368 356H368.5V363H368H367.5V356H368ZM411 356V356.5H368V356V355.5H411V356ZM411 339.5H411.5V356H411H410.5V339.5H411ZM438 339.5V340H411V339.5V339H438V339.5ZM438 323.5H438.5V339.5H438H437.5V323.5H438ZM436 323.5V323H438V323.5V324H436V323.5ZM436 268.5H436.5V323.5H436H435.5V268.5H436ZM438 268.5V269H436V268.5V268H438V268.5ZM438 253.5H438.5V268.5H438H437.5V253.5H438ZM428 253.5V253H438V253.5V254H428V253.5ZM400 273.5L399.709 273.093L427.709 253.093L428 253.5L428.291 253.907L400.291 273.907L400 273.5ZM367 273.5V273H400V273.5V274H367V273.5ZM367 225.5H367.5V273.5H367H366.5V225.5H367ZM377.5 225.5V226H367V225.5V225H377.5V225.5ZM377.5 241H377V225.5H377.5H378V241H377.5ZM407 241V241.5H377.5V241V240.5H407V241ZM407 182.5H407.5V241H407H406.5V182.5H407ZM421 182.5V183H407V182.5V182H421V182.5ZM421 156H421.5V182.5H421H420.5V156H421ZM399.5 156V155.5H421V156V156.5H399.5V156ZM399.5 107.232H400V156H399.5H399V107.232H399.5ZM312 107.232V106.732H399.5V107.232V107.732H312V107.232ZM312 72H312.5V107.232H312H311.5V72H312ZM233 72V71.5H312V72V72.5H233V72ZM233 18H233.5V72H233H232.5V18H233ZM215.5 18V17.5H233V18V18.5H215.5V18ZM201.5 19L201.464 18.5013L215.464 17.5013L215.5 18L215.536 18.4987L201.536 19.4987L201.5 19ZM201.5 20.5H201V19H201.5H202V20.5H201.5ZM183.5 19L183.542 18.5017L201.542 20.0017L201.5 20.5L201.458 20.9983L183.458 19.4983L183.5 19ZM183.5 20.5H183V19H183.5H184V20.5H183.5ZM172.5 20.5V20H183.5V20.5V21H172.5V20.5ZM172.5 68.5H172V20.5H172.5H173V68.5H172.5ZM174.5 68.5V69H172.5V68.5V68H174.5V68.5ZM174.5 73.7051H174V68.5H174.5H175V73.7051H174.5ZM167.5 73.7051V73.2051H174.5V73.7051V74.2051H167.5V73.7051ZM167.5 70H168V73.7051H167.5H167V70H167.5ZM101.5 70V69.5H167.5V70V70.5H101.5V70ZM101.5 82H101V70H101.5H102V82H101.5ZM63.5 82V81.5H101.5V82V82.5H63.5V82ZM63.5 175H63V82H63.5H64V175H63.5ZM75 175V175.5H63.5V175V174.5H75V175ZM75 181.5H74.5V175H75H75.5V181.5H75ZM49.5 181.5V181H75V181.5V182H49.5V181.5ZM49.5 167H50V181.5H49.5H49V167H49.5ZM16 167V166.5H49.5V167V167.5H16V167ZM276.5 343.5H277V351H276.5H276V343.5H276.5ZM323 343.5V344H276.5V343.5V343H323V343.5ZM323 322H323.5V343.5H323H322.5V322H323ZM341.5 322V322.5H323V322V321.5H341.5V322ZM341.5 342H341V322H341.5H342V342H341.5ZM345 342V342.5H341.5V342V341.5H345V342ZM350 348L349.616 348.32L344.616 342.32L345 342L345.384 341.68L350.384 347.68L350 348ZM350 363H349.5V348H350H350.5V363H350ZM353 363V363.5H350V363V362.5H353V363ZM353 366H352.5V363H353H353.5V366H353ZM329 366V365.5H353V366V366.5H329V366ZM329 375.5H328.5V366H329H329.5V375.5H329ZM326.248 375.5V375H329V375.5V376H326.248V375.5ZM326.248 351H326.748V375.5H326.248H325.748V351H326.248ZM276.5 351V350.5H326.248V351V351.5H276.5V351ZM369 319H369.5V343.5H369H368.5V319H369ZM399.5 319V319.5H369V319V318.5H399.5V319ZM399.5 343.5H399V319H399.5H400V343.5H399.5ZM369 343.5V343H399.5V343.5V344H369V343.5ZM306.5 275L306.941 274.765L318.941 297.265L318.5 297.5L318.059 297.735L306.059 275.235L306.5 275ZM306.5 273H307V275H306.5H306V273H306.5ZM313.5 273V273.5H306.5V273V272.5H313.5V273ZM313.5 257.5H314V273H313.5H313V257.5H313.5ZM308.5 247.5L308.947 247.276L313.947 257.276L313.5 257.5L313.053 257.724L308.053 247.724L308.5 247.5ZM308.5 228.5H309V247.5H308.5H308V228.5H308.5ZM336.5 228.5V229H308.5V228.5V228H336.5V228.5ZM336.5 245H336V228.5H336.5H337V245H336.5ZM351 245V245.5H336.5V245V244.5H351V245ZM351 259H350.5V245H351H351.5V259H351ZM329.5 259V258.5H351V259V259.5H329.5V259ZM329.5 293.5H329V259H329.5H330V293.5H329.5ZM324 305.5L323.545 305.292L329.045 293.292L329.5 293.5L329.955 293.708L324.455 305.708L324 305.5ZM323 305.5V305H324V305.5V306H323V305.5ZM323 297.5H323.5V305.5H323H322.5V297.5H323ZM318.5 297.5V297H323V297.5V298H318.5V297.5ZM226.5 197H227V242.5H226.5H226V197H226.5ZM224.5 197V196.5H226.5V197V197.5H224.5V197ZM224.5 175H225V197H224.5H224V175H224.5ZM262.5 175V175.5H224.5V175V174.5H262.5V175ZM262.5 181.5H262V175H262.5H263V181.5H262.5ZM275 181.5V182H262.5V181.5V181H275V181.5ZM275 153.5H275.5V181.5H275H274.5V153.5H275ZM342 153.5V154H275V153.5V153H342V153.5ZM342 175H341.5V153.5H342H342.5V175H342ZM371.5 175V175.5H342V175V174.5H371.5V175ZM371.5 171.5H372V175H371.5H371V171.5H371.5ZM373.5 171.5V172H371.5V171.5V171H373.5V171.5ZM373.5 182.5H373V171.5H373.5H374V182.5H373.5ZM380.5 182.5V183H373.5V182.5V182H380.5V182.5ZM380.5 204H380V182.5H380.5H381V204H380.5ZM373.5 204V203.5H380.5V204V204.5H373.5V204ZM359 189L359.359 188.652L373.859 203.652L373.5 204L373.141 204.348L358.641 189.348L359 189ZM336.5 189V188.5H359V189V189.5H336.5V189ZM336.5 212.5H336V189H336.5H337V212.5H336.5ZM318.5 212.5V212H336.5V212.5V213H318.5V212.5ZM318.5 197.5H319V212.5H318.5H318V197.5H318.5ZM288.5 197.5V197H318.5V197.5V198H288.5V197.5ZM277 209L276.646 208.646L288.146 197.146L288.5 197.5L288.854 197.854L277.354 209.354L277 209ZM277 274H276.5V209H277H277.5V274H277ZM266 274V273.5H277V274V274.5H266V274ZM266 248H266.5V274H266H265.5V248H266ZM222 248V247.5H266V248V248.5H222V248ZM222 245H222.5V248H222H221.5V245H222ZM224 242.5L224.213 242.952C223.618 243.233 223.282 243.487 223.05 243.787C222.814 244.093 222.652 244.49 222.483 245.128L222 245L221.517 244.872C221.695 244.197 221.899 243.643 222.259 243.176C222.623 242.704 223.114 242.365 223.787 242.048L224 242.5ZM226.5 242.5V243H224V242.5V242H226.5V242.5ZM138 122.5V123H109V122.5V122H138V122.5ZM138 145H137.5V122.5H138H138.5V145H138ZM151.5 145V145.5H138V145V144.5H151.5V145ZM151.5 129.5H152V145H151.5H151V129.5H151.5ZM177 129.5V130H151.5V129.5V129H177V129.5ZM177 145H176.5V129.5H177H177.5V145H177ZM179.5 145V145.5H177V145V144.5H179.5V145ZM179.5 133.5H180V145H179.5H179V133.5H179.5ZM224.5 133.5V134H179.5V133.5V133H224.5V133.5ZM224.5 159.5H224V133.5H224.5H225V159.5H224.5ZM262.5 159.5V160H224.5V159.5V159H262.5V159.5ZM262.5 137.5H263V159.5H262.5H262V137.5H262.5ZM357.5 137.5V138H262.5V137.5V137H357.5V137.5ZM357.5 159.5H357V137.5H357.5H358V159.5H357.5ZM371.5 159.5V160H357.5V159.5V159H371.5V159.5ZM371.5 163H371V159.5H371.5H372V163H371.5ZM373.5 163V163.5H371.5V163V162.5H373.5V163ZM373.5 153H374V163H373.5H373V153H373.5ZM366 153V152.5H373.5V153V153.5H366V153ZM366 131.5H366.5V153H366H365.5V131.5H366ZM276 131.5V131H366V131.5V132H276V131.5ZM276 92H276.5V131.5H276H275.5V92H276ZM233 92V91.5H276V92V92.5H233V92ZM233 103H232.5V92H233H233.5V103H233ZM223 103V102.5H233V103V103.5H223V103ZM223 90H223.5V103H223H222.5V90H223ZM135.5 90V89.5H223V90V90.5H135.5V90ZM132 94L131.624 93.6707L135.124 89.6707L135.5 90L135.876 90.3293L132.376 94.3293L132 94ZM132 112H131.5V94H132H132.5V112H132ZM109 112V111.5H132V112V112.5H109V112ZM109 122.5H108.5V112H109H109.5V122.5H109ZM153 236V235.5H159V236V236.5H153V236ZM153 288.6H152.5V236H153H153.5V288.6H153ZM177.5 288.6V289.1H153V288.6V288.1H177.5V288.6ZM177.5 322H177V288.6H177.5H178V322H177.5ZM192.5 322V322.5H177.5V322V321.5H192.5V322ZM192.5 316H193V322H192.5H192V316H192.5ZM217.5 316V316.5H192.5V316V315.5H217.5V316ZM217.5 340.5H217V316H217.5H218V340.5H217.5ZM226 351L225.611 351.315L217.111 340.815L217.5 340.5L217.889 340.185L226.389 350.685L226 351ZM264.5 351V351.5H226V351V350.5H264.5V351ZM264.5 312.5H265V351H264.5H264V312.5H264.5ZM281 312.5V313H264.5V312.5V312H281V312.5ZM281 287.5H281.5V312.5H281H280.5V287.5H281ZM248 287.5V287H281V287.5V288H248V287.5ZM248 261.5H248.5V287.5H248H247.5V261.5H248ZM241 261.5V261H248V261.5V262H241V261.5ZM241 274.5H240.5V261.5H241H241.5V274.5H241ZM200 274.5V274H241V274.5V275H200V274.5ZM200 263H200.5V274.5H200H199.5V263H200ZM209.24 253.5L209.599 253.849L200.358 263.349L200 263L199.642 262.651L208.882 253.151L209.24 253.5ZM209.24 247H209.74V253.5H209.24H208.74V247H209.24ZM189 247V246.5H209.24V247V247.5H189V247ZM189 236H189.5V247H189H188.5V236H189ZM186 236V235.5H189V236V236.5H186V236ZM186 250.5H185.5V236H186H186.5V250.5H186ZM159 250.5V250H186V250.5V251H159V250.5ZM159 236H159.5V250.5H159H158.5V236H159ZM86.5 342H86V319H86.5H87V342H86.5ZM97.5 342V342.5H86.5V342V341.5H97.5V342ZM97.5 349.5H97V342H97.5H98V349.5H97.5ZM111.5 349.5V350H97.5V349.5V349H111.5V349.5ZM111.5 322H112V349.5H111.5H111V322H111.5ZM163.163 322V322.5H111.5V322V321.5H163.163V322ZM163.163 299H163.663V322H163.163H162.663V299H163.163ZM137 299V298.5H163.163V299V299.5H137V299ZM137 276.5H137.5V299H137H136.5V276.5H137ZM107.5 276.5V276H137V276.5V277H107.5V276.5ZM107.5 319H107V276.5H107.5H108V319H107.5ZM86.5 319V318.5H107.5V319V319.5H86.5V319ZM38 287V286.5H73V287V287.5H38V287ZM38 270.5H38.5V287H38H37.5V270.5H38ZM73 270.5L72.9929 271C67.1605 270.917 58.4123 270.817 51.123 270.788C47.4779 270.773 44.2001 270.776 41.8348 270.808C40.6512 270.824 39.7012 270.847 39.0493 270.878C38.7214 270.893 38.4789 270.911 38.3227 270.929C38.2413 270.938 38.2017 270.946 38.1902 270.949C38.1804 270.951 38.2089 270.946 38.2504 270.924C38.2706 270.913 38.3203 270.885 38.3706 270.831C38.4239 270.774 38.5 270.661 38.5 270.5H38H37.5C37.5 270.333 37.5789 270.214 37.6379 270.15C37.6939 270.09 37.7521 270.056 37.7836 270.04C37.8475 270.006 37.9097 269.988 37.9444 269.98C38.0219 269.96 38.1148 269.946 38.2071 269.936C38.3983 269.913 38.6685 269.895 39.0015 269.879C39.6712 269.847 40.6352 269.824 41.8214 269.808C44.1957 269.776 47.4805 269.773 51.127 269.788C58.421 269.817 67.1729 269.917 73.0071 270L73 270.5ZM73 287H72.5V270.5H73H73.5V287H73ZM108.5 136.5H109V175H108.5H108V136.5H108.5ZM115 136.5V137H108.5V136.5V136H115V136.5ZM115 174.5H114.5V136.5H115H115.5V174.5H115ZM177 174.5V175H115V174.5V174H177V174.5ZM177 160.5H177.5V174.5H177H176.5V160.5H177ZM179.5 160.5V161H177V160.5V160H179.5V160.5ZM179.5 197.5H179V160.5H179.5H180V197.5H179.5ZM189 197.5V198H179.5V197.5V197H189V197.5ZM189 220.5H188.5V197.5H189H189.5V220.5H189ZM153.5 220.5V220H189V220.5V221H153.5V220.5ZM136.5 203.5L136.854 203.146L153.854 220.146L153.5 220.5L153.146 220.854L136.146 203.854L136.5 203.5ZM124.5 203.5V203H136.5V203.5V204H124.5V203.5ZM124.5 234H124V203.5H124.5H125V234H124.5ZM90 234V233.5H124.5V234V234.5H90V234ZM80 244.5L79.6379 244.155L89.6379 233.655L90 234L90.3621 234.345L80.3621 244.845L80 244.5ZM38 244.5V244H80V244.5V245H38V244.5ZM38 215.5H38.5V244.5H38H37.5V215.5H38ZM93 215.5V216H38V215.5V215H93V215.5ZM93 181.5H93.5V215.5H93H92.5V181.5H93ZM90.5 181.5V181H93V181.5V182H90.5V181.5ZM90.5 175H91V181.5H90.5H90V175H90.5ZM108.5 175V175.5H90.5V175V174.5H108.5V175Z" fill="#B27C40"/>
<path d="M318.5 212.5H307.5" stroke="#B27C40"/>
<path d="M266 260.5H261V257V256.5M261 256.5H260.5V248M261 256.5H266M329.5 285.5H336.5M336.5 285.5V292.5M336.5 285.5H344V292.5H336.5M336.5 322V292.5" stroke="#B27C40" stroke-width="0.5"/>
<path d="M344 245V230.5H336.5M400 156H392.5V149M399.5 145H392.5V149M399.5 149H392.5" stroke="#B27C40"/>
<path d="M399.5 137H395.5V120.751H399.5M399.5 112H392.5V107.5M285.5 131.5V123.5H292.5M299.5 131.5V123.5H292.5M292.5 123.5V131.5" stroke="#B27C40"/>
<path d="M323 322V317H324V322M392.5 319V311.5H399.5V319M409 303V289H416V303H409Z" stroke="#B27C40"/>
<path d="M277 248H281.5M277 241.5H287V248H281.5M281.5 248V252H277M277 274H290.5V273H277" stroke="#B27C40"/>
<path d="M281 302H288.5V306H281M289 306V312.5H281" stroke="#B27C40"/>
<path d="M100.5 303H93.5V296.5H100.5M23 346V339H26.5M31 339H26.5M26.5 339V335H31M111.5 329H119V322M153 256H145.5V249H153M186 236H170.5M63.5 90.5H73.5L92.5 88V89.5H101.5V82M109 112H100.5V119H109M120 174.5V136.5H114.5M138.5 174.5V167.5M170 174.5V167.5H177M224.5 175H210V181.5H224.5M224.5 193H220V197H224.5M226.5 213.5H218V220.5H226.5M209.5 248H211V247H209.5" stroke="#B27C40"/>
<path d="M222 248H220.5V246.701M222 248V246.701H220.5M222 248L220.5 246.701" stroke="#B27C40"/>
<path d="M64 215.5V208H71.5V215.5M16 215H23V222.5H16" stroke="#B27C40"/>
<path d="M0.5 252H9M9 252V244.5M9 252V261.5H0.5M9 252H16V244.5" stroke="#B27C40"/>
<path d="M65.5 270.5V263H73V270.5M0.5 300.5H20V292H0.5M53 287V294H60V287M123.5 234V250.5H124.5V234" stroke="#B27C40"/>
<path d="M34 167V169H23.5M23.5 169V167M23.5 169V174.5H16M75 175V152.5M75 148.5H63.5M75 148.5V152.5M75 148.5H78.5V152.5H75" stroke="#B27C40"/>
<path d="M265.75 287.25V248.25H248.25V287.25H265.75Z" stroke="#B27C40" stroke-width="0.5"/>
<path d="M400 241V181.846M357.5 159.5V175M220.5 197H210.5V221M106.5 263H123.5V234H90L80 244.5H106.5V263Z" stroke="#B27C40" stroke-width="0.5"/>
<path d="M123.5 263V268.5H108V263H100.5V319" stroke="#B27C40" stroke-width="0.5"/>
<circle cx="4.5" cy="4.5" r="4" transform="matrix(1 0 0 -1 179.5 142)" stroke="#B27C40"/>
<circle cx="2" cy="2" r="1.75" transform="matrix(1 0 0 -1 187.5 138)" stroke="#B27C40" stroke-width="0.5"/>
<circle cx="2.5" cy="2.5" r="2.25" transform="matrix(1 0 0 -1 71.5 216)" stroke="#B27C40" stroke-width="0.5"/>
<path d="M37.5 318.5H45.5V308.631H37.5V318.5Z" fill="#F08234" fill-opacity="0.2"/>
<path d="M73.5 287.5H100.252V281.257H73.5V287.5Z" fill="#F08234" fill-opacity="0.2"/>
<path d="M100.5 303.5H93V296H100.5V287.5H60.5V294.5H52.5V287.5H45.5V318.5H100.5V303.5Z" fill="#F08234" fill-opacity="0.2"/>
<path d="M66.2891 301V293H69.3516C69.9297 293 70.4102 293.091 70.793 293.273C71.1784 293.453 71.4661 293.699 71.6563 294.012C71.849 294.324 71.9453 294.678 71.9453 295.074C71.9453 295.4 71.8828 295.678 71.7578 295.91C71.6328 296.139 71.4648 296.326 71.2539 296.469C71.043 296.612 70.8073 296.715 70.5469 296.777V296.855C70.8307 296.871 71.1029 296.958 71.3633 297.117C71.6263 297.273 71.8411 297.495 72.0078 297.781C72.1745 298.068 72.2578 298.414 72.2578 298.82C72.2578 299.234 72.1576 299.607 71.957 299.937C71.7565 300.266 71.4544 300.525 71.0508 300.715C70.6471 300.905 70.1393 301 69.5273 301H66.2891ZM67.7383 299.789H69.2969C69.8229 299.789 70.2018 299.689 70.4336 299.488C70.668 299.285 70.7852 299.025 70.7852 298.707C70.7852 298.47 70.7266 298.257 70.6094 298.066C70.4922 297.874 70.3255 297.723 70.1094 297.613C69.8932 297.501 69.6354 297.445 69.3359 297.445H67.7383V299.789ZM67.7383 296.402H69.1719C69.4219 296.402 69.6471 296.357 69.8477 296.266C70.0482 296.172 70.2057 296.04 70.3203 295.871C70.4375 295.699 70.4961 295.496 70.4961 295.262C70.4961 294.952 70.3867 294.697 70.168 294.496C69.9518 294.296 69.6302 294.195 69.2031 294.195H67.7383V296.402Z" fill="white"/>
<path d="M400 339H437.5V324H400V339Z" fill="#F08234" fill-opacity="0.23"/>
<path d="M435.629 268H399.835V268.001L407 268.031L399.835 273.024V274H387.669V268H387.629V318.5H392V311H400V324H435.629V268ZM408.5 288.5H416.5V303.5H408.5V288.5Z" fill="#F08234" fill-opacity="0.23"/>
<path d="M437.5 254H428L408.5 268H437.5V254Z" fill="#F08234" fill-opacity="0.23"/>
<path d="M417.316 322H415.77L418.586 314H420.375L423.195 322H421.648L419.512 315.641H419.449L417.316 322ZM417.367 318.863H421.586V320.027H417.367V318.863Z" fill="white"/>
</svg>
