<svg width="467" height="473" viewBox="0 0 467 473" fill="none" xmlns="http://www.w3.org/2000/svg">
<path fill-rule="evenodd" clip-rule="evenodd" d="M17.4805 176.426V258.828H1V366.749H33.4294V338.041H78.0864V362.496H73.8333V386.951H139.755V360.901H205.146V455H244.487V389.078H315.725V416.191H410.355V388.015H388.558V384.825H391.748V377.382H437.468V359.838H466.176V342.826H464.05V284.347H466.176V268.398H455.544L425.772 289.663H390.685V238.627H401.849V255.107H433.215V192.906H448.101V164.73H425.241V112.877H332.206V75.4161H248.208V18H229.601L214.715 19.0633V20.6582L195.577 19.0633V20.6582H183.881V71.6946H186.007V77.229H178.564V73.2896H108.389V86.0487H67.9854V184.932H80.2129V191.843H53.0998V176.426H17.4805ZM294.46 372.066V364.091H343.901V341.231H363.572V362.496H367.293L372.609 368.876V384.825H375.799V388.015H350.281V398.116H347.355V372.066H294.46ZM392.811 364.091V338.041H425.241V364.091H392.811ZM339.117 315.181L326.358 291.258V289.131H333.8V272.651L328.484 262.018V241.816H358.255V259.36H373.673V274.246H350.813V310.928L344.965 323.687H343.901V315.181H339.117ZM241.297 256.702V208.324H239.17V184.932H279.574V191.843H292.865V162.072H364.103V184.932H395.47V181.21H397.596V192.906H405.039V215.766H397.596L382.179 199.818H358.255V224.804H339.117V208.855H307.219L294.991 221.083V290.195H283.296V262.55H236.512V259.36C236.881 257.964 237.29 257.337 238.639 256.702H241.297ZM116.364 129.111H147.198V153.034H161.552V136.554H188.665V153.034H191.324V140.807H239.17V168.451H279.574V145.06H380.584V168.451H395.47V172.173H397.596V161.54H389.622V138.68H293.928V96.6813H248.208V108.377H237.575V94.5547H144.54L140.819 98.8078V117.946H116.364V129.111ZM169.527 249.791H163.147V305.718H189.197V341.231H205.146V334.852H231.727V360.901L240.765 372.066H281.701V331.13H299.244V304.549H264.157V276.904H256.714V290.726H213.12V278.499L222.945 268.398V261.487H201.425V249.791H198.235V265.208H169.527V249.791ZM92.4403 338.041V362.496H104.136V370.471H119.022V341.231H173.954V316.776H146.135V292.853H114.769V338.041H92.4403ZM78.0863 304.017H40.8722V286.473C40.8722 286.048 65.6816 286.296 78.0863 286.473V304.017ZM115.832 184.932V143.996H122.743V184.4H188.665V169.515H191.324V208.855H201.425V233.31H163.679L145.603 215.235H132.844V247.664H96.1617L85.5291 258.828H40.8722V227.994H99.3515V191.843H96.6934V184.932H115.832Z" fill="#271406"/>
<path d="M17.4805 258.828H17.9805V259.328H17.4805V258.828ZM17.4805 176.426H16.9805V175.926H17.4805V176.426ZM1 258.828H0.5V258.328H1V258.828ZM1 366.749V367.249H0.5V366.749H1ZM33.4294 366.749H33.9294V367.249H33.4294V366.749ZM33.4294 338.041H32.9294V337.541H33.4294V338.041ZM78.0864 338.041V337.541H78.5864V338.041H78.0864ZM78.0864 362.496H78.5864V362.996H78.0864V362.496ZM73.8333 362.496H73.3333V361.996H73.8333V362.496ZM73.8333 386.951V387.451H73.3333V386.951H73.8333ZM139.755 386.951H140.255V387.451H139.755V386.951ZM139.755 360.901H139.255V360.401H139.755V360.901ZM205.146 360.901V360.401H205.646V360.901H205.146ZM205.146 455V455.5H204.646V455H205.146ZM244.487 455H244.987V455.5H244.487V455ZM244.487 389.078H243.987V388.578H244.487V389.078ZM315.725 389.078V388.578H316.225V389.078H315.725ZM315.725 416.191V416.691H315.225V416.191H315.725ZM410.355 416.191H410.855V416.691H410.355V416.191ZM410.355 388.015V387.515H410.855V388.015H410.355ZM388.558 388.015V388.515H388.058V388.015H388.558ZM388.558 384.825H388.058V384.325H388.558V384.825ZM391.748 384.825H392.248V385.325H391.748V384.825ZM391.748 377.382H391.248V376.882H391.748V377.382ZM437.468 377.382H437.968V377.882H437.468V377.382ZM437.468 359.838H436.968V359.338H437.468V359.838ZM466.176 359.838H466.676V360.338H466.176V359.838ZM466.176 342.826V342.326H466.676V342.826H466.176ZM464.05 342.826V343.326H463.55V342.826H464.05ZM464.05 284.347H463.55V283.847H464.05V284.347ZM466.176 284.347H466.676V284.847H466.176V284.347ZM466.176 268.398V267.898H466.676V268.398H466.176ZM455.544 268.398L455.253 267.991L455.384 267.898H455.544V268.398ZM425.772 289.663L426.063 290.07L425.933 290.163H425.772V289.663ZM390.685 289.663V290.163H390.185V289.663H390.685ZM390.685 238.627H390.185V238.127H390.685V238.627ZM401.849 238.627V238.127H402.349V238.627H401.849ZM401.849 255.107V255.607H401.349V255.107H401.849ZM433.215 255.107H433.715V255.607H433.215V255.107ZM433.215 192.906H432.715V192.406H433.215V192.906ZM448.101 192.906H448.601V193.406H448.101V192.906ZM448.101 164.73V164.23H448.601V164.73H448.101ZM425.241 164.73V165.23H424.741V164.73H425.241ZM425.241 112.877V112.377H425.741V112.877H425.241ZM332.206 112.877V113.377H331.706V112.877H332.206ZM332.206 75.4161V74.9161H332.706V75.4161H332.206ZM248.208 75.4161V75.9161H247.708V75.4161H248.208ZM248.208 18V17.5H248.708V18H248.208ZM229.601 18L229.565 17.5013L229.583 17.5H229.601V18ZM214.715 19.0633H214.215V18.5977L214.68 18.5645L214.715 19.0633ZM214.715 20.6582H215.215V21.2016L214.674 21.1564L214.715 20.6582ZM195.577 19.0633H195.077V18.5199L195.618 18.565L195.577 19.0633ZM195.577 20.6582H196.077V21.1582H195.577V20.6582ZM183.881 20.6582H183.381V20.1582H183.881V20.6582ZM183.881 71.6946V72.1946H183.381V71.6946H183.881ZM186.007 71.6946V71.1946H186.507V71.6946H186.007ZM186.007 77.229H186.507V77.729H186.007V77.229ZM178.564 77.229V77.729H178.064V77.229H178.564ZM178.564 73.2896V72.7896H179.064V73.2896H178.564ZM108.389 73.2896H107.889V72.7896H108.389V73.2896ZM108.389 86.0487H108.889V86.5487H108.389V86.0487ZM67.9854 86.0487H67.4854V85.5487H67.9854V86.0487ZM67.9854 184.932V185.432H67.4854V184.932H67.9854ZM80.2129 184.932V184.432H80.7129V184.932H80.2129ZM80.2129 191.843H80.7129V192.343H80.2129V191.843ZM53.0998 191.843V192.343H52.5998V191.843H53.0998ZM53.0998 176.426V175.926H53.5998V176.426H53.0998ZM294.46 364.091H293.96V363.591H294.46V364.091ZM294.46 372.066V372.566H293.96V372.066H294.46ZM343.901 364.091H344.401V364.591H343.901V364.091ZM343.901 341.231H343.401V340.731H343.901V341.231ZM363.572 341.231V340.731H364.072V341.231H363.572ZM363.572 362.496V362.996H363.072V362.496H363.572ZM367.293 362.496V361.996H367.527L367.677 362.176L367.293 362.496ZM372.609 368.876L372.994 368.556L373.109 368.695V368.876H372.609ZM372.609 384.825V385.325H372.109V384.825H372.609ZM375.799 384.825V384.325H376.299V384.825H375.799ZM375.799 388.015H376.299V388.515H375.799V388.015ZM350.281 388.015H349.781V387.515H350.281V388.015ZM350.281 398.116H350.781V398.616H350.281V398.116ZM347.355 398.116V398.616H346.855V398.116H347.355ZM347.355 372.066V371.566H347.855V372.066H347.355ZM392.811 338.041H392.311V337.541H392.811V338.041ZM392.811 364.091V364.591H392.311V364.091H392.811ZM425.241 338.041V337.541H425.741V338.041H425.241ZM425.241 364.091H425.741V364.591H425.241V364.091ZM326.358 291.258L325.916 291.493L325.858 291.383V291.258H326.358ZM339.117 315.181V315.681H338.817L338.676 315.417L339.117 315.181ZM326.358 289.131H325.858V288.631H326.358V289.131ZM333.8 289.131H334.3V289.631H333.8V289.131ZM333.8 272.651L334.248 272.427L334.3 272.533V272.651H333.8ZM328.484 262.018L328.037 262.242L327.984 262.136V262.018H328.484ZM328.484 241.816H327.984V241.316H328.484V241.816ZM358.255 241.816V241.316H358.755V241.816H358.255ZM358.255 259.36V259.86H357.755V259.36H358.255ZM373.673 259.36V258.86H374.173V259.36H373.673ZM373.673 274.246H374.173V274.746H373.673V274.246ZM350.813 274.246H350.313V273.746H350.813V274.246ZM350.813 310.928H351.313V311.037L351.267 311.137L350.813 310.928ZM344.965 323.687L345.419 323.896L345.286 324.187H344.965V323.687ZM343.901 323.687V324.187H343.401V323.687H343.901ZM343.901 315.181V314.681H344.401V315.181H343.901ZM241.297 208.324V207.824H241.797V208.324H241.297ZM241.297 256.702H241.797V257.202H241.297V256.702ZM239.17 208.324V208.824H238.67V208.324H239.17ZM239.17 184.932H238.67V184.432H239.17V184.932ZM279.574 184.932V184.432H280.074V184.932H279.574ZM279.574 191.843V192.343H279.074V191.843H279.574ZM292.865 191.843H293.365V192.343H292.865V191.843ZM292.865 162.072H292.365V161.572H292.865V162.072ZM364.103 162.072V161.572H364.603V162.072H364.103ZM364.103 184.932V185.432H363.603V184.932H364.103ZM395.47 184.932H395.97V185.432H395.47V184.932ZM395.47 181.21H394.97V180.71H395.47V181.21ZM397.596 181.21V180.71H398.096V181.21H397.596ZM397.596 192.906V193.406H397.096V192.906H397.596ZM405.039 192.906V192.406H405.539V192.906H405.039ZM405.039 215.766H405.539V216.266H405.039V215.766ZM397.596 215.766V216.266H397.384L397.237 216.114L397.596 215.766ZM382.179 199.818V199.318H382.391L382.538 199.47L382.179 199.818ZM358.255 199.818H357.755V199.318H358.255V199.818ZM358.255 224.804H358.755V225.304H358.255V224.804ZM339.117 224.804V225.304H338.617V224.804H339.117ZM339.117 208.855V208.355H339.617V208.855H339.117ZM307.219 208.855L306.865 208.502L307.012 208.355H307.219V208.855ZM294.991 221.083H294.491V220.876L294.638 220.729L294.991 221.083ZM294.991 290.195H295.491V290.695H294.991V290.195ZM283.296 290.195V290.695H282.796V290.195H283.296ZM283.296 262.55V262.05H283.796V262.55H283.296ZM236.512 262.55V263.05H236.012V262.55H236.512ZM236.512 259.36H236.012V259.295L236.029 259.232L236.512 259.36ZM238.639 256.702L238.426 256.25L238.527 256.202H238.639V256.702ZM147.198 129.111V128.611H147.698V129.111H147.198ZM116.364 129.111V129.611H115.864V129.111H116.364ZM147.198 153.034V153.534H146.698V153.034H147.198ZM161.552 153.034H162.052V153.534H161.552V153.034ZM161.552 136.554H161.052V136.054H161.552V136.554ZM188.665 136.554V136.054H189.165V136.554H188.665ZM188.665 153.034V153.534H188.165V153.034H188.665ZM191.324 153.034H191.824V153.534H191.324V153.034ZM191.324 140.807H190.824V140.307H191.324V140.807ZM239.17 140.807V140.307H239.67V140.807H239.17ZM239.17 168.451V168.951H238.67V168.451H239.17ZM279.574 168.451H280.074V168.951H279.574V168.451ZM279.574 145.06H279.074V144.56H279.574V145.06ZM380.584 145.06V144.56H381.084V145.06H380.584ZM380.584 168.451V168.951H380.084V168.451H380.584ZM395.47 168.451V167.951H395.97V168.451H395.47ZM395.47 172.173V172.673H394.97V172.173H395.47ZM397.596 172.173H398.096V172.673H397.596V172.173ZM397.596 161.54V161.04H398.096V161.54H397.596ZM389.622 161.54V162.04H389.122V161.54H389.622ZM389.622 138.68V138.18H390.122V138.68H389.622ZM293.928 138.68V139.18H293.428V138.68H293.928ZM293.928 96.6813V96.1813H294.428V96.6813H293.928ZM248.208 96.6813H247.708V96.1813H248.208V96.6813ZM248.208 108.377H248.708V108.877H248.208V108.377ZM237.575 108.377V108.877H237.075V108.377H237.575ZM237.575 94.5547V94.0547H238.075V94.5547H237.575ZM144.54 94.5547L144.164 94.2255L144.313 94.0547H144.54V94.5547ZM140.819 98.8078H140.319V98.6199L140.442 98.4785L140.819 98.8078ZM140.819 117.946H141.319V118.446H140.819V117.946ZM116.364 117.946H115.864V117.446H116.364V117.946ZM163.147 249.791H162.647V249.291H163.147V249.791ZM169.527 249.791V249.291H170.027V249.791H169.527ZM163.147 305.718V306.218H162.647V305.718H163.147ZM189.197 305.718V305.218H189.697V305.718H189.197ZM189.197 341.231V341.731H188.697V341.231H189.197ZM205.146 341.231H205.646V341.731H205.146V341.231ZM205.146 334.852H204.646V334.352H205.146V334.852ZM231.727 334.852V334.352H232.227V334.852H231.727ZM231.727 360.901L231.339 361.216L231.227 361.078V360.901H231.727ZM240.765 372.066V372.566H240.527L240.377 372.38L240.765 372.066ZM281.701 372.066H282.201V372.566H281.701V372.066ZM281.701 331.13H281.201V330.63H281.701V331.13ZM299.244 331.13H299.744V331.63H299.244V331.13ZM299.244 304.549V304.049H299.744V304.549H299.244ZM264.157 304.549V305.049H263.657V304.549H264.157ZM264.157 276.904V276.404H264.657V276.904H264.157ZM256.714 276.904H256.214V276.404H256.714V276.904ZM256.714 290.726H257.214V291.226H256.714V290.726ZM213.12 290.726V291.226H212.62V290.726H213.12ZM213.12 278.499H212.62V278.296L212.762 278.15L213.12 278.499ZM222.945 268.398H223.445V268.601L223.304 268.746L222.945 268.398ZM222.945 261.487V260.987H223.445V261.487H222.945ZM201.425 261.487V261.987H200.925V261.487H201.425ZM201.425 249.791V249.291H201.925V249.791H201.425ZM198.235 249.791H197.735V249.291H198.235V249.791ZM198.235 265.208H198.735V265.708H198.235V265.208ZM169.527 265.208V265.708H169.027V265.208H169.527ZM92.4403 362.496V362.996H91.9403V362.496H92.4403ZM92.4403 338.041H91.9403V337.541H92.4403V338.041ZM104.136 362.496V361.996H104.636V362.496H104.136ZM104.136 370.471V370.971H103.636V370.471H104.136ZM119.022 370.471H119.522V370.971H119.022V370.471ZM119.022 341.231H118.522V340.731H119.022V341.231ZM173.954 341.231H174.454V341.731H173.954V341.231ZM173.954 316.776V316.276H174.454V316.776H173.954ZM146.135 316.776V317.276H145.635V316.776H146.135ZM146.135 292.853V292.353H146.635V292.853H146.135ZM114.769 292.853H114.269V292.353H114.769V292.853ZM114.769 338.041H115.269V338.541H114.769V338.041ZM40.8722 304.017V304.517H40.3722V304.017H40.8722ZM78.0863 304.017H78.5863V304.517H78.0863V304.017ZM78.0863 286.473L78.0935 285.973L78.5863 285.98V286.473H78.0863ZM115.832 143.996H115.332V143.496H115.832V143.996ZM115.832 184.932H116.332V185.432H115.832V184.932ZM122.743 143.996V143.496H123.243V143.996H122.743ZM122.743 184.4V184.9H122.243V184.4H122.743ZM188.665 184.4H189.165V184.9H188.665V184.4ZM188.665 169.515H188.165V169.015H188.665V169.515ZM191.324 169.515V169.015H191.824V169.515H191.324ZM191.324 208.855V209.355H190.824V208.855H191.324ZM201.425 208.855V208.355H201.925V208.855H201.425ZM201.425 233.31H201.925V233.81H201.425V233.31ZM163.679 233.31V233.81H163.472L163.325 233.664L163.679 233.31ZM145.603 215.235V214.735H145.81L145.957 214.881L145.603 215.235ZM132.844 215.235H132.344V214.735H132.844V215.235ZM132.844 247.664H133.344V248.164H132.844V247.664ZM96.1617 247.664L95.7997 247.319L95.9475 247.164H96.1617V247.664ZM85.5291 258.828L85.8912 259.173L85.7434 259.328H85.5291V258.828ZM40.8722 258.828V259.328H40.3722V258.828H40.8722ZM40.8722 227.994H40.3722V227.494H40.8722V227.994ZM99.3515 227.994H99.8515V228.494H99.3515V227.994ZM99.3515 191.843V191.343H99.8515V191.843H99.3515ZM96.6934 191.843V192.343H96.1934V191.843H96.6934ZM96.6934 184.932H96.1934V184.432H96.6934V184.932ZM17.4805 258.828H16.9805V176.426H17.4805H17.9805V258.828H17.4805ZM1 258.828V258.328H17.4805V258.828V259.328H1V258.828ZM1 366.749H0.5V258.828H1H1.5V366.749H1ZM33.4294 366.749V367.249H1V366.749V366.249H33.4294V366.749ZM33.4294 338.041H33.9294V366.749H33.4294H32.9294V338.041H33.4294ZM78.0864 338.041V338.541H33.4294V338.041V337.541H78.0864V338.041ZM78.0864 362.496H77.5864V338.041H78.0864H78.5864V362.496H78.0864ZM73.8333 362.496V361.996H78.0864V362.496V362.996H73.8333V362.496ZM73.8333 386.951H73.3333V362.496H73.8333H74.3333V386.951H73.8333ZM139.755 386.951V387.451H73.8333V386.951V386.451H139.755V386.951ZM139.755 360.901H140.255V386.951H139.755H139.255V360.901H139.755ZM205.146 360.901V361.401H139.755V360.901V360.401H205.146V360.901ZM205.146 455H204.646V360.901H205.146H205.646V455H205.146ZM244.487 455V455.5H205.146V455V454.5H244.487V455ZM244.487 389.078H244.987V455H244.487H243.987V389.078H244.487ZM315.725 389.078V389.578H244.487V389.078V388.578H315.725V389.078ZM315.725 416.191H315.225V389.078H315.725H316.225V416.191H315.725ZM410.355 416.191V416.691H315.725V416.191V415.691H410.355V416.191ZM410.355 388.015H410.855V416.191H410.355H409.855V388.015H410.355ZM388.558 388.015V387.515H410.355V388.015V388.515H388.558V388.015ZM388.558 384.825H389.058V388.015H388.558H388.058V384.825H388.558ZM391.748 384.825V385.325H388.558V384.825V384.325H391.748V384.825ZM391.748 377.382H392.248V384.825H391.748H391.248V377.382H391.748ZM437.468 377.382V377.882H391.748V377.382V376.882H437.468V377.382ZM437.468 359.838H437.968V377.382H437.468H436.968V359.838H437.468ZM466.176 359.838V360.338H437.468V359.838V359.338H466.176V359.838ZM466.176 342.826H466.676V359.838H466.176H465.676V342.826H466.176ZM464.05 342.826V342.326H466.176V342.826V343.326H464.05V342.826ZM464.05 284.347H464.55V342.826H464.05H463.55V284.347H464.05ZM466.176 284.347V284.847H464.05V284.347V283.847H466.176V284.347ZM466.176 268.398H466.676V284.347H466.176H465.676V268.398H466.176ZM455.544 268.398V267.898H466.176V268.398V268.898H455.544V268.398ZM425.772 289.663L425.482 289.256L455.253 267.991L455.544 268.398L455.834 268.805L426.063 290.07L425.772 289.663ZM390.685 289.663V289.163H425.772V289.663V290.163H390.685V289.663ZM390.685 238.627H391.185V289.663H390.685H390.185V238.627H390.685ZM401.849 238.627V239.127H390.685V238.627V238.127H401.849V238.627ZM401.849 255.107H401.349V238.627H401.849H402.349V255.107H401.849ZM433.215 255.107V255.607H401.849V255.107V254.607H433.215V255.107ZM433.215 192.906H433.715V255.107H433.215H432.715V192.906H433.215ZM448.101 192.906V193.406H433.215V192.906V192.406H448.101V192.906ZM448.101 164.73H448.601V192.906H448.101H447.601V164.73H448.101ZM425.241 164.73V164.23H448.101V164.73V165.23H425.241V164.73ZM425.241 112.877H425.741V164.73H425.241H424.741V112.877H425.241ZM332.206 112.877V112.377H425.241V112.877V113.377H332.206V112.877ZM332.206 75.4161H332.706V112.877H332.206H331.706V75.4161H332.206ZM248.208 75.4161V74.9161H332.206V75.4161V75.9161H248.208V75.4161ZM248.208 18H248.708V75.4161H248.208H247.708V18H248.208ZM229.601 18V17.5H248.208V18V18.5H229.601V18ZM214.715 19.0633L214.68 18.5645L229.565 17.5013L229.601 18L229.637 18.4987L214.751 19.562L214.715 19.0633ZM214.715 20.6582H214.215V19.0633H214.715H215.215V20.6582H214.715ZM195.577 19.0633L195.618 18.565L214.757 20.1599L214.715 20.6582L214.674 21.1564L195.535 19.5615L195.577 19.0633ZM195.577 20.6582H195.077V19.0633H195.577H196.077V20.6582H195.577ZM183.881 20.6582V20.1582H195.577V20.6582V21.1582H183.881V20.6582ZM183.881 71.6946H183.381V20.6582H183.881H184.381V71.6946H183.881ZM186.007 71.6946V72.1946H183.881V71.6946V71.1946H186.007V71.6946ZM186.007 77.229H185.507V71.6946H186.007H186.507V77.229H186.007ZM178.564 77.229V76.729H186.007V77.229V77.729H178.564V77.229ZM178.564 73.2896H179.064V77.229H178.564H178.064V73.2896H178.564ZM108.389 73.2896V72.7896H178.564V73.2896V73.7896H108.389V73.2896ZM108.389 86.0487H107.889V73.2896H108.389H108.889V86.0487H108.389ZM67.9854 86.0487V85.5487H108.389V86.0487V86.5487H67.9854V86.0487ZM67.9854 184.932H67.4854V86.0487H67.9854H68.4854V184.932H67.9854ZM80.2129 184.932V185.432H67.9854V184.932V184.432H80.2129V184.932ZM80.2129 191.843H79.7129V184.932H80.2129H80.7129V191.843H80.2129ZM53.0998 191.843V191.343H80.2129V191.843V192.343H53.0998V191.843ZM53.0998 176.426H53.5998V191.843H53.0998H52.5998V176.426H53.0998ZM17.4805 176.426V175.926H53.0998V176.426V176.926H17.4805V176.426ZM294.46 364.091H294.96V372.066H294.46H293.96V364.091H294.46ZM343.901 364.091V364.591H294.46V364.091V363.591H343.901V364.091ZM343.901 341.231H344.401V364.091H343.901H343.401V341.231H343.901ZM363.572 341.231V341.731H343.901V341.231V340.731H363.572V341.231ZM363.572 362.496H363.072V341.231H363.572H364.072V362.496H363.572ZM367.293 362.496V362.996H363.572V362.496V361.996H367.293V362.496ZM372.609 368.876L372.225 369.196L366.909 362.816L367.293 362.496L367.677 362.176L372.994 368.556L372.609 368.876ZM372.609 384.825H372.109V368.876H372.609H373.109V384.825H372.609ZM375.799 384.825V385.325H372.609V384.825V384.325H375.799V384.825ZM375.799 388.015H375.299V384.825H375.799H376.299V388.015H375.799ZM350.281 388.015V387.515H375.799V388.015V388.515H350.281V388.015ZM350.281 398.116H349.781V388.015H350.281H350.781V398.116H350.281ZM347.355 398.116V397.616H350.281V398.116V398.616H347.355V398.116ZM347.355 372.066H347.855V398.116H347.355H346.855V372.066H347.355ZM294.46 372.066V371.566H347.355V372.066V372.566H294.46V372.066ZM392.811 338.041H393.311V364.091H392.811H392.311V338.041H392.811ZM425.241 338.041V338.541H392.811V338.041V337.541H425.241V338.041ZM425.241 364.091H424.741V338.041H425.241H425.741V364.091H425.241ZM392.811 364.091V363.591H425.241V364.091V364.591H392.811V364.091ZM326.358 291.258L326.799 291.023L339.558 314.946L339.117 315.181L338.676 315.417L325.916 291.493L326.358 291.258ZM326.358 289.131H326.858V291.258H326.358H325.858V289.131H326.358ZM333.8 289.131V289.631H326.358V289.131V288.631H333.8V289.131ZM333.8 272.651H334.3V289.131H333.8H333.3V272.651H333.8ZM328.484 262.018L328.931 261.795L334.248 272.427L333.8 272.651L333.353 272.874L328.037 262.242L328.484 262.018ZM328.484 241.816H328.984V262.018H328.484H327.984V241.816H328.484ZM358.255 241.816V242.316H328.484V241.816V241.316H358.255V241.816ZM358.255 259.36H357.755V241.816H358.255H358.755V259.36H358.255ZM373.673 259.36V259.86H358.255V259.36V258.86H373.673V259.36ZM373.673 274.246H373.173V259.36H373.673H374.173V274.246H373.673ZM350.813 274.246V273.746H373.673V274.246V274.746H350.813V274.246ZM350.813 310.928H350.313V274.246H350.813H351.313V310.928H350.813ZM344.965 323.687L344.51 323.479L350.358 310.72L350.813 310.928L351.267 311.137L345.419 323.896L344.965 323.687ZM343.901 323.687V323.187H344.965V323.687V324.187H343.901V323.687ZM343.901 315.181H344.401V323.687H343.901H343.401V315.181H343.901ZM339.117 315.181V314.681H343.901V315.181V315.681H339.117V315.181ZM241.297 208.324H241.797V256.702H241.297H240.797V208.324H241.297ZM239.17 208.324V207.824H241.297V208.324V208.824H239.17V208.324ZM239.17 184.932H239.67V208.324H239.17H238.67V184.932H239.17ZM279.574 184.932V185.432H239.17V184.932V184.432H279.574V184.932ZM279.574 191.843H279.074V184.932H279.574H280.074V191.843H279.574ZM292.865 191.843V192.343H279.574V191.843V191.343H292.865V191.843ZM292.865 162.072H293.365V191.843H292.865H292.365V162.072H292.865ZM364.103 162.072V162.572H292.865V162.072V161.572H364.103V162.072ZM364.103 184.932H363.603V162.072H364.103H364.603V184.932H364.103ZM395.47 184.932V185.432H364.103V184.932V184.432H395.47V184.932ZM395.47 181.21H395.97V184.932H395.47H394.97V181.21H395.47ZM397.596 181.21V181.71H395.47V181.21V180.71H397.596V181.21ZM397.596 192.906H397.096V181.21H397.596H398.096V192.906H397.596ZM405.039 192.906V193.406H397.596V192.906V192.406H405.039V192.906ZM405.039 215.766H404.539V192.906H405.039H405.539V215.766H405.039ZM397.596 215.766V215.266H405.039V215.766V216.266H397.596V215.766ZM382.179 199.818L382.538 199.47L397.956 215.419L397.596 215.766L397.237 216.114L381.819 200.165L382.179 199.818ZM358.255 199.818V199.318H382.179V199.818V200.318H358.255V199.818ZM358.255 224.804H357.755V199.818H358.255H358.755V224.804H358.255ZM339.117 224.804V224.304H358.255V224.804V225.304H339.117V224.804ZM339.117 208.855H339.617V224.804H339.117H338.617V208.855H339.117ZM307.219 208.855V208.355H339.117V208.855V209.355H307.219V208.855ZM294.991 221.083L294.638 220.729L306.865 208.502L307.219 208.855L307.572 209.209L295.345 221.436L294.991 221.083ZM294.991 290.195H294.491V221.083H294.991H295.491V290.195H294.991ZM283.296 290.195V289.695H294.991V290.195V290.695H283.296V290.195ZM283.296 262.55H283.796V290.195H283.296H282.796V262.55H283.296ZM236.512 262.55V262.05H283.296V262.55V263.05H236.512V262.55ZM236.512 259.36H237.012V262.55H236.512H236.012V259.36H236.512ZM238.639 256.702L238.852 257.154C238.216 257.454 237.854 257.727 237.604 258.051C237.349 258.381 237.175 258.809 236.996 259.488L236.512 259.36L236.029 259.232C236.218 258.515 236.433 257.931 236.812 257.44C237.196 256.943 237.713 256.585 238.426 256.25L238.639 256.702ZM241.297 256.702V257.202H238.639V256.702V256.202H241.297V256.702ZM147.198 129.111V129.611H116.364V129.111V128.611H147.198V129.111ZM147.198 153.034H146.698V129.111H147.198H147.698V153.034H147.198ZM161.552 153.034V153.534H147.198V153.034V152.534H161.552V153.034ZM161.552 136.554H162.052V153.034H161.552H161.052V136.554H161.552ZM188.665 136.554V137.054H161.552V136.554V136.054H188.665V136.554ZM188.665 153.034H188.165V136.554H188.665H189.165V153.034H188.665ZM191.324 153.034V153.534H188.665V153.034V152.534H191.324V153.034ZM191.324 140.807H191.824V153.034H191.324H190.824V140.807H191.324ZM239.17 140.807V141.307H191.324V140.807V140.307H239.17V140.807ZM239.17 168.451H238.67V140.807H239.17H239.67V168.451H239.17ZM279.574 168.451V168.951H239.17V168.451V167.951H279.574V168.451ZM279.574 145.06H280.074V168.451H279.574H279.074V145.06H279.574ZM380.584 145.06V145.56H279.574V145.06V144.56H380.584V145.06ZM380.584 168.451H380.084V145.06H380.584H381.084V168.451H380.584ZM395.47 168.451V168.951H380.584V168.451V167.951H395.47V168.451ZM395.47 172.173H394.97V168.451H395.47H395.97V172.173H395.47ZM397.596 172.173V172.673H395.47V172.173V171.673H397.596V172.173ZM397.596 161.54H398.096V172.173H397.596H397.096V161.54H397.596ZM389.622 161.54V161.04H397.596V161.54V162.04H389.622V161.54ZM389.622 138.68H390.122V161.54H389.622H389.122V138.68H389.622ZM293.928 138.68V138.18H389.622V138.68V139.18H293.928V138.68ZM293.928 96.6813H294.428V138.68H293.928H293.428V96.6813H293.928ZM248.208 96.6813V96.1813H293.928V96.6813V97.1813H248.208V96.6813ZM248.208 108.377H247.708V96.6813H248.208H248.708V108.377H248.208ZM237.575 108.377V107.877H248.208V108.377V108.877H237.575V108.377ZM237.575 94.5547H238.075V108.377H237.575H237.075V94.5547H237.575ZM144.54 94.5547V94.0547H237.575V94.5547V95.0547H144.54V94.5547ZM140.819 98.8078L140.442 98.4785L144.164 94.2255L144.54 94.5547L144.916 94.884L141.195 99.1371L140.819 98.8078ZM140.819 117.946H140.319V98.8078H140.819H141.319V117.946H140.819ZM116.364 117.946V117.446H140.819V117.946V118.446H116.364V117.946ZM116.364 129.111H115.864V117.946H116.364H116.864V129.111H116.364ZM163.147 249.791V249.291H169.527V249.791V250.291H163.147V249.791ZM163.147 305.718H162.647V249.791H163.147H163.647V305.718H163.147ZM189.197 305.718V306.218H163.147V305.718V305.218H189.197V305.718ZM189.197 341.231H188.697V305.718H189.197H189.697V341.231H189.197ZM205.146 341.231V341.731H189.197V341.231V340.731H205.146V341.231ZM205.146 334.852H205.646V341.231H205.146H204.646V334.852H205.146ZM231.727 334.852V335.352H205.146V334.852V334.352H231.727V334.852ZM231.727 360.901H231.227V334.852H231.727H232.227V360.901H231.727ZM240.765 372.066L240.377 372.38L231.339 361.216L231.727 360.901L232.116 360.587L241.154 371.751L240.765 372.066ZM281.701 372.066V372.566H240.765V372.066V371.566H281.701V372.066ZM281.701 331.13H282.201V372.066H281.701H281.201V331.13H281.701ZM299.244 331.13V331.63H281.701V331.13V330.63H299.244V331.13ZM299.244 304.549H299.744V331.13H299.244H298.744V304.549H299.244ZM264.157 304.549V304.049H299.244V304.549V305.049H264.157V304.549ZM264.157 276.904H264.657V304.549H264.157H263.657V276.904H264.157ZM256.714 276.904V276.404H264.157V276.904V277.404H256.714V276.904ZM256.714 290.726H256.214V276.904H256.714H257.214V290.726H256.714ZM213.12 290.726V290.226H256.714V290.726V291.226H213.12V290.726ZM213.12 278.499H213.62V290.726H213.12H212.62V278.499H213.12ZM222.945 268.398L223.304 268.746L213.479 278.847L213.12 278.499L212.762 278.15L222.587 268.049L222.945 268.398ZM222.945 261.487H223.445V268.398H222.945H222.445V261.487H222.945ZM201.425 261.487V260.987H222.945V261.487V261.987H201.425V261.487ZM201.425 249.791H201.925V261.487H201.425H200.925V249.791H201.425ZM198.235 249.791V249.291H201.425V249.791V250.291H198.235V249.791ZM198.235 265.208H197.735V249.791H198.235H198.735V265.208H198.235ZM169.527 265.208V264.708H198.235V265.208V265.708H169.527V265.208ZM169.527 249.791H170.027V265.208H169.527H169.027V249.791H169.527ZM92.4403 362.496H91.9403V338.041H92.4403H92.9403V362.496H92.4403ZM104.136 362.496V362.996H92.4403V362.496V361.996H104.136V362.496ZM104.136 370.471H103.636V362.496H104.136H104.636V370.471H104.136ZM119.022 370.471V370.971H104.136V370.471V369.971H119.022V370.471ZM119.022 341.231H119.522V370.471H119.022H118.522V341.231H119.022ZM173.954 341.231V341.731H119.022V341.231V340.731H173.954V341.231ZM173.954 316.776H174.454V341.231H173.954H173.454V316.776H173.954ZM146.135 316.776V316.276H173.954V316.776V317.276H146.135V316.776ZM146.135 292.853H146.635V316.776H146.135H145.635V292.853H146.135ZM114.769 292.853V292.353H146.135V292.853V293.353H114.769V292.853ZM114.769 338.041H114.269V292.853H114.769H115.269V338.041H114.769ZM92.4403 338.041V337.541H114.769V338.041V338.541H92.4403V338.041ZM40.8722 304.017V303.517H78.0863V304.017V304.517H40.8722V304.017ZM40.8722 286.473H41.3722V304.017H40.8722H40.3722V286.473H40.8722ZM78.0863 286.473L78.0792 286.973C71.8778 286.885 62.5761 286.778 54.8255 286.747C50.9497 286.732 47.4644 286.735 44.9492 286.769C43.6906 286.786 42.6801 286.81 41.9863 286.843C41.6376 286.86 41.3789 286.878 41.2117 286.898C41.1248 286.908 41.0809 286.916 41.0666 286.92C41.0554 286.923 41.0829 286.917 41.1236 286.896C41.1435 286.885 41.193 286.858 41.2431 286.804C41.2962 286.746 41.3722 286.634 41.3722 286.473H40.8722H40.3722C40.3722 286.306 40.4512 286.187 40.5104 286.123C40.5665 286.063 40.625 286.028 40.6568 286.012C40.7215 285.977 40.7848 285.96 40.8209 285.951C40.9012 285.93 40.9982 285.916 41.0961 285.905C41.2983 285.881 41.5847 285.861 41.9386 285.844C42.6501 285.81 43.6747 285.786 44.9358 285.769C47.46 285.735 50.9523 285.732 54.8295 285.747C62.5848 285.778 71.8902 285.885 78.0935 285.973L78.0863 286.473ZM78.0863 304.017H77.5863V286.473H78.0863H78.5863V304.017H78.0863ZM115.832 143.996H116.332V184.932H115.832H115.332V143.996H115.832ZM122.743 143.996V144.496H115.832V143.996V143.496H122.743V143.996ZM122.743 184.4H122.243V143.996H122.743H123.243V184.4H122.743ZM188.665 184.4V184.9H122.743V184.4V183.9H188.665V184.4ZM188.665 169.515H189.165V184.4H188.665H188.165V169.515H188.665ZM191.324 169.515V170.015H188.665V169.515V169.015H191.324V169.515ZM191.324 208.855H190.824V169.515H191.324H191.824V208.855H191.324ZM201.425 208.855V209.355H191.324V208.855V208.355H201.425V208.855ZM201.425 233.31H200.925V208.855H201.425H201.925V233.31H201.425ZM163.679 233.31V232.81H201.425V233.31V233.81H163.679V233.31ZM145.603 215.235L145.957 214.881L164.032 232.957L163.679 233.31L163.325 233.664L145.25 215.588L145.603 215.235ZM132.844 215.235V214.735H145.603V215.235V215.735H132.844V215.235ZM132.844 247.664H132.344V215.235H132.844H133.344V247.664H132.844ZM96.1617 247.664V247.164H132.844V247.664V248.164H96.1617V247.664ZM85.5291 258.828L85.1671 258.484L95.7997 247.319L96.1617 247.664L96.5238 248.009L85.8912 259.173L85.5291 258.828ZM40.8722 258.828V258.328H85.5291V258.828V259.328H40.8722V258.828ZM40.8722 227.994H41.3722V258.828H40.8722H40.3722V227.994H40.8722ZM99.3515 227.994V228.494H40.8722V227.994V227.494H99.3515V227.994ZM99.3515 191.843H99.8515V227.994H99.3515H98.8515V191.843H99.3515ZM96.6934 191.843V191.343H99.3515V191.843V192.343H96.6934V191.843ZM96.6934 184.932H97.1934V191.843H96.6934H96.1934V184.932H96.6934ZM115.832 184.932V185.432H96.6934V184.932V184.432H115.832V184.932Z" fill="#B27C40"/>
<path d="M339.117 224.804H327.421" stroke="#B27C40"/>
<path d="M283.296 275.841H277.979V272.119V271.588M277.979 271.588H277.448V262.55M277.979 271.588H283.296M350.813 302.422H358.256M358.256 302.422V309.865M358.256 302.422H366.23V309.865H358.256M358.256 341.231V309.865" stroke="#B27C40" stroke-width="0.5"/>
<path d="M366.23 259.36V243.943H358.255M425.772 164.73H417.798V157.287M425.241 153.034H417.798V157.287M425.241 157.287H417.798" stroke="#B27C40"/>
<path d="M425.241 144.528H420.988V127.251H425.241M425.241 117.946H417.798V113.162M304.029 138.68V130.174H311.472M318.915 138.68V130.174H311.472M311.472 130.174V138.68" stroke="#B27C40"/>
<path d="M343.901 341.231V335.915H344.965V341.231M417.798 338.041V330.067H425.241V338.041M435.342 321.029V306.144H442.785V321.029H435.342Z" stroke="#B27C40"/>
<path d="M294.992 262.55H299.776M294.992 255.639H305.624V262.55H299.776M299.776 262.55V266.803H294.992M294.992 290.195H309.346V289.131H294.992" stroke="#B27C40"/>
<path d="M299.245 319.966H307.219V324.219H299.245M307.751 324.219V331.13H299.245" stroke="#B27C40"/>
<path d="M107.326 321.029H99.8832V314.118H107.326M24.9233 366.749V359.307H28.6448M33.4294 359.307H28.6448M28.6448 359.307V355.054H33.4294M119.022 348.674H126.996V341.231M163.147 271.056H155.173V263.613H163.147M198.235 249.791H181.754M67.9854 95.0863H78.618L98.8199 92.4282V94.0231H108.389V86.0486M116.364 117.946H107.326V125.389H116.364M128.06 184.4V143.996H122.212M147.73 184.4V176.957M181.223 184.4V176.957H188.665M239.17 184.932H223.753V191.843H239.17M239.17 204.071H234.386V208.324H239.17M241.297 225.867H232.259V233.31H241.297M223.221 262.55H224.816V261.487H223.221" stroke="#B27C40"/>
<path d="M236.512 262.55H234.917V261.169M236.512 262.55V261.169H234.917M236.512 262.55L234.917 261.169" stroke="#B27C40"/>
<path d="M68.517 227.994V220.019H76.4914V227.994M17.4805 227.462H24.9233V235.437H17.4805" stroke="#B27C40"/>
<path d="M1 266.803H10.0377M10.0377 266.803V258.829M10.0377 266.803V276.904H1M10.0377 266.803H17.4805V258.829" stroke="#B27C40"/>
<path d="M70.1119 286.473V278.499H78.0864V286.473M1 318.371H21.7336V309.333H1M56.8212 304.017V311.46H64.264V304.017M131.781 247.664V265.208H132.844V247.664" stroke="#B27C40"/>
<path d="M36.6192 176.426V178.552H25.4549M25.4549 178.552V176.426M25.4549 178.552V184.4H17.4805M80.2128 184.932V161.009M80.2128 156.755H67.9853M80.2128 156.755V161.009M80.2128 156.755H83.9342V161.009H80.2128" stroke="#B27C40"/>
<path d="M283.045 304.299V262.8H264.407V304.299H283.045Z" stroke="#B27C40" stroke-width="0.5"/>
<path d="M425.773 255.107V192.211M380.584 168.451V184.932M234.917 208.324H224.285V233.842M113.706 278.499H131.781V247.664H96.1619L85.5293 258.828H113.706V278.499Z" stroke="#B27C40" stroke-width="0.5"/>
<path d="M131.781 278.499V284.347H115.301V278.499H107.326V338.041" stroke="#B27C40" stroke-width="0.5"/>
<circle cx="4.78467" cy="4.78467" r="4.28467" transform="matrix(1 0 0 -1 191.324 149.844)" stroke="#B27C40"/>
<circle cx="2.12652" cy="2.12652" r="1.87652" transform="matrix(1 0 0 -1 199.83 145.591)" stroke="#B27C40" stroke-width="0.5"/>
<circle cx="2.65815" cy="2.65815" r="2.40815" transform="matrix(1 0 0 -1 76.4917 228.526)" stroke="#B27C40" stroke-width="0.5"/>
<path d="M40.3408 337.51H48.8469V327.016H40.3408V337.51Z" fill="#F08234" fill-opacity="0.2"/>
<path d="M78.6182 304.549H107.062V297.91H78.6182V304.549Z" fill="#F08234" fill-opacity="0.2"/>
<path d="M107.327 321.561H99.3521V313.586H107.327V304.549H64.7964V311.991H56.2896V304.549H48.8472V337.51H107.327V321.561Z" fill="#F08234" fill-opacity="0.2"/>
<path d="M70.9014 318.207V310.207H73.9639C74.542 310.207 75.0225 310.298 75.4053 310.48C75.7907 310.66 76.0785 310.906 76.2686 311.219C76.4613 311.531 76.5576 311.885 76.5576 312.281C76.5576 312.607 76.4951 312.885 76.3701 313.117C76.2451 313.346 76.0771 313.532 75.8662 313.676C75.6553 313.819 75.4196 313.922 75.1592 313.984V314.062C75.443 314.078 75.7152 314.165 75.9756 314.324C76.2386 314.48 76.4535 314.702 76.6201 314.988C76.7868 315.274 76.8701 315.621 76.8701 316.027C76.8701 316.441 76.7699 316.814 76.5693 317.144C76.3688 317.472 76.0667 317.732 75.6631 317.922C75.2594 318.112 74.7516 318.207 74.1396 318.207H70.9014ZM72.3506 316.996H73.9092C74.4352 316.996 74.8141 316.896 75.0459 316.695C75.2803 316.492 75.3975 316.232 75.3975 315.914C75.3975 315.677 75.3389 315.463 75.2217 315.273C75.1045 315.08 74.9378 314.929 74.7217 314.82C74.5055 314.708 74.2477 314.652 73.9482 314.652H72.3506V316.996ZM72.3506 313.609H73.7842C74.0342 313.609 74.2594 313.564 74.46 313.472C74.6605 313.379 74.818 313.247 74.9326 313.078C75.0498 312.906 75.1084 312.703 75.1084 312.469C75.1084 312.159 74.999 311.903 74.7803 311.703C74.5641 311.502 74.2425 311.402 73.8154 311.402H72.3506V313.609Z" fill="white"/>
<path d="M425.772 359.307H465.645V343.358H425.772V359.307Z" fill="#F08234" fill-opacity="0.23"/>
<path d="M463.655 283.815H425.596V283.816L433.215 283.848L425.596 289.157V290.195H412.662V283.815H412.619V337.51H417.266V329.535H425.773V343.358H463.655V283.815ZM434.81 305.612H443.316V321.561H434.81V305.612Z" fill="#F08234" fill-opacity="0.23"/>
<path d="M465.645 268.929H455.543L434.81 283.815H465.645V268.929Z" fill="#F08234" fill-opacity="0.23"/>
<path d="M444.069 340.535H442.522L445.339 332.535H447.128L449.948 340.535H448.401L446.265 334.176H446.202L444.069 340.535ZM444.12 337.399H448.339V338.563H444.12V337.399Z" fill="white"/>
</svg>
