<svg width="364" height="418" viewBox="0 0 364 418" fill="none" xmlns="http://www.w3.org/2000/svg">
<mask id="path-1-outside-1_316_678" maskUnits="userSpaceOnUse" x="0.967285" y="17" width="363" height="385" fill="black">
<rect fill="white" x="0.967285" y="17" width="363" height="385"/>
<path d="M177.308 399.064C188.297 394.881 194.448 392.822 205.363 391.584H240.43V346.696L243.938 343.424H314.775C322.18 341.113 324.841 338.621 325.997 331.267V317.707H312.437V306.485H316.645V304.614L323.659 297.601H325.997V292.926H337.218V294.796H362.467V256.922H350.311V245.556H362.467V196.138H324.126L318.515 201.748V208.294H307.293V147.51H258.666V123.663H271.291V99.3496L222.195 50.2539L222.063 18.9268H166.553V98.8818H118.393V97.9463H106.704L99.6909 104.96V117.585L103.431 121.793L100.158 125.065L97.8198 123.195H74.9087V153.588H63.687V141.207H6.17529V172.759H17.397V183.98H1.96729V209.229H14.1245V232.608H1.96729V270.014H41.7114V275.625H32.3599V295.263C34.0087 302.506 35.9377 305.446 43.1138 306.485H130.083V324.253H117.926V365.867L122.134 376.621L134.758 387.375L137.564 393.454C143.058 394.163 146.128 394.718 151.591 396.26H159.073L163.749 400L177.308 399.064ZM227.774 172.323V158.926L217.767 148.009H142.405V123.163H191.302V76.873H198.381V80.6133H221.935L239.996 98.6738V172.323H227.774ZM123.972 220.951V196.637H63.9614L60.8364 201.549L60.5894 201.937L60.1821 201.724L50.3628 196.58L49.9438 196.36L50.1401 195.93L52.3022 191.174L51.2524 190.475L51.0298 190.326V184.479H36.0679V172.258H111.815V137.897L110.091 136.173L109.738 135.819L114.185 131.372L114.539 131.726L118.28 135.466L118.426 135.612V172.258H167.521V184.479H142.74V220.951H123.972ZM191.302 217.678V162.906H203.525V172.323H197.446V208.729H203.992V217.678H191.302ZM191.302 281.735V270.046H188.498V257.356H191.302V242.22L191.449 242.073L200.333 233.189L200.48 233.043H221.695V196.637H215.617V184.415H239.996V185.817H270.791V172.258H283.012V196.637H270.791V195.234H246.542V281.735H191.302ZM60.3813 276.125V269.514H75.812V212.47H81.9546V276.125H60.3813ZM26.7163 245.265V220.886H30.0542V226.965H47.7573V220.886H51.563V245.265H26.7163ZM325.496 271.449V233.084L282.044 233.108H282.042L271.294 233.084L269.426 233.108H269.387L269.349 233.104C267.591 232.852 266.299 232.05 265.455 230.925C264.617 229.809 264.244 228.411 264.244 226.997C264.244 225.103 264.736 223.683 265.661 222.674C266.581 221.67 267.871 221.137 269.337 220.893L269.378 220.887H337.718V271.449H325.496ZM93.5796 294.36V245.02L93.7329 244.872L105.89 233.183L106.035 233.043H143.457V237.039H142.74V257.356H170.327V270.046H118.426V294.36H93.5796ZM231.046 318.206V305.984H257.997L270.791 293.648V272.852H264.245V266.708H270.791V257.356H282.544V281.671H289.09V305.984H290.494V318.206H231.046ZM142.675 349.066V294.295H154.897V299.906H215.681V349.066H203.459V336.909H154.897V349.066H142.675Z"/>
</mask>
<path d="M177.308 399.064C188.297 394.881 194.448 392.822 205.363 391.584H240.43V346.696L243.938 343.424H314.775C322.18 341.113 324.841 338.621 325.997 331.267V317.707H312.437V306.485H316.645V304.614L323.659 297.601H325.997V292.926H337.218V294.796H362.467V256.922H350.311V245.556H362.467V196.138H324.126L318.515 201.748V208.294H307.293V147.51H258.666V123.663H271.291V99.3496L222.195 50.2539L222.063 18.9268H166.553V98.8818H118.393V97.9463H106.704L99.6909 104.96V117.585L103.431 121.793L100.158 125.065L97.8198 123.195H74.9087V153.588H63.687V141.207H6.17529V172.759H17.397V183.98H1.96729V209.229H14.1245V232.608H1.96729V270.014H41.7114V275.625H32.3599V295.263C34.0087 302.506 35.9377 305.446 43.1138 306.485H130.083V324.253H117.926V365.867L122.134 376.621L134.758 387.375L137.564 393.454C143.058 394.163 146.128 394.718 151.591 396.26H159.073L163.749 400L177.308 399.064ZM227.774 172.323V158.926L217.767 148.009H142.405V123.163H191.302V76.873H198.381V80.6133H221.935L239.996 98.6738V172.323H227.774ZM123.972 220.951V196.637H63.9614L60.8364 201.549L60.5894 201.937L60.1821 201.724L50.3628 196.58L49.9438 196.36L50.1401 195.93L52.3022 191.174L51.2524 190.475L51.0298 190.326V184.479H36.0679V172.258H111.815V137.897L110.091 136.173L109.738 135.819L114.185 131.372L114.539 131.726L118.28 135.466L118.426 135.612V172.258H167.521V184.479H142.74V220.951H123.972ZM191.302 217.678V162.906H203.525V172.323H197.446V208.729H203.992V217.678H191.302ZM191.302 281.735V270.046H188.498V257.356H191.302V242.22L191.449 242.073L200.333 233.189L200.48 233.043H221.695V196.637H215.617V184.415H239.996V185.817H270.791V172.258H283.012V196.637H270.791V195.234H246.542V281.735H191.302ZM60.3813 276.125V269.514H75.812V212.47H81.9546V276.125H60.3813ZM26.7163 245.265V220.886H30.0542V226.965H47.7573V220.886H51.563V245.265H26.7163ZM325.496 271.449V233.084L282.044 233.108H282.042L271.294 233.084L269.426 233.108H269.387L269.349 233.104C267.591 232.852 266.299 232.05 265.455 230.925C264.617 229.809 264.244 228.411 264.244 226.997C264.244 225.103 264.736 223.683 265.661 222.674C266.581 221.67 267.871 221.137 269.337 220.893L269.378 220.887H337.718V271.449H325.496ZM93.5796 294.36V245.02L93.7329 244.872L105.89 233.183L106.035 233.043H143.457V237.039H142.74V257.356H170.327V270.046H118.426V294.36H93.5796ZM231.046 318.206V305.984H257.997L270.791 293.648V272.852H264.245V266.708H270.791V257.356H282.544V281.671H289.09V305.984H290.494V318.206H231.046ZM142.675 349.066V294.295H154.897V299.906H215.681V349.066H203.459V336.909H154.897V349.066H142.675Z" fill="#271406"/>
<path d="M177.308 399.064L177.664 399.999L177.525 400.052L177.377 400.062L177.308 399.064ZM205.363 391.584L205.25 390.59L205.306 390.584H205.363V391.584ZM240.43 391.584H241.43V392.584H240.43V391.584ZM240.43 346.696H239.43V346.262L239.748 345.965L240.43 346.696ZM243.938 343.424L243.256 342.693L243.544 342.424H243.938V343.424ZM314.775 343.424L315.073 344.378L314.927 344.424H314.775V343.424ZM325.997 331.267H326.997V331.345L326.984 331.422L325.997 331.267ZM325.997 317.707V316.707H326.997V317.707H325.997ZM312.437 317.707V318.707H311.437V317.707H312.437ZM312.437 306.485H311.437V305.485H312.437V306.485ZM316.645 306.485H317.645V307.485H316.645V306.485ZM316.645 304.614H315.645V304.2L315.938 303.907L316.645 304.614ZM323.659 297.601L322.952 296.893L323.244 296.601H323.659V297.601ZM325.997 297.601H326.997V298.601H325.997V297.601ZM325.997 292.926H324.997V291.926H325.997V292.926ZM337.218 292.926V291.926H338.218V292.926H337.218ZM337.218 294.796V295.796H336.218V294.796H337.218ZM362.467 294.796H363.467V295.796H362.467V294.796ZM362.467 256.922V255.922H363.467V256.922H362.467ZM350.311 256.922V257.922H349.311V256.922H350.311ZM350.311 245.556H349.311V244.556H350.311V245.556ZM362.467 245.556H363.467V246.556H362.467V245.556ZM362.467 196.138V195.138H363.467V196.138H362.467ZM324.126 196.138L323.419 195.431L323.712 195.138H324.126V196.138ZM318.515 201.748H317.515V201.334L317.808 201.041L318.515 201.748ZM318.515 208.294H319.515V209.294H318.515V208.294ZM307.293 208.294V209.294H306.293V208.294H307.293ZM307.293 147.51V146.51H308.293V147.51H307.293ZM258.666 147.51V148.51H257.666V147.51H258.666ZM258.666 123.663H257.666V122.663H258.666V123.663ZM271.291 123.663H272.291V124.663H271.291V123.663ZM271.291 99.3496L271.998 98.6425L272.291 98.9354V99.3496H271.291ZM222.195 50.2539L221.488 50.961L221.197 50.6699L221.195 50.2581L222.195 50.2539ZM222.063 18.9268V17.9268H223.059L223.063 18.9225L222.063 18.9268ZM166.553 18.9268H165.553V17.9268H166.553V18.9268ZM166.553 98.8818H167.553V99.8818H166.553V98.8818ZM118.393 98.8818V99.8818H117.393V98.8818H118.393ZM118.393 97.9463V96.9463H119.393V97.9463H118.393ZM106.704 97.9463L105.996 97.2392L106.289 96.9463H106.704V97.9463ZM99.6909 104.96H98.6909V104.546L98.9838 104.253L99.6909 104.96ZM99.6909 117.585L98.9435 118.249L98.6909 117.965V117.585H99.6909ZM103.431 121.793L104.179 121.129L104.805 121.833L104.138 122.5L103.431 121.793ZM100.158 125.065L100.865 125.773L100.232 126.405L99.5331 125.846L100.158 125.065ZM97.8198 123.195V122.195H98.1706L98.4445 122.414L97.8198 123.195ZM74.9087 123.195H73.9087V122.195H74.9087V123.195ZM74.9087 153.588H75.9087V154.588H74.9087V153.588ZM63.687 153.588V154.588H62.687V153.588H63.687ZM63.687 141.207V140.207H64.687V141.207H63.687ZM6.17529 141.207H5.17529V140.207H6.17529V141.207ZM6.17529 172.759V173.759H5.17529V172.759H6.17529ZM17.397 172.759V171.759H18.397V172.759H17.397ZM17.397 183.98H18.397V184.98H17.397V183.98ZM1.96729 183.98H0.967285V182.98H1.96729V183.98ZM1.96729 209.229V210.229H0.967285V209.229H1.96729ZM14.1245 209.229V208.229H15.1245V209.229H14.1245ZM14.1245 232.608H15.1245V233.608H14.1245V232.608ZM1.96729 232.608H0.967285V231.608H1.96729V232.608ZM1.96729 270.014V271.014H0.967285V270.014H1.96729ZM41.7114 270.014V269.014H42.7114V270.014H41.7114ZM41.7114 275.625H42.7114V276.625H41.7114V275.625ZM32.3599 275.625H31.3599V274.625H32.3599V275.625ZM32.3599 295.263L31.3848 295.485L31.3599 295.375V295.263H32.3599ZM43.1138 306.485V307.485H43.0417L42.9704 307.475L43.1138 306.485ZM130.083 306.485V305.485H131.083V306.485H130.083ZM130.083 324.253H131.083V325.253H130.083V324.253ZM117.926 324.253H116.926V323.253H117.926V324.253ZM117.926 365.867L116.995 366.232L116.926 366.056V365.867H117.926ZM122.134 376.621L121.486 377.382L121.295 377.219L121.203 376.985L122.134 376.621ZM134.758 387.375L135.407 386.614L135.574 386.756L135.666 386.956L134.758 387.375ZM137.564 393.454L137.436 394.446L136.888 394.375L136.656 393.873L137.564 393.454ZM151.591 396.26V397.26H151.453L151.32 397.222L151.591 396.26ZM159.073 396.26V395.26H159.424L159.697 395.479L159.073 396.26ZM163.749 400L163.817 400.998L163.428 401.024L163.124 400.781L163.749 400ZM227.774 172.323V173.323H226.774V172.323H227.774ZM227.774 158.926L228.511 158.25L228.774 158.537V158.926H227.774ZM217.767 148.009V147.009H218.207L218.504 147.333L217.767 148.009ZM142.405 148.009V149.009H141.405V148.009H142.405ZM142.405 123.163H141.405V122.163H142.405V123.163ZM191.302 123.163H192.302V124.163H191.302V123.163ZM191.302 76.873H190.302V75.873H191.302V76.873ZM198.381 76.873V75.873H199.381V76.873H198.381ZM198.381 80.6133V81.6133H197.381V80.6133H198.381ZM221.935 80.6133V79.6133H222.349L222.642 79.9062L221.935 80.6133ZM239.996 98.6738L240.703 97.9667L240.996 98.2596V98.6738H239.996ZM239.996 172.323H240.996V173.323H239.996V172.323ZM123.972 220.951V221.951H122.972V220.951H123.972ZM123.972 196.637V195.637H124.972V196.637H123.972ZM63.9614 196.637L63.1177 196.1L63.4124 195.637H63.9614V196.637ZM60.8364 201.549L61.6802 202.086L61.6797 202.086L60.8364 201.549ZM60.5894 201.937L61.4327 202.474L60.9394 203.248L60.1261 202.823L60.5894 201.937ZM60.1821 201.724L59.7188 202.61L59.7181 202.609L60.1821 201.724ZM50.3628 196.58L49.8988 197.466L49.8983 197.466L50.3628 196.58ZM49.9438 196.36L49.4794 197.246L48.6415 196.807L49.0339 195.946L49.9438 196.36ZM50.1401 195.93L51.0505 196.344L51.0501 196.344L50.1401 195.93ZM52.3022 191.174L52.8566 190.342L53.5647 190.813L53.2126 191.588L52.3022 191.174ZM51.2524 190.475L50.6981 191.307L50.6977 191.307L51.2524 190.475ZM51.0298 190.326L50.4751 191.158L50.0298 190.861V190.326H51.0298ZM51.0298 184.479V183.479H52.0298V184.479H51.0298ZM36.0679 184.479V185.479H35.0679V184.479H36.0679ZM36.0679 172.258H35.0679V171.258H36.0679V172.258ZM111.815 172.258H112.815V173.258H111.815V172.258ZM111.815 137.897L112.522 137.191L112.815 137.483V137.897H111.815ZM110.091 136.173L110.798 135.466L110.799 135.466L110.091 136.173ZM109.738 135.819L109.031 136.526L108.324 135.819L109.031 135.112L109.738 135.819ZM114.185 131.372L113.478 130.665L114.185 129.958L114.892 130.665L114.185 131.372ZM114.539 131.726L113.832 132.433L113.831 132.433L114.539 131.726ZM118.28 135.466L118.987 134.759L118.987 134.759L118.28 135.466ZM118.426 135.612L119.133 134.905L119.426 135.198V135.612H118.426ZM118.426 172.258V173.258H117.426V172.258H118.426ZM167.521 172.258V171.258H168.521V172.258H167.521ZM167.521 184.479H168.521V185.479H167.521V184.479ZM142.74 184.479H141.74V183.479H142.74V184.479ZM142.74 220.951H143.74V221.951H142.74V220.951ZM191.302 217.678V218.678H190.302V217.678H191.302ZM191.302 162.906H190.302V161.906H191.302V162.906ZM203.525 162.906V161.906H204.525V162.906H203.525ZM203.525 172.323H204.525V173.323H203.525V172.323ZM197.446 172.323H196.446V171.323H197.446V172.323ZM197.446 208.729V209.729H196.446V208.729H197.446ZM203.992 208.729V207.729H204.992V208.729H203.992ZM203.992 217.678H204.992V218.678H203.992V217.678ZM191.302 281.735V282.735H190.302V281.735H191.302ZM191.302 270.046V269.046H192.302V270.046H191.302ZM188.498 270.046V271.046H187.498V270.046H188.498ZM188.498 257.356H187.498V256.356H188.498V257.356ZM191.302 257.356H192.302V258.356H191.302V257.356ZM191.302 242.22H190.302V241.806L190.595 241.513L191.302 242.22ZM191.449 242.073L190.742 241.366L190.742 241.366L191.449 242.073ZM200.333 233.189L201.041 233.897L201.041 233.897L200.333 233.189ZM200.48 233.043L199.773 232.336L200.066 232.043H200.48V233.043ZM221.695 233.043H222.695V234.043H221.695V233.043ZM221.695 196.637V195.637H222.695V196.637H221.695ZM215.617 196.637V197.637H214.617V196.637H215.617ZM215.617 184.415H214.617V183.415H215.617V184.415ZM239.996 184.415V183.415H240.996V184.415H239.996ZM239.996 185.817V186.817H238.996V185.817H239.996ZM270.791 185.817H271.791V186.817H270.791V185.817ZM270.791 172.258H269.791V171.258H270.791V172.258ZM283.012 172.258V171.258H284.012V172.258H283.012ZM283.012 196.637H284.012V197.637H283.012V196.637ZM270.791 196.637V197.637H269.791V196.637H270.791ZM270.791 195.234V194.234H271.791V195.234H270.791ZM246.542 195.234H245.542V194.234H246.542V195.234ZM246.542 281.735H247.542V282.735H246.542V281.735ZM60.3813 276.125V277.125H59.3813V276.125H60.3813ZM60.3813 269.514H59.3813V268.514H60.3813V269.514ZM75.812 269.514H76.812V270.514H75.812V269.514ZM75.812 212.47H74.812V211.47H75.812V212.47ZM81.9546 212.47V211.47H82.9546V212.47H81.9546ZM81.9546 276.125H82.9546V277.125H81.9546V276.125ZM26.7163 245.265V246.265H25.7163V245.265H26.7163ZM26.7163 220.886H25.7163V219.886H26.7163V220.886ZM30.0542 220.886V219.886H31.0542V220.886H30.0542ZM30.0542 226.965V227.965H29.0542V226.965H30.0542ZM47.7573 226.965H48.7573V227.965H47.7573V226.965ZM47.7573 220.886H46.7573V219.886H47.7573V220.886ZM51.563 220.886V219.886H52.563V220.886H51.563ZM51.563 245.265H52.563V246.265H51.563V245.265ZM325.496 271.449V272.449H324.496V271.449H325.496ZM325.496 233.084L325.495 232.084L326.496 232.083V233.084H325.496ZM282.044 233.108L282.045 234.108H282.044V233.108ZM282.042 233.108V234.108L282.04 234.108L282.042 233.108ZM271.294 233.084L271.281 232.084L271.289 232.084L271.297 232.084L271.294 233.084ZM269.426 233.108L269.439 234.108H269.426V233.108ZM269.387 233.108V234.108H269.323L269.26 234.1L269.387 233.108ZM269.349 233.104L269.222 234.095L269.215 234.094L269.208 234.093L269.349 233.104ZM265.455 230.925L264.655 231.525L264.655 231.525L265.455 230.925ZM264.244 226.997L263.244 226.997L263.244 226.997L264.244 226.997ZM265.661 222.674L264.923 221.998L264.924 221.998L265.661 222.674ZM269.337 220.893L269.173 219.906L269.184 219.904L269.196 219.903L269.337 220.893ZM269.378 220.887L269.237 219.897L269.307 219.887H269.378V220.887ZM337.718 220.887V219.887H338.718V220.887H337.718ZM337.718 271.449H338.718V272.449H337.718V271.449ZM93.5796 294.36V295.36H92.5796V294.36H93.5796ZM93.5796 245.02H92.5796V244.594L92.8864 244.299L93.5796 245.02ZM93.7329 244.872L93.0397 244.151L93.0398 244.151L93.7329 244.872ZM105.89 233.183L106.585 233.902L106.583 233.903L105.89 233.183ZM106.035 233.043L105.34 232.324L105.63 232.043H106.035V233.043ZM143.457 233.043V232.043H144.457V233.043H143.457ZM143.457 237.039H144.457V238.039H143.457V237.039ZM142.74 237.039H141.74V236.039H142.74V237.039ZM142.74 257.356V258.356H141.74V257.356H142.74ZM170.327 257.356V256.356H171.327V257.356H170.327ZM170.327 270.046H171.327V271.046H170.327V270.046ZM118.426 270.046H117.426V269.046H118.426V270.046ZM118.426 294.36H119.426V295.36H118.426V294.36ZM231.046 318.206V319.206H230.046V318.206H231.046ZM231.046 305.984H230.046V304.984H231.046V305.984ZM257.997 305.984L258.691 306.704L258.4 306.984H257.997V305.984ZM270.791 293.648H271.791V294.073L271.485 294.368L270.791 293.648ZM270.791 272.852V271.852H271.791V272.852H270.791ZM264.245 272.852V273.852H263.245V272.852H264.245ZM264.245 266.708H263.245V265.708H264.245V266.708ZM270.791 266.708H271.791V267.708H270.791V266.708ZM270.791 257.356H269.791V256.356H270.791V257.356ZM282.544 257.356V256.356H283.544V257.356H282.544ZM282.544 281.671V282.671H281.544V281.671H282.544ZM289.09 281.671V280.671H290.09V281.671H289.09ZM289.09 305.984V306.984H288.09V305.984H289.09ZM290.494 305.984V304.984H291.494V305.984H290.494ZM290.494 318.206H291.494V319.206H290.494V318.206ZM142.675 349.066V350.066H141.675V349.066H142.675ZM142.675 294.295H141.675V293.295H142.675V294.295ZM154.897 294.295V293.295H155.897V294.295H154.897ZM154.897 299.906V300.906H153.897V299.906H154.897ZM215.681 299.906V298.906H216.681V299.906H215.681ZM215.681 349.066H216.681V350.066H215.681V349.066ZM203.459 349.066V350.066H202.459V349.066H203.459ZM203.459 336.909V335.909H204.459V336.909H203.459ZM154.897 336.909H153.897V335.909H154.897V336.909ZM154.897 349.066H155.897V350.066H154.897V349.066ZM177.308 399.064L176.952 398.13C187.972 393.935 194.213 391.842 205.25 390.59L205.363 391.584L205.476 392.578C194.683 393.802 188.623 395.827 177.664 399.999L177.308 399.064ZM205.363 391.584V390.584H240.43V391.584V392.584H205.363V391.584ZM240.43 391.584H239.43V346.696H240.43H241.43V391.584H240.43ZM240.43 346.696L239.748 345.965L243.256 342.693L243.938 343.424L244.62 344.155L241.112 347.428L240.43 346.696ZM243.938 343.424V342.424H314.775V343.424V344.424H243.938V343.424ZM314.775 343.424L314.477 342.469C318.141 341.326 320.451 340.187 322.004 338.549C323.538 336.93 324.445 334.701 325.009 331.111L325.997 331.267L326.984 331.422C326.393 335.187 325.391 337.882 323.455 339.924C321.537 341.949 318.813 343.211 315.073 344.378L314.775 343.424ZM325.997 331.267H324.997V317.707H325.997H326.997V331.267H325.997ZM325.997 317.707V318.707H312.437V317.707V316.707H325.997V317.707ZM312.437 317.707H311.437V306.485H312.437H313.437V317.707H312.437ZM312.437 306.485V305.485H316.645V306.485V307.485H312.437V306.485ZM316.645 306.485H315.645V304.614H316.645H317.645V306.485H316.645ZM316.645 304.614L315.938 303.907L322.952 296.893L323.659 297.601L324.366 298.308L317.352 305.321L316.645 304.614ZM323.659 297.601V296.601H325.997V297.601V298.601H323.659V297.601ZM325.997 297.601H324.997V292.926H325.997H326.997V297.601H325.997ZM325.997 292.926V291.926H337.218V292.926V293.926H325.997V292.926ZM337.218 292.926H338.218V294.796H337.218H336.218V292.926H337.218ZM337.218 294.796V293.796H362.467V294.796V295.796H337.218V294.796ZM362.467 294.796H361.467V256.922H362.467H363.467V294.796H362.467ZM362.467 256.922V257.922H350.311V256.922V255.922H362.467V256.922ZM350.311 256.922H349.311V245.556H350.311H351.311V256.922H350.311ZM350.311 245.556V244.556H362.467V245.556V246.556H350.311V245.556ZM362.467 245.556H361.467V196.138H362.467H363.467V245.556H362.467ZM362.467 196.138V197.138H324.126V196.138V195.138H362.467V196.138ZM324.126 196.138L324.834 196.845L319.222 202.455L318.515 201.748L317.808 201.041L323.419 195.431L324.126 196.138ZM318.515 201.748H319.515V208.294H318.515H317.515V201.748H318.515ZM318.515 208.294V209.294H307.293V208.294V207.294H318.515V208.294ZM307.293 208.294H306.293V147.51H307.293H308.293V208.294H307.293ZM307.293 147.51V148.51H258.666V147.51V146.51H307.293V147.51ZM258.666 147.51H257.666V123.663H258.666H259.666V147.51H258.666ZM258.666 123.663V122.663H271.291V123.663V124.663H258.666V123.663ZM271.291 123.663H270.291V99.3496H271.291H272.291V123.663H271.291ZM271.291 99.3496L270.583 100.057L221.488 50.961L222.195 50.2539L222.902 49.5468L271.998 98.6425L271.291 99.3496ZM222.195 50.2539L221.195 50.2581L221.063 18.931L222.063 18.9268L223.063 18.9225L223.195 50.2497L222.195 50.2539ZM222.063 18.9268V19.9268H166.553V18.9268V17.9268H222.063V18.9268ZM166.553 18.9268H167.553V98.8818H166.553H165.553V18.9268H166.553ZM166.553 98.8818V99.8818H118.393V98.8818V97.8818H166.553V98.8818ZM118.393 98.8818H117.393V97.9463H118.393H119.393V98.8818H118.393ZM118.393 97.9463V98.9463H106.704V97.9463V96.9463H118.393V97.9463ZM106.704 97.9463L107.411 98.6533L100.398 105.667L99.6909 104.96L98.9838 104.253L105.996 97.2392L106.704 97.9463ZM99.6909 104.96H100.691V117.585H99.6909H98.6909V104.96H99.6909ZM99.6909 117.585L100.438 116.921L104.179 121.129L103.431 121.793L102.684 122.457L98.9435 118.249L99.6909 117.585ZM103.431 121.793L104.138 122.5L100.865 125.773L100.158 125.065L99.4507 124.358L102.724 121.086L103.431 121.793ZM100.158 125.065L99.5331 125.846L97.1952 123.976L97.8198 123.195L98.4445 122.414L100.782 124.285L100.158 125.065ZM97.8198 123.195V124.195H74.9087V123.195V122.195H97.8198V123.195ZM74.9087 123.195H75.9087V153.588H74.9087H73.9087V123.195H74.9087ZM74.9087 153.588V154.588H63.687V153.588V152.588H74.9087V153.588ZM63.687 153.588H62.687V141.207H63.687H64.687V153.588H63.687ZM63.687 141.207V142.207H6.17529V141.207V140.207H63.687V141.207ZM6.17529 141.207H7.17529V172.759H6.17529H5.17529V141.207H6.17529ZM6.17529 172.759V171.759H17.397V172.759V173.759H6.17529V172.759ZM17.397 172.759H18.397V183.98H17.397H16.397V172.759H17.397ZM17.397 183.98V184.98H1.96729V183.98V182.98H17.397V183.98ZM1.96729 183.98H2.96729V209.229H1.96729H0.967285V183.98H1.96729ZM1.96729 209.229V208.229H14.1245V209.229V210.229H1.96729V209.229ZM14.1245 209.229H15.1245V232.608H14.1245H13.1245V209.229H14.1245ZM14.1245 232.608V233.608H1.96729V232.608V231.608H14.1245V232.608ZM1.96729 232.608H2.96729V270.014H1.96729H0.967285V232.608H1.96729ZM1.96729 270.014V269.014H41.7114V270.014V271.014H1.96729V270.014ZM41.7114 270.014H42.7114V275.625H41.7114H40.7114V270.014H41.7114ZM41.7114 275.625V276.625H32.3599V275.625V274.625H41.7114V275.625ZM32.3599 275.625H33.3599V295.263H32.3599H31.3599V275.625H32.3599ZM32.3599 295.263L33.3349 295.041C34.1565 298.65 35.0087 300.97 36.409 302.533C37.7724 304.056 39.7807 304.992 43.2571 305.496L43.1138 306.485L42.9704 307.475C39.2707 306.939 36.7266 305.886 34.9192 303.868C33.1487 301.891 32.2121 299.119 31.3848 295.485L32.3599 295.263ZM43.1138 306.485V305.485H130.083V306.485V307.485H43.1138V306.485ZM130.083 306.485H131.083V324.253H130.083H129.083V306.485H130.083ZM130.083 324.253V325.253H117.926V324.253V323.253H130.083V324.253ZM117.926 324.253H118.926V365.867H117.926H116.926V324.253H117.926ZM117.926 365.867L118.858 365.503L123.066 376.257L122.134 376.621L121.203 376.985L116.995 366.232L117.926 365.867ZM122.134 376.621L122.783 375.86L135.407 386.614L134.758 387.375L134.11 388.136L121.486 377.382L122.134 376.621ZM134.758 387.375L135.666 386.956L138.472 393.035L137.564 393.454L136.656 393.873L133.85 387.794L134.758 387.375ZM137.564 393.454L137.692 392.462C143.224 393.176 146.344 393.74 151.863 395.297L151.591 396.26L151.32 397.222C145.913 395.697 142.893 395.15 137.436 394.446L137.564 393.454ZM151.591 396.26V395.26H159.073V396.26V397.26H151.591V396.26ZM159.073 396.26L159.697 395.479L164.373 399.219L163.749 400L163.124 400.781L158.448 397.041L159.073 396.26ZM163.749 400L163.68 399.002L177.239 398.067L177.308 399.064L177.377 400.062L163.817 400.998L163.749 400ZM227.774 172.323H226.774V158.926H227.774H228.774V172.323H227.774ZM227.774 158.926L227.037 159.601L217.03 148.684L217.767 148.009L218.504 147.333L228.511 158.25L227.774 158.926ZM217.767 148.009V149.009H142.405V148.009V147.009H217.767V148.009ZM142.405 148.009H141.405V123.163H142.405H143.405V148.009H142.405ZM142.405 123.163V122.163H191.302V123.163V124.163H142.405V123.163ZM191.302 123.163H190.302V76.873H191.302H192.302V123.163H191.302ZM191.302 76.873V75.873H198.381V76.873V77.873H191.302V76.873ZM198.381 76.873H199.381V80.6133H198.381H197.381V76.873H198.381ZM198.381 80.6133V79.6133H221.935V80.6133V81.6133H198.381V80.6133ZM221.935 80.6133L222.642 79.9062L240.703 97.9667L239.996 98.6738L239.288 99.3809L221.228 81.3204L221.935 80.6133ZM239.996 98.6738H240.996V172.323H239.996H238.996V98.6738H239.996ZM239.996 172.323V173.323H227.774V172.323V171.323H239.996V172.323ZM123.972 220.951H122.972V196.637H123.972H124.972V220.951H123.972ZM123.972 196.637V197.637H63.9614V196.637V195.637H123.972V196.637ZM63.9614 196.637L64.8052 197.173L61.6802 202.086L60.8364 201.549L59.9927 201.012L63.1177 196.1L63.9614 196.637ZM60.8364 201.549L61.6797 202.086L61.4327 202.474L60.5894 201.937L59.746 201.399L59.9931 201.011L60.8364 201.549ZM60.5894 201.937L60.1261 202.823L59.7188 202.61L60.1821 201.724L60.6454 200.837L61.0526 201.05L60.5894 201.937ZM60.1821 201.724L59.7181 202.609L49.8988 197.466L50.3628 196.58L50.8268 195.694L60.6461 200.838L60.1821 201.724ZM50.3628 196.58L49.8983 197.466L49.4794 197.246L49.9438 196.36L50.4083 195.475L50.8273 195.694L50.3628 196.58ZM49.9438 196.36L49.0339 195.946L49.2302 195.515L50.1401 195.93L51.0501 196.344L50.8538 196.775L49.9438 196.36ZM50.1401 195.93L49.2298 195.516L51.3919 190.76L52.3022 191.174L53.2126 191.588L51.0505 196.344L50.1401 195.93ZM52.3022 191.174L51.7479 192.006L50.6981 191.307L51.2524 190.475L51.8068 189.642L52.8566 190.342L52.3022 191.174ZM51.2524 190.475L50.6977 191.307L50.4751 191.158L51.0298 190.326L51.5845 189.494L51.8071 189.643L51.2524 190.475ZM51.0298 190.326H50.0298V184.479H51.0298H52.0298V190.326H51.0298ZM51.0298 184.479V185.479H36.0679V184.479V183.479H51.0298V184.479ZM36.0679 184.479H35.0679V172.258H36.0679H37.0679V184.479H36.0679ZM36.0679 172.258V171.258H111.815V172.258V173.258H36.0679V172.258ZM111.815 172.258H110.815V137.897H111.815H112.815V172.258H111.815ZM111.815 137.897L111.108 138.604L109.384 136.88L110.091 136.173L110.799 135.466L112.522 137.191L111.815 137.897ZM110.091 136.173L109.384 136.88L109.031 136.526L109.738 135.819L110.445 135.112L110.798 135.466L110.091 136.173ZM109.738 135.819L109.031 135.112L113.478 130.665L114.185 131.372L114.892 132.079L110.445 136.526L109.738 135.819ZM114.185 131.372L114.892 130.665L115.246 131.018L114.539 131.726L113.831 132.433L113.478 132.079L114.185 131.372ZM114.539 131.726L115.246 131.018L118.987 134.759L118.28 135.466L117.573 136.173L113.832 132.433L114.539 131.726ZM118.28 135.466L118.987 134.759L119.133 134.905L118.426 135.612L117.719 136.319L117.573 136.173L118.28 135.466ZM118.426 135.612H119.426V172.258H118.426H117.426V135.612H118.426ZM118.426 172.258V171.258H167.521V172.258V173.258H118.426V172.258ZM167.521 172.258H168.521V184.479H167.521H166.521V172.258H167.521ZM167.521 184.479V185.479H142.74V184.479V183.479H167.521V184.479ZM142.74 184.479H143.74V220.951H142.74H141.74V184.479H142.74ZM142.74 220.951V221.951H123.972V220.951V219.951H142.74V220.951ZM191.302 217.678H190.302V162.906H191.302H192.302V217.678H191.302ZM191.302 162.906V161.906H203.525V162.906V163.906H191.302V162.906ZM203.525 162.906H204.525V172.323H203.525H202.525V162.906H203.525ZM203.525 172.323V173.323H197.446V172.323V171.323H203.525V172.323ZM197.446 172.323H198.446V208.729H197.446H196.446V172.323H197.446ZM197.446 208.729V207.729H203.992V208.729V209.729H197.446V208.729ZM203.992 208.729H204.992V217.678H203.992H202.992V208.729H203.992ZM203.992 217.678V218.678H191.302V217.678V216.678H203.992V217.678ZM191.302 281.735H190.302V270.046H191.302H192.302V281.735H191.302ZM191.302 270.046V271.046H188.498V270.046V269.046H191.302V270.046ZM188.498 270.046H187.498V257.356H188.498H189.498V270.046H188.498ZM188.498 257.356V256.356H191.302V257.356V258.356H188.498V257.356ZM191.302 257.356H190.302V242.22H191.302H192.302V257.356H191.302ZM191.302 242.22L190.595 241.513L190.742 241.366L191.449 242.073L192.156 242.78L192.009 242.927L191.302 242.22ZM191.449 242.073L190.742 241.366L199.626 232.482L200.333 233.189L201.041 233.897L192.156 242.78L191.449 242.073ZM200.333 233.189L199.626 232.482L199.773 232.336L200.48 233.043L201.187 233.75L201.041 233.897L200.333 233.189ZM200.48 233.043V232.043H221.695V233.043V234.043H200.48V233.043ZM221.695 233.043H220.695V196.637H221.695H222.695V233.043H221.695ZM221.695 196.637V197.637H215.617V196.637V195.637H221.695V196.637ZM215.617 196.637H214.617V184.415H215.617H216.617V196.637H215.617ZM215.617 184.415V183.415H239.996V184.415V185.415H215.617V184.415ZM239.996 184.415H240.996V185.817H239.996H238.996V184.415H239.996ZM239.996 185.817V184.817H270.791V185.817V186.817H239.996V185.817ZM270.791 185.817H269.791V172.258H270.791H271.791V185.817H270.791ZM270.791 172.258V171.258H283.012V172.258V173.258H270.791V172.258ZM283.012 172.258H284.012V196.637H283.012H282.012V172.258H283.012ZM283.012 196.637V197.637H270.791V196.637V195.637H283.012V196.637ZM270.791 196.637H269.791V195.234H270.791H271.791V196.637H270.791ZM270.791 195.234V196.234H246.542V195.234V194.234H270.791V195.234ZM246.542 195.234H247.542V281.735H246.542H245.542V195.234H246.542ZM246.542 281.735V282.735H191.302V281.735V280.735H246.542V281.735ZM60.3813 276.125H59.3813V269.514H60.3813H61.3813V276.125H60.3813ZM60.3813 269.514V268.514H75.812V269.514V270.514H60.3813V269.514ZM75.812 269.514H74.812V212.47H75.812H76.812V269.514H75.812ZM75.812 212.47V211.47H81.9546V212.47V213.47H75.812V212.47ZM81.9546 212.47H82.9546V276.125H81.9546H80.9546V212.47H81.9546ZM81.9546 276.125V277.125H60.3813V276.125V275.125H81.9546V276.125ZM26.7163 245.265H25.7163V220.886H26.7163H27.7163V245.265H26.7163ZM26.7163 220.886V219.886H30.0542V220.886V221.886H26.7163V220.886ZM30.0542 220.886H31.0542V226.965H30.0542H29.0542V220.886H30.0542ZM30.0542 226.965V225.965H47.7573V226.965V227.965H30.0542V226.965ZM47.7573 226.965H46.7573V220.886H47.7573H48.7573V226.965H47.7573ZM47.7573 220.886V219.886H51.563V220.886V221.886H47.7573V220.886ZM51.563 220.886H52.563V245.265H51.563H50.563V220.886H51.563ZM51.563 245.265V246.265H26.7163V245.265V244.265H51.563V245.265ZM325.496 271.449H324.496V233.084H325.496H326.496V271.449H325.496ZM325.496 233.084L325.496 234.084L282.045 234.108L282.044 233.108L282.044 232.108L325.495 232.084L325.496 233.084ZM282.044 233.108V234.108H282.042V233.108V232.108H282.044V233.108ZM282.042 233.108L282.04 234.108L271.292 234.084L271.294 233.084L271.297 232.084L282.045 232.108L282.042 233.108ZM271.294 233.084L271.308 234.084L269.439 234.108L269.426 233.108L269.413 232.108L271.281 232.084L271.294 233.084ZM269.426 233.108V234.108H269.387V233.108V232.108H269.426V233.108ZM269.387 233.108L269.26 234.1L269.222 234.095L269.349 233.104L269.476 232.112L269.514 232.117L269.387 233.108ZM269.349 233.104L269.208 234.093C267.205 233.807 265.67 232.876 264.655 231.525L265.455 230.925L266.254 230.324C266.929 231.223 267.976 231.897 269.491 232.114L269.349 233.104ZM265.455 230.925L264.655 231.525C263.66 230.201 263.244 228.579 263.244 226.997H264.244H265.244C265.244 228.243 265.573 229.417 266.254 230.324L265.455 230.925ZM264.244 226.997L263.244 226.997C263.244 224.929 263.784 223.241 264.923 221.998L265.661 222.674L266.398 223.35C265.687 224.125 265.244 225.277 265.244 226.997L264.244 226.997ZM265.661 222.674L264.924 221.998C266.047 220.772 267.578 220.172 269.173 219.906L269.337 220.893L269.502 221.879C268.163 222.102 267.114 222.568 266.398 223.35L265.661 222.674ZM269.337 220.893L269.196 219.903L269.237 219.897L269.378 220.887L269.52 221.877L269.479 221.883L269.337 220.893ZM269.378 220.887V219.887H337.718V220.887V221.887H269.378V220.887ZM337.718 220.887H338.718V271.449H337.718H336.718V220.887H337.718ZM337.718 271.449V272.449H325.496V271.449V270.449H337.718V271.449ZM93.5796 294.36H92.5796V245.02H93.5796H94.5796V294.36H93.5796ZM93.5796 245.02L92.8864 244.299L93.0397 244.151L93.7329 244.872L94.4261 245.593L94.2728 245.74L93.5796 245.02ZM93.7329 244.872L93.0398 244.151L105.197 232.462L105.89 233.183L106.583 233.903L94.426 245.593L93.7329 244.872ZM105.89 233.183L105.195 232.463L105.34 232.324L106.035 233.043L106.73 233.762L106.585 233.902L105.89 233.183ZM106.035 233.043V232.043H143.457V233.043V234.043H106.035V233.043ZM143.457 233.043H144.457V237.039H143.457H142.457V233.043H143.457ZM143.457 237.039V238.039H142.74V237.039V236.039H143.457V237.039ZM142.74 237.039H143.74V257.356H142.74H141.74V237.039H142.74ZM142.74 257.356V256.356H170.327V257.356V258.356H142.74V257.356ZM170.327 257.356H171.327V270.046H170.327H169.327V257.356H170.327ZM170.327 270.046V271.046H118.426V270.046V269.046H170.327V270.046ZM118.426 270.046H119.426V294.36H118.426H117.426V270.046H118.426ZM118.426 294.36V295.36H93.5796V294.36V293.36H118.426V294.36ZM231.046 318.206H230.046V305.984H231.046H232.046V318.206H231.046ZM231.046 305.984V304.984H257.997V305.984V306.984H231.046V305.984ZM257.997 305.984L257.302 305.265L270.096 292.929L270.791 293.648L271.485 294.368L258.691 306.704L257.997 305.984ZM270.791 293.648H269.791V272.852H270.791H271.791V293.648H270.791ZM270.791 272.852V273.852H264.245V272.852V271.852H270.791V272.852ZM264.245 272.852H263.245V266.708H264.245H265.245V272.852H264.245ZM264.245 266.708V265.708H270.791V266.708V267.708H264.245V266.708ZM270.791 266.708H269.791V257.356H270.791H271.791V266.708H270.791ZM270.791 257.356V256.356H282.544V257.356V258.356H270.791V257.356ZM282.544 257.356H283.544V281.671H282.544H281.544V257.356H282.544ZM282.544 281.671V280.671H289.09V281.671V282.671H282.544V281.671ZM289.09 281.671H290.09V305.984H289.09H288.09V281.671H289.09ZM289.09 305.984V304.984H290.494V305.984V306.984H289.09V305.984ZM290.494 305.984H291.494V318.206H290.494H289.494V305.984H290.494ZM290.494 318.206V319.206H231.046V318.206V317.206H290.494V318.206ZM142.675 349.066H141.675V294.295H142.675H143.675V349.066H142.675ZM142.675 294.295V293.295H154.897V294.295V295.295H142.675V294.295ZM154.897 294.295H155.897V299.906H154.897H153.897V294.295H154.897ZM154.897 299.906V298.906H215.681V299.906V300.906H154.897V299.906ZM215.681 299.906H216.681V349.066H215.681H214.681V299.906H215.681ZM215.681 349.066V350.066H203.459V349.066V348.066H215.681V349.066ZM203.459 349.066H202.459V336.909H203.459H204.459V349.066H203.459ZM203.459 336.909V337.909H154.897V336.909V335.909H203.459V336.909ZM154.897 336.909H155.897V349.066H154.897H153.897V336.909H154.897ZM154.897 349.066V350.066H142.675V349.066V348.066H154.897V349.066Z" fill="#B27C40" mask="url(#path-1-outside-1_316_678)"/>
<path d="M17.8652 270.482V263.936H23.9437V270.482M76.3121 254.584H69.7661V248.506H75.8445" stroke="#B27C40" stroke-width="0.5"/>
<path d="M75.8441 234.479H57.1411V233.543H75.8441" stroke="#B27C40" stroke-width="0.5"/>
<path d="M57.1412 233.076V227.465H51.5303V233.076H57.1412Z" stroke="#B27C40"/>
<path d="M57.1411 230.27H60.4141V233.543" stroke="#B27C40" stroke-width="0.5"/>
<path d="M63.6872 275.625V281.704H77.7145V275.625M143.175 294.328V282.171H148.786V294.328M161.878 219.368L159.073 216.711L163.748 212.035L170.294 218.581M161.878 219.368L166.086 214.84M161.878 219.368L166.086 223.355M166.086 223.355L167.956 225.127L172.632 220.919L170.294 218.581M166.086 223.355L170.294 218.581M152.059 183.98V190.059H157.67V183.98M191.803 181.175H185.257V175.096H191.803M142.707 147.509V153.588H154.397V147.509M273.628 172.291V166.212H279.707V172.291M264.277 225.127L260.069 220.451L264.277 216.243L268.953 220.919M273.628 233.076V238.687H279.707V233.076M282.512 278.898H301.215V284.509H289.058M355.922 245.7V239.622H362.468M160.943 98.4141V104.493H166.086V98.4141M36.5679 172.759C36.5679 172.384 36.5679 168.239 36.5679 166.212H42.1788V172.291M23.9434 140.963V147.509H29.5543V140.963M239.963 281.704V287.314H246.041V281.704M282.98 318.174V327.526H288.591V318.174M244.639 343.891L239.963 338.748L236.222 342.488L240.431 347.632M100.158 222.321V207.359H105.769V222.321H100.158ZM302.15 246.635L312.437 256.922L316.645 252.714L306.359 241.96L301.683 246.168L302.15 246.635ZM91.7417 145.639V162.004H97.3526V145.639H91.7417Z" stroke="#B27C40"/>
<path d="M63.6875 281.704V287.782H69.2984V284.743M69.2984 281.704V284.743M69.2984 284.743H72.5714V281.704" stroke="#B27C40" stroke-width="0.5"/>
<path d="M145.513 153.588V156.861H151.592V153.588M142.708 251.311H167.022V257.39M1.5 257.857H38.906M154.865 294.328H173.1M215.649 294.328H185.257M173.1 294.328V292.925H185.257V294.328M173.1 294.328H185.257M246.509 245.7H252.12V270.014H264.277M313.84 306.953V303.212L322.256 294.796H326.465M170.295 18.4588V21.2642H175.905V20.7967M175.905 18.4588V20.7967M175.905 20.7967C176.28 20.7967 180.114 20.7967 181.984 20.7967M181.984 20.7967V18.4588M181.984 20.7967V21.2642H188.062V18.4588M200.687 18.4588V21.2642H206.765V18.4588M218.455 18.4588V19.3939M212.844 18.4588V21.2642H218.455V19.3939M218.455 19.3939L220.793 22.1994H222.663" stroke="#B27C40" stroke-width="0.5"/>
<path d="M201.154 233.543H190.868" stroke="#B27C40" stroke-width="0.5"/>
<path d="M206.765 20.7967H212.844M170.295 19.8615L167.957 22.1994H166.086M358.727 239.622V235.881H362.936" stroke="#B27C40" stroke-width="0.5"/>
<path d="M325.529 233.076H282.512V278.431H325.529V233.076ZM301.215 246.168L306.358 241.492L317.113 252.714L312.437 257.39L301.215 246.168Z" fill="#F08234" fill-opacity="0.23"/>
<path d="M301.683 282.171H325.529V278.431H301.683V282.171Z" fill="#F08234" fill-opacity="0.23"/>
<path d="M296.485 268.857H294.938L297.755 260.857H299.544L302.364 268.857H300.817L298.681 262.498H298.618L296.485 268.857ZM296.536 265.72H300.755V266.885H296.536V265.72Z" fill="white"/>
<path d="M1.96729 257.595H26.7488V232.608H1.96729V257.595Z" fill="#F08234" fill-opacity="0.23"/>
<path d="M26.7485 257.606H63.2194V245.233H26.7485V257.606Z" fill="#F08234" fill-opacity="0.23"/>
<path d="M51.5298 245.233H57.1407V233.543H51.5298V245.233Z" fill="#F08234" fill-opacity="0.23"/>
<path d="M57.1406 245.233H63.2191V234.718H57.1406V245.233Z" fill="#F08234" fill-opacity="0.23"/>
<path d="M38.9053 226.997H47.7892V214.84H38.9053V226.997Z" fill="#F08234" fill-opacity="0.23"/>
<path d="M47.7896 220.919H51.5302V214.84H47.7896V220.919Z" fill="#F08234" fill-opacity="0.23"/>
<path d="M51.5298 226.997H63.2192V214.84H51.5298V226.997Z" fill="#F08234" fill-opacity="0.23"/>
<path d="M57.6084 230.035H63.2193V226.997H57.6084V230.035Z" fill="#F08234" fill-opacity="0.23"/>
<path d="M60.6479 233.31H63.2196V230.037H60.6479V233.31Z" fill="#F08234" fill-opacity="0.23"/>
<path d="M14.9131 253.895V245.895H17.9756C18.5537 245.895 19.0342 245.986 19.417 246.168C19.8024 246.348 20.0902 246.594 20.2803 246.906C20.473 247.219 20.5693 247.573 20.5693 247.969C20.5693 248.295 20.5068 248.573 20.3818 248.805C20.2568 249.034 20.0889 249.22 19.8779 249.364C19.667 249.507 19.4313 249.61 19.1709 249.672V249.75C19.4548 249.766 19.7269 249.853 19.9873 250.012C20.2503 250.168 20.4652 250.39 20.6318 250.676C20.7985 250.962 20.8818 251.309 20.8818 251.715C20.8818 252.129 20.7816 252.502 20.5811 252.832C20.3805 253.16 20.0785 253.42 19.6748 253.61C19.2712 253.8 18.7633 253.895 18.1514 253.895H14.9131ZM16.3623 252.684H17.9209C18.4469 252.684 18.8258 252.584 19.0576 252.383C19.292 252.18 19.4092 251.92 19.4092 251.602C19.4092 251.365 19.3506 251.151 19.2334 250.961C19.1162 250.768 18.9495 250.617 18.7334 250.508C18.5173 250.396 18.2594 250.34 17.96 250.34H16.3623V252.684ZM16.3623 249.297H17.7959C18.0459 249.297 18.2712 249.252 18.4717 249.16C18.6722 249.067 18.8298 248.935 18.9443 248.766C19.0615 248.594 19.1201 248.391 19.1201 248.156C19.1201 247.847 19.0107 247.591 18.792 247.391C18.5758 247.19 18.2542 247.09 17.8271 247.09H16.3623V249.297Z" fill="white"/>
</svg>
