<svg width="363" height="418" viewBox="0 0 363 418" fill="none" xmlns="http://www.w3.org/2000/svg">
<mask id="path-1-outside-1_301_20" maskUnits="userSpaceOnUse" x="0.467285" y="16" width="363" height="385" fill="black">
<rect fill="white" x="0.467285" y="16" width="363" height="385"/>
<path d="M176.808 18.9355C187.797 23.1187 193.948 25.1778 204.863 26.416H239.93V71.3037L243.438 74.5762H314.275C321.68 76.8874 324.341 79.3785 325.497 86.7334V100.293H311.937V111.515H316.145V113.386L323.159 120.399H325.497V125.074H336.718V123.204H361.967V161.078H349.811V172.444H361.967V221.862H323.626L318.015 216.252V209.706H306.793V270.49H258.166V294.337H270.791V318.65L221.695 367.746L221.563 399.073H166.053V319.118H117.893V320.054H106.204L99.1909 313.04V300.415L102.931 296.207L99.6577 292.935L97.3198 294.805H74.4087V264.412H63.187V276.793H5.67529V245.241H16.897V234.02H1.46729V208.771H13.6245V185.392H1.46729V147.986H41.2114V142.375H31.8599V122.737C33.5087 115.494 35.4377 112.554 42.6138 111.515H129.583V93.7471H117.426V52.1328L121.634 41.3789L134.258 30.625L137.064 24.5459C142.558 23.8372 145.628 23.2816 151.091 21.7402H158.573L163.249 18L176.808 18.9355ZM227.274 245.677V259.074L217.267 269.991H141.905V294.837H190.802V341.127H197.881V337.387H221.435L239.496 319.326V245.677H227.274ZM123.472 197.049V221.363H63.4614L60.3364 216.451L60.0894 216.063L59.6821 216.276L49.8628 221.42L49.4438 221.64L49.6401 222.07L51.8022 226.826L50.7524 227.525L50.5298 227.674V233.521H35.5679V245.742H111.315V280.103L109.591 281.827L109.238 282.181L113.685 286.628L114.039 286.274L117.78 282.534L117.926 282.388V245.742H167.021V233.521H142.24V197.049H123.472ZM190.802 200.322V255.094H203.025V245.677H196.946V209.271H203.492V200.322H190.802ZM190.802 136.265V147.954H187.998V160.644H190.802V175.78L190.949 175.927L199.833 184.811L199.98 184.957H221.195V221.363H215.117V233.585H239.496V232.183H270.291V245.742H282.512V221.363H270.291V222.766H246.042V136.265H190.802ZM59.8813 141.875V148.486H75.312V205.53H81.4546V141.875H59.8813ZM26.2163 172.735V197.114H29.5542V191.035H47.2573V197.114H51.063V172.735H26.2163ZM324.996 146.551V184.916L281.544 184.892H281.542L270.794 184.916L268.926 184.892H268.887L268.849 184.896C267.091 185.148 265.799 185.95 264.955 187.075C264.117 188.191 263.744 189.589 263.744 191.003C263.744 192.897 264.236 194.317 265.161 195.326C266.081 196.33 267.371 196.863 268.837 197.107L268.878 197.113H337.218V146.551H324.996ZM93.0796 123.64V172.98L93.2329 173.128L105.39 184.817L105.535 184.957H142.957V180.961H142.24V160.644H169.827V147.954H117.926V123.64H93.0796ZM230.546 99.7939V112.016H257.497L270.291 124.352V145.148H263.745V151.292H270.291V160.644H282.044V136.329H288.59V112.016H289.994V99.7939H230.546ZM142.175 68.9336V123.705H154.397V118.094H215.181V68.9336H202.959V81.0908H154.397V68.9336H142.175Z"/>
</mask>
<path d="M176.808 18.9355C187.797 23.1187 193.948 25.1778 204.863 26.416H239.93V71.3037L243.438 74.5762H314.275C321.68 76.8874 324.341 79.3785 325.497 86.7334V100.293H311.937V111.515H316.145V113.386L323.159 120.399H325.497V125.074H336.718V123.204H361.967V161.078H349.811V172.444H361.967V221.862H323.626L318.015 216.252V209.706H306.793V270.49H258.166V294.337H270.791V318.65L221.695 367.746L221.563 399.073H166.053V319.118H117.893V320.054H106.204L99.1909 313.04V300.415L102.931 296.207L99.6577 292.935L97.3198 294.805H74.4087V264.412H63.187V276.793H5.67529V245.241H16.897V234.02H1.46729V208.771H13.6245V185.392H1.46729V147.986H41.2114V142.375H31.8599V122.737C33.5087 115.494 35.4377 112.554 42.6138 111.515H129.583V93.7471H117.426V52.1328L121.634 41.3789L134.258 30.625L137.064 24.5459C142.558 23.8372 145.628 23.2816 151.091 21.7402H158.573L163.249 18L176.808 18.9355ZM227.274 245.677V259.074L217.267 269.991H141.905V294.837H190.802V341.127H197.881V337.387H221.435L239.496 319.326V245.677H227.274ZM123.472 197.049V221.363H63.4614L60.3364 216.451L60.0894 216.063L59.6821 216.276L49.8628 221.42L49.4438 221.64L49.6401 222.07L51.8022 226.826L50.7524 227.525L50.5298 227.674V233.521H35.5679V245.742H111.315V280.103L109.591 281.827L109.238 282.181L113.685 286.628L114.039 286.274L117.78 282.534L117.926 282.388V245.742H167.021V233.521H142.24V197.049H123.472ZM190.802 200.322V255.094H203.025V245.677H196.946V209.271H203.492V200.322H190.802ZM190.802 136.265V147.954H187.998V160.644H190.802V175.78L190.949 175.927L199.833 184.811L199.98 184.957H221.195V221.363H215.117V233.585H239.496V232.183H270.291V245.742H282.512V221.363H270.291V222.766H246.042V136.265H190.802ZM59.8813 141.875V148.486H75.312V205.53H81.4546V141.875H59.8813ZM26.2163 172.735V197.114H29.5542V191.035H47.2573V197.114H51.063V172.735H26.2163ZM324.996 146.551V184.916L281.544 184.892H281.542L270.794 184.916L268.926 184.892H268.887L268.849 184.896C267.091 185.148 265.799 185.95 264.955 187.075C264.117 188.191 263.744 189.589 263.744 191.003C263.744 192.897 264.236 194.317 265.161 195.326C266.081 196.33 267.371 196.863 268.837 197.107L268.878 197.113H337.218V146.551H324.996ZM93.0796 123.64V172.98L93.2329 173.128L105.39 184.817L105.535 184.957H142.957V180.961H142.24V160.644H169.827V147.954H117.926V123.64H93.0796ZM230.546 99.7939V112.016H257.497L270.291 124.352V145.148H263.745V151.292H270.291V160.644H282.044V136.329H288.59V112.016H289.994V99.7939H230.546ZM142.175 68.9336V123.705H154.397V118.094H215.181V68.9336H202.959V81.0908H154.397V68.9336H142.175Z" fill="#271406"/>
<path d="M176.808 18.9355L177.164 18.001L177.025 17.9481L176.877 17.9379L176.808 18.9355ZM204.863 26.416L204.75 27.4096L204.806 27.416H204.863V26.416ZM239.93 26.416H240.93V25.416H239.93V26.416ZM239.93 71.3037H238.93V71.7384L239.248 72.0349L239.93 71.3037ZM243.438 74.5762L242.756 75.3074L243.044 75.5762H243.438V74.5762ZM314.275 74.5762L314.573 73.6216L314.427 73.5762H314.275V74.5762ZM325.497 86.7334H326.497V86.6553L326.484 86.5782L325.497 86.7334ZM325.497 100.293V101.293H326.497V100.293H325.497ZM311.937 100.293V99.293H310.937V100.293H311.937ZM311.937 111.515H310.937V112.515H311.937V111.515ZM316.145 111.515H317.145V110.515H316.145V111.515ZM316.145 113.386H315.145V113.8L315.438 114.093L316.145 113.386ZM323.159 120.399L322.452 121.107L322.744 121.399H323.159V120.399ZM325.497 120.399H326.497V119.399H325.497V120.399ZM325.497 125.074H324.497V126.074H325.497V125.074ZM336.718 125.074V126.074H337.718V125.074H336.718ZM336.718 123.204V122.204H335.718V123.204H336.718ZM361.967 123.204H362.967V122.204H361.967V123.204ZM361.967 161.078V162.078H362.967V161.078H361.967ZM349.811 161.078V160.078H348.811V161.078H349.811ZM349.811 172.444H348.811V173.444H349.811V172.444ZM361.967 172.444H362.967V171.444H361.967V172.444ZM361.967 221.862V222.862H362.967V221.862H361.967ZM323.626 221.862L322.919 222.569L323.212 222.862H323.626V221.862ZM318.015 216.252H317.015V216.666L317.308 216.959L318.015 216.252ZM318.015 209.706H319.015V208.706H318.015V209.706ZM306.793 209.706V208.706H305.793V209.706H306.793ZM306.793 270.49V271.49H307.793V270.49H306.793ZM258.166 270.49V269.49H257.166V270.49H258.166ZM258.166 294.337H257.166V295.337H258.166V294.337ZM270.791 294.337H271.791V293.337H270.791V294.337ZM270.791 318.65L271.498 319.357L271.791 319.065V318.65H270.791ZM221.695 367.746L220.988 367.039L220.697 367.33L220.695 367.742L221.695 367.746ZM221.563 399.073V400.073H222.559L222.563 399.077L221.563 399.073ZM166.053 399.073H165.053V400.073H166.053V399.073ZM166.053 319.118H167.053V318.118H166.053V319.118ZM117.893 319.118V318.118H116.893V319.118H117.893ZM117.893 320.054V321.054H118.893V320.054H117.893ZM106.204 320.054L105.496 320.761L105.789 321.054H106.204V320.054ZM99.1909 313.04H98.1909V313.454L98.4838 313.747L99.1909 313.04ZM99.1909 300.415L98.4435 299.751L98.1909 300.035V300.415H99.1909ZM102.931 296.207L103.679 296.871L104.305 296.167L103.638 295.5L102.931 296.207ZM99.6577 292.935L100.365 292.227L99.7319 291.595L99.0331 292.154L99.6577 292.935ZM97.3198 294.805V295.805H97.6706L97.9445 295.586L97.3198 294.805ZM74.4087 294.805H73.4087V295.805H74.4087V294.805ZM74.4087 264.412H75.4087V263.412H74.4087V264.412ZM63.187 264.412V263.412H62.187V264.412H63.187ZM63.187 276.793V277.793H64.187V276.793H63.187ZM5.67529 276.793H4.67529V277.793H5.67529V276.793ZM5.67529 245.241V244.241H4.67529V245.241H5.67529ZM16.897 245.241V246.241H17.897V245.241H16.897ZM16.897 234.02H17.897V233.02H16.897V234.02ZM1.46729 234.02H0.467285V235.02H1.46729V234.02ZM1.46729 208.771V207.771H0.467285V208.771H1.46729ZM13.6245 208.771V209.771H14.6245V208.771H13.6245ZM13.6245 185.392H14.6245V184.392H13.6245V185.392ZM1.46729 185.392H0.467285V186.392H1.46729V185.392ZM1.46729 147.986V146.986H0.467285V147.986H1.46729ZM41.2114 147.986V148.986H42.2114V147.986H41.2114ZM41.2114 142.375H42.2114V141.375H41.2114V142.375ZM31.8599 142.375H30.8599V143.375H31.8599V142.375ZM31.8599 122.737L30.8848 122.515L30.8599 122.625V122.737H31.8599ZM42.6138 111.515V110.515H42.5417L42.4704 110.525L42.6138 111.515ZM129.583 111.515V112.515H130.583V111.515H129.583ZM129.583 93.7471H130.583V92.7471H129.583V93.7471ZM117.426 93.7471H116.426V94.7471H117.426V93.7471ZM117.426 52.1328L116.495 51.7684L116.426 51.9441V52.1328H117.426ZM121.634 41.3789L120.986 40.6177L120.795 40.7806L120.703 41.0145L121.634 41.3789ZM134.258 30.625L134.907 31.3862L135.074 31.2437L135.166 31.044L134.258 30.625ZM137.064 24.5459L136.936 23.5541L136.388 23.6248L136.156 24.1268L137.064 24.5459ZM151.091 21.7402V20.7402H150.953L150.82 20.7778L151.091 21.7402ZM158.573 21.7402V22.7402H158.924L159.197 22.5211L158.573 21.7402ZM163.249 18L163.317 17.0024L162.928 16.9755L162.624 17.2191L163.249 18ZM227.274 245.677V244.677H226.274V245.677H227.274ZM227.274 259.074L228.011 259.75L228.274 259.463V259.074H227.274ZM217.267 269.991V270.991H217.707L218.004 270.667L217.267 269.991ZM141.905 269.991V268.991H140.905V269.991H141.905ZM141.905 294.837H140.905V295.837H141.905V294.837ZM190.802 294.837H191.802V293.837H190.802V294.837ZM190.802 341.127H189.802V342.127H190.802V341.127ZM197.881 341.127V342.127H198.881V341.127H197.881ZM197.881 337.387V336.387H196.881V337.387H197.881ZM221.435 337.387V338.387H221.849L222.142 338.094L221.435 337.387ZM239.496 319.326L240.203 320.033L240.496 319.74V319.326H239.496ZM239.496 245.677H240.496V244.677H239.496V245.677ZM123.472 197.049V196.049H122.472V197.049H123.472ZM123.472 221.363V222.363H124.472V221.363H123.472ZM63.4614 221.363L62.6177 221.9L62.9124 222.363H63.4614V221.363ZM60.3364 216.451L61.1802 215.914L61.1797 215.914L60.3364 216.451ZM60.0894 216.063L60.9327 215.526L60.4394 214.752L59.6261 215.177L60.0894 216.063ZM59.6821 216.276L59.2188 215.39L59.2181 215.391L59.6821 216.276ZM49.8628 221.42L49.3988 220.534L49.3983 220.534L49.8628 221.42ZM49.4438 221.64L48.9794 220.754L48.1415 221.193L48.5339 222.054L49.4438 221.64ZM49.6401 222.07L50.5505 221.656L50.5501 221.656L49.6401 222.07ZM51.8022 226.826L52.3566 227.658L53.0647 227.187L52.7126 226.412L51.8022 226.826ZM50.7524 227.525L50.1981 226.693L50.1977 226.693L50.7524 227.525ZM50.5298 227.674L49.9751 226.842L49.5298 227.139V227.674H50.5298ZM50.5298 233.521V234.521H51.5298V233.521H50.5298ZM35.5679 233.521V232.521H34.5679V233.521H35.5679ZM35.5679 245.742H34.5679V246.742H35.5679V245.742ZM111.315 245.742H112.315V244.742H111.315V245.742ZM111.315 280.103L112.022 280.809L112.315 280.517V280.103H111.315ZM109.591 281.827L110.298 282.534L110.299 282.534L109.591 281.827ZM109.238 282.181L108.531 281.474L107.824 282.181L108.531 282.888L109.238 282.181ZM113.685 286.628L112.978 287.335L113.685 288.042L114.392 287.335L113.685 286.628ZM114.039 286.274L113.332 285.567L113.331 285.567L114.039 286.274ZM117.78 282.534L118.487 283.241L118.487 283.241L117.78 282.534ZM117.926 282.388L118.633 283.095L118.926 282.802V282.388H117.926ZM117.926 245.742V244.742H116.926V245.742H117.926ZM167.021 245.742V246.742H168.021V245.742H167.021ZM167.021 233.521H168.021V232.521H167.021V233.521ZM142.24 233.521H141.24V234.521H142.24V233.521ZM142.24 197.049H143.24V196.049H142.24V197.049ZM190.802 200.322V199.322H189.802V200.322H190.802ZM190.802 255.094H189.802V256.094H190.802V255.094ZM203.025 255.094V256.094H204.025V255.094H203.025ZM203.025 245.677H204.025V244.677H203.025V245.677ZM196.946 245.677H195.946V246.677H196.946V245.677ZM196.946 209.271V208.271H195.946V209.271H196.946ZM203.492 209.271V210.271H204.492V209.271H203.492ZM203.492 200.322H204.492V199.322H203.492V200.322ZM190.802 136.265V135.265H189.802V136.265H190.802ZM190.802 147.954V148.954H191.802V147.954H190.802ZM187.998 147.954V146.954H186.998V147.954H187.998ZM187.998 160.644H186.998V161.644H187.998V160.644ZM190.802 160.644H191.802V159.644H190.802V160.644ZM190.802 175.78H189.802V176.194L190.095 176.487L190.802 175.78ZM190.949 175.927L190.242 176.634L190.242 176.634L190.949 175.927ZM199.833 184.811L200.541 184.103L200.541 184.103L199.833 184.811ZM199.98 184.957L199.273 185.664L199.566 185.957H199.98V184.957ZM221.195 184.957H222.195V183.957H221.195V184.957ZM221.195 221.363V222.363H222.195V221.363H221.195ZM215.117 221.363V220.363H214.117V221.363H215.117ZM215.117 233.585H214.117V234.585H215.117V233.585ZM239.496 233.585V234.585H240.496V233.585H239.496ZM239.496 232.183V231.183H238.496V232.183H239.496ZM270.291 232.183H271.291V231.183H270.291V232.183ZM270.291 245.742H269.291V246.742H270.291V245.742ZM282.512 245.742V246.742H283.512V245.742H282.512ZM282.512 221.363H283.512V220.363H282.512V221.363ZM270.291 221.363V220.363H269.291V221.363H270.291ZM270.291 222.766V223.766H271.291V222.766H270.291ZM246.042 222.766H245.042V223.766H246.042V222.766ZM246.042 136.265H247.042V135.265H246.042V136.265ZM59.8813 141.875V140.875H58.8813V141.875H59.8813ZM59.8813 148.486H58.8813V149.486H59.8813V148.486ZM75.312 148.486H76.312V147.486H75.312V148.486ZM75.312 205.53H74.312V206.53H75.312V205.53ZM81.4546 205.53V206.53H82.4546V205.53H81.4546ZM81.4546 141.875H82.4546V140.875H81.4546V141.875ZM26.2163 172.735V171.735H25.2163V172.735H26.2163ZM26.2163 197.114H25.2163V198.114H26.2163V197.114ZM29.5542 197.114V198.114H30.5542V197.114H29.5542ZM29.5542 191.035V190.035H28.5542V191.035H29.5542ZM47.2573 191.035H48.2573V190.035H47.2573V191.035ZM47.2573 197.114H46.2573V198.114H47.2573V197.114ZM51.063 197.114V198.114H52.063V197.114H51.063ZM51.063 172.735H52.063V171.735H51.063V172.735ZM324.996 146.551V145.551H323.996V146.551H324.996ZM324.996 184.916L324.995 185.916L325.996 185.917V184.916H324.996ZM281.544 184.892L281.545 183.892H281.544V184.892ZM281.542 184.892V183.892L281.54 183.892L281.542 184.892ZM270.794 184.916L270.781 185.916L270.789 185.916L270.797 185.916L270.794 184.916ZM268.926 184.892L268.939 183.892H268.926V184.892ZM268.887 184.892V183.892H268.823L268.76 183.9L268.887 184.892ZM268.849 184.896L268.722 183.905L268.715 183.906L268.708 183.907L268.849 184.896ZM264.955 187.075L264.155 186.475L264.155 186.475L264.955 187.075ZM263.744 191.003L262.744 191.003L262.744 191.003L263.744 191.003ZM265.161 195.326L264.423 196.002L264.424 196.002L265.161 195.326ZM268.837 197.107L268.673 198.094L268.684 198.096L268.696 198.097L268.837 197.107ZM268.878 197.113L268.737 198.103L268.807 198.113H268.878V197.113ZM337.218 197.113V198.113H338.218V197.113H337.218ZM337.218 146.551H338.218V145.551H337.218V146.551ZM93.0796 123.64V122.64H92.0796V123.64H93.0796ZM93.0796 172.98H92.0796V173.406L92.3864 173.701L93.0796 172.98ZM93.2329 173.128L92.5397 173.849L92.5398 173.849L93.2329 173.128ZM105.39 184.817L106.085 184.098L106.083 184.097L105.39 184.817ZM105.535 184.957L104.84 185.676L105.13 185.957H105.535V184.957ZM142.957 184.957V185.957H143.957V184.957H142.957ZM142.957 180.961H143.957V179.961H142.957V180.961ZM142.24 180.961H141.24V181.961H142.24V180.961ZM142.24 160.644V159.644H141.24V160.644H142.24ZM169.827 160.644V161.644H170.827V160.644H169.827ZM169.827 147.954H170.827V146.954H169.827V147.954ZM117.926 147.954H116.926V148.954H117.926V147.954ZM117.926 123.64H118.926V122.64H117.926V123.64ZM230.546 99.7939V98.7939H229.546V99.7939H230.546ZM230.546 112.016H229.546V113.016H230.546V112.016ZM257.497 112.016L258.191 111.296L257.9 111.016H257.497V112.016ZM270.291 124.352H271.291V123.927L270.985 123.632L270.291 124.352ZM270.291 145.148V146.148H271.291V145.148H270.291ZM263.745 145.148V144.148H262.745V145.148H263.745ZM263.745 151.292H262.745V152.292H263.745V151.292ZM270.291 151.292H271.291V150.292H270.291V151.292ZM270.291 160.644H269.291V161.644H270.291V160.644ZM282.044 160.644V161.644H283.044V160.644H282.044ZM282.044 136.329V135.329H281.044V136.329H282.044ZM288.59 136.329V137.329H289.59V136.329H288.59ZM288.59 112.016V111.016H287.59V112.016H288.59ZM289.994 112.016V113.016H290.994V112.016H289.994ZM289.994 99.7939H290.994V98.7939H289.994V99.7939ZM142.175 68.9336V67.9336H141.175V68.9336H142.175ZM142.175 123.705H141.175V124.705H142.175V123.705ZM154.397 123.705V124.705H155.397V123.705H154.397ZM154.397 118.094V117.094H153.397V118.094H154.397ZM215.181 118.094V119.094H216.181V118.094H215.181ZM215.181 68.9336H216.181V67.9336H215.181V68.9336ZM202.959 68.9336V67.9336H201.959V68.9336H202.959ZM202.959 81.0908V82.0908H203.959V81.0908H202.959ZM154.397 81.0908H153.397V82.0908H154.397V81.0908ZM154.397 68.9336H155.397V67.9336H154.397V68.9336ZM176.808 18.9355L176.452 19.8701C187.472 24.0648 193.713 26.1576 204.75 27.4096L204.863 26.416L204.976 25.4224C194.183 24.198 188.123 22.1726 177.164 18.001L176.808 18.9355ZM204.863 26.416V27.416H239.93V26.416V25.416H204.863V26.416ZM239.93 26.416H238.93V71.3037H239.93H240.93V26.416H239.93ZM239.93 71.3037L239.248 72.0349L242.756 75.3074L243.438 74.5762L244.12 73.845L240.612 70.5725L239.93 71.3037ZM243.438 74.5762V75.5762H314.275V74.5762V73.5762H243.438V74.5762ZM314.275 74.5762L313.977 75.5308C317.641 76.6745 319.951 77.8134 321.504 79.4513C323.038 81.0704 323.945 83.2993 324.509 86.8886L325.497 86.7334L326.484 86.5782C325.893 82.8126 324.891 80.1185 322.955 78.0755C321.037 76.0514 318.313 74.7891 314.573 73.6216L314.275 74.5762ZM325.497 86.7334H324.497V100.293H325.497H326.497V86.7334H325.497ZM325.497 100.293V99.293H311.937V100.293V101.293H325.497V100.293ZM311.937 100.293H310.937V111.515H311.937H312.937V100.293H311.937ZM311.937 111.515V112.515H316.145V111.515V110.515H311.937V111.515ZM316.145 111.515H315.145V113.386H316.145H317.145V111.515H316.145ZM316.145 113.386L315.438 114.093L322.452 121.107L323.159 120.399L323.866 119.692L316.852 112.679L316.145 113.386ZM323.159 120.399V121.399H325.497V120.399V119.399H323.159V120.399ZM325.497 120.399H324.497V125.074H325.497H326.497V120.399H325.497ZM325.497 125.074V126.074H336.718V125.074V124.074H325.497V125.074ZM336.718 125.074H337.718V123.204H336.718H335.718V125.074H336.718ZM336.718 123.204V124.204H361.967V123.204V122.204H336.718V123.204ZM361.967 123.204H360.967V161.078H361.967H362.967V123.204H361.967ZM361.967 161.078V160.078H349.811V161.078V162.078H361.967V161.078ZM349.811 161.078H348.811V172.444H349.811H350.811V161.078H349.811ZM349.811 172.444V173.444H361.967V172.444V171.444H349.811V172.444ZM361.967 172.444H360.967V221.862H361.967H362.967V172.444H361.967ZM361.967 221.862V220.862H323.626V221.862V222.862H361.967V221.862ZM323.626 221.862L324.334 221.155L318.722 215.545L318.015 216.252L317.308 216.959L322.919 222.569L323.626 221.862ZM318.015 216.252H319.015V209.706H318.015H317.015V216.252H318.015ZM318.015 209.706V208.706H306.793V209.706V210.706H318.015V209.706ZM306.793 209.706H305.793V270.49H306.793H307.793V209.706H306.793ZM306.793 270.49V269.49H258.166V270.49V271.49H306.793V270.49ZM258.166 270.49H257.166V294.337H258.166H259.166V270.49H258.166ZM258.166 294.337V295.337H270.791V294.337V293.337H258.166V294.337ZM270.791 294.337H269.791V318.65H270.791H271.791V294.337H270.791ZM270.791 318.65L270.083 317.943L220.988 367.039L221.695 367.746L222.402 368.453L271.498 319.357L270.791 318.65ZM221.695 367.746L220.695 367.742L220.563 399.069L221.563 399.073L222.563 399.077L222.695 367.75L221.695 367.746ZM221.563 399.073V398.073H166.053V399.073V400.073H221.563V399.073ZM166.053 399.073H167.053V319.118H166.053H165.053V399.073H166.053ZM166.053 319.118V318.118H117.893V319.118V320.118H166.053V319.118ZM117.893 319.118H116.893V320.054H117.893H118.893V319.118H117.893ZM117.893 320.054V319.054H106.204V320.054V321.054H117.893V320.054ZM106.204 320.054L106.911 319.347L99.8981 312.333L99.1909 313.04L98.4838 313.747L105.496 320.761L106.204 320.054ZM99.1909 313.04H100.191V300.415H99.1909H98.1909V313.04H99.1909ZM99.1909 300.415L99.9383 301.079L103.679 296.871L102.931 296.207L102.184 295.543L98.4435 299.751L99.1909 300.415ZM102.931 296.207L103.638 295.5L100.365 292.227L99.6577 292.935L98.9507 293.642L102.224 296.914L102.931 296.207ZM99.6577 292.935L99.0331 292.154L96.6952 294.024L97.3198 294.805L97.9445 295.586L100.282 293.715L99.6577 292.935ZM97.3198 294.805V293.805H74.4087V294.805V295.805H97.3198V294.805ZM74.4087 294.805H75.4087V264.412H74.4087H73.4087V294.805H74.4087ZM74.4087 264.412V263.412H63.187V264.412V265.412H74.4087V264.412ZM63.187 264.412H62.187V276.793H63.187H64.187V264.412H63.187ZM63.187 276.793V275.793H5.67529V276.793V277.793H63.187V276.793ZM5.67529 276.793H6.67529V245.241H5.67529H4.67529V276.793H5.67529ZM5.67529 245.241V246.241H16.897V245.241V244.241H5.67529V245.241ZM16.897 245.241H17.897V234.02H16.897H15.897V245.241H16.897ZM16.897 234.02V233.02H1.46729V234.02V235.02H16.897V234.02ZM1.46729 234.02H2.46729V208.771H1.46729H0.467285V234.02H1.46729ZM1.46729 208.771V209.771H13.6245V208.771V207.771H1.46729V208.771ZM13.6245 208.771H14.6245V185.392H13.6245H12.6245V208.771H13.6245ZM13.6245 185.392V184.392H1.46729V185.392V186.392H13.6245V185.392ZM1.46729 185.392H2.46729V147.986H1.46729H0.467285V185.392H1.46729ZM1.46729 147.986V148.986H41.2114V147.986V146.986H1.46729V147.986ZM41.2114 147.986H42.2114V142.375H41.2114H40.2114V147.986H41.2114ZM41.2114 142.375V141.375H31.8599V142.375V143.375H41.2114V142.375ZM31.8599 142.375H32.8599V122.737H31.8599H30.8599V142.375H31.8599ZM31.8599 122.737L32.8349 122.959C33.6565 119.35 34.5087 117.03 35.909 115.467C37.2724 113.944 39.2807 113.008 42.7571 112.504L42.6138 111.515L42.4704 110.525C38.7707 111.061 36.2266 112.114 34.4192 114.132C32.6487 116.109 31.7121 118.881 30.8848 122.515L31.8599 122.737ZM42.6138 111.515V112.515H129.583V111.515V110.515H42.6138V111.515ZM129.583 111.515H130.583V93.7471H129.583H128.583V111.515H129.583ZM129.583 93.7471V92.7471H117.426V93.7471V94.7471H129.583V93.7471ZM117.426 93.7471H118.426V52.1328H117.426H116.426V93.7471H117.426ZM117.426 52.1328L118.358 52.4972L122.566 41.7433L121.634 41.3789L120.703 41.0145L116.495 51.7684L117.426 52.1328ZM121.634 41.3789L122.283 42.1401L134.907 31.3862L134.258 30.625L133.61 29.8638L120.986 40.6177L121.634 41.3789ZM134.258 30.625L135.166 31.044L137.972 24.9649L137.064 24.5459L136.156 24.1268L133.35 30.206L134.258 30.625ZM137.064 24.5459L137.192 25.5377C142.724 24.8241 145.844 24.2599 151.363 22.7027L151.091 21.7402L150.82 20.7778C145.413 22.3033 142.393 22.8503 136.936 23.5541L137.064 24.5459ZM151.091 21.7402V22.7402H158.573V21.7402V20.7402H151.091V21.7402ZM158.573 21.7402L159.197 22.5211L163.873 18.7809L163.249 18L162.624 17.2191L157.948 20.9593L158.573 21.7402ZM163.249 18L163.18 18.9976L176.739 19.9332L176.808 18.9355L176.877 17.9379L163.317 17.0024L163.249 18ZM227.274 245.677H226.274V259.074H227.274H228.274V245.677H227.274ZM227.274 259.074L226.537 258.399L216.53 269.316L217.267 269.991L218.004 270.667L228.011 259.75L227.274 259.074ZM217.267 269.991V268.991H141.905V269.991V270.991H217.267V269.991ZM141.905 269.991H140.905V294.837H141.905H142.905V269.991H141.905ZM141.905 294.837V295.837H190.802V294.837V293.837H141.905V294.837ZM190.802 294.837H189.802V341.127H190.802H191.802V294.837H190.802ZM190.802 341.127V342.127H197.881V341.127V340.127H190.802V341.127ZM197.881 341.127H198.881V337.387H197.881H196.881V341.127H197.881ZM197.881 337.387V338.387H221.435V337.387V336.387H197.881V337.387ZM221.435 337.387L222.142 338.094L240.203 320.033L239.496 319.326L238.788 318.619L220.728 336.68L221.435 337.387ZM239.496 319.326H240.496V245.677H239.496H238.496V319.326H239.496ZM239.496 245.677V244.677H227.274V245.677V246.677H239.496V245.677ZM123.472 197.049H122.472V221.363H123.472H124.472V197.049H123.472ZM123.472 221.363V220.363H63.4614V221.363V222.363H123.472V221.363ZM63.4614 221.363L64.3052 220.827L61.1802 215.914L60.3364 216.451L59.4927 216.988L62.6177 221.9L63.4614 221.363ZM60.3364 216.451L61.1797 215.914L60.9327 215.526L60.0894 216.063L59.246 216.601L59.4931 216.989L60.3364 216.451ZM60.0894 216.063L59.6261 215.177L59.2188 215.39L59.6821 216.276L60.1454 217.163L60.5526 216.95L60.0894 216.063ZM59.6821 216.276L59.2181 215.391L49.3988 220.534L49.8628 221.42L50.3268 222.306L60.1461 217.162L59.6821 216.276ZM49.8628 221.42L49.3983 220.534L48.9794 220.754L49.4438 221.64L49.9083 222.525L50.3273 222.306L49.8628 221.42ZM49.4438 221.64L48.5339 222.054L48.7302 222.485L49.6401 222.07L50.5501 221.656L50.3538 221.225L49.4438 221.64ZM49.6401 222.07L48.7298 222.484L50.8919 227.24L51.8022 226.826L52.7126 226.412L50.5505 221.656L49.6401 222.07ZM51.8022 226.826L51.2479 225.994L50.1981 226.693L50.7524 227.525L51.3068 228.358L52.3566 227.658L51.8022 226.826ZM50.7524 227.525L50.1977 226.693L49.9751 226.842L50.5298 227.674L51.0845 228.506L51.3071 228.357L50.7524 227.525ZM50.5298 227.674H49.5298V233.521H50.5298H51.5298V227.674H50.5298ZM50.5298 233.521V232.521H35.5679V233.521V234.521H50.5298V233.521ZM35.5679 233.521H34.5679V245.742H35.5679H36.5679V233.521H35.5679ZM35.5679 245.742V246.742H111.315V245.742V244.742H35.5679V245.742ZM111.315 245.742H110.315V280.103H111.315H112.315V245.742H111.315ZM111.315 280.103L110.608 279.396L108.884 281.12L109.591 281.827L110.299 282.534L112.022 280.809L111.315 280.103ZM109.591 281.827L108.884 281.12L108.531 281.474L109.238 282.181L109.945 282.888L110.298 282.534L109.591 281.827ZM109.238 282.181L108.531 282.888L112.978 287.335L113.685 286.628L114.392 285.921L109.945 281.474L109.238 282.181ZM113.685 286.628L114.392 287.335L114.746 286.982L114.039 286.274L113.331 285.567L112.978 285.921L113.685 286.628ZM114.039 286.274L114.746 286.982L118.487 283.241L117.78 282.534L117.073 281.827L113.332 285.567L114.039 286.274ZM117.78 282.534L118.487 283.241L118.633 283.095L117.926 282.388L117.219 281.681L117.073 281.827L117.78 282.534ZM117.926 282.388H118.926V245.742H117.926H116.926V282.388H117.926ZM117.926 245.742V246.742H167.021V245.742V244.742H117.926V245.742ZM167.021 245.742H168.021V233.521H167.021H166.021V245.742H167.021ZM167.021 233.521V232.521H142.24V233.521V234.521H167.021V233.521ZM142.24 233.521H143.24V197.049H142.24H141.24V233.521H142.24ZM142.24 197.049V196.049H123.472V197.049V198.049H142.24V197.049ZM190.802 200.322H189.802V255.094H190.802H191.802V200.322H190.802ZM190.802 255.094V256.094H203.025V255.094V254.094H190.802V255.094ZM203.025 255.094H204.025V245.677H203.025H202.025V255.094H203.025ZM203.025 245.677V244.677H196.946V245.677V246.677H203.025V245.677ZM196.946 245.677H197.946V209.271H196.946H195.946V245.677H196.946ZM196.946 209.271V210.271H203.492V209.271V208.271H196.946V209.271ZM203.492 209.271H204.492V200.322H203.492H202.492V209.271H203.492ZM203.492 200.322V199.322H190.802V200.322V201.322H203.492V200.322ZM190.802 136.265H189.802V147.954H190.802H191.802V136.265H190.802ZM190.802 147.954V146.954H187.998V147.954V148.954H190.802V147.954ZM187.998 147.954H186.998V160.644H187.998H188.998V147.954H187.998ZM187.998 160.644V161.644H190.802V160.644V159.644H187.998V160.644ZM190.802 160.644H189.802V175.78H190.802H191.802V160.644H190.802ZM190.802 175.78L190.095 176.487L190.242 176.634L190.949 175.927L191.656 175.22L191.509 175.073L190.802 175.78ZM190.949 175.927L190.242 176.634L199.126 185.518L199.833 184.811L200.541 184.103L191.656 175.22L190.949 175.927ZM199.833 184.811L199.126 185.518L199.273 185.664L199.98 184.957L200.687 184.25L200.541 184.103L199.833 184.811ZM199.98 184.957V185.957H221.195V184.957V183.957H199.98V184.957ZM221.195 184.957H220.195V221.363H221.195H222.195V184.957H221.195ZM221.195 221.363V220.363H215.117V221.363V222.363H221.195V221.363ZM215.117 221.363H214.117V233.585H215.117H216.117V221.363H215.117ZM215.117 233.585V234.585H239.496V233.585V232.585H215.117V233.585ZM239.496 233.585H240.496V232.183H239.496H238.496V233.585H239.496ZM239.496 232.183V233.183H270.291V232.183V231.183H239.496V232.183ZM270.291 232.183H269.291V245.742H270.291H271.291V232.183H270.291ZM270.291 245.742V246.742H282.512V245.742V244.742H270.291V245.742ZM282.512 245.742H283.512V221.363H282.512H281.512V245.742H282.512ZM282.512 221.363V220.363H270.291V221.363V222.363H282.512V221.363ZM270.291 221.363H269.291V222.766H270.291H271.291V221.363H270.291ZM270.291 222.766V221.766H246.042V222.766V223.766H270.291V222.766ZM246.042 222.766H247.042V136.265H246.042H245.042V222.766H246.042ZM246.042 136.265V135.265H190.802V136.265V137.265H246.042V136.265ZM59.8813 141.875H58.8813V148.486H59.8813H60.8813V141.875H59.8813ZM59.8813 148.486V149.486H75.312V148.486V147.486H59.8813V148.486ZM75.312 148.486H74.312V205.53H75.312H76.312V148.486H75.312ZM75.312 205.53V206.53H81.4546V205.53V204.53H75.312V205.53ZM81.4546 205.53H82.4546V141.875H81.4546H80.4546V205.53H81.4546ZM81.4546 141.875V140.875H59.8813V141.875V142.875H81.4546V141.875ZM26.2163 172.735H25.2163V197.114H26.2163H27.2163V172.735H26.2163ZM26.2163 197.114V198.114H29.5542V197.114V196.114H26.2163V197.114ZM29.5542 197.114H30.5542V191.035H29.5542H28.5542V197.114H29.5542ZM29.5542 191.035V192.035H47.2573V191.035V190.035H29.5542V191.035ZM47.2573 191.035H46.2573V197.114H47.2573H48.2573V191.035H47.2573ZM47.2573 197.114V198.114H51.063V197.114V196.114H47.2573V197.114ZM51.063 197.114H52.063V172.735H51.063H50.063V197.114H51.063ZM51.063 172.735V171.735H26.2163V172.735V173.735H51.063V172.735ZM324.996 146.551H323.996V184.916H324.996H325.996V146.551H324.996ZM324.996 184.916L324.996 183.916L281.545 183.892L281.544 184.892L281.544 185.892L324.995 185.916L324.996 184.916ZM281.544 184.892V183.892H281.542V184.892V185.892H281.544V184.892ZM281.542 184.892L281.54 183.892L270.792 183.916L270.794 184.916L270.797 185.916L281.545 185.892L281.542 184.892ZM270.794 184.916L270.808 183.916L268.939 183.892L268.926 184.892L268.913 185.892L270.781 185.916L270.794 184.916ZM268.926 184.892V183.892H268.887V184.892V185.892H268.926V184.892ZM268.887 184.892L268.76 183.9L268.722 183.905L268.849 184.896L268.976 185.888L269.014 185.883L268.887 184.892ZM268.849 184.896L268.708 183.907C266.705 184.193 265.17 185.124 264.155 186.475L264.955 187.075L265.754 187.676C266.429 186.777 267.476 186.103 268.991 185.886L268.849 184.896ZM264.955 187.075L264.155 186.475C263.16 187.799 262.744 189.421 262.744 191.003H263.744H264.744C264.744 189.757 265.073 188.583 265.754 187.676L264.955 187.075ZM263.744 191.003L262.744 191.003C262.744 193.071 263.284 194.759 264.423 196.002L265.161 195.326L265.898 194.65C265.187 193.875 264.744 192.723 264.744 191.003L263.744 191.003ZM265.161 195.326L264.424 196.002C265.547 197.228 267.078 197.828 268.673 198.094L268.837 197.107L269.002 196.121C267.663 195.898 266.614 195.432 265.898 194.65L265.161 195.326ZM268.837 197.107L268.696 198.097L268.737 198.103L268.878 197.113L269.02 196.123L268.979 196.117L268.837 197.107ZM268.878 197.113V198.113H337.218V197.113V196.113H268.878V197.113ZM337.218 197.113H338.218V146.551H337.218H336.218V197.113H337.218ZM337.218 146.551V145.551H324.996V146.551V147.551H337.218V146.551ZM93.0796 123.64H92.0796V172.98H93.0796H94.0796V123.64H93.0796ZM93.0796 172.98L92.3864 173.701L92.5397 173.849L93.2329 173.128L93.9261 172.407L93.7728 172.26L93.0796 172.98ZM93.2329 173.128L92.5398 173.849L104.697 185.538L105.39 184.817L106.083 184.097L93.926 172.407L93.2329 173.128ZM105.39 184.817L104.695 185.537L104.84 185.676L105.535 184.957L106.23 184.238L106.085 184.098L105.39 184.817ZM105.535 184.957V185.957H142.957V184.957V183.957H105.535V184.957ZM142.957 184.957H143.957V180.961H142.957H141.957V184.957H142.957ZM142.957 180.961V179.961H142.24V180.961V181.961H142.957V180.961ZM142.24 180.961H143.24V160.644H142.24H141.24V180.961H142.24ZM142.24 160.644V161.644H169.827V160.644V159.644H142.24V160.644ZM169.827 160.644H170.827V147.954H169.827H168.827V160.644H169.827ZM169.827 147.954V146.954H117.926V147.954V148.954H169.827V147.954ZM117.926 147.954H118.926V123.64H117.926H116.926V147.954H117.926ZM117.926 123.64V122.64H93.0796V123.64V124.64H117.926V123.64ZM230.546 99.7939H229.546V112.016H230.546H231.546V99.7939H230.546ZM230.546 112.016V113.016H257.497V112.016V111.016H230.546V112.016ZM257.497 112.016L256.802 112.735L269.596 125.071L270.291 124.352L270.985 123.632L258.191 111.296L257.497 112.016ZM270.291 124.352H269.291V145.148H270.291H271.291V124.352H270.291ZM270.291 145.148V144.148H263.745V145.148V146.148H270.291V145.148ZM263.745 145.148H262.745V151.292H263.745H264.745V145.148H263.745ZM263.745 151.292V152.292H270.291V151.292V150.292H263.745V151.292ZM270.291 151.292H269.291V160.644H270.291H271.291V151.292H270.291ZM270.291 160.644V161.644H282.044V160.644V159.644H270.291V160.644ZM282.044 160.644H283.044V136.329H282.044H281.044V160.644H282.044ZM282.044 136.329V137.329H288.59V136.329V135.329H282.044V136.329ZM288.59 136.329H289.59V112.016H288.59H287.59V136.329H288.59ZM288.59 112.016V113.016H289.994V112.016V111.016H288.59V112.016ZM289.994 112.016H290.994V99.7939H289.994H288.994V112.016H289.994ZM289.994 99.7939V98.7939H230.546V99.7939V100.794H289.994V99.7939ZM142.175 68.9336H141.175V123.705H142.175H143.175V68.9336H142.175ZM142.175 123.705V124.705H154.397V123.705V122.705H142.175V123.705ZM154.397 123.705H155.397V118.094H154.397H153.397V123.705H154.397ZM154.397 118.094V119.094H215.181V118.094V117.094H154.397V118.094ZM215.181 118.094H216.181V68.9336H215.181H214.181V118.094H215.181ZM215.181 68.9336V67.9336H202.959V68.9336V69.9336H215.181V68.9336ZM202.959 68.9336H201.959V81.0908H202.959H203.959V68.9336H202.959ZM202.959 81.0908V80.0908H154.397V81.0908V82.0908H202.959V81.0908ZM154.397 81.0908H155.397V68.9336H154.397H153.397V81.0908H154.397ZM154.397 68.9336V67.9336H142.175V68.9336V69.9336H154.397V68.9336Z" fill="#B27C40" mask="url(#path-1-outside-1_301_20)"/>
<path d="M17.3652 147.518V154.064H23.4437V147.518M75.8121 163.416H69.2661V169.494H75.3445" stroke="#B27C40" stroke-width="0.5"/>
<path d="M75.3441 183.521H56.6411V184.457H75.3441" stroke="#B27C40" stroke-width="0.5"/>
<path d="M56.6412 184.924V190.535H51.0303V184.924H56.6412Z" stroke="#B27C40"/>
<path d="M56.6411 187.73H59.9141V184.457" stroke="#B27C40" stroke-width="0.5"/>
<path d="M63.1872 142.375V136.296H77.2145V142.375M142.675 123.672V135.829H148.286V123.672M161.378 198.632L158.573 201.289L163.248 205.965L169.794 199.419M161.378 198.632L165.586 203.16M161.378 198.632L165.586 194.645M165.586 194.645L167.456 192.873L172.132 197.081L169.794 199.419M165.586 194.645L169.794 199.419M151.559 234.02V227.941H157.17V234.02M191.303 236.825H184.757V242.904H191.303M142.207 270.491V264.412H153.897V270.491M273.128 245.709V251.788H279.207V245.709M263.777 192.873L259.569 197.549L263.777 201.757L268.453 197.081M273.128 184.924V179.313H279.207V184.924M282.012 139.102H300.715V133.491H288.558M355.422 172.3V178.378H361.968M160.443 319.586V313.507H165.586V319.586M36.0679 245.241C36.0679 245.616 36.0679 249.761 36.0679 251.788H41.6788V245.709M23.4434 277.037V270.491H29.0543V277.037M239.463 136.296V130.686H245.541V136.296M282.48 99.8256V90.4741H288.091V99.8256M244.139 74.109L239.463 79.2523L235.722 75.5117L239.931 70.3684M99.6581 195.679V210.641H105.269V195.679H99.6581ZM301.65 171.365L311.937 161.078L316.145 165.286L305.859 176.04L301.183 171.832L301.65 171.365ZM91.2417 272.361V255.996H96.8526V272.361H91.2417Z" stroke="#B27C40"/>
<path d="M63.1875 136.296V130.218H68.7984V133.257M68.7984 136.296V133.257M68.7984 133.257H72.0714V136.296" stroke="#B27C40" stroke-width="0.5"/>
<path d="M145.013 264.412V261.139H151.092V264.412M142.208 166.689H166.522V160.61M1 160.143H38.406M154.365 123.672H172.6M215.149 123.672H184.757M172.6 123.672V125.075H184.757V123.672M172.6 123.672H184.757M246.009 172.3H251.62V147.986H263.777M313.34 111.047V114.788L321.756 123.204H325.965M169.795 399.541V396.736H175.405V397.203M175.405 399.541V397.203M175.405 397.203C175.78 397.203 179.614 397.203 181.484 397.203M181.484 397.203V399.541M181.484 397.203V396.736H187.562V399.541M200.187 399.541V396.736H206.265V399.541M217.955 399.541V398.606M212.344 399.541V396.736H217.955V398.606M217.955 398.606L220.293 395.801H222.163" stroke="#B27C40" stroke-width="0.5"/>
<path d="M200.654 184.457H190.368" stroke="#B27C40" stroke-width="0.5"/>
<path d="M206.265 397.203H212.344M169.795 398.138L167.457 395.801H165.586M358.227 178.378V182.119H362.436" stroke="#B27C40" stroke-width="0.5"/>
<path d="M325.029 184.924H282.012V139.569H325.029V184.924ZM300.715 171.832L305.858 176.508L316.613 165.286L311.937 160.61L300.715 171.832Z" fill="#F08234" fill-opacity="0.23"/>
<path d="M301.183 135.829H325.029V139.569H301.183V135.829Z" fill="#F08234" fill-opacity="0.23"/>
<path d="M295.985 158.986H294.438L297.255 150.986H299.044L301.864 158.986H300.317L298.181 152.626H298.118L295.985 158.986ZM296.036 155.849H300.255V157.013H296.036V155.849Z" fill="white"/>
<path d="M1.46729 160.405H26.2488V185.392H1.46729V160.405Z" fill="#F08234" fill-opacity="0.23"/>
<path d="M26.2485 160.394H62.7194V172.767H26.2485V160.394Z" fill="#F08234" fill-opacity="0.23"/>
<path d="M51.0298 172.767H56.6407V184.457H51.0298V172.767Z" fill="#F08234" fill-opacity="0.23"/>
<path d="M56.6406 172.767H62.7191V183.282H56.6406V172.767Z" fill="#F08234" fill-opacity="0.23"/>
<path d="M38.4053 191.003H47.2892V203.16H38.4053V191.003Z" fill="#F08234" fill-opacity="0.23"/>
<path d="M47.2896 197.081H51.0302V203.16H47.2896V197.081Z" fill="#F08234" fill-opacity="0.23"/>
<path d="M51.0298 191.003H62.7192V203.16H51.0298V191.003Z" fill="#F08234" fill-opacity="0.23"/>
<path d="M57.1084 187.965H62.7193V191.003H57.1084V187.965Z" fill="#F08234" fill-opacity="0.23"/>
<path d="M60.1479 184.69H62.7196V187.963H60.1479V184.69Z" fill="#F08234" fill-opacity="0.23"/>
<path d="M14.4131 173.948V165.948H17.4756C18.0537 165.948 18.5342 166.039 18.917 166.222C19.3024 166.401 19.5902 166.647 19.7803 166.96C19.973 167.272 20.0693 167.627 20.0693 168.022C20.0693 168.348 20.0068 168.627 19.8818 168.858C19.7568 169.088 19.5889 169.274 19.3779 169.417C19.167 169.56 18.9313 169.663 18.6709 169.726V169.804C18.9548 169.819 19.2269 169.907 19.4873 170.065C19.7503 170.222 19.9652 170.443 20.1318 170.729C20.2985 171.016 20.3818 171.362 20.3818 171.769C20.3818 172.183 20.2816 172.555 20.0811 172.886C19.8805 173.214 19.5785 173.473 19.1748 173.663C18.7712 173.853 18.2633 173.948 17.6514 173.948H14.4131ZM15.8623 172.737H17.4209C17.9469 172.737 18.3258 172.637 18.5576 172.436C18.792 172.233 18.9092 171.973 18.9092 171.655C18.9092 171.418 18.8506 171.205 18.7334 171.015C18.6162 170.822 18.4495 170.671 18.2334 170.561C18.0173 170.449 17.7594 170.394 17.46 170.394H15.8623V172.737ZM15.8623 169.351H17.2959C17.5459 169.351 17.7712 169.305 17.9717 169.214C18.1722 169.12 18.3298 168.989 18.4443 168.819C18.5615 168.647 18.6201 168.444 18.6201 168.21C18.6201 167.9 18.5107 167.645 18.292 167.444C18.0758 167.244 17.7542 167.144 17.3271 167.144H15.8623V169.351Z" fill="white"/>
</svg>
