<svg width="416" height="473" viewBox="0 0 416 473" fill="none" xmlns="http://www.w3.org/2000/svg">
<mask id="path-1-outside-1_333_336" maskUnits="userSpaceOnUse" x="0.535156" y="17" width="415" height="440" fill="black">
<rect fill="white" x="0.535156" y="17" width="415" height="440"/>
<path d="M202.362 453.929C214.949 449.137 221.994 446.779 234.495 445.36H274.66V393.948L278.678 390.2H359.811C368.292 387.553 371.341 384.699 372.664 376.275V360.745H357.133V347.893H361.953V345.75L369.986 337.717H372.664V332.361H385.517V334.504H414.436V291.125H400.512V278.106H414.436V221.505H370.521L364.096 227.932V235.429H351.242V165.809H295.546V138.496H310.006V110.648L253.774 54.417L253.622 18.5352H190.045V110.112H134.885V109.042H121.496L113.463 117.074V131.534L117.747 136.354L113.998 140.103L111.32 137.961H85.0791V172.771H72.2266V158.59H6.35547V194.728H19.208V207.581H1.53516V236.5H15.459V263.277H1.53516V306.12H47.0557V312.547H36.3447V335.039C38.2332 343.336 40.4439 346.702 48.6631 347.893H148.272V368.242H134.349V415.905L139.169 428.223L153.628 440.54L156.842 447.503C163.135 448.315 166.651 448.95 172.908 450.716H181.477L186.832 455L202.362 453.929ZM260.236 194.157V178.857L248.734 166.309H162.458V137.996H218.464V84.9775H226.426V89.2627H253.445L253.592 89.4092L273.942 109.759L274.089 109.905V194.157H260.236ZM141.347 249.854V222.005H72.501L68.8994 227.664L68.6523 228.052L68.2451 227.839L56.999 221.948L56.5801 221.729L56.7764 221.298L59.2773 215.795L58.0244 214.959L57.8018 214.811V208.081H40.665V194.228H127.422V154.77L125.073 152.421L125.427 152.066L130.064 147.429L134.849 152.213V194.228H191.08V208.081H162.696V249.854H141.347ZM218.464 246.104V183.518H232.316V194.157H225.354V236H232.853V246.104H218.464ZM218.464 319.474V306.085H215.251V291.696H218.464V274.316L218.61 274.17L228.785 263.994L228.932 263.848H253.274V222.005H246.312V208.152H274.089V209.759H309.506V194.228H323.358V222.005H309.506V220.398H281.587V319.474H218.464ZM68.5127 313.047V305.62H86.1855V240.284H93.0762V313.047H68.5127ZM29.9541 277.701V249.924H33.6318V256.886H54.0537V249.924H58.2666V277.701H29.9541ZM372.163 307.691V263.75L322.323 263.777H322.321L310.004 263.749L307.87 263.777H307.831L307.793 263.772C305.797 263.487 304.335 262.578 303.38 261.306C302.431 260.043 302.008 258.457 302.008 256.851C302.008 254.693 302.568 253.086 303.612 251.947C304.651 250.814 306.111 250.209 307.781 249.931L307.822 249.924H386.017V307.691H372.163ZM106.536 333.933V277.523L106.689 277.376L120.613 263.987L120.759 263.848H163.518V268.28H162.696V291.696H194.294V306.085H134.849V333.933H106.536ZM263.984 361.245V347.393H294.808L309.506 333.221V309.298H302.008V302.407H309.506V291.696H322.823V319.544H330.32V347.393H331.927V361.245H263.984ZM162.768 396.591V334.004H176.621V340.431H246.241V396.591H232.388V382.667H176.621V396.591H162.768Z"/>
</mask>
<path d="M202.362 453.929C214.949 449.137 221.994 446.779 234.495 445.36H274.66V393.948L278.678 390.2H359.811C368.292 387.553 371.341 384.699 372.664 376.275V360.745H357.133V347.893H361.953V345.75L369.986 337.717H372.664V332.361H385.517V334.504H414.436V291.125H400.512V278.106H414.436V221.505H370.521L364.096 227.932V235.429H351.242V165.809H295.546V138.496H310.006V110.648L253.774 54.417L253.622 18.5352H190.045V110.112H134.885V109.042H121.496L113.463 117.074V131.534L117.747 136.354L113.998 140.103L111.32 137.961H85.0791V172.771H72.2266V158.59H6.35547V194.728H19.208V207.581H1.53516V236.5H15.459V263.277H1.53516V306.12H47.0557V312.547H36.3447V335.039C38.2332 343.336 40.4439 346.702 48.6631 347.893H148.272V368.242H134.349V415.905L139.169 428.223L153.628 440.54L156.842 447.503C163.135 448.315 166.651 448.95 172.908 450.716H181.477L186.832 455L202.362 453.929ZM260.236 194.157V178.857L248.734 166.309H162.458V137.996H218.464V84.9775H226.426V89.2627H253.445L253.592 89.4092L273.942 109.759L274.089 109.905V194.157H260.236ZM141.347 249.854V222.005H72.501L68.8994 227.664L68.6523 228.052L68.2451 227.839L56.999 221.948L56.5801 221.729L56.7764 221.298L59.2773 215.795L58.0244 214.959L57.8018 214.811V208.081H40.665V194.228H127.422V154.77L125.073 152.421L125.427 152.066L130.064 147.429L134.849 152.213V194.228H191.08V208.081H162.696V249.854H141.347ZM218.464 246.104V183.518H232.316V194.157H225.354V236H232.853V246.104H218.464ZM218.464 319.474V306.085H215.251V291.696H218.464V274.316L218.61 274.17L228.785 263.994L228.932 263.848H253.274V222.005H246.312V208.152H274.089V209.759H309.506V194.228H323.358V222.005H309.506V220.398H281.587V319.474H218.464ZM68.5127 313.047V305.62H86.1855V240.284H93.0762V313.047H68.5127ZM29.9541 277.701V249.924H33.6318V256.886H54.0537V249.924H58.2666V277.701H29.9541ZM372.163 307.691V263.75L322.323 263.777H322.321L310.004 263.749L307.87 263.777H307.831L307.793 263.772C305.797 263.487 304.335 262.578 303.38 261.306C302.431 260.043 302.008 258.457 302.008 256.851C302.008 254.693 302.568 253.086 303.612 251.947C304.651 250.814 306.111 250.209 307.781 249.931L307.822 249.924H386.017V307.691H372.163ZM106.536 333.933V277.523L106.689 277.376L120.613 263.987L120.759 263.848H163.518V268.28H162.696V291.696H194.294V306.085H134.849V333.933H106.536ZM263.984 361.245V347.393H294.808L309.506 333.221V309.298H302.008V302.407H309.506V291.696H322.823V319.544H330.32V347.393H331.927V361.245H263.984ZM162.768 396.591V334.004H176.621V340.431H246.241V396.591H232.388V382.667H176.621V396.591H162.768Z" fill="#271406"/>
<path d="M202.362 453.929L202.718 454.863L202.579 454.916L202.431 454.926L202.362 453.929ZM234.495 445.36L234.382 444.367L234.439 444.36H234.495V445.36ZM274.66 445.36H275.66V446.36H274.66V445.36ZM274.66 393.948H273.66V393.514L273.978 393.217L274.66 393.948ZM278.678 390.2L277.996 389.469L278.284 389.2H278.678V390.2ZM359.811 390.2L360.108 391.155L359.963 391.2H359.811V390.2ZM372.664 376.275H373.664V376.353L373.652 376.431L372.664 376.275ZM372.664 360.745V359.745H373.664V360.745H372.664ZM357.133 360.745V361.745H356.133V360.745H357.133ZM357.133 347.893H356.133V346.893H357.133V347.893ZM361.953 347.893H362.953V348.893H361.953V347.893ZM361.953 345.75H360.953V345.336L361.246 345.043L361.953 345.75ZM369.986 337.717L369.279 337.01L369.572 336.717H369.986V337.717ZM372.664 337.717H373.664V338.717H372.664V337.717ZM372.664 332.361H371.664V331.361H372.664V332.361ZM385.517 332.361V331.361H386.517V332.361H385.517ZM385.517 334.504V335.504H384.517V334.504H385.517ZM414.436 334.504H415.436V335.504H414.436V334.504ZM414.436 291.125V290.125H415.436V291.125H414.436ZM400.512 291.125V292.125H399.512V291.125H400.512ZM400.512 278.106H399.512V277.106H400.512V278.106ZM414.436 278.106H415.436V279.106H414.436V278.106ZM414.436 221.505V220.505H415.436V221.505H414.436ZM370.521 221.505L369.814 220.798L370.107 220.505H370.521V221.505ZM364.096 227.932H363.096V227.517L363.389 227.225L364.096 227.932ZM364.096 235.429H365.096V236.429H364.096V235.429ZM351.242 235.429V236.429H350.242V235.429H351.242ZM351.242 165.809V164.809H352.242V165.809H351.242ZM295.546 165.809V166.809H294.546V165.809H295.546ZM295.546 138.496H294.546V137.496H295.546V138.496ZM310.006 138.496H311.006V139.496H310.006V138.496ZM310.006 110.648L310.713 109.941L311.006 110.234V110.648H310.006ZM253.774 54.417L253.067 55.1241L252.776 54.833L252.774 54.4212L253.774 54.417ZM253.622 18.5352V17.5352H254.618L254.622 18.5309L253.622 18.5352ZM190.045 18.5352H189.045V17.5352H190.045V18.5352ZM190.045 110.112H191.045V111.112H190.045V110.112ZM134.885 110.112V111.112H133.885V110.112H134.885ZM134.885 109.042V108.042H135.885V109.042H134.885ZM121.496 109.042L120.789 108.335L121.082 108.042H121.496V109.042ZM113.463 117.074H112.463V116.66L112.756 116.367L113.463 117.074ZM113.463 131.534L112.715 132.198L112.463 131.914V131.534H113.463ZM117.747 136.354L118.495 135.69L119.121 136.395L118.454 137.062L117.747 136.354ZM113.998 140.103L114.705 140.81L114.072 141.442L113.373 140.883L113.998 140.103ZM111.32 137.961V136.961H111.671L111.945 137.18L111.32 137.961ZM85.0791 137.961H84.0791V136.961H85.0791V137.961ZM85.0791 172.771H86.0791V173.771H85.0791V172.771ZM72.2266 172.771V173.771H71.2266V172.771H72.2266ZM72.2266 158.59V157.59H73.2266V158.59H72.2266ZM6.35547 158.59H5.35547V157.59H6.35547V158.59ZM6.35547 194.728V195.728H5.35547V194.728H6.35547ZM19.208 194.728V193.728H20.208V194.728H19.208ZM19.208 207.581H20.208V208.581H19.208V207.581ZM1.53516 207.581H0.535156V206.581H1.53516V207.581ZM1.53516 236.5V237.5H0.535156V236.5H1.53516ZM15.459 236.5V235.5H16.459V236.5H15.459ZM15.459 263.277H16.459V264.277H15.459V263.277ZM1.53516 263.277H0.535156V262.277H1.53516V263.277ZM1.53516 306.12V307.12H0.535156V306.12H1.53516ZM47.0557 306.12V305.12H48.0557V306.12H47.0557ZM47.0557 312.547H48.0557V313.547H47.0557V312.547ZM36.3447 312.547H35.3447V311.547H36.3447V312.547ZM36.3447 335.039L35.3697 335.261L35.3447 335.151V335.039H36.3447ZM48.6631 347.893V348.893H48.591L48.5197 348.882L48.6631 347.893ZM148.272 347.893V346.893H149.272V347.893H148.272ZM148.272 368.242H149.272V369.242H148.272V368.242ZM134.349 368.242H133.349V367.242H134.349V368.242ZM134.349 415.905L133.417 416.27L133.349 416.094V415.905H134.349ZM139.169 428.223L138.52 428.984L138.329 428.821L138.238 428.587L139.169 428.223ZM153.628 440.54L154.276 439.779L154.444 439.921L154.536 440.121L153.628 440.54ZM156.842 447.503L156.714 448.495L156.166 448.424L155.934 447.922L156.842 447.503ZM172.908 450.716V451.716H172.77L172.637 451.678L172.908 450.716ZM181.477 450.716V449.716H181.827L182.101 449.935L181.477 450.716ZM186.832 455L186.901 455.998L186.512 456.024L186.207 455.781L186.832 455ZM260.236 194.157V195.157H259.236V194.157H260.236ZM260.236 178.857L260.974 178.182L261.236 178.468V178.857H260.236ZM248.734 166.309V165.309H249.174L249.472 165.633L248.734 166.309ZM162.458 166.309V167.309H161.458V166.309H162.458ZM162.458 137.996H161.458V136.996H162.458V137.996ZM218.464 137.996H219.464V138.996H218.464V137.996ZM218.464 84.9775H217.464V83.9775H218.464V84.9775ZM226.426 84.9775V83.9775H227.426V84.9775H226.426ZM226.426 89.2627V90.2627H225.426V89.2627H226.426ZM253.445 89.2627V88.2627H253.86L254.152 88.5556L253.445 89.2627ZM253.592 89.4092L252.885 90.1163L252.885 90.1163L253.592 89.4092ZM273.942 109.759L274.649 109.052L274.649 109.052L273.942 109.759ZM274.089 109.905L274.796 109.198L275.089 109.491V109.905H274.089ZM274.089 194.157H275.089V195.157H274.089V194.157ZM141.347 249.854V250.854H140.347V249.854H141.347ZM141.347 222.005V221.005H142.347V222.005H141.347ZM72.501 222.005L71.6573 221.468L71.9521 221.005H72.501V222.005ZM68.8994 227.664L69.7431 228.201L69.7427 228.201L68.8994 227.664ZM68.6523 228.052L69.4957 228.589L69.0024 229.363L68.1891 228.938L68.6523 228.052ZM68.2451 227.839L67.7818 228.725L67.7811 228.725L68.2451 227.839ZM56.999 221.948L56.535 222.834L56.5346 222.834L56.999 221.948ZM56.5801 221.729L56.1156 222.614L55.2778 222.175L55.6701 221.314L56.5801 221.729ZM56.7764 221.298L57.6868 221.712L57.6863 221.713L56.7764 221.298ZM59.2773 215.795L59.8323 214.963L60.5394 215.435L60.1877 216.209L59.2773 215.795ZM58.0244 214.959L58.5791 214.127L58.5794 214.127L58.0244 214.959ZM57.8018 214.811L57.2471 215.643L56.8018 215.346V214.811H57.8018ZM57.8018 208.081V207.081H58.8018V208.081H57.8018ZM40.665 208.081V209.081H39.665V208.081H40.665ZM40.665 194.228H39.665V193.228H40.665V194.228ZM127.422 194.228H128.422V195.228H127.422V194.228ZM127.422 154.77L128.129 154.062L128.422 154.355V154.77H127.422ZM125.073 152.421L124.366 153.128L123.66 152.422L124.365 151.715L125.073 152.421ZM125.427 152.066L124.719 151.36L124.72 151.359L125.427 152.066ZM130.064 147.429L129.357 146.722L130.064 146.014L130.772 146.722L130.064 147.429ZM134.849 152.213L135.556 151.506L135.849 151.799V152.213H134.849ZM134.849 194.228V195.228H133.849V194.228H134.849ZM191.08 194.228V193.228H192.08V194.228H191.08ZM191.08 208.081H192.08V209.081H191.08V208.081ZM162.696 208.081H161.696V207.081H162.696V208.081ZM162.696 249.854H163.696V250.854H162.696V249.854ZM218.464 246.104V247.104H217.464V246.104H218.464ZM218.464 183.518H217.464V182.518H218.464V183.518ZM232.316 183.518V182.518H233.316V183.518H232.316ZM232.316 194.157H233.316V195.157H232.316V194.157ZM225.354 194.157H224.354V193.157H225.354V194.157ZM225.354 236V237H224.354V236H225.354ZM232.853 236V235H233.853V236H232.853ZM232.853 246.104H233.853V247.104H232.853V246.104ZM218.464 319.474V320.474H217.464V319.474H218.464ZM218.464 306.085V305.085H219.464V306.085H218.464ZM215.251 306.085V307.085H214.251V306.085H215.251ZM215.251 291.696H214.251V290.696H215.251V291.696ZM218.464 291.696H219.464V292.696H218.464V291.696ZM218.464 274.316H217.464V273.902L217.757 273.609L218.464 274.316ZM218.61 274.17L219.317 274.877L219.317 274.877L218.61 274.17ZM228.785 263.994L228.078 263.287L228.078 263.287L228.785 263.994ZM228.932 263.848L228.225 263.141L228.517 262.848H228.932V263.848ZM253.274 263.848H254.274V264.848H253.274V263.848ZM253.274 222.005V221.005H254.274V222.005H253.274ZM246.312 222.005V223.005H245.312V222.005H246.312ZM246.312 208.152H245.312V207.152H246.312V208.152ZM274.089 208.152V207.152H275.089V208.152H274.089ZM274.089 209.759V210.759H273.089V209.759H274.089ZM309.506 209.759H310.506V210.759H309.506V209.759ZM309.506 194.228H308.506V193.228H309.506V194.228ZM323.358 194.228V193.228H324.358V194.228H323.358ZM323.358 222.005H324.358V223.005H323.358V222.005ZM309.506 222.005V223.005H308.506V222.005H309.506ZM309.506 220.398V219.398H310.506V220.398H309.506ZM281.587 220.398H280.587V219.398H281.587V220.398ZM281.587 319.474H282.587V320.474H281.587V319.474ZM68.5127 313.047V314.047H67.5127V313.047H68.5127ZM68.5127 305.62H67.5127V304.62H68.5127V305.62ZM86.1855 305.62H87.1855V306.62H86.1855V305.62ZM86.1855 240.284H85.1855V239.284H86.1855V240.284ZM93.0762 240.284V239.284H94.0762V240.284H93.0762ZM93.0762 313.047H94.0762V314.047H93.0762V313.047ZM29.9541 277.701V278.701H28.9541V277.701H29.9541ZM29.9541 249.924H28.9541V248.924H29.9541V249.924ZM33.6318 249.924V248.924H34.6318V249.924H33.6318ZM33.6318 256.886V257.886H32.6318V256.886H33.6318ZM54.0537 256.886H55.0537V257.886H54.0537V256.886ZM54.0537 249.924H53.0537V248.924H54.0537V249.924ZM58.2666 249.924V248.924H59.2666V249.924H58.2666ZM58.2666 277.701H59.2666V278.701H58.2666V277.701ZM372.163 307.691V308.691H371.163V307.691H372.163ZM372.163 263.75L372.163 262.75L373.163 262.749V263.75H372.163ZM322.323 263.777L322.324 264.777H322.323V263.777ZM322.321 263.777L322.321 264.777L322.319 264.777L322.321 263.777ZM310.004 263.749L309.991 262.749L309.998 262.749L310.006 262.749L310.004 263.749ZM307.87 263.777L307.883 264.777H307.87V263.777ZM307.831 263.777V264.777H307.767L307.704 264.769L307.831 263.777ZM307.793 263.772L307.666 264.764L307.659 264.763L307.652 264.762L307.793 263.772ZM303.38 261.306L302.58 261.906L302.58 261.906L303.38 261.306ZM302.008 256.851L301.008 256.851L301.008 256.851L302.008 256.851ZM303.612 251.947L302.875 251.271L302.875 251.271L303.612 251.947ZM307.781 249.931L307.617 248.944L307.617 248.944L307.781 249.931ZM307.822 249.924L307.658 248.937L307.74 248.924H307.822V249.924ZM386.017 249.924V248.924H387.017V249.924H386.017ZM386.017 307.691H387.017V308.691H386.017V307.691ZM106.536 333.933V334.933H105.536V333.933H106.536ZM106.536 277.523H105.536V277.098L105.843 276.803L106.536 277.523ZM106.689 277.376L105.996 276.655L105.996 276.655L106.689 277.376ZM120.613 263.987L119.92 263.266L119.921 263.266L120.613 263.987ZM120.759 263.848L120.066 263.126L120.357 262.848H120.759V263.848ZM163.518 263.848V262.848H164.518V263.848H163.518ZM163.518 268.28H164.518V269.28H163.518V268.28ZM162.696 268.28H161.696V267.28H162.696V268.28ZM162.696 291.696V292.696H161.696V291.696H162.696ZM194.294 291.696V290.696H195.294V291.696H194.294ZM194.294 306.085H195.294V307.085H194.294V306.085ZM134.849 306.085H133.849V305.085H134.849V306.085ZM134.849 333.933H135.849V334.933H134.849V333.933ZM263.984 361.245V362.245H262.984V361.245H263.984ZM263.984 347.393H262.984V346.393H263.984V347.393ZM294.808 347.393L295.502 348.112L295.211 348.393H294.808V347.393ZM309.506 333.221H310.506V333.646L310.2 333.941L309.506 333.221ZM309.506 309.298V308.298H310.506V309.298H309.506ZM302.008 309.298V310.298H301.008V309.298H302.008ZM302.008 302.407H301.008V301.407H302.008V302.407ZM309.506 302.407H310.506V303.407H309.506V302.407ZM309.506 291.696H308.506V290.696H309.506V291.696ZM322.823 291.696V290.696H323.823V291.696H322.823ZM322.823 319.544V320.544H321.823V319.544H322.823ZM330.32 319.544V318.544H331.32V319.544H330.32ZM330.32 347.393V348.393H329.32V347.393H330.32ZM331.927 347.393V346.393H332.927V347.393H331.927ZM331.927 361.245H332.927V362.245H331.927V361.245ZM162.768 396.591V397.591H161.768V396.591H162.768ZM162.768 334.004H161.768V333.004H162.768V334.004ZM176.621 334.004V333.004H177.621V334.004H176.621ZM176.621 340.431V341.431H175.621V340.431H176.621ZM246.241 340.431V339.431H247.241V340.431H246.241ZM246.241 396.591H247.241V397.591H246.241V396.591ZM232.388 396.591V397.591H231.388V396.591H232.388ZM232.388 382.667V381.667H233.388V382.667H232.388ZM176.621 382.667H175.621V381.667H176.621V382.667ZM176.621 396.591H177.621V397.591H176.621V396.591ZM202.362 453.929L202.007 452.994C214.623 448.191 221.759 445.799 234.382 444.367L234.495 445.36L234.608 446.354C222.228 447.758 215.274 450.084 202.718 454.863L202.362 453.929ZM234.495 445.36V444.36H274.66V445.36V446.36H234.495V445.36ZM274.66 445.36H273.66V393.948H274.66H275.66V445.36H274.66ZM274.66 393.948L273.978 393.217L277.996 389.469L278.678 390.2L279.36 390.931L275.342 394.679L274.66 393.948ZM278.678 390.2V389.2H359.811V390.2V391.2H278.678V390.2ZM359.811 390.2L359.513 389.246C363.715 387.934 366.391 386.62 368.196 384.716C369.983 382.831 371.029 380.244 371.676 376.12L372.664 376.275L373.652 376.431C372.977 380.731 371.836 383.783 369.647 386.092C367.477 388.382 364.387 389.819 360.108 391.155L359.811 390.2ZM372.664 376.275H371.664V360.745H372.664H373.664V376.275H372.664ZM372.664 360.745V361.745H357.133V360.745V359.745H372.664V360.745ZM357.133 360.745H356.133V347.893H357.133H358.133V360.745H357.133ZM357.133 347.893V346.893H361.953V347.893V348.893H357.133V347.893ZM361.953 347.893H360.953V345.75H361.953H362.953V347.893H361.953ZM361.953 345.75L361.246 345.043L369.279 337.01L369.986 337.717L370.693 338.424L362.66 346.457L361.953 345.75ZM369.986 337.717V336.717H372.664V337.717V338.717H369.986V337.717ZM372.664 337.717H371.664V332.361H372.664H373.664V337.717H372.664ZM372.664 332.361V331.361H385.517V332.361V333.361H372.664V332.361ZM385.517 332.361H386.517V334.504H385.517H384.517V332.361H385.517ZM385.517 334.504V333.504H414.436V334.504V335.504H385.517V334.504ZM414.436 334.504H413.436V291.125H414.436H415.436V334.504H414.436ZM414.436 291.125V292.125H400.512V291.125V290.125H414.436V291.125ZM400.512 291.125H399.512V278.106H400.512H401.512V291.125H400.512ZM400.512 278.106V277.106H414.436V278.106V279.106H400.512V278.106ZM414.436 278.106H413.436V221.505H414.436H415.436V278.106H414.436ZM414.436 221.505V222.505H370.521V221.505V220.505H414.436V221.505ZM370.521 221.505L371.229 222.212L364.803 228.639L364.096 227.932L363.389 227.225L369.814 220.798L370.521 221.505ZM364.096 227.932H365.096V235.429H364.096H363.096V227.932H364.096ZM364.096 235.429V236.429H351.242V235.429V234.429H364.096V235.429ZM351.242 235.429H350.242V165.809H351.242H352.242V235.429H351.242ZM351.242 165.809V166.809H295.546V165.809V164.809H351.242V165.809ZM295.546 165.809H294.546V138.496H295.546H296.546V165.809H295.546ZM295.546 138.496V137.496H310.006V138.496V139.496H295.546V138.496ZM310.006 138.496H309.006V110.648H310.006H311.006V138.496H310.006ZM310.006 110.648L309.299 111.356L253.067 55.1241L253.774 54.417L254.482 53.7099L310.713 109.941L310.006 110.648ZM253.774 54.417L252.774 54.4212L252.622 18.5394L253.622 18.5352L254.622 18.5309L254.774 54.4127L253.774 54.417ZM253.622 18.5352V19.5352H190.045V18.5352V17.5352H253.622V18.5352ZM190.045 18.5352H191.045V110.112H190.045H189.045V18.5352H190.045ZM190.045 110.112V111.112H134.885V110.112V109.112H190.045V110.112ZM134.885 110.112H133.885V109.042H134.885H135.885V110.112H134.885ZM134.885 109.042V110.042H121.496V109.042V108.042H134.885V109.042ZM121.496 109.042L122.203 109.749L114.17 117.781L113.463 117.074L112.756 116.367L120.789 108.335L121.496 109.042ZM113.463 117.074H114.463V131.534H113.463H112.463V117.074H113.463ZM113.463 131.534L114.21 130.87L118.495 135.69L117.747 136.354L117 137.019L112.715 132.198L113.463 131.534ZM117.747 136.354L118.454 137.062L114.705 140.81L113.998 140.103L113.291 139.395L117.04 135.647L117.747 136.354ZM113.998 140.103L113.373 140.883L110.696 138.742L111.32 137.961L111.945 137.18L114.623 139.322L113.998 140.103ZM111.32 137.961V138.961H85.0791V137.961V136.961H111.32V137.961ZM85.0791 137.961H86.0791V172.771H85.0791H84.0791V137.961H85.0791ZM85.0791 172.771V173.771H72.2266V172.771V171.771H85.0791V172.771ZM72.2266 172.771H71.2266V158.59H72.2266H73.2266V172.771H72.2266ZM72.2266 158.59V159.59H6.35547V158.59V157.59H72.2266V158.59ZM6.35547 158.59H7.35547V194.728H6.35547H5.35547V158.59H6.35547ZM6.35547 194.728V193.728H19.208V194.728V195.728H6.35547V194.728ZM19.208 194.728H20.208V207.581H19.208H18.208V194.728H19.208ZM19.208 207.581V208.581H1.53516V207.581V206.581H19.208V207.581ZM1.53516 207.581H2.53516V236.5H1.53516H0.535156V207.581H1.53516ZM1.53516 236.5V235.5H15.459V236.5V237.5H1.53516V236.5ZM15.459 236.5H16.459V263.277H15.459H14.459V236.5H15.459ZM15.459 263.277V264.277H1.53516V263.277V262.277H15.459V263.277ZM1.53516 263.277H2.53516V306.12H1.53516H0.535156V263.277H1.53516ZM1.53516 306.12V305.12H47.0557V306.12V307.12H1.53516V306.12ZM47.0557 306.12H48.0557V312.547H47.0557H46.0557V306.12H47.0557ZM47.0557 312.547V313.547H36.3447V312.547V311.547H47.0557V312.547ZM36.3447 312.547H37.3447V335.039H36.3447H35.3447V312.547H36.3447ZM36.3447 335.039L37.3198 334.817C38.2611 338.953 39.2437 341.642 40.8748 343.463C42.4689 345.243 44.8084 346.324 48.8065 346.903L48.6631 347.893L48.5197 348.882C44.2985 348.271 41.4232 347.073 39.385 344.798C37.3838 342.564 36.3168 339.422 35.3697 335.261L36.3447 335.039ZM48.6631 347.893V346.893H148.272V347.893V348.893H48.6631V347.893ZM148.272 347.893H149.272V368.242H148.272H147.272V347.893H148.272ZM148.272 368.242V369.242H134.349V368.242V367.242H148.272V368.242ZM134.349 368.242H135.349V415.905H134.349H133.349V368.242H134.349ZM134.349 415.905L135.28 415.541L140.1 427.858L139.169 428.223L138.238 428.587L133.417 416.27L134.349 415.905ZM139.169 428.223L139.817 427.461L154.276 439.779L153.628 440.54L152.979 441.301L138.52 428.984L139.169 428.223ZM153.628 440.54L154.536 440.121L157.75 447.084L156.842 447.503L155.934 447.922L152.72 440.959L153.628 440.54ZM156.842 447.503L156.97 446.511C163.301 447.328 166.867 447.972 173.18 449.753L172.908 450.716L172.637 451.678C166.436 449.929 162.969 449.302 156.714 448.495L156.842 447.503ZM172.908 450.716V449.716H181.477V450.716V451.716H172.908V450.716ZM181.477 450.716L182.101 449.935L187.457 454.219L186.832 455L186.207 455.781L180.852 451.497L181.477 450.716ZM186.832 455L186.763 454.002L202.293 452.931L202.362 453.929L202.431 454.926L186.901 455.998L186.832 455ZM260.236 194.157H259.236V178.857H260.236H261.236V194.157H260.236ZM260.236 178.857L259.499 179.533L247.997 166.984L248.734 166.309L249.472 165.633L260.974 178.182L260.236 178.857ZM248.734 166.309V167.309H162.458V166.309V165.309H248.734V166.309ZM162.458 166.309H161.458V137.996H162.458H163.458V166.309H162.458ZM162.458 137.996V136.996H218.464V137.996V138.996H162.458V137.996ZM218.464 137.996H217.464V84.9775H218.464H219.464V137.996H218.464ZM218.464 84.9775V83.9775H226.426V84.9775V85.9775H218.464V84.9775ZM226.426 84.9775H227.426V89.2627H226.426H225.426V84.9775H226.426ZM226.426 89.2627V88.2627H253.445V89.2627V90.2627H226.426V89.2627ZM253.445 89.2627L254.152 88.5556L254.299 88.7021L253.592 89.4092L252.885 90.1163L252.738 89.9698L253.445 89.2627ZM253.592 89.4092L254.299 88.7021L274.649 109.052L273.942 109.759L273.235 110.466L252.885 90.1163L253.592 89.4092ZM273.942 109.759L274.649 109.052L274.796 109.198L274.089 109.905L273.382 110.612L273.235 110.466L273.942 109.759ZM274.089 109.905H275.089V194.157H274.089H273.089V109.905H274.089ZM274.089 194.157V195.157H260.236V194.157V193.157H274.089V194.157ZM141.347 249.854H140.347V222.005H141.347H142.347V249.854H141.347ZM141.347 222.005V223.005H72.501V222.005V221.005H141.347V222.005ZM72.501 222.005L73.3446 222.542L69.7431 228.201L68.8994 227.664L68.0558 227.127L71.6573 221.468L72.501 222.005ZM68.8994 227.664L69.7427 228.201L69.4957 228.589L68.6523 228.052L67.809 227.514L68.0561 227.127L68.8994 227.664ZM68.6523 228.052L68.1891 228.938L67.7818 228.725L68.2451 227.839L68.7084 226.953L69.1156 227.166L68.6523 228.052ZM68.2451 227.839L67.7811 228.725L56.535 222.834L56.999 221.948L57.463 221.062L68.7091 226.953L68.2451 227.839ZM56.999 221.948L56.5346 222.834L56.1156 222.614L56.5801 221.729L57.0445 220.843L57.4635 221.063L56.999 221.948ZM56.5801 221.729L55.6701 221.314L55.8664 220.883L56.7764 221.298L57.6863 221.713L57.49 222.143L56.5801 221.729ZM56.7764 221.298L55.866 220.884L58.367 215.381L59.2773 215.795L60.1877 216.209L57.6868 221.712L56.7764 221.298ZM59.2773 215.795L58.7223 216.627L57.4694 215.791L58.0244 214.959L58.5794 214.127L59.8323 214.963L59.2773 215.795ZM58.0244 214.959L57.4697 215.791L57.2471 215.643L57.8018 214.811L58.3565 213.978L58.5791 214.127L58.0244 214.959ZM57.8018 214.811H56.8018V208.081H57.8018H58.8018V214.811H57.8018ZM57.8018 208.081V209.081H40.665V208.081V207.081H57.8018V208.081ZM40.665 208.081H39.665V194.228H40.665H41.665V208.081H40.665ZM40.665 194.228V193.228H127.422V194.228V195.228H40.665V194.228ZM127.422 194.228H126.422V154.77H127.422H128.422V194.228H127.422ZM127.422 154.77L126.715 155.477L124.366 153.128L125.073 152.421L125.78 151.714L128.129 154.062L127.422 154.77ZM125.073 152.421L124.365 151.715L124.719 151.36L125.427 152.066L126.135 152.773L125.781 153.127L125.073 152.421ZM125.427 152.066L124.72 151.359L129.357 146.722L130.064 147.429L130.772 148.136L126.134 152.774L125.427 152.066ZM130.064 147.429L130.772 146.722L135.556 151.506L134.849 152.213L134.142 152.92L129.357 148.136L130.064 147.429ZM134.849 152.213H135.849V194.228H134.849H133.849V152.213H134.849ZM134.849 194.228V193.228H191.08V194.228V195.228H134.849V194.228ZM191.08 194.228H192.08V208.081H191.08H190.08V194.228H191.08ZM191.08 208.081V209.081H162.696V208.081V207.081H191.08V208.081ZM162.696 208.081H163.696V249.854H162.696H161.696V208.081H162.696ZM162.696 249.854V250.854H141.347V249.854V248.854H162.696V249.854ZM218.464 246.104H217.464V183.518H218.464H219.464V246.104H218.464ZM218.464 183.518V182.518H232.316V183.518V184.518H218.464V183.518ZM232.316 183.518H233.316V194.157H232.316H231.316V183.518H232.316ZM232.316 194.157V195.157H225.354V194.157V193.157H232.316V194.157ZM225.354 194.157H226.354V236H225.354H224.354V194.157H225.354ZM225.354 236V235H232.853V236V237H225.354V236ZM232.853 236H233.853V246.104H232.853H231.853V236H232.853ZM232.853 246.104V247.104H218.464V246.104V245.104H232.853V246.104ZM218.464 319.474H217.464V306.085H218.464H219.464V319.474H218.464ZM218.464 306.085V307.085H215.251V306.085V305.085H218.464V306.085ZM215.251 306.085H214.251V291.696H215.251H216.251V306.085H215.251ZM215.251 291.696V290.696H218.464V291.696V292.696H215.251V291.696ZM218.464 291.696H217.464V274.316H218.464H219.464V291.696H218.464ZM218.464 274.316L217.757 273.609L217.903 273.463L218.61 274.17L219.317 274.877L219.171 275.024L218.464 274.316ZM218.61 274.17L217.903 273.463L228.078 263.287L228.785 263.994L229.492 264.701L219.317 274.877L218.61 274.17ZM228.785 263.994L228.078 263.287L228.225 263.141L228.932 263.848L229.639 264.555L229.492 264.701L228.785 263.994ZM228.932 263.848V262.848H253.274V263.848V264.848H228.932V263.848ZM253.274 263.848H252.274V222.005H253.274H254.274V263.848H253.274ZM253.274 222.005V223.005H246.312V222.005V221.005H253.274V222.005ZM246.312 222.005H245.312V208.152H246.312H247.312V222.005H246.312ZM246.312 208.152V207.152H274.089V208.152V209.152H246.312V208.152ZM274.089 208.152H275.089V209.759H274.089H273.089V208.152H274.089ZM274.089 209.759V208.759H309.506V209.759V210.759H274.089V209.759ZM309.506 209.759H308.506V194.228H309.506H310.506V209.759H309.506ZM309.506 194.228V193.228H323.358V194.228V195.228H309.506V194.228ZM323.358 194.228H324.358V222.005H323.358H322.358V194.228H323.358ZM323.358 222.005V223.005H309.506V222.005V221.005H323.358V222.005ZM309.506 222.005H308.506V220.398H309.506H310.506V222.005H309.506ZM309.506 220.398V221.398H281.587V220.398V219.398H309.506V220.398ZM281.587 220.398H282.587V319.474H281.587H280.587V220.398H281.587ZM281.587 319.474V320.474H218.464V319.474V318.474H281.587V319.474ZM68.5127 313.047H67.5127V305.62H68.5127H69.5127V313.047H68.5127ZM68.5127 305.62V304.62H86.1855V305.62V306.62H68.5127V305.62ZM86.1855 305.62H85.1855V240.284H86.1855H87.1855V305.62H86.1855ZM86.1855 240.284V239.284H93.0762V240.284V241.284H86.1855V240.284ZM93.0762 240.284H94.0762V313.047H93.0762H92.0762V240.284H93.0762ZM93.0762 313.047V314.047H68.5127V313.047V312.047H93.0762V313.047ZM29.9541 277.701H28.9541V249.924H29.9541H30.9541V277.701H29.9541ZM29.9541 249.924V248.924H33.6318V249.924V250.924H29.9541V249.924ZM33.6318 249.924H34.6318V256.886H33.6318H32.6318V249.924H33.6318ZM33.6318 256.886V255.886H54.0537V256.886V257.886H33.6318V256.886ZM54.0537 256.886H53.0537V249.924H54.0537H55.0537V256.886H54.0537ZM54.0537 249.924V248.924H58.2666V249.924V250.924H54.0537V249.924ZM58.2666 249.924H59.2666V277.701H58.2666H57.2666V249.924H58.2666ZM58.2666 277.701V278.701H29.9541V277.701V276.701H58.2666V277.701ZM372.163 307.691H371.163V263.75H372.163H373.163V307.691H372.163ZM372.163 263.75L372.164 264.75L322.324 264.777L322.323 263.777L322.323 262.777L372.163 262.75L372.163 263.75ZM322.323 263.777V264.777H322.321V263.777V262.777H322.323V263.777ZM322.321 263.777L322.319 264.777L310.002 264.749L310.004 263.749L310.006 262.749L322.324 262.777L322.321 263.777ZM310.004 263.749L310.017 264.749L307.883 264.777L307.87 263.777L307.857 262.777L309.991 262.749L310.004 263.749ZM307.87 263.777V264.777H307.831V263.777V262.777H307.87V263.777ZM307.831 263.777L307.704 264.769L307.666 264.764L307.793 263.772L307.92 262.781L307.958 262.785L307.831 263.777ZM307.793 263.772L307.652 264.762C305.411 264.442 303.705 263.404 302.58 261.906L303.38 261.306L304.18 260.705C304.965 261.751 306.182 262.532 307.934 262.783L307.793 263.772ZM303.38 261.306L302.58 261.906C301.475 260.435 301.008 258.625 301.008 256.851L302.008 256.851L303.008 256.851C303.008 258.29 303.388 259.651 304.18 260.705L303.38 261.306ZM302.008 256.851L301.008 256.851C301.008 254.519 301.617 252.644 302.875 251.271L303.612 251.947L304.349 252.623C303.52 253.528 303.008 254.867 303.008 256.851L302.008 256.851ZM303.612 251.947L302.875 251.271C304.118 249.916 305.819 249.244 307.617 248.944L307.781 249.931L307.946 250.917C306.403 251.174 305.184 251.712 304.349 252.623L303.612 251.947ZM307.781 249.931L307.617 248.944L307.658 248.937L307.822 249.924L307.987 250.91L307.946 250.917L307.781 249.931ZM307.822 249.924V248.924H386.017V249.924V250.924H307.822V249.924ZM386.017 249.924H387.017V307.691H386.017H385.017V249.924H386.017ZM386.017 307.691V308.691H372.163V307.691V306.691H386.017V307.691ZM106.536 333.933H105.536V277.523H106.536H107.536V333.933H106.536ZM106.536 277.523L105.843 276.803L105.996 276.655L106.689 277.376L107.383 278.097L107.229 278.244L106.536 277.523ZM106.689 277.376L105.996 276.655L119.92 263.266L120.613 263.987L121.306 264.708L107.383 278.097L106.689 277.376ZM120.613 263.987L119.921 263.266L120.066 263.126L120.759 263.848L121.451 264.569L121.306 264.709L120.613 263.987ZM120.759 263.848V262.848H163.518V263.848V264.848H120.759V263.848ZM163.518 263.848H164.518V268.28H163.518H162.518V263.848H163.518ZM163.518 268.28V269.28H162.696V268.28V267.28H163.518V268.28ZM162.696 268.28H163.696V291.696H162.696H161.696V268.28H162.696ZM162.696 291.696V290.696H194.294V291.696V292.696H162.696V291.696ZM194.294 291.696H195.294V306.085H194.294H193.294V291.696H194.294ZM194.294 306.085V307.085H134.849V306.085V305.085H194.294V306.085ZM134.849 306.085H135.849V333.933H134.849H133.849V306.085H134.849ZM134.849 333.933V334.933H106.536V333.933V332.933H134.849V333.933ZM263.984 361.245H262.984V347.393H263.984H264.984V361.245H263.984ZM263.984 347.393V346.393H294.808V347.393V348.393H263.984V347.393ZM294.808 347.393L294.114 346.673L308.812 332.501L309.506 333.221L310.2 333.941L295.502 348.112L294.808 347.393ZM309.506 333.221H308.506V309.298H309.506H310.506V333.221H309.506ZM309.506 309.298V310.298H302.008V309.298V308.298H309.506V309.298ZM302.008 309.298H301.008V302.407H302.008H303.008V309.298H302.008ZM302.008 302.407V301.407H309.506V302.407V303.407H302.008V302.407ZM309.506 302.407H308.506V291.696H309.506H310.506V302.407H309.506ZM309.506 291.696V290.696H322.823V291.696V292.696H309.506V291.696ZM322.823 291.696H323.823V319.544H322.823H321.823V291.696H322.823ZM322.823 319.544V318.544H330.32V319.544V320.544H322.823V319.544ZM330.32 319.544H331.32V347.393H330.32H329.32V319.544H330.32ZM330.32 347.393V346.393H331.927V347.393V348.393H330.32V347.393ZM331.927 347.393H332.927V361.245H331.927H330.927V347.393H331.927ZM331.927 361.245V362.245H263.984V361.245V360.245H331.927V361.245ZM162.768 396.591H161.768V334.004H162.768H163.768V396.591H162.768ZM162.768 334.004V333.004H176.621V334.004V335.004H162.768V334.004ZM176.621 334.004H177.621V340.431H176.621H175.621V334.004H176.621ZM176.621 340.431V339.431H246.241V340.431V341.431H176.621V340.431ZM246.241 340.431H247.241V396.591H246.241H245.241V340.431H246.241ZM246.241 396.591V397.591H232.388V396.591V395.591H246.241V396.591ZM232.388 396.591H231.388V382.667H232.388H233.388V396.591H232.388ZM232.388 382.667V383.667H176.621V382.667V381.667H232.388V382.667ZM176.621 382.667H177.621V396.591H176.621H175.621V382.667H176.621ZM176.621 396.591V397.591H162.768V396.591V395.591H176.621V396.591Z" fill="#B27C40" mask="url(#path-1-outside-1_333_336)"/>
<path d="M19.744 306.656V299.158H26.706V306.656M86.6864 288.447H79.1889V281.485H86.1509" stroke="#B27C40" stroke-width="0.5"/>
<path d="M86.1503 265.419H64.7288V264.348H86.1503" stroke="#B27C40" stroke-width="0.5"/>
<path d="M64.7288 263.813V257.386H58.3024V263.813H64.7288Z" stroke="#B27C40"/>
<path d="M64.7288 260.599H68.4775V264.348" stroke="#B27C40" stroke-width="0.5"/>
<path d="M72.2264 312.547V319.509H88.2926V312.547M163.268 333.968V320.044H169.695V333.968M184.69 248.113L181.476 245.069L186.832 239.713L194.329 247.211M184.69 248.113L189.509 242.926M184.69 248.113L189.509 252.679M189.509 252.679L191.652 254.708L197.007 249.888L194.329 247.211M189.509 252.679L194.329 247.211M173.443 207.581V214.543H179.87V207.581M218.964 204.368H211.467V197.406H218.964M162.733 165.809V172.771H176.121V165.809M312.684 194.192V187.23H319.646V194.192M301.973 254.708L297.153 249.353L301.973 244.533L307.328 249.888M312.684 263.813V270.239H319.646V263.813M322.859 316.295H344.28V322.722H330.356M406.938 278.272V271.31H414.436M183.619 109.577V116.539H189.509V109.577M41.1651 194.728C41.1651 194.3 41.1651 189.551 41.1651 187.23H47.5916V194.192M26.7056 158.311V165.809H33.132V158.311M274.125 319.509V325.935H281.087V319.509M323.394 361.281V371.991H329.821V361.281M279.48 390.735L274.125 384.844L269.84 389.129L274.66 395.02M113.998 251.495V234.358H120.425V251.495H113.998ZM345.351 279.343L357.133 291.125L361.953 286.305L350.171 273.988L344.816 278.808L345.351 279.343ZM104.359 163.667V182.411H110.785V163.667H104.359Z" stroke="#B27C40"/>
<path d="M72.2268 319.509V326.471H78.6533V322.99M78.6533 319.509V322.99M78.6533 322.99H82.4021V319.509" stroke="#B27C40" stroke-width="0.5"/>
<path d="M165.946 172.771V176.52H172.908V172.771M162.733 284.699H190.581V291.661M1 292.196H43.8431M176.657 333.968H197.543M246.277 333.968H211.467M197.543 333.968V332.362H211.467V333.968M197.543 333.968H211.467M281.623 278.272H288.049V306.12H301.973M358.74 348.428V344.143L368.38 334.504H373.2M194.33 18V21.2132H200.756V20.6777M200.756 18V20.6777M200.756 20.6777C201.185 20.6777 205.576 20.6777 207.718 20.6777M207.718 20.6777V18M207.718 20.6777V21.2132H214.68V18M229.14 18V21.2132H236.102V18M249.49 18V19.071M243.064 18V21.2132H249.49V19.071M249.49 19.071L252.168 22.2843H254.31" stroke="#B27C40" stroke-width="0.5"/>
<path d="M229.675 264.348H217.893" stroke="#B27C40" stroke-width="0.5"/>
<path d="M236.102 20.6777H243.064M194.33 19.6066L191.652 22.2843H189.51M410.152 271.31V267.026H414.972" stroke="#B27C40" stroke-width="0.5"/>
<path d="M372.128 263.813H322.859V315.76H372.128V263.813ZM344.28 278.808L350.17 273.452L362.488 286.305L357.132 291.66L344.28 278.808Z" fill="#F08234" fill-opacity="0.23"/>
<path d="M344.816 320.044H372.128V315.76H344.816V320.044Z" fill="#F08234" fill-opacity="0.23"/>
<path d="M338.599 303.196H337.052L339.869 295.196H341.658L344.478 303.196H342.931L340.794 296.837H340.732L338.599 303.196ZM338.65 300.059H342.869V301.224H338.65V300.059Z" fill="white"/>
<path d="M1.53516 291.895H29.9187V263.277H1.53516V291.895Z" fill="#F08234" fill-opacity="0.23"/>
<path d="M29.9186 291.909H71.6906V277.737H29.9186V291.909Z" fill="#F08234" fill-opacity="0.23"/>
<path d="M58.3019 277.737H64.7284V264.348H58.3019V277.737Z" fill="#F08234" fill-opacity="0.23"/>
<path d="M64.7283 277.737H71.6903V265.694H64.7283V277.737Z" fill="#F08234" fill-opacity="0.23"/>
<path d="M43.8423 256.851H54.0175V242.927H43.8423V256.851Z" fill="#F08234" fill-opacity="0.23"/>
<path d="M54.0179 249.889H58.3023V242.927H54.0179V249.889Z" fill="#F08234" fill-opacity="0.23"/>
<path d="M58.3019 256.851H71.6904V242.927H58.3019V256.851Z" fill="#F08234" fill-opacity="0.23"/>
<path d="M65.264 260.329H71.6905V256.851H65.264V260.329Z" fill="#F08234" fill-opacity="0.23"/>
<path d="M68.7454 264.08H71.6908V260.332H68.7454V264.08Z" fill="#F08234" fill-opacity="0.23"/>
<path d="M16.248 286.059V278.059H19.3105C19.8887 278.059 20.3691 278.15 20.752 278.332C21.1374 278.512 21.4251 278.758 21.6152 279.071C21.8079 279.383 21.9043 279.737 21.9043 280.133C21.9043 280.459 21.8418 280.737 21.7168 280.969C21.5918 281.198 21.4238 281.384 21.2129 281.528C21.002 281.671 20.7663 281.774 20.5059 281.836V281.914C20.7897 281.93 21.0618 282.017 21.3223 282.176C21.5853 282.332 21.8001 282.554 21.9668 282.84C22.1335 283.127 22.2168 283.473 22.2168 283.879C22.2168 284.293 22.1165 284.666 21.916 284.996C21.7155 285.325 21.4134 285.584 21.0098 285.774C20.6061 285.964 20.0983 286.059 19.4863 286.059H16.248ZM17.6973 284.848H19.2559C19.7819 284.848 20.1608 284.748 20.3926 284.547C20.627 284.344 20.7441 284.084 20.7441 283.766C20.7441 283.529 20.6855 283.315 20.5684 283.125C20.4512 282.933 20.2845 282.782 20.0684 282.672C19.8522 282.56 19.5944 282.504 19.2949 282.504H17.6973V284.848ZM17.6973 281.461H19.1309C19.3809 281.461 19.6061 281.416 19.8066 281.325C20.0072 281.231 20.1647 281.099 20.2793 280.93C20.3965 280.758 20.4551 280.555 20.4551 280.321C20.4551 280.011 20.3457 279.756 20.127 279.555C19.9108 279.355 19.5892 279.254 19.1621 279.254H17.6973V281.461Z" fill="white"/>
</svg>
