<svg width="558" height="445" viewBox="0 0 558 445" fill="none" xmlns="http://www.w3.org/2000/svg">
<path d="M223.2 0H55.8C25.11 0 0.279 25.0312 0.279 55.625L0 389.375C0 419.969 25.11 445 55.8 445H502.2C532.89 445 558 419.969 558 389.375V111.25C558 80.6562 532.89 55.625 502.2 55.625H279L223.2 0Z" fill="#141114"/>
<path d="M55.7998 1H222.787L278.294 56.333L278.587 56.625H502.2C532.341 56.6251 557 81.2116 557 111.25V389.375C557 419.413 532.341 444 502.2 444H55.7998C25.6595 444 1.00053 419.414 1 389.376L1.2793 55.626V55.625C1.2793 25.58 25.6657 1.00011 55.7998 1Z" stroke="#D2D6DB" stroke-opacity="0.102" stroke-width="2"/>
</svg>
