<svg width="215" height="194" viewBox="0 0 215 194" fill="none" xmlns="http://www.w3.org/2000/svg">
<path fill-rule="evenodd" clip-rule="evenodd" d="M0 17V45L39.5 108.414L61.5 95.6465C57.6701 88.4447 55.5 80.2258 55.5 71.5C55.5 44.9153 75.6434 23.0353 101.5 20.2902V0H15.5L0 17ZM48.2227 40.5H18.7773L33.5 15L48.2227 40.5Z" fill="white"/>
<path fill-rule="evenodd" clip-rule="evenodd" d="M92.5 193.5H124.5L170.052 118L147.746 103C138.326 115.167 123.578 123 107 123C91.5872 123 77.7558 116.229 68.3177 105.5L46.5 119.651L92.5 193.5ZM122.223 164.5H92.7773L107.5 139L122.223 164.5Z" fill="white"/>
<path fill-rule="evenodd" clip-rule="evenodd" d="M215 43.5V16L202 0H115.5V20.6982C139.898 24.7501 158.5 45.9527 158.5 71.5C158.5 78.4012 157.143 84.9853 154.68 91C155.736 91.4 170.597 100.5 177.895 105L215 43.5ZM198.223 40.5H168.777L183.5 15L198.223 40.5Z" fill="white"/>
<path d="M123.5 72.5C123.5 63.3873 116.113 56 107 56C97.8873 56 90.5 63.3873 90.5 72.5C90.5 81.6127 97.8873 89 107 89V111C85.737 111 68.5 93.763 68.5 72.5C68.5 51.237 85.737 34 107 34C128.263 34 145.5 51.237 145.5 72.5C145.5 93.763 128.263 111 107 111V89C116.113 89 123.5 81.6127 123.5 72.5Z" fill="white"/>
</svg>
