<svg width="750" height="865" viewBox="0 0 750 865" fill="none" xmlns="http://www.w3.org/2000/svg">
<path fill-rule="evenodd" clip-rule="evenodd" d="M749.087 589.441V676.123H700.25V665.174H696.168V688.898H539.883V694.372H551.095V742.732H395.073V831.239H287.409V743.644H280.109V753.681H244.525V743.644H155.109V669.736H29.197V495.459H73.905V466.261H1.82471V429.763H41.0583V442.537H59.3065V429.763H178.832V424.288H157.847V261.872H229.927V290.158H232.664V226.287H220.803V164.241H270.073V147.816H403.285L407.847 126.83V61.134H438.868L458.941 33.7606H491.788V124.093L492.701 134.13L500.912 125.918H545.62V327.569H634.124V447.47H624.087V451.661H630.474V544.731H539.651V550.698H696.168V600.39H699.817V589.441H749.087ZM410.584 627.764V640.538H474.452V628.676H479.014V654.006H509.124V688.898H515.511V694.372H485.401V712.621H461.679V694.372H347.628V691.635H395.073V635.063H407.847V627.764H410.584ZM212.591 635.063V637.801H227.19V670.649H186.131V667.911H184.306V711.709H244.525V635.063H212.591ZM160.584 537.431H167.883V551.118H196.168V555.68H187.044V563.892H178.832V597.653L190.693 614.989V635.063H199.381V637.801H117.701H106.752V635.063H149.635V556.593H160.584V537.431ZM304.744 315.707H220.803V424.288H200.73V429.763H208.941V484.509H177.92V466.261H104.014V495.459H160.584V514.62H166.971V501.846H239.051V489.984H227.19V442.194H275.547V459.873H304.744V315.707ZM509.124 406.039V243.623H425.182V249.098H359.489V226.287H263.686V273.734H359.489V364.066L372.263 376.841H437.044V406.039H440.693V381.403H485.401V406.039H509.124ZM216.241 555.68V551.118H270.073V501.846H257.013V489.984H341.241V492.722H376.825V495.459H341.241V544.731H365.52V579.944H334.854V623.201H358.577L369.525 633.238V646.925L359.489 657.874H310.219V691.635H322.08V694.372H287.409V711.709H280.109V604.04H232.664V555.68H216.241ZM593.066 450.749H600.365V447.099H538.635V430.075H503.649V447.099H440.693V424.288H437.044V492.722H401.46V495.459H437.044V544.731H407.847V599.478H410.584V587.616L430.657 567.542H474.452V609.515H479.014V576.667H498.175V559.33L506.387 551.118H515.511V544.731H491.788V483.973H557.482V502.758H593.066V450.749ZM700.73 612.252H696.168V653.312H700.73V612.252Z" fill="#26003A"/>
<path d="M749.088 676.123V677.036H750V676.123H749.088ZM749.088 589.441H750V588.528H749.088V589.441ZM700.25 676.123H699.338V677.036H700.25V676.123ZM700.25 665.174H701.162V664.262H700.25V665.174ZM696.168 665.174V664.262H695.255V665.174H696.168ZM696.168 688.898V689.81H697.08V688.898H696.168ZM539.883 688.898V687.985H538.971V688.898H539.883ZM539.883 694.372H538.971V695.285H539.883V694.372ZM551.095 694.372H552.007V693.46H551.095V694.372ZM551.095 742.732V743.644H552.007V742.732H551.095ZM395.073 742.732V741.82H394.161V742.732H395.073ZM395.073 831.239V832.152H395.985V831.239H395.073ZM287.409 831.239H286.496V832.152H287.409V831.239ZM287.409 743.644H288.321V742.732H287.409V743.644ZM280.109 743.644V742.732H279.197V743.644H280.109ZM280.109 753.681V754.594H281.022V753.681H280.109ZM244.525 753.681H243.613V754.594H244.525V753.681ZM244.525 743.644H245.438V742.732H244.525V743.644ZM155.109 743.644H154.197V744.557H155.109V743.644ZM155.109 669.736H156.022V668.824H155.109V669.736ZM29.197 669.736H28.2846V670.649H29.197V669.736ZM29.197 495.459V494.546H28.2846V495.459H29.197ZM73.9051 495.459V496.371H74.8175V495.459H73.9051ZM73.9051 466.261H74.8175V465.348H73.9051V466.261ZM1.82476 466.261H0.912354V467.173H1.82476V466.261ZM1.82476 429.763V428.85H0.912354V429.763H1.82476ZM41.0583 429.763H41.9707V428.85H41.0583V429.763ZM41.0583 442.537H40.1459V443.449H41.0583V442.537ZM59.3065 442.537V443.449H60.2189V442.537H59.3065ZM59.3065 429.763V428.85H58.3941V429.763H59.3065ZM178.832 429.763V430.675H179.744V429.763H178.832ZM178.832 424.288H179.744V423.375H178.832V424.288ZM157.847 424.288H156.934V425.2H157.847V424.288ZM157.847 261.872V260.96H156.934V261.872H157.847ZM229.927 261.872H230.839V260.96H229.927V261.872ZM229.927 290.158H229.015V291.071H229.927V290.158ZM232.664 290.158V291.071H233.577V290.158H232.664ZM232.664 226.287H233.577V225.374H232.664V226.287ZM220.803 226.287H219.89V227.199H220.803V226.287ZM220.803 164.24V163.328H219.89V164.24H220.803ZM270.073 164.24V165.153H270.985V164.24H270.073ZM270.073 147.816V146.904H269.161V147.816H270.073ZM403.285 147.816V148.729H404.02L404.177 148.01L403.285 147.816ZM407.847 126.83L408.739 127.024L408.759 126.928V126.83H407.847ZM407.847 61.1339V60.2215H406.934V61.1339H407.847ZM438.869 61.1339V62.0464H439.33L439.604 61.6736L438.869 61.1339ZM458.942 33.7605V32.8481H458.48L458.206 33.2209L458.942 33.7605ZM491.788 33.7605H492.701V32.8481H491.788V33.7605ZM491.788 124.093H490.876V124.134L490.88 124.175L491.788 124.093ZM492.701 134.13L491.792 134.212L491.969 136.152L493.347 134.775L492.701 134.13ZM500.912 125.918V125.005H500.535L500.266 125.273L500.912 125.918ZM545.62 125.918H546.533V125.005H545.62V125.918ZM545.62 327.569H544.708V328.481H545.62V327.569ZM634.124 327.569H635.036V326.656H634.124V327.569ZM634.124 447.47V448.382H635.036V447.47H634.124ZM624.088 447.47V446.557H623.175V447.47H624.088ZM624.088 451.661H623.175V452.574H624.088V451.661ZM630.474 451.661H631.387V450.749H630.474V451.661ZM630.474 544.731V545.643H631.387V544.731H630.474ZM539.651 544.731V543.819H538.739V544.731H539.651ZM539.651 550.698H538.739V551.611H539.651V550.698ZM696.168 550.698H697.08V549.786H696.168V550.698ZM696.168 600.39H695.255V601.303H696.168V600.39ZM699.817 600.39V601.303H700.73V600.39H699.817ZM699.817 589.441V588.528H698.905V589.441H699.817ZM410.584 640.538H409.671V641.45H410.584V640.538ZM410.584 627.764H411.496V626.851H410.584V627.764ZM474.453 640.538V641.45H475.365V640.538H474.453ZM474.453 628.676V627.764H473.54V628.676H474.453ZM479.015 628.676H479.927V627.764H479.015V628.676ZM479.015 654.006H478.102V654.918H479.015V654.006ZM509.124 654.006H510.036V653.093H509.124V654.006ZM509.124 688.898H508.212V689.81H509.124V688.898ZM515.511 688.898H516.423V687.985H515.511V688.898ZM515.511 694.372V695.285H516.423V694.372H515.511ZM485.401 694.372V693.46H484.489V694.372H485.401ZM485.401 712.621V713.534H486.314V712.621H485.401ZM461.679 712.621H460.766V713.534H461.679V712.621ZM461.679 694.372H462.591V693.46H461.679V694.372ZM347.628 694.372H346.715V695.285H347.628V694.372ZM347.628 691.635V690.723H346.715V691.635H347.628ZM395.073 691.635V692.547H395.985V691.635H395.073ZM395.073 635.063V634.151H394.161V635.063H395.073ZM407.847 635.063V635.976H408.759V635.063H407.847ZM407.847 627.764V626.851H406.934V627.764H407.847ZM212.591 637.801H211.679V638.713H212.591V637.801ZM212.591 635.063V634.151H211.679V635.063H212.591ZM227.19 637.801H228.102V636.888H227.19V637.801ZM227.19 670.649V671.561H228.102V670.649H227.19ZM186.131 670.649H185.219V671.561H186.131V670.649ZM186.131 667.911H187.044V666.999H186.131V667.911ZM184.307 667.911V666.999H183.394V667.911H184.307ZM184.307 711.709H183.394V712.621H184.307V711.709ZM244.525 711.709V712.621H245.438V711.709H244.525ZM244.525 635.063H245.438V634.151H244.525V635.063ZM167.883 537.431H168.796V536.519H167.883V537.431ZM160.584 537.431V536.519H159.671V537.431H160.584ZM167.883 551.118H166.971V552.031H167.883V551.118ZM196.168 551.118H197.08V550.206H196.168V551.118ZM196.168 555.68V556.593H197.08V555.68H196.168ZM187.044 555.68V554.768H186.131V555.68H187.044ZM187.044 563.892V564.805H187.956V563.892H187.044ZM178.832 563.892V562.98H177.92V563.892H178.832ZM178.832 597.653H177.92V597.936L178.079 598.168L178.832 597.653ZM190.693 614.989H191.606V614.707L191.447 614.475L190.693 614.989ZM190.693 635.063H189.781V635.976H190.693V635.063ZM199.381 635.063H200.294V634.151H199.381V635.063ZM199.381 637.801V638.713H200.294V637.801H199.381ZM106.752 637.801H105.839V638.713H106.752V637.801ZM106.752 635.063V634.151H105.839V635.063H106.752ZM149.635 635.063V635.976H150.547V635.063H149.635ZM149.635 556.593V555.68H148.723V556.593H149.635ZM160.584 556.593V557.505H161.496V556.593H160.584ZM220.803 315.707V314.794H219.89V315.707H220.803ZM304.744 315.707H305.657V314.794H304.744V315.707ZM220.803 424.288V425.2H221.715V424.288H220.803ZM200.73 424.288V423.375H199.817V424.288H200.73ZM200.73 429.763H199.817V430.675H200.73V429.763ZM208.942 429.763H209.854V428.85H208.942V429.763ZM208.942 484.509V485.422H209.854V484.509H208.942ZM177.92 484.509H177.007V485.422H177.92V484.509ZM177.92 466.261H178.832V465.348H177.92V466.261ZM104.015 466.261V465.348H103.102V466.261H104.015ZM104.015 495.459H103.102V496.371H104.015V495.459ZM160.584 495.459H161.496V494.546H160.584V495.459ZM160.584 514.62H159.671V515.533H160.584V514.62ZM166.971 514.62V515.533H167.883V514.62H166.971ZM166.971 501.846V500.934H166.058V501.846H166.971ZM239.051 501.846V502.758H239.963V501.846H239.051ZM239.051 489.984H239.963V489.072H239.051V489.984ZM227.19 489.984H226.277V490.897H227.19V489.984ZM227.19 442.194V441.281H226.277V442.194H227.19ZM275.547 442.194H276.46V441.281H275.547V442.194ZM275.547 459.873H274.635V460.786H275.547V459.873ZM304.744 459.873V460.786H305.657V459.873H304.744ZM509.124 243.623H510.036V242.711H509.124V243.623ZM509.124 406.039V406.951H510.036V406.039H509.124ZM425.182 243.623V242.711H424.27V243.623H425.182ZM425.182 249.098V250.011H426.095V249.098H425.182ZM359.489 249.098H358.577V250.011H359.489V249.098ZM359.489 226.287H360.401V225.374H359.489V226.287ZM263.686 226.287V225.374H262.774V226.287H263.686ZM263.686 273.734H262.774V274.647H263.686V273.734ZM359.489 273.734H360.401V272.822H359.489V273.734ZM359.489 364.066H358.577V364.444L358.843 364.712L359.489 364.066ZM372.263 376.841L371.617 377.487L371.885 377.753H372.263V376.841ZM437.044 376.841H437.956V375.928H437.044V376.841ZM437.044 406.039H436.131V406.951H437.044V406.039ZM440.693 406.039V406.951H441.606V406.039H440.693ZM440.693 381.403V380.49H439.781V381.403H440.693ZM485.401 381.403H486.314V380.49H485.401V381.403ZM485.401 406.039H484.489V406.951H485.401V406.039ZM216.241 551.118V550.206H215.328V551.118H216.241ZM216.241 555.68H215.328V556.593H216.241V555.68ZM270.073 551.118V552.031H270.985V551.118H270.073ZM270.073 501.846H270.985V500.934H270.073V501.846ZM257.013 501.846H256.1V502.758H257.013V501.846ZM257.013 489.984V489.072H256.1V489.984H257.013ZM341.241 489.984H342.153V489.072H341.241V489.984ZM341.241 492.721H340.328V493.634H341.241V492.721ZM376.825 492.721H377.737V491.809H376.825V492.721ZM376.825 495.459V496.371H377.737V495.459H376.825ZM341.241 495.459V494.546H340.328V495.459H341.241ZM341.241 544.731H340.328V545.643H341.241V544.731ZM365.52 544.731H366.432V543.819H365.52V544.731ZM365.52 579.944V580.857H366.432V579.944H365.52ZM334.854 579.944V579.032H333.942V579.944H334.854ZM334.854 623.201H333.942V624.114H334.854V623.201ZM358.577 623.201L359.193 622.528L358.931 622.289H358.577V623.201ZM369.525 633.238H370.438V632.837L370.142 632.565L369.525 633.238ZM369.525 646.925L370.199 647.542L370.438 647.279V646.925H369.525ZM359.489 657.874V658.787H359.89L360.162 658.491L359.489 657.874ZM310.219 657.874V656.962H309.307V657.874H310.219ZM310.219 691.635H309.307V692.547H310.219V691.635ZM322.08 691.635H322.993V690.723H322.08V691.635ZM322.08 694.372V695.285H322.993V694.372H322.08ZM287.409 694.372V693.46H286.496V694.372H287.409ZM287.409 711.709V712.621H288.321V711.709H287.409ZM280.109 711.709H279.197V712.621H280.109V711.709ZM280.109 604.04H281.022V603.128H280.109V604.04ZM232.664 604.04H231.752V604.952H232.664V604.04ZM232.664 555.68H233.577V554.768H232.664V555.68ZM600.365 450.749V451.661H601.277V450.749H600.365ZM593.066 450.749V449.836H592.153V450.749H593.066ZM600.365 447.099H601.277V446.187H600.365V447.099ZM538.635 447.099H537.723V448.012H538.635V447.099ZM538.635 430.075H539.547V429.162H538.635V430.075ZM503.65 430.075V429.162H502.737V430.075H503.65ZM503.65 447.099V448.012H504.562V447.099H503.65ZM440.693 447.099H439.781V448.012H440.693V447.099ZM440.693 424.288H441.606V423.375H440.693V424.288ZM437.044 424.288V423.375H436.131V424.288H437.044ZM437.044 492.721V493.634H437.956V492.721H437.044ZM401.46 492.721V491.809H400.547V492.721H401.46ZM401.46 495.459H400.547V496.371H401.46V495.459ZM437.044 495.459H437.956V494.546H437.044V495.459ZM437.044 544.731V545.643H437.956V544.731H437.044ZM407.847 544.731V543.819H406.934V544.731H407.847ZM407.847 599.478H406.934V600.39H407.847V599.478ZM410.584 599.478V600.39H411.496V599.478H410.584ZM410.584 587.616L409.938 586.97L409.671 587.238V587.616H410.584ZM430.657 567.542V566.63H430.279L430.011 566.896L430.657 567.542ZM474.453 567.542H475.365V566.63H474.453V567.542ZM474.453 609.515H473.54V610.427H474.453V609.515ZM479.015 609.515V610.427H479.927V609.515H479.015ZM479.015 576.667V575.754H478.102V576.667H479.015ZM498.175 576.667V577.579H499.088V576.667H498.175ZM498.175 559.33L497.529 558.684L497.263 558.952V559.33H498.175ZM506.387 551.118V550.206H506.009L505.741 550.472L506.387 551.118ZM515.511 551.118V552.031H516.423V551.118H515.511ZM515.511 544.731H516.423V543.819H515.511V544.731ZM491.788 544.731H490.876V545.643H491.788V544.731ZM491.788 483.973V483.06H490.876V483.973H491.788ZM557.482 483.973H558.394V483.06H557.482V483.973ZM557.482 502.758H556.569V503.671H557.482V502.758ZM593.066 502.758V503.671H593.978V502.758H593.066ZM696.168 612.252V611.34H695.255V612.252H696.168ZM700.73 612.252H701.642V611.34H700.73V612.252ZM696.168 653.312H695.255V654.225H696.168V653.312ZM700.73 653.312V654.225H701.642V653.312H700.73ZM749.088 676.123H750V589.441H749.088H748.175V676.123H749.088ZM700.25 676.123V677.036H749.088V676.123V675.211H700.25V676.123ZM700.25 665.174H699.338V676.123H700.25H701.162V665.174H700.25ZM696.168 665.174V666.086H700.25V665.174V664.262H696.168V665.174ZM696.168 688.898H697.08V665.174H696.168H695.255V688.898H696.168ZM539.883 688.898V689.81H696.168V688.898V687.985H539.883V688.898ZM539.883 694.372H540.796V688.898H539.883H538.971V694.372H539.883ZM551.095 694.372V693.46H539.883V694.372V695.285H551.095V694.372ZM551.095 742.732H552.007V694.372H551.095H550.182V742.732H551.095ZM395.073 742.732V743.644H551.095V742.732V741.82H395.073V742.732ZM395.073 831.239H395.985V742.732H395.073H394.161V831.239H395.073ZM287.409 831.239V832.152H395.073V831.239V830.327H287.409V831.239ZM287.409 743.644H286.496V831.239H287.409H288.321V743.644H287.409ZM280.109 743.644V744.557H287.409V743.644V742.732H280.109V743.644ZM280.109 753.681H281.022V743.644H280.109H279.197V753.681H280.109ZM244.525 753.681V754.594H280.109V753.681V752.769H244.525V753.681ZM244.525 743.644H243.613V753.681H244.525H245.438V743.644H244.525ZM155.109 743.644V744.557H244.525V743.644V742.732H155.109V743.644ZM155.109 669.736H154.197V743.644H155.109H156.022V669.736H155.109ZM29.197 669.736V670.649H155.109V669.736V668.824H29.197V669.736ZM29.197 495.459H28.2846V669.736H29.197H30.1094V495.459H29.197ZM73.9051 495.459V494.546H29.197V495.459V496.371H73.9051V495.459ZM73.9051 466.261H72.9926V495.459H73.9051H74.8175V466.261H73.9051ZM1.82476 466.261V467.173H73.9051V466.261V465.348H1.82476V466.261ZM1.82476 429.763H0.912354V466.261H1.82476H2.73717V429.763H1.82476ZM41.0583 429.763V428.85H1.82476V429.763V430.675H41.0583V429.763ZM41.0583 442.537H41.9707V429.763H41.0583H40.1459V442.537H41.0583ZM59.3065 442.537V441.624H41.0583V442.537V443.449H59.3065V442.537ZM59.3065 429.763H58.3941V442.537H59.3065H60.2189V429.763H59.3065ZM178.832 429.763V428.85H59.3065V429.763V430.675H178.832V429.763ZM178.832 424.288H177.92V429.763H178.832H179.744V424.288H178.832ZM157.847 424.288V425.2H178.832V424.288V423.375H157.847V424.288ZM157.847 261.872H156.934V424.288H157.847H158.759V261.872H157.847ZM229.927 261.872V260.96H157.847V261.872V262.785H229.927V261.872ZM229.927 290.158H230.839V261.872H229.927H229.015V290.158H229.927ZM232.664 290.158V289.246H229.927V290.158V291.071H232.664V290.158ZM232.664 226.287H231.752V290.158H232.664H233.577V226.287H232.664ZM220.803 226.287V227.199H232.664V226.287V225.374H220.803V226.287ZM220.803 164.24H219.89V226.287H220.803H221.715V164.24H220.803ZM270.073 164.24V163.328H220.803V164.24V165.153H270.073V164.24ZM270.073 147.816H269.161V164.24H270.073H270.985V147.816H270.073ZM403.285 147.816V146.904H270.073V147.816V148.729H403.285V147.816ZM407.847 126.83L406.954 126.636L402.392 147.623L403.285 147.816L404.177 148.01L408.739 127.024L407.847 126.83ZM407.847 61.1339H406.934V126.83H407.847H408.759V61.1339H407.847ZM438.869 61.1339V60.2215H407.847V61.1339V62.0464H438.869V61.1339ZM458.942 33.7605L458.206 33.2209L438.133 60.5943L438.869 61.1339L439.604 61.6736L459.677 34.3002L458.942 33.7605ZM491.788 33.7605V32.8481H458.942V33.7605V34.673H491.788V33.7605ZM491.788 124.093H492.701V33.7605H491.788H490.876V124.093H491.788ZM492.701 134.13L493.609 134.047L492.697 124.01L491.788 124.093L490.88 124.175L491.792 134.212L492.701 134.13ZM500.912 125.918L500.266 125.273L492.055 133.485L492.701 134.13L493.347 134.775L501.558 126.563L500.912 125.918ZM545.62 125.918V125.005H500.912V125.918V126.83H545.62V125.918ZM545.62 327.569H546.533V125.918H545.62H544.708V327.569H545.62ZM634.124 327.569V326.656H545.62V327.569V328.481H634.124V327.569ZM634.124 447.47H635.036V327.569H634.124H633.212V447.47H634.124ZM624.088 447.47V448.382H634.124V447.47V446.557H624.088V447.47ZM624.088 451.661H625V447.47H624.088H623.175V451.661H624.088ZM630.474 451.661V450.749H624.088V451.661V452.574H630.474V451.661ZM630.474 544.731H631.387V451.661H630.474H629.562V544.731H630.474ZM539.651 544.731V545.643H630.474V544.731V543.819H539.651V544.731ZM539.651 550.698H540.564V544.731H539.651H538.739V550.698H539.651ZM696.168 550.698V549.786H539.651V550.698V551.611H696.168V550.698ZM696.168 600.39H697.08V550.698H696.168H695.255V600.39H696.168ZM699.817 600.39V599.478H696.168V600.39V601.303H699.817V600.39ZM699.817 589.441H698.905V600.39H699.817H700.73V589.441H699.817ZM749.088 589.441V588.528H699.817V589.441V590.353H749.088V589.441ZM410.584 640.538H411.496V627.764H410.584H409.671V640.538H410.584ZM474.453 640.538V639.625H410.584V640.538V641.45H474.453V640.538ZM474.453 628.676H473.54V640.538H474.453H475.365V628.676H474.453ZM479.015 628.676V627.764H474.453V628.676V629.589H479.015V628.676ZM479.015 654.006H479.927V628.676H479.015H478.102V654.006H479.015ZM509.124 654.006V653.093H479.015V654.006V654.918H509.124V654.006ZM509.124 688.898H510.036V654.006H509.124H508.212V688.898H509.124ZM515.511 688.898V687.985H509.124V688.898V689.81H515.511V688.898ZM515.511 694.372H516.423V688.898H515.511H514.598V694.372H515.511ZM485.401 694.372V695.285H515.511V694.372V693.46H485.401V694.372ZM485.401 712.621H486.314V694.372H485.401H484.489V712.621H485.401ZM461.679 712.621V713.534H485.401V712.621V711.709H461.679V712.621ZM461.679 694.372H460.766V712.621H461.679H462.591V694.372H461.679ZM347.628 694.372V695.285H461.679V694.372V693.46H347.628V694.372ZM347.628 691.635H346.715V694.372H347.628H348.54V691.635H347.628ZM395.073 691.635V690.723H347.628V691.635V692.547H395.073V691.635ZM395.073 635.063H394.161V691.635H395.073H395.985V635.063H395.073ZM407.847 635.063V634.151H395.073V635.063V635.976H407.847V635.063ZM407.847 627.764H406.934V635.063H407.847H408.759V627.764H407.847ZM410.584 627.764V626.851H407.847V627.764V628.676H410.584V627.764ZM212.591 637.801H213.504V635.063H212.591H211.679V637.801H212.591ZM227.19 637.801V636.888H212.591V637.801V638.713H227.19V637.801ZM227.19 670.649H228.102V637.801H227.19H226.277V670.649H227.19ZM186.131 670.649V671.561H227.19V670.649V669.736H186.131V670.649ZM186.131 667.911H185.219V670.649H186.131H187.044V667.911H186.131ZM184.307 667.911V668.824H186.131V667.911V666.999H184.307V667.911ZM184.307 711.709H185.219V667.911H184.307H183.394V711.709H184.307ZM244.525 711.709V710.796H184.307V711.709V712.621H244.525V711.709ZM244.525 635.063H243.613V711.709H244.525H245.438V635.063H244.525ZM212.591 635.063V635.976H244.525V635.063V634.151H212.591V635.063ZM167.883 537.431V536.519H160.584V537.431V538.344H167.883V537.431ZM167.883 551.118H168.796V537.431H167.883H166.971V551.118H167.883ZM196.168 551.118V550.206H167.883V551.118V552.031H196.168V551.118ZM196.168 555.68H197.08V551.118H196.168H195.255V555.68H196.168ZM187.044 555.68V556.593H196.168V555.68V554.768H187.044V555.68ZM187.044 563.892H187.956V555.68H187.044H186.131V563.892H187.044ZM178.832 563.892V564.805H187.044V563.892V562.98H178.832V563.892ZM178.832 597.653H179.744V563.892H178.832H177.92V597.653H178.832ZM190.693 614.989L191.447 614.475L179.585 597.138L178.832 597.653L178.079 598.168L189.94 615.504L190.693 614.989ZM190.693 635.063H191.606V614.989H190.693H189.781V635.063H190.693ZM199.381 635.063V634.151H190.693V635.063V635.976H199.381V635.063ZM199.381 637.801H200.294V635.063H199.381H198.469V637.801H199.381ZM117.701 637.801V638.713H199.381V637.801V636.888H117.701V637.801ZM106.752 637.801V638.713H117.701V637.801V636.888H106.752V637.801ZM106.752 635.063H105.839V637.801H106.752H107.664V635.063H106.752ZM149.635 635.063V634.151H106.752V635.063V635.976H149.635V635.063ZM149.635 556.593H148.723V635.063H149.635H150.547V556.593H149.635ZM160.584 556.593V555.68H149.635V556.593V557.505H160.584V556.593ZM160.584 537.431H159.671V556.593H160.584H161.496V537.431H160.584ZM220.803 315.707V316.619H304.744V315.707V314.794H220.803V315.707ZM220.803 424.288H221.715V315.707H220.803H219.89V424.288H220.803ZM200.73 424.288V425.2H220.803V424.288V423.375H200.73V424.288ZM200.73 429.763H201.642V424.288H200.73H199.817V429.763H200.73ZM208.942 429.763V428.85H200.73V429.763V430.675H208.942V429.763ZM208.942 484.509H209.854V429.763H208.942H208.029V484.509H208.942ZM177.92 484.509V485.422H208.942V484.509V483.597H177.92V484.509ZM177.92 466.261H177.007V484.509H177.92H178.832V466.261H177.92ZM104.015 466.261V467.173H177.92V466.261V465.348H104.015V466.261ZM104.015 495.459H104.927V466.261H104.015H103.102V495.459H104.015ZM160.584 495.459V494.546H104.015V495.459V496.371H160.584V495.459ZM160.584 514.62H161.496V495.459H160.584H159.671V514.62H160.584ZM166.971 514.62V513.708H160.584V514.62V515.533H166.971V514.62ZM166.971 501.846H166.058V514.62H166.971H167.883V501.846H166.971ZM239.051 501.846V500.934H166.971V501.846V502.758H239.051V501.846ZM239.051 489.984H238.139V501.846H239.051H239.963V489.984H239.051ZM227.19 489.984V490.897H239.051V489.984V489.072H227.19V489.984ZM227.19 442.194H226.277V489.984H227.19H228.102V442.194H227.19ZM275.547 442.194V441.281H227.19V442.194V443.106H275.547V442.194ZM275.547 459.873H276.46V442.194H275.547H274.635V459.873H275.547ZM304.744 459.873V458.961H275.547V459.873V460.786H304.744V459.873ZM304.744 315.707H303.832V459.873H304.744H305.657V315.707H304.744ZM509.124 243.623H508.212V406.039H509.124H510.036V243.623H509.124ZM425.182 243.623V244.536H509.124V243.623V242.711H425.182V243.623ZM425.182 249.098H426.095V243.623H425.182H424.27V249.098H425.182ZM359.489 249.098V250.011H425.182V249.098V248.186H359.489V249.098ZM359.489 226.287H358.577V249.098H359.489H360.401V226.287H359.489ZM263.686 226.287V227.199H359.489V226.287V225.374H263.686V226.287ZM263.686 273.734H264.598V226.287H263.686H262.774V273.734H263.686ZM359.489 273.734V272.822H263.686V273.734V274.647H359.489V273.734ZM359.489 364.066H360.401V273.734H359.489H358.577V364.066H359.489ZM372.263 376.841L372.909 376.195L360.135 363.42L359.489 364.066L358.843 364.712L371.617 377.487L372.263 376.841ZM437.044 376.841V375.928H372.263V376.841V377.753H437.044V376.841ZM437.044 406.039H437.956V376.841H437.044H436.131V406.039H437.044ZM440.693 406.039V405.127H437.044V406.039V406.951H440.693V406.039ZM440.693 381.403H439.781V406.039H440.693H441.606V381.403H440.693ZM485.401 381.403V380.49H440.693V381.403V382.315H485.401V381.403ZM485.401 406.039H486.314V381.403H485.401H484.489V406.039H485.401ZM509.124 406.039V405.127H485.401V406.039V406.951H509.124V406.039ZM216.241 551.118H215.328V555.68H216.241H217.153V551.118H216.241ZM270.073 551.118V550.206H216.241V551.118V552.031H270.073V551.118ZM270.073 501.846H269.161V551.118H270.073H270.985V501.846H270.073ZM257.013 501.846V502.758H270.073V501.846V500.934H257.013V501.846ZM257.013 489.984H256.1V501.846H257.013H257.925V489.984H257.013ZM341.241 489.984V489.072H257.013V489.984V490.897H341.241V489.984ZM341.241 492.721H342.153V489.984H341.241H340.328V492.721H341.241ZM376.825 492.721V491.809H341.241V492.721V493.634H376.825V492.721ZM376.825 495.459H377.737V492.721H376.825H375.912V495.459H376.825ZM341.241 495.459V496.371H376.825V495.459V494.546H341.241V495.459ZM341.241 544.731H342.153V495.459H341.241H340.328V544.731H341.241ZM365.52 544.731V543.819H341.241V544.731V545.643H365.52V544.731ZM365.52 579.944H366.432V544.731H365.52H364.608V579.944H365.52ZM334.854 579.944V580.857H365.52V579.944V579.032H334.854V579.944ZM334.854 623.201H335.766V579.944H334.854H333.942V623.201H334.854ZM358.577 623.201V622.289H334.854V623.201V624.114H358.577V623.201ZM369.525 633.238L370.142 632.565L359.193 622.528L358.577 623.201L357.96 623.875L368.909 633.912L369.525 633.238ZM369.525 646.925H370.438V633.238H369.525H368.613V646.925H369.525ZM359.489 657.874L360.162 658.491L370.199 647.542L369.525 646.925L368.852 646.308L358.816 657.258L359.489 657.874ZM310.219 657.874V658.787H359.489V657.874V656.962H310.219V657.874ZM310.219 691.635H311.131V657.874H310.219H309.307V691.635H310.219ZM322.08 691.635V690.723H310.219V691.635V692.547H322.08V691.635ZM322.08 694.372H322.993V691.635H322.08H321.168V694.372H322.08ZM287.409 694.372V695.285H322.08V694.372V693.46H287.409V694.372ZM287.409 711.709H288.321V694.372H287.409H286.496V711.709H287.409ZM280.109 711.709V712.621H287.409V711.709V710.796H280.109V711.709ZM280.109 604.04H279.197V711.709H280.109H281.022V604.04H280.109ZM232.664 604.04V604.952H280.109V604.04V603.128H232.664V604.04ZM232.664 555.68H231.752V604.04H232.664H233.577V555.68H232.664ZM216.241 555.68V556.593H232.664V555.68V554.768H216.241V555.68ZM600.365 450.749V449.836H593.066V450.749V451.661H600.365V450.749ZM600.365 447.099H599.453V450.749H600.365H601.277V447.099H600.365ZM538.635 447.099V448.012H600.365V447.099V446.187H538.635V447.099ZM538.635 430.075H537.723V447.099H538.635H539.547V430.075H538.635ZM503.65 430.075V430.987H538.635V430.075V429.162H503.65V430.075ZM503.65 447.099H504.562V430.075H503.65H502.737V447.099H503.65ZM440.693 447.099V448.012H503.65V447.099V446.187H440.693V447.099ZM440.693 424.288H439.781V447.099H440.693H441.606V424.288H440.693ZM437.044 424.288V425.2H440.693V424.288V423.375H437.044V424.288ZM437.044 492.721H437.956V424.288H437.044H436.131V492.721H437.044ZM401.46 492.721V493.634H437.044V492.721V491.809H401.46V492.721ZM401.46 495.459H402.372V492.721H401.46H400.547V495.459H401.46ZM437.044 495.459V494.546H401.46V495.459V496.371H437.044V495.459ZM437.044 544.731H437.956V495.459H437.044H436.131V544.731H437.044ZM407.847 544.731V545.643H437.044V544.731V543.819H407.847V544.731ZM407.847 599.478H408.759V544.731H407.847H406.934V599.478H407.847ZM410.584 599.478V598.565H407.847V599.478V600.39H410.584V599.478ZM410.584 587.616H409.671V599.478H410.584H411.496V587.616H410.584ZM430.657 567.542L430.011 566.896L409.938 586.97L410.584 587.616L411.23 588.262L431.303 568.188L430.657 567.542ZM474.453 567.542V566.63H430.657V567.542V568.455H474.453V567.542ZM474.453 609.515H475.365V567.542H474.453H473.54V609.515H474.453ZM479.015 609.515V608.602H474.453V609.515V610.427H479.015V609.515ZM479.015 576.667H478.102V609.515H479.015H479.927V576.667H479.015ZM498.175 576.667V575.754H479.015V576.667V577.579H498.175V576.667ZM498.175 559.33H497.263V576.667H498.175H499.088V559.33H498.175ZM506.387 551.118L505.741 550.472L497.529 558.684L498.175 559.33L498.821 559.976L507.033 551.764L506.387 551.118ZM515.511 551.118V550.206H506.387V551.118V552.031H515.511V551.118ZM515.511 544.731H514.598V551.118H515.511H516.423V544.731H515.511ZM491.788 544.731V545.643H515.511V544.731V543.819H491.788V544.731ZM491.788 483.973H490.876V544.731H491.788H492.701V483.973H491.788ZM557.482 483.973V483.06H491.788V483.973V484.885H557.482V483.973ZM557.482 502.758H558.394V483.973H557.482H556.569V502.758H557.482ZM593.066 502.758V501.846H557.482V502.758V503.671H593.066V502.758ZM593.066 450.749H592.153V502.758H593.066H593.978V450.749H593.066ZM696.168 612.252V613.165H700.73V612.252V611.34H696.168V612.252ZM696.168 653.312H697.08V612.252H696.168H695.255V653.312H696.168ZM700.73 653.312V652.4H696.168V653.312V654.225H700.73V653.312ZM700.73 612.252H699.817V653.312H700.73H701.642V612.252H700.73Z" fill="#674A81"/>
<path d="M157.847 340.343H169.708V334.868M169.708 334.868H176.095V328.481H169.708M169.708 334.868V328.481M169.708 328.481H157.847M220.803 364.066H209.854V375.016H220.803M52.9196 495.459V520.095H41.0583M41.0583 520.095H29.197M41.0583 520.095V495.459M29.197 562.068H41.9707V574.842H29.197M71.1678 593.091H82.1167V604.04H71.1678V600.39M71.1678 593.091V590.353H60.2189V600.39H71.1678M71.1678 593.091V600.39M29.197 640.538H41.9707V652.4H29.197M222.628 555.68V592.178M190.693 555.68V592.178M325.73 489.984V478.122H314.781V489.984M461.679 712.621H394.161M563.869 662.437H593.066V591.266M593.066 591.266V587.616M593.066 591.266H603.102V587.616M593.066 575.754H563.869M593.066 575.754V587.616M593.066 575.754H604.927M593.066 587.616H603.102M604.927 575.754H616.788M604.927 575.754V587.616H603.102M653.285 623.201L645.985 630.501L642.336 626.851M653.285 623.201L654.197 622.289L650.547 618.639M653.285 623.201V633.238H642.336V626.851M642.336 626.851L637.774 622.289L639.598 620.464M650.547 618.639L645.985 614.077L639.598 620.464M650.547 618.639V611.34H639.598V620.464M635.036 688.898V677.036H624.088V688.898M699.817 600.39H702.555L710.766 592.178V589.441M611.314 544.731V532.869H605.839M605.839 532.869H599.453M605.839 532.869V525.57H599.453V532.869M599.453 532.869V544.731M634.124 400.564H611.314V375.928H634.124M492.701 635.976H508.212V594.916H498.175M498.175 594.916H479.015M498.175 594.916V591.266H479.015M437.044 507.321H426.095V495.459M418.796 492.722V481.772H407.847V492.722M395.073 376.841V387.79H384.124V376.841M304.744 315.707V303.845H292.883V315.707M359.489 303.845H347.628V314.794H359.489M244.525 646.925H257.299V635.063H244.525M334.854 599.478H341.241V594.003M341.241 594.003H334.854M341.241 594.003H348.54V580.316M270.073 164.241H291.971V148.729M105.839 635.063H47.4452M47.4452 635.063H41.0583M47.4452 635.063V629.589H41.0583M41.0583 635.063H29.197M41.0583 635.063V629.589M41.0583 629.589V623.201H29.197M511.861 125.918L517.336 131.392V142.342L510.949 148.729H500.912L494.525 142.342V132.305M186.131 637.801V640.538H184.307V637.801M131.387 609.515V574.842H119.525V609.515H131.387ZM568.431 640.538L574.817 632.326V599.478H562.044V632.326L568.431 640.538ZM255.474 199.826H242.701V187.964H255.474V199.826Z" stroke="#674A81"/>
<path d="M106.752 531.044V556.593H149.635M74.8175 531.044V556.593H29.197M218.066 634.151V623.201H198.905M198.905 623.201H190.693M198.905 623.201V615.902H190.693M169.708 424.288V412.426H157.847M157.847 416.076H166.058V424.288M615.876 575.754H696.168M421.533 495.459V500.021H408.759V495.459" stroke="#674A81" stroke-width="0.5"/>
<path d="M347.628 315.252H325.73V400.564M358.577 317.028H328.467V397.827M326.19 429.799V477.246M328.467 489.072V432.5" stroke="#674A81" stroke-width="0.5"/>
<path d="M325.274 400.564H336.679M336.679 400.564H347.628M336.679 400.564V397.827M328.011 397.827H336.679M336.679 397.827H347.628M325.73 429.763H336.679M336.679 429.763H347.628M336.679 429.763V432.5M328.017 432.5H336.679M336.679 432.5H347.628M347.628 429.763H359.489V432.5H347.628M347.628 429.763V432.5M347.628 400.564H359.489V397.827H347.628M347.628 400.564V397.827" stroke="#674A81" stroke-width="0.5"/>
<path d="M450.73 190.701C447.202 190.701 444.343 193.561 444.343 197.089C444.343 200.616 447.202 203.476 450.73 203.476C454.257 203.476 457.117 200.616 457.117 197.089C457.117 193.561 454.257 190.701 450.73 190.701Z" stroke="#674A81"/>
<path d="M450.73 190.701C447.202 190.701 444.343 193.561 444.343 197.089C444.343 200.616 447.202 203.476 450.73 203.476C454.257 203.476 457.117 200.616 457.117 197.089C457.117 193.561 454.257 190.701 450.73 190.701Z" stroke="#674A81"/>
<path d="M390.511 409.689C386.984 409.689 384.124 412.548 384.124 416.076C384.124 419.603 386.984 422.463 390.511 422.463C394.038 422.463 396.898 419.603 396.898 416.076C396.898 412.548 394.038 409.689 390.511 409.689Z" stroke="#674A81"/>
<path d="M390.511 409.689C386.984 409.689 384.124 412.548 384.124 416.076C384.124 419.603 386.984 422.463 390.511 422.463C394.038 422.463 396.898 419.603 396.898 416.076C396.898 412.548 394.038 409.689 390.511 409.689Z" stroke="#674A81"/>
<path d="M341.241 750.944C337.714 750.944 334.854 753.804 334.854 757.331C334.854 760.859 337.714 763.718 341.241 763.718C344.768 763.718 347.628 760.859 347.628 757.331C347.628 753.804 344.768 750.944 341.241 750.944Z" stroke="#674A81"/>
<path d="M341.241 750.944C337.714 750.944 334.854 753.804 334.854 757.331C334.854 760.859 337.714 763.718 341.241 763.718C344.768 763.718 347.628 760.859 347.628 757.331C347.628 753.804 344.768 750.944 341.241 750.944Z" stroke="#674A81"/>
<path d="M270.073 540.169H263.686L259.124 544.731V551.118M447.993 447.099V444.362L445.255 439.8H440.693M8.21157 466.261V463.523L5.47434 460.786H1.82471" stroke="#674A81" stroke-width="0.5"/>
<path d="M593.065 592.178H604.014V588.528H605.839V576.216H695.255V687.985H635.949V676.123H623.175V687.985H593.065V592.178ZM653.284 622.289L649.635 618.639V611.34H638.686V622.289L642.336 625.939V633.238H653.284V622.289Z" fill="#4F276A"/>
<path d="M641.951 655.137V640.538H647.54C648.595 640.538 649.471 640.704 650.17 641.036C650.872 641.365 651.398 641.814 651.744 642.385C652.097 642.954 652.272 643.6 652.272 644.323C652.272 644.918 652.159 645.425 651.931 645.848C651.702 646.266 651.396 646.608 651.011 646.869C650.626 647.129 650.195 647.317 649.721 647.431V647.573C650.239 647.602 650.735 647.761 651.21 648.051C651.69 648.336 652.082 648.741 652.387 649.263C652.69 649.787 652.843 650.418 652.843 651.159C652.843 651.914 652.661 652.595 652.294 653.197C651.929 653.798 651.376 654.27 650.64 654.617C649.903 654.964 648.976 655.137 647.859 655.137H641.951ZM644.595 652.927H647.44C648.4 652.927 649.091 652.745 649.515 652.378C649.942 652.007 650.155 651.533 650.155 650.953C650.155 650.52 650.049 650.131 649.834 649.783C649.62 649.433 649.317 649.157 648.921 648.956C648.527 648.752 648.057 648.65 647.511 648.65H644.595V652.927ZM644.595 646.746H647.212C647.668 646.746 648.078 646.664 648.445 646.498C648.81 646.327 649.099 646.086 649.307 645.777C649.522 645.463 649.628 645.093 649.628 644.666C649.628 644.1 649.429 643.635 649.029 643.268C648.635 642.903 648.047 642.719 647.268 642.719H644.595V646.746Z" fill="white"/>
<path d="M29.197 556.593H149.635V635.063H29.197V556.593ZM42.8832 561.155H30.1094V575.754H42.8832V561.155ZM132.299 573.929H118.613V610.427H132.299V573.929ZM83.0291 592.178H72.0802V589.441H59.3065V601.303H70.2554V604.953H83.0291V592.178ZM48.3576 634.151V628.676H41.9707V622.289H30.1094V634.151H48.3576Z" fill="#4F276A"/>
<path d="M100.7 604.04H103.523L98.3835 589.441H95.1187L89.9722 604.04H92.795L96.6941 592.436H96.8081L100.7 604.04ZM100.607 598.315H92.909V600.44H100.607V598.315Z" fill="white"/>
<path d="M112.226 637.801V650.575H123.175V665.174H56.5693V639.626H72.0803V635.063" stroke="#AA7DD8" stroke-width="0.5"/>
</svg>
