<svg width="750" height="865" viewBox="0 0 750 865" fill="none" xmlns="http://www.w3.org/2000/svg">
<path fill-rule="evenodd" clip-rule="evenodd" d="M0.912354 275.559V188.877H49.7496V199.826H53.8321V176.102H210.117V170.628H198.905V122.268H354.927V33.7606H462.591V121.355H469.89V111.319H505.474V121.355H594.89V195.264H720.803V369.541H676.095V398.739H748.175V435.237H708.942V422.463H690.693V435.237H571.168V440.712H592.153V603.128H520.073V574.842H517.336V638.713H529.197V700.759H479.927V717.184H346.715L342.153 738.17V803.866H311.131L291.058 831.239H258.212V740.907L257.299 730.87L249.088 739.082H204.379V537.431H115.876V417.53H125.912V413.339H119.525V320.269H210.348V314.302H53.8321V264.61H50.1824V275.559H0.912354ZM339.416 237.236V224.462H275.547V236.324H270.985V210.994H240.876V176.102H234.489V170.628H264.598V152.379H288.321V170.628H402.372V173.365H354.927V229.937H342.153V237.236H339.416ZM537.409 229.937V227.199H522.81V194.351H563.869V197.089H565.693V153.291H505.474V229.937H537.409ZM589.416 327.569H582.117V313.882H553.832V309.32H562.956V301.108H571.168V267.347L559.306 250.011V229.937H550.619V227.199H632.299H643.248V229.937H600.365V308.407H589.416V327.569ZM445.255 549.293H529.197V440.712H549.27V435.237H541.058V380.491H572.08V398.739H645.985V369.541H589.416V350.38H583.029V363.154H510.949V375.016H522.81V422.806H474.452V405.127H445.255V549.293ZM240.876 458.961V621.377H324.817V615.902H390.511V638.713H486.314V591.266H390.511V500.934L377.737 488.159H312.956V458.961H309.306V483.597H264.598V458.961H240.876ZM533.759 309.32V313.882H479.927V363.154H492.987V375.016H408.759V372.278H373.175V369.541H408.759V320.269H384.48V285.056H415.146V241.799H391.423L380.474 231.762V218.075L390.511 207.126H439.781V173.365H427.92V170.628H462.591V153.291H469.89V260.96H517.336V309.32H533.759ZM156.934 414.251H149.635V417.901H211.365V434.925H246.35V417.901H309.306V440.712H312.956V372.278H348.54V369.541H312.956V320.269H342.153V265.522H339.416V277.384L319.343 297.458H275.547V255.485H270.985V288.333H251.825V305.67L243.613 313.882H234.489V320.269H258.212V381.027H192.518V362.242H156.934V414.251ZM49.27 252.748H53.8321V211.688H49.27V252.748Z" fill="#26003A"/>
<path d="M0.912409 188.877V187.964H0V188.877H0.912409ZM0.912409 275.559H0V276.471H0.912409V275.559ZM49.7496 188.877H50.662V187.964H49.7496V188.877ZM49.7496 199.826H48.8372V200.738H49.7496V199.826ZM53.8321 199.826V200.738H54.7445V199.826H53.8321ZM53.8321 176.102V175.19H52.9197V176.102H53.8321ZM210.117 176.102V177.015H211.029V176.102H210.117ZM210.117 170.628H211.029V169.715H210.117V170.628ZM198.905 170.628H197.993V171.54H198.905V170.628ZM198.905 122.268V121.355H197.993V122.268H198.905ZM354.927 122.268V123.18H355.839V122.268H354.927ZM354.927 33.7605V32.8481H354.015V33.7605H354.927ZM462.591 33.7605H463.504V32.8481H462.591V33.7605ZM462.591 121.355H461.679V122.268H462.591V121.355ZM469.891 121.355V122.268H470.803V121.355H469.891ZM469.891 111.319V110.406H468.978V111.319H469.891ZM505.474 111.319H506.387V110.406H505.474V111.319ZM505.474 121.355H504.562V122.268H505.474V121.355ZM594.891 121.355H595.803V120.443H594.891V121.355ZM594.891 195.264H593.978V196.176H594.891V195.264ZM720.803 195.264H721.715V194.351H720.803V195.264ZM720.803 369.541V370.454H721.715V369.541H720.803ZM676.095 369.541V368.629H675.182V369.541H676.095ZM676.095 398.739H675.182V399.652H676.095V398.739ZM748.175 398.739H749.088V397.827H748.175V398.739ZM748.175 435.237V436.15H749.088V435.237H748.175ZM708.942 435.237H708.029V436.15H708.942V435.237ZM708.942 422.463H709.854V421.551H708.942V422.463ZM690.693 422.463V421.551H689.781V422.463H690.693ZM690.693 435.237V436.15H691.606V435.237H690.693ZM571.168 435.237V434.325H570.255V435.237H571.168ZM571.168 440.712H570.255V441.624H571.168V440.712ZM592.153 440.712H593.066V439.8H592.153V440.712ZM592.153 603.128V604.04H593.066V603.128H592.153ZM520.073 603.128H519.161V604.04H520.073V603.128ZM520.073 574.842H520.985V573.929H520.073V574.842ZM517.336 574.842V573.929H516.423V574.842H517.336ZM517.336 638.713H516.423V639.625H517.336V638.713ZM529.197 638.713H530.109V637.801H529.197V638.713ZM529.197 700.759V701.672H530.109V700.759H529.197ZM479.927 700.759V699.847H479.015V700.759H479.927ZM479.927 717.183V718.096H480.839V717.183H479.927ZM346.715 717.183V716.271H345.98L345.823 716.99L346.715 717.183ZM342.153 738.17L341.261 737.976L341.241 738.071V738.17H342.153ZM342.153 803.866V804.778H343.066V803.866H342.153ZM311.131 803.866V802.954H310.67L310.396 803.326L311.131 803.866ZM291.058 831.239V832.152H291.52L291.794 831.78L291.058 831.239ZM258.212 831.239H257.299V832.152H258.212V831.239ZM258.212 740.907H259.124V740.865L259.12 740.825L258.212 740.907ZM257.299 730.87L258.208 730.788L258.031 728.848L256.653 730.224L257.299 730.87ZM249.088 739.082V739.995H249.465L249.734 739.728L249.088 739.082ZM204.38 739.082H203.467V739.995H204.38V739.082ZM204.38 537.431H205.292V536.519H204.38V537.431ZM115.876 537.431H114.964V538.344H115.876V537.431ZM115.876 417.53V416.618H114.964V417.53H115.876ZM125.912 417.53V418.443H126.825V417.53H125.912ZM125.912 413.339H126.825V412.426H125.912V413.339ZM119.526 413.339H118.613V414.251H119.526V413.339ZM119.526 320.269V319.357H118.613V320.269H119.526ZM210.349 320.269V321.181H211.261V320.269H210.349ZM210.349 314.302H211.261V313.389H210.349V314.302ZM53.8321 314.302H52.9197V315.214H53.8321V314.302ZM53.8321 264.61H54.7445V263.697H53.8321V264.61ZM50.1825 264.61V263.697H49.2701V264.61H50.1825ZM50.1825 275.559V276.471H51.0949V275.559H50.1825ZM339.416 224.462H340.328V223.55H339.416V224.462ZM339.416 237.236H338.504V238.149H339.416V237.236ZM275.547 224.462V223.55H274.635V224.462H275.547ZM275.547 236.324V237.236H276.46V236.324H275.547ZM270.985 236.324H270.073V237.236H270.985V236.324ZM270.985 210.994H271.898V210.082H270.985V210.994ZM240.876 210.994H239.964V211.907H240.876V210.994ZM240.876 176.102H241.788V175.19H240.876V176.102ZM234.489 176.102H233.577V177.015H234.489V176.102ZM234.489 170.628V169.715H233.577V170.628H234.489ZM264.599 170.628V171.54H265.511V170.628H264.599ZM264.599 152.379V151.466H263.686V152.379H264.599ZM288.321 152.379H289.234V151.466H288.321V152.379ZM288.321 170.628H287.409V171.54H288.321V170.628ZM402.372 170.628H403.285V169.715H402.372V170.628ZM402.372 173.365V174.277H403.285V173.365H402.372ZM354.927 173.365V172.453H354.015V173.365H354.927ZM354.927 229.937V230.849H355.839V229.937H354.927ZM342.153 229.937V229.024H341.241V229.937H342.153ZM342.153 237.236V238.149H343.066V237.236H342.153ZM537.409 227.199H538.321V226.287H537.409V227.199ZM537.409 229.937V230.849H538.321V229.937H537.409ZM522.81 227.199H521.898V228.112H522.81V227.199ZM522.81 194.351V193.439H521.898V194.351H522.81ZM563.869 194.351H564.781V193.439H563.869V194.351ZM563.869 197.089H562.956V198.001H563.869V197.089ZM565.693 197.089V198.001H566.606V197.089H565.693ZM565.693 153.291H566.606V152.379H565.693V153.291ZM505.474 153.291V152.379H504.562V153.291H505.474ZM505.474 229.937H504.562V230.849H505.474V229.937ZM582.117 327.569H581.204V328.481H582.117V327.569ZM589.416 327.569V328.481H590.328V327.569H589.416ZM582.117 313.882H583.029V312.969H582.117V313.882ZM553.832 313.882H552.92V314.794H553.832V313.882ZM553.832 309.32V308.407H552.92V309.32H553.832ZM562.956 309.32V310.232H563.869V309.32H562.956ZM562.956 301.108V300.195H562.044V301.108H562.956ZM571.168 301.108V302.02H572.08V301.108H571.168ZM571.168 267.347H572.08V267.064L571.922 266.832L571.168 267.347ZM559.307 250.011H558.394V250.293L558.553 250.525L559.307 250.011ZM559.307 229.937H560.219V229.024H559.307V229.937ZM550.619 229.937H549.706V230.849H550.619V229.937ZM550.619 227.199V226.287H549.706V227.199H550.619ZM643.248 227.199H644.161V226.287H643.248V227.199ZM643.248 229.937V230.849H644.161V229.937H643.248ZM600.365 229.937V229.024H599.453V229.937H600.365ZM600.365 308.407V309.32H601.277V308.407H600.365ZM589.416 308.407V307.495H588.504V308.407H589.416ZM529.197 549.293V550.206H530.109V549.293H529.197ZM445.255 549.293H444.343V550.206H445.255V549.293ZM529.197 440.712V439.8H528.285V440.712H529.197ZM549.27 440.712V441.624H550.182V440.712H549.27ZM549.27 435.237H550.182V434.325H549.27V435.237ZM541.058 435.237H540.146V436.15H541.058V435.237ZM541.058 380.49V379.578H540.146V380.49H541.058ZM572.08 380.49H572.993V379.578H572.08V380.49ZM572.08 398.739H571.168V399.652H572.08V398.739ZM645.985 398.739V399.652H646.898V398.739H645.985ZM645.985 369.541H646.898V368.629H645.985V369.541ZM589.416 369.541H588.504V370.454H589.416V369.541ZM589.416 350.38H590.328V349.467H589.416V350.38ZM583.029 350.38V349.467H582.117V350.38H583.029ZM583.029 363.154V364.066H583.942V363.154H583.029ZM510.949 363.154V362.242H510.037V363.154H510.949ZM510.949 375.016H510.037V375.928H510.949V375.016ZM522.81 375.016H523.723V374.103H522.81V375.016ZM522.81 422.806V423.719H523.723V422.806H522.81ZM474.453 422.806H473.54V423.719H474.453V422.806ZM474.453 405.127H475.365V404.214H474.453V405.127ZM445.255 405.127V404.214H444.343V405.127H445.255ZM240.876 621.377H239.964V622.289H240.876V621.377ZM240.876 458.961V458.048H239.964V458.961H240.876ZM324.818 621.377V622.289H325.73V621.377H324.818ZM324.818 615.902V614.989H323.905V615.902H324.818ZM390.511 615.902H391.423V614.989H390.511V615.902ZM390.511 638.713H389.599V639.625H390.511V638.713ZM486.314 638.713V639.625H487.226V638.713H486.314ZM486.314 591.266H487.226V590.353H486.314V591.266ZM390.511 591.266H389.599V592.178H390.511V591.266ZM390.511 500.934H391.423V500.556L391.157 500.287L390.511 500.934ZM377.737 488.159L378.383 487.513L378.115 487.247H377.737V488.159ZM312.956 488.159H312.044V489.072H312.956V488.159ZM312.956 458.961H313.869V458.048H312.956V458.961ZM309.307 458.961V458.048H308.394V458.961H309.307ZM309.307 483.597V484.509H310.219V483.597H309.307ZM264.599 483.597H263.686V484.509H264.599V483.597ZM264.599 458.961H265.511V458.048H264.599V458.961ZM533.759 313.882V314.794H534.672V313.882H533.759ZM533.759 309.32H534.672V308.407H533.759V309.32ZM479.927 313.882V312.969H479.015V313.882H479.927ZM479.927 363.154H479.015V364.066H479.927V363.154ZM492.987 363.154H493.9V362.242H492.987V363.154ZM492.987 375.016V375.928H493.9V375.016H492.987ZM408.759 375.016H407.847V375.928H408.759V375.016ZM408.759 372.278H409.672V371.366H408.759V372.278ZM373.175 372.278H372.263V373.191H373.175V372.278ZM373.175 369.541V368.629H372.263V369.541H373.175ZM408.759 369.541V370.454H409.672V369.541H408.759ZM408.759 320.269H409.672V319.357H408.759V320.269ZM384.48 320.269H383.568V321.181H384.48V320.269ZM384.48 285.056V284.143H383.568V285.056H384.48ZM415.146 285.056V285.968H416.058V285.056H415.146ZM415.146 241.798H416.058V240.886H415.146V241.798ZM391.423 241.798L390.807 242.472L391.069 242.711H391.423V241.798ZM380.474 231.762H379.562V232.163L379.858 232.435L380.474 231.762ZM380.474 218.075L379.801 217.458L379.562 217.721V218.075H380.474ZM390.511 207.126V206.213H390.109L389.838 206.509L390.511 207.126ZM439.781 207.126V208.038H440.693V207.126H439.781ZM439.781 173.365H440.693V172.453H439.781V173.365ZM427.92 173.365H427.007V174.277H427.92V173.365ZM427.92 170.628V169.715H427.007V170.628H427.92ZM462.591 170.628V171.54H463.504V170.628H462.591ZM462.591 153.291V152.379H461.679V153.291H462.591ZM469.891 153.291H470.803V152.379H469.891V153.291ZM469.891 260.96H468.978V261.872H469.891V260.96ZM517.336 260.96H518.248V260.047H517.336V260.96ZM517.336 309.32H516.423V310.232H517.336V309.32ZM149.635 414.251V413.339H148.723V414.251H149.635ZM156.934 414.251V415.163H157.847V414.251H156.934ZM149.635 417.901H148.723V418.813H149.635V417.901ZM211.365 417.901H212.277V416.988H211.365V417.901ZM211.365 434.925H210.453V435.838H211.365V434.925ZM246.35 434.925V435.838H247.263V434.925H246.35ZM246.35 417.901V416.988H245.438V417.901H246.35ZM309.307 417.901H310.219V416.988H309.307V417.901ZM309.307 440.712H308.394V441.624H309.307V440.712ZM312.956 440.712V441.624H313.869V440.712H312.956ZM312.956 372.278V371.366H312.044V372.278H312.956ZM348.54 372.278V373.191H349.453V372.278H348.54ZM348.54 369.541H349.453V368.629H348.54V369.541ZM312.956 369.541H312.044V370.454H312.956V369.541ZM312.956 320.269V319.357H312.044V320.269H312.956ZM342.153 320.269V321.181H343.066V320.269H342.153ZM342.153 265.522H343.066V264.61H342.153V265.522ZM339.416 265.522V264.61H338.504V265.522H339.416ZM339.416 277.384L340.062 278.03L340.328 277.762V277.384H339.416ZM319.343 297.458V298.37H319.721L319.989 298.104L319.343 297.458ZM275.547 297.458H274.635V298.37H275.547V297.458ZM275.547 255.485H276.46V254.573H275.547V255.485ZM270.985 255.485V254.573H270.073V255.485H270.985ZM270.985 288.333V289.246H271.898V288.333H270.985ZM251.825 288.333V287.421H250.912V288.333H251.825ZM251.825 305.67L252.471 306.316L252.737 306.048V305.67H251.825ZM243.613 313.882V314.794H243.991L244.259 314.528L243.613 313.882ZM234.489 313.882V312.969H233.577V313.882H234.489ZM234.489 320.269H233.577V321.181H234.489V320.269ZM258.212 320.269H259.124V319.357H258.212V320.269ZM258.212 381.027V381.939H259.124V381.027H258.212ZM192.518 381.027H191.606V381.939H192.518V381.027ZM192.518 362.242H193.431V361.329H192.518V362.242ZM156.934 362.242V361.329H156.022V362.242H156.934ZM53.8321 252.748V253.66H54.7445V252.748H53.8321ZM49.2701 252.748H48.3577V253.66H49.2701V252.748ZM53.8321 211.688H54.7445V210.775H53.8321V211.688ZM49.2701 211.688V210.775H48.3577V211.688H49.2701ZM0 188.877V275.559H1.82482V188.877H0ZM49.7496 187.964H0.912409V189.789H49.7496V187.964ZM50.662 199.826V188.877H48.8372V199.826H50.662ZM53.8321 198.913H49.7496V200.738H53.8321V198.913ZM52.9197 176.102V199.826H54.7445V176.102H52.9197ZM210.117 175.19H53.8321V177.015H210.117V175.19ZM209.204 170.628V176.102H211.029V170.628H209.204ZM198.905 171.54H210.117V169.715H198.905V171.54ZM197.993 122.268V170.628H199.818V122.268H197.993ZM354.927 121.355H198.905V123.18H354.927V121.355ZM354.015 33.7605V122.268H355.839V33.7605H354.015ZM462.591 32.8481H354.927V34.673H462.591V32.8481ZM463.504 121.355V33.7605H461.679V121.355H463.504ZM469.891 120.443H462.591V122.268H469.891V120.443ZM468.978 111.319V121.355H470.803V111.319H468.978ZM505.474 110.406H469.891V112.231H505.474V110.406ZM506.387 121.355V111.319H504.562V121.355H506.387ZM594.891 120.443H505.474V122.268H594.891V120.443ZM595.803 195.264V121.355H593.978V195.264H595.803ZM720.803 194.351H594.891V196.176H720.803V194.351ZM721.715 369.541V195.264H719.891V369.541H721.715ZM676.095 370.454H720.803V368.629H676.095V370.454ZM677.007 398.739V369.541H675.182V398.739H677.007ZM748.175 397.827H676.095V399.652H748.175V397.827ZM749.088 435.237V398.739H747.263V435.237H749.088ZM708.942 436.15H748.175V434.325H708.942V436.15ZM708.029 422.463V435.237H709.854V422.463H708.029ZM690.693 423.375H708.942V421.551H690.693V423.375ZM691.606 435.237V422.463H689.781V435.237H691.606ZM571.168 436.15H690.693V434.325H571.168V436.15ZM572.08 440.712V435.237H570.255V440.712H572.08ZM592.153 439.8H571.168V441.624H592.153V439.8ZM593.066 603.128V440.712H591.241V603.128H593.066ZM520.073 604.04H592.153V602.215H520.073V604.04ZM519.161 574.842V603.128H520.985V574.842H519.161ZM517.336 575.754H520.073V573.929H517.336V575.754ZM518.248 638.713V574.842H516.423V638.713H518.248ZM529.197 637.801H517.336V639.625H529.197V637.801ZM530.109 700.759V638.713H528.285V700.759H530.109ZM479.927 701.672H529.197V699.847H479.927V701.672ZM480.839 717.183V700.759H479.015V717.183H480.839ZM346.715 718.096H479.927V716.271H346.715V718.096ZM343.046 738.363L347.608 717.377L345.823 716.99L341.261 737.976L343.046 738.363ZM343.066 803.866V738.17H341.241V803.866H343.066ZM311.131 804.778H342.153V802.954H311.131V804.778ZM291.794 831.78L311.867 804.406L310.396 803.326L290.323 830.699L291.794 831.78ZM258.212 832.152H291.058V830.327H258.212V832.152ZM257.299 740.907V831.239H259.124V740.907H257.299ZM256.391 730.952L257.303 740.989L259.12 740.825L258.208 730.788L256.391 730.952ZM249.734 739.728L257.945 731.516L256.653 730.224L248.442 738.436L249.734 739.728ZM204.38 739.995H249.088V738.17H204.38V739.995ZM203.467 537.431V739.082H205.292V537.431H203.467ZM115.876 538.344H204.38V536.519H115.876V538.344ZM114.964 417.53V537.431H116.788V417.53H114.964ZM125.912 416.618H115.876V418.443H125.912V416.618ZM125 413.339V417.53H126.825V413.339H125ZM119.526 414.251H125.912V412.426H119.526V414.251ZM118.613 320.269V413.339H120.438V320.269H118.613ZM210.349 319.357H119.526V321.181H210.349V319.357ZM209.436 314.302V320.269H211.261V314.302H209.436ZM53.8321 315.214H210.349V313.389H53.8321V315.214ZM52.9197 264.61V314.302H54.7445V264.61H52.9197ZM50.1825 265.522H53.8321V263.697H50.1825V265.522ZM51.0949 275.559V264.61H49.2701V275.559H51.0949ZM0.912409 276.471H50.1825V274.647H0.912409V276.471ZM338.504 224.462V237.236H340.328V224.462H338.504ZM275.547 225.374H339.416V223.55H275.547V225.374ZM276.46 236.324V224.462H274.635V236.324H276.46ZM270.985 237.236H275.547V235.411H270.985V237.236ZM270.073 210.994V236.324H271.898V210.994H270.073ZM240.876 211.907H270.985V210.082H240.876V211.907ZM239.964 176.102V210.994H241.788V176.102H239.964ZM234.489 177.015H240.876V175.19H234.489V177.015ZM233.577 170.628V176.102H235.401V170.628H233.577ZM264.599 169.715H234.489V171.54H264.599V169.715ZM263.686 152.379V170.628H265.511V152.379H263.686ZM288.321 151.466H264.599V153.291H288.321V151.466ZM289.234 170.628V152.379H287.409V170.628H289.234ZM402.372 169.715H288.321V171.54H402.372V169.715ZM403.285 173.365V170.628H401.46V173.365H403.285ZM354.927 174.277H402.372V172.453H354.927V174.277ZM355.839 229.937V173.365H354.015V229.937H355.839ZM342.153 230.849H354.927V229.024H342.153V230.849ZM343.066 237.236V229.937H341.241V237.236H343.066ZM339.416 238.149H342.153V236.324H339.416V238.149ZM536.496 227.199V229.937H538.321V227.199H536.496ZM522.81 228.112H537.409V226.287H522.81V228.112ZM521.898 194.351V227.199H523.723V194.351H521.898ZM563.869 193.439H522.81V195.264H563.869V193.439ZM564.781 197.089V194.351H562.956V197.089H564.781ZM565.693 196.176H563.869V198.001H565.693V196.176ZM564.781 153.291V197.089H566.606V153.291H564.781ZM505.474 154.204H565.693V152.379H505.474V154.204ZM506.387 229.937V153.291H504.562V229.937H506.387ZM537.409 229.024H505.474V230.849H537.409V229.024ZM582.117 328.481H589.416V326.656H582.117V328.481ZM581.204 313.882V327.569H583.029V313.882H581.204ZM553.832 314.794H582.117V312.969H553.832V314.794ZM552.92 309.32V313.882H554.745V309.32H552.92ZM562.956 308.407H553.832V310.232H562.956V308.407ZM562.044 301.108V309.32H563.869V301.108H562.044ZM571.168 300.195H562.956V302.02H571.168V300.195ZM570.255 267.347V301.108H572.08V267.347H570.255ZM558.553 250.525L570.414 267.862L571.922 266.832L560.06 249.496L558.553 250.525ZM558.394 229.937V250.011H560.219V229.937H558.394ZM550.619 230.849H559.307V229.024H550.619V230.849ZM549.706 227.199V229.937H551.531V227.199H549.706ZM632.299 226.287H550.619V228.112H632.299V226.287ZM643.248 226.287H632.299V228.112H643.248V226.287ZM644.161 229.937V227.199H642.336V229.937H644.161ZM600.365 230.849H643.248V229.024H600.365V230.849ZM601.277 308.407V229.937H599.453V308.407H601.277ZM589.416 309.32H600.365V307.495H589.416V309.32ZM590.328 327.569V308.407H588.504V327.569H590.328ZM529.197 548.381H445.255V550.206H529.197V548.381ZM528.285 440.712V549.293H530.109V440.712H528.285ZM549.27 439.8H529.197V441.624H549.27V439.8ZM548.358 435.237V440.712H550.182V435.237H548.358ZM541.058 436.15H549.27V434.325H541.058V436.15ZM540.146 380.49V435.237H541.971V380.49H540.146ZM572.08 379.578H541.058V381.403H572.08V379.578ZM572.993 398.739V380.49H571.168V398.739H572.993ZM645.985 397.827H572.08V399.652H645.985V397.827ZM645.073 369.541V398.739H646.898V369.541H645.073ZM589.416 370.454H645.985V368.629H589.416V370.454ZM588.504 350.38V369.541H590.328V350.38H588.504ZM583.029 351.292H589.416V349.467H583.029V351.292ZM583.942 363.154V350.38H582.117V363.154H583.942ZM510.949 364.066H583.029V362.242H510.949V364.066ZM511.861 375.016V363.154H510.037V375.016H511.861ZM522.81 374.103H510.949V375.928H522.81V374.103ZM523.723 422.806V375.016H521.898V422.806H523.723ZM474.453 423.719H522.81V421.894H474.453V423.719ZM473.54 405.127V422.806H475.365V405.127H473.54ZM445.255 406.039H474.453V404.214H445.255V406.039ZM446.168 549.293V405.127H444.343V549.293H446.168ZM241.788 621.377V458.961H239.964V621.377H241.788ZM324.818 620.464H240.876V622.289H324.818V620.464ZM323.905 615.902V621.377H325.73V615.902H323.905ZM390.511 614.989H324.818V616.814H390.511V614.989ZM391.423 638.713V615.902H389.599V638.713H391.423ZM486.314 637.801H390.511V639.625H486.314V637.801ZM485.401 591.266V638.713H487.226V591.266H485.401ZM390.511 592.178H486.314V590.353H390.511V592.178ZM389.599 500.934V591.266H391.423V500.934H389.599ZM377.091 488.805L389.865 501.58L391.157 500.287L378.383 487.513L377.091 488.805ZM312.956 489.072H377.737V487.247H312.956V489.072ZM312.044 458.961V488.159H313.869V458.961H312.044ZM309.307 459.873H312.956V458.048H309.307V459.873ZM310.219 483.597V458.961H308.394V483.597H310.219ZM264.599 484.509H309.307V482.685H264.599V484.509ZM263.686 458.961V483.597H265.511V458.961H263.686ZM240.876 459.873H264.599V458.048H240.876V459.873ZM534.672 313.882V309.32H532.847V313.882H534.672ZM479.927 314.794H533.759V312.969H479.927V314.794ZM480.839 363.154V313.882H479.015V363.154H480.839ZM492.987 362.242H479.927V364.066H492.987V362.242ZM493.9 375.016V363.154H492.075V375.016H493.9ZM408.759 375.928H492.987V374.103H408.759V375.928ZM407.847 372.278V375.016H409.672V372.278H407.847ZM373.175 373.191H408.759V371.366H373.175V373.191ZM372.263 369.541V372.278H374.088V369.541H372.263ZM408.759 368.629H373.175V370.454H408.759V368.629ZM407.847 320.269V369.541H409.672V320.269H407.847ZM384.48 321.181H408.759V319.357H384.48V321.181ZM383.568 285.056V320.269H385.392V285.056H383.568ZM415.146 284.143H384.48V285.968H415.146V284.143ZM414.234 241.798V285.056H416.058V241.798H414.234ZM391.423 242.711H415.146V240.886H391.423V242.711ZM379.858 232.435L390.807 242.472L392.04 241.125L381.091 231.088L379.858 232.435ZM379.562 218.075V231.762H381.387V218.075H379.562ZM389.838 206.509L379.801 217.458L381.148 218.692L391.184 207.742L389.838 206.509ZM439.781 206.213H390.511V208.038H439.781V206.213ZM438.869 173.365V207.126H440.693V173.365H438.869ZM427.92 174.277H439.781V172.453H427.92V174.277ZM427.007 170.628V173.365H428.832V170.628H427.007ZM462.591 169.715H427.92V171.54H462.591V169.715ZM461.679 153.291V170.628H463.504V153.291H461.679ZM469.891 152.379H462.591V154.204H469.891V152.379ZM470.803 260.96V153.291H468.978V260.96H470.803ZM517.336 260.047H469.891V261.872H517.336V260.047ZM518.248 309.32V260.96H516.423V309.32H518.248ZM533.759 308.407H517.336V310.232H533.759V308.407ZM149.635 415.163H156.934V413.339H149.635V415.163ZM150.547 417.901V414.251H148.723V417.901H150.547ZM211.365 416.988H149.635V418.813H211.365V416.988ZM212.277 434.925V417.901H210.453V434.925H212.277ZM246.35 434.013H211.365V435.838H246.35V434.013ZM245.438 417.901V434.925H247.263V417.901H245.438ZM309.307 416.988H246.35V418.813H309.307V416.988ZM310.219 440.712V417.901H308.394V440.712H310.219ZM312.956 439.8H309.307V441.624H312.956V439.8ZM312.044 372.278V440.712H313.869V372.278H312.044ZM348.54 371.366H312.956V373.191H348.54V371.366ZM347.628 369.541V372.278H349.453V369.541H347.628ZM312.956 370.454H348.54V368.629H312.956V370.454ZM312.044 320.269V369.541H313.869V320.269H312.044ZM342.153 319.357H312.956V321.181H342.153V319.357ZM341.241 265.522V320.269H343.066V265.522H341.241ZM339.416 266.435H342.153V264.61H339.416V266.435ZM340.328 277.384V265.522H338.504V277.384H340.328ZM319.989 298.104L340.062 278.03L338.77 276.738L318.697 296.812L319.989 298.104ZM275.547 298.37H319.343V296.545H275.547V298.37ZM274.635 255.485V297.458H276.46V255.485H274.635ZM270.985 256.398H275.547V254.573H270.985V256.398ZM271.898 288.333V255.485H270.073V288.333H271.898ZM251.825 289.246H270.985V287.421H251.825V289.246ZM252.737 305.67V288.333H250.912V305.67H252.737ZM244.259 314.528L252.471 306.316L251.179 305.024L242.967 313.236L244.259 314.528ZM234.489 314.794H243.613V312.969H234.489V314.794ZM235.401 320.269V313.882H233.577V320.269H235.401ZM258.212 319.357H234.489V321.181H258.212V319.357ZM259.124 381.027V320.269H257.299V381.027H259.124ZM192.518 381.939H258.212V380.115H192.518V381.939ZM191.606 362.242V381.027H193.431V362.242H191.606ZM156.934 363.154H192.518V361.329H156.934V363.154ZM157.847 414.251V362.242H156.022V414.251H157.847ZM53.8321 251.835H49.2701V253.66H53.8321V251.835ZM52.9197 211.688V252.748H54.7445V211.688H52.9197ZM49.2701 212.6H53.8321V210.775H49.2701V212.6ZM50.1825 252.748V211.688H48.3577V252.748H50.1825Z" fill="#8058A3"/>
<path d="M592.153 524.657H580.292V530.132M580.292 530.132H573.905V536.519H580.292M580.292 530.132V536.519M580.292 536.519H592.153M529.197 500.934H540.146V489.984H529.197M697.08 369.541V344.905H708.942M708.942 344.905H720.803M708.942 344.905V369.541M720.803 302.932H708.029V290.158H720.803M678.832 271.909H667.883V260.96H678.832V264.61M678.832 271.909V274.647H689.781V264.61H678.832M678.832 271.909V264.61M720.803 224.462H708.029V212.6H720.803M527.372 309.32V272.822M559.307 309.32V272.822M424.27 375.016V386.878H435.219V375.016M288.321 152.379H355.839M186.131 202.563H156.934V273.734M156.934 273.734V277.384M156.934 273.734H146.898V277.384M156.934 289.246H186.131M156.934 289.246V277.384M156.934 289.246H145.073M156.934 277.384H146.898M145.073 289.246H133.212M145.073 289.246V277.384H146.898M96.7154 241.799L104.015 234.499L107.664 238.149M96.7154 241.799L95.803 242.711L99.4526 246.361M96.7154 241.799V231.762H107.664V238.149M107.664 238.149L112.226 242.711L110.402 244.536M99.4526 246.361L104.015 250.923L110.402 244.536M99.4526 246.361V253.66H110.402V244.536M114.964 176.102V187.964H125.912V176.102M50.1825 264.61H47.4453L39.2336 272.822V275.559M138.686 320.269V332.131H144.161M144.161 332.131H150.548M144.161 332.131V339.43H150.548V332.131M150.548 332.131V320.269M115.876 464.436H138.686V489.072H115.876M257.299 229.024H241.788V270.084H251.825M251.825 270.084H270.985M251.825 270.084V273.734H270.985M312.956 357.679H323.905V369.541M331.204 372.278V383.228H342.153V372.278M354.927 488.159V477.21H365.876V488.159M445.256 549.293V561.155H457.117V549.293M390.511 561.155H402.372V550.206H390.511M505.475 218.075H492.701V229.937H505.475M415.146 265.522H408.759V270.997M408.759 270.997H415.146M408.759 270.997H401.46V284.684M479.927 700.76H458.029V716.271M644.161 229.937H702.555M702.555 229.937H708.942M702.555 229.937V235.411H708.942M708.942 229.937H720.803M708.942 229.937V235.411M708.942 235.411V241.799H720.803M238.139 739.082L232.664 733.608V722.658L239.051 716.271H249.088L255.475 722.658V732.695M563.869 227.199V224.462H565.694V227.199M618.613 255.485V290.158H630.475V255.485H618.613ZM181.569 224.462L175.183 232.674V265.522H187.956V232.674L181.569 224.462ZM494.526 665.174H507.299V677.036H494.526V665.174Z" stroke="#8058A3"/>
<path d="M643.248 333.956V308.407H600.365M675.182 333.956V308.407H720.803M531.934 230.849V241.799H551.095M551.095 241.799H559.306M551.095 241.799V249.098H559.306M580.292 440.712V452.574H592.153M592.153 448.924H583.942V440.712M134.124 289.246H53.832M328.467 369.541V364.979H341.241V369.541" stroke="#8058A3" stroke-width="0.5"/>
<path d="M402.372 549.748H424.27V464.436M391.423 547.972H421.533V467.173M423.81 435.201V387.754M421.533 375.928V432.5" stroke="#8058A3" stroke-width="0.5"/>
<path d="M424.726 464.436H413.321M413.321 464.436H402.372M413.321 464.436V467.173M421.989 467.173H413.321M413.321 467.173H402.372M424.27 435.237H413.321M413.321 435.237H402.372M413.321 435.237V432.5M421.984 432.5H413.321M413.321 432.5H402.372M402.372 435.237H390.511V432.5H402.372M402.372 435.237V432.5M402.372 464.436H390.511V467.173H402.372M402.372 464.436V467.173" stroke="#8058A3" stroke-width="0.5"/>
<path d="M299.27 674.299C302.798 674.299 305.657 671.439 305.657 667.911C305.657 664.384 302.798 661.524 299.27 661.524C295.743 661.524 292.883 664.384 292.883 667.911C292.883 671.439 295.743 674.299 299.27 674.299Z" stroke="#8058A3"/>
<path d="M299.27 674.299C302.798 674.299 305.657 671.439 305.657 667.911C305.657 664.384 302.798 661.524 299.27 661.524C295.743 661.524 292.883 664.384 292.883 667.911C292.883 671.439 295.743 674.299 299.27 674.299Z" stroke="#8058A3"/>
<path d="M359.489 455.311C363.017 455.311 365.876 452.452 365.876 448.924C365.876 445.397 363.017 442.537 359.489 442.537C355.962 442.537 353.102 445.397 353.102 448.924C353.102 452.452 355.962 455.311 359.489 455.311Z" stroke="#8058A3"/>
<path d="M359.489 455.311C363.017 455.311 365.876 452.452 365.876 448.924C365.876 445.397 363.017 442.537 359.489 442.537C355.962 442.537 353.102 445.397 353.102 448.924C353.102 452.452 355.962 455.311 359.489 455.311Z" stroke="#8058A3"/>
<path d="M408.759 114.056C412.287 114.056 415.146 111.196 415.146 107.669C415.146 104.141 412.287 101.282 408.759 101.282C405.232 101.282 402.372 104.141 402.372 107.669C402.372 111.196 405.232 114.056 408.759 114.056Z" stroke="#8058A3"/>
<path d="M408.759 114.056C412.287 114.056 415.146 111.196 415.146 107.669C415.146 104.141 412.287 101.282 408.759 101.282C405.232 101.282 402.372 104.141 402.372 107.669C402.372 111.196 405.232 114.056 408.759 114.056Z" stroke="#8058A3"/>
<path d="M479.927 324.831H486.314L490.876 320.269V313.882M302.007 417.901V420.638L304.745 425.2H309.307M741.788 398.739V401.477L744.526 404.214H748.175" stroke="#8058A3" stroke-width="0.5"/>
<path fill-rule="evenodd" clip-rule="evenodd" d="M114.051 177.015H54.7446V288.784H144.161V276.472H145.986V272.822H156.934V177.015H126.825V188.877H114.051V177.015ZM107.664 231.762H96.7154V242.711L100.365 246.361V253.66H111.314V242.711L107.664 239.061V231.762Z" fill="#4F276A"/>
<path d="M96.3306 226.287V211.688H101.919C102.974 211.688 103.851 211.854 104.549 212.186C105.253 212.514 105.778 212.963 106.125 213.535C106.476 214.104 106.652 214.75 106.652 215.473C106.652 216.067 106.538 216.575 106.31 216.998C106.082 217.416 105.775 217.757 105.39 218.018C105.006 218.279 104.575 218.467 104.1 218.58V218.723C104.618 218.752 105.115 218.911 105.59 219.201C106.07 219.486 106.462 219.891 106.766 220.413C107.07 220.936 107.222 221.568 107.222 222.309C107.222 223.064 107.04 223.745 106.673 224.347C106.308 224.947 105.756 225.42 105.02 225.767C104.283 226.114 103.356 226.287 102.24 226.287H96.3306ZM98.9751 224.077H101.819C102.779 224.077 103.471 223.894 103.894 223.528C104.321 223.157 104.535 222.683 104.535 222.102C104.535 221.67 104.428 221.281 104.214 220.933C104 220.582 103.696 220.307 103.302 220.106C102.907 219.902 102.437 219.799 101.89 219.799H98.9751V224.077ZM98.9751 217.896H101.591C102.047 217.896 102.458 217.814 102.824 217.648C103.19 217.476 103.478 217.235 103.687 216.927C103.901 216.613 104.008 216.243 104.008 215.816C104.008 215.25 103.808 214.785 103.409 214.418C103.014 214.053 102.427 213.868 101.648 213.868H98.9751V217.896Z" fill="white"/>
<path fill-rule="evenodd" clip-rule="evenodd" d="M720.803 229.937H600.365V308.407H720.803V229.937ZM631.387 254.573H617.701V291.071H631.387V254.573ZM666.971 260.047H679.745V263.697H690.693V275.559H679.745H677.92V272.822H666.971V260.047ZM719.891 289.246H707.117V303.845H719.891V289.246ZM708.029 230.849H719.891V242.711H708.029V236.324H701.642V230.849H708.029Z" fill="#4F276A"/>
<path d="M649.299 277.384H646.478L651.617 262.785H654.881L660.027 277.384H657.204L653.307 265.779H653.192L649.299 277.384ZM649.392 271.659H657.091V273.783H649.392V271.659Z" fill="white"/>
<path d="M637.774 227.199V214.425H626.825V199.826H693.431V225.374H677.92V229.937" stroke="#9369BB" stroke-width="0.5"/>
</svg>
