<svg width="750" height="855" viewBox="0 0 750 855" fill="none" xmlns="http://www.w3.org/2000/svg">
<path d="M27.2373 388.138L24.2108 383.596L27.2373 379.054H0V690.422H748.518V448.191V447.181H726.325L722.962 452.228L726.325 457.273H739.439V681.338H9.07906V388.138H27.2373Z" fill="white" fill-opacity="0.48"/>
<path d="M405.53 84.8436L412.592 122.188V177.699H521.542V181.736H525.577V177.699H596.19V218.072H576.016L596.19 238.258H606.279V287.713H586.103V314.963H606.279V358.364H576.016V360.382H660.754V405.8H645.622V436.079H633.516V439.107H658.734V426.997H695.052L708.166 441.126V463.329L695.052 477.46H658.734V464.339H655.711V554.168H581.059L561.894 564.258V649.041L493.296 719.69H489.26V721.708L469.083 744.923V775.204C469.082 776.82 464.376 786.641 462.023 791.351L446.89 810.527V813.554L439.828 821.63H401.497L397.46 813.554L396.452 809.517L403.514 801.445L382.329 785.294L374.257 772.175V738.868L367.197 731.802V729.784L361.145 726.755L356.1 720.7L346.011 708.589L342.986 700.514L327.855 683.356L325.837 679.319L320.793 677.301L308.688 653.078L298.601 598.576V589.492L295.574 588.482L278.425 585.455H265.311L252.195 588.482H245.135L242.109 586.463H239.082L233.028 589.492H227.986L225.966 588.482H202.765L197.721 590.5H121.055L67.5879 537.009V498.654H80.7028V489.572H69.6055V406.809H44.3863V392.679H42.3687V373.501H44.3863V360.382H101.887V365.428H104.913V350.288H117.019V347.262H89.7806V306.889H44.3863V232.201H94.8248V177.699H230.003V180.726H234.038V177.699H306.671V121.179L312.723 93.9279L335.926 33.3702H382.329L405.53 84.8436ZM331.889 643.994L343.996 654.086V659.133L383.338 698.495V706.571L397.46 723.729V728.774L404.522 733.821L408.559 734.831L414.609 741.896H418.644L438.822 734.831L439.83 732.813L455.971 714.643V709.599L484.217 674.274V668.217H494.304L500.358 660.143L501.366 654.086L507.418 646.014V638.948L502.376 631.883H500.358L495.314 622.799L457.989 643.994H433.778L416.627 648.032H405.532L337.943 617.752L331.889 643.994ZM399.48 462.32V480.488H384.346L373.251 491.589V529.943H318.775V558.203H331.889V548.111H359.127V601.604H379.302L385.356 608.67L401.497 616.744H409.567L411.584 619.77V621.789L427.725 624.817H432.768L446.89 615.733H449.917V613.715H455.971L470.095 603.623H511.453V554.168H481.19V480.488H402.505V462.32H399.48ZM170.484 495.628V532.972H180.573V558.203H234.261V556.185H284.477V558.203H298.601V529.943H232.02V498.654H247.152V495.628H170.484ZM522.55 345.241V377.54H481.19L462.023 386.624V453.238H495.314V443.144H527.594V505.72H506.409V511.777H579.041V478.47H608.297L609.305 439.107H618.386V436.079H609.305V386.624H543.734V360.382H555.84V358.364H549.788V345.241H522.55ZM348.031 161.551L309.698 207.978H234.038V203.941H230.003V207.978H218.906V241.285H230.003V278.064H209.827V379.559H243.117V372.493L257.239 365.428H270.355L284.477 372.493V379.559H285.485V365.428H322.81L338.951 381.577V399.743L321.802 416.903H285.485V403.782H283.469V495.628H266.318V498.654H270.355V507.738H348.031V443.144H399.48V448.191H402.505V443.144H430.751V425.987H410.574V384.606H430.751V374.512H427.725V353.317H430.751V342.215H401.497V311.936H403.514V306.889H401.497V276.611H439.83V290.741H453.952V276.611H476.145V272.572H460.006V263.49H422.681V212.015H431.76V207.978H413.602L376.276 161.551H348.031ZM161.405 326.067L146.274 347.262H140.221V350.288H155.353V390.661L144.256 400.753H116.011L104.913 390.661V385.614H101.887V473.423H208.819V449.2H233.028V403.782H243.117V401.762H209.827V431.032H169.475V388.643H179.06V370.475H169.475V326.067H161.405ZM467.068 288.721V307.897H418.644V310.926H476.145V288.721H467.068ZM116.011 207.978V261.471H76.6674V281.656H121.055V212.015H199.74V207.978H116.011ZM521.542 203.941V207.978H447.9V246.33H460.006V241.285L464.041 238.258H543.734L563.912 218.072H524.567V203.941H521.542Z" fill="#26003A"/>
<path d="M405.53 84.8436L406.415 84.6761L406.395 84.5707L406.352 84.4729L405.53 84.8436ZM412.592 122.188H413.493V122.103L413.477 122.02L412.592 122.188ZM412.592 177.699H411.691V178.601H412.592V177.699ZM521.542 177.699H522.444V176.797H521.542V177.699ZM521.542 181.736H520.641V182.638H521.542V181.736ZM525.577 181.736V182.638H526.478V181.736H525.577ZM525.577 177.699V176.797H524.676V177.699H525.577ZM596.191 177.699H597.092V176.797H596.191V177.699ZM596.191 218.072V218.974H597.092V218.072H596.191ZM576.016 218.072V217.17H573.84L575.378 218.709L576.016 218.072ZM596.191 238.258L595.552 238.895L595.817 239.16H596.191V238.258ZM606.279 238.258H607.181V237.356H606.279V238.258ZM606.279 287.713V288.615H607.181V287.713H606.279ZM586.103 287.713V286.811H585.202V287.713H586.103ZM586.103 314.963H585.202V315.865H586.103V314.963ZM606.279 314.963H607.181V314.061H606.279V314.963ZM606.279 358.364V359.266H607.181V358.364H606.279ZM576.016 358.364V357.462H575.115V358.364H576.016ZM576.016 360.383H575.115V361.284H576.016V360.383ZM660.754 360.383H661.655V359.481H660.754V360.383ZM660.754 405.8V406.702H661.655V405.8H660.754ZM645.622 405.8V404.898H644.721V405.8H645.622ZM645.622 436.079V436.981H646.524V436.079H645.622ZM633.516 436.079V435.177H632.614V436.079H633.516ZM633.516 439.107H632.614V440.009H633.516V439.107ZM658.734 439.107V440.009H659.636V439.107H658.734ZM658.734 426.997V426.095H657.833V426.997H658.734ZM695.052 426.997L695.712 426.382L695.445 426.095H695.052V426.997ZM708.166 441.126H709.067V440.771L708.828 440.511L708.166 441.126ZM708.166 463.329L708.828 463.944L709.067 463.684V463.329H708.166ZM695.052 477.46V478.362H695.445L695.712 478.073L695.052 477.46ZM658.734 477.46H657.833V478.362H658.734V477.46ZM658.734 464.339H659.636V463.437H658.734V464.339ZM655.711 464.339V463.437H654.81V464.339H655.711ZM655.711 554.168V555.07H656.612V554.168H655.711ZM581.059 554.168V553.266H580.837L580.641 553.369L581.059 554.168ZM561.894 564.259L561.474 563.461L560.993 563.716V564.259H561.894ZM561.894 649.041L562.54 649.67L562.796 649.407V649.041H561.894ZM493.296 719.69V720.592H493.677L493.942 720.319L493.296 719.69ZM489.26 719.69V718.788H488.358V719.69H489.26ZM489.26 721.708L489.941 722.302L490.161 722.046V721.708H489.26ZM469.084 744.923L468.404 744.332L468.182 744.586V744.923H469.084ZM462.023 791.351L462.73 791.91L462.788 791.836L462.829 791.754L462.023 791.351ZM446.89 810.527L446.183 809.968L445.989 810.214V810.527H446.89ZM446.89 813.554L447.57 814.149L447.791 813.893V813.554H446.89ZM439.828 821.63V822.532H440.237L440.508 822.223L439.828 821.63ZM401.497 821.63L400.691 822.034L400.94 822.532H401.497V821.63ZM397.46 813.554L396.586 813.774L396.611 813.87L396.654 813.958L397.46 813.554ZM396.453 809.517L395.775 808.924L395.463 809.279L395.578 809.736L396.453 809.517ZM403.514 801.445L404.192 802.039L404.829 801.312L404.061 800.727L403.514 801.445ZM382.329 785.294L381.561 785.768L381.649 785.911L381.782 786.012L382.329 785.294ZM374.257 772.175H373.356V772.431L373.491 772.648L374.257 772.175ZM374.257 738.868H375.159V738.495L374.895 738.231L374.257 738.868ZM367.197 731.802H366.296V732.176L366.561 732.441L367.197 731.802ZM367.197 729.784H368.099V729.227L367.601 728.978L367.197 729.784ZM361.145 726.755L360.453 727.333L360.573 727.479L360.741 727.564L361.145 726.755ZM346.011 708.589L345.168 708.907L345.222 709.049L345.319 709.167L346.011 708.589ZM342.986 700.514L343.83 700.198L343.772 700.043L343.662 699.919L342.986 700.514ZM327.855 683.356L327.049 683.758L327.101 683.865L327.179 683.953L327.855 683.356ZM325.837 679.319L326.643 678.917L326.49 678.61L326.173 678.482L325.837 679.319ZM320.793 677.301L319.987 677.705L320.14 678.011L320.457 678.139L320.793 677.301ZM308.688 653.078L307.803 653.242L307.825 653.366L307.882 653.48L308.688 653.078ZM298.601 598.576H297.7V598.659L297.714 598.74L298.601 598.576ZM298.601 589.492H299.502V588.841L298.886 588.635L298.601 589.492ZM295.574 588.482L295.859 587.627L295.796 587.605L295.731 587.594L295.574 588.482ZM278.425 585.455L278.582 584.567L278.504 584.553H278.425V585.455ZM265.311 585.455V584.553H265.208L265.107 584.577L265.311 585.455ZM252.195 588.482V589.384H252.297L252.398 589.36L252.195 588.482ZM245.135 588.482L244.635 589.232L244.862 589.384H245.135V588.482ZM242.109 586.463L242.609 585.713L242.382 585.561H242.109V586.463ZM239.082 586.463V585.561H238.87L238.679 585.657L239.082 586.463ZM233.028 589.492V590.394H233.241L233.432 590.298L233.028 589.492ZM227.986 589.492L227.582 590.298L227.773 590.394H227.986V589.492ZM225.966 588.482L226.37 587.675L226.179 587.58H225.966V588.482ZM202.765 588.482V587.58H202.592L202.432 587.645L202.765 588.482ZM197.721 590.5V591.402H197.895L198.056 591.337L197.721 590.5ZM121.055 590.5L120.417 591.139L120.681 591.402H121.055V590.5ZM67.588 537.009H66.6866V537.382L66.9505 537.647L67.588 537.009ZM67.588 498.654V497.753H66.6866V498.654H67.588ZM80.7029 498.654V499.556H81.6044V498.654H80.7029ZM80.7029 489.572H81.6044V488.67H80.7029V489.572ZM69.6056 489.572H68.7042V490.474H69.6056V489.572ZM69.6056 406.809H70.5071V405.907H69.6056V406.809ZM44.3863 406.809H43.4849V407.711H44.3863V406.809ZM44.3863 392.68H45.2878V391.778H44.3863V392.68ZM42.3687 392.68H41.4673V393.581H42.3687V392.68ZM42.3687 373.502V372.6H41.4673V373.502H42.3687ZM44.3863 373.502V374.403H45.2878V373.502H44.3863ZM44.3863 360.383V359.481H43.4849V360.383H44.3863ZM101.887 360.383H102.788V359.481H101.887V360.383ZM101.887 365.428H100.985V366.33H101.887V365.428ZM104.913 365.428V366.33H105.815V365.428H104.913ZM104.913 350.288V349.387H104.012V350.288H104.913ZM117.019 350.288V351.19H117.921V350.288H117.019ZM117.019 347.262H117.921V346.36H117.019V347.262ZM89.7806 347.262H88.8792V348.164H89.7806V347.262ZM89.7806 306.889H90.6821V305.987H89.7806V306.889ZM44.3863 306.889H43.4849V307.791H44.3863V306.889ZM44.3863 232.201V231.299H43.4849V232.201H44.3863ZM94.8249 232.201V233.103H95.7264V232.201H94.8249ZM94.8249 177.699V176.797H93.9235V177.699H94.8249ZM230.003 177.699H230.904V176.797H230.003V177.699ZM230.003 180.726H229.102V181.628H230.003V180.726ZM234.038 180.726V181.628H234.939V180.726H234.038ZM234.038 177.699V176.797H233.136V177.699H234.038ZM306.671 177.699V178.601H307.572V177.699H306.671ZM306.671 121.179L305.791 120.983L305.769 121.08V121.179H306.671ZM312.723 93.9279L311.881 93.605L311.856 93.6673L311.841 93.7322L312.723 93.9279ZM335.926 33.3703V32.4684H335.306L335.084 33.0474L335.926 33.3703ZM382.329 33.3703L383.151 32.9994L382.911 32.4684H382.329V33.3703ZM331.889 643.994L331.011 643.792L330.887 644.333L331.313 644.688L331.889 643.994ZM343.996 654.086H344.897V653.664L344.573 653.393L343.996 654.086ZM343.996 659.133H343.094V659.506L343.359 659.771L343.996 659.133ZM383.338 698.495H384.24V698.122L383.975 697.859L383.338 698.495ZM383.338 706.571H382.437V706.894L382.642 707.145L383.338 706.571ZM397.46 723.729H398.362V723.404L398.156 723.155L397.46 723.729ZM397.46 728.774H396.559V729.239L396.938 729.508L397.46 728.774ZM404.522 733.821L403.999 734.555L404.138 734.654L404.304 734.696L404.522 733.821ZM408.559 734.831L409.242 734.245L409.057 734.025L408.777 733.956L408.559 734.831ZM414.609 741.897L413.926 742.483L414.195 742.798H414.609V741.897ZM418.644 741.897V742.798H418.797L418.944 742.748L418.644 741.897ZM438.822 734.831L439.12 735.682L439.464 735.562L439.628 735.233L438.822 734.831ZM439.83 732.813L439.157 732.214L439.078 732.302L439.024 732.409L439.83 732.813ZM455.971 714.643L456.644 715.244L456.873 714.987V714.643H455.971ZM455.971 709.6L455.266 709.035L455.07 709.282V709.6H455.971ZM484.217 674.274L484.92 674.837L485.118 674.59V674.274H484.217ZM484.217 668.217V667.315H483.316V668.217H484.217ZM494.304 668.217V669.119H494.755L495.025 668.758L494.304 668.217ZM500.358 660.143L501.079 660.684L501.211 660.507L501.247 660.291L500.358 660.143ZM501.366 654.086L500.645 653.545L500.513 653.721L500.477 653.938L501.366 654.086ZM507.418 646.014L508.139 646.555L508.32 646.313V646.014H507.418ZM507.418 638.948H508.32V638.658L508.152 638.424L507.418 638.948ZM502.376 631.883L503.109 631.358L502.839 630.981H502.376V631.883ZM500.358 631.883L499.57 632.319L499.828 632.785H500.358V631.883ZM495.314 622.799L496.102 622.361L495.66 621.565L494.868 622.014L495.314 622.799ZM457.989 643.994V644.896H458.227L458.434 644.778L457.989 643.994ZM433.778 643.994V643.092H433.673L433.572 643.117L433.778 643.994ZM416.627 648.032V648.934H416.731L416.834 648.909L416.627 648.032ZM405.532 648.032L405.164 648.855L405.339 648.934H405.532V648.032ZM337.944 617.752L338.311 616.928L337.311 616.48L337.066 617.548L337.944 617.752ZM399.48 462.321V461.419H398.578V462.321H399.48ZM399.48 480.488V481.39H400.381V480.488H399.48ZM384.346 480.488V479.587H383.973L383.71 479.85L384.346 480.488ZM373.251 491.589L372.613 490.952L372.35 491.216V491.589H373.251ZM373.251 529.943V530.845H374.153V529.943H373.251ZM318.775 529.943V529.041H317.874V529.943H318.775ZM318.775 558.203H317.874V559.105H318.775V558.203ZM331.889 558.203V559.105H332.791V558.203H331.889ZM331.889 548.111V547.209H330.988V548.111H331.889ZM359.127 548.111H360.029V547.209H359.127V548.111ZM359.127 601.604H358.226V602.506H359.127V601.604ZM379.302 601.604L379.987 601.016L379.716 600.702H379.302V601.604ZM385.356 608.67L384.671 609.256L384.79 609.395L384.952 609.476L385.356 608.67ZM401.497 616.744L401.093 617.55L401.284 617.646H401.497V616.744ZM409.567 616.744L410.317 616.244L410.05 615.842H409.567V616.744ZM411.584 619.77H412.486V619.496L412.334 619.271L411.584 619.77ZM411.584 621.789H410.683V622.537L411.416 622.675L411.584 621.789ZM427.725 624.817L427.558 625.703L427.641 625.719H427.725V624.817ZM432.768 624.817V625.719H433.033L433.257 625.575L432.768 624.817ZM446.89 615.734V614.832H446.627L446.403 614.976L446.89 615.734ZM449.917 615.734V616.635H450.819V615.734H449.917ZM449.917 613.715V612.813H449.016V613.715H449.917ZM455.971 613.715V614.617H456.26L456.494 614.449L455.971 613.715ZM470.095 603.623V602.721H469.805L469.57 602.889L470.095 603.623ZM511.453 603.623V604.525H512.355V603.623H511.453ZM511.453 554.168H512.355V553.266H511.453V554.168ZM481.19 554.168H480.288V555.07H481.19V554.168ZM481.19 480.488H482.091V479.587H481.19V480.488ZM402.505 480.488H401.603V481.39H402.505V480.488ZM402.505 462.321H403.406V461.419H402.505V462.321ZM170.484 495.628V494.726H169.583V495.628H170.484ZM170.484 532.972H169.583V533.874H170.484V532.972ZM180.573 532.972H181.475V532.07H180.573V532.972ZM180.573 558.203H179.671V559.105H180.573V558.203ZM234.261 558.203V559.105H235.163V558.203H234.261ZM234.261 556.185V555.283H233.36V556.185H234.261ZM284.477 556.185H285.379V555.283H284.477V556.185ZM284.477 558.203H283.576V559.105H284.477V558.203ZM298.601 558.203V559.105H299.502V558.203H298.601ZM298.601 529.943H299.502V529.041H298.601V529.943ZM232.02 529.943H231.119V530.845H232.02V529.943ZM232.02 498.654V497.753H231.119V498.654H232.02ZM247.152 498.654V499.556H248.054V498.654H247.152ZM247.152 495.628H248.054V494.726H247.152V495.628ZM522.55 345.241V344.34H521.648V345.241H522.55ZM522.55 377.54V378.442H523.451V377.54H522.55ZM481.19 377.54V376.638H480.986L480.804 376.725L481.19 377.54ZM462.023 386.624L461.638 385.809L461.122 386.052V386.624H462.023ZM462.023 453.238H461.122V454.14H462.023V453.238ZM495.314 453.238V454.14H496.215V453.238H495.314ZM495.314 443.144V442.242H494.412V443.144H495.314ZM527.594 443.144H528.496V442.242H527.594V443.144ZM527.594 505.72V506.622H528.496V505.72H527.594ZM506.409 505.72V504.818H505.507V505.72H506.409ZM506.409 511.777H505.507V512.679H506.409V511.777ZM579.041 511.777V512.679H579.943V511.777H579.041ZM579.041 478.47V477.568H578.14V478.47H579.041ZM608.297 478.47V479.372H609.175L609.198 478.493L608.297 478.47ZM609.305 439.107V438.206H608.427L608.405 439.084L609.305 439.107ZM618.386 439.107V440.009H619.287V439.107H618.386ZM618.386 436.079H619.287V435.177H618.386V436.079ZM609.305 436.079H608.403V436.981H609.305V436.079ZM609.305 386.624H610.206V385.722H609.305V386.624ZM543.734 386.624H542.832V387.526H543.734V386.624ZM543.734 360.383V359.481H542.832V360.383H543.734ZM555.84 360.383V361.284H556.742V360.383H555.84ZM555.84 358.364H556.742V357.462H555.84V358.364ZM549.788 358.364H548.886V359.266H549.788V358.364ZM549.788 345.241H550.689V344.34H549.788V345.241ZM348.031 161.551V160.649H347.605L347.335 160.977L348.031 161.551ZM309.698 207.978V208.88H310.121L310.392 208.551L309.698 207.978ZM234.038 207.978H233.136V208.88H234.038V207.978ZM234.038 203.941H234.939V203.039H234.038V203.941ZM230.003 203.941V203.039H229.102V203.941H230.003ZM230.003 207.978V208.88H230.904V207.978H230.003ZM218.906 207.978V207.076H218.005V207.978H218.906ZM218.906 241.285H218.005V242.187H218.906V241.285ZM230.003 241.285H230.904V240.383H230.003V241.285ZM230.003 278.064V278.966H230.904V278.064H230.003ZM209.827 278.064V277.163H208.926V278.064H209.827ZM209.827 379.559H208.926V380.461H209.827V379.559ZM243.117 379.559V380.461H244.019V379.559H243.117ZM243.117 372.493L242.713 371.687L242.216 371.936V372.493H243.117ZM257.239 365.428V364.526H257.026L256.835 364.621L257.239 365.428ZM270.355 365.428L270.757 364.621L270.568 364.526H270.355V365.428ZM284.477 372.493H285.379V371.936L284.879 371.687L284.477 372.493ZM284.477 379.559H283.576V380.461H284.477V379.559ZM285.485 379.559V380.461H286.386V379.559H285.485ZM285.485 365.428V364.526H284.584V365.428H285.485ZM322.81 365.428L323.448 364.789L323.183 364.526H322.81V365.428ZM338.951 381.577H339.853V381.204L339.59 380.939L338.951 381.577ZM338.951 399.743L339.59 400.382L339.853 400.117V399.743H338.951ZM321.802 416.903V417.805H322.176L322.439 417.541L321.802 416.903ZM285.485 416.903H284.584V417.805H285.485V416.903ZM285.485 403.782H286.386V402.88H285.485V403.782ZM283.469 403.782V402.88H282.568V403.782H283.469ZM283.469 495.628V496.53H284.371V495.628H283.469ZM266.319 495.628V494.726H265.417V495.628H266.319ZM266.319 498.654H265.417V499.556H266.319V498.654ZM270.355 498.654H271.257V497.753H270.355V498.654ZM270.355 507.738H269.454V508.64H270.355V507.738ZM348.031 507.738V508.64H348.932V507.738H348.031ZM348.031 443.144V442.242H347.129V443.144H348.031ZM399.48 443.144H400.381V442.242H399.48V443.144ZM399.48 448.191H398.578V449.093H399.48V448.191ZM402.505 448.191V449.093H403.406V448.191H402.505ZM402.505 443.144V442.242H401.603V443.144H402.505ZM430.751 443.144V444.046H431.652V443.144H430.751ZM430.751 425.987H431.652V425.085H430.751V425.987ZM410.575 425.987H409.673V426.889H410.575V425.987ZM410.575 384.606V383.704H409.673V384.606H410.575ZM430.751 384.606V385.508H431.652V384.606H430.751ZM430.751 374.512H431.652V373.61H430.751V374.512ZM427.725 374.512H426.824V375.414H427.725V374.512ZM427.725 353.317V352.415H426.824V353.317H427.725ZM430.751 353.317V354.219H431.652V353.317H430.751ZM430.751 342.215H431.652V341.313H430.751V342.215ZM401.497 342.215H400.596V343.117H401.497V342.215ZM401.497 311.936V311.034H400.596V311.936H401.497ZM403.514 311.936V312.838H404.416V311.936H403.514ZM403.514 306.889H404.416V305.987H403.514V306.889ZM401.497 306.889H400.596V307.791H401.497V306.889ZM401.497 276.611V275.709H400.596V276.611H401.497ZM439.83 276.611H440.731V275.709H439.83V276.611ZM439.83 290.742H438.929V291.643H439.83V290.742ZM453.952 290.742V291.643H454.853V290.742H453.952ZM453.952 276.611V275.709H453.051V276.611H453.952ZM476.145 276.611V277.512H477.047V276.611H476.145ZM476.145 272.572H477.047V271.67H476.145V272.572ZM460.006 272.572H459.105V273.474H460.006V272.572ZM460.006 263.49H460.907V262.588H460.006V263.49ZM422.681 263.49H421.779V264.392H422.681V263.49ZM422.681 212.015V211.113H421.779V212.015H422.681ZM431.76 212.015V212.917H432.662V212.015H431.76ZM431.76 207.978H432.662V207.076H431.76V207.978ZM413.602 207.978L412.898 208.542L413.169 208.88H413.602V207.978ZM376.276 161.551L376.98 160.986L376.709 160.649H376.276V161.551ZM161.405 326.067V325.165H160.941L160.671 325.542L161.405 326.067ZM146.274 347.262V348.164H146.738L147.008 347.785L146.274 347.262ZM140.221 347.262V346.36H139.32V347.262H140.221ZM140.221 350.288H139.32V351.19H140.221V350.288ZM155.354 350.288H156.255V349.387H155.354V350.288ZM155.354 390.661L155.96 391.328L156.255 391.06V390.661H155.354ZM144.256 400.753V401.655H144.605L144.863 401.421L144.256 400.753ZM116.011 400.753L115.404 401.421L115.662 401.655H116.011V400.753ZM104.913 390.661H104.012V391.06L104.307 391.328L104.913 390.661ZM104.913 385.614H105.815V384.712H104.913V385.614ZM101.887 385.614V384.712H100.985V385.614H101.887ZM101.887 473.423H100.985V474.325H101.887V473.423ZM208.819 473.423V474.325H209.721V473.423H208.819ZM208.819 449.2V448.298H207.918V449.2H208.819ZM233.028 449.2V450.102H233.93V449.2H233.028ZM233.028 403.782V402.88H232.127V403.782H233.028ZM243.117 403.782V404.684H244.019V403.782H243.117ZM243.117 401.762H244.019V400.86H243.117V401.762ZM209.827 401.762V400.86H208.926V401.762H209.827ZM209.827 431.032V431.934H210.728V431.032H209.827ZM169.476 431.032H168.574V431.934H169.476V431.032ZM169.476 388.643V387.741H168.574V388.643H169.476ZM179.06 388.643V389.545H179.962V388.643H179.06ZM179.06 370.475H179.962V369.573H179.06V370.475ZM169.476 370.475H168.574V371.377H169.476V370.475ZM169.476 326.067H170.377V325.165H169.476V326.067ZM467.068 288.721V287.819H466.166V288.721H467.068ZM467.068 307.897V308.799H467.969V307.897H467.068ZM418.644 307.897V306.996H417.743V307.897H418.644ZM418.644 310.926H417.743V311.828H418.644V310.926ZM476.145 310.926V311.828H477.047V310.926H476.145ZM476.145 288.721H477.047V287.819H476.145V288.721ZM116.011 207.978V207.076H115.109V207.978H116.011ZM116.011 261.471V262.373H116.912V261.471H116.011ZM76.6675 261.471V260.569H75.7661V261.471H76.6675ZM76.6675 281.656H75.7661V282.558H76.6675V281.656ZM121.055 281.656V282.558H121.956V281.656H121.055ZM121.055 212.015V211.113H120.153V212.015H121.055ZM199.74 212.015V212.917H200.641V212.015H199.74ZM199.74 207.978H200.641V207.076H199.74V207.978ZM521.542 203.941V203.039H520.641V203.941H521.542ZM521.542 207.978V208.88H522.444V207.978H521.542ZM447.9 207.978V207.076H446.998V207.978H447.9ZM447.9 246.33H446.998V247.232H447.9V246.33ZM460.006 246.33V247.232H460.907V246.33H460.006ZM460.006 241.285L459.465 240.563L459.105 240.834V241.285H460.006ZM464.041 238.258V237.356H463.742L463.5 237.537L464.041 238.258ZM543.734 238.258V239.16H544.107L544.372 238.895L543.734 238.258ZM563.912 218.072L564.548 218.709L566.088 217.17H563.912V218.072ZM524.567 218.072H523.666V218.974H524.567V218.072ZM524.567 203.941H525.469V203.039H524.567V203.941ZM405.53 84.8436L404.645 85.0114L411.707 122.356L412.592 122.188L413.477 122.02L406.415 84.6761L405.53 84.8436ZM412.592 122.188H411.691V177.699H412.592H413.493V122.188H412.592ZM412.592 177.699V178.601H521.542V177.699V176.797H412.592V177.699ZM521.542 177.699H520.641V181.736H521.542H522.444V177.699H521.542ZM521.542 181.736V182.638H525.577V181.736V180.834H521.542V181.736ZM525.577 181.736H526.478V177.699H525.577H524.676V181.736H525.577ZM525.577 177.699V178.601H596.191V177.699V176.797H525.577V177.699ZM596.191 177.699H595.289V218.072H596.191H597.092V177.699H596.191ZM596.191 218.072V217.17H576.016V218.072V218.974H596.191V218.072ZM576.016 218.072L575.378 218.709L595.552 238.895L596.191 238.258L596.829 237.62L576.653 217.433L576.016 218.072ZM596.191 238.258V239.16H606.279V238.258V237.356H596.191V238.258ZM606.279 238.258H605.378V287.713H606.279H607.181V238.258H606.279ZM606.279 287.713V286.811H586.103V287.713V288.615H606.279V287.713ZM586.103 287.713H585.202V314.963H586.103H587.005V287.713H586.103ZM586.103 314.963V315.865H606.279V314.963V314.061H586.103V314.963ZM606.279 314.963H605.378V358.364H606.279H607.181V314.963H606.279ZM606.279 358.364V357.462H576.016V358.364V359.266H606.279V358.364ZM576.016 358.364H575.115V360.383H576.016H576.918V358.364H576.016ZM576.016 360.383V361.284H660.754V360.383V359.481H576.016V360.383ZM660.754 360.383H659.852V405.8H660.754H661.655V360.383H660.754ZM660.754 405.8V404.898H645.622V405.8V406.702H660.754V405.8ZM645.622 405.8H644.721V436.079H645.622H646.524V405.8H645.622ZM645.622 436.079V435.177H633.516V436.079V436.981H645.622V436.079ZM633.516 436.079H632.614V439.107H633.516H634.417V436.079H633.516ZM633.516 439.107V440.009H658.734V439.107V438.206H633.516V439.107ZM658.734 439.107H659.636V426.997H658.734H657.833V439.107H658.734ZM658.734 426.997V427.899H695.052V426.997V426.095H658.734V426.997ZM695.052 426.997L694.392 427.61L707.506 441.739L708.166 441.126L708.828 440.511L695.712 426.382L695.052 426.997ZM708.166 441.126H707.264V463.329H708.166H709.067V441.126H708.166ZM708.166 463.329L707.506 462.716L694.392 476.847L695.052 477.46L695.712 478.073L708.828 463.944L708.166 463.329ZM695.052 477.46V476.558H658.734V477.46V478.362H695.052V477.46ZM658.734 477.46H659.636V464.339H658.734H657.833V477.46H658.734ZM658.734 464.339V463.437H655.711V464.339V465.241H658.734V464.339ZM655.711 464.339H654.81V554.168H655.711H656.612V464.339H655.711ZM655.711 554.168V553.266H581.059V554.168V555.07H655.711V554.168ZM581.059 554.168L580.641 553.369L561.474 563.461L561.894 564.259L562.313 565.058L581.479 554.965L581.059 554.168ZM561.894 564.259H560.993V649.041H561.894H562.796V564.259H561.894ZM561.894 649.041L561.247 648.413L492.649 719.062L493.296 719.69L493.942 720.319L562.54 649.67L561.894 649.041ZM493.296 719.69V718.788H489.26V719.69V720.592H493.296V719.69ZM489.26 719.69H488.358V721.708H489.26H490.161V719.69H489.26ZM489.26 721.708L488.58 721.117L468.404 744.332L469.084 744.923L469.763 745.515L489.941 722.302L489.26 721.708ZM469.084 744.923H468.182V775.204H469.084H469.985V744.923H469.084ZM469.084 775.204L468.182 775.202C468.182 775.202 468.182 775.218 468.177 775.256C468.171 775.294 468.162 775.344 468.15 775.407C468.121 775.537 468.078 775.701 468.014 775.902C467.89 776.304 467.706 776.816 467.472 777.417C467.001 778.618 466.347 780.128 465.615 781.746C464.151 784.978 462.391 788.6 461.218 790.947L462.023 791.351L462.829 791.754C464.01 789.392 465.779 785.75 467.257 782.489C467.995 780.862 468.663 779.318 469.15 778.075C469.394 777.455 469.596 776.897 469.738 776.434C469.87 776.005 469.985 775.557 469.985 775.204H469.084ZM462.023 791.351L461.317 790.792L446.183 809.968L446.89 810.527L447.599 811.087L462.73 791.91L462.023 791.351ZM446.89 810.527H445.989V813.554H446.89H447.791V810.527H446.89ZM446.89 813.554L446.212 812.961L439.15 821.036L439.828 821.63L440.508 822.223L447.57 814.149L446.89 813.554ZM439.828 821.63V820.728H401.497V821.63V822.532H439.828V821.63ZM401.497 821.63L402.303 821.226L398.268 813.152L397.46 813.554L396.654 813.958L400.691 822.034L401.497 821.63ZM397.46 813.554L398.337 813.336L397.327 809.299L396.453 809.517L395.578 809.736L396.586 813.774L397.46 813.554ZM396.453 809.517L397.13 810.111L404.192 802.039L403.514 801.445L402.837 800.85L395.775 808.924L396.453 809.517ZM403.514 801.445L404.061 800.727L382.875 784.578L382.329 785.294L381.782 786.012L402.968 802.161L403.514 801.445ZM382.329 785.294L383.097 784.821L375.025 771.702L374.257 772.175L373.491 772.648L381.561 785.768L382.329 785.294ZM374.257 772.175H375.159V738.868H374.257H373.356V772.175H374.257ZM374.257 738.868L374.895 738.231L367.835 731.166L367.197 731.802L366.561 732.441L373.621 739.506L374.257 738.868ZM367.197 731.802H368.099V729.784H367.197H366.296V731.802H367.197ZM367.197 729.784L367.601 728.978L361.549 725.949L361.145 726.755L360.741 727.564L366.795 730.59L367.197 729.784ZM361.145 726.755L361.837 726.178L356.793 720.123L356.1 720.7L355.408 721.277L360.453 727.333L361.145 726.755ZM356.1 720.7L356.793 720.123L346.704 708.012L346.011 708.589L345.319 709.167L355.408 721.277L356.1 720.7ZM346.011 708.589L346.857 708.272L343.83 700.198L342.986 700.514L342.142 700.831L345.168 708.907L346.011 708.589ZM342.986 700.514L343.662 699.919L328.531 682.759L327.855 683.356L327.179 683.953L342.31 701.111L342.986 700.514ZM327.855 683.356L328.66 682.952L326.643 678.917L325.837 679.319L325.031 679.723L327.049 683.758L327.855 683.356ZM325.837 679.319L326.173 678.482L321.128 676.464L320.793 677.301L320.457 678.139L325.502 680.158L325.837 679.319ZM320.793 677.301L321.599 676.898L309.494 652.673L308.688 653.078L307.882 653.48L319.987 677.705L320.793 677.301ZM308.688 653.078L309.575 652.913L299.486 598.412L298.601 598.576L297.714 598.74L307.803 653.242L308.688 653.078ZM298.601 598.576H299.502V589.492H298.601H297.7V598.576H298.601ZM298.601 589.492L298.886 588.635L295.859 587.627L295.574 588.482L295.289 589.337L298.314 590.347L298.601 589.492ZM295.574 588.482L295.731 587.594L278.582 584.567L278.425 585.455L278.268 586.344L295.417 589.369L295.574 588.482ZM278.425 585.455V584.553H265.311V585.455V586.357H278.425V585.455ZM265.311 585.455L265.107 584.577L251.993 587.603L252.195 588.482L252.398 589.36L265.513 586.335L265.311 585.455ZM252.195 588.482V587.58H245.135V588.482V589.384H252.195V588.482ZM245.135 588.482L245.636 587.731L242.609 585.713L242.109 586.463L241.608 587.214L244.635 589.232L245.135 588.482ZM242.109 586.463V585.561H239.082V586.463V587.365H242.109V586.463ZM239.082 586.463L238.679 585.657L232.626 588.684L233.028 589.492L233.432 590.298L239.484 587.27L239.082 586.463ZM233.028 589.492V588.59H227.986V589.492V590.394H233.028V589.492ZM227.986 589.492L228.388 588.684L226.37 587.675L225.966 588.482L225.564 589.288L227.582 590.298L227.986 589.492ZM225.966 588.482V587.58H202.765V588.482V589.384H225.966V588.482ZM202.765 588.482L202.432 587.645L197.387 589.663L197.721 590.5L198.056 591.337L203.1 589.319L202.765 588.482ZM197.721 590.5V589.598H121.055V590.5V591.402H197.721V590.5ZM121.055 590.5L121.692 589.863L68.2253 536.37L67.588 537.009L66.9505 537.647L120.417 591.139L121.055 590.5ZM67.588 537.009H68.4895V498.654H67.588H66.6866V537.009H67.588ZM67.588 498.654V499.556H80.7029V498.654V497.753H67.588V498.654ZM80.7029 498.654H81.6044V489.572H80.7029H79.8015V498.654H80.7029ZM80.7029 489.572V488.67H69.6056V489.572V490.474H80.7029V489.572ZM69.6056 489.572H70.5071V406.809H69.6056H68.7042V489.572H69.6056ZM69.6056 406.809V405.907H44.3863V406.809V407.711H69.6056V406.809ZM44.3863 406.809H45.2878V392.68H44.3863H43.4849V406.809H44.3863ZM44.3863 392.68V391.778H42.3687V392.68V393.581H44.3863V392.68ZM42.3687 392.68H43.2702V373.502H42.3687H41.4673V392.68H42.3687ZM42.3687 373.502V374.403H44.3863V373.502V372.6H42.3687V373.502ZM44.3863 373.502H45.2878V360.383H44.3863H43.4849V373.502H44.3863ZM44.3863 360.383V361.284H101.887V360.383V359.481H44.3863V360.383ZM101.887 360.383H100.985V365.428H101.887H102.788V360.383H101.887ZM101.887 365.428V366.33H104.913V365.428V364.526H101.887V365.428ZM104.913 365.428H105.815V350.288H104.913H104.012V365.428H104.913ZM104.913 350.288V351.19H117.019V350.288V349.387H104.913V350.288ZM117.019 350.288H117.921V347.262H117.019H116.118V350.288H117.019ZM117.019 347.262V346.36H89.7806V347.262V348.164H117.019V347.262ZM89.7806 347.262H90.6821V306.889H89.7806H88.8792V347.262H89.7806ZM89.7806 306.889V305.987H44.3863V306.889V307.791H89.7806V306.889ZM44.3863 306.889H45.2878V232.201H44.3863H43.4849V306.889H44.3863ZM44.3863 232.201V233.103H94.8249V232.201V231.299H44.3863V232.201ZM94.8249 232.201H95.7264V177.699H94.8249H93.9235V232.201H94.8249ZM94.8249 177.699V178.601H230.003V177.699V176.797H94.8249V177.699ZM230.003 177.699H229.102V180.726H230.003H230.904V177.699H230.003ZM230.003 180.726V181.628H234.038V180.726V179.825H230.003V180.726ZM234.038 180.726H234.939V177.699H234.038H233.136V180.726H234.038ZM234.038 177.699V178.601H306.671V177.699V176.797H234.038V177.699ZM306.671 177.699H307.572V121.179H306.671H305.769V177.699H306.671ZM306.671 121.179L307.551 121.374L313.603 94.1234L312.723 93.9279L311.841 93.7322L305.791 120.983L306.671 121.179ZM312.723 93.9279L313.563 94.2506L336.768 33.6932L335.926 33.3703L335.084 33.0474L311.881 93.605L312.723 93.9279ZM335.926 33.3703V34.2722H382.329V33.3703V32.4684H335.926V33.3703ZM382.329 33.3703L381.507 33.7411L404.708 85.2145L405.53 84.8436L406.352 84.4729L383.151 32.9994L382.329 33.3703ZM331.889 643.994L331.313 644.688L343.419 654.779L343.996 654.086L344.573 653.393L332.466 643.301L331.889 643.994ZM343.996 654.086H343.094V659.133H343.996H344.897V654.086H343.996ZM343.996 659.133L343.359 659.771L382.7 699.134L383.338 698.495L383.975 697.859L344.634 658.496L343.996 659.133ZM383.338 698.495H382.437V706.571H383.338H384.24V698.495H383.338ZM383.338 706.571L382.642 707.145L396.766 724.3L397.46 723.729L398.156 723.155L384.032 705.997L383.338 706.571ZM397.46 723.729H396.559V728.774H397.46H398.362V723.729H397.46ZM397.46 728.774L396.938 729.508L403.999 734.555L404.522 733.821L405.047 733.087L397.985 728.042L397.46 728.774ZM404.522 733.821L404.304 734.696L408.341 735.706L408.559 734.831L408.777 733.956L404.742 732.946L404.522 733.821ZM408.559 734.831L407.874 735.417L413.926 742.483L414.609 741.897L415.295 741.31L409.242 734.245L408.559 734.831ZM414.609 741.897V742.798H418.644V741.897V740.995H414.609V741.897ZM418.644 741.897L418.944 742.748L439.12 735.682L438.822 734.831L438.525 733.98L418.347 741.045L418.644 741.897ZM438.822 734.831L439.628 735.233L440.638 733.215L439.83 732.813L439.024 732.409L438.016 734.427L438.822 734.831ZM439.83 732.813L440.504 733.411L456.644 715.244L455.971 714.643L455.297 714.044L439.157 732.214L439.83 732.813ZM455.971 714.643H456.873V709.6H455.971H455.07V714.643H455.971ZM455.971 709.6L456.674 710.162L484.92 674.837L484.217 674.274L483.512 673.709L455.266 709.035L455.971 709.6ZM484.217 674.274H485.118V668.217H484.217H483.316V674.274H484.217ZM484.217 668.217V669.119H494.304V668.217V667.315H484.217V668.217ZM494.304 668.217L495.025 668.758L501.079 660.684L500.358 660.143L499.637 659.602L493.583 667.676L494.304 668.217ZM500.358 660.143L501.247 660.291L502.257 654.234L501.366 654.086L500.477 653.938L499.469 659.993L500.358 660.143ZM501.366 654.086L502.087 654.627L508.139 646.555L507.418 646.014L506.697 645.473L500.645 653.545L501.366 654.086ZM507.418 646.014H508.32V638.948H507.418H506.517V646.014H507.418ZM507.418 638.948L508.152 638.424L503.109 631.358L502.376 631.883L501.642 632.406L506.685 639.472L507.418 638.948ZM502.376 631.883V630.981H500.358V631.883V632.785H502.376V631.883ZM500.358 631.883L501.146 631.445L496.102 622.361L495.314 622.799L494.526 623.236L499.57 632.319L500.358 631.883ZM495.314 622.799L494.868 622.014L457.543 643.211L457.989 643.994L458.434 644.778L495.759 623.582L495.314 622.799ZM457.989 643.994V643.092H433.778V643.994V644.896H457.989V643.994ZM433.778 643.994L433.572 643.117L416.421 647.154L416.627 648.032L416.834 648.909L433.985 644.872L433.778 643.994ZM416.627 648.032V647.13H405.532V648.032V648.934H416.627V648.032ZM405.532 648.032L405.9 647.208L338.311 616.928L337.944 617.752L337.574 618.574L405.164 648.855L405.532 648.032ZM337.944 617.752L337.066 617.548L331.011 643.792L331.889 643.994L332.769 644.197L338.822 617.954L337.944 617.752ZM399.48 462.321H398.578V480.488H399.48H400.381V462.321H399.48ZM399.48 480.488V479.587H384.346V480.488V481.39H399.48V480.488ZM384.346 480.488L383.71 479.85L372.613 490.952L373.251 491.589L373.888 492.228L384.984 481.127L384.346 480.488ZM373.251 491.589H372.35V529.943H373.251H374.153V491.589H373.251ZM373.251 529.943V529.041H318.775V529.943V530.845H373.251V529.943ZM318.775 529.943H317.874V558.203H318.775H319.677V529.943H318.775ZM318.775 558.203V559.105H331.889V558.203V557.301H318.775V558.203ZM331.889 558.203H332.791V548.111H331.889H330.988V558.203H331.889ZM331.889 548.111V549.013H359.127V548.111V547.209H331.889V548.111ZM359.127 548.111H358.226V601.604H359.127H360.029V548.111H359.127ZM359.127 601.604V602.506H379.302V601.604V600.702H359.127V601.604ZM379.302 601.604L378.618 602.191L384.671 609.256L385.356 608.67L386.039 608.082L379.987 601.016L379.302 601.604ZM385.356 608.67L384.952 609.476L401.093 617.55L401.497 616.744L401.899 615.937L385.758 607.862L385.356 608.67ZM401.497 616.744V617.646H409.567V616.744V615.842H401.497V616.744ZM409.567 616.744L408.817 617.243L410.832 620.27L411.584 619.77L412.334 619.271L410.317 616.244L409.567 616.744ZM411.584 619.77H410.683V621.789H411.584H412.486V619.77H411.584ZM411.584 621.789L411.416 622.675L427.558 625.703L427.725 624.817L427.891 623.93L411.75 620.903L411.584 621.789ZM427.725 624.817V625.719H432.768V624.817V623.916H427.725V624.817ZM432.768 624.817L433.257 625.575L447.379 616.493L446.89 615.734L446.403 614.976L432.281 624.058L432.768 624.817ZM446.89 615.734V616.635H449.917V615.734V614.832H446.89V615.734ZM449.917 615.734H450.819V613.715H449.917H449.016V615.734H449.917ZM449.917 613.715V614.617H455.971V613.715V612.813H449.917V613.715ZM455.971 613.715L456.494 614.449L470.618 604.357L470.095 603.623L469.57 602.889L455.447 612.981L455.971 613.715ZM470.095 603.623V604.525H511.453V603.623V602.721H470.095V603.623ZM511.453 603.623H512.355V554.168H511.453H510.552V603.623H511.453ZM511.453 554.168V553.266H481.19V554.168V555.07H511.453V554.168ZM481.19 554.168H482.091V480.488H481.19H480.288V554.168H481.19ZM481.19 480.488V479.587H402.505V480.488V481.39H481.19V480.488ZM402.505 480.488H403.406V462.321H402.505H401.603V480.488H402.505ZM402.505 462.321V461.419H399.48V462.321V463.222H402.505V462.321ZM170.484 495.628H169.583V532.972H170.484H171.386V495.628H170.484ZM170.484 532.972V533.874H180.573V532.972V532.07H170.484V532.972ZM180.573 532.972H179.671V558.203H180.573H181.475V532.972H180.573ZM180.573 558.203V559.105H234.261V558.203V557.301H180.573V558.203ZM234.261 558.203H235.163V556.185H234.261H233.36V558.203H234.261ZM234.261 556.185V557.087H284.477V556.185V555.283H234.261V556.185ZM284.477 556.185H283.576V558.203H284.477H285.379V556.185H284.477ZM284.477 558.203V559.105H298.601V558.203V557.301H284.477V558.203ZM298.601 558.203H299.502V529.943H298.601H297.7V558.203H298.601ZM298.601 529.943V529.041H232.02V529.943V530.845H298.601V529.943ZM232.02 529.943H232.922V498.654H232.02H231.119V529.943H232.02ZM232.02 498.654V499.556H247.152V498.654V497.753H232.02V498.654ZM247.152 498.654H248.054V495.628H247.152H246.251V498.654H247.152ZM247.152 495.628V494.726H170.484V495.628V496.53H247.152V495.628ZM522.55 345.241H521.648V377.54H522.55H523.451V345.241H522.55ZM522.55 377.54V376.638H481.19V377.54V378.442H522.55V377.54ZM481.19 377.54L480.804 376.725L461.638 385.809L462.023 386.624L462.409 387.439L481.576 378.356L481.19 377.54ZM462.023 386.624H461.122V453.238H462.023H462.925V386.624H462.023ZM462.023 453.238V454.14H495.314V453.238V452.337H462.023V453.238ZM495.314 453.238H496.215V443.144H495.314H494.412V453.238H495.314ZM495.314 443.144V444.046H527.594V443.144V442.242H495.314V443.144ZM527.594 443.144H526.693V505.72H527.594H528.496V443.144H527.594ZM527.594 505.72V504.818H506.409V505.72V506.622H527.594V505.72ZM506.409 505.72H505.507V511.777H506.409H507.31V505.72H506.409ZM506.409 511.777V512.679H579.041V511.777V510.875H506.409V511.777ZM579.041 511.777H579.943V478.47H579.041H578.14V511.777H579.041ZM579.041 478.47V479.372H608.297V478.47V477.568H579.041V478.47ZM608.297 478.47L609.198 478.493L610.206 439.129L609.305 439.107L608.405 439.084L607.395 478.446L608.297 478.47ZM609.305 439.107V440.009H618.386V439.107V438.206H609.305V439.107ZM618.386 439.107H619.287V436.079H618.386H617.484V439.107H618.386ZM618.386 436.079V435.177H609.305V436.079V436.981H618.386V436.079ZM609.305 436.079H610.206V386.624H609.305H608.403V436.079H609.305ZM609.305 386.624V385.722H543.734V386.624V387.526H609.305V386.624ZM543.734 386.624H544.635V360.383H543.734H542.832V386.624H543.734ZM543.734 360.383V361.284H555.84V360.383V359.481H543.734V360.383ZM555.84 360.383H556.742V358.364H555.84H554.939V360.383H555.84ZM555.84 358.364V357.462H549.788V358.364V359.266H555.84V358.364ZM549.788 358.364H550.689V345.241H549.788H548.886V358.364H549.788ZM549.788 345.241V344.34H522.55V345.241V346.143H549.788V345.241ZM348.031 161.551L347.335 160.977L309.002 207.402L309.698 207.978L310.392 208.551L348.725 162.125L348.031 161.551ZM309.698 207.978V207.076H234.038V207.978V208.88H309.698V207.978ZM234.038 207.978H234.939V203.941H234.038H233.136V207.978H234.038ZM234.038 203.941V203.039H230.003V203.941V204.843H234.038V203.941ZM230.003 203.941H229.102V207.978H230.003H230.904V203.941H230.003ZM230.003 207.978V207.076H218.906V207.978V208.88H230.003V207.978ZM218.906 207.978H218.005V241.285H218.906H219.808V207.978H218.906ZM218.906 241.285V242.187H230.003V241.285V240.383H218.906V241.285ZM230.003 241.285H229.102V278.064H230.003H230.904V241.285H230.003ZM230.003 278.064V277.163H209.827V278.064V278.966H230.003V278.064ZM209.827 278.064H208.926V379.559H209.827H210.728V278.064H209.827ZM209.827 379.559V380.461H243.117V379.559V378.657H209.827V379.559ZM243.117 379.559H244.019V372.493H243.117H242.216V379.559H243.117ZM243.117 372.493L243.521 373.3L257.643 366.234L257.239 365.428L256.835 364.621L242.713 371.687L243.117 372.493ZM257.239 365.428V366.33H270.355V365.428V364.526H257.239V365.428ZM270.355 365.428L269.951 366.234L284.073 373.3L284.477 372.493L284.879 371.687L270.757 364.621L270.355 365.428ZM284.477 372.493H283.576V379.559H284.477H285.379V372.493H284.477ZM284.477 379.559V380.461H285.485V379.559V378.657H284.477V379.559ZM285.485 379.559H286.386V365.428H285.485H284.584V379.559H285.485ZM285.485 365.428V366.33H322.81V365.428V364.526H285.485V365.428ZM322.81 365.428L322.174 366.064L338.315 382.216L338.951 381.577L339.59 380.939L323.448 364.789L322.81 365.428ZM338.951 381.577H338.05V399.743H338.951H339.853V381.577H338.951ZM338.951 399.743L338.315 399.106L321.164 416.264L321.802 416.903L322.439 417.541L339.59 400.382L338.951 399.743ZM321.802 416.903V416.001H285.485V416.903V417.805H321.802V416.903ZM285.485 416.903H286.386V403.782H285.485H284.584V416.903H285.485ZM285.485 403.782V402.88H283.469V403.782V404.684H285.485V403.782ZM283.469 403.782H282.568V495.628H283.469H284.371V403.782H283.469ZM283.469 495.628V494.726H266.319V495.628V496.53H283.469V495.628ZM266.319 495.628H265.417V498.654H266.319H267.22V495.628H266.319ZM266.319 498.654V499.556H270.355V498.654V497.753H266.319V498.654ZM270.355 498.654H269.454V507.738H270.355H271.257V498.654H270.355ZM270.355 507.738V508.64H348.031V507.738V506.836H270.355V507.738ZM348.031 507.738H348.932V443.144H348.031H347.129V507.738H348.031ZM348.031 443.144V444.046H399.48V443.144V442.242H348.031V443.144ZM399.48 443.144H398.578V448.191H399.48H400.381V443.144H399.48ZM399.48 448.191V449.093H402.505V448.191V447.289H399.48V448.191ZM402.505 448.191H403.406V443.144H402.505H401.603V448.191H402.505ZM402.505 443.144V444.046H430.751V443.144V442.242H402.505V443.144ZM430.751 443.144H431.652V425.987H430.751H429.849V443.144H430.751ZM430.751 425.987V425.085H410.575V425.987V426.889H430.751V425.987ZM410.575 425.987H411.476V384.606H410.575H409.673V425.987H410.575ZM410.575 384.606V385.508H430.751V384.606V383.704H410.575V384.606ZM430.751 384.606H431.652V374.512H430.751H429.849V384.606H430.751ZM430.751 374.512V373.61H427.725V374.512V375.414H430.751V374.512ZM427.725 374.512H428.627V353.317H427.725H426.824V374.512H427.725ZM427.725 353.317V354.219H430.751V353.317V352.415H427.725V353.317ZM430.751 353.317H431.652V342.215H430.751H429.849V353.317H430.751ZM430.751 342.215V341.313H401.497V342.215V343.117H430.751V342.215ZM401.497 342.215H402.398V311.936H401.497H400.596V342.215H401.497ZM401.497 311.936V312.838H403.514V311.936V311.034H401.497V311.936ZM403.514 311.936H404.416V306.889H403.514H402.613V311.936H403.514ZM403.514 306.889V305.987H401.497V306.889V307.791H403.514V306.889ZM401.497 306.889H402.398V276.611H401.497H400.596V306.889H401.497ZM401.497 276.611V277.512H439.83V276.611V275.709H401.497V276.611ZM439.83 276.611H438.929V290.742H439.83H440.731V276.611H439.83ZM439.83 290.742V291.643H453.952V290.742V289.84H439.83V290.742ZM453.952 290.742H454.853V276.611H453.952H453.051V290.742H453.952ZM453.952 276.611V277.512H476.145V276.611V275.709H453.952V276.611ZM476.145 276.611H477.047V272.572H476.145H475.244V276.611H476.145ZM476.145 272.572V271.67H460.006V272.572V273.474H476.145V272.572ZM460.006 272.572H460.907V263.49H460.006H459.105V272.572H460.006ZM460.006 263.49V262.588H422.681V263.49V264.392H460.006V263.49ZM422.681 263.49H423.582V212.015H422.681H421.779V263.49H422.681ZM422.681 212.015V212.917H431.76V212.015V211.113H422.681V212.015ZM431.76 212.015H432.662V207.978H431.76H430.859V212.015H431.76ZM431.76 207.978V207.076H413.602V207.978V208.88H431.76V207.978ZM413.602 207.978L414.303 207.411L376.98 160.986L376.276 161.551L375.575 162.116L412.898 208.542L413.602 207.978ZM376.276 161.551V160.649H348.031V161.551V162.453H376.276V161.551ZM161.405 326.067L160.671 325.542L145.54 346.737L146.274 347.262L147.008 347.785L162.138 326.59L161.405 326.067ZM146.274 347.262V346.36H140.221V347.262V348.164H146.274V347.262ZM140.221 347.262H139.32V350.288H140.221H141.122V347.262H140.221ZM140.221 350.288V351.19H155.354V350.288V349.387H140.221V350.288ZM155.354 350.288H154.452V390.661H155.354H156.255V350.288H155.354ZM155.354 390.661L154.747 389.994L143.65 400.086L144.256 400.753L144.863 401.421L155.96 391.328L155.354 390.661ZM144.256 400.753V399.851H116.011V400.753V401.655H144.256V400.753ZM116.011 400.753L116.617 400.086L105.52 389.994L104.913 390.661L104.307 391.328L115.404 401.421L116.011 400.753ZM104.913 390.661H105.815V385.614H104.913H104.012V390.661H104.913ZM104.913 385.614V384.712H101.887V385.614V386.516H104.913V385.614ZM101.887 385.614H100.985V473.423H101.887H102.788V385.614H101.887ZM101.887 473.423V474.325H208.819V473.423V472.521H101.887V473.423ZM208.819 473.423H209.721V449.2H208.819H207.918V473.423H208.819ZM208.819 449.2V450.102H233.028V449.2V448.298H208.819V449.2ZM233.028 449.2H233.93V403.782H233.028H232.127V449.2H233.028ZM233.028 403.782V404.684H243.117V403.782V402.88H233.028V403.782ZM243.117 403.782H244.019V401.762H243.117H242.216V403.782H243.117ZM243.117 401.762V400.86H209.827V401.762V402.664H243.117V401.762ZM209.827 401.762H208.926V431.032H209.827H210.728V401.762H209.827ZM209.827 431.032V430.13H169.476V431.032V431.934H209.827V431.032ZM169.476 431.032H170.377V388.643H169.476H168.574V431.032H169.476ZM169.476 388.643V389.545H179.06V388.643V387.741H169.476V388.643ZM179.06 388.643H179.962V370.475H179.06H178.159V388.643H179.06ZM179.06 370.475V369.573H169.476V370.475V371.377H179.06V370.475ZM169.476 370.475H170.377V326.067H169.476H168.574V370.475H169.476ZM169.476 326.067V325.165H161.405V326.067V326.969H169.476V326.067ZM467.068 288.721H466.166V307.897H467.068H467.969V288.721H467.068ZM467.068 307.897V306.996H418.644V307.897V308.799H467.068V307.897ZM418.644 307.897H417.743V310.926H418.644H419.546V307.897H418.644ZM418.644 310.926V311.828H476.145V310.926V310.024H418.644V310.926ZM476.145 310.926H477.047V288.721H476.145H475.244V310.926H476.145ZM476.145 288.721V287.819H467.068V288.721V289.623H476.145V288.721ZM116.011 207.978H115.109V261.471H116.011H116.912V207.978H116.011ZM116.011 261.471V260.569H76.6675V261.471V262.373H116.011V261.471ZM76.6675 261.471H75.7661V281.656H76.6675H77.569V261.471H76.6675ZM76.6675 281.656V282.558H121.055V281.656V280.754H76.6675V281.656ZM121.055 281.656H121.956V212.015H121.055H120.153V281.656H121.055ZM121.055 212.015V212.917H199.74V212.015V211.113H121.055V212.015ZM199.74 212.015H200.641V207.978H199.74H198.838V212.015H199.74ZM199.74 207.978V207.076H116.011V207.978V208.88H199.74V207.978ZM521.542 203.941H520.641V207.978H521.542H522.444V203.941H521.542ZM521.542 207.978V207.076H447.9V207.978V208.88H521.542V207.978ZM447.9 207.978H446.998V246.33H447.9H448.801V207.978H447.9ZM447.9 246.33V247.232H460.006V246.33V245.428H447.9V246.33ZM460.006 246.33H460.907V241.285H460.006H459.105V246.33H460.006ZM460.006 241.285L460.547 242.007L464.582 238.98L464.041 238.258L463.5 237.537L459.465 240.563L460.006 241.285ZM464.041 238.258V239.16H543.734V238.258V237.356H464.041V238.258ZM543.734 238.258L544.372 238.895L564.548 218.709L563.912 218.072L563.273 217.433L543.097 237.62L543.734 238.258ZM563.912 218.072V217.17H524.567V218.072V218.974H563.912V218.072ZM524.567 218.072H525.469V203.941H524.567H523.666V218.072H524.567ZM524.567 203.941V203.039H521.542V203.941V204.843H524.567V203.941Z" fill="#674A81"/>
<path d="M361.145 530.502C363.125 530.502 364.729 528.897 364.729 526.916C364.729 524.936 363.125 523.33 361.145 523.33C359.165 523.33 357.561 524.936 357.561 526.916C357.561 528.897 359.165 530.502 361.145 530.502Z" stroke="#674A81" stroke-width="0.5"/>
<path d="M604.262 270.104C605.685 270.104 606.838 268.95 606.838 267.527C606.838 266.103 605.685 264.95 604.262 264.95C602.84 264.95 601.687 266.103 601.687 267.527C601.687 268.95 602.84 270.104 604.262 270.104Z" stroke="#674A81" stroke-width="0.5"/>
<path d="M179.563 251.377H144.256V269.545H190.66V251.377H189.651M179.563 251.377V241.285H189.651V251.377M179.563 251.377H189.651M121.054 272.574H130.133V281.658H121.054M89.7812 306.889H99.8691V326.065H89.7812M195.703 558.203V567.287H204.782V558.203M364.17 529.943V519.851H373.249M561.892 573.342H550.795V583.436H561.892M590.138 478.47V489.572H579.041M596.19 358.364V349.28M596.19 349.28H606.279M596.19 349.28H586.103V358.364M476.145 294.778H506.408V307.899H476.145M451.934 310.926V326.065H461.014V310.926M522.55 345.243H512.462V352.307H522.55M463.031 385.614H451.934V404.79H462.023" stroke="#674A81"/>
<path d="M599.218 314.963V333.131H606.28" stroke="#674A81" stroke-width="0.5"/>
<path d="M451.936 326.065V331.112H461.015V326.065M544.251 238.256H596.192M451.936 404.79V410.847H462.023M495.313 453.237H520.532M520.532 453.237H527.594M520.532 453.237V459.292H527.594M579.043 494.618H585.095V489.572M655.711 508.748H643.604M643.604 508.748H614.349M643.604 508.748V515.814H655.711M555.84 583.436V588.482H561.892M131.142 400.753L155.353 376.53M169.476 417.911H181.581V431.032M169.476 420.94H179.564V431.032M209.827 353.317H198.73V365.428H209.827M209.827 363.409H200.747V355.335H209.827M155.353 269.545V278.629H179.564V269.545M402.505 474.433H437.812V480.488M179.564 326.065H200.747V316.981H209.827M200.747 328.084H179.564M115.001 527.925V542.056L123.072 549.119H137.195L145.265 542.056V527.925L137.195 519.851H123.072L115.001 527.925ZM121.054 529.943V525.906H127.107L130.133 522.878L133.16 525.906H139.212V529.943L142.239 533.98L139.212 538.019V543.064H133.16L130.133 546.092L127.107 543.064H121.054V538.019L118.028 533.98L121.054 529.943Z" stroke="#674A81" stroke-width="0.5"/>
<path d="M550.796 296.797V316.981H540.708V296.797M550.796 296.797H560.885V286.703H540.708V296.797M550.796 296.797H540.708" stroke="#674A81"/>
<path d="M505.913 505.72V479.478" stroke="#674A81" stroke-width="0.5"/>
<path d="M169.476 326.065H179.563V328.084H169.476M209.827 326.065H200.748V328.084H209.827M44.3862 262.48H50.4391M76.6674 262.48H70.6146M284.477 410.847H274.39V418.921H283.467" stroke="#674A81"/>
<path d="M353.075 453.796C356.169 453.796 358.677 451.287 358.677 448.191C358.677 445.096 356.169 442.587 353.075 442.587C349.981 442.587 347.473 445.096 347.473 448.191C347.473 451.287 349.981 453.796 353.075 453.796Z" stroke="#674A81" stroke-width="0.5"/>
<path d="M484.217 554.726C486.196 554.726 487.801 553.12 487.801 551.14C487.801 549.159 486.196 547.553 484.217 547.553C482.237 547.553 480.632 549.159 480.632 551.14C480.632 553.12 482.237 554.726 484.217 554.726Z" stroke="#674A81" stroke-width="0.5"/>
<path d="M145.265 253.397H189.651M189.651 267.527H145.265" stroke="#4C395C"/>
<path d="M40.3509 392.679H32.2807L29.2543 388.137L26.228 383.596L29.2543 379.054L32.2807 374.512H40.3509L34.2983 383.596L40.3509 392.679Z" fill="white"/>
<path d="M726.325 461.312H718.255L715.228 456.77L712.203 452.228L715.228 447.686L718.255 443.144H726.325L723.635 447.181L720.272 452.228L723.635 457.273L726.325 461.312Z" fill="white"/>
<path d="M355.093 399.745H347.021L343.996 395.203L340.969 390.661L343.996 386.119L347.021 381.577H355.093L349.038 390.661L355.093 399.745Z" fill="white"/>
<path d="M425.708 372.493H417.636L414.611 367.951L411.584 363.409L414.611 358.867L417.636 354.325H425.708L419.654 363.409L425.708 372.493Z" fill="white"/>
<path d="M417.112 367.951L414.085 363.409L417.112 358.867H374.652L374.259 385.614H351.056H348.519V395.127H383.596V367.951H417.112Z" fill="white" fill-opacity="0.48"/>
<path d="M203.775 282.666H135.177V228.164H203.775V282.666ZM178.663 250.477H143.355V270.447H154.903V279.082H180.015V270.447H191.562V250.477H190.554V240.383H178.663V250.477Z" fill="#4F276A"/>
<path d="M569.964 337.168H492.287V256.424H569.964V337.168ZM539.807 285.801V317.883H551.697V297.699H561.786V285.801H539.807ZM492.395 293.877V308.799H507.312V293.877H492.395Z" fill="#4F276A"/>
<path d="M150.723 245.987V231.557H156.244C157.287 231.557 158.153 231.721 158.843 232.05C159.538 232.374 160.057 232.818 160.4 233.383C160.747 233.945 160.921 234.584 160.921 235.298C160.921 235.886 160.808 236.388 160.583 236.806C160.357 237.219 160.055 237.555 159.674 237.814C159.294 238.072 158.869 238.258 158.399 238.37V238.511C158.911 238.54 159.402 238.697 159.871 238.983C160.346 239.265 160.733 239.665 161.033 240.181C161.334 240.699 161.484 241.323 161.484 242.055C161.484 242.802 161.303 243.475 160.942 244.07C160.58 244.663 160.036 245.131 159.308 245.473C158.58 245.816 157.665 245.987 156.561 245.987H150.723ZM153.336 243.803H156.146C157.094 243.803 157.777 243.623 158.195 243.26C158.618 242.894 158.829 242.425 158.829 241.851C158.829 241.424 158.723 241.038 158.512 240.695C158.301 240.349 158 240.076 157.611 239.878C157.221 239.676 156.756 239.575 156.216 239.575H153.336V243.803ZM153.336 237.694H155.921C156.371 237.694 156.777 237.612 157.139 237.448C157.5 237.279 157.784 237.041 157.991 236.736C158.202 236.426 158.308 236.059 158.308 235.637C158.308 235.078 158.111 234.618 157.716 234.256C157.327 233.895 156.747 233.713 155.977 233.713H153.336V237.694Z" fill="white"/>
<path d="M517.754 284.34H514.965L520.044 269.909H523.269L528.354 284.34H525.564L521.712 272.869H521.6L517.754 284.34ZM517.846 278.683H525.453V280.783H517.846V278.683Z" fill="white"/>
</svg>
