<svg width="750" height="855" viewBox="0 0 750 855" fill="none" xmlns="http://www.w3.org/2000/svg">
<path d="M721.28 466.862L724.307 471.404L721.28 475.946H748.518V164.579H0V406.809V407.819H22.1932L25.5559 402.772L22.1932 397.727H9.07908V173.662H739.439V466.862H721.28Z" fill="white" fill-opacity="0.48"/>
<path d="M342.988 770.157L335.926 732.813V677.301H226.976V673.264H222.941V677.301H152.327V636.928H172.502L152.327 616.742H142.239V567.287H162.414V540.037H142.239V496.636H172.502V494.618H87.765V449.2H102.896V418.921H115.002V415.893H89.7826V428.003H53.4662L40.3511 413.874V391.671L53.4662 377.54H89.7826V390.661H92.8074V300.832H167.458L186.624 290.741V205.959L255.222 135.31H259.257V133.291L279.435 110.077V79.7969C279.436 78.1793 284.14 68.3583 286.495 63.649L301.626 44.4732V41.4451L308.688 33.3702H347.021L351.056 41.4451L352.066 45.4824L345.004 53.5555L366.189 69.7052L374.259 82.825V116.132L381.319 123.197V125.216L387.373 128.244L392.418 134.3L402.505 146.411L405.532 154.485L420.664 171.644L422.681 175.68L427.726 177.699L439.828 201.922L449.917 256.424V265.508L452.944 266.518L470.093 269.545H483.208L496.322 266.518H503.382L506.409 268.537H509.436L515.488 265.508H520.533L522.55 266.518H545.751L550.796 264.5H627.464L680.93 317.991V356.346H667.816V365.428H678.912V448.191H704.131V462.32H706.149V481.498H704.131V494.618H646.632V489.572H643.605V504.712H631.498V507.738H658.736V548.111H704.131V622.799H653.694V677.301H518.515V674.274H514.48V677.301H441.848V733.821L435.795 761.073L412.592 821.63H366.189L342.988 770.157ZM416.627 211.006L404.522 200.914V195.867L365.18 156.504V148.429L351.056 131.272V126.225L343.994 121.179L339.959 120.169L333.909 113.104H329.872L309.696 120.169L308.686 122.188L292.547 140.356V145.401L264.301 180.726V186.783H254.212L248.16 194.857L247.15 200.914L241.1 208.986V216.052L246.143 223.117H248.16L253.204 232.201L290.53 211.006H314.741L331.89 206.968H342.986L410.575 237.248L416.627 211.006ZM349.039 392.679V374.512H364.172L375.267 363.411V325.057H429.743V296.797H416.627V306.889H389.391V253.396H369.217L363.162 246.33L347.021 238.256H338.95L336.934 235.23V233.211L320.793 230.183H315.748L301.626 239.266H298.601V241.285H292.547L278.423 251.377H237.065V300.832H267.328V374.512H346.012V392.679H349.039ZM578.034 359.372V322.028H567.945V296.797H514.257V298.815H464.041V296.797H449.917V325.057H516.498V356.346H501.364V359.372H578.034ZM225.967 509.759V477.46H267.328L286.495 468.376V401.762H253.204V411.856H220.924V349.28H242.11V343.223H169.476V376.53H140.221L139.212 415.893H130.133V418.921H139.212V468.376H204.783V494.618H192.678V496.636H198.73V509.759H225.967ZM400.488 693.448L438.82 647.022H514.48V651.059H518.515V647.022H529.61V613.715H518.515V576.936H538.689V475.441H505.401V482.507L491.279 489.572H478.163L464.041 482.507V475.441H463.033V489.572H425.706L409.565 473.423V455.257L426.716 438.097H463.033V451.218H465.049V359.372H482.198V356.346H478.163V347.262H400.488V411.856H349.039V406.809H346.012V411.856H317.766V429.013H337.944V470.394H317.766V480.488H320.793V501.683H317.766V512.785H347.021V543.064H345.004V548.111H347.021V578.389H308.686V564.258H294.564V578.389H272.373V582.428H288.512V591.51H325.837V642.985H316.758V647.022H334.917L372.24 693.448H400.488ZM587.113 528.933L602.243 507.738H608.297V504.712H593.164V464.339L604.262 454.247H632.508L643.605 464.339V469.386H646.632V381.577H539.699V405.8H515.488V451.218H505.401V453.238H538.689V423.968H579.042V466.357H569.458V484.525H579.042V528.933H587.113ZM281.45 566.279V547.103H329.872V544.074H272.373V566.279H281.45ZM632.508 647.022V593.529H671.851V573.344H627.464V642.985H548.778V647.022H632.508ZM226.976 651.059V647.022H300.619V608.67H288.512V613.715L284.477 616.742H204.783L184.607 636.928H223.949V651.059H226.976Z" fill="#26003A"/>
<path d="M342.988 770.157L342.101 770.324L342.121 770.429L342.166 770.526L342.988 770.157ZM335.926 732.813H335.024V732.897L335.039 732.98L335.926 732.813ZM335.926 677.301H336.827V676.399H335.926V677.301ZM226.976 677.301H226.074V678.203H226.976V677.301ZM226.976 673.264H227.877V672.362H226.976V673.264ZM222.941 673.264V672.362H222.039V673.264H222.941ZM222.941 677.301V678.203H223.842V677.301H222.941ZM152.327 677.301H151.425V678.203H152.327V677.301ZM152.327 636.928V636.026H151.425V636.928H152.327ZM172.502 636.928V637.83H174.678L173.139 636.291L172.502 636.928ZM152.327 616.742L152.964 616.105L152.7 615.84H152.327V616.742ZM142.238 616.742H141.337V617.644H142.238V616.742ZM142.238 567.287V566.385H141.337V567.287H142.238ZM162.413 567.287V568.189H163.315V567.287H162.413ZM162.413 540.037H163.315V539.135H162.413V540.037ZM142.238 540.037H141.337V540.939H142.238V540.037ZM142.238 496.636V495.734H141.337V496.636H142.238ZM172.502 496.636V497.538H173.403V496.636H172.502ZM172.502 494.618H173.403V493.716H172.502V494.618ZM87.7645 494.618H86.8631V495.519H87.7645V494.618ZM87.7645 449.2V448.298H86.8631V449.2H87.7645ZM102.895 449.2V450.102H103.797V449.2H102.895ZM102.895 418.921V418.019H101.994V418.921H102.895ZM115.001 418.921V419.823H115.903V418.921H115.001ZM115.001 415.893H115.903V414.991H115.001V415.893ZM89.7822 415.893V414.991H88.8807V415.893H89.7822ZM89.7822 428.003V428.905H90.6836V428.003H89.7822ZM53.4657 428.003L52.8052 428.618L53.0725 428.905H53.4657V428.003ZM40.3507 413.874H39.4492V414.23L39.6903 414.489L40.3507 413.874ZM40.3507 391.671L39.6903 391.056L39.4492 391.316V391.671H40.3507ZM53.4657 377.54V376.638H53.0725L52.8052 376.927L53.4657 377.54ZM89.7822 377.54H90.6836V376.638H89.7822V377.54ZM89.7822 390.661H88.8807V391.563H89.7822V390.661ZM92.807 390.661V391.563H93.7085V390.661H92.807ZM92.807 300.832V299.93H91.9056V300.832H92.807ZM167.458 300.832V301.734H167.68L167.877 301.631L167.458 300.832ZM186.624 290.742L187.044 291.539L187.525 291.284V290.742H186.624ZM186.624 205.959L185.978 205.33L185.722 205.593V205.959H186.624ZM255.222 135.31V134.408H254.841L254.574 134.681L255.222 135.31ZM259.256 135.31V136.211H260.158V135.31H259.256ZM259.256 133.291L258.577 132.699L258.355 132.953V133.291H259.256ZM279.434 110.077L280.114 110.669L280.336 110.415V110.077H279.434ZM286.494 63.649L285.786 63.0902L285.728 63.1629L285.687 63.2457L286.494 63.649ZM301.626 44.4732L302.335 45.032L302.527 44.7863V44.4732H301.626ZM301.626 41.4452L300.948 40.8512L300.725 41.1062V41.4452H301.626ZM308.688 33.3703V32.4684H308.279L308.01 32.7763L308.688 33.3703ZM347.021 33.3703L347.827 32.967L347.578 32.4684H347.021V33.3703ZM351.056 41.4452L351.93 41.2264L351.907 41.1302L351.862 41.0418L351.056 41.4452ZM352.065 45.4824L352.743 46.0764L353.053 45.7214L352.94 45.2638L352.065 45.4824ZM345.003 53.5555L344.325 52.9615L343.689 53.6879L344.457 54.2729L345.003 53.5555ZM366.189 69.7053L366.957 69.2325L366.869 69.0894L366.735 68.9877L366.189 69.7053ZM374.259 82.825H375.16V82.5698L375.027 82.3522L374.259 82.825ZM374.259 116.132H373.357V116.505L373.622 116.77L374.259 116.132ZM381.319 123.197H382.22V122.824L381.957 122.56L381.319 123.197ZM381.319 125.216H380.417V125.773L380.917 126.023L381.319 125.216ZM387.373 128.244L388.065 127.667L387.944 127.522L387.775 127.437L387.373 128.244ZM402.505 146.411L403.35 146.094L403.296 145.951L403.197 145.833L402.505 146.411ZM405.532 154.485L404.688 154.802L404.746 154.958L404.856 155.082L405.532 154.485ZM420.663 171.644L421.469 171.241L421.417 171.136L421.339 171.048L420.663 171.644ZM422.681 175.68L421.875 176.083L422.028 176.39L422.345 176.517L422.681 175.68ZM427.725 177.699L428.531 177.295L428.378 176.989L428.059 176.861L427.725 177.699ZM439.828 201.923L440.715 201.758L440.691 201.634L440.636 201.52L439.828 201.923ZM449.917 256.424H450.818V256.341L450.804 256.26L449.917 256.424ZM449.917 265.508H449.015V266.159L449.632 266.365L449.917 265.508ZM452.944 266.518L452.659 267.373L452.722 267.395L452.787 267.406L452.944 266.518ZM470.093 269.545L469.936 270.433L470.014 270.447H470.093V269.545ZM483.207 269.545V270.447H483.31L483.409 270.424L483.207 269.545ZM496.321 266.518V265.616H496.22L496.119 265.64L496.321 266.518ZM503.381 266.518L503.883 265.768L503.655 265.616H503.381V266.518ZM506.408 268.537L505.909 269.287L506.136 269.439H506.408V268.537ZM509.435 268.537V269.439H509.648L509.839 269.343L509.435 268.537ZM515.488 265.508V264.606H515.275L515.086 264.702L515.488 265.508ZM520.532 265.508L520.936 264.702L520.745 264.606H520.532V265.508ZM522.55 266.518L522.148 267.325L522.337 267.42H522.55V266.518ZM545.751 266.518V267.42H545.926L546.086 267.355L545.751 266.518ZM550.795 264.5V263.598H550.622L550.462 263.663L550.795 264.5ZM627.463 264.5L628.1 263.861L627.836 263.598H627.463V264.5ZM680.929 317.991H681.831V317.618L681.568 317.353L680.929 317.991ZM680.929 356.346V357.248H681.831V356.346H680.929ZM667.815 356.346V355.444H666.914V356.346H667.815ZM667.815 365.428H666.914V366.33H667.815V365.428ZM678.912 365.428H679.814V364.526H678.912V365.428ZM678.912 448.191H678.011V449.093H678.912V448.191ZM704.131 448.191H705.032V447.289H704.131V448.191ZM704.131 462.321H703.229V463.222H704.131V462.321ZM706.148 462.321H707.05V461.419H706.148V462.321ZM706.148 481.499V482.4H707.05V481.499H706.148ZM704.131 481.499V480.597H703.229V481.499H704.131ZM704.131 494.618V495.519H705.032V494.618H704.131ZM646.631 494.618H645.73V495.519H646.631V494.618ZM646.631 489.572H647.533V488.67H646.631V489.572ZM643.604 489.572V488.67H642.703V489.572H643.604ZM643.604 504.712V505.613H644.506V504.712H643.604ZM631.498 504.712V503.81H630.597V504.712H631.498ZM631.498 507.738H630.597V508.64H631.498V507.738ZM658.736 507.738H659.637V506.836H658.736V507.738ZM658.736 548.111H657.835V549.013H658.736V548.111ZM704.131 548.111H705.032V547.209H704.131V548.111ZM704.131 622.799V623.701H705.032V622.799H704.131ZM653.693 622.799V621.897H652.792V622.799H653.693ZM653.693 677.301V678.203H654.595V677.301H653.693ZM518.515 677.301H517.613V678.203H518.515V677.301ZM518.515 674.274H519.416V673.372H518.515V674.274ZM514.48 674.274V673.372H513.579V674.274H514.48ZM514.48 677.301V678.203H515.381V677.301H514.48ZM441.847 677.301V676.399H440.946V677.301H441.847ZM441.847 733.821L442.727 734.018L442.749 733.92V733.821H441.847ZM435.795 761.073L436.637 761.396L436.66 761.332L436.675 761.268L435.795 761.073ZM412.592 821.63V822.532H413.212L413.434 821.953L412.592 821.63ZM366.189 821.63L365.367 822.001L365.607 822.532H366.189V821.63ZM416.627 211.006L417.506 211.208L417.631 210.667L417.203 210.312L416.627 211.006ZM404.522 200.914H403.621V201.336L403.943 201.607L404.522 200.914ZM404.522 195.867H405.423V195.494L405.158 195.229L404.522 195.867ZM365.179 156.504H364.278V156.878L364.543 157.142L365.179 156.504ZM365.179 148.429H366.081V148.106L365.875 147.856L365.179 148.429ZM351.056 131.272H350.154V131.596L350.36 131.846L351.056 131.272ZM351.056 126.225H351.957V125.761L351.58 125.491L351.056 126.225ZM343.994 121.179L344.518 120.445L344.38 120.345L344.214 120.304L343.994 121.179ZM339.959 120.169L339.274 120.756L339.461 120.974L339.741 121.044L339.959 120.169ZM333.908 113.104L334.592 112.517L334.323 112.202H333.908V113.104ZM329.872 113.104V112.202H329.719L329.574 112.253L329.872 113.104ZM309.696 120.169L309.398 119.318L309.052 119.439L308.89 119.766L309.696 120.169ZM308.686 122.188L309.36 122.787L309.44 122.698L309.492 122.591L308.686 122.188ZM292.547 140.356L291.872 139.757L291.645 140.013V140.356H292.547ZM292.547 145.401L293.252 145.965L293.448 145.718V145.401H292.547ZM264.301 180.726L263.598 180.163L263.399 180.41V180.726H264.301ZM264.301 186.783V187.685H265.202V186.783H264.301ZM254.212 186.783V185.881H253.761L253.491 186.242L254.212 186.783ZM248.16 194.857L247.438 194.316L247.307 194.493L247.271 194.709L248.16 194.857ZM247.15 200.914L247.871 201.455L248.005 201.279L248.041 201.062L247.15 200.914ZM241.1 208.986L240.378 208.445L240.198 208.687V208.986H241.1ZM241.1 216.052H240.198V216.342L240.366 216.577L241.1 216.052ZM246.142 223.117L245.408 223.642L245.679 224.019H246.142V223.117ZM248.16 223.117L248.947 222.681L248.69 222.215H248.16V223.117ZM253.204 232.201L252.416 232.639L252.858 233.435L253.649 232.986L253.204 232.201ZM290.529 211.006V210.105H290.291L290.084 210.222L290.529 211.006ZM314.74 211.006V211.908H314.845L314.946 211.883L314.74 211.006ZM331.889 206.968V206.066H331.785L331.684 206.091L331.889 206.968ZM342.986 206.968L343.354 206.145L343.179 206.066H342.986V206.968ZM410.574 237.248L410.207 238.072L411.205 238.52L411.452 237.452L410.574 237.248ZM349.038 392.68V393.581H349.94V392.68H349.038ZM349.038 374.512V373.61H348.137V374.512H349.038ZM364.172 374.512V375.414H364.545L364.808 375.15L364.172 374.512ZM375.267 363.411L375.903 364.048L376.168 363.784V363.411H375.267ZM375.267 325.057V324.155H374.365V325.057H375.267ZM429.743 325.057V325.959H430.644V325.057H429.743ZM429.743 296.797H430.644V295.895H429.743V296.797ZM416.627 296.797V295.895H415.725V296.797H416.627ZM416.627 306.889V307.791H417.528V306.889H416.627ZM389.39 306.889H388.489V307.791H389.39V306.889ZM389.39 253.396H390.292V252.494H389.39V253.396ZM369.216 253.396L368.531 253.984L368.801 254.298H369.216V253.396ZM363.162 246.33L363.847 245.744L363.728 245.605L363.566 245.524L363.162 246.33ZM347.021 238.256L347.425 237.45L347.234 237.355H347.021V238.256ZM338.949 238.256L338.199 238.756L338.468 239.158H338.949V238.256ZM336.934 235.23H336.032V235.504L336.184 235.729L336.934 235.23ZM336.934 233.211H337.835V232.463L337.1 232.326L336.934 233.211ZM320.792 230.183L320.958 229.297L320.877 229.281H320.792V230.183ZM315.748 230.183V229.281H315.483L315.261 229.425L315.748 230.183ZM301.626 239.267V240.168H301.891L302.115 240.024L301.626 239.267ZM298.601 239.267V238.365H297.699V239.267H298.601ZM298.601 241.285V242.187H299.502V241.285H298.601ZM292.547 241.285V240.383H292.258L292.022 240.551L292.547 241.285ZM278.423 251.377V252.279H278.711L278.947 252.111L278.423 251.377ZM237.065 251.377V250.475H236.163V251.377H237.065ZM237.065 300.832H236.163V301.734H237.065V300.832ZM267.328 300.832H268.229V299.93H267.328V300.832ZM267.328 374.512H266.426V375.414H267.328V374.512ZM346.011 374.512H346.913V373.61H346.011V374.512ZM346.011 392.68H345.11V393.581H346.011V392.68ZM578.033 359.372V360.274H578.935V359.372H578.033ZM578.033 322.028H578.935V321.126H578.033V322.028ZM567.944 322.028H567.043V322.93H567.944V322.028ZM567.944 296.797H568.846V295.895H567.944V296.797ZM514.256 296.797V295.895H513.355V296.797H514.256ZM514.256 298.815V299.717H515.158V298.815H514.256ZM464.041 298.815H463.139V299.717H464.041V298.815ZM464.041 296.797H464.942V295.895H464.041V296.797ZM449.917 296.797V295.895H449.015V296.797H449.917ZM449.917 325.057H449.015V325.959H449.917V325.057ZM516.497 325.057H517.399V324.155H516.497V325.057ZM516.497 356.346V357.248H517.399V356.346H516.497ZM501.364 356.346V355.444H500.463V356.346H501.364ZM501.364 359.372H500.463V360.274H501.364V359.372ZM225.966 509.759V510.661H226.868V509.759H225.966ZM225.966 477.46V476.558H225.065V477.46H225.966ZM267.328 477.46V478.362H267.53L267.714 478.275L267.328 477.46ZM286.494 468.376L286.88 469.191L287.396 468.948V468.376H286.494ZM286.494 401.762H287.396V400.86H286.494V401.762ZM253.204 401.762V400.86H252.303V401.762H253.204ZM253.204 411.856V412.758H254.106V411.856H253.204ZM220.923 411.856H220.022V412.758H220.923V411.856ZM220.923 349.28V348.378H220.022V349.28H220.923ZM242.109 349.28V350.182H243.011V349.28H242.109ZM242.109 343.223H243.011V342.321H242.109V343.223ZM169.475 343.223V342.321H168.574V343.223H169.475ZM169.475 376.53V377.432H170.377V376.53H169.475ZM140.221 376.53V375.628H139.342L139.319 376.507L140.221 376.53ZM139.212 415.893V416.794H140.09L140.113 415.916L139.212 415.893ZM130.132 415.893V414.991H129.231V415.893H130.132ZM130.132 418.921H129.231V419.823H130.132V418.921ZM139.212 418.921H140.113V418.019H139.212V418.921ZM139.212 468.376H138.31V469.278H139.212V468.376ZM204.782 468.376H205.684V467.474H204.782V468.376ZM204.782 494.618V495.519H205.684V494.618H204.782ZM192.678 494.618V493.716H191.776V494.618H192.678ZM192.678 496.636H191.776V497.538H192.678V496.636ZM198.73 496.636H199.631V495.734H198.73V496.636ZM198.73 509.759H197.828V510.661H198.73V509.759ZM400.487 693.448V694.35H400.913L401.183 694.024L400.487 693.448ZM438.82 647.022V646.12H438.395L438.124 646.449L438.82 647.022ZM514.48 647.022H515.381V646.12H514.48V647.022ZM514.48 651.059H513.579V651.961H514.48V651.059ZM518.515 651.059V651.961H519.416V651.059H518.515ZM518.515 647.022V646.12H517.613V647.022H518.515ZM529.61 647.022V647.924H530.511V647.022H529.61ZM529.61 613.715H530.511V612.813H529.61V613.715ZM518.515 613.715H517.613V614.617H518.515V613.715ZM518.515 576.936V576.034H517.613V576.936H518.515ZM538.689 576.936V577.838H539.591V576.936H538.689ZM538.689 475.441H539.591V474.539H538.689V475.441ZM505.401 475.441V474.539H504.499V475.441H505.401ZM505.401 482.507L505.803 483.313L506.302 483.064V482.507H505.401ZM491.279 489.572V490.474H491.491L491.681 490.379L491.279 489.572ZM478.163 489.572L477.761 490.379L477.95 490.474H478.163V489.572ZM464.041 482.507H463.139V483.064L463.639 483.313L464.041 482.507ZM464.041 475.441H464.942V474.539H464.041V475.441ZM463.033 475.441V474.539H462.131V475.441H463.033ZM463.033 489.572V490.474H463.934V489.572H463.033ZM425.706 489.572L425.069 490.211L425.333 490.474H425.706V489.572ZM409.565 473.423H408.663V473.796L408.928 474.061L409.565 473.423ZM409.565 455.257L408.928 454.618L408.663 454.883V455.257H409.565ZM426.716 438.097V437.195H426.342L426.079 437.459L426.716 438.097ZM463.033 438.097H463.934V437.195H463.033V438.097ZM463.033 451.218H462.131V452.12H463.033V451.218ZM465.048 451.218V452.12H465.95V451.218H465.048ZM465.048 359.372V358.471H464.147V359.372H465.048ZM482.198 359.372V360.274H483.099V359.372H482.198ZM482.198 356.346H483.099V355.444H482.198V356.346ZM478.163 356.346H477.261V357.248H478.163V356.346ZM478.163 347.262H479.064V346.36H478.163V347.262ZM400.487 347.262V346.36H399.586V347.262H400.487ZM400.487 411.856V412.758H401.389V411.856H400.487ZM349.038 411.856H348.137V412.758H349.038V411.856ZM349.038 406.809H349.94V405.907H349.038V406.809ZM346.011 406.809V405.907H345.11V406.809H346.011ZM346.011 411.856V412.758H346.913V411.856H346.011ZM317.765 411.856V410.954H316.864V411.856H317.765ZM317.765 429.013H316.864V429.915H317.765V429.013ZM337.943 429.013H338.845V428.112H337.943V429.013ZM337.943 470.394V471.296H338.845V470.394H337.943ZM317.765 470.394V469.492H316.864V470.394H317.765ZM317.765 480.488H316.864V481.39H317.765V480.488ZM320.792 480.488H321.694V479.587H320.792V480.488ZM320.792 501.683V502.585H321.694V501.683H320.792ZM317.765 501.683V500.781H316.864V501.683H317.765ZM317.765 512.785H316.864V513.687H317.765V512.785ZM347.021 512.785H347.922V511.883H347.021V512.785ZM347.021 543.064V543.966H347.922V543.064H347.021ZM345.003 543.064V542.162H344.102V543.064H345.003ZM345.003 548.111H344.102V549.013H345.003V548.111ZM347.021 548.111H347.922V547.209H347.021V548.111ZM347.021 578.389V579.291H347.922V578.389H347.021ZM308.686 578.389H307.785V579.291H308.686V578.389ZM308.686 564.259H309.588V563.357H308.686V564.259ZM294.564 564.259V563.357H293.663V564.259H294.564ZM294.564 578.389V579.291H295.466V578.389H294.564ZM272.372 578.389V577.488H271.471V578.389H272.372ZM272.372 582.428H271.471V583.33H272.372V582.428ZM288.512 582.428H289.413V581.526H288.512V582.428ZM288.512 591.51H287.61V592.412H288.512V591.51ZM325.837 591.51H326.738V590.608H325.837V591.51ZM325.837 642.985V643.887H326.738V642.985H325.837ZM316.758 642.985V642.083H315.856V642.985H316.758ZM316.758 647.022H315.856V647.924H316.758V647.022ZM334.916 647.022L335.619 646.458L335.349 646.12H334.916V647.022ZM372.24 693.448L371.538 694.015L371.809 694.35H372.24V693.448ZM587.113 528.933V529.835H587.576L587.847 529.458L587.113 528.933ZM602.243 507.738V506.836H601.779L601.511 507.215L602.243 507.738ZM608.297 507.738V508.64H609.198V507.738H608.297ZM608.297 504.712H609.198V503.81H608.297V504.712ZM593.163 504.712H592.262V505.613H593.163V504.712ZM593.163 464.339L592.557 463.672L592.262 463.94V464.339H593.163ZM604.262 454.247V453.345H603.912L603.654 453.579L604.262 454.247ZM632.508 454.247L633.113 453.579L632.856 453.345H632.508V454.247ZM643.604 464.339H644.506V463.94L644.21 463.672L643.604 464.339ZM643.604 469.386H642.703V470.288H643.604V469.386ZM646.631 469.386V470.288H647.533V469.386H646.631ZM646.631 381.577H647.533V380.675H646.631V381.577ZM539.699 381.577V380.675H538.797V381.577H539.699ZM539.699 405.8V406.702H540.6V405.8H539.699ZM515.488 405.8V404.898H514.586V405.8H515.488ZM515.488 451.218V452.12H516.389V451.218H515.488ZM505.401 451.218V450.316H504.499V451.218H505.401ZM505.401 453.238H504.499V454.14H505.401V453.238ZM538.689 453.238V454.14H539.591V453.238H538.689ZM538.689 423.968V423.066H537.788V423.968H538.689ZM579.041 423.968H579.943V423.066H579.041V423.968ZM579.041 466.357V467.259H579.943V466.357H579.041ZM569.457 466.357V465.456H568.556V466.357H569.457ZM569.457 484.525H568.556V485.427H569.457V484.525ZM579.041 484.525H579.943V483.623H579.041V484.525ZM579.041 528.933H578.14V529.835H579.041V528.933ZM281.45 566.279V567.181H282.351V566.279H281.45ZM281.45 547.103V546.201H280.548V547.103H281.45ZM329.872 547.103V548.005H330.773V547.103H329.872ZM329.872 544.074H330.773V543.172H329.872V544.074ZM272.372 544.074V543.172H271.471V544.074H272.372ZM272.372 566.279H271.471V567.181H272.372V566.279ZM632.508 647.022V647.924H633.409V647.022H632.508ZM632.508 593.529V592.627H631.606V593.529H632.508ZM671.85 593.529V594.431H672.752V593.529H671.85ZM671.85 573.344H672.752V572.442H671.85V573.344ZM627.463 573.344V572.442H626.562V573.344H627.463ZM627.463 642.985V643.887H628.365V642.985H627.463ZM548.778 642.985V642.083H547.877V642.985H548.778ZM548.778 647.022H547.877V647.924H548.778V647.022ZM226.976 651.059V651.961H227.877V651.059H226.976ZM226.976 647.022V646.12H226.074V647.022H226.976ZM300.618 647.022V647.924H301.52V647.022H300.618ZM300.618 608.67H301.52V607.768H300.618V608.67ZM288.512 608.67V607.768H287.61V608.67H288.512ZM288.512 613.715L289.053 614.437L289.413 614.166V613.715H288.512ZM284.477 616.742V617.644H284.776L285.016 617.463L284.477 616.742ZM204.782 616.742V615.84H204.409L204.146 616.105L204.782 616.742ZM184.606 636.928L183.968 636.291L182.43 637.83H184.606V636.928ZM223.949 636.928H224.85V636.026H223.949V636.928ZM223.949 651.059H223.047V651.961H223.949V651.059ZM342.988 770.157L343.873 769.989L336.811 732.645L335.926 732.813L335.039 732.98L342.101 770.324L342.988 770.157ZM335.926 732.813H336.827V677.301H335.926H335.024V732.813H335.926ZM335.926 677.301V676.399H226.976V677.301V678.203H335.926V677.301ZM226.976 677.301H227.877V673.264H226.976H226.074V677.301H226.976ZM226.976 673.264V672.362H222.941V673.264V674.166H226.976V673.264ZM222.941 673.264H222.039V677.301H222.941H223.842V673.264H222.941ZM222.941 677.301V676.399H152.327V677.301V678.203H222.941V677.301ZM152.327 677.301H153.228V636.928H152.327H151.425V677.301H152.327ZM152.327 636.928V637.83H172.502V636.928V636.026H152.327V636.928ZM172.502 636.928L173.139 636.291L152.964 616.105L152.327 616.742L151.689 617.38L171.864 637.567L172.502 636.928ZM152.327 616.742V615.84H142.238V616.742V617.644H152.327V616.742ZM142.238 616.742H143.14V567.287H142.238H141.337V616.742H142.238ZM142.238 567.287V568.189H162.413V567.287V566.385H142.238V567.287ZM162.413 567.287H163.315V540.037H162.413H161.512V567.287H162.413ZM162.413 540.037V539.135H142.238V540.037V540.939H162.413V540.037ZM142.238 540.037H143.14V496.636H142.238H141.337V540.037H142.238ZM142.238 496.636V497.538H172.502V496.636V495.734H142.238V496.636ZM172.502 496.636H173.403V494.618H172.502H171.6V496.636H172.502ZM172.502 494.618V493.716H87.7645V494.618V495.519H172.502V494.618ZM87.7645 494.618H88.666V449.2H87.7645H86.8631V494.618H87.7645ZM87.7645 449.2V450.102H102.895V449.2V448.298H87.7645V449.2ZM102.895 449.2H103.797V418.921H102.895H101.994V449.2H102.895ZM102.895 418.921V419.823H115.001V418.921V418.019H102.895V418.921ZM115.001 418.921H115.903V415.893H115.001H114.1V418.921H115.001ZM115.001 415.893V414.991H89.7822V415.893V416.794H115.001V415.893ZM89.7822 415.893H88.8807V428.003H89.7822H90.6836V415.893H89.7822ZM89.7822 428.003V427.101H53.4657V428.003V428.905H89.7822V428.003ZM53.4657 428.003L54.1261 427.39L41.0112 413.261L40.3507 413.874L39.6903 414.489L52.8052 428.618L53.4657 428.003ZM40.3507 413.874H41.2521V391.671H40.3507H39.4492V413.874H40.3507ZM40.3507 391.671L41.0112 392.285L54.1263 378.154L53.4657 377.54L52.8052 376.927L39.6903 391.056L40.3507 391.671ZM53.4657 377.54V378.442H89.7822V377.54V376.638H53.4657V377.54ZM89.7822 377.54H88.8807V390.661H89.7822H90.6836V377.54H89.7822ZM89.7822 390.661V391.563H92.807V390.661V389.759H89.7822V390.661ZM92.807 390.661H93.7085V300.832H92.807H91.9056V390.661H92.807ZM92.807 300.832V301.734H167.458V300.832V299.93H92.807V300.832ZM167.458 300.832L167.877 301.631L187.044 291.539L186.624 290.742L186.203 289.942L167.038 300.035L167.458 300.832ZM186.624 290.742H187.525V205.959H186.624H185.722V290.742H186.624ZM186.624 205.959L187.271 206.587L255.869 135.938L255.222 135.31L254.574 134.681L185.978 205.33L186.624 205.959ZM255.222 135.31V136.211H259.256V135.31V134.408H255.222V135.31ZM259.256 135.31H260.158V133.291H259.256H258.355V135.31H259.256ZM259.256 133.291L259.938 133.883L280.114 110.669L279.434 110.077L278.753 109.486L258.577 132.699L259.256 133.291ZM279.434 110.077H280.336V79.797H279.434L278.533 79.7961V110.077H279.434ZM279.434 79.797H280.336C280.336 79.7982 280.336 79.7825 280.341 79.7436C280.347 79.7059 280.354 79.6559 280.368 79.592C280.397 79.4634 280.44 79.2989 280.502 79.0978C280.626 78.6952 280.812 78.1835 281.046 77.5824C281.515 76.3822 282.169 74.8722 282.903 73.2548C284.367 70.0222 286.127 66.4005 287.3 64.0523L286.494 63.649L285.687 63.2457C284.508 65.6068 282.737 69.2503 281.261 72.51C280.523 74.1386 279.854 75.6816 279.368 76.925C279.124 77.5456 278.922 78.1034 278.78 78.5659C278.648 78.9948 278.533 79.4431 278.533 79.7961L279.434 79.797ZM286.494 63.649L287.201 64.208L302.335 45.032L301.626 44.4732L300.919 43.9142L285.786 63.0902L286.494 63.649ZM301.626 44.4732H302.527V41.4452H301.626H300.725V44.4732H301.626ZM301.626 41.4452L302.306 42.039L309.368 33.9643L308.688 33.3703L308.01 32.7763L300.948 40.8512L301.626 41.4452ZM308.688 33.3703V34.2722H347.021V33.3703V32.4684H308.688V33.3703ZM347.021 33.3703L346.215 33.7736L350.25 41.8485L351.056 41.4452L351.862 41.0418L347.827 32.967L347.021 33.3703ZM351.056 41.4452L350.181 41.6638L351.191 45.7012L352.065 45.4824L352.94 45.2638L351.93 41.2264L351.056 41.4452ZM352.065 45.4824L351.387 44.8886L344.325 52.9615L345.003 53.5555L345.681 54.1495L352.743 46.0764L352.065 45.4824ZM345.003 53.5555L344.457 54.2729L365.643 70.4226L366.189 69.7053L366.735 68.9877L345.55 52.8381L345.003 53.5555ZM366.189 69.7053L365.421 70.1779L373.493 83.2978L374.259 82.825L375.027 82.3522L366.957 69.2325L366.189 69.7053ZM374.259 82.825H373.357V116.132H374.259H375.16V82.825H374.259ZM374.259 116.132L373.622 116.77L380.682 123.835L381.319 123.197L381.957 122.56L374.897 115.494L374.259 116.132ZM381.319 123.197H380.417V125.216H381.319H382.22V123.197H381.319ZM381.319 125.216L380.917 126.023L386.969 129.051L387.373 128.244L387.775 127.437L381.723 124.409L381.319 125.216ZM387.373 128.244L386.681 128.821L391.725 134.878L392.417 134.3L393.11 133.723L388.065 127.667L387.373 128.244ZM392.417 134.3L391.725 134.878L401.812 146.988L402.505 146.411L403.197 145.833L393.11 133.723L392.417 134.3ZM402.505 146.411L401.661 146.727L404.688 154.802L405.532 154.485L406.375 154.169L403.35 146.094L402.505 146.411ZM405.532 154.485L404.856 155.082L419.987 172.241L420.663 171.644L421.339 171.048L406.208 153.889L405.532 154.485ZM420.663 171.644L419.856 172.048L421.875 176.083L422.681 175.68L423.487 175.276L421.469 171.241L420.663 171.644ZM422.681 175.68L422.345 176.517L427.39 178.536L427.725 177.699L428.059 176.861L423.014 174.843L422.681 175.68ZM427.725 177.699L426.917 178.102L439.022 202.327L439.828 201.923L440.636 201.52L428.531 177.295L427.725 177.699ZM439.828 201.923L438.943 202.087L449.032 256.588L449.917 256.424L450.804 256.26L440.715 201.758L439.828 201.923ZM449.917 256.424H449.015V265.508H449.917H450.818V256.424H449.917ZM449.917 265.508L449.632 266.365L452.659 267.373L452.944 266.518L453.229 265.663L450.202 264.653L449.917 265.508ZM452.944 266.518L452.787 267.406L469.936 270.433L470.093 269.545L470.248 268.656L453.101 265.631L452.944 266.518ZM470.093 269.545V270.447H483.207V269.545V268.643H470.093V269.545ZM483.207 269.545L483.409 270.424L496.525 267.397L496.321 266.518L496.119 265.64L483.005 268.665L483.207 269.545ZM496.321 266.518V267.42H503.381V266.518V265.616H496.321V266.518ZM503.381 266.518L502.882 267.269L505.909 269.287L506.408 268.537L506.91 267.786L503.883 265.768L503.381 266.518ZM506.408 268.537V269.439H509.435V268.537V267.635H506.408V268.537ZM509.435 268.537L509.839 269.343L515.892 266.316L515.488 265.508L515.086 264.702L509.032 267.73L509.435 268.537ZM515.488 265.508V266.41H520.532V265.508V264.606H515.488V265.508ZM520.532 265.508L520.13 266.316L522.148 267.325L522.55 266.518L522.954 265.712L520.936 264.702L520.532 265.508ZM522.55 266.518V267.42H545.751V266.518V265.616H522.55V266.518ZM545.751 266.518L546.086 267.355L551.131 265.337L550.795 264.5L550.462 263.663L545.417 265.681L545.751 266.518ZM550.795 264.5V265.402H627.463V264.5V263.598H550.795V264.5ZM627.463 264.5L626.825 265.137L680.291 318.63L680.929 317.991L681.568 317.353L628.1 263.861L627.463 264.5ZM680.929 317.991H680.028V356.346H680.929H681.831V317.991H680.929ZM680.929 356.346V355.444H667.815V356.346V357.248H680.929V356.346ZM667.815 356.346H666.914V365.428H667.815H668.717V356.346H667.815ZM667.815 365.428V366.33H678.912V365.428V364.526H667.815V365.428ZM678.912 365.428H678.011V448.191H678.912H679.814V365.428H678.912ZM678.912 448.191V449.093H704.131V448.191V447.289H678.912V448.191ZM704.131 448.191H703.229V462.321H704.131H705.032V448.191H704.131ZM704.131 462.321V463.222H706.148V462.321V461.419H704.131V462.321ZM706.148 462.321H705.247V481.499H706.148H707.05V462.321H706.148ZM706.148 481.499V480.597H704.131V481.499V482.4H706.148V481.499ZM704.131 481.499H703.229V494.618H704.131H705.032V481.499H704.131ZM704.131 494.618V493.716H646.631V494.618V495.519H704.131V494.618ZM646.631 494.618H647.533V489.572H646.631H645.73V494.618H646.631ZM646.631 489.572V488.67H643.604V489.572V490.474H646.631V489.572ZM643.604 489.572H642.703V504.712H643.604H644.506V489.572H643.604ZM643.604 504.712V503.81H631.498V504.712V505.613H643.604V504.712ZM631.498 504.712H630.597V507.738H631.498H632.399V504.712H631.498ZM631.498 507.738V508.64H658.736V507.738V506.836H631.498V507.738ZM658.736 507.738H657.835V548.111H658.736H659.637V507.738H658.736ZM658.736 548.111V549.013H704.131V548.111V547.209H658.736V548.111ZM704.131 548.111H703.229V622.799H704.131H705.032V548.111H704.131ZM704.131 622.799V621.897H653.693V622.799V623.701H704.131V622.799ZM653.693 622.799H652.792V677.301H653.693H654.595V622.799H653.693ZM653.693 677.301V676.399H518.515V677.301V678.203H653.693V677.301ZM518.515 677.301H519.416V674.274H518.515H517.613V677.301H518.515ZM518.515 674.274V673.372H514.48V674.274V675.176H518.515V674.274ZM514.48 674.274H513.579V677.301H514.48H515.381V674.274H514.48ZM514.48 677.301V676.399H441.847V677.301V678.203H514.48V677.301ZM441.847 677.301H440.946V733.821H441.847H442.749V677.301H441.847ZM441.847 733.821L440.967 733.626L434.915 760.876L435.795 761.073L436.675 761.268L442.727 734.018L441.847 733.821ZM435.795 761.073L434.953 760.75L411.75 821.307L412.592 821.63L413.434 821.953L436.637 761.396L435.795 761.073ZM412.592 821.63V820.728H366.189V821.63V822.532H412.592V821.63ZM366.189 821.63L367.011 821.258L343.808 769.785L342.988 770.157L342.166 770.526L365.367 822.001L366.189 821.63ZM416.627 211.006L417.203 210.312L405.099 200.222L404.522 200.914L403.943 201.607L416.05 211.699L416.627 211.006ZM404.522 200.914H405.423V195.867H404.522H403.621V200.914H404.522ZM404.522 195.867L405.158 195.229L365.818 155.866L365.179 156.504L364.543 157.142L403.884 196.504L404.522 195.867ZM365.179 156.504H366.081V148.429H365.179H364.278V156.504H365.179ZM365.179 148.429L365.875 147.856L351.752 130.699L351.056 131.272L350.36 131.846L364.484 149.003L365.179 148.429ZM351.056 131.272H351.957V126.225H351.056H350.154V131.272H351.056ZM351.056 126.225L351.58 125.491L344.518 120.445L343.994 121.179L343.471 121.912L350.533 126.959L351.056 126.225ZM343.994 121.179L344.214 120.304L340.177 119.294L339.959 120.169L339.741 121.044L343.776 122.054L343.994 121.179ZM339.959 120.169L340.644 119.582L334.592 112.517L333.908 113.104L333.223 113.691L339.274 120.756L339.959 120.169ZM333.908 113.104V112.202H329.872V113.104V114.006H333.908V113.104ZM329.872 113.104L329.574 112.253L309.398 119.318L309.696 120.169L309.993 121.02L330.169 113.955L329.872 113.104ZM309.696 120.169L308.89 119.766L307.88 121.785L308.686 122.188L309.492 122.591L310.502 120.573L309.696 120.169ZM308.686 122.188L308.014 121.589L291.872 139.757L292.547 140.356L293.221 140.955L309.36 122.787L308.686 122.188ZM292.547 140.356H291.645V145.401H292.547H293.448V140.356H292.547ZM292.547 145.401L291.844 144.838L263.598 180.163L264.301 180.726L265.006 181.291L293.252 145.965L292.547 145.401ZM264.301 180.726H263.399V186.783H264.301H265.202V180.726H264.301ZM264.301 186.783V185.881H254.212V186.783V187.685H264.301V186.783ZM254.212 186.783L253.491 186.242L247.438 194.316L248.16 194.857L248.881 195.398L254.933 187.324L254.212 186.783ZM248.16 194.857L247.271 194.709L246.261 200.766L247.15 200.914L248.041 201.062L249.048 195.007L248.16 194.857ZM247.15 200.914L246.429 200.373L240.378 208.445L241.1 208.986L241.821 209.527L247.871 201.455L247.15 200.914ZM241.1 208.986H240.198V216.052H241.1H242.001V208.986H241.1ZM241.1 216.052L240.366 216.577L245.408 223.642L246.142 223.117L246.876 222.594L241.833 215.529L241.1 216.052ZM246.142 223.117V224.019H248.16V223.117V222.215H246.142V223.117ZM248.16 223.117L247.372 223.555L252.416 232.639L253.204 232.201L253.992 231.765L248.947 222.681L248.16 223.117ZM253.204 232.201L253.649 232.986L290.975 211.789L290.529 211.006L290.084 210.222L252.759 231.418L253.204 232.201ZM290.529 211.006V211.908H314.74V211.006V210.105H290.529V211.006ZM314.74 211.006L314.946 211.883L332.097 207.846L331.889 206.968L331.684 206.091L314.533 210.128L314.74 211.006ZM331.889 206.968V207.87H342.986V206.968V206.066H331.889V206.968ZM342.986 206.968L342.616 207.792L410.207 238.072L410.574 237.248L410.942 236.426L343.354 206.145L342.986 206.968ZM410.574 237.248L411.452 237.452L417.506 211.208L416.627 211.006L415.749 210.803L409.696 237.046L410.574 237.248ZM349.038 392.68H349.94V374.512H349.038H348.137V392.68H349.038ZM349.038 374.512V375.414H364.172V374.512V373.61H349.038V374.512ZM364.172 374.512L364.808 375.15L375.903 364.048L375.267 363.411L374.628 362.773L363.533 373.873L364.172 374.512ZM375.267 363.411H376.168V325.057H375.267H374.365V363.411H375.267ZM375.267 325.057V325.959H429.743V325.057V324.155H375.267V325.057ZM429.743 325.057H430.644V296.797H429.743H428.841V325.057H429.743ZM429.743 296.797V295.895H416.627V296.797V297.699H429.743V296.797ZM416.627 296.797H415.725V306.889H416.627H417.528V296.797H416.627ZM416.627 306.889V305.987H389.39V306.889V307.791H416.627V306.889ZM389.39 306.889H390.292V253.396H389.39H388.489V306.889H389.39ZM389.39 253.396V252.494H369.216V253.396V254.298H389.39V253.396ZM369.216 253.396L369.899 252.809L363.847 245.744L363.162 246.33L362.477 246.918L368.531 253.984L369.216 253.396ZM363.162 246.33L363.566 245.524L347.425 237.45L347.021 238.256L346.617 239.063L362.758 247.138L363.162 246.33ZM347.021 238.256V237.355H338.949V238.256V239.158H347.021V238.256ZM338.949 238.256L339.699 237.757L337.684 234.73L336.934 235.23L336.184 235.729L338.199 238.756L338.949 238.256ZM336.934 235.23H337.835V233.211H336.934H336.032V235.23H336.934ZM336.934 233.211L337.1 232.326L320.958 229.297L320.792 230.183L320.627 231.07L336.768 234.097L336.934 233.211ZM320.792 230.183V229.281H315.748V230.183V231.085H320.792V230.183ZM315.748 230.183L315.261 229.425L301.139 238.507L301.626 239.267L302.115 240.024L316.237 230.942L315.748 230.183ZM301.626 239.267V238.365H298.601V239.267V240.168H301.626V239.267ZM298.601 239.267H297.699V241.285H298.601H299.502V239.267H298.601ZM298.601 241.285V240.383H292.547V241.285V242.187H298.601V241.285ZM292.547 241.285L292.022 240.551L277.9 250.643L278.423 251.377L278.947 252.111L293.071 242.019L292.547 241.285ZM278.423 251.377V250.475H237.065V251.377V252.279H278.423V251.377ZM237.065 251.377H236.163V300.832H237.065H237.966V251.377H237.065ZM237.065 300.832V301.734H267.328V300.832V299.93H237.065V300.832ZM267.328 300.832H266.426V374.512H267.328H268.229V300.832H267.328ZM267.328 374.512V375.414H346.011V374.512V373.61H267.328V374.512ZM346.011 374.512H345.11V392.68H346.011H346.913V374.512H346.011ZM346.011 392.68V393.581H349.038V392.68V391.778H346.011V392.68ZM578.033 359.372H578.935V322.028H578.033H577.132V359.372H578.033ZM578.033 322.028V321.126H567.944V322.028V322.93H578.033V322.028ZM567.944 322.028H568.846V296.797H567.944H567.043V322.028H567.944ZM567.944 296.797V295.895H514.256V296.797V297.699H567.944V296.797ZM514.256 296.797H513.355V298.815H514.256H515.158V296.797H514.256ZM514.256 298.815V297.913H464.041V298.815V299.717H514.256V298.815ZM464.041 298.815H464.942V296.797H464.041H463.139V298.815H464.041ZM464.041 296.797V295.895H449.917V296.797V297.699H464.041V296.797ZM449.917 296.797H449.015V325.057H449.917H450.818V296.797H449.917ZM449.917 325.057V325.959H516.497V325.057V324.155H449.917V325.057ZM516.497 325.057H515.596V356.346H516.497H517.399V325.057H516.497ZM516.497 356.346V355.444H501.364V356.346V357.248H516.497V356.346ZM501.364 356.346H500.463V359.372H501.364H502.265V356.346H501.364ZM501.364 359.372V360.274H578.033V359.372V358.471H501.364V359.372ZM225.966 509.759H226.868V477.46H225.966H225.065V509.759H225.966ZM225.966 477.46V478.362H267.328V477.46V476.558H225.966V477.46ZM267.328 477.46L267.714 478.275L286.88 469.191L286.494 468.376L286.109 467.561L266.942 476.644L267.328 477.46ZM286.494 468.376H287.396V401.762H286.494H285.593V468.376H286.494ZM286.494 401.762V400.86H253.204V401.762V402.664H286.494V401.762ZM253.204 401.762H252.303V411.856H253.204H254.106V401.762H253.204ZM253.204 411.856V410.954H220.923V411.856V412.758H253.204V411.856ZM220.923 411.856H221.825V349.28H220.923H220.022V411.856H220.923ZM220.923 349.28V350.182H242.109V349.28V348.378H220.923V349.28ZM242.109 349.28H243.011V343.223H242.109H241.208V349.28H242.109ZM242.109 343.223V342.321H169.475V343.223V344.125H242.109V343.223ZM169.475 343.223H168.574V376.53H169.475H170.377V343.223H169.475ZM169.475 376.53V375.628H140.221V376.53V377.432H169.475V376.53ZM140.221 376.53L139.319 376.507L138.311 415.871L139.212 415.893L140.113 415.916L141.122 376.554L140.221 376.53ZM139.212 415.893V414.991H130.132V415.893V416.794H139.212V415.893ZM130.132 415.893H129.231V418.921H130.132H131.034V415.893H130.132ZM130.132 418.921V419.823H139.212V418.921V418.019H130.132V418.921ZM139.212 418.921H138.31V468.376H139.212H140.113V418.921H139.212ZM139.212 468.376V469.278H204.782V468.376V467.474H139.212V468.376ZM204.782 468.376H203.881V494.618H204.782H205.684V468.376H204.782ZM204.782 494.618V493.716H192.678V494.618V495.519H204.782V494.618ZM192.678 494.618H191.776V496.636H192.678H193.579V494.618H192.678ZM192.678 496.636V497.538H198.73V496.636V495.734H192.678V496.636ZM198.73 496.636H197.828V509.759H198.73H199.631V496.636H198.73ZM198.73 509.759V510.661H225.966V509.759V508.857H198.73V509.759ZM400.487 693.448L401.183 694.024L439.514 647.598L438.82 647.022L438.124 646.449L399.793 692.875L400.487 693.448ZM438.82 647.022V647.924H514.48V647.022V646.12H438.82V647.022ZM514.48 647.022H513.579V651.059H514.48H515.381V647.022H514.48ZM514.48 651.059V651.961H518.515V651.059V650.157H514.48V651.059ZM518.515 651.059H519.416V647.022H518.515H517.613V651.059H518.515ZM518.515 647.022V647.924H529.61V647.022V646.12H518.515V647.022ZM529.61 647.022H530.511V613.715H529.61H528.708V647.022H529.61ZM529.61 613.715V612.813H518.515V613.715V614.617H529.61V613.715ZM518.515 613.715H519.416V576.936H518.515H517.613V613.715H518.515ZM518.515 576.936V577.838H538.689V576.936V576.034H518.515V576.936ZM538.689 576.936H539.591V475.441H538.689H537.788V576.936H538.689ZM538.689 475.441V474.539H505.401V475.441V476.343H538.689V475.441ZM505.401 475.441H504.499V482.507H505.401H506.302V475.441H505.401ZM505.401 482.507L504.997 481.701L490.875 488.766L491.279 489.572L491.681 490.379L505.803 483.313L505.401 482.507ZM491.279 489.572V488.67H478.163V489.572V490.474H491.279V489.572ZM478.163 489.572L478.566 488.766L464.444 481.701L464.041 482.507L463.639 483.313L477.761 490.379L478.163 489.572ZM464.041 482.507H464.942V475.441H464.041H463.139V482.507H464.041ZM464.041 475.441V474.539H463.033V475.441V476.343H464.041V475.441ZM463.033 475.441H462.131V489.572H463.033H463.934V475.441H463.033ZM463.033 489.572V488.67H425.706V489.572V490.474H463.033V489.572ZM425.706 489.572L426.344 488.936L410.203 472.784L409.565 473.423L408.928 474.061L425.069 490.211L425.706 489.572ZM409.565 473.423H410.466V455.257H409.565H408.663V473.423H409.565ZM409.565 455.257L410.203 455.894L427.354 438.736L426.716 438.097L426.079 437.459L408.928 454.618L409.565 455.257ZM426.716 438.097V438.999H463.033V438.097V437.195H426.716V438.097ZM463.033 438.097H462.131V451.218H463.033H463.934V438.097H463.033ZM463.033 451.218V452.12H465.048V451.218V450.316H463.033V451.218ZM465.048 451.218H465.95V359.372H465.048H464.147V451.218H465.048ZM465.048 359.372V360.274H482.198V359.372V358.471H465.048V359.372ZM482.198 359.372H483.099V356.346H482.198H481.296V359.372H482.198ZM482.198 356.346V355.444H478.163V356.346V357.248H482.198V356.346ZM478.163 356.346H479.064V347.262H478.163H477.261V356.346H478.163ZM478.163 347.262V346.36H400.487V347.262V348.164H478.163V347.262ZM400.487 347.262H399.586V411.856H400.487H401.389V347.262H400.487ZM400.487 411.856V410.954H349.038V411.856V412.758H400.487V411.856ZM349.038 411.856H349.94V406.809H349.038H348.137V411.856H349.038ZM349.038 406.809V405.907H346.011V406.809V407.711H349.038V406.809ZM346.011 406.809H345.11V411.856H346.011H346.913V406.809H346.011ZM346.011 411.856V410.954H317.765V411.856V412.758H346.011V411.856ZM317.765 411.856H316.864V429.013H317.765H318.667V411.856H317.765ZM317.765 429.013V429.915H337.943V429.013V428.112H317.765V429.013ZM337.943 429.013H337.042V470.394H337.943H338.845V429.013H337.943ZM337.943 470.394V469.492H317.765V470.394V471.296H337.943V470.394ZM317.765 470.394H316.864V480.488H317.765H318.667V470.394H317.765ZM317.765 480.488V481.39H320.792V480.488V479.587H317.765V480.488ZM320.792 480.488H319.891V501.683H320.792H321.694V480.488H320.792ZM320.792 501.683V500.781H317.765V501.683V502.585H320.792V501.683ZM317.765 501.683H316.864V512.785H317.765H318.667V501.683H317.765ZM317.765 512.785V513.687H347.021V512.785V511.883H317.765V512.785ZM347.021 512.785H346.119V543.064H347.021H347.922V512.785H347.021ZM347.021 543.064V542.162H345.003V543.064V543.966H347.021V543.064ZM345.003 543.064H344.102V548.111H345.003H345.905V543.064H345.003ZM345.003 548.111V549.013H347.021V548.111V547.209H345.003V548.111ZM347.021 548.111H346.119V578.389H347.021H347.922V548.111H347.021ZM347.021 578.389V577.488H308.686V578.389V579.291H347.021V578.389ZM308.686 578.389H309.588V564.259H308.686H307.785V578.389H308.686ZM308.686 564.259V563.357H294.564V564.259V565.16H308.686V564.259ZM294.564 564.259H293.663V578.389H294.564H295.466V564.259H294.564ZM294.564 578.389V577.488H272.372V578.389V579.291H294.564V578.389ZM272.372 578.389H271.471V582.428H272.372H273.274V578.389H272.372ZM272.372 582.428V583.33H288.512V582.428V581.526H272.372V582.428ZM288.512 582.428H287.61V591.51H288.512H289.413V582.428H288.512ZM288.512 591.51V592.412H325.837V591.51V590.608H288.512V591.51ZM325.837 591.51H324.935V642.985H325.837H326.738V591.51H325.837ZM325.837 642.985V642.083H316.758V642.985V643.887H325.837V642.985ZM316.758 642.985H315.856V647.022H316.758H317.659V642.985H316.758ZM316.758 647.022V647.924H334.916V647.022V646.12H316.758V647.022ZM334.916 647.022L334.213 647.589L371.538 694.015L372.24 693.448L372.943 692.884L335.619 646.458L334.916 647.022ZM372.24 693.448V694.35H400.487V693.448V692.546H372.24V693.448ZM587.113 528.933L587.847 529.458L602.976 508.263L602.243 507.738L601.511 507.215L586.379 528.41L587.113 528.933ZM602.243 507.738V508.64H608.297V507.738V506.836H602.243V507.738ZM608.297 507.738H609.198V504.712H608.297H607.395V507.738H608.297ZM608.297 504.712V503.81H593.163V504.712V505.613H608.297V504.712ZM593.163 504.712H594.065V464.339H593.163H592.262V504.712H593.163ZM593.163 464.339L593.771 465.006L604.868 454.914L604.262 454.247L603.654 453.579L592.557 463.672L593.163 464.339ZM604.262 454.247V455.149H632.508V454.247V453.345H604.262V454.247ZM632.508 454.247L631.9 454.914L642.999 465.006L643.604 464.339L644.21 463.672L633.113 453.579L632.508 454.247ZM643.604 464.339H642.703V469.386H643.604H644.506V464.339H643.604ZM643.604 469.386V470.288H646.631V469.386V468.484H643.604V469.386ZM646.631 469.386H647.533V381.577H646.631H645.73V469.386H646.631ZM646.631 381.577V380.675H539.699V381.577V382.479H646.631V381.577ZM539.699 381.577H538.797V405.8H539.699H540.6V381.577H539.699ZM539.699 405.8V404.898H515.488V405.8V406.702H539.699V405.8ZM515.488 405.8H514.586V451.218H515.488H516.389V405.8H515.488ZM515.488 451.218V450.316H505.401V451.218V452.12H515.488V451.218ZM505.401 451.218H504.499V453.238H505.401H506.302V451.218H505.401ZM505.401 453.238V454.14H538.689V453.238V452.337H505.401V453.238ZM538.689 453.238H539.591V423.968H538.689H537.788V453.238H538.689ZM538.689 423.968V424.87H579.041V423.968V423.066H538.689V423.968ZM579.041 423.968H578.14V466.357H579.041H579.943V423.968H579.041ZM579.041 466.357V465.456H569.457V466.357V467.259H579.041V466.357ZM569.457 466.357H568.556V484.525H569.457H570.359V466.357H569.457ZM569.457 484.525V485.427H579.041V484.525V483.623H569.457V484.525ZM579.041 484.525H578.14V528.933H579.041H579.943V484.525H579.041ZM579.041 528.933V529.835H587.113V528.933V528.031H579.041V528.933ZM281.45 566.279H282.351V547.103H281.45H280.548V566.279H281.45ZM281.45 547.103V548.005H329.872V547.103V546.201H281.45V547.103ZM329.872 547.103H330.773V544.074H329.872H328.97V547.103H329.872ZM329.872 544.074V543.172H272.372V544.074V544.976H329.872V544.074ZM272.372 544.074H271.471V566.279H272.372H273.274V544.074H272.372ZM272.372 566.279V567.181H281.45V566.279V565.377H272.372V566.279ZM632.508 647.022H633.409V593.529H632.508H631.606V647.022H632.508ZM632.508 593.529V594.431H671.85V593.529V592.627H632.508V593.529ZM671.85 593.529H672.752V573.344H671.85H670.949V593.529H671.85ZM671.85 573.344V572.442H627.463V573.344V574.246H671.85V573.344ZM627.463 573.344H626.562V642.985H627.463H628.365V573.344H627.463ZM627.463 642.985V642.083H548.778V642.985V643.887H627.463V642.985ZM548.778 642.985H547.877V647.022H548.778H549.68V642.985H548.778ZM548.778 647.022V647.924H632.508V647.022V646.12H548.778V647.022ZM226.976 651.059H227.877V647.022H226.976H226.074V651.059H226.976ZM226.976 647.022V647.924H300.618V647.022V646.12H226.976V647.022ZM300.618 647.022H301.52V608.67H300.618H299.717V647.022H300.618ZM300.618 608.67V607.768H288.512V608.67V609.572H300.618V608.67ZM288.512 608.67H287.61V613.715H288.512H289.413V608.67H288.512ZM288.512 613.715L287.971 612.994L283.936 616.02L284.477 616.742L285.016 617.463L289.053 614.437L288.512 613.715ZM284.477 616.742V615.84H204.782V616.742V617.644H284.477V616.742ZM204.782 616.742L204.146 616.105L183.968 636.291L184.606 636.928L185.244 637.567L205.42 617.38L204.782 616.742ZM184.606 636.928V637.83H223.949V636.928V636.026H184.606V636.928ZM223.949 636.928H223.047V651.059H223.949H224.85V636.928H223.949ZM223.949 651.059V651.961H226.976V651.059V650.157H223.949V651.059Z" fill="#674A81"/>
<path d="M387.373 324.497C385.393 324.497 383.789 326.103 383.789 328.084C383.789 330.064 385.393 331.67 387.373 331.67C389.353 331.67 390.958 330.064 390.958 328.084C390.958 326.103 389.353 324.497 387.373 324.497Z" stroke="#674A81" stroke-width="0.5"/>
<path d="M144.256 584.896C142.833 584.896 141.68 586.05 141.68 587.473C141.68 588.897 142.833 590.05 144.256 590.05C145.678 590.05 146.832 588.897 146.832 587.473C146.832 586.05 145.678 584.896 144.256 584.896Z" stroke="#674A81" stroke-width="0.5"/>
<path d="M568.954 603.623H604.262V585.455H557.857V603.623H558.867M568.954 603.623V613.715H558.867V603.623M568.954 603.623H558.867M627.463 582.426H618.384V573.342H627.463M658.736 548.111H648.649V528.935H658.736M552.813 296.797V287.713H543.734V296.797M384.346 325.057V335.149H375.267M186.625 281.658H197.722V271.563H186.625M158.379 376.53V365.428H169.476M152.326 496.636V505.72M152.326 505.72H142.238M152.326 505.72H162.414V496.636M272.371 560.222H242.107V547.101H272.371M296.582 544.074V528.935H287.504V544.074M225.968 509.757H236.055V502.693H225.968M285.485 469.386H296.582V450.21H286.494" stroke="#674A81"/>
<path d="M149.3 540.037V521.869H142.239" stroke="#674A81" stroke-width="0.5"/>
<path d="M296.584 528.935V523.888H287.504V528.935M204.267 616.744H152.327M296.584 450.21V444.153H286.495M253.205 401.763H227.986M227.986 401.763H220.924M227.986 401.763V395.708H220.924M169.476 360.383H163.423V365.428M92.8086 346.252H104.914M104.914 346.252H134.169M104.914 346.252V339.186H92.8086M192.678 271.564V266.518H186.626M617.376 454.247L593.166 478.47M579.044 437.089H566.937V423.968M579.044 434.06H568.955V423.968M538.691 501.683H549.788V489.572H538.691M538.691 491.591H547.771V499.665H538.691M593.166 585.455V576.371H568.955V585.455M346.013 380.567H310.706V374.512M568.955 528.935H547.771V538.019H538.691M547.771 526.916H568.955M633.518 327.075V312.944L625.446 305.881H611.324L603.253 312.944V327.075L611.324 335.149H625.446L633.518 327.075ZM627.464 325.057V329.094H621.411L618.386 332.122L615.359 329.094H609.307V325.057L606.28 321.02L609.307 316.981V311.936H615.359L618.386 308.908L621.411 311.936H627.464V316.981L630.491 321.02L627.464 325.057Z" stroke="#674A81" stroke-width="0.5"/>
<path d="M197.722 558.203V538.017H207.809V558.203M197.722 558.203H187.633V568.297H207.809V558.203M197.722 558.203H207.809" stroke="#674A81"/>
<path d="M242.605 349.28V375.522" stroke="#674A81" stroke-width="0.5"/>
<path d="M579.043 528.935H568.954V526.916H579.043M538.691 528.935H547.771V526.916H538.691M704.131 592.52H698.079M671.851 592.52H677.903M464.041 444.153H474.128V436.079H465.051" stroke="#674A81"/>
<path d="M395.443 401.204C392.349 401.204 389.841 403.713 389.841 406.809C389.841 409.904 392.349 412.413 395.443 412.413C398.537 412.413 401.045 409.904 401.045 406.809C401.045 403.713 398.537 401.204 395.443 401.204Z" stroke="#674A81" stroke-width="0.5"/>
<path d="M264.301 300.274C262.322 300.274 260.717 301.88 260.717 303.861C260.717 305.841 262.322 307.447 264.301 307.447C266.281 307.447 267.886 305.841 267.886 303.861C267.886 301.88 266.281 300.274 264.301 300.274Z" stroke="#674A81" stroke-width="0.5"/>
<path d="M603.252 601.604H558.867M558.867 587.473H603.252" stroke="#4C395C"/>
<path d="M708.166 462.32H716.238L719.263 466.862L722.29 471.404L719.263 475.946L716.238 480.488H708.166L714.22 471.404L708.166 462.32Z" fill="white"/>
<path d="M22.1934 393.688H30.2636L33.2899 398.23L36.3163 402.772L33.2899 407.314L30.2636 411.856H22.1934L24.8834 407.819L28.246 402.772L24.8834 397.727L22.1934 393.688Z" fill="white"/>
<path d="M393.425 455.255H401.495L404.522 459.797L407.549 464.339L404.522 468.881L401.495 473.423H393.425L399.478 464.339L393.425 455.255Z" fill="white"/>
<path d="M322.81 482.507H330.882L333.907 487.049L336.934 491.591L333.907 496.133L330.882 500.675H322.81L328.864 491.591L322.81 482.507Z" fill="white"/>
<path d="M331.406 487.049L334.433 491.591L331.406 496.133H373.866L374.259 469.386H397.462H399.999V459.873H364.922V487.049H331.406Z" fill="white" fill-opacity="0.48"/>
<path d="M544.743 572.334H613.341V626.836H544.743V572.334ZM569.856 604.523H605.163V584.553H593.614V575.918H568.503V584.553H556.954V604.523H557.964V614.615H569.856V604.523Z" fill="#4F276A"/>
<path d="M178.554 517.832H256.231V598.576H178.554V517.832ZM208.713 569.199V537.117H196.821V557.301H186.732V569.199H208.713ZM256.123 561.124V546.201H241.206V561.124H256.123Z" fill="#4F276A"/>
<path d="M584.5 622.454V608.024H590.021C591.063 608.024 591.93 608.188 592.621 608.518C593.315 608.841 593.834 609.285 594.177 609.85C594.525 610.412 594.698 611.051 594.698 611.765C594.698 612.353 594.584 612.855 594.359 613.273C594.133 613.686 593.83 614.024 593.45 614.281C593.071 614.539 592.646 614.725 592.175 614.837V614.98C592.687 615.007 593.178 615.163 593.648 615.45C594.122 615.733 594.51 616.132 594.809 616.648C595.11 617.166 595.26 617.79 595.26 618.522C595.26 619.269 595.08 619.942 594.719 620.539C594.357 621.13 593.812 621.598 593.084 621.94C592.357 622.283 591.442 622.454 590.338 622.454H584.5ZM587.113 620.27H589.922C590.87 620.27 591.553 620.09 591.972 619.727C592.395 619.361 592.606 618.892 592.606 618.318C592.606 617.891 592.5 617.507 592.289 617.162C592.078 616.816 591.777 616.543 591.388 616.345C590.998 616.143 590.533 616.042 589.994 616.042H587.113V620.27ZM587.113 614.161H589.696C590.147 614.161 590.555 614.079 590.915 613.915C591.278 613.746 591.561 613.508 591.768 613.203C591.979 612.893 592.085 612.526 592.085 612.104C592.085 611.545 591.887 611.085 591.494 610.723C591.103 610.362 590.524 610.18 589.754 610.18H587.113V614.161Z" fill="white"/>
<path d="M230.764 584.102H233.551L228.474 569.672H225.249L220.165 584.102H222.954L226.805 572.63H226.918L230.764 584.102ZM230.672 578.444H223.065V580.543H230.672V578.444Z" fill="white"/>
</svg>
