<svg width="750" height="917" viewBox="0 0 750 917" fill="none" xmlns="http://www.w3.org/2000/svg">
<path d="M397.436 82.2692H474.527V150.574H521.883V126.337H647.432V226.592H617.695V250.83H691.484V287.186H695.889V262.948H747.649V395.151H722.32V399.56H747.649V450.237H672.763V475.578H667.256V498.189H697.49V574.728H598.975V673.882H498.756V710.239H524.087V778.545H493.25V782.949L427.172 827.02L418.362 831.424V878.798L415.058 882.104H334.663L331.358 876.594V835.833L224.533 797.732V705.832H248.761L249.413 649.645H149.645V549.392H174.975V487.697H169.948V513.035H51.6288V448.035H81.3629V426H51.6288V374.219H74.756V351.085H0.96875V225.491H81.8626V202.956H50.9969V126.337H176.076V150.574H274.091V82.2692H340.168V34.8964H397.436V82.2692ZM424.969 598.966V673.882H303.825V649.645H300.521V746.595H448.097V598.966H424.969ZM226.734 375.322V426H121.01V448.035H226.734V593.458H201.405V597.865H300.521V623.203H347.878V549.39H323.649V498.712H347.878V475.578H323.649V399.56H355.587V375.322H300.521L281.8 395.151H248.761V375.322H226.734ZM473.426 412.78V449.136H498.756V499.815H427.172V475.578H423.868V549.39H399.639V573.627H498.756V623.203H521.883V498.712H598.975V522.95H622.103V498.712H627.608V475.578H621.002L573.645 450.237H521.883V412.78H473.426ZM567.037 177.015V202.355H498.756V226.592H450.298V301.507H387.525V324.643H412.854V375.322H393.033V399.56H421.664V449.136H448.097V444.728H434.88V362.101H498.756V387.441H547.213V324.643H646.331V301.507H547.213V250.83H578.048V226.592H572.544V177.015H567.037ZM691.484 313.626V395.151H602.946V351.085H598.975V399.56H695.889V313.626H691.484ZM126.518 177.015V202.355H121.01V225.491H126.518V250.83H201.405V289.39H176.076V300.406H201.405V349.982H248.761V330.153H319.244V349.982H323.649V324.643H361.093V301.507H298.32V226.592H248.761V202.355H130.922V177.015H126.518ZM52.7304 276.168V324.643H57.1343V300.406H149.826V276.168H52.7304ZM350.593 153.88L325.852 200.15V275.067H422.765V200.815L397.436 153.88H350.593Z" fill="#26003A"/>
<path d="M397.436 82.2692H396.467V83.2385H397.436V82.2692ZM474.527 82.2692H475.496V81.2998H474.527V82.2692ZM474.527 150.574H473.558V151.543H474.527V150.574ZM521.884 150.574V151.543H522.853V150.574H521.884ZM521.884 126.337V125.367H520.915V126.337H521.884ZM647.432 126.337H648.401V125.367H647.432V126.337ZM647.432 226.592V227.561H648.401V226.592H647.432ZM617.696 226.592V225.623H616.727V226.592H617.696ZM617.696 250.829H616.727V251.799H617.696V250.829ZM691.484 250.829H692.453V249.86H691.484V250.829ZM691.484 287.186H690.515V288.155H691.484V287.186ZM695.89 287.186V288.155H696.859V287.186H695.89ZM695.89 262.948V261.979H694.921V262.948H695.89ZM747.649 262.948H748.618V261.979H747.649V262.948ZM747.649 395.151V396.121H748.618V395.151H747.649ZM722.32 395.151V394.182H721.351V395.151H722.32ZM722.32 399.56H721.351V400.529H722.32V399.56ZM747.649 399.56H748.618V398.591H747.649V399.56ZM747.649 450.237V451.207H748.618V450.237H747.649ZM672.764 450.237V449.268H671.795V450.237H672.764ZM672.764 475.578V476.547H673.733V475.578H672.764ZM667.256 475.578V474.609H666.287V475.578H667.256ZM667.256 498.189H666.287V499.158H667.256V498.189ZM697.49 498.189H698.459V497.219H697.49V498.189ZM697.49 574.728V575.698H698.459V574.728H697.49ZM598.975 574.728V573.759H598.006V574.728H598.975ZM598.975 673.882V674.852H599.944V673.882H598.975ZM498.756 673.882V672.913H497.787V673.882H498.756ZM498.756 710.239H497.787V711.208H498.756V710.239ZM524.087 710.239H525.056V709.269H524.087V710.239ZM524.087 778.545V779.514H525.056V778.545H524.087ZM493.25 778.545V777.575H492.281V778.545H493.25ZM493.25 782.949L493.787 783.756L494.219 783.469V782.949H493.25ZM427.172 827.02L427.605 827.886L427.659 827.859L427.709 827.826L427.172 827.02ZM418.362 831.424L417.928 830.558L417.393 830.825V831.424H418.362ZM418.362 878.798L419.048 879.482L419.331 879.199V878.798H418.362ZM415.058 882.104V883.073H415.459L415.742 882.79L415.058 882.104ZM334.663 882.104L333.831 882.602L334.112 883.073H334.663V882.104ZM331.359 876.594H330.39V876.863L330.529 877.092L331.359 876.594ZM331.359 835.833H332.328V835.148L331.684 834.92L331.359 835.833ZM224.533 797.732H223.564V798.416L224.207 798.645L224.533 797.732ZM224.533 705.832V704.863H223.564V705.832H224.533ZM248.762 705.832V706.801H249.721L249.731 705.844L248.762 705.832ZM249.413 649.645L250.382 649.657L250.393 648.676H249.413V649.645ZM149.645 649.645H148.676V650.614H149.645V649.645ZM149.645 549.392V548.422H148.676V549.392H149.645ZM174.975 549.392V550.361H175.944V549.392H174.975ZM174.975 487.697H175.944V486.727H174.975V487.697ZM169.948 487.697V486.727H168.979V487.697H169.948ZM169.948 513.035V514.005H170.917V513.035H169.948ZM51.6291 513.035H50.6601V514.005H51.6291V513.035ZM51.6291 448.035V447.066H50.6601V448.035H51.6291ZM81.3632 448.035V449.004H82.3322V448.035H81.3632ZM81.3632 426H82.3322V425.03H81.3632V426ZM51.6291 426H50.6601V426.969H51.6291V426ZM51.6291 374.219V373.25H50.6601V374.219H51.6291ZM74.7562 374.219V375.189H75.7252V374.219H74.7562ZM74.7562 351.085H75.7252V350.116H74.7562V351.085ZM0.968992 351.085H0V352.054H0.968992V351.085ZM0.968992 225.491V224.521H0V225.491H0.968992ZM81.8628 225.491V226.46H82.8318V225.491H81.8628ZM81.8628 202.955H82.8318V201.986H81.8628V202.955ZM50.9971 202.955H50.0281V203.925H50.9971V202.955ZM50.9971 126.337V125.367H50.0281V126.337H50.9971ZM176.077 126.337H177.046V125.367H176.077V126.337ZM176.077 150.574H175.108V151.543H176.077V150.574ZM274.091 150.574V151.543H275.06V150.574H274.091ZM274.091 82.2692V81.2998H273.122V82.2692H274.091ZM340.169 82.2692V83.2385H341.138V82.2692H340.169ZM340.169 34.8963V33.927H339.2V34.8963H340.169ZM397.436 34.8963H398.405V33.927H397.436V34.8963ZM424.969 598.966V597.996H424V598.966H424.969ZM424.969 673.882V674.852H425.938V673.882H424.969ZM303.826 673.882H302.857V674.852H303.826V673.882ZM303.826 649.645H304.795V648.676H303.826V649.645ZM300.521 649.645V648.676H299.552V649.645H300.521ZM300.521 746.595H299.552V747.564H300.521V746.595ZM448.097 746.595V747.564H449.066V746.595H448.097ZM448.097 598.966H449.066V597.996H448.097V598.966ZM226.734 375.322V374.353H225.766V375.322H226.734ZM226.734 426V426.969H227.703V426H226.734ZM121.01 426V425.03H120.041V426H121.01ZM121.01 448.035H120.041V449.004H121.01V448.035ZM226.734 448.035H227.703V447.066H226.734V448.035ZM226.734 593.458V594.427H227.703V593.458H226.734ZM201.405 593.458V592.489H200.436V593.458H201.405ZM201.405 597.865H200.436V598.834H201.405V597.865ZM300.521 597.865H301.49V596.895H300.521V597.865ZM300.521 623.203H299.552V624.173H300.521V623.203ZM347.878 623.203V624.173H348.847V623.203H347.878ZM347.878 549.39H348.847V548.42H347.878V549.39ZM323.649 549.39H322.68V550.359H323.649V549.39ZM323.649 498.712V497.743H322.68V498.712H323.649ZM347.878 498.712V499.682H348.847V498.712H347.878ZM347.878 475.578H348.847V474.609H347.878V475.578ZM323.649 475.578H322.68V476.547H323.649V475.578ZM323.649 399.56V398.591H322.68V399.56H323.649ZM355.587 399.56V400.529H356.556V399.56H355.587ZM355.587 375.322H356.556V374.353H355.587V375.322ZM300.521 375.322V374.353H300.105L299.818 374.656L300.521 375.322ZM281.8 395.151V396.121H282.219L282.506 395.818L281.8 395.151ZM248.762 395.151H247.793V396.121H248.762V395.151ZM248.762 375.322H249.731V374.353H248.762V375.322ZM473.426 412.78V411.811H472.457V412.78H473.426ZM473.426 449.136H472.457V450.105H473.426V449.136ZM498.756 449.136H499.725V448.167H498.756V449.136ZM498.756 499.815V500.785H499.725V499.815H498.756ZM427.172 499.815H426.203V500.785H427.172V499.815ZM427.172 475.578H428.141V474.609H427.172V475.578ZM423.868 475.578V474.609H422.899V475.578H423.868ZM423.868 549.39V550.359H424.837V549.39H423.868ZM399.64 549.39V548.42H398.671V549.39H399.64ZM399.64 573.627H398.671V574.596H399.64V573.627ZM498.756 573.627H499.725V572.658H498.756V573.627ZM498.756 623.203H497.787V624.173H498.756V623.203ZM521.884 623.203V624.173H522.853V623.203H521.884ZM521.884 498.712V497.743H520.915V498.712H521.884ZM598.975 498.712H599.944V497.743H598.975V498.712ZM598.975 522.95H598.006V523.919H598.975V522.95ZM622.103 522.95V523.919H623.072V522.95H622.103ZM622.103 498.712V497.743H621.134V498.712H622.103ZM627.609 498.712V499.682H628.578V498.712H627.609ZM627.609 475.578H628.578V474.609H627.609V475.578ZM621.002 475.578L620.545 476.431L620.758 476.547H621.002V475.578ZM573.645 450.237L574.103 449.382L573.888 449.268H573.645V450.237ZM521.884 450.237H520.915V451.207H521.884V450.237ZM521.884 412.78H522.853V411.811H521.884V412.78ZM567.037 177.015V176.046H566.068V177.015H567.037ZM567.037 202.355V203.324H568.006V202.355H567.037ZM498.756 202.355V201.385H497.787V202.355H498.756ZM498.756 226.592V227.561H499.725V226.592H498.756ZM450.298 226.592V225.623H449.329V226.592H450.298ZM450.298 301.507V302.476H451.267V301.507H450.298ZM387.525 301.507V300.537H386.556V301.507H387.525ZM387.525 324.643H386.556V325.612H387.525V324.643ZM412.855 324.643H413.824V323.674H412.855V324.643ZM412.855 375.322V376.292H413.824V375.322H412.855ZM393.033 375.322V374.353H392.064V375.322H393.033ZM393.033 399.56H392.064V400.529H393.033V399.56ZM421.665 399.56H422.634V398.591H421.665V399.56ZM421.665 449.136H420.696V450.105H421.665V449.136ZM448.097 449.136V450.105H449.066V449.136H448.097ZM448.097 444.727H449.066V443.758H448.097V444.727ZM434.88 444.727H433.911V445.697H434.88V444.727ZM434.88 362.101V361.131H433.911V362.101H434.88ZM498.756 362.101H499.725V361.131H498.756V362.101ZM498.756 387.441H497.787V388.411H498.756V387.441ZM547.213 387.441V388.411H548.182V387.441H547.213ZM547.213 324.643V323.674H546.244V324.643H547.213ZM646.331 324.643V325.612H647.3V324.643H646.331ZM646.331 301.507H647.3V300.537H646.331V301.507ZM547.213 301.507H546.244V302.476H547.213V301.507ZM547.213 250.829V249.86H546.244V250.829H547.213ZM578.048 250.829V251.799H579.017V250.829H578.048ZM578.048 226.592H579.017V225.623H578.048V226.592ZM572.545 226.592H571.576V227.561H572.545V226.592ZM572.545 177.015H573.514V176.046H572.545V177.015ZM691.484 313.626V312.656H690.515V313.626H691.484ZM691.484 395.151V396.121H692.453V395.151H691.484ZM602.946 395.151H601.977V396.121H602.946V395.151ZM602.946 351.085H603.915V350.116H602.946V351.085ZM598.975 351.085V350.116H598.006V351.085H598.975ZM598.975 399.56H598.006V400.529H598.975V399.56ZM695.89 399.56V400.529H696.859V399.56H695.89ZM695.89 313.626H696.859V312.656H695.89V313.626ZM126.518 177.015V176.046H125.549V177.015H126.518ZM126.518 202.355V203.324H127.487V202.355H126.518ZM121.01 202.355V201.385H120.041V202.355H121.01ZM121.01 225.491H120.041V226.46H121.01V225.491ZM126.518 225.491H127.487V224.521H126.518V225.491ZM126.518 250.829H125.549V251.799H126.518V250.829ZM201.405 250.829H202.374V249.86H201.405V250.829ZM201.405 289.39V290.359H202.374V289.39H201.405ZM176.077 289.39V288.421H175.108V289.39H176.077ZM176.077 300.406H175.108V301.375H176.077V300.406ZM201.405 300.406H202.374V299.436H201.405V300.406ZM201.405 349.982H200.436V350.951H201.405V349.982ZM248.762 349.982V350.951H249.731V349.982H248.762ZM248.762 330.153V329.184H247.793V330.153H248.762ZM319.244 330.153H320.213V329.184H319.244V330.153ZM319.244 349.982H318.275V350.951H319.244V349.982ZM323.649 349.982V350.951H324.618V349.982H323.649ZM323.649 324.643V323.674H322.68V324.643H323.649ZM361.093 324.643V325.612H362.062V324.643H361.093ZM361.093 301.507H362.062V300.537H361.093V301.507ZM298.32 301.507H297.351V302.476H298.32V301.507ZM298.32 226.592H299.289V225.623H298.32V226.592ZM248.762 226.592H247.793V227.561H248.762V226.592ZM248.762 202.355H249.731V201.385H248.762V202.355ZM130.922 202.355H129.953V203.324H130.922V202.355ZM130.922 177.015H131.891V176.046H130.922V177.015ZM52.7306 276.168V275.199H51.7616V276.168H52.7306ZM52.7306 324.643H51.7616V325.612H52.7306V324.643ZM57.1345 324.643V325.612H58.1035V324.643H57.1345ZM57.1345 300.406V299.436H56.1655V300.406H57.1345ZM149.827 300.406V301.375H150.796V300.406H149.827ZM149.827 276.168H150.796V275.199H149.827V276.168ZM350.593 153.88V152.91H350.014L349.738 153.422L350.593 153.88ZM325.853 200.15L324.998 199.693L324.884 199.908V200.15H325.853ZM325.853 275.067H324.884V276.036H325.853V275.067ZM422.766 275.067V276.036H423.734V275.067H422.766ZM422.766 200.815H423.734V200.571L423.618 200.354L422.766 200.815ZM397.436 153.88L398.289 153.419L398.014 152.91H397.436V153.88ZM397.436 82.2692V83.2385H474.527V82.2692V81.2998H397.436V82.2692ZM474.527 82.2692H473.558V150.574H474.527H475.496V82.2692H474.527ZM474.527 150.574V151.543H521.884V150.574V149.605H474.527V150.574ZM521.884 150.574H522.853V126.337H521.884H520.915V150.574H521.884ZM521.884 126.337V127.306H647.432V126.337V125.367H521.884V126.337ZM647.432 126.337H646.463V226.592H647.432H648.401V126.337H647.432ZM647.432 226.592V225.623H617.696V226.592V227.561H647.432V226.592ZM617.696 226.592H616.727V250.829H617.696H618.665V226.592H617.696ZM617.696 250.829V251.799H691.484V250.829V249.86H617.696V250.829ZM691.484 250.829H690.515V287.186H691.484H692.453V250.829H691.484ZM691.484 287.186V288.155H695.89V287.186V286.216H691.484V287.186ZM695.89 287.186H696.859V262.948H695.89H694.921V287.186H695.89ZM695.89 262.948V263.918H747.649V262.948V261.979H695.89V262.948ZM747.649 262.948H746.68V395.151H747.649H748.618V262.948H747.649ZM747.649 395.151V394.182H722.32V395.151V396.121H747.649V395.151ZM722.32 395.151H721.351V399.56H722.32H723.289V395.151H722.32ZM722.32 399.56V400.529H747.649V399.56V398.591H722.32V399.56ZM747.649 399.56H746.68V450.237H747.649H748.618V399.56H747.649ZM747.649 450.237V449.268H672.764V450.237V451.207H747.649V450.237ZM672.764 450.237H671.795V475.578H672.764H673.733V450.237H672.764ZM672.764 475.578V474.609H667.256V475.578V476.547H672.764V475.578ZM667.256 475.578H666.287V498.189H667.256H668.225V475.578H667.256ZM667.256 498.189V499.158H697.49V498.189V497.219H667.256V498.189ZM697.49 498.189H696.521V574.728H697.49H698.459V498.189H697.49ZM697.49 574.728V573.759H598.975V574.728V575.698H697.49V574.728ZM598.975 574.728H598.006V673.882H598.975H599.944V574.728H598.975ZM598.975 673.882V672.913H498.756V673.882V674.852H598.975V673.882ZM498.756 673.882H497.787V710.239H498.756H499.725V673.882H498.756ZM498.756 710.239V711.208H524.087V710.239V709.269H498.756V710.239ZM524.087 710.239H523.118V778.545H524.087H525.056V710.239H524.087ZM524.087 778.545V777.575H493.25V778.545V779.514H524.087V778.545ZM493.25 778.545H492.281V782.949H493.25H494.219V778.545H493.25ZM493.25 782.949L492.711 782.143L426.636 826.213L427.172 827.02L427.709 827.826L493.787 783.756L493.25 782.949ZM427.172 827.02L426.738 826.153L417.928 830.558L418.362 831.424L418.797 832.293L427.605 827.886L427.172 827.02ZM418.362 831.424H417.393V878.798H418.362H419.331V831.424H418.362ZM418.362 878.798L417.676 878.112L414.372 881.417L415.058 882.104L415.742 882.79L419.048 879.482L418.362 878.798ZM415.058 882.104V881.134H334.663V882.104V883.073H415.058V882.104ZM334.663 882.104L335.492 881.605L332.19 876.096L331.359 876.594L330.529 877.092L333.831 882.602L334.663 882.104ZM331.359 876.594H332.328V835.833H331.359H330.39V876.594H331.359ZM331.359 835.833L331.684 834.92L224.859 796.821L224.533 797.732L224.207 798.645L331.035 836.746L331.359 835.833ZM224.533 797.732H225.502V705.832H224.533H223.564V797.732H224.533ZM224.533 705.832V706.801H248.762V705.832V704.863H224.533V705.832ZM248.762 705.832L249.731 705.844L250.382 649.657L249.413 649.645L248.444 649.633L247.793 705.82L248.762 705.832ZM249.413 649.645V648.676H149.645V649.645V650.614H249.413V649.645ZM149.645 649.645H150.614V549.392H149.645H148.676V649.645H149.645ZM149.645 549.392V550.361H174.975V549.392V548.422H149.645V549.392ZM174.975 549.392H175.944V487.697H174.975H174.006V549.392H174.975ZM174.975 487.697V486.727H169.948V487.697V488.666H174.975V487.697ZM169.948 487.697H168.979V513.035H169.948H170.917V487.697H169.948ZM169.948 513.035V512.066H51.6291V513.035V514.005H169.948V513.035ZM51.6291 513.035H52.5981V448.035H51.6291H50.6601V513.035H51.6291ZM51.6291 448.035V449.004H81.3632V448.035V447.066H51.6291V448.035ZM81.3632 448.035H82.3322V426H81.3632H80.3942V448.035H81.3632ZM81.3632 426V425.03H51.6291V426V426.969H81.3632V426ZM51.6291 426H52.5981V374.219H51.6291H50.6601V426H51.6291ZM51.6291 374.219V375.189H74.7562V374.219V373.25H51.6291V374.219ZM74.7562 374.219H75.7252V351.085H74.7562H73.7872V374.219H74.7562ZM74.7562 351.085V350.116H0.968992V351.085V352.054H74.7562V351.085ZM0.968992 351.085H1.93798V225.491H0.968992H0V351.085H0.968992ZM0.968992 225.491V226.46H81.8628V225.491V224.521H0.968992V225.491ZM81.8628 225.491H82.8318V202.955H81.8628H80.8938V225.491H81.8628ZM81.8628 202.955V201.986H50.9971V202.955V203.925H81.8628V202.955ZM50.9971 202.955H51.9661V126.337H50.9971H50.0281V202.955H50.9971ZM50.9971 126.337V127.306H176.077V126.337V125.367H50.9971V126.337ZM176.077 126.337H175.108V150.574H176.077H177.046V126.337H176.077ZM176.077 150.574V151.543H274.091V150.574V149.605H176.077V150.574ZM274.091 150.574H275.06V82.2692H274.091H273.122V150.574H274.091ZM274.091 82.2692V83.2385H340.169V82.2692V81.2998H274.091V82.2692ZM340.169 82.2692H341.138V34.8963H340.169H339.2V82.2692H340.169ZM340.169 34.8963V35.8657H397.436V34.8963V33.927H340.169V34.8963ZM397.436 34.8963H396.467V82.2692H397.436H398.405V34.8963H397.436ZM424.969 598.966H424V673.882H424.969H425.938V598.966H424.969ZM424.969 673.882V672.913H303.826V673.882V674.852H424.969V673.882ZM303.826 673.882H304.795V649.645H303.826H302.857V673.882H303.826ZM303.826 649.645V648.676H300.521V649.645V650.614H303.826V649.645ZM300.521 649.645H299.552V746.595H300.521H301.49V649.645H300.521ZM300.521 746.595V747.564H448.097V746.595V745.626H300.521V746.595ZM448.097 746.595H449.066V598.966H448.097H447.128V746.595H448.097ZM448.097 598.966V597.996H424.969V598.966V599.935H448.097V598.966ZM226.734 375.322H225.766V426H226.734H227.703V375.322H226.734ZM226.734 426V425.03H121.01V426V426.969H226.734V426ZM121.01 426H120.041V448.035H121.01H121.979V426H121.01ZM121.01 448.035V449.004H226.734V448.035V447.066H121.01V448.035ZM226.734 448.035H225.766V593.458H226.734H227.703V448.035H226.734ZM226.734 593.458V592.489H201.405V593.458V594.427H226.734V593.458ZM201.405 593.458H200.436V597.865H201.405H202.374V593.458H201.405ZM201.405 597.865V598.834H300.521V597.865V596.895H201.405V597.865ZM300.521 597.865H299.552V623.203H300.521H301.49V597.865H300.521ZM300.521 623.203V624.173H347.878V623.203V622.234H300.521V623.203ZM347.878 623.203H348.847V549.39H347.878H346.909V623.203H347.878ZM347.878 549.39V548.42H323.649V549.39V550.359H347.878V549.39ZM323.649 549.39H324.618V498.712H323.649H322.68V549.39H323.649ZM323.649 498.712V499.682H347.878V498.712V497.743H323.649V498.712ZM347.878 498.712H348.847V475.578H347.878H346.909V498.712H347.878ZM347.878 475.578V474.609H323.649V475.578V476.547H347.878V475.578ZM323.649 475.578H324.618V399.56H323.649H322.68V475.578H323.649ZM323.649 399.56V400.529H355.587V399.56V398.591H323.649V399.56ZM355.587 399.56H356.556V375.322H355.587H354.618V399.56H355.587ZM355.587 375.322V374.353H300.521V375.322V376.292H355.587V375.322ZM300.521 375.322L299.818 374.656L281.097 394.486L281.8 395.151L282.506 395.818L301.227 375.987L300.521 375.322ZM281.8 395.151V394.182H248.762V395.151V396.121H281.8V395.151ZM248.762 395.151H249.731V375.322H248.762H247.793V395.151H248.762ZM248.762 375.322V374.353H226.734V375.322V376.292H248.762V375.322ZM473.426 412.78H472.457V449.136H473.426H474.395V412.78H473.426ZM473.426 449.136V450.105H498.756V449.136V448.167H473.426V449.136ZM498.756 449.136H497.787V499.815H498.756H499.725V449.136H498.756ZM498.756 499.815V498.846H427.172V499.815V500.785H498.756V499.815ZM427.172 499.815H428.141V475.578H427.172H426.203V499.815H427.172ZM427.172 475.578V474.609H423.868V475.578V476.547H427.172V475.578ZM423.868 475.578H422.899V549.39H423.868H424.837V475.578H423.868ZM423.868 549.39V548.42H399.64V549.39V550.359H423.868V549.39ZM399.64 549.39H398.671V573.627H399.64H400.609V549.39H399.64ZM399.64 573.627V574.596H498.756V573.627V572.658H399.64V573.627ZM498.756 573.627H497.787V623.203H498.756H499.725V573.627H498.756ZM498.756 623.203V624.173H521.884V623.203V622.234H498.756V623.203ZM521.884 623.203H522.853V498.712H521.884H520.915V623.203H521.884ZM521.884 498.712V499.682H598.975V498.712V497.743H521.884V498.712ZM598.975 498.712H598.006V522.95H598.975H599.944V498.712H598.975ZM598.975 522.95V523.919H622.103V522.95V521.98H598.975V522.95ZM622.103 522.95H623.072V498.712H622.103H621.134V522.95H622.103ZM622.103 498.712V499.682H627.609V498.712V497.743H622.103V498.712ZM627.609 498.712H628.578V475.578H627.609H626.64V498.712H627.609ZM627.609 475.578V474.609H621.002V475.578V476.547H627.609V475.578ZM621.002 475.578L621.457 474.723L574.103 449.382L573.645 450.237L573.188 451.092L620.545 476.431L621.002 475.578ZM573.645 450.237V449.268H521.884V450.237V451.207H573.645V450.237ZM521.884 450.237H522.853V412.78H521.884H520.915V450.237H521.884ZM521.884 412.78V411.811H473.426V412.78V413.749H521.884V412.78ZM567.037 177.015H566.068V202.355H567.037H568.006V177.015H567.037ZM567.037 202.355V201.385H498.756V202.355V203.324H567.037V202.355ZM498.756 202.355H497.787V226.592H498.756H499.725V202.355H498.756ZM498.756 226.592V225.623H450.298V226.592V227.561H498.756V226.592ZM450.298 226.592H449.329V301.507H450.298H451.267V226.592H450.298ZM450.298 301.507V300.537H387.525V301.507V302.476H450.298V301.507ZM387.525 301.507H386.556V324.643H387.525H388.494V301.507H387.525ZM387.525 324.643V325.612H412.855V324.643V323.674H387.525V324.643ZM412.855 324.643H411.886V375.322H412.855H413.824V324.643H412.855ZM412.855 375.322V374.353H393.033V375.322V376.292H412.855V375.322ZM393.033 375.322H392.064V399.56H393.033H394.002V375.322H393.033ZM393.033 399.56V400.529H421.665V399.56V398.591H393.033V399.56ZM421.665 399.56H420.696V449.136H421.665H422.634V399.56H421.665ZM421.665 449.136V450.105H448.097V449.136V448.167H421.665V449.136ZM448.097 449.136H449.066V444.727H448.097H447.128V449.136H448.097ZM448.097 444.727V443.758H434.88V444.727V445.697H448.097V444.727ZM434.88 444.727H435.849V362.101H434.88H433.911V444.727H434.88ZM434.88 362.101V363.07H498.756V362.101V361.131H434.88V362.101ZM498.756 362.101H497.787V387.441H498.756H499.725V362.101H498.756ZM498.756 387.441V388.411H547.213V387.441V386.472H498.756V387.441ZM547.213 387.441H548.182V324.643H547.213H546.244V387.441H547.213ZM547.213 324.643V325.612H646.331V324.643V323.674H547.213V324.643ZM646.331 324.643H647.3V301.507H646.331H645.362V324.643H646.331ZM646.331 301.507V300.537H547.213V301.507V302.476H646.331V301.507ZM547.213 301.507H548.182V250.829H547.213H546.244V301.507H547.213ZM547.213 250.829V251.799H578.048V250.829V249.86H547.213V250.829ZM578.048 250.829H579.017V226.592H578.048H577.079V250.829H578.048ZM578.048 226.592V225.623H572.545V226.592V227.561H578.048V226.592ZM572.545 226.592H573.514V177.015H572.545H571.576V226.592H572.545ZM572.545 177.015V176.046H567.037V177.015V177.984H572.545V177.015ZM691.484 313.626H690.515V395.151H691.484H692.453V313.626H691.484ZM691.484 395.151V394.182H602.946V395.151V396.121H691.484V395.151ZM602.946 395.151H603.915V351.085H602.946H601.977V395.151H602.946ZM602.946 351.085V350.116H598.975V351.085V352.054H602.946V351.085ZM598.975 351.085H598.006V399.56H598.975H599.944V351.085H598.975ZM598.975 399.56V400.529H695.89V399.56V398.591H598.975V399.56ZM695.89 399.56H696.859V313.626H695.89H694.921V399.56H695.89ZM695.89 313.626V312.656H691.484V313.626V314.595H695.89V313.626ZM126.518 177.015H125.549V202.355H126.518H127.487V177.015H126.518ZM126.518 202.355V201.385H121.01V202.355V203.324H126.518V202.355ZM121.01 202.355H120.041V225.491H121.01H121.979V202.355H121.01ZM121.01 225.491V226.46H126.518V225.491V224.521H121.01V225.491ZM126.518 225.491H125.549V250.829H126.518H127.487V225.491H126.518ZM126.518 250.829V251.799H201.405V250.829V249.86H126.518V250.829ZM201.405 250.829H200.436V289.39H201.405H202.374V250.829H201.405ZM201.405 289.39V288.421H176.077V289.39V290.359H201.405V289.39ZM176.077 289.39H175.108V300.406H176.077H177.046V289.39H176.077ZM176.077 300.406V301.375H201.405V300.406V299.436H176.077V300.406ZM201.405 300.406H200.436V349.982H201.405H202.374V300.406H201.405ZM201.405 349.982V350.951H248.762V349.982V349.012H201.405V349.982ZM248.762 349.982H249.731V330.153H248.762H247.793V349.982H248.762ZM248.762 330.153V331.122H319.244V330.153V329.184H248.762V330.153ZM319.244 330.153H318.275V349.982H319.244H320.213V330.153H319.244ZM319.244 349.982V350.951H323.649V349.982V349.012H319.244V349.982ZM323.649 349.982H324.618V324.643H323.649H322.68V349.982H323.649ZM323.649 324.643V325.612H361.093V324.643V323.674H323.649V324.643ZM361.093 324.643H362.062V301.507H361.093H360.124V324.643H361.093ZM361.093 301.507V300.537H298.32V301.507V302.476H361.093V301.507ZM298.32 301.507H299.289V226.592H298.32H297.351V301.507H298.32ZM298.32 226.592V225.623H248.762V226.592V227.561H298.32V226.592ZM248.762 226.592H249.731V202.355H248.762H247.793V226.592H248.762ZM248.762 202.355V201.385H130.922V202.355V203.324H248.762V202.355ZM130.922 202.355H131.891V177.015H130.922H129.953V202.355H130.922ZM130.922 177.015V176.046H126.518V177.015V177.984H130.922V177.015ZM52.7306 276.168H51.7616V324.643H52.7306H53.6996V276.168H52.7306ZM52.7306 324.643V325.612H57.1345V324.643V323.674H52.7306V324.643ZM57.1345 324.643H58.1035V300.406H57.1345H56.1655V324.643H57.1345ZM57.1345 300.406V301.375H149.827V300.406V299.436H57.1345V300.406ZM149.827 300.406H150.796V276.168H149.827H148.858V300.406H149.827ZM149.827 276.168V275.199H52.7306V276.168V277.138H149.827V276.168ZM350.593 153.88L349.738 153.422L324.998 199.693L325.853 200.15L326.707 200.608L351.448 154.337L350.593 153.88ZM325.853 200.15H324.884V275.067H325.853H326.822V200.15H325.853ZM325.853 275.067V276.036H422.766V275.067V274.098H325.853V275.067ZM422.766 275.067H423.734V200.815H422.766H421.797V275.067H422.766ZM422.766 200.815L423.618 200.354L398.289 153.419L397.436 153.88L396.583 154.34L421.913 201.277L422.766 200.815ZM397.436 153.88V152.91H350.593V153.88V154.849H397.436V153.88Z" fill="#674A81"/>
<path d="M149.644 300.406V305.915H176.075V300.406M52.7298 276.168V264.049H63.7428V276.168M0.96875 281.678H13.0831V293.797H0.96875M26.2986 351.085V276.168M182.683 426V412.78H193.696V426M126.517 448.033V462.356H138.631V448.033M51.6284 499.813H63.7428V513.033M287.306 597.865V611.084H300.523M347.878 580.238H361.093V591.256H347.878M572.542 450.237L579.151 439.22L589.062 444.729L582.455 455.745M695.889 344.474H709.104V355.492H695.889M691.484 351.085H679.37V362.101H691.484M646.331 324.643V336.762H635.318V324.643M592.366 301.507V288.287H603.38V301.507M421.664 446.932H398.539V449.136H421.664M423.868 506.424H411.754V517.44H423.868M374.31 673.883V660.663H424.969M448.097 661.764H460.211V686.001H448.097M554.922 673.883V661.764H565.936V673.883M521.883 623.203H535.099V612.188H521.883M641.924 574.73V562.611H652.938V574.73M672.761 450.237V426H684.876V450.237M152.948 338.966H176.075V387.441H152.948V338.966ZM560.428 574.73H598.975V582.44H560.428V574.73Z" stroke="#674A81"/>
<path d="M398.537 446.932H375.411V498.712H377.613V479.983M377.613 479.983H383.12V468.967H377.613M377.613 479.983V468.967M398.537 449.136H377.613V468.967M288.407 820.409L293.915 817.103L297.219 808.29L303.826 810.492L300.522 819.307L301.624 824.815M375.411 882.103V876.596L386.423 867.78L396.335 876.596V882.103M453.603 809.391V803.883L448.097 797.272L454.704 791.764L460.211 799.477L464.616 801.679M169.468 649.645V643.034H181.582V649.645M126.517 250.829C126.517 251.171 126.517 253.834 126.517 257.44M126.517 257.44C126.517 263.148 126.517 271.217 126.517 276.168M126.517 257.44H121.01V246.423H126.517M361.093 313.626H387.525M387.525 321.338H361.093M412.855 362.101L399.64 375.322M585.758 582.44V594.559H598.975M684.876 426H696.99M365.498 781.848L359.992 792.866C361.828 796.538 366.601 803.883 366.601 803.883C366.601 803.883 375.043 803.883 378.715 803.883L385.322 792.866L378.715 781.848H365.498ZM137.53 323.542H101.187V402.863H138.631V400.661H103.39V325.744H137.53V323.542Z" stroke="#674A81" stroke-width="0.5"/>
<path d="M103.39 351.085H114.403V375.322H103.39" stroke="#674A81"/>
<path d="M154.05 344.474H165.063V381.932H154.05" stroke="#784E9D"/>
<path d="M690.384 394.05H604.078V325.744H690.384V394.05ZM678.399 350.116V363.07H690.25V350.116H678.399ZM634.349 325.878V337.731H647.299V325.878H634.349Z" fill="#4F276A"/>
<path d="M633.332 366.901H630.333L635.791 351.391H639.258L644.725 366.901H641.727L637.585 354.573H637.465L633.332 366.901ZM633.43 360.821H641.605V363.078H633.43V360.821Z" fill="white"/>
<path d="M176.076 400.041H103.94V376.292H115.371V350.116H103.94V326.336H176.076V400.041ZM151.979 337.997V345.445H164.094V380.962H151.979V388.411H175.943V337.997H151.979Z" fill="#4F276A"/>
<path d="M126.944 364.698V349.189H132.879C134 349.189 134.931 349.365 135.673 349.718C136.42 350.067 136.977 350.544 137.346 351.149C137.719 351.756 137.906 352.442 137.906 353.21C137.906 353.84 137.785 354.381 137.543 354.831C137.301 355.275 136.975 355.635 136.566 355.912C136.157 356.192 135.701 356.391 135.196 356.511V356.663C135.746 356.694 136.273 356.862 136.778 357.171C137.288 357.473 137.704 357.903 138.027 358.458C138.35 359.012 138.512 359.685 138.512 360.472C138.512 361.275 138.317 361.998 137.929 362.638C137.54 363.274 136.955 363.776 136.172 364.146C135.39 364.514 134.406 364.698 133.22 364.698H126.944ZM129.753 362.351H132.773C133.793 362.351 134.527 362.157 134.976 361.767C135.431 361.374 135.658 360.868 135.658 360.253C135.658 359.794 135.544 359.379 135.317 359.01C135.09 358.636 134.767 358.343 134.348 358.132C133.929 357.915 133.43 357.806 132.849 357.806H129.753V362.351ZM129.753 355.784H132.531C133.016 355.784 133.452 355.697 133.841 355.519C134.229 355.338 134.535 355.083 134.757 354.755C134.984 354.421 135.097 354.028 135.097 353.572C135.097 352.973 134.886 352.477 134.462 352.089C134.043 351.7 133.42 351.506 132.592 351.506H129.753V355.784Z" fill="white"/>
<path d="M284.004 605.092C286.169 605.092 287.924 603.336 287.924 601.17C287.924 599.004 286.169 597.248 284.004 597.248C281.838 597.248 280.083 599.004 280.083 601.17C280.083 603.336 281.838 605.092 284.004 605.092Z" stroke="#674A81" stroke-width="0.5"/>
<path d="M371.006 666.787C372.563 666.787 373.825 665.524 373.825 663.966C373.825 662.408 372.563 661.146 371.006 661.146C369.449 661.146 368.187 662.408 368.187 663.966C368.187 665.524 369.449 666.787 371.006 666.787Z" stroke="#674A81" stroke-width="0.5"/>
<path d="M371.006 673.397C372.563 673.397 373.825 672.135 373.825 670.577C373.825 669.019 372.563 667.757 371.006 667.757C369.449 667.757 368.187 669.019 368.187 670.577C368.187 672.135 369.449 673.397 371.006 673.397Z" stroke="#674A81" stroke-width="0.5"/>
</svg>
