<svg width="750" height="917" viewBox="0 0 750 917" fill="none" xmlns="http://www.w3.org/2000/svg">
<path d="M352.151 834.73H275.06V766.426H227.704V790.663H102.155V690.408H131.891V666.17H58.1035V629.814H53.6977V654.052H1.93799V521.849H27.268V517.44H1.93799V466.763H76.8248V441.422H82.3322V418.811H52.0965V342.272H150.612V243.117H250.831V206.761H225.5V138.455H256.339V134.05L322.415 89.9805L331.225 85.5749V38.202L334.529 34.8964H414.926L418.229 40.4057V81.1674L525.054 119.267V211.168H500.826L500.174 267.355H599.942V367.608H574.612V429.303H579.64V403.965H697.957V468.965H668.225V491H697.957V542.781H674.831V565.915H748.618V691.509H667.725V714.044H698.591V790.663H573.512V766.426H475.496V834.73H409.419V882.104H352.151V834.73ZM324.618 318.034V243.117H445.762V267.355H449.066V170.406H301.49V318.034H324.618ZM522.853 541.677V491H628.578V468.965H522.853V323.542H548.182V319.135H449.066V293.797H401.709V367.61H425.938V418.288H401.709V441.422H425.938V517.44H394V541.677H449.066L467.787 521.849H500.826V541.677H522.853ZM276.161 504.22V467.864H250.831V417.185H322.415V441.422H325.719V367.61H349.948V343.373H250.831V293.797H227.704V418.288H150.612V394.05H127.485V418.288H121.979V441.422H128.586L175.942 466.763H227.704V504.22H276.161ZM182.551 739.984V714.645H250.831V690.408H299.289V615.493H362.062V592.357H336.733V541.677H356.554V517.44H327.922V467.864H301.49V472.272H314.707V554.899H250.831V529.559H202.374V592.357H103.256V615.493H202.374V666.17H171.538V690.408H177.044V739.984H182.551ZM58.1035 603.374V521.849H146.641V565.915H150.612V517.44H53.6977V603.374H58.1035ZM623.07 739.984V714.645H628.578V691.509H623.07V666.17H548.182V627.61H573.512V616.594H548.182V567.018H500.826V586.847H430.343V567.018H425.938V592.357H388.494V615.493H451.267V690.408H500.826V714.645H618.665V739.984H623.07ZM696.857 640.832V592.357H692.454V616.594H599.762V640.832H696.857ZM398.994 763.12L423.735 716.85V641.933H326.822V716.185L352.151 763.12H398.994Z" fill="#26003A"/>
<path d="M352.151 834.73H353.12V833.76H352.151V834.73ZM275.06 834.73H274.091V835.699H275.06V834.73ZM275.06 766.426H276.029V765.456H275.06V766.426ZM227.703 766.426V765.456H226.734V766.426H227.703ZM227.703 790.663V791.633H228.672V790.663H227.703ZM102.155 790.663H101.186V791.633H102.155V790.663ZM102.155 690.408V689.439H101.186V690.408H102.155ZM131.891 690.408V691.377H132.86V690.408H131.891ZM131.891 666.17H132.86V665.201H131.891V666.17ZM58.1032 666.17H57.1343V667.14H58.1032V666.17ZM58.1032 629.814H59.0722V628.845H58.1032V629.814ZM53.6974 629.814V628.845H52.7284V629.814H53.6974ZM53.6974 654.052V655.021H54.6664V654.052H53.6974ZM1.93774 654.052H0.96875V655.021H1.93774V654.052ZM1.93774 521.849V520.879H0.96875V521.849H1.93774ZM27.2678 521.849V522.818H28.2368V521.849H27.2678ZM27.2678 517.44H28.2368V516.471H27.2678V517.44ZM1.93774 517.44H0.96875V518.409H1.93774V517.44ZM1.93774 466.763V465.793H0.96875V466.763H1.93774ZM76.8246 466.763V467.732H77.7936V466.763H76.8246ZM76.8246 441.422V440.453H75.8556V441.422H76.8246ZM82.3319 441.422V442.391H83.3009V441.422H82.3319ZM82.3319 418.811H83.3009V417.842H82.3319V418.811ZM52.0963 418.811H51.1273V419.78H52.0963V418.811ZM52.0963 342.272V341.302H51.1273V342.272H52.0963ZM150.612 342.272V343.241H151.581V342.272H150.612ZM150.612 243.117V242.148H149.643V243.117H150.612ZM250.831 243.117V244.087H251.8V243.117H250.831ZM250.831 206.761H251.8V205.792H250.831V206.761ZM225.5 206.761H224.531V207.73H225.5V206.761ZM225.5 138.455V137.486H224.531V138.455H225.5ZM256.339 138.455V139.425H257.308V138.455H256.339ZM256.339 134.05L255.8 133.243L255.37 133.531V134.05H256.339ZM322.414 89.9805L321.982 89.1135L321.928 89.1405L321.878 89.174L322.414 89.9805ZM331.225 85.5748L331.659 86.442L332.194 86.1741V85.5748H331.225ZM331.225 38.202L330.54 37.5165L330.256 37.8005V38.202H331.225ZM334.529 34.8963V33.927H334.128L333.845 34.211L334.529 34.8963ZM414.926 34.8963L415.756 34.3979L415.475 33.927H414.926V34.8963ZM418.228 40.4057H419.197V40.1374L419.058 39.9073L418.228 40.4057ZM418.228 81.1674H417.259V81.851L417.903 82.0806L418.228 81.1674ZM525.054 119.267H526.023V118.584L525.38 118.354L525.054 119.267ZM525.054 211.168V212.137H526.023V211.168H525.054ZM500.825 211.168V210.198H499.868L499.856 211.156L500.825 211.168ZM500.174 267.355L499.205 267.343L499.194 268.324H500.174V267.355ZM599.942 267.355H600.911V266.386H599.942V267.355ZM599.942 367.608V368.578H600.911V367.608H599.942ZM574.612 367.608V366.639H573.643V367.608H574.612ZM574.612 429.303H573.643V430.273H574.612V429.303ZM579.639 429.303V430.273H580.608V429.303H579.639ZM579.639 403.965V402.995H578.67V403.965H579.639ZM697.957 403.965H698.926V402.995H697.957V403.965ZM697.957 468.965V469.934H698.926V468.965H697.957ZM668.225 468.965V467.996H667.256V468.965H668.225ZM668.225 491H667.256V491.969H668.225V491ZM697.957 491H698.926V490.031H697.957V491ZM697.957 542.781V543.75H698.926V542.781H697.957ZM674.831 542.781V541.811H673.862V542.781H674.831ZM674.831 565.915H673.862V566.884H674.831V565.915ZM748.618 565.915H749.587V564.946H748.618V565.915ZM748.618 691.509V692.478H749.587V691.509H748.618ZM667.725 691.509V690.54H666.756V691.509H667.725ZM667.725 714.044H666.756V715.014H667.725V714.044ZM698.591 714.044H699.56V713.075H698.591V714.044ZM698.591 790.663V791.633H699.56V790.663H698.591ZM573.511 790.663H572.542V791.633H573.511V790.663ZM573.511 766.426H574.48V765.456H573.511V766.426ZM475.496 766.426V765.456H474.527V766.426H475.496ZM475.496 834.73V835.699H476.465V834.73H475.496ZM409.418 834.73V833.76H408.449V834.73H409.418ZM409.418 882.104V883.073H410.387V882.104H409.418ZM352.151 882.104H351.182V883.073H352.151V882.104ZM324.618 318.034V319.004H325.587V318.034H324.618ZM324.618 243.117V242.148H323.649V243.117H324.618ZM445.761 243.117H446.73V242.148H445.761V243.117ZM445.761 267.355H444.792V268.324H445.761V267.355ZM449.066 267.355V268.324H450.035V267.355H449.066ZM449.066 170.406H450.035V169.437H449.066V170.406ZM301.49 170.406V169.437H300.521V170.406H301.49ZM301.49 318.034H300.521V319.004H301.49V318.034ZM522.852 541.677V542.647H523.821V541.677H522.852ZM522.852 491V490.031H521.883V491H522.852ZM628.577 491V491.969H629.546V491H628.577ZM628.577 468.965H629.546V467.996H628.577V468.965ZM522.852 468.965H521.883V469.934H522.852V468.965ZM522.852 323.542V322.573H521.883V323.542H522.852ZM548.182 323.542V324.511H549.151V323.542H548.182ZM548.182 319.135H549.151V318.166H548.182V319.135ZM449.066 319.135H448.097V320.105H449.066V319.135ZM449.066 293.797H450.035V292.827H449.066V293.797ZM401.709 293.797V292.827H400.74V293.797H401.709ZM401.709 367.61H400.74V368.58H401.709V367.61ZM425.938 367.61H426.907V366.641H425.938V367.61ZM425.938 418.288V419.257H426.907V418.288H425.938ZM401.709 418.288V417.318H400.74V418.288H401.709ZM401.709 441.422H400.74V442.391H401.709V441.422ZM425.938 441.422H426.907V440.453H425.938V441.422ZM425.938 517.44V518.409H426.907V517.44H425.938ZM394 517.44V516.471H393.031V517.44H394ZM394 541.677H393.031V542.647H394V541.677ZM449.066 541.677V542.647H449.482L449.769 542.344L449.066 541.677ZM467.787 521.849V520.879H467.368L467.081 521.182L467.787 521.849ZM500.825 521.849H501.794V520.879H500.825V521.849ZM500.825 541.677H499.856V542.647H500.825V541.677ZM276.161 504.22V505.189H277.13V504.22H276.161ZM276.161 467.864H277.13V466.894H276.161V467.864ZM250.831 467.864H249.862V468.833H250.831V467.864ZM250.831 417.185V416.215H249.862V417.185H250.831ZM322.414 417.185H323.383V416.215H322.414V417.185ZM322.414 441.422H321.445V442.391H322.414V441.422ZM325.719 441.422V442.391H326.688V441.422H325.719ZM325.719 367.61V366.641H324.75V367.61H325.719ZM349.947 367.61V368.58H350.916V367.61H349.947ZM349.947 343.373H350.916V342.403H349.947V343.373ZM250.831 343.373H249.862V344.342H250.831V343.373ZM250.831 293.797H251.8V292.827H250.831V293.797ZM227.703 293.797V292.827H226.734V293.797H227.703ZM227.703 418.288V419.257H228.672V418.288H227.703ZM150.612 418.288H149.643V419.257H150.612V418.288ZM150.612 394.05H151.581V393.081H150.612V394.05ZM127.485 394.05V393.081H126.516V394.05H127.485ZM127.485 418.288V419.257H128.454V418.288H127.485ZM121.979 418.288V417.318H121.01V418.288H121.979ZM121.979 441.422H121.01V442.391H121.979V441.422ZM128.586 441.422L129.043 440.569L128.829 440.453H128.586V441.422ZM175.942 466.763L175.485 467.618L175.699 467.732H175.942V466.763ZM227.703 466.763H228.672V465.793H227.703V466.763ZM227.703 504.22H226.734V505.189H227.703V504.22ZM182.551 739.984V740.953H183.52V739.984H182.551ZM182.551 714.645V713.676H181.582V714.645H182.551ZM250.831 714.645V715.615H251.8V714.645H250.831ZM250.831 690.408V689.439H249.862V690.408H250.831ZM299.289 690.408V691.377H300.258V690.408H299.289ZM299.289 615.493V614.524H298.32V615.493H299.289ZM362.062 615.493V616.462H363.031V615.493H362.062ZM362.062 592.357H363.031V591.387H362.062V592.357ZM336.732 592.357H335.763V593.326H336.732V592.357ZM336.732 541.677V540.708H335.763V541.677H336.732ZM356.554 541.677V542.647H357.523V541.677H356.554ZM356.554 517.44H357.523V516.471H356.554V517.44ZM327.922 517.44H326.953V518.409H327.922V517.44ZM327.922 467.864H328.891V466.894H327.922V467.864ZM301.49 467.864V466.894H300.521V467.864H301.49ZM301.49 472.272H300.521V473.242H301.49V472.272ZM314.707 472.272H315.676V471.303H314.707V472.272ZM314.707 554.899V555.869H315.676V554.899H314.707ZM250.831 554.899H249.862V555.869H250.831V554.899ZM250.831 529.559H251.8V528.589H250.831V529.559ZM202.374 529.559V528.589H201.405V529.559H202.374ZM202.374 592.357V593.326H203.343V592.357H202.374ZM103.256 592.357V591.387H102.287V592.357H103.256ZM103.256 615.493H102.287V616.462H103.256V615.493ZM202.374 615.493H203.343V614.524H202.374V615.493ZM202.374 666.17V667.14H203.343V666.17H202.374ZM171.538 666.17V665.201H170.569V666.17H171.538ZM171.538 690.408H170.569V691.377H171.538V690.408ZM177.043 690.408H178.012V689.439H177.043V690.408ZM177.043 739.984H176.074V740.953H177.043V739.984ZM58.1032 603.374V604.344H59.0722V603.374H58.1032ZM58.1032 521.849V520.879H57.1343V521.849H58.1032ZM146.641 521.849H147.61V520.879H146.641V521.849ZM146.641 565.915H145.672V566.884H146.641V565.915ZM150.612 565.915V566.884H151.581V565.915H150.612ZM150.612 517.44H151.581V516.471H150.612V517.44ZM53.6974 517.44V516.471H52.7284V517.44H53.6974ZM53.6974 603.374H52.7284V604.344H53.6974V603.374ZM623.07 739.984V740.953H624.039V739.984H623.07ZM623.07 714.645V713.676H622.101V714.645H623.07ZM628.577 714.645V715.615H629.546V714.645H628.577ZM628.577 691.509H629.546V690.54H628.577V691.509ZM623.07 691.509H622.101V692.478H623.07V691.509ZM623.07 666.17H624.039V665.201H623.07V666.17ZM548.182 666.17H547.213V667.14H548.182V666.17ZM548.182 627.61V626.641H547.213V627.61H548.182ZM573.511 627.61V628.579H574.48V627.61H573.511ZM573.511 616.594H574.48V615.625H573.511V616.594ZM548.182 616.594H547.213V617.564H548.182V616.594ZM548.182 567.018H549.151V566.049H548.182V567.018ZM500.825 567.018V566.049H499.856V567.018H500.825ZM500.825 586.847V587.816H501.794V586.847H500.825ZM430.343 586.847H429.374V587.816H430.343V586.847ZM430.343 567.018H431.312V566.049H430.343V567.018ZM425.938 567.018V566.049H424.969V567.018H425.938ZM425.938 592.357V593.326H426.907V592.357H425.938ZM388.494 592.357V591.387H387.525V592.357H388.494ZM388.494 615.493H387.525V616.462H388.494V615.493ZM451.267 615.493H452.236V614.524H451.267V615.493ZM451.267 690.408H450.298V691.377H451.267V690.408ZM500.825 690.408H501.794V689.439H500.825V690.408ZM500.825 714.645H499.856V715.615H500.825V714.645ZM618.664 714.645H619.633V713.676H618.664V714.645ZM618.664 739.984H617.695V740.953H618.664V739.984ZM696.856 640.832V641.801H697.825V640.832H696.856ZM696.856 592.357H697.825V591.387H696.856V592.357ZM692.453 592.357V591.387H691.484V592.357H692.453ZM692.453 616.594V617.564H693.422V616.594H692.453ZM599.761 616.594V615.625H598.792V616.594H599.761ZM599.761 640.832H598.792V641.801H599.761V640.832ZM398.994 763.12V764.09H399.573L399.849 763.578L398.994 763.12ZM423.734 716.85L424.589 717.307L424.703 717.092V716.85H423.734ZM423.734 641.933H424.703V640.964H423.734V641.933ZM326.821 641.933V640.964H325.852V641.933H326.821ZM326.821 716.185H325.852V716.429L325.969 716.646L326.821 716.185ZM352.151 763.12L351.298 763.58L351.573 764.09H352.151V763.12ZM352.151 834.73V833.76H275.06V834.73V835.699H352.151V834.73ZM275.06 834.73H276.029V766.426H275.06H274.091V834.73H275.06ZM275.06 766.426V765.456H227.703V766.426V767.395H275.06V766.426ZM227.703 766.426H226.734V790.663H227.703H228.672V766.426H227.703ZM227.703 790.663V789.694H102.155V790.663V791.633H227.703V790.663ZM102.155 790.663H103.124V690.408H102.155H101.186V790.663H102.155ZM102.155 690.408V691.377H131.891V690.408V689.439H102.155V690.408ZM131.891 690.408H132.86V666.17H131.891H130.922V690.408H131.891ZM131.891 666.17V665.201H58.1032V666.17V667.14H131.891V666.17ZM58.1032 666.17H59.0722V629.814H58.1032H57.1343V666.17H58.1032ZM58.1032 629.814V628.845H53.6974V629.814V630.783H58.1032V629.814ZM53.6974 629.814H52.7284V654.052H53.6974H54.6664V629.814H53.6974ZM53.6974 654.052V653.082H1.93774V654.052V655.021H53.6974V654.052ZM1.93774 654.052H2.90673V521.849H1.93774H0.96875V654.052H1.93774ZM1.93774 521.849V522.818H27.2678V521.849V520.879H1.93774V521.849ZM27.2678 521.849H28.2368V517.44H27.2678H26.2988V521.849H27.2678ZM27.2678 517.44V516.471H1.93774V517.44V518.409H27.2678V517.44ZM1.93774 517.44H2.90673V466.763H1.93774H0.96875V517.44H1.93774ZM1.93774 466.763V467.732H76.8246V466.763V465.793H1.93774V466.763ZM76.8246 466.763H77.7936V441.422H76.8246H75.8556V466.763H76.8246ZM76.8246 441.422V442.391H82.3319V441.422V440.453H76.8246V441.422ZM82.3319 441.422H83.3009V418.811H82.3319H81.3629V441.422H82.3319ZM82.3319 418.811V417.842H52.0963V418.811V419.78H82.3319V418.811ZM52.0963 418.811H53.0653V342.272H52.0963H51.1273V418.811H52.0963ZM52.0963 342.272V343.241H150.612V342.272V341.302H52.0963V342.272ZM150.612 342.272H151.581V243.117H150.612H149.643V342.272H150.612ZM150.612 243.117V244.087H250.831V243.117V242.148H150.612V243.117ZM250.831 243.117H251.8V206.761H250.831H249.862V243.117H250.831ZM250.831 206.761V205.792H225.5V206.761V207.73H250.831V206.761ZM225.5 206.761H226.469V138.455H225.5H224.531V206.761H225.5ZM225.5 138.455V139.425H256.339V138.455V137.486H225.5V138.455ZM256.339 138.455H257.308V134.05H256.339H255.37V138.455H256.339ZM256.339 134.05L256.876 134.856L322.953 90.787L322.414 89.9805L321.878 89.174L255.8 133.243L256.339 134.05ZM322.414 89.9805L322.849 90.8475L331.659 86.442L331.225 85.5748L330.792 84.7079L321.982 89.1135L322.414 89.9805ZM331.225 85.5748H332.194V38.202H331.225H330.256V85.5748H331.225ZM331.225 38.202L331.911 38.8873L335.215 35.5817L334.529 34.8963L333.845 34.211L330.54 37.5165L331.225 38.202ZM334.529 34.8963V35.8657H414.926V34.8963V33.927H334.529V34.8963ZM414.926 34.8963L414.095 35.3948L417.397 40.9042L418.228 40.4057L419.058 39.9073L415.756 34.3979L414.926 34.8963ZM418.228 40.4057H417.259V81.1674H418.228H419.197V40.4057H418.228ZM418.228 81.1674L417.903 82.0806L524.728 120.18L525.054 119.267L525.38 118.354L418.554 80.2543L418.228 81.1674ZM525.054 119.267H524.085V211.168H525.054H526.023V119.267H525.054ZM525.054 211.168V210.198H500.825V211.168V212.137H525.054V211.168ZM500.825 211.168L499.856 211.156L499.205 267.343L500.174 267.355L501.143 267.367L501.794 211.179L500.825 211.168ZM500.174 267.355V268.324H599.942V267.355V266.386H500.174V267.355ZM599.942 267.355H598.973V367.608H599.942H600.911V267.355H599.942ZM599.942 367.608V366.639H574.612V367.608V368.578H599.942V367.608ZM574.612 367.608H573.643V429.303H574.612H575.581V367.608H574.612ZM574.612 429.303V430.273H579.639V429.303V428.334H574.612V429.303ZM579.639 429.303H580.608V403.965H579.639H578.67V429.303H579.639ZM579.639 403.965V404.934H697.957V403.965V402.995H579.639V403.965ZM697.957 403.965H696.988V468.965H697.957H698.926V403.965H697.957ZM697.957 468.965V467.996H668.225V468.965V469.934H697.957V468.965ZM668.225 468.965H667.256V491H668.225H669.194V468.965H668.225ZM668.225 491V491.969H697.957V491V490.031H668.225V491ZM697.957 491H696.988V542.781H697.957H698.926V491H697.957ZM697.957 542.781V541.811H674.831V542.781V543.75H697.957V542.781ZM674.831 542.781H673.862V565.915H674.831H675.8V542.781H674.831ZM674.831 565.915V566.884H748.618V565.915V564.946H674.831V565.915ZM748.618 565.915H747.649V691.509H748.618H749.587V565.915H748.618ZM748.618 691.509V690.54H667.725V691.509V692.478H748.618V691.509ZM667.725 691.509H666.756V714.044H667.725H668.694V691.509H667.725ZM667.725 714.044V715.014H698.591V714.044V713.075H667.725V714.044ZM698.591 714.044H697.622V790.663H698.591H699.56V714.044H698.591ZM698.591 790.663V789.694H573.511V790.663V791.633H698.591V790.663ZM573.511 790.663H574.48V766.426H573.511H572.542V790.663H573.511ZM573.511 766.426V765.456H475.496V766.426V767.395H573.511V766.426ZM475.496 766.426H474.527V834.73H475.496H476.465V766.426H475.496ZM475.496 834.73V833.76H409.418V834.73V835.699H475.496V834.73ZM409.418 834.73H408.449V882.104H409.418H410.387V834.73H409.418ZM409.418 882.104V881.134H352.151V882.104V883.073H409.418V882.104ZM352.151 882.104H353.12V834.73H352.151H351.182V882.104H352.151ZM324.618 318.034H325.587V243.117H324.618H323.649V318.034H324.618ZM324.618 243.117V244.087H445.761V243.117V242.148H324.618V243.117ZM445.761 243.117H444.792V267.355H445.761H446.73V243.117H445.761ZM445.761 267.355V268.324H449.066V267.355V266.386H445.761V267.355ZM449.066 267.355H450.035V170.406H449.066H448.097V267.355H449.066ZM449.066 170.406V169.437H301.49V170.406V171.375H449.066V170.406ZM301.49 170.406H300.521V318.034H301.49H302.459V170.406H301.49ZM301.49 318.034V319.004H324.618V318.034V317.065H301.49V318.034ZM522.852 541.677H523.821V491H522.852H521.883V541.677H522.852ZM522.852 491V491.969H628.577V491V490.031H522.852V491ZM628.577 491H629.546V468.965H628.577H627.608V491H628.577ZM628.577 468.965V467.996H522.852V468.965V469.934H628.577V468.965ZM522.852 468.965H523.821V323.542H522.852H521.883V468.965H522.852ZM522.852 323.542V324.511H548.182V323.542V322.573H522.852V323.542ZM548.182 323.542H549.151V319.135H548.182H547.213V323.542H548.182ZM548.182 319.135V318.166H449.066V319.135V320.105H548.182V319.135ZM449.066 319.135H450.035V293.797H449.066H448.097V319.135H449.066ZM449.066 293.797V292.827H401.709V293.797V294.766H449.066V293.797ZM401.709 293.797H400.74V367.61H401.709H402.678V293.797H401.709ZM401.709 367.61V368.58H425.938V367.61V366.641H401.709V367.61ZM425.938 367.61H424.969V418.288H425.938H426.907V367.61H425.938ZM425.938 418.288V417.318H401.709V418.288V419.257H425.938V418.288ZM401.709 418.288H400.74V441.422H401.709H402.678V418.288H401.709ZM401.709 441.422V442.391H425.938V441.422V440.453H401.709V441.422ZM425.938 441.422H424.969V517.44H425.938H426.907V441.422H425.938ZM425.938 517.44V516.471H394V517.44V518.409H425.938V517.44ZM394 517.44H393.031V541.677H394H394.969V517.44H394ZM394 541.677V542.647H449.066V541.677V540.708H394V541.677ZM449.066 541.677L449.769 542.344L468.49 522.514L467.787 521.849L467.081 521.182L448.36 541.013L449.066 541.677ZM467.787 521.849V522.818H500.825V521.849V520.879H467.787V521.849ZM500.825 521.849H499.856V541.677H500.825H501.794V521.849H500.825ZM500.825 541.677V542.647H522.852V541.677V540.708H500.825V541.677ZM276.161 504.22H277.13V467.864H276.161H275.192V504.22H276.161ZM276.161 467.864V466.894H250.831V467.864V468.833H276.161V467.864ZM250.831 467.864H251.8V417.185H250.831H249.862V467.864H250.831ZM250.831 417.185V418.154H322.414V417.185V416.215H250.831V417.185ZM322.414 417.185H321.445V441.422H322.414H323.383V417.185H322.414ZM322.414 441.422V442.391H325.719V441.422V440.453H322.414V441.422ZM325.719 441.422H326.688V367.61H325.719H324.75V441.422H325.719ZM325.719 367.61V368.58H349.947V367.61V366.641H325.719V367.61ZM349.947 367.61H350.916V343.373H349.947H348.978V367.61H349.947ZM349.947 343.373V342.403H250.831V343.373V344.342H349.947V343.373ZM250.831 343.373H251.8V293.797H250.831H249.862V343.373H250.831ZM250.831 293.797V292.827H227.703V293.797V294.766H250.831V293.797ZM227.703 293.797H226.734V418.288H227.703H228.672V293.797H227.703ZM227.703 418.288V417.318H150.612V418.288V419.257H227.703V418.288ZM150.612 418.288H151.581V394.05H150.612H149.643V418.288H150.612ZM150.612 394.05V393.081H127.485V394.05V395.019H150.612V394.05ZM127.485 394.05H126.516V418.288H127.485H128.454V394.05H127.485ZM127.485 418.288V417.318H121.979V418.288V419.257H127.485V418.288ZM121.979 418.288H121.01V441.422H121.979H122.948V418.288H121.979ZM121.979 441.422V442.391H128.586V441.422V440.453H121.979V441.422ZM128.586 441.422L128.129 442.277L175.485 467.618L175.942 466.763L176.399 465.908L129.043 440.569L128.586 441.422ZM175.942 466.763V467.732H227.703V466.763V465.793H175.942V466.763ZM227.703 466.763H226.734V504.22H227.703H228.672V466.763H227.703ZM227.703 504.22V505.189H276.161V504.22V503.251H227.703V504.22ZM182.551 739.984H183.52V714.645H182.551H181.582V739.984H182.551ZM182.551 714.645V715.615H250.831V714.645V713.676H182.551V714.645ZM250.831 714.645H251.8V690.408H250.831H249.862V714.645H250.831ZM250.831 690.408V691.377H299.289V690.408V689.439H250.831V690.408ZM299.289 690.408H300.258V615.493H299.289H298.32V690.408H299.289ZM299.289 615.493V616.462H362.062V615.493V614.524H299.289V615.493ZM362.062 615.493H363.031V592.357H362.062H361.093V615.493H362.062ZM362.062 592.357V591.387H336.732V592.357V593.326H362.062V592.357ZM336.732 592.357H337.701V541.677H336.732H335.763V592.357H336.732ZM336.732 541.677V542.647H356.554V541.677V540.708H336.732V541.677ZM356.554 541.677H357.523V517.44H356.554H355.585V541.677H356.554ZM356.554 517.44V516.471H327.922V517.44V518.409H356.554V517.44ZM327.922 517.44H328.891V467.864H327.922H326.953V517.44H327.922ZM327.922 467.864V466.894H301.49V467.864V468.833H327.922V467.864ZM301.49 467.864H300.521V472.272H301.49H302.459V467.864H301.49ZM301.49 472.272V473.242H314.707V472.272V471.303H301.49V472.272ZM314.707 472.272H313.738V554.899H314.707H315.676V472.272H314.707ZM314.707 554.899V553.93H250.831V554.899V555.869H314.707V554.899ZM250.831 554.899H251.8V529.559H250.831H249.862V554.899H250.831ZM250.831 529.559V528.589H202.374V529.559V530.528H250.831V529.559ZM202.374 529.559H201.405V592.357H202.374H203.343V529.559H202.374ZM202.374 592.357V591.387H103.256V592.357V593.326H202.374V592.357ZM103.256 592.357H102.287V615.493H103.256H104.225V592.357H103.256ZM103.256 615.493V616.462H202.374V615.493V614.524H103.256V615.493ZM202.374 615.493H201.405V666.17H202.374H203.343V615.493H202.374ZM202.374 666.17V665.201H171.538V666.17V667.14H202.374V666.17ZM171.538 666.17H170.569V690.408H171.538H172.507V666.17H171.538ZM171.538 690.408V691.377H177.043V690.408V689.439H171.538V690.408ZM177.043 690.408H176.074V739.984H177.043H178.012V690.408H177.043ZM177.043 739.984V740.953H182.551V739.984V739.015H177.043V739.984ZM58.1032 603.374H59.0722V521.849H58.1032H57.1343V603.374H58.1032ZM58.1032 521.849V522.818H146.641V521.849V520.879H58.1032V521.849ZM146.641 521.849H145.672V565.915H146.641H147.61V521.849H146.641ZM146.641 565.915V566.884H150.612V565.915V564.946H146.641V565.915ZM150.612 565.915H151.581V517.44H150.612H149.643V565.915H150.612ZM150.612 517.44V516.471H53.6974V517.44V518.409H150.612V517.44ZM53.6974 517.44H52.7284V603.374H53.6974H54.6664V517.44H53.6974ZM53.6974 603.374V604.344H58.1032V603.374V602.405H53.6974V603.374ZM623.07 739.984H624.039V714.645H623.07H622.101V739.984H623.07ZM623.07 714.645V715.615H628.577V714.645V713.676H623.07V714.645ZM628.577 714.645H629.546V691.509H628.577H627.608V714.645H628.577ZM628.577 691.509V690.54H623.07V691.509V692.478H628.577V691.509ZM623.07 691.509H624.039V666.17H623.07H622.101V691.509H623.07ZM623.07 666.17V665.201H548.182V666.17V667.14H623.07V666.17ZM548.182 666.17H549.151V627.61H548.182H547.213V666.17H548.182ZM548.182 627.61V628.579H573.511V627.61V626.641H548.182V627.61ZM573.511 627.61H574.48V616.594H573.511H572.542V627.61H573.511ZM573.511 616.594V615.625H548.182V616.594V617.564H573.511V616.594ZM548.182 616.594H549.151V567.018H548.182H547.213V616.594H548.182ZM548.182 567.018V566.049H500.825V567.018V567.987H548.182V567.018ZM500.825 567.018H499.856V586.847H500.825H501.794V567.018H500.825ZM500.825 586.847V585.878H430.343V586.847V587.816H500.825V586.847ZM430.343 586.847H431.312V567.018H430.343H429.374V586.847H430.343ZM430.343 567.018V566.049H425.938V567.018V567.987H430.343V567.018ZM425.938 567.018H424.969V592.357H425.938H426.907V567.018H425.938ZM425.938 592.357V591.387H388.494V592.357V593.326H425.938V592.357ZM388.494 592.357H387.525V615.493H388.494H389.463V592.357H388.494ZM388.494 615.493V616.462H451.267V615.493V614.524H388.494V615.493ZM451.267 615.493H450.298V690.408H451.267H452.236V615.493H451.267ZM451.267 690.408V691.377H500.825V690.408V689.439H451.267V690.408ZM500.825 690.408H499.856V714.645H500.825H501.794V690.408H500.825ZM500.825 714.645V715.615H618.664V714.645V713.676H500.825V714.645ZM618.664 714.645H617.695V739.984H618.664H619.633V714.645H618.664ZM618.664 739.984V740.953H623.07V739.984V739.015H618.664V739.984ZM696.856 640.832H697.825V592.357H696.856H695.887V640.832H696.856ZM696.856 592.357V591.387H692.453V592.357V593.326H696.856V592.357ZM692.453 592.357H691.484V616.594H692.453H693.422V592.357H692.453ZM692.453 616.594V615.625H599.761V616.594V617.564H692.453V616.594ZM599.761 616.594H598.792V640.832H599.761H600.73V616.594H599.761ZM599.761 640.832V641.801H696.856V640.832V639.862H599.761V640.832ZM398.994 763.12L399.849 763.578L424.589 717.307L423.734 716.85L422.882 716.392L398.139 762.663L398.994 763.12ZM423.734 716.85H424.703V641.933H423.734H422.765V716.85H423.734ZM423.734 641.933V640.964H326.821V641.933V642.902H423.734V641.933ZM326.821 641.933H325.852V716.185H326.821H327.79V641.933H326.821ZM326.821 716.185L325.969 716.646L351.298 763.58L352.151 763.12L353.004 762.659L327.674 715.723L326.821 716.185ZM352.151 763.12V764.09H398.994V763.12V762.151H352.151V763.12Z" fill="#674A81"/>
<path d="M599.944 616.594V611.086H573.512V616.594M696.857 640.832V652.95H685.845V640.832M748.618 635.322H736.504V623.205H748.618M723.289 565.915V640.832M566.903 491V504.22H555.891V491M623.07 468.967V454.644H610.955V468.967M697.959 417.186H685.845V403.967M462.281 319.135V305.915H449.066M401.709 336.762H388.494V325.744H401.709M177.044 466.763L170.436 477.78L160.525 472.27L167.132 461.255M53.6984 572.526H40.4829V561.508H53.6984M58.1036 565.915H70.218V554.899H58.1036M103.257 592.357V580.238H114.27V592.357M157.221 615.493V628.713H146.208V615.493M327.922 470.068H351.048V467.864H327.922M325.719 410.576H337.833V399.56H325.719M375.277 243.117V256.337H324.618M301.49 255.236H289.376V230.999H301.49M194.665 243.117V255.236H183.652V243.117M227.703 293.797H214.488V304.812H227.703M107.662 342.272V354.388H96.6492V342.272M76.8257 466.763V491H64.7114V466.763M596.64 578.034H573.512V529.561H596.64V578.034ZM189.158 342.272H150.613V334.56H189.158V342.272Z" stroke="#674A81"/>
<path d="M351.05 470.068H374.176V418.288H371.975V437.017M371.975 437.017H366.467V448.033H371.975M371.975 437.017V448.033M351.05 467.864H371.975V448.033M461.18 96.5917L455.672 99.8967L452.37 108.71L445.762 106.507L449.066 97.6934L447.963 92.1848M374.176 34.8964V40.405L363.165 49.2186L353.252 40.405V34.8964M295.984 107.609V113.117L301.492 119.727L294.884 125.236L289.378 117.524L284.971 115.321M580.12 267.355V273.966H568.006V267.355M623.07 666.17C623.07 665.829 623.07 663.165 623.07 659.559M623.07 659.559C623.07 653.852 623.07 645.783 623.07 640.832M623.07 659.559H628.577V670.577H623.07M388.494 603.374H362.062M362.062 595.662H388.494M336.733 554.899L349.948 541.677M163.829 334.56V322.441H150.613M64.712 491H52.5977M384.089 135.151L389.595 124.134C387.76 120.462 382.988 113.117 382.988 113.117C382.988 113.117 374.545 113.117 370.874 113.117L364.265 124.134L370.874 135.151H384.089ZM612.058 593.458H648.401V514.136H610.957V516.339H646.198V591.256H612.058V593.458Z" stroke="#674A81" stroke-width="0.5"/>
<path d="M646.198 565.915H635.184V541.677H646.198" stroke="#674A81"/>
<path d="M595.537 572.526H584.525V535.069H595.537" stroke="#784E9D"/>
<path d="M59.2041 522.95H145.513V591.256H59.2041V522.95ZM71.1878 566.884V553.93H59.3367V566.884H71.1878ZM115.239 591.122V579.269H102.288V591.122H115.239Z" fill="#4F276A"/>
<path d="M116.256 564.106H119.254L113.796 548.597H110.329L104.863 564.106H107.861L112.002 551.776H112.123L116.256 564.106ZM116.158 558.025H107.982V560.281H116.158V558.025Z" fill="white"/>
<path d="M573.512 516.959H645.647V540.708H634.215V566.884H645.647V590.664H573.512V516.959ZM597.609 579.003V571.555H585.494V536.038H597.609V528.589H573.643V579.003H597.609Z" fill="#4F276A"/>
<path d="M608.08 566.309V550.799H614.016C615.136 550.799 616.066 550.975 616.808 551.33C617.554 551.677 618.112 552.154 618.481 552.761C618.855 553.366 619.041 554.054 619.041 554.82C619.041 555.452 618.921 555.993 618.678 556.441C618.436 556.887 618.111 557.247 617.702 557.524C617.293 557.802 616.835 558.001 616.332 558.123V558.275C616.882 558.304 617.409 558.474 617.913 558.781C618.423 559.085 618.839 559.513 619.163 560.07C619.485 560.624 619.647 561.295 619.647 562.084C619.647 562.887 619.454 563.608 619.064 564.25C618.675 564.886 618.089 565.388 617.308 565.756C616.525 566.124 615.541 566.309 614.355 566.309H608.08ZM610.888 563.961H613.909C614.928 563.961 615.663 563.767 616.113 563.379C616.566 562.984 616.793 562.48 616.793 561.863C616.793 561.404 616.68 560.991 616.452 560.622C616.225 560.248 615.903 559.955 615.483 559.744C615.064 559.527 614.564 559.418 613.985 559.418H610.888V563.961ZM610.888 557.396H613.667C614.151 557.396 614.587 557.307 614.977 557.131C615.364 556.949 615.671 556.695 615.892 556.365C616.118 556.032 616.233 555.638 616.233 555.184C616.233 554.583 616.021 554.089 615.597 553.699C615.178 553.312 614.554 553.118 613.727 553.118H610.888V557.396Z" fill="white"/>
<path d="M465.585 311.908C463.42 311.908 461.664 313.664 461.664 315.83C461.664 317.996 463.42 319.752 465.585 319.752C467.75 319.752 469.506 317.996 469.506 315.83C469.506 313.664 467.75 311.908 465.585 311.908Z" stroke="#674A81" stroke-width="0.5"/>
<path d="M378.581 250.213C377.024 250.213 375.762 251.476 375.762 253.034C375.762 254.591 377.024 255.854 378.581 255.854C380.139 255.854 381.401 254.591 381.401 253.034C381.401 251.476 380.139 250.213 378.581 250.213Z" stroke="#674A81" stroke-width="0.5"/>
<path d="M378.581 243.602C377.024 243.602 375.762 244.865 375.762 246.423C375.762 247.981 377.024 249.243 378.581 249.243C380.139 249.243 381.401 247.981 381.401 246.423C381.401 244.865 380.139 243.602 378.581 243.602Z" stroke="#674A81" stroke-width="0.5"/>
</svg>
