<svg width="750" height="771" viewBox="0 0 750 771" fill="none" xmlns="http://www.w3.org/2000/svg">
<path fill-rule="evenodd" clip-rule="evenodd" d="M78.9723 621.822V600.925L99.8748 586.387L55.3435 511.885V490.079H74.4283V439.199H71.7018L54.4347 466.457H25.353V455.553H13.5386V350.16H0.81543V328.353H77.1547V280.199L88.0603 266.57H105.328V260.21L141.68 223.869H223.471V177.531H203.478V74.8625L250.735 28.5254H436.132L445.22 33.9768H449.764L456.124 37.6111L463.396 43.9711H471.574L484.298 47.6054H493.386L528.828 53.0567L561.546 54.8739L583.357 80.3139V114.84H566.999V131.194L577.905 170.262L588.809 199.337C588.47 202.623 587.785 204.162 586.083 206.605L581.539 211.148L585.175 216.599C594.462 220.118 599.625 221.031 608.803 222.051L656.969 256.577V362.879H639.703V370.148H672.419V337.439H748.759V463.731H691.503V487.353H697.865V584.571L639.703 642.719H583.357V622.73H521.558V671.794H541.552V728.124L523.376 737.21H457.034V740.845H350.703V669.068H337.071V688.148H277.999V673.611H257.097L235.287 685.422H195.299V686.33H155.312V621.822H78.9723ZM547.914 379.234H586.993V363.788L593.355 350.16H613.347V338.348H594.263V272.931H613.347V259.302H566.09C547.101 237.347 537.377 223.867 522.964 197.519L522.467 162.994L520.65 161.177V146.639L522.964 133.92H527.011V115.748H522.467V103.028H457.034V144.822H353.43V104.845H295.267L263.459 136.645V163.902H292.541L312.535 190.251V245.674H264.367V301.096H315.261L334.345 310.182H518.832L547.914 340.166V379.234ZM470.666 421.936V490.079H477.028V439.199L506.108 414.668H552.458V406.491H517.922V361.063H482.48V421.936H470.666ZM575.178 526.422V549.136H609.713V570.551H643.337V486.446H661.513V463.731L644.247 441.017H613.347V458.279H537.917V490.079H539.734L575.178 526.422ZM170.761 441.017H241.649L271.639 411.034V387.41L287.997 371.056V335.623H304.355V388.32L246.191 446.468H170.761V441.017ZM132.592 568.216L112.598 530.965V482.811H160.764V551.862L132.592 568.216ZM203.478 482.811H212.567V494.622H261.641L333.437 422.845H385.238V360.153H422.5V421.936H444.31V514.611H489.75V533.69L520.65 564.582H559.728V578.211H479.754V680.879H471.574V671.794H432.496V600.016H430.678V597.29L427.952 594.565V590.022H350.703V602.743H297.993L277.999 639.994H256.189L203.478 526.422V482.811ZM191.664 275.656V361.063H235.287V295.645H217.111V275.656H191.664ZM121.686 356.52H38.0764V349.25H98.0572V291.102H105.328V302.913H140.771V341.982H158.947V370.148H121.686V356.52Z" fill="#26003A"/>
<path d="M78.9721 600.925L78.5066 600.255L78.1568 600.498V600.925H78.9721ZM78.9721 621.822H78.1568V622.637H78.9721V621.822ZM99.8746 586.387L100.34 587.057L100.965 586.622L100.574 585.97L99.8746 586.387ZM55.3433 511.885H54.5281V512.11L54.6435 512.303L55.3433 511.885ZM55.3433 490.079V489.264H54.5281V490.079H55.3433ZM74.428 490.079V490.894H75.2433V490.079H74.428ZM74.428 439.199H75.2433V438.384H74.428V439.199ZM71.7016 439.199V438.384H71.2531L71.0129 438.763L71.7016 439.199ZM54.4345 466.457V467.272H54.8832L55.1232 466.892L54.4345 466.457ZM25.3528 466.457H24.5376V467.272H25.3528V466.457ZM25.3528 455.553H26.168V454.738H25.3528V455.553ZM13.5384 455.553H12.7232V456.368H13.5384V455.553ZM13.5384 350.159H14.3536V349.344H13.5384V350.159ZM0.815217 350.159H0V350.975H0.815217V350.159ZM0.815217 328.353V327.538H0V328.353H0.815217ZM77.1545 328.353V329.168H77.9697V328.353H77.1545ZM77.1545 280.199L76.5179 279.69L76.3392 279.914V280.199H77.1545ZM88.0601 266.57V265.755H87.6683L87.4236 266.062L88.0601 266.57ZM105.327 266.57V267.385H106.143V266.57H105.327ZM105.327 260.21L104.751 259.635L104.512 259.873V260.21H105.327ZM141.679 223.869V223.054H141.342L141.103 223.292L141.679 223.869ZM223.471 223.869V224.684H224.286V223.869H223.471ZM223.471 177.53H224.286V176.715H223.471V177.53ZM203.478 177.53H202.663V178.345H203.478V177.53ZM203.478 74.8624L202.908 74.2805L202.663 74.5201V74.8624H203.478ZM250.735 28.5253V27.7103H250.402L250.164 27.9434L250.735 28.5253ZM436.131 28.5253L436.551 27.8265L436.356 27.7103H436.131V28.5253ZM445.22 33.9768L444.799 34.6756L444.993 34.7918H445.22V33.9768ZM449.764 33.9768L450.168 33.2692L449.979 33.1618H449.764V33.9768ZM456.124 37.6111L456.662 36.9977L456.6 36.9439L456.528 36.9035L456.124 37.6111ZM463.396 43.9711L462.858 44.5845L463.089 44.7861H463.396V43.9711ZM471.574 43.9711L471.799 43.1874L471.688 43.1561H471.574V43.9711ZM484.298 47.6054L484.073 48.3889L484.184 48.4204H484.298V47.6054ZM493.386 47.6054L493.51 46.7998L493.448 46.7904H493.386V47.6054ZM528.828 53.0567L528.704 53.8622L528.743 53.8683L528.783 53.8705L528.828 53.0567ZM561.546 54.8738L562.164 54.3434L561.937 54.0793L561.59 54.0601L561.546 54.8738ZM583.356 80.3139H584.172V80.0123L583.976 79.7835L583.356 80.3139ZM583.356 114.84V115.655H584.172V114.84H583.356ZM566.998 114.84V114.025H566.183V114.84H566.998ZM566.998 131.194H566.183V131.305L566.213 131.413L566.998 131.194ZM577.904 170.262L577.118 170.481L577.128 170.515L577.141 170.549L577.904 170.262ZM588.809 199.337L589.621 199.42L589.64 199.229L589.573 199.05L588.809 199.337ZM586.083 206.605L586.66 207.182L586.71 207.13L586.753 207.071L586.083 206.605ZM581.539 211.148L580.963 210.571L580.49 211.044L580.86 211.6L581.539 211.148ZM585.174 216.599L584.496 217.052L584.641 217.269L584.886 217.362L585.174 216.599ZM608.803 222.051L609.279 221.388L609.104 221.264L608.894 221.241L608.803 222.051ZM656.969 256.577H657.784V256.158L657.445 255.915L656.969 256.577ZM656.969 362.879V363.694H657.784V362.879H656.969ZM639.703 362.879V362.064H638.888V362.879H639.703ZM639.703 370.148H638.888V370.963H639.703V370.148ZM672.419 370.148V370.963H673.234V370.148H672.419ZM672.419 337.439V336.624H671.604V337.439H672.419ZM748.759 337.439H749.574V336.624H748.759V337.439ZM748.759 463.731V464.546H749.574V463.731H748.759ZM691.503 463.731V462.916H690.688V463.731H691.503ZM691.503 487.353H690.688V488.168H691.503V487.353ZM697.865 487.353H698.68V486.538H697.865V487.353ZM697.865 584.571L698.442 585.147L698.68 584.909V584.571H697.865ZM639.703 642.719V643.534H640.04L640.278 643.296L639.703 642.719ZM583.356 642.719H582.541V643.534H583.356V642.719ZM583.356 622.73H584.172V621.915H583.356V622.73ZM521.558 622.73V621.915H520.743V622.73H521.558ZM521.558 671.794H520.743V672.609H521.558V671.794ZM541.552 671.794H542.367V670.979H541.552V671.794ZM541.552 728.124L541.916 728.854L542.367 728.628V728.124H541.552ZM523.376 737.21V738.025H523.568L523.74 737.94L523.376 737.21ZM457.034 737.21V736.395H456.218V737.21H457.034ZM457.034 740.845V741.66H457.849V740.845H457.034ZM350.703 740.845H349.888V741.66H350.703V740.845ZM350.703 669.068H351.518V668.253H350.703V669.068ZM337.071 669.068V668.253H336.256V669.068H337.071ZM337.071 688.148V688.963H337.886V688.148H337.071ZM277.999 688.148H277.184V688.963H277.999V688.148ZM277.999 673.611H278.814V672.796H277.999V673.611ZM257.097 673.611V672.796H256.89L256.709 672.894L257.097 673.611ZM235.286 685.422V686.237H235.492L235.674 686.138L235.286 685.422ZM195.298 685.422V684.607H194.483V685.422H195.298ZM195.298 686.33V687.145H196.114V686.33H195.298ZM155.311 686.33H154.496V687.145H155.311V686.33ZM155.311 621.822H156.127V621.007H155.311V621.822ZM586.992 379.234V380.049H587.808V379.234H586.992ZM547.914 379.234H547.099V380.049H547.914V379.234ZM586.992 363.788L586.254 363.443L586.177 363.607V363.788H586.992ZM593.354 350.159V349.344H592.834L592.614 349.814L593.354 350.159ZM613.347 350.159V350.975H614.162V350.159H613.347ZM613.347 338.348H614.162V337.533H613.347V338.348ZM594.262 338.348H593.447V339.163H594.262V338.348ZM594.262 272.931V272.116H593.447V272.931H594.262ZM613.347 272.931V273.746H614.162V272.931H613.347ZM613.347 259.302H614.162V258.487H613.347V259.302ZM566.09 259.302L565.472 259.835L565.717 260.117H566.09V259.302ZM522.964 197.519L522.148 197.531L522.152 197.733L522.248 197.911L522.964 197.519ZM522.466 162.994L523.282 162.982L523.278 162.651L523.043 162.417L522.466 162.994ZM520.65 161.177H519.835V161.514L520.073 161.753L520.65 161.177ZM520.65 146.639L519.848 146.494L519.835 146.566V146.639H520.65ZM522.964 133.92V133.105H522.282L522.161 133.774L522.964 133.92ZM527.01 133.92V134.735H527.826V133.92H527.01ZM527.01 115.748H527.826V114.933H527.01V115.748ZM522.466 115.748H521.651V116.563H522.466V115.748ZM522.466 103.028H523.282V102.213H522.466V103.028ZM457.034 103.028V102.213H456.218V103.028H457.034ZM457.034 144.822V145.637H457.849V144.822H457.034ZM353.429 144.822H352.614V145.637H353.429V144.822ZM353.429 104.845H354.245V104.03H353.429V104.845ZM295.267 104.845V104.03H294.929L294.69 104.269L295.267 104.845ZM263.459 136.645L262.883 136.069L262.643 136.308V136.645H263.459ZM263.459 163.902H262.643V164.717H263.459V163.902ZM292.541 163.902L293.19 163.41L292.945 163.087H292.541V163.902ZM312.535 190.251H313.35V189.977L313.184 189.759L312.535 190.251ZM312.535 245.674V246.489H313.35V245.674H312.535ZM264.367 245.674V244.858H263.552V245.674H264.367ZM264.367 301.096H263.552V301.911H264.367V301.096ZM315.261 301.096L315.611 300.361L315.445 300.281H315.261V301.096ZM334.345 310.182L333.995 310.918L334.161 310.997H334.345V310.182ZM518.832 310.182L519.417 309.614L519.178 309.367H518.832V310.182ZM547.914 340.166H548.729V339.835L548.499 339.597L547.914 340.166ZM470.666 490.079H469.851V490.894H470.666V490.079ZM470.666 421.936V421.121H469.851V421.936H470.666ZM477.028 490.079V490.894H477.843V490.079H477.028ZM477.028 439.199L476.501 438.577L476.212 438.821V439.199H477.028ZM506.108 414.668V413.853H505.811L505.583 414.045L506.108 414.668ZM552.458 414.668V415.483H553.273V414.668H552.458ZM552.458 406.491H553.273V405.676H552.458V406.491ZM517.922 406.491H517.107V407.306H517.922V406.491ZM517.922 361.063H518.737V360.248H517.922V361.063ZM482.48 361.063V360.248H481.665V361.063H482.48ZM482.48 421.936V422.751H483.295V421.936H482.48ZM575.178 549.136H574.363V549.951H575.178V549.136ZM575.178 526.422H575.993V526.091L575.762 525.853L575.178 526.422ZM609.712 549.136H610.528V548.321H609.712V549.136ZM609.712 570.551H608.897V571.366H609.712V570.551ZM643.337 570.551V571.366H644.152V570.551H643.337ZM643.337 486.446V485.631H642.522V486.446H643.337ZM661.513 486.446V487.261H662.328V486.446H661.513ZM661.513 463.731H662.328V463.456L662.162 463.237L661.513 463.731ZM644.247 441.017L644.896 440.523L644.651 440.202H644.247V441.017ZM613.347 441.017V440.202H612.532V441.017H613.347ZM613.347 458.279V459.094H614.162V458.279H613.347ZM537.916 458.279V457.464H537.101V458.279H537.916ZM537.916 490.079H537.101V490.894H537.916V490.079ZM539.734 490.079L540.318 489.51L540.078 489.264H539.734V490.079ZM241.648 441.017V441.832H241.986L242.224 441.592L241.648 441.017ZM170.76 441.017V440.202H169.945V441.017H170.76ZM271.639 411.034L272.214 411.61L272.454 411.372V411.034H271.639ZM271.639 387.41L271.061 386.835L270.823 387.073V387.41H271.639ZM287.997 371.056L288.572 371.633L288.812 371.394V371.056H287.997ZM287.997 335.623V334.808H287.182V335.623H287.997ZM304.355 335.623H305.17V334.808H304.355V335.623ZM304.355 388.32L304.932 388.895L305.17 388.657V388.32H304.355ZM246.191 446.468V447.283H246.53L246.768 447.045L246.191 446.468ZM170.76 446.468H169.945V447.283H170.76V446.468ZM112.598 530.965H111.783V531.17L111.879 531.349L112.598 530.965ZM132.591 568.216L131.873 568.602L132.272 569.344L133.001 568.921L132.591 568.216ZM112.598 482.811V481.996H111.783V482.811H112.598ZM160.764 482.811H161.58V481.996H160.764V482.811ZM160.764 551.862L161.174 552.567L161.58 552.331V551.862H160.764ZM212.566 482.811H213.382V481.996H212.566V482.811ZM203.478 482.811V481.996H202.663V482.811H203.478ZM212.566 494.622H211.751V495.437H212.566V494.622ZM261.641 494.622V495.437H261.978L262.218 495.199L261.641 494.622ZM333.437 422.845V422.03H333.099L332.86 422.268L333.437 422.845ZM385.238 422.845V423.66H386.053V422.845H385.238ZM385.238 360.153V359.338H384.422V360.153H385.238ZM422.499 360.153H423.315V359.338H422.499V360.153ZM422.499 421.936H421.684V422.751H422.499V421.936ZM444.31 421.936H445.125V421.121H444.31V421.936ZM444.31 514.611H443.495V515.426H444.31V514.611ZM489.75 514.611H490.565V513.796H489.75V514.611ZM489.75 533.69H488.935V534.028L489.174 534.267L489.75 533.69ZM520.65 564.582L520.073 565.158L520.312 565.397H520.65V564.582ZM559.728 564.582H560.543V563.767H559.728V564.582ZM559.728 578.211V579.026H560.543V578.211H559.728ZM479.754 578.211V577.396H478.939V578.211H479.754ZM479.754 680.879V681.694H480.569V680.879H479.754ZM471.574 680.879H470.759V681.694H471.574V680.879ZM471.574 671.794H472.389V670.979H471.574V671.794ZM432.496 671.794H431.68V672.609H432.496V671.794ZM432.496 600.016H433.311V599.201H432.496V600.016ZM430.678 600.016H429.862V600.831H430.678V600.016ZM430.678 597.29H431.493V596.953L431.255 596.715L430.678 597.29ZM427.952 594.565H427.136V594.902L427.376 595.14L427.952 594.565ZM427.952 590.022H428.767V589.207H427.952V590.022ZM350.703 590.022V589.207H349.888V590.022H350.703ZM350.703 602.743V603.558H351.518V602.743H350.703ZM297.993 602.743V601.928H297.505L297.276 602.356L297.993 602.743ZM277.999 639.994V640.809H278.488L278.718 640.378L277.999 639.994ZM256.189 639.994L255.448 640.336L255.668 640.809H256.189V639.994ZM203.478 526.422H202.663V526.601L202.738 526.766L203.478 526.422ZM191.664 361.063H190.849V361.878H191.664V361.063ZM191.664 275.656V274.841H190.849V275.656H191.664ZM235.286 361.063V361.878H236.102V361.063H235.286ZM235.286 295.645H236.102V294.83H235.286V295.645ZM217.11 295.645H216.295V296.46H217.11V295.645ZM217.11 275.656H217.926V274.841H217.11V275.656ZM38.0762 356.52H37.261V357.335H38.0762V356.52ZM121.686 356.52H122.501V355.705H121.686V356.52ZM38.0762 349.25V348.435H37.261V349.25H38.0762ZM98.057 349.25V350.065H98.8722V349.25H98.057ZM98.057 291.102V290.287H97.2417V291.102H98.057ZM105.327 291.102H106.143V290.287H105.327V291.102ZM105.327 302.913H104.512V303.728H105.327V302.913ZM140.771 302.913H141.586V302.098H140.771V302.913ZM140.771 341.982H139.955V342.797H140.771V341.982ZM158.947 341.982H159.762V341.167H158.947V341.982ZM158.947 370.148V370.963H159.762V370.148H158.947ZM121.686 370.148H120.871V370.963H121.686V370.148ZM78.9721 600.925H78.1568V621.822H78.9721H79.7873V600.925H78.9721ZM99.8746 586.387L99.4089 585.719L78.5066 600.255L78.9721 600.925L79.4377 601.594L100.34 587.057L99.8746 586.387ZM55.3433 511.885L54.6435 512.303L99.1748 586.806L99.8746 586.387L100.574 585.97L56.0431 511.466L55.3433 511.885ZM55.3433 490.079H54.5281V511.885H55.3433H56.1585V490.079H55.3433ZM74.428 490.079V489.264H55.3433V490.079V490.894H74.428V490.079ZM74.428 439.199H73.6128V490.079H74.428H75.2433V439.199H74.428ZM71.7016 439.199V440.014H74.428V439.199V438.384H71.7016V439.199ZM54.4345 466.457L55.1232 466.892L72.3903 439.635L71.7016 439.199L71.0129 438.763L53.7458 466.02L54.4345 466.457ZM25.3528 466.457V467.272H54.4345V466.457V465.642H25.3528V466.457ZM25.3528 455.553H24.5376V466.457H25.3528H26.168V455.553H25.3528ZM13.5384 455.553V456.368H25.3528V455.553V454.738H13.5384V455.553ZM13.5384 350.159H12.7232V455.553H13.5384H14.3536V350.159H13.5384ZM0.815217 350.159V350.975H13.5384V350.159V349.344H0.815217V350.159ZM0.815217 328.353H0V350.159H0.815217H1.63043V328.353H0.815217ZM77.1545 328.353V327.538H0.815217V328.353V329.168H77.1545V328.353ZM77.1545 280.199H76.3392V328.353H77.1545H77.9697V280.199H77.1545ZM88.0601 266.57L87.4236 266.062L76.5179 279.69L77.1545 280.199L77.7911 280.709L88.6966 267.081L88.0601 266.57ZM105.327 266.57V265.755H88.0601V266.57V267.385H105.327V266.57ZM105.327 260.21H104.512V266.57H105.327H106.143V260.21H105.327ZM141.679 223.869L141.103 223.292L104.751 259.635L105.327 260.21L105.904 260.787L142.256 224.444L141.679 223.869ZM223.471 223.869V223.054H141.679V223.869V224.684H223.471V223.869ZM223.471 177.53H222.655V223.869H223.471H224.286V177.53H223.471ZM203.478 177.53V178.345H223.471V177.53V176.715H203.478V177.53ZM203.478 74.8624H202.663V177.53H203.478H204.293V74.8624H203.478ZM250.735 28.5253L250.164 27.9434L202.908 74.2805L203.478 74.8624L204.049 75.4444L251.307 29.1073L250.735 28.5253ZM436.131 28.5253V27.7103H250.735V28.5253V29.3403H436.131V28.5253ZM445.22 33.9768L445.639 33.2778L436.551 27.8265L436.131 28.5253L435.711 29.2241L444.799 34.6756L445.22 33.9768ZM449.764 33.9768V33.1618H445.22V33.9768V34.7918H449.764V33.9768ZM456.124 37.6111L456.528 36.9035L450.168 33.2692L449.764 33.9768L449.359 34.6844L455.72 38.3187L456.124 37.6111ZM463.396 43.9711L463.932 43.3577L456.662 36.9977L456.124 37.6111L455.587 38.2245L462.858 44.5845L463.396 43.9711ZM471.574 43.9711V43.1561H463.396V43.9711V44.7861H471.574V43.9711ZM484.298 47.6054L484.521 46.8217L471.799 43.1874L471.574 43.9711L471.351 44.7546L484.073 48.3889L484.298 47.6054ZM493.386 47.6054V46.7904H484.298V47.6054V48.4204H493.386V47.6054ZM528.828 53.0567L528.952 52.2513L493.51 46.7998L493.386 47.6054L493.262 48.4108L528.704 53.8622L528.828 53.0567ZM561.546 54.8738L561.59 54.0601L528.874 52.243L528.828 53.0567L528.783 53.8705L561.501 55.6877L561.546 54.8738ZM583.356 80.3139L583.976 79.7835L562.164 54.3434L561.546 54.8738L560.927 55.4042L582.737 80.8443L583.356 80.3139ZM583.356 114.84H584.172V80.3139H583.356H582.541V114.84H583.356ZM566.998 114.84V115.655H583.356V114.84V114.025H566.998V114.84ZM566.998 131.194H567.814V114.84H566.998H566.183V131.194H566.998ZM577.904 170.262L578.689 170.044L567.784 130.975L566.998 131.194L566.213 131.413L577.118 170.481L577.904 170.262ZM588.809 199.337L589.573 199.05L578.667 169.977L577.904 170.262L577.141 170.549L588.046 199.622L588.809 199.337ZM586.083 206.605L586.753 207.071C587.618 205.828 588.256 204.77 588.717 203.581C589.179 202.39 589.446 201.107 589.621 199.42L588.809 199.337L587.998 199.252C587.834 200.853 587.587 201.982 587.196 202.993C586.805 204.005 586.251 204.939 585.414 206.139L586.083 206.605ZM581.539 211.148L582.116 211.725L586.66 207.182L586.083 206.605L585.507 206.028L580.963 210.571L581.539 211.148ZM585.174 216.599L585.853 216.147L582.217 210.696L581.539 211.148L580.86 211.6L584.496 217.052L585.174 216.599ZM608.803 222.051L608.894 221.241C599.762 220.226 594.668 219.324 585.463 215.838L585.174 216.599L584.886 217.362C594.256 220.91 599.49 221.834 608.713 222.861L608.803 222.051ZM656.969 256.577L657.445 255.915L609.279 221.388L608.803 222.051L608.328 222.713L656.495 257.239L656.969 256.577ZM656.969 362.879H657.784V256.577H656.969H656.154V362.879H656.969ZM639.703 362.879V363.694H656.969V362.879V362.064H639.703V362.879ZM639.703 370.148H640.518V362.879H639.703H638.888V370.148H639.703ZM672.419 370.148V369.333H639.703V370.148V370.963H672.419V370.148ZM672.419 337.439H671.604V370.148H672.419H673.234V337.439H672.419ZM748.759 337.439V336.624H672.419V337.439V338.254H748.759V337.439ZM748.759 463.731H749.574V337.439H748.759H747.944V463.731H748.759ZM691.503 463.731V464.546H748.759V463.731V462.916H691.503V463.731ZM691.503 487.353H692.318V463.731H691.503H690.688V487.353H691.503ZM697.865 487.353V486.538H691.503V487.353V488.168H697.865V487.353ZM697.865 584.571H698.68V487.353H697.865H697.05V584.571H697.865ZM639.703 642.719L640.278 643.296L698.442 585.147L697.865 584.571L697.29 583.994L639.126 642.142L639.703 642.719ZM583.356 642.719V643.534H639.703V642.719V641.904H583.356V642.719ZM583.356 622.73H582.541V642.719H583.356H584.172V622.73H583.356ZM521.558 622.73V623.545H583.356V622.73V621.915H521.558V622.73ZM521.558 671.794H522.373V622.73H521.558H520.743V671.794H521.558ZM541.552 671.794V670.979H521.558V671.794V672.609H541.552V671.794ZM541.552 728.124H542.367V671.794H541.552H540.737V728.124H541.552ZM523.376 737.21L523.74 737.94L541.916 728.854L541.552 728.124L541.187 727.395L523.011 736.481L523.376 737.21ZM457.034 737.21V738.025H523.376V737.21V736.395H457.034V737.21ZM457.034 740.845H457.849V737.21H457.034H456.218V740.845H457.034ZM350.703 740.845V741.66H457.034V740.845V740.03H350.703V740.845ZM350.703 669.068H349.888V740.845H350.703H351.518V669.068H350.703ZM337.071 669.068V669.883H350.703V669.068V668.253H337.071V669.068ZM337.071 688.148H337.886V669.068H337.071H336.256V688.148H337.071ZM277.999 688.148V688.963H337.071V688.148V687.333H277.999V688.148ZM277.999 673.611H277.184V688.148H277.999H278.814V673.611H277.999ZM257.097 673.611V674.426H277.999V673.611V672.796H257.097V673.611ZM235.286 685.422L235.674 686.138L257.485 674.327L257.097 673.611L256.709 672.894L234.898 684.705L235.286 685.422ZM195.298 685.422V686.237H235.286V685.422V684.607H195.298V685.422ZM195.298 686.33H196.114V685.422H195.298H194.483V686.33H195.298ZM155.311 686.33V687.145H195.298V686.33V685.515H155.311V686.33ZM155.311 621.822H154.496V686.33H155.311H156.127V621.822H155.311ZM78.9721 621.822V622.637H155.311V621.822V621.007H78.9721V621.822ZM586.992 379.234V378.419H547.914V379.234V380.049H586.992V379.234ZM586.992 363.788H586.177V379.234H586.992H587.808V363.788H586.992ZM593.354 350.159L592.614 349.814L586.254 363.443L586.992 363.788L587.731 364.132L594.093 350.503L593.354 350.159ZM613.347 350.159V349.344H593.354V350.159V350.975H613.347V350.159ZM613.347 338.348H612.532V350.159H613.347H614.162V338.348H613.347ZM594.262 338.348V339.163H613.347V338.348V337.533H594.262V338.348ZM594.262 272.931H593.447V338.348H594.262H595.078V272.931H594.262ZM613.347 272.931V272.116H594.262V272.931V273.746H613.347V272.931ZM613.347 259.302H612.532V272.931H613.347H614.162V259.302H613.347ZM566.09 259.302V260.117H613.347V259.302V258.487H566.09V259.302ZM522.964 197.519L522.248 197.911C536.692 224.314 546.45 237.841 565.472 259.835L566.09 259.302L566.706 258.769C547.751 236.853 538.061 223.42 523.678 197.128L522.964 197.519ZM522.466 162.994L521.653 163.005L522.148 197.531L522.964 197.519L523.779 197.508L523.282 162.982L522.466 162.994ZM520.65 161.177L520.073 161.753L521.891 163.569L522.466 162.994L523.043 162.417L521.226 160.6L520.65 161.177ZM520.65 146.639H519.835V161.177H520.65H521.465V146.639H520.65ZM522.964 133.92L522.161 133.774L519.848 146.494L520.65 146.639L521.452 146.785L523.766 134.065L522.964 133.92ZM527.01 133.92V133.105H522.964V133.92V134.735H527.01V133.92ZM527.01 115.748H526.195V133.92H527.01H527.826V115.748H527.01ZM522.466 115.748V116.563H527.01V115.748V114.933H522.466V115.748ZM522.466 103.028H521.651V115.748H522.466H523.282V103.028H522.466ZM457.034 103.028V103.843H522.466V103.028V102.213H457.034V103.028ZM457.034 144.822H457.849V103.028H457.034H456.218V144.822H457.034ZM353.429 144.822V145.637H457.034V144.822V144.007H353.429V144.822ZM353.429 104.845H352.614V144.822H353.429H354.245V104.845H353.429ZM295.267 104.845V105.66H353.429V104.845V104.03H295.267V104.845ZM263.459 136.645L264.036 137.222L295.844 105.422L295.267 104.845L294.69 104.269L262.883 136.069L263.459 136.645ZM263.459 163.902H264.274V136.645H263.459H262.643V163.902H263.459ZM292.541 163.902V163.087H263.459V163.902V164.717H292.541V163.902ZM312.535 190.251L313.184 189.759L293.19 163.41L292.541 163.902L291.89 164.394L311.884 190.743L312.535 190.251ZM312.535 245.674H313.35V190.251H312.535H311.72V245.674H312.535ZM264.367 245.674V246.489H312.535V245.674V244.858H264.367V245.674ZM264.367 301.096H265.182V245.674H264.367H263.552V301.096H264.367ZM315.261 301.096V300.281H264.367V301.096V301.911H315.261V301.096ZM334.345 310.182L334.696 309.446L315.611 300.361L315.261 301.096L314.91 301.833L333.995 310.918L334.345 310.182ZM518.832 310.182V309.367H334.345V310.182V310.997H518.832V310.182ZM547.914 340.166L548.499 339.597L519.417 309.614L518.832 310.182L518.247 310.749L547.329 340.733L547.914 340.166ZM547.914 379.234H548.729V340.166H547.914H547.099V379.234H547.914ZM470.666 490.079H471.481V421.936H470.666H469.851V490.079H470.666ZM477.028 490.079V489.264H470.666V490.079V490.894H477.028V490.079ZM477.028 439.199H476.212V490.079H477.028H477.843V439.199H477.028ZM506.108 414.668L505.583 414.045L476.501 438.577L477.028 439.199L477.553 439.822L506.635 415.29L506.108 414.668ZM552.458 414.668V413.853H506.108V414.668V415.483H552.458V414.668ZM552.458 406.491H551.643V414.668H552.458H553.273V406.491H552.458ZM517.922 406.491V407.306H552.458V406.491V405.676H517.922V406.491ZM517.922 361.063H517.107V406.491H517.922H518.737V361.063H517.922ZM482.48 361.063V361.878H517.922V361.063V360.248H482.48V361.063ZM482.48 421.936H483.295V361.063H482.48H481.665V421.936H482.48ZM470.666 421.936V422.751H482.48V421.936V421.121H470.666V421.936ZM575.178 549.136H575.993V526.422H575.178H574.363V549.136H575.178ZM609.712 549.136V548.321H575.178V549.136V549.951H609.712V549.136ZM609.712 570.551H610.528V549.136H609.712H608.897V570.551H609.712ZM643.337 570.551V569.736H609.712V570.551V571.366H643.337V570.551ZM643.337 486.446H642.522V570.551H643.337H644.152V486.446H643.337ZM661.513 486.446V485.631H643.337V486.446V487.261H661.513V486.446ZM661.513 463.731H660.698V486.446H661.513H662.328V463.731H661.513ZM644.247 441.017L643.598 441.509L660.864 464.223L661.513 463.731L662.162 463.237L644.896 440.523L644.247 441.017ZM613.347 441.017V441.832H644.247V441.017V440.202H613.347V441.017ZM613.347 458.279H614.162V441.017H613.347H612.532V458.279H613.347ZM537.916 458.279V459.094H613.347V458.279V457.464H537.916V458.279ZM537.916 490.079H538.732V458.279H537.916H537.101V490.079H537.916ZM539.734 490.079V489.264H537.916V490.079V490.894H539.734V490.079ZM575.178 526.422L575.762 525.853L540.318 489.51L539.734 490.079L539.151 490.648L574.595 526.991L575.178 526.422ZM241.648 441.017V440.202H170.76V441.017V441.832H241.648V441.017ZM271.639 411.034L271.061 410.457L241.071 440.44L241.648 441.017L242.224 441.592L272.214 411.61L271.639 411.034ZM271.639 387.41H270.823V411.034H271.639H272.454V387.41H271.639ZM287.997 371.056L287.42 370.479L271.061 386.835L271.639 387.41L272.214 387.987L288.572 371.633L287.997 371.056ZM287.997 335.623H287.182V371.056H287.997H288.812V335.623H287.997ZM304.355 335.623V334.808H287.997V335.623V336.438H304.355V335.623ZM304.355 388.32H305.17V335.623H304.355H303.54V388.32H304.355ZM246.191 446.468L246.768 447.045L304.932 388.895L304.355 388.32L303.778 387.743L245.615 445.892L246.191 446.468ZM170.76 446.468V447.283H246.191V446.468V445.653H170.76V446.468ZM170.76 441.017H169.945V446.468H170.76H171.576V441.017H170.76ZM112.598 530.965L111.879 531.349L131.873 568.602L132.591 568.216L133.31 567.831L113.316 530.58L112.598 530.965ZM112.598 482.811H111.783V530.965H112.598H113.413V482.811H112.598ZM160.764 482.811V481.996H112.598V482.811V483.626H160.764V482.811ZM160.764 551.862H161.58V482.811H160.764H159.949V551.862H160.764ZM132.591 568.216L133.001 568.921L161.174 552.567L160.764 551.862L160.355 551.157L132.182 567.511L132.591 568.216ZM212.566 482.811V481.996H203.478V482.811V483.626H212.566V482.811ZM212.566 494.622H213.382V482.811H212.566H211.751V494.622H212.566ZM261.641 494.622V493.807H212.566V494.622V495.437H261.641V494.622ZM333.437 422.845L332.86 422.268L261.065 494.046L261.641 494.622L262.218 495.199L334.012 423.421L333.437 422.845ZM385.238 422.845V422.03H333.437V422.845V423.66H385.238V422.845ZM385.238 360.153H384.422V422.845H385.238H386.053V360.153H385.238ZM422.499 360.153V359.338H385.238V360.153V360.968H422.499V360.153ZM422.499 421.936H423.315V360.153H422.499H421.684V421.936H422.499ZM444.31 421.936V421.121H422.499V421.936V422.751H444.31V421.936ZM444.31 514.611H445.125V421.936H444.31H443.495V514.611H444.31ZM489.75 514.611V513.796H444.31V514.611V515.426H489.75V514.611ZM489.75 533.69H490.565V514.611H489.75H488.935V533.69H489.75ZM520.65 564.582L521.226 564.005L490.327 533.115L489.75 533.69L489.174 534.267L520.073 565.158L520.65 564.582ZM559.728 564.582V563.767H520.65V564.582V565.397H559.728V564.582ZM559.728 578.211H560.543V564.582H559.728H558.913V578.211H559.728ZM479.754 578.211V579.026H559.728V578.211V577.396H479.754V578.211ZM479.754 680.879H480.569V578.211H479.754H478.939V680.879H479.754ZM471.574 680.879V681.694H479.754V680.879V680.064H471.574V680.879ZM471.574 671.794H470.759V680.879H471.574H472.389V671.794H471.574ZM432.496 671.794V672.609H471.574V671.794V670.979H432.496V671.794ZM432.496 600.016H431.68V671.794H432.496H433.311V600.016H432.496ZM430.678 600.016V600.831H432.496V600.016V599.201H430.678V600.016ZM430.678 597.29H429.862V600.016H430.678H431.493V597.29H430.678ZM427.952 594.565L427.376 595.14L430.102 597.867L430.678 597.29L431.255 596.715L428.529 593.988L427.952 594.565ZM427.952 590.022H427.136V594.565H427.952H428.767V590.022H427.952ZM350.703 590.022V590.837H427.952V590.022V589.207H350.703V590.022ZM350.703 602.743H351.518V590.022H350.703H349.888V602.743H350.703ZM297.993 602.743V603.558H350.703V602.743V601.928H297.993V602.743ZM277.999 639.994L278.718 640.378L298.712 603.127L297.993 602.743L297.276 602.356L277.282 639.607L277.999 639.994ZM256.189 639.994V640.809H277.999V639.994V639.179H256.189V639.994ZM203.478 526.422L202.738 526.766L255.448 640.336L256.189 639.994L256.927 639.65L204.217 526.08L203.478 526.422ZM203.478 482.811H202.663V526.422H203.478H204.293V482.811H203.478ZM191.664 361.063H192.479V275.656H191.664H190.849V361.063H191.664ZM235.286 361.063V360.248H191.664V361.063V361.878H235.286V361.063ZM235.286 295.645H234.471V361.063H235.286H236.102V295.645H235.286ZM217.11 295.645V296.46H235.286V295.645V294.83H217.11V295.645ZM217.11 275.656H216.295V295.645H217.11H217.926V275.656H217.11ZM191.664 275.656V276.471H217.11V275.656V274.841H191.664V275.656ZM38.0762 356.52V357.335H121.686V356.52V355.705H38.0762V356.52ZM38.0762 349.25H37.261V356.52H38.0762H38.8914V349.25H38.0762ZM98.057 349.25V348.435H38.0762V349.25V350.065H98.057V349.25ZM98.057 291.102H97.2417V349.25H98.057H98.8722V291.102H98.057ZM105.327 291.102V290.287H98.057V291.102V291.917H105.327V291.102ZM105.327 302.913H106.143V291.102H105.327H104.512V302.913H105.327ZM140.771 302.913V302.098H105.327V302.913V303.728H140.771V302.913ZM140.771 341.982H141.586V302.913H140.771H139.955V341.982H140.771ZM158.947 341.982V341.167H140.771V341.982V342.797H158.947V341.982ZM158.947 370.148H159.762V341.982H158.947H158.131V370.148H158.947ZM121.686 370.148V370.963H158.947V370.148V369.333H121.686V370.148ZM121.686 356.52H120.871V370.148H121.686H122.501V356.52H121.686ZM522.964 197.519L523.679 197.128L523.48 196.768L522.766 197.158L522.051 197.549L522.248 197.911L522.964 197.519ZM522.766 197.158L523.482 196.768L523.182 196.22L522.466 196.612L521.752 197.001L522.051 197.549L522.766 197.158Z" fill="#674A81"/>
<path d="M452.49 63.051H467.03C471.025 60.8392 473.201 61.494 477.028 63.9596H493.386L497.02 63.051" stroke="#674A81" stroke-width="0.5"/>
<path d="M113.507 452.828V422.845H123.504V419.21H136.227V393.771M136.227 393.771H123.504M136.227 393.771H146.224" stroke="#674A81"/>
<path d="M609.712 570.943V583.662H621.527V570.943M697.865 530.965H680.599V544.593H697.865M139.862 271.113L158.947 252.034L168.034 261.12L148.95 280.199L139.862 271.113Z" stroke="#674A81"/>
<path d="M160.764 482.811H203.478" stroke="#674A81"/>
<path d="M202.568 446.468V441.017H170.76V446.468H202.568Z" fill="#26003A" stroke="#674A81"/>
<path d="M143.497 482.811V470.999H154.403V482.811M74.4282 439.199V421.936M116.233 404.674H103.51V391.953H116.233V399.221M116.233 404.674V399.221M116.233 404.674V411.942H129.865V399.221H116.233M208.022 441.017V398.314H220.745V441.017M265.277 301.096H238.921V361.063H230.743M482.48 361.063H470.666V367.421M470.666 367.421V380.142H482.48M470.666 367.421H482.48" stroke="#674A81"/>
<path d="M537.916 414.668V424.663H552.458V414.668M631.523 441.017V429.206H643.337V441.017M220.745 562.765L194.39 581.844L196.642 585.135M196.642 585.135L206.204 599.108L228.925 582.754M196.642 585.135L186.21 592.747L191.664 600.016L201.66 592.747" stroke="#674A81"/>
<path d="M155.312 621.822V619.097H168.944V632.725H155.312M337.071 669.068V657.255H350.703V669.068M350.703 602.743V626.365M388.874 708.632L385.238 708.137V718.13L405.232 720.856V716.313M388.874 708.632V702.684H396.144M388.874 708.632L396.144 709.623M405.232 716.313H411.594V709.623H405.232V711.77M405.232 716.313V711.77M396.144 702.684V709.623M396.144 702.684H403.414V710.614M396.144 709.623L403.414 710.614M403.414 710.614L405.232 710.862V711.77" stroke="#674A81"/>
<path d="M382.511 162.085L377.002 152.545H388.02L382.511 162.085Z" fill="#674A81"/>
<path d="M410.684 570.943L416.981 581.844H404.389L410.684 570.943Z" fill="#674A81"/>
<path d="M381.96 169.354V310.182M410.684 153V310.182M410.684 361.063V565.49M382.181 422.845V581.844" stroke="#674A81" stroke-width="0.5"/>
<path d="M377.059 422.845V347.434H431.18V421.936M489.75 428.296V514.611M444.31 508.25H453.398L456.124 510.068V514.611M558.818 565.49L576.086 548.228M485.206 578.211V583.662H479.754M587.9 379.234H599.715V350.16M613.347 350.16H639.703V362.879M613.347 311.091V272.931" stroke="#674A81" stroke-width="0.5"/>
<path d="M105.327 266.57V291.102M301.629 246.583V176.134M712.407 448.285H736.035V421.028H710.589M696.049 399.222V370.148H748.759" stroke="#674A81" stroke-width="0.5"/>
<path d="M696.047 399.222V421.028H710.589" stroke="#674A81"/>
<path d="M736.035 370.148V382.868H748.758M368.879 28.5254V38.5197H381.603V51.2396H394.326V28.5254M445.22 33.9768V43.9711C446.739 46.9277 446.599 48.509 445.22 51.2396V62.1425L448.854 63.9596H451.58L453.398 62.1425V53.0567C451.461 48.5121 451.852 46.4537 453.398 43.0626V35.794" stroke="#674A81"/>
<path d="M38.0762 392.863V374.691V356.52" stroke="#674A81"/>
<path d="M160.764 482.811V390.136H234.818V361.441M265.277 301.096V417.561L258.006 424.663H202.568V441.017M203.478 446.468V482.811" stroke="#674A81"/>
<path d="M715.133 390.136V371.056H696.957V390.136H715.133Z" stroke="#674A81"/>
<path d="M747.851 421.393H736.035V447.821H673.329V338.348H747.851V421.393Z" fill="#4F276A" fill-opacity="0.4"/>
<path d="M682.652 436.233H680.129L684.721 423.193H687.638L692.237 436.233H689.715L686.23 425.866H686.128L682.652 436.233ZM682.733 431.119H689.612V433.017H682.733V431.119Z" fill="white"/>
<path d="M38.0759 421.936H74.4279V441.173L72.6111 438.291L54.2927 467.366H25.3525V456.461H14.4473V392.863H38.0759V421.936Z" fill="#4F276A" fill-opacity="0.4"/>
<path d="M121.685 356.52V371.056H123.504V398.314H116.234V391.044H103.51V403.764H116.234V412.85H123.504V421.936H38.0762V356.52H121.685Z" fill="#4F276A" fill-opacity="0.4"/>
<path d="M55.7207 398.072V385.032H60.7139C61.6566 385.032 62.4399 385.181 63.064 385.477C63.6926 385.771 64.1616 386.172 64.4716 386.682C64.7858 387.19 64.9429 387.767 64.9429 388.413C64.9429 388.944 64.841 389.397 64.6372 389.776C64.4334 390.149 64.1595 390.454 63.8157 390.687C63.4716 390.92 63.0875 391.088 62.6628 391.189V391.316C63.1257 391.342 63.5693 391.484 63.994 391.743C64.4228 391.997 64.773 392.359 65.0448 392.825C65.3166 393.293 65.4524 393.857 65.4524 394.519C65.4524 395.194 65.2889 395.802 64.962 396.341C64.6351 396.876 64.1426 397.298 63.4845 397.608C62.8263 397.918 61.9984 398.072 61.0005 398.072H55.7207ZM58.0837 396.098H60.6247C61.4825 396.098 62.1003 395.935 62.4782 395.608C62.8602 395.277 63.0513 394.853 63.0513 394.335C63.0513 393.948 62.9558 393.601 62.7647 393.29C62.5737 392.977 62.302 392.731 61.9495 392.552C61.5971 392.369 61.1768 392.278 60.6885 392.278H58.0837V396.098ZM58.0837 390.578H60.4209C60.8285 390.578 61.1959 390.504 61.5228 390.356C61.8498 390.203 62.1066 389.987 62.2935 389.712C62.4846 389.432 62.5801 389.101 62.5801 388.719C62.5801 388.214 62.4017 387.798 62.045 387.471C61.6927 387.145 61.1683 386.98 60.472 386.98H58.0837V390.578Z" fill="white"/>
</svg>
