<svg width="750" height="771" viewBox="0 0 750 771" fill="none" xmlns="http://www.w3.org/2000/svg">
<g clip-path="url(#clip0_163_180)">
<path fill-rule="evenodd" clip-rule="evenodd" d="M670.601 149.178V170.075L649.699 184.613L694.229 259.115V280.921H675.145V331.801H677.871L695.139 304.543H724.221V315.447H736.035V420.84H748.758V442.647H672.419V490.801L661.513 504.43H644.247V510.79L607.895 547.131H526.102V593.47H546.096V696.138L498.838 742.475H313.443L304.355 737.024H299.811L293.449 733.389L286.179 727.029H277.999L265.277 723.395H256.189L220.745 717.943L188.028 716.125L166.216 690.686V656.16H182.575V639.806L171.67 600.738L160.764 571.663C161.104 568.377 161.789 566.838 163.49 564.395L168.034 559.852L164.398 554.401C155.111 550.882 149.948 549.969 140.77 548.949L92.6039 514.423V408.121H109.871V400.852H77.1543V433.561H0.814941V307.269H58.0694V283.647H51.7079V186.429L109.871 128.281H166.216V148.269H228.015V99.2067H208.021V42.8754L226.197 33.7897H292.539V30.1554H398.87V101.932H412.502V82.8525H471.574V97.3895H492.476L514.288 85.5782H554.275V84.6697H594.263V149.178H670.601ZM201.66 391.766H162.582V407.212L156.22 420.84H136.226V432.652H155.311V498.069H136.226V511.698H183.484C202.472 533.653 212.198 547.133 226.611 573.481L227.107 608.006L228.925 609.823V624.36L226.611 637.081H222.563V655.252H227.107V667.971H292.539V626.178H396.144V666.155H454.306L486.114 634.355V607.098H457.032L437.04 580.749V525.326H485.206V469.904H434.314L415.228 460.818H230.741L201.66 430.834V391.766ZM278.907 349.064V280.921H272.547V331.801L243.465 356.332H197.116V364.509H231.651V409.937H267.093V349.064H278.907ZM174.396 244.578V221.864H139.861V200.449H106.236V284.554H88.0597V307.269L105.327 329.983H136.226V312.721H211.657V280.921H209.839L174.396 244.578ZM578.813 329.983H507.926L477.936 359.966V383.59L461.576 399.944V435.377H445.218V382.68L503.382 324.532H578.813V329.983ZM616.983 202.784L636.975 240.035V288.189H588.809V219.138L616.983 202.784ZM546.095 288.189H537.008V276.378H487.932L416.138 348.155H364.335V410.847H327.075V349.064H305.263V256.389H259.823V237.31L228.925 206.418H189.845V192.789H269.821V90.1211H277.999V99.2067H317.077V170.984H318.895V173.71L321.621 176.435V180.978H398.87V168.257H451.58L471.574 131.007H493.384L546.095 244.578V288.189ZM557.91 495.344V409.937H514.288V475.355H532.464V495.344H557.91ZM627.887 414.48H711.497V421.75H651.517V479.898H644.245V468.087H608.803V429.018H590.627V400.852H627.887V414.48Z" fill="#26003A"/>
<path d="M670.601 170.075L671.067 170.745L671.416 170.502V170.075H670.601ZM670.601 149.178H671.416V148.363H670.601V149.178ZM649.699 184.613L649.233 183.943L648.608 184.378L648.999 185.03L649.699 184.613ZM694.229 259.115H695.044V258.89L694.93 258.697L694.229 259.115ZM694.229 280.921V281.736H695.044V280.921H694.229ZM675.145 280.921V280.106H674.33V280.921H675.145ZM675.145 331.801H674.33V332.616H675.145V331.801ZM677.871 331.801V332.616H678.319L678.561 332.237L677.871 331.801ZM695.139 304.543V303.728H694.691L694.449 304.108L695.139 304.543ZM724.221 304.543H725.036V303.728H724.221V304.543ZM724.221 315.447H723.406V316.262H724.221V315.447ZM736.035 315.447H736.85V314.632H736.035V315.447ZM736.035 420.84H735.22V421.655H736.035V420.84ZM748.758 420.84H749.573V420.025H748.758V420.84ZM748.758 442.647V443.462H749.573V442.647H748.758ZM672.419 442.647V441.832H671.604V442.647H672.419ZM672.419 490.801L673.055 491.31L673.234 491.086V490.801H672.419ZM661.513 504.43V505.245H661.904L662.15 504.938L661.513 504.43ZM644.247 504.43V503.615H643.431V504.43H644.247ZM644.247 510.79L644.822 511.365L645.062 511.127V510.79H644.247ZM607.894 547.131V547.946H608.232L608.47 547.708L607.894 547.131ZM526.102 547.131V546.316H525.287V547.131H526.102ZM526.102 593.469H525.287V594.285H526.102V593.469ZM546.096 593.469H546.911V592.654H546.096V593.469ZM546.096 696.138L546.667 696.72L546.911 696.48V696.138H546.096ZM498.838 742.475V743.29H499.171L499.409 743.057L498.838 742.475ZM313.443 742.475L313.022 743.174L313.216 743.29H313.443V742.475ZM304.355 737.024L304.774 736.325L304.58 736.209H304.355V737.024ZM299.811 737.024L299.406 737.731L299.594 737.839H299.811V737.024ZM293.449 733.389L292.912 734.002L292.973 734.056L293.044 734.096L293.449 733.389ZM286.179 727.029L286.715 726.416L286.485 726.214H286.179V727.029ZM277.999 727.029L277.775 727.813L277.885 727.844H277.999V727.029ZM265.277 723.395L265.5 722.611L265.391 722.58H265.277V723.395ZM256.188 723.395L256.065 724.2L256.125 724.21H256.188V723.395ZM220.744 717.943L220.868 717.138L220.829 717.131L220.79 717.129L220.744 717.943ZM188.028 716.125L187.409 716.657L187.635 716.921L187.983 716.94L188.028 716.125ZM166.216 690.686H165.401V690.987L165.598 691.217L166.216 690.686ZM166.216 656.16V655.345H165.401V656.16H166.216ZM182.574 656.16V656.975H183.39V656.16H182.574ZM182.574 639.806H183.39V639.695L183.36 639.588L182.574 639.806ZM171.67 600.738L172.454 600.519L172.444 600.485L172.433 600.451L171.67 600.738ZM160.764 571.663L159.953 571.58L159.933 571.771L160 571.95L160.764 571.663ZM163.49 564.395L162.914 563.818L162.862 563.87L162.821 563.929L163.49 564.395ZM168.034 559.852L168.611 560.429L169.083 559.956L168.712 559.4L168.034 559.852ZM164.398 554.401L165.077 553.948L164.931 553.731L164.688 553.638L164.398 554.401ZM140.77 548.949L140.295 549.612L140.468 549.736L140.68 549.759L140.77 548.949ZM92.6037 514.423H91.7885V514.842L92.1286 515.085L92.6037 514.423ZM92.6037 408.121V407.306H91.7885V408.121H92.6037ZM109.871 408.121V408.936H110.686V408.121H109.871ZM109.871 400.852H110.686V400.036H109.871V400.852ZM77.154 400.852V400.036H76.3388V400.852H77.154ZM77.154 433.561V434.376H77.9693V433.561H77.154ZM0.814729 433.561H-0.000488281V434.376H0.814729V433.561ZM0.814729 307.269V306.454H-0.000488281V307.269H0.814729ZM58.0691 307.269V308.084H58.8844V307.269H58.0691ZM58.0691 283.646H58.8844V282.831H58.0691V283.646ZM51.7077 283.646H50.8925V284.461H51.7077V283.646ZM51.7077 186.429L51.1312 185.853L50.8925 186.091V186.429H51.7077ZM109.871 128.281V127.466H109.533L109.294 127.705L109.871 128.281ZM166.216 128.281H167.031V127.466H166.216V128.281ZM166.216 148.269H165.401V149.084H166.216V148.269ZM228.015 148.269V149.084H228.83V148.269H228.015ZM228.015 99.2066H228.83V98.3916H228.015V99.2066ZM208.021 99.2066H207.205V100.022H208.021V99.2066ZM208.021 42.8754L207.657 42.1464L207.205 42.3715V42.8754H208.021ZM226.197 33.7896V32.9746H226.004L225.833 33.0607L226.197 33.7896ZM292.539 33.7896V34.6047H293.354V33.7896H292.539ZM292.539 30.1553V29.3403H291.724V30.1553H292.539ZM398.869 30.1553H399.685V29.3403H398.869V30.1553ZM398.869 101.932H398.054V102.747H398.869V101.932ZM412.502 101.932V102.747H413.317V101.932H412.502ZM412.502 82.8525V82.0375H411.686V82.8525H412.502ZM471.574 82.8525H472.389V82.0375H471.574V82.8525ZM471.574 97.3895H470.759V98.2045H471.574V97.3895ZM492.476 97.3895V98.2045H492.683L492.864 98.1062L492.476 97.3895ZM514.288 85.5782V84.7632H514.081L513.898 84.8615L514.288 85.5782ZM554.274 85.5782V86.3932H555.09V85.5782H554.274ZM554.274 84.6696V83.8546H553.459V84.6696H554.274ZM594.262 84.6696H595.078V83.8546H594.262V84.6696ZM594.262 149.178H593.447V149.993H594.262V149.178ZM162.581 391.766V390.951H161.766V391.766H162.581ZM201.66 391.766H202.475V390.951H201.66V391.766ZM162.581 407.212L163.321 407.557L163.397 407.393V407.212H162.581ZM156.22 420.84V421.655H156.739L156.958 421.186L156.22 420.84ZM136.226 420.84V420.025H135.411V420.84H136.226ZM136.226 432.652H135.411V433.467H136.226V432.652ZM155.311 432.652H156.126V431.837H155.311V432.652ZM155.311 498.069V498.884H156.126V498.069H155.311ZM136.226 498.069V497.254H135.411V498.069H136.226ZM136.226 511.698H135.411V512.513H136.226V511.698ZM183.484 511.698L184.1 511.165L183.856 510.883H183.484V511.698ZM226.611 573.481L227.424 573.469L227.423 573.267L227.325 573.089L226.611 573.481ZM227.106 608.006L226.291 608.017L226.296 608.348L226.529 608.583L227.106 608.006ZM228.924 609.823H229.74V609.486L229.5 609.246L228.924 609.823ZM228.924 624.36L229.727 624.507L229.74 624.433V624.36H228.924ZM226.611 637.081V637.896H227.291L227.411 637.226L226.611 637.081ZM222.562 637.081V636.266H221.747V637.081H222.562ZM222.562 655.252H221.747V656.067H222.562V655.252ZM227.106 655.252H227.922V654.437H227.106V655.252ZM227.106 667.971H226.291V668.786H227.106V667.971ZM292.539 667.971V668.786H293.354V667.971H292.539ZM292.539 626.178V625.363H291.724V626.178H292.539ZM396.143 626.178H396.959V625.363H396.143V626.178ZM396.143 666.155H395.328V666.97H396.143V666.155ZM454.306 666.155V666.97H454.643L454.883 666.731L454.306 666.155ZM486.114 634.355L486.691 634.931L486.929 634.693V634.355H486.114ZM486.114 607.098H486.929V606.283H486.114V607.098ZM457.032 607.098L456.383 607.59L456.628 607.913H457.032V607.098ZM437.04 580.749H436.224V581.023L436.389 581.241L437.04 580.749ZM437.04 525.326V524.511H436.224V525.326H437.04ZM485.206 525.326V526.141H486.021V525.326H485.206ZM485.206 469.904H486.021V469.089H485.206V469.904ZM434.313 469.904L433.963 470.639L434.129 470.719H434.313V469.904ZM415.228 460.818L415.578 460.082L415.412 460.003H415.228V460.818ZM230.741 460.818L230.155 461.386L230.397 461.633H230.741V460.818ZM201.66 430.834H200.845V431.165L201.075 431.403L201.66 430.834ZM278.907 280.921H279.722V280.106H278.907V280.921ZM278.907 349.064V349.879H279.722V349.064H278.907ZM272.547 280.921V280.106H271.731V280.921H272.547ZM272.547 331.801L273.072 332.423L273.362 332.179V331.801H272.547ZM243.465 356.332V357.147H243.763L243.99 356.955L243.465 356.332ZM197.116 356.332V355.517H196.301V356.332H197.116ZM197.116 364.509H196.301V365.324H197.116V364.509ZM231.65 364.509H232.466V363.694H231.65V364.509ZM231.65 409.937H230.835V410.752H231.65V409.937ZM267.093 409.937V410.752H267.908V409.937H267.093ZM267.093 349.064V348.249H266.278V349.064H267.093ZM174.396 221.864H175.211V221.049H174.396V221.864ZM174.396 244.578H173.581V244.909L173.812 245.147L174.396 244.578ZM139.861 221.864H139.046V222.679H139.861V221.864ZM139.861 200.449H140.676V199.634H139.861V200.449ZM106.236 200.449V199.634H105.42V200.449H106.236ZM106.236 284.554V285.369H107.051V284.554H106.236ZM88.0595 284.554V283.739H87.2443V284.554H88.0595ZM88.0595 307.269H87.2443V307.544L87.4106 307.763L88.0595 307.269ZM105.327 329.983L104.678 330.477L104.922 330.798H105.327V329.983ZM136.226 329.983V330.798H137.041V329.983H136.226ZM136.226 312.721V311.906H135.411V312.721H136.226ZM211.656 312.721V313.536H212.472V312.721H211.656ZM211.656 280.921H212.472V280.106H211.656V280.921ZM209.838 280.921L209.255 281.49L209.494 281.736H209.838V280.921ZM507.926 329.983V329.168H507.589L507.349 329.408L507.926 329.983ZM578.812 329.983V330.798H579.628V329.983H578.812ZM477.936 359.966L477.359 359.39L477.121 359.628V359.966H477.936ZM477.936 383.59L478.511 384.165L478.751 383.927V383.59H477.936ZM461.576 399.944L461 399.367L460.761 399.606V399.944H461.576ZM461.576 435.377V436.192H462.391V435.377H461.576ZM445.218 435.377H444.403V436.192H445.218V435.377ZM445.218 382.68L444.642 382.105L444.403 382.343V382.68H445.218ZM503.382 324.532V323.717H503.044L502.805 323.955L503.382 324.532ZM578.812 324.532H579.628V323.717H578.812V324.532ZM636.975 240.035H637.79V239.83L637.694 239.649L636.975 240.035ZM616.982 202.784L617.7 202.398L617.302 201.656L616.572 202.079L616.982 202.784ZM636.975 288.189V289.004H637.79V288.189H636.975ZM588.809 288.189H587.993V289.004H588.809V288.189ZM588.809 219.138L588.399 218.433L587.993 218.669V219.138H588.809ZM537.008 288.189H536.193V289.004H537.008V288.189ZM546.094 288.189V289.004H546.91V288.189H546.094ZM537.008 276.378H537.823V275.563H537.008V276.378ZM487.932 276.378V275.563H487.594L487.355 275.801L487.932 276.378ZM416.137 348.155V348.97H416.475L416.713 348.732L416.137 348.155ZM364.335 348.155V347.34H363.52V348.155H364.335ZM364.335 410.847V411.662H365.15V410.847H364.335ZM327.075 410.847H326.26V411.662H327.075V410.847ZM327.075 349.064H327.89V348.249H327.075V349.064ZM305.263 349.064H304.448V349.879H305.263V349.064ZM305.263 256.389H306.078V255.574H305.263V256.389ZM259.823 256.389H259.008V257.204H259.823V256.389ZM259.823 237.31H260.638V236.972L260.4 236.733L259.823 237.31ZM228.924 206.418L229.5 205.842L229.262 205.603H228.924V206.418ZM189.844 206.418H189.029V207.233H189.844V206.418ZM189.844 192.789V191.974H189.029V192.789H189.844ZM269.821 192.789V193.604H270.636V192.789H269.821ZM269.821 90.1211V89.306H269.005V90.1211H269.821ZM277.999 90.1211H278.814V89.306H277.999V90.1211ZM277.999 99.2066H277.184V100.022H277.999V99.2066ZM317.077 99.2066H317.892V98.3916H317.077V99.2066ZM317.077 170.984H316.262V171.799H317.077V170.984ZM318.895 170.984H319.71V170.169H318.895V170.984ZM318.895 173.71H318.08V174.047L318.318 174.285L318.895 173.71ZM321.621 176.435H322.436V176.098L322.198 175.86L321.621 176.435ZM321.621 180.978H320.806V181.793H321.621V180.978ZM398.869 180.978V181.793H399.685V180.978H398.869ZM398.869 168.257V167.442H398.054V168.257H398.869ZM451.58 168.257V169.072H452.067L452.299 168.644L451.58 168.257ZM471.574 131.007V130.192H471.086L470.855 130.621L471.574 131.007ZM493.384 131.007L494.124 130.664L493.906 130.192H493.384V131.007ZM546.094 244.578H546.91V244.399L546.835 244.234L546.094 244.578ZM557.91 409.937H558.725V409.122H557.91V409.937ZM557.91 495.344V496.159H558.725V495.344H557.91ZM514.288 409.937V409.122H513.473V409.937H514.288ZM514.288 475.355H513.473V476.17H514.288V475.355ZM532.464 475.355H533.279V474.54H532.464V475.355ZM532.464 495.344H531.649V496.159H532.464V495.344ZM711.497 414.48H712.312V413.665H711.497V414.48ZM627.887 414.48H627.072V415.295H627.887V414.48ZM711.497 421.75V422.565H712.312V421.75H711.497ZM651.517 421.75V420.935H650.702V421.75H651.517ZM651.517 479.898V480.713H652.332V479.898H651.517ZM644.245 479.898H643.43V480.713H644.245V479.898ZM644.245 468.087H645.06V467.272H644.245V468.087ZM608.803 468.087H607.987V468.902H608.803V468.087ZM608.803 429.018H609.618V428.203H608.803V429.018ZM590.627 429.018H589.811V429.833H590.627V429.018ZM590.627 400.852V400.036H589.811V400.852H590.627ZM627.887 400.852H628.702V400.036H627.887V400.852ZM226.808 573.842L227.524 573.451H227.522L226.808 573.842ZM670.601 170.075H671.416V149.178H670.601H669.786V170.075H670.601ZM649.699 184.613L650.163 185.281L671.067 170.745L670.601 170.075L670.136 169.406L649.233 183.943L649.699 184.613ZM694.229 259.115L694.93 258.697L650.398 184.194L649.699 184.613L648.999 185.03L693.53 259.534L694.229 259.115ZM694.229 280.921H695.044V259.115H694.229H693.414V280.921H694.229ZM675.145 280.921V281.736H694.229V280.921V280.106H675.145V280.921ZM675.145 331.801H675.96V280.921H675.145H674.33V331.801H675.145ZM677.871 331.801V330.986H675.145V331.801V332.616H677.871V331.801ZM695.139 304.543L694.449 304.108L677.183 331.365L677.871 331.801L678.561 332.237L695.827 304.98L695.139 304.543ZM724.221 304.543V303.728H695.139V304.543V305.358H724.221V304.543ZM724.221 315.447H725.036V304.543H724.221H723.406V315.447H724.221ZM736.035 315.447V314.632H724.221V315.447V316.262H736.035V315.447ZM736.035 420.84H736.85V315.447H736.035H735.22V420.84H736.035ZM748.758 420.84V420.025H736.035V420.84V421.655H748.758V420.84ZM748.758 442.647H749.573V420.84H748.758H747.942V442.647H748.758ZM672.419 442.647V443.462H748.758V442.647V441.832H672.419V442.647ZM672.419 490.801H673.234V442.647H672.419H671.604V490.801H672.419ZM661.513 504.43L662.15 504.938L673.055 491.31L672.419 490.801L671.781 490.291L660.877 503.919L661.513 504.43ZM644.247 504.43V505.245H661.513V504.43V503.615H644.247V504.43ZM644.247 510.79H645.062V504.43H644.247H643.431V510.79H644.247ZM607.894 547.131L608.47 547.708L644.822 511.365L644.247 510.79L643.669 510.213L607.317 546.556L607.894 547.131ZM526.102 547.131V547.946H607.894V547.131V546.316H526.102V547.131ZM526.102 593.469H526.917V547.131H526.102H525.287V593.469H526.102ZM546.096 593.469V592.654H526.102V593.469V594.285H546.096V593.469ZM546.096 696.138H546.911V593.469H546.096H545.281V696.138H546.096ZM498.838 742.475L499.409 743.057L546.667 696.72L546.096 696.138L545.524 695.556L498.267 741.893L498.838 742.475ZM313.443 742.475V743.29H498.838V742.475V741.66H313.443V742.475ZM304.355 737.024L303.934 737.721L313.022 743.174L313.443 742.475L313.862 741.775L304.774 736.325L304.355 737.024ZM299.811 737.024V737.839H304.355V737.024V736.209H299.811V737.024ZM293.449 733.389L293.044 734.096L299.406 737.731L299.811 737.024L300.215 736.315L293.853 732.681L293.449 733.389ZM286.179 727.029L285.641 727.643L292.912 734.002L293.449 733.389L293.985 732.776L286.715 726.416L286.179 727.029ZM277.999 727.029V727.844H286.179V727.029V726.214H277.999V727.029ZM265.277 723.395L265.052 724.178L277.775 727.813L277.999 727.029L278.222 726.244L265.5 722.611L265.277 723.395ZM256.188 723.395V724.21H265.277V723.395V722.58H256.188V723.395ZM220.744 717.943L220.621 718.748L256.065 724.2L256.188 723.395L256.312 722.588L220.868 717.138L220.744 717.943ZM188.028 716.125L187.983 716.94L220.699 718.756L220.744 717.943L220.79 717.129L188.072 715.312L188.028 716.125ZM166.216 690.686L165.598 691.217L187.409 716.657L188.028 716.125L188.646 715.596L166.836 690.156L166.216 690.686ZM166.216 656.16H165.401V690.686H166.216H167.031V656.16H166.216ZM182.574 656.16V655.345H166.216V656.16V656.975H182.574V656.16ZM182.574 639.806H181.759V656.16H182.574H183.39V639.806H182.574ZM171.67 600.738L170.884 600.956L181.79 640.025L182.574 639.806L183.36 639.588L172.454 600.519L171.67 600.738ZM160.764 571.663L160 571.95L170.905 601.023L171.67 600.738L172.433 600.451L161.527 571.378L160.764 571.663ZM163.49 564.395L162.821 563.929C161.955 565.172 161.317 566.23 160.856 567.419C160.395 568.61 160.127 569.893 159.953 571.58L160.764 571.663L161.575 571.748C161.74 570.147 161.985 569.018 162.377 568.007C162.769 566.995 163.324 566.061 164.159 564.861L163.49 564.395ZM168.034 559.852L167.457 559.275L162.914 563.818L163.49 564.395L164.067 564.972L168.611 560.429L168.034 559.852ZM164.398 554.401L163.72 554.853L167.356 560.303L168.034 559.852L168.712 559.4L165.077 553.948L164.398 554.401ZM140.77 548.949L140.68 549.759C149.812 550.774 154.904 551.676 164.11 555.162L164.398 554.401L164.688 553.638C155.318 550.09 150.084 549.166 140.86 548.139L140.77 548.949ZM92.6037 514.423L92.1286 515.085L140.295 549.612L140.77 548.949L141.245 548.287L93.0787 513.761L92.6037 514.423ZM92.6037 408.121H91.7885V514.423H92.6037H93.4189V408.121H92.6037ZM109.871 408.121V407.306H92.6037V408.121V408.936H109.871V408.121ZM109.871 400.852H109.056V408.121H109.871H110.686V400.852H109.871ZM77.154 400.852V401.667H109.871V400.852V400.036H77.154V400.852ZM77.154 433.561H77.9693V400.852H77.154H76.3388V433.561H77.154ZM0.814729 433.561V434.376H77.154V433.561V432.746H0.814729V433.561ZM0.814729 307.269H-0.000488281V433.561H0.814729H1.62995V307.269H0.814729ZM58.0691 307.269V306.454H0.814729V307.269V308.084H58.0691V307.269ZM58.0691 283.646H57.2539V307.269H58.0691H58.8844V283.646H58.0691ZM51.7077 283.646V284.461H58.0691V283.646V282.831H51.7077V283.646ZM51.7077 186.429H50.8925V283.646H51.7077H52.5229V186.429H51.7077ZM109.871 128.281L109.294 127.705L51.1312 185.853L51.7077 186.429L52.284 187.006L110.447 128.857L109.871 128.281ZM166.216 128.281V127.466H109.871V128.281V129.096H166.216V128.281ZM166.216 148.269H167.031V128.281H166.216H165.401V148.269H166.216ZM228.015 148.269V147.454H166.216V148.269V149.084H228.015V148.269ZM228.015 99.2066H227.199V148.269H228.015H228.83V99.2066H228.015ZM208.021 99.2066V100.022H228.015V99.2066V98.3916H208.021V99.2066ZM208.021 42.8754H207.205V99.2066H208.021H208.836V42.8754H208.021ZM226.197 33.7896L225.833 33.0607L207.657 42.1464L208.021 42.8754L208.386 43.6043L226.562 34.5186L226.197 33.7896ZM292.539 33.7896V32.9746H226.197V33.7896V34.6047H292.539V33.7896ZM292.539 30.1553H291.724V33.7896H292.539H293.354V30.1553H292.539ZM398.869 30.1553V29.3403H292.539V30.1553V30.9704H398.869V30.1553ZM398.869 101.932H399.685V30.1553H398.869H398.054V101.932H398.869ZM412.502 101.932V101.117H398.869V101.932V102.747H412.502V101.932ZM412.502 82.8525H411.686V101.932H412.502H413.317V82.8525H412.502ZM471.574 82.8525V82.0375H412.502V82.8525V83.6675H471.574V82.8525ZM471.574 97.3895H472.389V82.8525H471.574H470.759V97.3895H471.574ZM492.476 97.3895V96.5745H471.574V97.3895V98.2045H492.476V97.3895ZM514.288 85.5782L513.898 84.8615L492.088 96.6729L492.476 97.3895L492.864 98.1062L514.676 86.2947L514.288 85.5782ZM554.274 85.5782V84.7632H514.288V85.5782V86.3932H554.274V85.5782ZM554.274 84.6696H553.459V85.5782H554.274H555.09V84.6696H554.274ZM594.262 84.6696V83.8546H554.274V84.6696V85.4846H594.262V84.6696ZM594.262 149.178H595.078V84.6696H594.262H593.447V149.178H594.262ZM670.601 149.178V148.363H594.262V149.178V149.993H670.601V149.178ZM162.581 391.766V392.581H201.66V391.766V390.951H162.581V391.766ZM162.581 407.212H163.397V391.766H162.581H161.766V407.212H162.581ZM156.22 420.84L156.958 421.186L163.321 407.557L162.581 407.212L161.843 406.868L155.481 420.497L156.22 420.84ZM136.226 420.84V421.655H156.22V420.84V420.025H136.226V420.84ZM136.226 432.652H137.041V420.84H136.226H135.411V432.652H136.226ZM155.311 432.652V431.837H136.226V432.652V433.467H155.311V432.652ZM155.311 498.069H156.126V432.652H155.311H154.496V498.069H155.311ZM136.226 498.069V498.884H155.311V498.069V497.254H136.226V498.069ZM136.226 511.698H137.041V498.069H136.226H135.411V511.698H136.226ZM183.484 511.698V510.883H136.226V511.698V512.513H183.484V511.698ZM226.611 573.481L227.325 573.089C212.883 546.686 203.123 533.159 184.1 511.165L183.484 511.698L182.866 512.231C201.822 534.146 211.513 547.579 225.895 573.872L226.611 573.481ZM227.106 608.006L227.922 607.995L227.424 573.469L226.611 573.481L225.796 573.492L226.291 608.017L227.106 608.006ZM228.924 609.823L229.5 609.246L227.682 607.431L227.106 608.006L226.529 608.583L228.347 610.399L228.924 609.823ZM228.924 624.36H229.74V609.823H228.924H228.109V624.36H228.924ZM226.611 637.081L227.411 637.226L229.727 624.507L228.924 624.36L228.122 624.215L225.809 636.934L226.611 637.081ZM222.562 637.081V637.896H226.611V637.081V636.266H222.562V637.081ZM222.562 655.252H223.378V637.081H222.562H221.747V655.252H222.562ZM227.106 655.252V654.437H222.562V655.252V656.067H227.106V655.252ZM227.106 667.971H227.922V655.252H227.106H226.291V667.971H227.106ZM292.539 667.971V667.156H227.106V667.971V668.786H292.539V667.971ZM292.539 626.178H291.724V667.971H292.539H293.354V626.178H292.539ZM396.143 626.178V625.363H292.539V626.178V626.993H396.143V626.178ZM396.143 666.155H396.959V626.178H396.143H395.328V666.155H396.143ZM454.306 666.155V665.34H396.143V666.155V666.97H454.306V666.155ZM486.114 634.355L485.538 633.778L453.73 665.578L454.306 666.155L454.883 666.731L486.691 634.931L486.114 634.355ZM486.114 607.098H485.299V634.355H486.114H486.929V607.098H486.114ZM457.032 607.098V607.913H486.114V607.098V606.283H457.032V607.098ZM437.04 580.749L436.389 581.241L456.383 607.59L457.032 607.098L457.683 606.606L437.688 580.257L437.04 580.749ZM437.04 525.326H436.224V580.749H437.04H437.855V525.326H437.04ZM485.206 525.326V524.511H437.04V525.326V526.141H485.206V525.326ZM485.206 469.904H484.391V525.326H485.206H486.021V469.904H485.206ZM434.313 469.904V470.719H485.206V469.904V469.089H434.313V469.904ZM415.228 460.818L414.877 461.553L433.963 470.639L434.313 469.904L434.664 469.167L415.578 460.082L415.228 460.818ZM230.741 460.818V461.633H415.228V460.818V460.003H230.741V460.818ZM201.66 430.834L201.075 431.403L230.155 461.386L230.741 460.818L231.326 460.251L202.246 430.267L201.66 430.834ZM201.66 391.766H200.845V430.834H201.66H202.475V391.766H201.66ZM278.907 280.921H278.092V349.064H278.907H279.722V280.921H278.907ZM272.547 280.921V281.736H278.907V280.921V280.106H272.547V280.921ZM272.547 331.801H273.362V280.921H272.547H271.731V331.801H272.547ZM243.465 356.332L243.99 356.955L273.072 332.423L272.547 331.801L272.02 331.178L242.94 355.71L243.465 356.332ZM197.116 356.332V357.147H243.465V356.332V355.517H197.116V356.332ZM197.116 364.509H197.931V356.332H197.116H196.301V364.509H197.116ZM231.65 364.509V363.694H197.116V364.509V365.324H231.65V364.509ZM231.65 409.937H232.466V364.509H231.65H230.835V409.937H231.65ZM267.093 409.937V409.122H231.65V409.937V410.752H267.093V409.937ZM267.093 349.064H266.278V409.937H267.093H267.908V349.064H267.093ZM278.907 349.064V348.249H267.093V349.064V349.879H278.907V349.064ZM174.396 221.864H173.581V244.578H174.396H175.211V221.864H174.396ZM139.861 221.864V222.679H174.396V221.864V221.049H139.861V221.864ZM139.861 200.449H139.046V221.864H139.861H140.676V200.449H139.861ZM106.236 200.449V201.264H139.861V200.449V199.634H106.236V200.449ZM106.236 284.554H107.051V200.449H106.236H105.42V284.554H106.236ZM88.0595 284.554V285.369H106.236V284.554V283.739H88.0595V284.554ZM88.0595 307.269H88.8747V284.554H88.0595H87.2443V307.269H88.0595ZM105.327 329.983L105.976 329.491L88.7086 306.776L88.0595 307.269L87.4106 307.763L104.678 330.477L105.327 329.983ZM136.226 329.983V329.168H105.327V329.983V330.798H136.226V329.983ZM136.226 312.721H135.411V329.983H136.226H137.041V312.721H136.226ZM211.656 312.721V311.906H136.226V312.721V313.536H211.656V312.721ZM211.656 280.921H210.841V312.721H211.656H212.472V280.921H211.656ZM209.838 280.921V281.736H211.656V280.921V280.106H209.838V280.921ZM174.396 244.578L173.812 245.147L209.255 281.49L209.838 280.921L210.422 280.352L174.98 244.009L174.396 244.578ZM507.926 329.983V330.798H578.812V329.983V329.168H507.926V329.983ZM477.936 359.966L478.511 360.543L508.502 330.56L507.926 329.983L507.349 329.408L477.359 359.39L477.936 359.966ZM477.936 383.59H478.751V359.966H477.936H477.121V383.59H477.936ZM461.576 399.944L462.153 400.521L478.511 384.165L477.936 383.59L477.359 383.013L461 399.367L461.576 399.944ZM461.576 435.377H462.391V399.944H461.576H460.761V435.377H461.576ZM445.218 435.377V436.192H461.576V435.377V434.562H445.218V435.377ZM445.218 382.68H444.403V435.377H445.218H446.033V382.68H445.218ZM503.382 324.532L502.805 323.955L444.642 382.105L445.218 382.68L445.795 383.257L503.957 325.108L503.382 324.532ZM578.812 324.532V323.717H503.382V324.532V325.347H578.812V324.532ZM578.812 329.983H579.628V324.532H578.812H577.997V329.983H578.812ZM636.975 240.035L637.694 239.649L617.7 202.398L616.982 202.784L616.263 203.169L636.258 240.42L636.975 240.035ZM636.975 288.189H637.79V240.035H636.975H636.16V288.189H636.975ZM588.809 288.189V289.004H636.975V288.189V287.374H588.809V288.189ZM588.809 219.138H587.993V288.189H588.809H589.624V219.138H588.809ZM616.982 202.784L616.572 202.079L588.399 218.433L588.809 219.138L589.218 219.843L617.392 203.489L616.982 202.784ZM537.008 288.189V289.004H546.094V288.189V287.374H537.008V288.189ZM537.008 276.378H536.193V288.189H537.008H537.823V276.378H537.008ZM487.932 276.378V277.193H537.008V276.378V275.563H487.932V276.378ZM416.137 348.155L416.713 348.732L488.509 276.954L487.932 276.378L487.355 275.801L415.56 347.579L416.137 348.155ZM364.335 348.155V348.97H416.137V348.155V347.34H364.335V348.155ZM364.335 410.847H365.15V348.155H364.335H363.52V410.847H364.335ZM327.075 410.847V411.662H364.335V410.847V410.032H327.075V410.847ZM327.075 349.064H326.26V410.847H327.075H327.89V349.064H327.075ZM305.263 349.064V349.879H327.075V349.064V348.249H305.263V349.064ZM305.263 256.389H304.448V349.064H305.263H306.078V256.389H305.263ZM259.823 256.389V257.204H305.263V256.389V255.574H259.823V256.389ZM259.823 237.31H259.008V256.389H259.823H260.638V237.31H259.823ZM228.924 206.418L228.347 206.995L259.247 237.885L259.823 237.31L260.4 236.733L229.5 205.842L228.924 206.418ZM189.844 206.418V207.233H228.924V206.418V205.603H189.844V206.418ZM189.844 192.789H189.029V206.418H189.844H190.66V192.789H189.844ZM269.821 192.789V191.974H189.844V192.789V193.604H269.821V192.789ZM269.821 90.1211H269.005V192.789H269.821H270.636V90.1211H269.821ZM277.999 90.1211V89.306H269.821V90.1211V90.9361H277.999V90.1211ZM277.999 99.2066H278.814V90.1211H277.999H277.184V99.2066H277.999ZM317.077 99.2066V98.3916H277.999V99.2066V100.022H317.077V99.2066ZM317.077 170.984H317.892V99.2066H317.077H316.262V170.984H317.077ZM318.895 170.984V170.169H317.077V170.984V171.799H318.895V170.984ZM318.895 173.71H319.71V170.984H318.895H318.08V173.71H318.895ZM321.621 176.435L322.198 175.86L319.472 173.133L318.895 173.71L318.318 174.285L321.046 177.012L321.621 176.435ZM321.621 180.978H322.436V176.435H321.621H320.806V180.978H321.621ZM398.869 180.978V180.163H321.621V180.978V181.793H398.869V180.978ZM398.869 168.257H398.054V180.978H398.869H399.685V168.257H398.869ZM451.58 168.257V167.442H398.869V168.257V169.072H451.58V168.257ZM471.574 131.007L470.855 130.621L450.862 167.873L451.58 168.257L452.299 168.644L472.291 131.392L471.574 131.007ZM493.384 131.007V130.192H471.574V131.007V131.822H493.384V131.007ZM546.094 244.578L546.835 244.234L494.124 130.664L493.384 131.007L492.646 131.35L545.356 244.92L546.094 244.578ZM546.094 288.189H546.91V244.578H546.094H545.279V288.189H546.094ZM557.91 409.937H557.095V495.344H557.91H558.725V409.937H557.91ZM514.288 409.937V410.752H557.91V409.937V409.122H514.288V409.937ZM514.288 475.355H515.103V409.937H514.288H513.473V475.355H514.288ZM532.464 475.355V474.54H514.288V475.355V476.17H532.464V475.355ZM532.464 495.344H533.279V475.355H532.464H531.649V495.344H532.464ZM557.91 495.344V494.529H532.464V495.344V496.159H557.91V495.344ZM711.497 414.48V413.665H627.887V414.48V415.295H711.497V414.48ZM711.497 421.75H712.312V414.48H711.497H710.682V421.75H711.497ZM651.517 421.75V422.565H711.497V421.75V420.935H651.517V421.75ZM651.517 479.898H652.332V421.75H651.517H650.702V479.898H651.517ZM644.245 479.898V480.713H651.517V479.898V479.083H644.245V479.898ZM644.245 468.087H643.43V479.898H644.245H645.06V468.087H644.245ZM608.803 468.087V468.902H644.245V468.087V467.272H608.803V468.087ZM608.803 429.018H607.987V468.087H608.803H609.618V429.018H608.803ZM590.627 429.018V429.833H608.803V429.018V428.203H590.627V429.018ZM590.627 400.852H589.811V429.018H590.627H591.442V400.852H590.627ZM627.887 400.852V400.036H590.627V400.852V401.667H627.887V400.852ZM627.887 414.48H628.702V400.852H627.887H627.072V414.48H627.887ZM226.611 573.481L225.895 573.872L226.092 574.232L226.808 573.842L227.522 573.451L227.325 573.089L226.611 573.481ZM226.808 573.842L226.092 574.232L226.391 574.78L227.106 574.388L227.822 573.999L227.524 573.451L226.808 573.842Z" fill="#674A81"/>
<path d="M297.083 707.949H282.543C278.548 710.161 276.372 709.506 272.547 707.041H256.189L252.553 707.949" stroke="#674A81" stroke-width="0.5"/>
<path d="M636.067 318.172V348.155H626.069V351.79H613.346V377.229M613.346 377.229H626.069M613.346 377.229H603.349" stroke="#674A81"/>
<path d="M139.861 200.057V187.338H128.046V200.057M51.707 240.035H68.9743V226.407H51.707M609.711 499.887L590.627 518.966L581.539 509.88L600.623 490.801L609.711 499.887Z" stroke="#674A81"/>
<path d="M588.808 288.189H546.096" stroke="#674A81"/>
<path d="M547.003 324.532V329.983H578.811V324.532H547.003Z" fill="#26003A" stroke="#674A81"/>
<path d="M606.076 288.189V300H595.17V288.189M675.145 331.801V349.064M633.341 366.326H646.063V379.047H633.341V371.778M633.341 366.326V371.778M633.341 366.326V359.058H619.709V371.778H633.341M541.55 329.983V372.686H528.828V329.983M484.296 469.904H510.652V409.937H518.83M267.093 409.937H278.907V403.579M278.907 403.579V390.858H267.093M278.907 403.579H267.093" stroke="#674A81"/>
<path d="M211.657 356.332V346.337H197.115V356.332M118.05 329.983V341.794H106.235V329.983M528.828 208.235L555.183 189.156L552.931 185.865M552.931 185.865L543.369 171.892L520.648 188.246M552.931 185.865L563.363 178.253L557.909 170.984L547.913 178.253" stroke="#674A81"/>
<path d="M594.261 149.178V151.904H580.629V138.275H594.261M412.502 101.932V113.744H398.87V101.932M398.87 168.257V144.635M360.7 62.3684L364.335 62.8639V52.8698L344.341 50.144V54.6868M360.7 62.3684V68.3154H353.429M360.7 62.3684L353.429 61.3772M344.341 54.6868H337.979V61.3772H344.341V59.2296M344.341 54.6868V59.2296M353.429 68.3154V61.3772M353.429 68.3154H346.159V60.3861M353.429 61.3772L346.159 60.3861M346.159 60.3861L344.341 60.1382V59.2296" stroke="#674A81"/>
<path d="M367.061 608.914L372.571 618.455H361.552L367.061 608.914Z" fill="#674A81"/>
<path d="M338.887 200.057L332.592 189.156H345.184L338.887 200.057Z" fill="#674A81"/>
<path d="M367.613 601.646V460.818M338.889 618V460.818M338.889 409.937V205.51M367.392 348.155V189.156" stroke="#674A81" stroke-width="0.5"/>
<path d="M372.513 348.155V423.566H318.393V349.064M259.823 342.704V256.389M305.263 262.75H296.175L293.447 260.932V256.389M190.754 205.51L173.486 222.772M264.367 192.789V187.338H269.819M161.672 391.766H149.857V420.841M136.225 420.841H109.87V408.121M136.225 459.909V498.069" stroke="#674A81" stroke-width="0.5"/>
<path d="M644.245 504.43V479.898M447.944 524.419V594.866M37.1665 322.715H13.5377V349.972H38.9842M53.5249 371.778V400.852H0.814453" stroke="#674A81" stroke-width="0.5"/>
<path d="M53.5248 371.778V349.972H38.9839" stroke="#674A81"/>
<path d="M13.5372 400.852V388.133H0.813965M380.693 742.475V732.481H367.969V719.76H355.247V742.475M304.353 737.024V727.029C302.834 724.072 302.974 722.491 304.353 719.76V708.857L300.719 707.04H297.991L296.175 708.857V717.943C298.112 722.487 297.72 724.546 296.175 727.938V735.206" stroke="#674A81"/>
<path d="M711.497 378.137V396.309V414.48" stroke="#674A81"/>
<path d="M588.808 288.189V380.864H514.754V409.559M484.296 469.904V353.439L491.568 346.339H547.004V329.983M546.096 324.532V288.189" stroke="#674A81"/>
<path d="M34.4404 380.864V399.944H52.6165V380.864H34.4404Z" stroke="#674A81"/>
<path d="M1.72363 349.607H13.5395V323.179H76.246V432.652H1.72363V349.607Z" fill="#4F276A" fill-opacity="0.4"/>
<path d="M66.9226 347.006H69.4447L64.8527 333.965H61.9357L57.3374 347.006H59.8595L63.3433 336.64H63.4452L66.9226 347.006ZM66.8397 341.892H59.9614V343.789H66.8397V341.892Z" fill="white"/>
<path d="M711.498 349.062H675.146V329.827L676.963 332.708L695.281 303.634H724.222V314.539H735.126V378.137H711.498V349.062Z" fill="#4F276A" fill-opacity="0.4"/>
<path d="M627.888 414.48V399.944H626.07V372.686H633.34V379.956H646.063V367.236H633.34V358.15H626.07V349.062H711.497V414.48H627.888Z" fill="#4F276A" fill-opacity="0.4"/>
<path d="M681.886 385.166V372.126H686.878C687.821 372.126 688.605 372.274 689.229 372.571C689.857 372.864 690.327 373.265 690.636 373.774C690.951 374.284 691.107 374.861 691.107 375.506C691.107 376.036 691.005 376.491 690.801 376.869C690.597 377.242 690.323 377.546 689.979 377.779C689.637 378.013 689.252 378.18 688.827 378.282V378.409C689.29 378.436 689.733 378.577 690.159 378.837C690.587 379.091 690.938 379.451 691.209 379.919C691.481 380.385 691.616 380.951 691.616 381.612C691.616 382.287 691.453 382.894 691.127 383.433C690.799 383.968 690.307 384.39 689.648 384.7C688.991 385.011 688.163 385.166 687.165 385.166H681.886ZM684.248 383.192H686.788C687.648 383.192 688.264 383.027 688.642 382.701C689.025 382.37 689.216 381.945 689.216 381.428C689.216 381.042 689.12 380.693 688.929 380.383C688.738 380.069 688.466 379.823 688.114 379.645C687.762 379.462 687.341 379.371 686.854 379.371H684.248V383.192ZM684.248 377.671H686.585C686.992 377.671 687.361 377.596 687.687 377.448C688.015 377.295 688.271 377.081 688.458 376.806C688.649 376.525 688.745 376.194 688.745 375.811C688.745 375.306 688.566 374.89 688.21 374.564C687.856 374.237 687.333 374.074 686.637 374.074H684.248V377.671Z" fill="white"/>
</g>
<defs>
<clipPath id="clip0_163_180">
<rect width="750" height="771" fill="white"/>
</clipPath>
</defs>
</svg>
