<svg width="750" height="900" viewBox="0 0 750 900" fill="none" xmlns="http://www.w3.org/2000/svg">
<path d="M40.5579 641.06H30.7319V635.601H63.4851V665.079H40.5579V641.06Z" fill="#26003A" fill-opacity="0.9" stroke="#674A81" stroke-width="0.5"/>
<path fill-rule="evenodd" clip-rule="evenodd" d="M611.554 255.665V229.462H720.731V306.465H716.926V325.097H690.162V377.503H695.62V442.863H731.034V523.813H747.513V619.225H613.737V653.07H519.845V705.475H419.402V775.348H388.832V773.165H339.703V808.101L277.472 864.873L235.984 834.304V773.165H190.13V705.475H63.4849V636.199H16.5388V605.032H2.3457V483.845H28.5482V424.889H2.3457V369.209H64.5767L142.092 322.263H162.836V303.703H225.067V335.364H229.434V293.877H256.728V290.601H230.525V189.066H350.62V137.528H303.272V70.0633L358.263 35.1266H445.605L492.551 70.0633V181.957H626.839V217.453H607.187V255.665H611.554ZM490.367 667.263V598.481H451.063V584.288H437.962V593.022L417.219 613.766H398.658V653.07H342.978V613.766H325.51L303.674 591.93V558.085H292.756V572.278H231.617V670.538H273.105V730.585H344.07V667.263H490.367ZM591.902 491.487H526.396V507.864H503.469V511.139H539.497V540.617H534.038V543.892H539.497V550.443H544.956V586.472H539.497V618.133H572.007V524.241H591.902V491.487ZM190.13 670.538V646.519H144.276V658.529H103.88V605.032H90.7792V670.538H190.13ZM316.775 256.756V253.481H305.858V270.949L285.114 290.601H278.563V293.877H303.674V374.668H279.655V377.943H285.114V443.449H291.665V451.092H298.215V499.13H230.525V478.386H223.975V499.13H196.681V484.937H144.276V496.946H178.121V591.93H144.276V617.88H189.967V517.982L292.756 518.782V530.791H303.674V477.78H364.403V471.835H344.07V378.815H310.937V316.804H357.171V313.528H310.937V256.756H316.775ZM517.662 543.892H464.165V553.718H451.063V556.798H439.054V478.386H393.2V471.835H439.054V430.348H412.851V377.943H451.063V404.146H470.715V409.604H451.063V507.864H473.991V511.139H451.063V540.617H517.662V543.892ZM658.5 336.456V304.794H624.655V290.601H611.554V284.051H607.187V304.794H543.864V230.554H492.551V257.848H463.073V261.668H526.396V404.146H506.744V409.604H526.396V465.285H591.902V443.449H658.5V385.585H624.655V336.456H658.5ZM444.513 304.794V316.804H397.567V313.528H419.402V282.959L340.196 283.301V257.053H333.682V254.081H351.712V231.646L403.667 231.26V257.432H430.32V304.794H444.513ZM465.257 136.661V196.318H375.731V136.661H465.257ZM250.177 387.769V444.541H230.525V464.193H225.067V453.275H196.681V457.088H132.267V429.892H76.5862V483.845H64.5767V424.889L142.092 379.035H190.13V398.687H225.494V365.599H229.8V374.668H258.912V379.035L250.177 387.769Z" fill="#26003A"/>
<path d="M611.554 229.462V228.513H610.604V229.462H611.554ZM611.554 255.665V256.614H612.503V255.665H611.554ZM720.731 229.462H721.68V228.513H720.731V229.462ZM720.731 306.465V307.415H721.68V306.465H720.731ZM716.926 306.465V305.516H715.976V306.465H716.926ZM716.926 325.098V326.047H717.875V325.098H716.926ZM690.161 325.098V324.148H689.212V325.098H690.161ZM690.161 377.503H689.212V378.452H690.161V377.503ZM695.62 377.503H696.569V376.553H695.62V377.503ZM695.62 442.863H694.671V443.812H695.62V442.863ZM731.033 442.863H731.983V441.913H731.033V442.863ZM731.033 523.813H730.084V524.763H731.033V523.813ZM747.512 523.813H748.462V522.864H747.512V523.813ZM747.512 619.225V620.174H748.462V619.225H747.512ZM613.737 619.225V618.275H612.788V619.225H613.737ZM613.737 653.07V654.019H614.687V653.07H613.737ZM519.845 653.07V652.12H518.895V653.07H519.845ZM519.845 705.475V706.424H520.794V705.475H519.845ZM419.402 705.475V704.525H418.452V705.475H419.402ZM419.402 775.348V776.298H420.351V775.348H419.402ZM388.832 775.348H387.883V776.298H388.832V775.348ZM388.832 773.165H389.781V772.215H388.832V773.165ZM339.702 773.165V772.215H338.753V773.165H339.702ZM339.702 808.101L340.342 808.802L340.652 808.521V808.101H339.702ZM277.471 864.873L276.909 865.639L277.536 866.1L278.111 865.574L277.471 864.873ZM235.984 834.304H235.035V834.784L235.422 835.069L235.984 834.304ZM235.984 773.165H236.933V772.215H235.984V773.165ZM190.13 773.165H189.181V774.114H190.13V773.165ZM190.13 705.475H191.079V704.525H190.13V705.475ZM63.4846 705.475H62.5352V706.424H63.4846V705.475ZM63.4846 636.199H64.4339V635.25H63.4846V636.199ZM16.5384 636.199H15.5891V637.149H16.5384V636.199ZM16.5384 605.032H17.4878V604.082H16.5384V605.032ZM2.34536 605.032H1.396V605.981H2.34536V605.032ZM2.34536 483.845V482.896H1.396V483.845H2.34536ZM28.5479 483.845V484.794H29.4972V483.845H28.5479ZM28.5479 424.889H29.4972V423.94H28.5479V424.889ZM2.34536 424.889H1.396V425.839H2.34536V424.889ZM2.34536 369.209V368.26H1.396V369.209H2.34536ZM64.5763 369.209V370.158H64.8414L65.0681 370.022L64.5763 369.209ZM142.092 322.263V321.313H141.827L141.6 321.45L142.092 322.263ZM162.836 322.263V323.212H163.785V322.263H162.836ZM162.836 303.703V302.753H161.886V303.703H162.836ZM225.066 303.703H226.016V302.753H225.066V303.703ZM225.066 335.364H224.117V336.313H225.066V335.364ZM229.433 335.364V336.313H230.383V335.364H229.433ZM229.433 293.877V292.927H228.484V293.877H229.433ZM256.728 293.877V294.826H257.677V293.877H256.728ZM256.728 290.601H257.677V289.652H256.728V290.601ZM230.525 290.601H229.576V291.551H230.525V290.601ZM230.525 189.066V188.117H229.576V189.066H230.525ZM350.62 189.066V190.016H351.569V189.066H350.62ZM350.62 137.528H351.569V136.579H350.62V137.528ZM303.271 137.528H302.322V138.478H303.271V137.528ZM303.271 70.0633L302.762 69.2621L302.322 69.5417V70.0633H303.271ZM358.262 35.1266V34.1772H357.987L357.754 34.3253L358.262 35.1266ZM445.604 35.1266L446.172 34.365L445.919 34.1772H445.604V35.1266ZM492.55 70.0633H493.5V69.5864L493.118 69.3017L492.55 70.0633ZM492.55 181.957H491.601V182.906H492.55V181.957ZM626.838 181.957H627.788V181.008H626.838V181.957ZM626.838 217.453V218.402H627.788V217.453H626.838ZM607.187 217.453V216.503H606.237V217.453H607.187ZM607.187 255.665H606.237V256.614H607.187V255.665ZM490.367 598.481H491.316V597.532H490.367V598.481ZM490.367 667.263V668.212H491.316V667.263H490.367ZM451.063 598.481H450.114V599.43H451.063V598.481ZM451.063 584.288H452.012V583.339H451.063V584.288ZM437.962 584.288V583.339H437.012V584.288H437.962ZM437.962 593.022L438.634 593.694L438.911 593.415V593.022H437.962ZM417.218 613.766V614.715H417.611L417.89 614.438L417.218 613.766ZM398.658 613.766V612.816H397.709V613.766H398.658ZM398.658 653.07V654.019H399.607V653.07H398.658ZM342.978 653.07H342.028V654.019H342.978V653.07ZM342.978 613.766H343.927V612.816H342.978V613.766ZM325.509 613.766L324.839 614.438L325.116 614.715H325.509V613.766ZM303.674 591.93H302.725V592.323L303.004 592.603L303.674 591.93ZM303.674 558.085H304.623V557.136H303.674V558.085ZM292.756 558.085V557.136H291.807V558.085H292.756ZM292.756 572.279V573.228H293.706V572.279H292.756ZM231.617 572.279V571.329H230.668V572.279H231.617ZM231.617 670.538H230.668V671.487H231.617V670.538ZM273.104 670.538H274.054V669.589H273.104V670.538ZM273.104 730.585H272.155V731.535H273.104V730.585ZM344.069 730.585V731.535H345.019V730.585H344.069ZM344.069 667.263V666.313H343.12V667.263H344.069ZM526.395 491.487V490.538H525.446V491.487H526.395ZM591.902 491.487H592.851V490.538H591.902V491.487ZM526.395 507.864V508.813H527.345V507.864H526.395ZM503.468 507.864V506.915H502.519V507.864H503.468ZM503.468 511.139H502.519V512.089H503.468V511.139ZM539.497 511.139H540.446V510.19H539.497V511.139ZM539.497 540.617V541.567H540.446V540.617H539.497ZM534.038 540.617V539.668H533.088V540.617H534.038ZM534.038 543.892H533.088V544.842H534.038V543.892ZM539.497 543.892H540.446V542.943H539.497V543.892ZM539.497 550.443H538.547V551.392H539.497V550.443ZM544.956 550.443H545.905V549.494H544.956V550.443ZM544.956 586.472V587.421H545.905V586.472H544.956ZM539.497 586.472V585.522H538.547V586.472H539.497ZM539.497 618.133H538.547V619.082H539.497V618.133ZM572.007 618.133V619.082H572.956V618.133H572.007ZM572.007 524.241V523.291H571.057V524.241H572.007ZM591.902 524.241V525.19H592.851V524.241H591.902ZM190.13 646.519H191.079V645.57H190.13V646.519ZM190.13 670.538V671.487H191.079V670.538H190.13ZM144.276 646.519V645.57H143.326V646.519H144.276ZM144.276 658.529V659.478H145.225V658.529H144.276ZM103.88 658.529H102.931V659.478H103.88V658.529ZM103.88 605.032H104.83V604.082H103.88V605.032ZM90.7789 605.032V604.082H89.8295V605.032H90.7789ZM90.7789 670.538H89.8295V671.487H90.7789V670.538ZM316.775 253.481H317.725V252.532H316.775V253.481ZM316.775 256.756V257.706H317.725V256.756H316.775ZM305.857 253.481V252.532H304.908V253.481H305.857ZM305.857 270.949L306.511 271.639L306.807 271.358V270.949H305.857ZM285.114 290.601V291.551H285.493L285.767 291.291L285.114 290.601ZM278.563 290.601V289.652H277.614V290.601H278.563ZM278.563 293.877H277.614V294.826H278.563V293.877ZM303.674 293.877H304.623V292.927H303.674V293.877ZM303.674 374.668V375.617H304.623V374.668H303.674ZM279.655 374.668V373.718H278.706V374.668H279.655ZM279.655 377.943H278.706V378.892H279.655V377.943ZM285.114 377.943H286.063V376.994H285.114V377.943ZM285.114 443.449H284.164V444.399H285.114V443.449ZM291.664 443.449H292.614V442.5H291.664V443.449ZM291.664 451.092H290.715V452.041H291.664V451.092ZM298.215 451.092H299.164V450.142H298.215V451.092ZM298.215 499.13V500.079H299.164V499.13H298.215ZM230.525 499.13H229.576V500.079H230.525V499.13ZM230.525 478.386H231.475V477.437H230.525V478.386ZM223.975 478.386V477.437H223.025V478.386H223.975ZM223.975 499.13V500.079H224.924V499.13H223.975ZM196.68 499.13H195.731V500.079H196.68V499.13ZM196.68 484.937H197.63V483.987H196.68V484.937ZM144.276 484.937V483.987H143.327V484.937H144.276ZM144.276 496.946H143.327V497.896H144.276V496.946ZM178.121 496.946H179.07V495.997H178.121V496.946ZM178.121 591.93V592.88H179.07V591.93H178.121ZM144.276 591.93V590.981H143.327V591.93H144.276ZM144.276 617.88H143.327V618.83H144.276V617.88ZM189.966 617.88V618.83H190.916V617.88H189.966ZM189.966 517.982L189.974 517.033L189.017 517.025V517.982H189.966ZM292.756 518.782H293.706V517.84L292.764 517.832L292.756 518.782ZM292.756 530.791H291.807V531.741H292.756V530.791ZM303.674 530.791V531.741H304.623V530.791H303.674ZM303.674 477.78V476.831H302.725V477.78H303.674ZM364.403 477.78V478.73H365.352V477.78H364.403ZM364.403 471.835H365.352V470.886H364.403V471.835ZM344.069 471.835H343.12V472.785H344.069V471.835ZM344.069 378.815H345.019V377.865H344.069V378.815ZM310.937 378.815H309.987V379.764H310.937V378.815ZM310.937 316.804V315.854H309.987V316.804H310.937ZM357.171 316.804V317.753H358.12V316.804H357.171ZM357.171 313.529H358.12V312.579H357.171V313.529ZM310.937 313.529H309.987V314.478H310.937V313.529ZM310.937 256.756V255.807H309.987V256.756H310.937ZM464.164 543.892V542.943H463.215V543.892H464.164ZM517.661 543.892V544.842H518.611V543.892H517.661ZM464.164 553.718V554.668H465.114V553.718H464.164ZM451.063 553.718V552.769H450.114V553.718H451.063ZM451.063 556.798V557.748H452.012V556.798H451.063ZM439.054 556.798H438.104V557.748H439.054V556.798ZM439.054 478.386H440.003V477.437H439.054V478.386ZM393.199 478.386H392.25V479.335H393.199V478.386ZM393.199 471.835V470.886H392.25V471.835H393.199ZM439.054 471.835V472.785H440.003V471.835H439.054ZM439.054 430.348H440.003V429.399H439.054V430.348ZM412.851 430.348H411.902V431.297H412.851V430.348ZM412.851 377.943V376.994H411.902V377.943H412.851ZM451.063 377.943H452.012V376.994H451.063V377.943ZM451.063 404.146H450.114V405.095H451.063V404.146ZM470.715 404.146H471.664V403.196H470.715V404.146ZM470.715 409.604V410.554H471.664V409.604H470.715ZM451.063 409.604V408.655H450.114V409.604H451.063ZM451.063 507.864H450.114V508.813H451.063V507.864ZM473.99 507.864H474.94V506.915H473.99V507.864ZM473.99 511.139V512.089H474.94V511.139H473.99ZM451.063 511.139V510.19H450.114V511.139H451.063ZM451.063 540.617H450.114V541.567H451.063V540.617ZM517.661 540.617H518.611V539.668H517.661V540.617ZM658.5 304.794H659.449V303.845H658.5V304.794ZM658.5 336.456V337.405H659.449V336.456H658.5ZM624.655 304.794H623.705V305.744H624.655V304.794ZM624.655 290.601H625.604V289.652H624.655V290.601ZM611.554 290.601H610.604V291.551H611.554V290.601ZM611.554 284.051H612.503V283.101H611.554V284.051ZM607.187 284.051V283.101H606.237V284.051H607.187ZM607.187 304.794V305.744H608.136V304.794H607.187ZM543.864 304.794H542.914V305.744H543.864V304.794ZM543.864 230.554H544.813V229.604H543.864V230.554ZM492.55 230.554V229.604H491.601V230.554H492.55ZM492.55 257.848V258.798H493.5V257.848H492.55ZM463.073 257.848V256.899H462.123V257.848H463.073ZM463.073 261.668H462.123V262.618H463.073V261.668ZM526.395 261.668H527.345V260.719H526.395V261.668ZM526.395 404.146V405.095H527.345V404.146H526.395ZM506.744 404.146V403.196H505.794V404.146H506.744ZM506.744 409.604H505.794V410.554H506.744V409.604ZM526.395 409.604H527.345V408.655H526.395V409.604ZM526.395 465.285H525.446V466.234H526.395V465.285ZM591.902 465.285V466.234H592.851V465.285H591.902ZM591.902 443.449V442.5H590.952V443.449H591.902ZM658.5 443.449V444.399H659.449V443.449H658.5ZM658.5 385.585H659.449V384.636H658.5V385.585ZM624.655 385.585H623.705V386.535H624.655V385.585ZM624.655 336.456V335.506H623.705V336.456H624.655ZM444.512 316.804V317.753H445.462V316.804H444.512ZM444.512 304.794H445.462V303.845H444.512V304.794ZM397.566 316.804H396.617V317.753H397.566V316.804ZM397.566 313.529V312.579H396.617V313.529H397.566ZM419.402 313.529V314.478H420.351V313.529H419.402ZM419.402 282.959H420.351V282.006L419.398 282.01L419.402 282.959ZM340.196 283.301H339.247V284.256L340.2 284.25L340.196 283.301ZM340.196 257.053H341.145V256.103H340.196V257.053ZM333.681 257.053H332.732V258.002H333.681V257.053ZM333.681 254.081V253.132H332.732V254.081H333.681ZM351.712 254.081V255.03H352.661V254.081H351.712ZM351.712 231.646L351.706 230.696L350.762 230.704V231.646H351.712ZM403.667 231.26H404.616V230.303L403.659 230.311L403.667 231.26ZM403.667 257.432H402.718V258.382H403.667V257.432ZM430.319 257.432H431.269V256.483H430.319V257.432ZM430.319 304.794H429.37V305.744H430.319V304.794ZM465.256 196.318V197.267H466.206V196.318H465.256ZM465.256 136.661H466.206V135.712H465.256V136.661ZM375.731 196.318H374.781V197.267H375.731V196.318ZM375.731 136.661V135.712H374.781V136.661H375.731ZM250.177 444.541V445.491H251.126V444.541H250.177ZM250.177 387.769L249.507 387.097L249.228 387.376V387.769H250.177ZM230.525 444.541V443.592H229.576V444.541H230.525ZM230.525 464.193V465.142H231.475V464.193H230.525ZM225.066 464.193H224.117V465.142H225.066V464.193ZM225.066 453.275H226.016V452.326H225.066V453.275ZM196.68 453.275V452.326H195.731V453.275H196.68ZM196.68 457.088V458.037H197.63V457.088H196.68ZM132.266 457.088H131.317V458.037H132.266V457.088ZM132.266 429.892H133.216V428.943H132.266V429.892ZM76.5858 429.892V428.943H75.6365V429.892H76.5858ZM76.5858 483.845V484.794H77.5352V483.845H76.5858ZM64.5763 483.845H63.627V484.794H64.5763V483.845ZM64.5763 424.889L64.0931 424.073L63.627 424.348V424.889H64.5763ZM142.092 379.035V378.085H141.832L141.609 378.218L142.092 379.035ZM190.13 379.035H191.079V378.085H190.13V379.035ZM190.13 398.687H189.181V399.636H190.13V398.687ZM225.493 398.687V399.636H226.443V398.687H225.493ZM225.493 365.599V364.65H224.544V365.599H225.493ZM229.8 365.599H230.749V364.65H229.8V365.599ZM229.8 374.668H228.85V375.617H229.8V374.668ZM258.911 374.668H259.861V373.718H258.911V374.668ZM258.911 379.035L259.583 379.707L259.861 379.428V379.035H258.911ZM611.554 229.462H610.604V255.665H611.554H612.503V229.462H611.554ZM720.731 229.462V228.513H611.554V229.462V230.411H720.731V229.462ZM720.731 306.465H721.68V229.462H720.731H719.781V306.465H720.731ZM716.926 306.465V307.415H720.731V306.465V305.516H716.926V306.465ZM716.926 325.098H717.875V306.465H716.926H715.976V325.098H716.926ZM690.161 325.098V326.047H716.926V325.098V324.148H690.161V325.098ZM690.161 377.503H691.111V325.098H690.161H689.212V377.503H690.161ZM695.62 377.503V376.553H690.161V377.503V378.452H695.62V377.503ZM695.62 442.863H696.569V377.503H695.62H694.671V442.863H695.62ZM731.033 442.863V441.913H695.62V442.863V443.812H731.033V442.863ZM731.033 523.813H731.983V442.863H731.033H730.084V523.813H731.033ZM747.512 523.813V522.864H731.033V523.813V524.763H747.512V523.813ZM747.512 619.225H748.462V523.813H747.512H746.563V619.225H747.512ZM613.737 619.225V620.174H747.512V619.225V618.275H613.737V619.225ZM613.737 653.07H614.687V619.225H613.737H612.788V653.07H613.737ZM519.845 653.07V654.019H613.737V653.07V652.12H519.845V653.07ZM519.845 705.475H520.794V653.07H519.845H518.895V705.475H519.845ZM419.402 705.475V706.424H519.845V705.475V704.525H419.402V705.475ZM419.402 775.348H420.351V705.475H419.402H418.452V775.348H419.402ZM388.832 775.348V776.298H419.402V775.348V774.399H388.832V775.348ZM388.832 773.165H387.883V775.348H388.832H389.781V773.165H388.832ZM339.702 773.165V774.114H388.832V773.165V772.215H339.702V773.165ZM339.702 808.101H340.652V773.165H339.702H338.753V808.101H339.702ZM277.471 864.873L278.111 865.574L340.342 808.802L339.702 808.101L339.062 807.401L276.831 864.173L277.471 864.873ZM235.984 834.304L235.422 835.069L276.909 865.639L277.471 864.873L278.035 864.108L236.548 833.539L235.984 834.304ZM235.984 773.165H235.035V834.304H235.984H236.933V773.165H235.984ZM190.13 773.165V774.114H235.984V773.165V772.215H190.13V773.165ZM190.13 705.475H189.181V773.165H190.13H191.079V705.475H190.13ZM63.4846 705.475V706.424H190.13V705.475V704.525H63.4846V705.475ZM63.4846 636.199H62.5352V705.475H63.4846H64.4339V636.199H63.4846ZM16.5384 636.199V637.149H63.4846V636.199V635.25H16.5384V636.199ZM16.5384 605.032H15.5891V636.199H16.5384H17.4878V605.032H16.5384ZM2.34536 605.032V605.981H16.5384V605.032V604.082H2.34536V605.032ZM2.34536 483.845H1.396V605.032H2.34536H3.29473V483.845H2.34536ZM28.5479 483.845V482.896H2.34536V483.845V484.794H28.5479V483.845ZM28.5479 424.889H27.5985V483.845H28.5479H29.4972V424.889H28.5479ZM2.34536 424.889V425.839H28.5479V424.889V423.94H2.34536V424.889ZM2.34536 369.209H1.396V424.889H2.34536H3.29473V369.209H2.34536ZM64.5763 369.209V368.26H2.34536V369.209V370.158H64.5763V369.209ZM142.092 322.263L141.6 321.45L64.0846 368.396L64.5763 369.209L65.0681 370.022L142.584 323.075L142.092 322.263ZM162.836 322.263V321.313H142.092V322.263V323.212H162.836V322.263ZM162.836 303.703H161.886V322.263H162.836H163.785V303.703H162.836ZM225.066 303.703V302.753H162.836V303.703V304.652H225.066V303.703ZM225.066 335.364H226.016V303.703H225.066H224.117V335.364H225.066ZM229.433 335.364V334.415H225.066V335.364V336.313H229.433V335.364ZM229.433 293.877H228.484V335.364H229.433H230.383V293.877H229.433ZM256.728 293.877V292.927H229.433V293.877V294.826H256.728V293.877ZM256.728 290.601H255.778V293.877H256.728H257.677V290.601H256.728ZM230.525 290.601V291.551H256.728V290.601V289.652H230.525V290.601ZM230.525 189.066H229.576V290.601H230.525H231.475V189.066H230.525ZM350.62 189.066V188.117H230.525V189.066V190.016H350.62V189.066ZM350.62 137.528H349.671V189.066H350.62H351.569V137.528H350.62ZM303.271 137.528V138.478H350.62V137.528V136.579H303.271V137.528ZM303.271 70.0633H302.322V137.528H303.271H304.221V70.0633H303.271ZM358.262 35.1266L357.754 34.3253L302.762 69.2621L303.271 70.0633L303.78 70.8646L358.771 35.9279L358.262 35.1266ZM445.604 35.1266V34.1772H358.262V35.1266V36.076H445.604V35.1266ZM492.55 70.0633L493.118 69.3017L446.172 34.365L445.604 35.1266L445.038 35.8882L491.985 70.8249L492.55 70.0633ZM492.55 181.957H493.5V70.0633H492.55H491.601V181.957H492.55ZM626.838 181.957V181.008H492.55V181.957V182.906H626.838V181.957ZM626.838 217.453H627.788V181.957H626.838H625.889V217.453H626.838ZM607.187 217.453V218.402H626.838V217.453V216.503H607.187V217.453ZM607.187 255.665H608.136V217.453H607.187H606.237V255.665H607.187ZM611.554 255.665V254.715H607.187V255.665V256.614H611.554V255.665ZM490.367 598.481H489.418V667.263H490.367H491.316V598.481H490.367ZM451.063 598.481V599.43H490.367V598.481V597.532H451.063V598.481ZM451.063 584.288H450.114V598.481H451.063H452.012V584.288H451.063ZM437.962 584.288V585.237H451.063V584.288V583.339H437.962V584.288ZM437.962 593.022H438.911V584.288H437.962H437.012V593.022H437.962ZM417.218 613.766L417.89 614.438L438.634 593.694L437.962 593.022L437.292 592.35L416.548 613.094L417.218 613.766ZM398.658 613.766V614.715H417.218V613.766V612.816H398.658V613.766ZM398.658 653.07H399.607V613.766H398.658H397.709V653.07H398.658ZM342.978 653.07V654.019H398.658V653.07V652.12H342.978V653.07ZM342.978 613.766H342.028V653.07H342.978H343.927V613.766H342.978ZM325.509 613.766V614.715H342.978V613.766V612.816H325.509V613.766ZM303.674 591.93L303.004 592.603L324.839 614.438L325.509 613.766L326.181 613.094L304.346 591.258L303.674 591.93ZM303.674 558.085H302.725V591.93H303.674H304.623V558.085H303.674ZM292.756 558.085V559.035H303.674V558.085V557.136H292.756V558.085ZM292.756 572.279H293.706V558.085H292.756H291.807V572.279H292.756ZM231.617 572.279V573.228H292.756V572.279V571.329H231.617V572.279ZM231.617 670.538H232.566V572.279H231.617H230.668V670.538H231.617ZM273.104 670.538V669.589H231.617V670.538V671.487H273.104V670.538ZM273.104 730.585H274.054V670.538H273.104H272.155V730.585H273.104ZM344.069 730.585V729.636H273.104V730.585V731.535H344.069V730.585ZM344.069 667.263H343.12V730.585H344.069H345.019V667.263H344.069ZM490.367 667.263V666.313H344.069V667.263V668.212H490.367V667.263ZM526.395 491.487V492.437H591.902V491.487V490.538H526.395V491.487ZM526.395 507.864H527.345V491.487H526.395H525.446V507.864H526.395ZM503.468 507.864V508.813H526.395V507.864V506.915H503.468V507.864ZM503.468 511.139H504.418V507.864H503.468H502.519V511.139H503.468ZM539.497 511.139V510.19H503.468V511.139V512.089H539.497V511.139ZM539.497 540.617H540.446V511.139H539.497H538.547V540.617H539.497ZM534.038 540.617V541.567H539.497V540.617V539.668H534.038V540.617ZM534.038 543.892H534.987V540.617H534.038H533.088V543.892H534.038ZM539.497 543.892V542.943H534.038V543.892V544.842H539.497V543.892ZM539.497 550.443H540.446V543.892H539.497H538.547V550.443H539.497ZM544.956 550.443V549.494H539.497V550.443V551.392H544.956V550.443ZM544.956 586.472H545.905V550.443H544.956H544.006V586.472H544.956ZM539.497 586.472V587.421H544.956V586.472V585.522H539.497V586.472ZM539.497 618.133H540.446V586.472H539.497H538.547V618.133H539.497ZM572.007 618.133V617.184H539.497V618.133V619.082H572.007V618.133ZM572.007 524.241H571.057V618.133H572.007H572.956V524.241H572.007ZM591.902 524.241V523.291H572.007V524.241V525.19H591.902V524.241ZM591.902 491.487H590.952V524.241H591.902H592.851V491.487H591.902ZM190.13 646.519H189.181V670.538H190.13H191.079V646.519H190.13ZM144.276 646.519V647.468H190.13V646.519V645.57H144.276V646.519ZM144.276 658.529H145.225V646.519H144.276H143.326V658.529H144.276ZM103.88 658.529V659.478H144.276V658.529V657.579H103.88V658.529ZM103.88 605.032H102.931V658.529H103.88H104.83V605.032H103.88ZM90.7789 605.032V605.981H103.88V605.032V604.082H90.7789V605.032ZM90.7789 670.538H91.7282V605.032H90.7789H89.8295V670.538H90.7789ZM190.13 670.538V669.589H90.7789V670.538V671.487H190.13V670.538ZM316.775 253.481H315.826V256.756H316.775H317.725V253.481H316.775ZM305.857 253.481V254.43H316.775V253.481V252.532H305.857V253.481ZM305.857 270.949H306.807V253.481H305.857H304.908V270.949H305.857ZM285.114 290.601L285.767 291.291L306.511 271.639L305.857 270.949L305.204 270.26L284.461 289.912L285.114 290.601ZM278.563 290.601V291.551H285.114V290.601V289.652H278.563V290.601ZM278.563 293.877H279.512V290.601H278.563H277.614V293.877H278.563ZM303.674 293.877V292.927H278.563V293.877V294.826H303.674V293.877ZM303.674 374.668H304.623V293.877H303.674H302.725V374.668H303.674ZM279.655 374.668V375.617H303.674V374.668V373.718H279.655V374.668ZM279.655 377.943H280.604V374.668H279.655H278.706V377.943H279.655ZM285.114 377.943V376.994H279.655V377.943V378.892H285.114V377.943ZM285.114 443.449H286.063V377.943H285.114H284.164V443.449H285.114ZM291.664 443.449V442.5H285.114V443.449V444.399H291.664V443.449ZM291.664 451.092H292.614V443.449H291.664H290.715V451.092H291.664ZM298.215 451.092V450.142H291.664V451.092V452.041H298.215V451.092ZM298.215 499.13H299.164V451.092H298.215H297.266V499.13H298.215ZM230.525 499.13V500.079H298.215V499.13V498.18H230.525V499.13ZM230.525 478.386H229.576V499.13H230.525H231.475V478.386H230.525ZM223.975 478.386V479.335H230.525V478.386V477.437H223.975V478.386ZM223.975 499.13H224.924V478.386H223.975H223.025V499.13H223.975ZM196.68 499.13V500.079H223.975V499.13V498.18H196.68V499.13ZM196.68 484.937H195.731V499.13H196.68H197.63V484.937H196.68ZM144.276 484.937V485.886H196.68V484.937V483.987H144.276V484.937ZM144.276 496.946H145.225V484.937H144.276H143.327V496.946H144.276ZM178.121 496.946V495.997H144.276V496.946V497.896H178.121V496.946ZM178.121 591.93H179.07V496.946H178.121H177.171V591.93H178.121ZM144.276 591.93V592.88H178.121V591.93V590.981H144.276V591.93ZM144.276 617.88H145.225V591.93H144.276H143.327V617.88H144.276ZM189.966 617.88V616.931H144.276V617.88V618.83H189.966V617.88ZM189.966 517.982H189.017V617.88H189.966H190.916V517.982H189.966ZM292.756 518.782L292.764 517.832L189.974 517.033L189.966 517.982L189.959 518.932L292.749 519.731L292.756 518.782ZM292.756 530.791H293.706V518.782H292.756H291.807V530.791H292.756ZM303.674 530.791V529.842H292.756V530.791V531.741H303.674V530.791ZM303.674 477.78H302.725V530.791H303.674H304.623V477.78H303.674ZM364.403 477.78V476.831H303.674V477.78V478.73H364.403V477.78ZM364.403 471.835H363.454V477.78H364.403H365.352V471.835H364.403ZM344.069 471.835V472.785H364.403V471.835V470.886H344.069V471.835ZM344.069 378.815H343.12V471.835H344.069H345.019V378.815H344.069ZM310.937 378.815V379.764H344.069V378.815V377.865H310.937V378.815ZM310.937 316.804H309.987V378.815H310.937H311.886V316.804H310.937ZM357.171 316.804V315.854H310.937V316.804V317.753H357.171V316.804ZM357.171 313.529H356.221V316.804H357.171H358.12V313.529H357.171ZM310.937 313.529V314.478H357.171V313.529V312.579H310.937V313.529ZM310.937 256.756H309.987V313.529H310.937H311.886V256.756H310.937ZM316.775 256.756V255.807H310.937V256.756V257.706H316.775V256.756ZM464.164 543.892V544.842H517.661V543.892V542.943H464.164V543.892ZM464.164 553.718H465.114V543.892H464.164H463.215V553.718H464.164ZM451.063 553.718V554.668H464.164V553.718V552.769H451.063V553.718ZM451.063 556.798H452.012V553.718H451.063H450.114V556.798H451.063ZM439.054 556.798V557.748H451.063V556.798V555.849H439.054V556.798ZM439.054 478.386H438.104V556.798H439.054H440.003V478.386H439.054ZM393.199 478.386V479.335H439.054V478.386V477.437H393.199V478.386ZM393.199 471.835H392.25V478.386H393.199H394.149V471.835H393.199ZM439.054 471.835V470.886H393.199V471.835V472.785H439.054V471.835ZM439.054 430.348H438.104V471.835H439.054H440.003V430.348H439.054ZM412.851 430.348V431.297H439.054V430.348V429.399H412.851V430.348ZM412.851 377.943H411.902V430.348H412.851H413.8V377.943H412.851ZM451.063 377.943V376.994H412.851V377.943V378.892H451.063V377.943ZM451.063 404.146H452.012V377.943H451.063H450.114V404.146H451.063ZM470.715 404.146V403.196H451.063V404.146V405.095H470.715V404.146ZM470.715 409.604H471.664V404.146H470.715H469.766V409.604H470.715ZM451.063 409.604V410.554H470.715V409.604V408.655H451.063V409.604ZM451.063 507.864H452.012V409.604H451.063H450.114V507.864H451.063ZM473.99 507.864V506.915H451.063V507.864V508.813H473.99V507.864ZM473.99 511.139H474.94V507.864H473.99H473.041V511.139H473.99ZM451.063 511.139V512.089H473.99V511.139V510.19H451.063V511.139ZM451.063 540.617H452.012V511.139H451.063H450.114V540.617H451.063ZM517.661 540.617V539.668H451.063V540.617V541.567H517.661V540.617ZM517.661 543.892H518.611V540.617H517.661H516.712V543.892H517.661ZM658.5 304.794H657.55V336.456H658.5H659.449V304.794H658.5ZM624.655 304.794V305.744H658.5V304.794V303.845H624.655V304.794ZM624.655 290.601H623.705V304.794H624.655H625.604V290.601H624.655ZM611.554 290.601V291.551H624.655V290.601V289.652H611.554V290.601ZM611.554 284.051H610.604V290.601H611.554H612.503V284.051H611.554ZM607.187 284.051V285H611.554V284.051V283.101H607.187V284.051ZM607.187 304.794H608.136V284.051H607.187H606.237V304.794H607.187ZM543.864 304.794V305.744H607.187V304.794V303.845H543.864V304.794ZM543.864 230.554H542.914V304.794H543.864H544.813V230.554H543.864ZM492.55 230.554V231.503H543.864V230.554V229.604H492.55V230.554ZM492.55 257.848H493.5V230.554H492.55H491.601V257.848H492.55ZM463.073 257.848V258.798H492.55V257.848V256.899H463.073V257.848ZM463.073 261.668H464.022V257.848H463.073H462.123V261.668H463.073ZM526.395 261.668V260.719H463.073V261.668V262.618H526.395V261.668ZM526.395 404.146H527.345V261.668H526.395H525.446V404.146H526.395ZM506.744 404.146V405.095H526.395V404.146V403.196H506.744V404.146ZM506.744 409.604H507.693V404.146H506.744H505.794V409.604H506.744ZM526.395 409.604V408.655H506.744V409.604V410.554H526.395V409.604ZM526.395 465.285H527.345V409.604H526.395H525.446V465.285H526.395ZM591.902 465.285V464.335H526.395V465.285V466.234H591.902V465.285ZM591.902 443.449H590.952V465.285H591.902H592.851V443.449H591.902ZM658.5 443.449V442.5H591.902V443.449V444.399H658.5V443.449ZM658.5 385.585H657.55V443.449H658.5H659.449V385.585H658.5ZM624.655 385.585V386.535H658.5V385.585V384.636H624.655V385.585ZM624.655 336.456H623.705V385.585H624.655H625.604V336.456H624.655ZM658.5 336.456V335.506H624.655V336.456V337.405H658.5V336.456ZM444.512 316.804H445.462V304.794H444.512H443.563V316.804H444.512ZM397.566 316.804V317.753H444.512V316.804V315.854H397.566V316.804ZM397.566 313.529H396.617V316.804H397.566H398.516V313.529H397.566ZM419.402 313.529V312.579H397.566V313.529V314.478H419.402V313.529ZM419.402 282.959H418.452V313.529H419.402H420.351V282.959H419.402ZM340.196 283.301L340.2 284.25L419.406 283.908L419.402 282.959L419.398 282.01L340.192 282.351L340.196 283.301ZM340.196 257.053H339.247V283.301H340.196H341.145V257.053H340.196ZM333.681 257.053V258.002H340.196V257.053V256.103H333.681V257.053ZM333.681 254.081H332.732V257.053H333.681H334.631V254.081H333.681ZM351.712 254.081V253.132H333.681V254.081V255.03H351.712V254.081ZM351.712 231.646H350.762V254.081H351.712H352.661V231.646H351.712ZM403.667 231.26L403.659 230.311L351.706 230.696L351.712 231.646L351.719 232.595L403.675 232.21L403.667 231.26ZM403.667 257.432H404.616V231.26H403.667H402.718V257.432H403.667ZM430.319 257.432V256.483H403.667V257.432V258.382H430.319V257.432ZM430.319 304.794H431.269V257.432H430.319H429.37V304.794H430.319ZM444.512 304.794V303.845H430.319V304.794V305.744H444.512V304.794ZM465.256 196.318H466.206V136.661H465.256H464.307V196.318H465.256ZM375.731 196.318V197.267H465.256V196.318V195.368H375.731V196.318ZM375.731 136.661H374.781V196.318H375.731H376.68V136.661H375.731ZM465.256 136.661V135.712H375.731V136.661V137.611H465.256V136.661ZM250.177 444.541H251.126V387.769H250.177H249.228V444.541H250.177ZM230.525 444.541V445.491H250.177V444.541V443.592H230.525V444.541ZM230.525 464.193H231.475V444.541H230.525H229.576V464.193H230.525ZM225.066 464.193V465.142H230.525V464.193V463.244H225.066V464.193ZM225.066 453.275H224.117V464.193H225.066H226.016V453.275H225.066ZM196.68 453.275V454.225H225.066V453.275V452.326H196.68V453.275ZM196.68 457.088H197.63V453.275H196.68H195.731V457.088H196.68ZM132.266 457.088V458.037H196.68V457.088V456.139H132.266V457.088ZM132.266 429.892H131.317V457.088H132.266H133.216V429.892H132.266ZM76.5858 429.892V430.842H132.266V429.892V428.943H76.5858V429.892ZM76.5858 483.845H77.5352V429.892H76.5858H75.6365V483.845H76.5858ZM64.5763 483.845V484.794H76.5858V483.845V482.896H64.5763V483.845ZM64.5763 424.889H63.627V483.845H64.5763H65.5257V424.889H64.5763ZM142.092 379.035L141.609 378.218L64.0931 424.073L64.5763 424.889L65.0598 425.706L142.576 379.851L142.092 379.035ZM190.13 379.035V378.085H142.092V379.035V379.984H190.13V379.035ZM190.13 398.687H191.079V379.035H190.13H189.181V398.687H190.13ZM225.493 398.687V397.737H190.13V398.687V399.636H225.493V398.687ZM225.493 365.599H224.544V398.687H225.493H226.443V365.599H225.493ZM229.8 365.599V364.65H225.493V365.599V366.549H229.8V365.599ZM229.8 374.668H230.749V365.599H229.8H228.85V374.668H229.8ZM258.911 374.668V373.718H229.8V374.668V375.617H258.911V374.668ZM258.911 379.035H259.861V374.668H258.911H257.962V379.035H258.911ZM250.177 387.769L250.849 388.441L259.583 379.707L258.911 379.035L258.241 378.363L249.507 387.097L250.177 387.769Z" fill="#674A81"/>
<path d="M475.082 251.44C473.352 251.44 471.95 252.843 471.95 254.573C471.95 256.303 473.352 257.706 475.082 257.706C476.813 257.706 478.215 256.303 478.215 254.573C478.215 252.843 476.813 251.44 475.082 251.44Z" stroke="#674A81"/>
<path d="M396.476 316.804H358.264M358.264 313.528H396.476M397.566 316.804V330.997H357.171V316.804M402.56 316.804V336.456H351.209V316.804M398.658 645.427H342.978M572.25 550.443H585.351M585.351 550.443V524.241M585.351 550.443V564.636H572.25M730.557 524.241H706.538V564.636H740.383M740.383 564.636H746.933M740.383 564.636V576.646H746.933M658.5 385.585V350.649H645.399M505.652 406.329L491.459 411.788M470.715 407.421L486 401.962M503.468 511.139H472.899M506.743 507.864V494.763H470.715V507.864M244.718 290.601V204.351H298.215V189.067M304.766 189.067V210.902H251.269V290.601M162.836 322.263H170.478V316.804M170.478 316.804V303.703M170.478 316.804H173.754V303.703M16.5383 605.032V595.206M16.5383 595.206V591.93H2.34521M16.5383 595.206H2.34521M54.7504 605.032H34.0067M511.111 344.098H505.652V337.547H512.202M503.468 507.864H473.99V499.13H503.468V507.864Z" stroke="#674A81" stroke-width="0.5"/>
<path d="M231.617 600.665H225.066M225.066 600.665H218.516V588.655H231.617M225.066 600.665V607.215H231.617M114.798 658.529V647.611H103.88M144.276 496.946H133.358V487.12H144.276M76.5861 472.927H90.7792V498.038H64.5766V484.937M90.7792 605.032H53.6589M35.0988 605.032H16.5386M75.4943 362.658L82.045 374.668L71.1273 381.218L62.3931 369.209M451.063 453.275H465.256V442.358H451.063M526.395 350.649H512.202V337.547H526.395M110.431 551.535L59.1178 565.728L54.7507 550.443L106.064 536.25L110.431 551.535Z" stroke="#674A81"/>
<path d="M350.622 189.067V202.168H338.613V189.067M243.629 293.877V306.978H229.436M303.676 336.456H285.116V324.446H303.676M298.217 484.937H285.116V499.13M318.961 477.294V490.396H311.318M311.318 490.396H303.676M311.318 490.396V498.038H303.676M425.955 477.294V537.342H439.056M612.648 537.342V551.535H666.144V537.342H624.657M612.648 537.342V525.332H624.657V537.342M612.648 537.342H624.657M685.796 619.225V606.123H672.695V619.225M613.739 637.785H598.455V653.07M645.401 443.449V457.642H633.391V443.449M637.758 304.794L624.657 291.693M607.189 290.601H592.996V297.699M592.996 297.699V304.794M592.996 297.699H585.353V304.794M543.866 230.554V218.544H532.948V230.554M492.553 243.655H478.36V257.848M430.322 297.152H458.708V316.804H444.515M404.119 564.636V531.883H384.467V518.782H358.265V531.883H338.613V564.636H404.119ZM384.467 611.582V614.858H358.265V611.582H384.467Z" stroke="#674A81"/>
<path d="M458.706 304.794H444.513M344.07 389.953H357.171V378.794H344.07" stroke="#674A81"/>
<path d="M456.522 410.839C454.189 410.839 452.298 412.73 452.298 415.063C452.298 417.396 454.189 419.288 456.522 419.288C458.856 419.288 460.747 417.396 460.747 415.063C460.747 412.73 458.856 410.839 456.522 410.839Z" stroke="#674A81"/>
<path d="M30.7314 605.032V635.601M80.953 605.032V665.079H63.4846" stroke="#674A81" stroke-width="0.5"/>
<path d="M686.886 603.94H671.601V618.133H614.829V524.24H614.831V552.627H667.236V536.25H625.749V524.24H746.409V524.658H706.54V564.636H739.851V577.221H746.409V618.133H686.886V603.94Z" fill="#4F276A"/>
<path d="M686.102 573.273H683.328C683.25 572.82 683.104 572.415 682.891 572.066C682.678 571.709 682.413 571.407 682.097 571.16C681.78 570.913 681.42 570.727 681.013 570.604C680.615 570.475 680.182 570.412 679.716 570.412C678.89 570.412 678.159 570.619 677.521 571.035C676.884 571.445 676.384 572.047 676.023 572.844C675.661 573.634 675.48 574.603 675.48 575.744C675.48 576.906 675.661 577.885 676.023 578.681C676.388 579.473 676.887 580.071 677.521 580.475C678.159 580.876 678.889 581.077 679.709 581.077C680.165 581.077 680.59 581.016 680.985 580.899C681.385 580.775 681.744 580.595 682.059 580.358C682.382 580.12 682.65 579.828 682.868 579.482C683.09 579.137 683.244 578.74 683.328 578.296L686.102 578.311C685.997 579.032 685.773 579.71 685.428 580.342C685.086 580.975 684.638 581.535 684.085 582.019C683.531 582.497 682.883 582.873 682.141 583.147C681.401 583.413 680.577 583.546 679.671 583.546C678.336 583.546 677.146 583.238 676.097 582.619C675.049 582.002 674.223 581.11 673.62 579.942C673.016 578.774 672.714 577.375 672.714 575.744C672.714 574.107 673.02 572.708 673.627 571.546C674.235 570.38 675.063 569.487 676.111 568.868C677.161 568.249 678.347 567.942 679.671 567.942C680.518 567.942 681.304 568.06 682.031 568.297C682.756 568.534 683.406 568.884 683.973 569.343C684.543 569.799 685.01 570.357 685.375 571.02C685.747 571.677 685.988 572.429 686.102 573.273Z" fill="white"/>
<path d="M324.418 503.497H418.312V586.472H324.418V503.497ZM405.209 531.883H383.374V518.782H359.357V531.883H339.703V564.636H405.209V531.883Z" fill="#4F276A"/>
<path d="M363.038 550.585V535.396H368.852C369.949 535.396 370.863 535.568 371.59 535.914C372.321 536.256 372.868 536.723 373.229 537.317C373.595 537.909 373.777 538.582 373.777 539.334C373.777 539.953 373.658 540.48 373.42 540.921C373.183 541.356 372.864 541.709 372.465 541.982C372.065 542.254 371.617 542.449 371.123 542.567V542.715C371.66 542.746 372.179 542.911 372.672 543.213C373.172 543.509 373.58 543.93 373.895 544.473C374.212 545.018 374.37 545.675 374.37 546.446C374.37 547.232 374.18 547.94 373.8 548.567C373.418 549.192 372.845 549.684 372.078 550.044C371.313 550.405 370.348 550.585 369.186 550.585H363.038ZM365.789 548.286H368.749C369.748 548.286 370.466 548.096 370.906 547.715C371.353 547.329 371.575 546.835 371.575 546.232C371.575 545.782 371.463 545.375 371.241 545.015C371.018 544.65 370.701 544.363 370.291 544.154C369.881 543.942 369.391 543.835 368.824 543.835H365.789V548.286ZM365.789 541.855H368.512C368.987 541.855 369.414 541.77 369.794 541.597C370.175 541.418 370.474 541.168 370.692 540.847C370.914 540.52 371.026 540.135 371.026 539.69C371.026 539.102 370.817 538.618 370.403 538.236C369.991 537.856 369.382 537.665 368.571 537.665H365.789V541.855Z" fill="white"/>
<path d="M17.0468 591.404H3.43668V603.94H3.37549L3.4237 522.604H100.593L100.586 537.887L100.272 536.766L53.6494 549.754L58.4277 566.907L100.574 555.165L100.545 603.94H17.0468V591.404Z" fill="#4F276A"/>
<path d="M41.4755 578.971H44.4126L39.065 563.782H35.6682L30.313 578.971H33.2501L37.3072 566.897H37.4258L41.4755 578.971ZM41.3792 573.015H33.3688V575.225H41.3792V573.015Z" fill="white"/>
<rect width="21" height="6" transform="translate(666 600)" fill="#4F276A"/>
<rect width="6" height="17" transform="translate(667 601)" fill="#4F276A"/>
<rect width="4" height="12" transform="translate(686 606)" fill="#4F276A"/>
</svg>
