<svg width="750" height="900" viewBox="0 0 750 900" fill="none" xmlns="http://www.w3.org/2000/svg">
<path d="M709.3 258.94H719.126V264.399H686.373V234.921H709.3V258.94Z" fill="#26003A" fill-opacity="0.9" stroke="#674A81" stroke-width="0.5"/>
<path fill-rule="evenodd" clip-rule="evenodd" d="M138.304 644.335V670.538H29.1265V593.535H32.9321V574.903H59.6961V522.497H54.2372V457.137H18.8238V376.187H2.34521V280.775H136.12V246.93H230.013V194.525H330.456V124.652H361.025V126.835H410.155V91.8987L472.386 35.1266L513.874 65.6962V126.835H559.728V194.525H686.373V263.801H733.32V294.968H747.513V416.155H721.31V475.111H747.513V530.791H685.282L607.766 577.737H587.022V596.297H524.791V564.636H520.424V606.123H493.13V609.399H519.332V710.934H399.237V762.471H446.586V829.937L391.595 864.873H304.253L257.307 829.937V718.042H123.018V682.547H142.67V644.335H138.304ZM259.491 232.737V301.519H298.794V315.712H311.896V306.978L332.639 286.234H351.199V246.93H406.88V286.234H424.348L446.184 308.07V341.915H457.101V327.722H518.241V229.462H476.753V169.415H405.788V232.737H259.491ZM157.955 408.513H223.462V392.136H246.389V388.861H210.361V359.383H215.82V356.108H210.361V349.557H204.902V313.528H210.361V281.867H177.85V375.759H157.955V408.513ZM559.728 229.462V253.481H605.582V241.472H645.978V294.968H659.079V229.462H559.728ZM433.082 643.244V646.519H444V629.051L464.744 609.399H471.294V606.123H446.184V525.332H470.203V522.057H464.744V456.551H458.193V448.908H451.642V400.87H519.332V421.614H525.883V400.87H553.177V415.063H605.582V403.054H571.737V308.07H605.582V282.12H559.891V382.018L457.101 381.218V369.209H446.184V422.22H385.455V428.165H405.788V521.185H438.921V583.196H392.687V586.472H438.921V643.244H433.082ZM232.196 356.108H285.693V346.282H298.794V343.202H310.804V421.614H356.658V428.165H310.804V469.652H337.006V522.057H298.794V495.854H279.142V490.396H298.794V392.136H275.867V388.861H298.794V359.383H232.196V356.108ZM91.3571 563.544V595.206H125.202V609.399H138.303V615.949H142.67V595.206H205.994V669.446H257.307V642.152H286.785V638.332H223.462V495.854H243.114V490.396H223.462V434.715H157.955V456.551H91.3571V514.415H125.202V563.544H91.3571ZM305.345 595.206V583.196H352.291V586.472H330.456V617.041L409.661 616.699V642.947H416.176V645.919H398.146V668.354L346.191 668.74V642.568H319.538V595.206H305.345ZM284.601 763.339V703.682H374.127V763.339H284.601ZM499.68 512.231V455.459H519.332V435.807H524.791V446.725H553.177V442.912H617.592V470.108H673.272V416.155H685.282V475.111L607.766 520.965H559.728V501.313H524.364V534.401H520.058V525.332H490.946V520.965L499.68 512.231Z" fill="#26003A"/>
<path d="M138.304 670.538V671.487H139.253V670.538H138.304ZM138.304 644.335V643.386H137.354V644.335H138.304ZM29.1266 670.538H28.1772V671.487H29.1266V670.538ZM29.1266 593.535V592.585H28.1772V593.535H29.1266ZM32.9322 593.535V594.484H33.8816V593.535H32.9322ZM32.9322 574.903V573.953H31.9829V574.903H32.9322ZM59.6962 574.903V575.852H60.6456V574.903H59.6962ZM59.6962 522.498H60.6456V521.548H59.6962V522.498ZM54.2374 522.498H53.288V523.447H54.2374V522.498ZM54.2374 457.137H55.1867V456.188H54.2374V457.137ZM18.824 457.137H17.8746V458.087H18.824V457.137ZM18.824 376.187H19.7733V375.237H18.824V376.187ZM2.34537 376.187H1.396V377.136H2.34537V376.187ZM2.34537 280.775V279.826H1.396V280.775H2.34537ZM136.12 280.775V281.725H137.069V280.775H136.12ZM136.12 246.93V245.981H135.171V246.93H136.12ZM230.013 246.93V247.88H230.962V246.93H230.013ZM230.013 194.525V193.576H229.064V194.525H230.013ZM330.456 194.525V195.475H331.405V194.525H330.456ZM330.456 124.652V123.703H329.507V124.652H330.456ZM361.026 124.652H361.975V123.703H361.026V124.652ZM361.026 126.835H360.076V127.785H361.026V126.835ZM410.155 126.835V127.785H411.105V126.835H410.155ZM410.155 91.8988L409.515 91.1974L409.206 91.4797V91.8988H410.155ZM472.386 35.1266L472.948 34.3624L472.322 33.9L471.746 34.4252L472.386 35.1266ZM513.874 65.6962H514.823V65.2164L514.436 64.932L513.874 65.6962ZM513.874 126.835H512.924V127.785H513.874V126.835ZM559.728 126.835H560.677V125.886H559.728V126.835ZM559.728 194.525H558.779V195.475H559.728V194.525ZM686.374 194.525H687.323V193.576H686.374V194.525ZM686.374 263.801H685.424V264.75H686.374V263.801ZM733.32 263.801H734.269V262.851H733.32V263.801ZM733.32 294.968H732.37V295.918H733.32V294.968ZM747.513 294.968H748.462V294.019H747.513V294.968ZM747.513 416.155V417.104H748.462V416.155H747.513ZM721.31 416.155V415.206H720.361V416.155H721.31ZM721.31 475.111H720.361V476.06H721.31V475.111ZM747.513 475.111H748.462V474.161H747.513V475.111ZM747.513 530.791V531.741H748.462V530.791H747.513ZM685.282 530.791V529.842H685.016L684.79 529.979L685.282 530.791ZM607.766 577.737V578.687H608.03L608.258 578.55L607.766 577.737ZM587.022 577.737V576.788H586.073V577.737H587.022ZM587.022 596.297V597.247H587.972V596.297H587.022ZM524.791 596.297H523.842V597.247H524.791V596.297ZM524.791 564.636H525.741V563.687H524.791V564.636ZM520.424 564.636V563.687H519.475V564.636H520.424ZM520.424 606.123V607.073H521.374V606.123H520.424ZM493.13 606.123V605.174H492.181V606.123H493.13ZM493.13 609.399H492.181V610.348H493.13V609.399ZM519.333 609.399H520.282V608.449H519.333V609.399ZM519.333 710.934V711.883H520.282V710.934H519.333ZM399.238 710.934V709.984H398.288V710.934H399.238ZM399.238 762.471H398.288V763.42H399.238V762.471ZM446.586 762.471H447.536V761.522H446.586V762.471ZM446.586 829.937L447.095 830.738L447.536 830.459V829.937H446.586ZM391.595 864.873V865.823H391.87L392.104 865.675L391.595 864.873ZM304.253 864.873L303.686 865.635L303.938 865.823H304.253V864.873ZM257.307 829.937H256.358V830.413L256.739 830.698L257.307 829.937ZM257.307 718.042H258.257V717.093H257.307V718.042ZM123.019 718.042H122.069V718.992H123.019V718.042ZM123.019 682.548V681.598H122.069V682.548H123.019ZM142.671 682.548V683.497H143.62V682.548H142.671ZM142.671 644.335H143.62V643.386H142.671V644.335ZM259.491 301.519H258.541V302.468H259.491V301.519ZM259.491 232.737V231.788H258.541V232.737H259.491ZM298.795 301.519H299.744V300.57H298.795V301.519ZM298.795 315.712H297.845V316.661H298.795V315.712ZM311.896 315.712V316.661H312.845V315.712H311.896ZM311.896 306.978L311.224 306.306L310.946 306.585V306.978H311.896ZM332.639 286.234V285.285H332.246L331.967 285.562L332.639 286.234ZM351.2 286.234V287.184H352.149V286.234H351.2ZM351.2 246.93V245.981H350.25V246.93H351.2ZM406.88 246.93H407.829V245.981H406.88V246.93ZM406.88 286.234H405.931V287.184H406.88V286.234ZM424.348 286.234L425.019 285.562L424.741 285.285H424.348V286.234ZM446.184 308.07H447.133V307.677L446.854 307.397L446.184 308.07ZM446.184 341.915H445.234V342.864H446.184V341.915ZM457.102 341.915V342.864H458.051V341.915H457.102ZM457.102 327.722V326.772H456.152V327.722H457.102ZM518.241 327.722V328.671H519.19V327.722H518.241ZM518.241 229.462H519.19V228.513H518.241V229.462ZM476.753 229.462H475.804V230.411H476.753V229.462ZM476.753 169.415H477.703V168.465H476.753V169.415ZM405.788 169.415V168.465H404.839V169.415H405.788ZM405.788 232.737V233.687H406.738V232.737H405.788ZM223.462 408.513V409.462H224.412V408.513H223.462ZM157.955 408.513H157.006V409.462H157.955V408.513ZM223.462 392.136V391.187H222.513V392.136H223.462ZM246.389 392.136V393.085H247.339V392.136H246.389ZM246.389 388.861H247.339V387.911H246.389V388.861ZM210.361 388.861H209.412V389.81H210.361V388.861ZM210.361 359.383V358.434H209.412V359.383H210.361ZM215.82 359.383V360.332H216.769V359.383H215.82ZM215.82 356.108H216.769V355.158H215.82V356.108ZM210.361 356.108H209.412V357.057H210.361V356.108ZM210.361 349.557H211.31V348.608H210.361V349.557ZM204.902 349.557H203.953V350.506H204.902V349.557ZM204.902 313.529V312.579H203.953V313.529H204.902ZM210.361 313.529V314.478H211.31V313.529H210.361ZM210.361 281.867H211.31V280.918H210.361V281.867ZM177.85 281.867V280.918H176.901V281.867H177.85ZM177.85 375.76V376.709H178.799V375.76H177.85ZM157.955 375.76V374.81H157.006V375.76H157.955ZM559.728 253.481H558.779V254.43H559.728V253.481ZM559.728 229.462V228.513H558.779V229.462H559.728ZM605.583 253.481V254.43H606.532V253.481H605.583ZM605.583 241.472V240.522H604.633V241.472H605.583ZM645.978 241.472H646.927V240.522H645.978V241.472ZM645.978 294.968H645.029V295.918H645.978V294.968ZM659.079 294.968V295.918H660.029V294.968H659.079ZM659.079 229.462H660.029V228.513H659.079V229.462ZM433.083 646.519H432.133V647.468H433.083V646.519ZM433.083 643.244V642.294H432.133V643.244H433.083ZM444 646.519V647.468H444.95V646.519H444ZM444 629.051L443.347 628.361L443.051 628.642V629.051H444ZM464.744 609.399V608.449H464.364L464.091 608.71L464.744 609.399ZM471.295 609.399V610.348H472.244V609.399H471.295ZM471.295 606.123H472.244V605.174H471.295V606.123ZM446.184 606.123H445.234V607.073H446.184V606.123ZM446.184 525.332V524.383H445.234V525.332H446.184ZM470.203 525.332V526.282H471.152V525.332H470.203ZM470.203 522.057H471.152V521.108H470.203V522.057ZM464.744 522.057H463.795V523.006H464.744V522.057ZM464.744 456.551H465.693V455.601H464.744V456.551ZM458.193 456.551H457.244V457.5H458.193V456.551ZM458.193 448.908H459.143V447.959H458.193V448.908ZM451.643 448.908H450.693V449.858H451.643V448.908ZM451.643 400.87V399.921H450.693V400.87H451.643ZM519.333 400.87H520.282V399.921H519.333V400.87ZM519.333 421.614H518.383V422.563H519.333V421.614ZM525.883 421.614V422.563H526.833V421.614H525.883ZM525.883 400.87V399.921H524.934V400.87H525.883ZM553.177 400.87H554.127V399.921H553.177V400.87ZM553.177 415.063H552.228V416.013H553.177V415.063ZM605.583 415.063V416.013H606.532V415.063H605.583ZM605.583 403.054H606.532V402.104H605.583V403.054ZM571.738 403.054H570.788V404.003H571.738V403.054ZM571.738 308.07V307.12H570.788V308.07H571.738ZM605.583 308.07V309.019H606.532V308.07H605.583ZM605.583 282.12H606.532V281.17H605.583V282.12ZM559.891 282.12V281.17H558.942V282.12H559.891ZM559.891 382.018L559.884 382.967L560.841 382.975V382.018H559.891ZM457.102 381.218H456.152V382.16L457.094 382.168L457.102 381.218ZM457.102 369.209H458.051V368.26H457.102V369.209ZM446.184 369.209V368.26H445.234V369.209H446.184ZM446.184 422.22V423.169H447.133V422.22H446.184ZM385.455 422.22V421.27H384.505V422.22H385.455ZM385.455 428.165H384.505V429.114H385.455V428.165ZM405.788 428.165H406.738V427.215H405.788V428.165ZM405.788 521.185H404.839V522.135H405.788V521.185ZM438.921 521.185H439.87V520.236H438.921V521.185ZM438.921 583.196V584.146H439.87V583.196H438.921ZM392.687 583.196V582.247H391.738V583.196H392.687ZM392.687 586.472H391.738V587.421H392.687V586.472ZM438.921 586.472H439.87V585.522H438.921V586.472ZM438.921 643.244V644.193H439.87V643.244H438.921ZM285.693 356.108V357.057H286.643V356.108H285.693ZM232.196 356.108V355.158H231.247V356.108H232.196ZM285.693 346.282V345.332H284.744V346.282H285.693ZM298.795 346.282V347.231H299.744V346.282H298.795ZM298.795 343.202V342.253H297.845V343.202H298.795ZM310.804 343.202H311.753V342.253H310.804V343.202ZM310.804 421.614H309.855V422.563H310.804V421.614ZM356.658 421.614H357.608V420.665H356.658V421.614ZM356.658 428.165V429.114H357.608V428.165H356.658ZM310.804 428.165V427.215H309.855V428.165H310.804ZM310.804 469.652H309.855V470.601H310.804V469.652ZM337.007 469.652H337.956V468.703H337.007V469.652ZM337.007 522.057V523.006H337.956V522.057H337.007ZM298.795 522.057H297.845V523.006H298.795V522.057ZM298.795 495.854H299.744V494.905H298.795V495.854ZM279.143 495.854H278.193V496.804H279.143V495.854ZM279.143 490.396V489.446H278.193V490.396H279.143ZM298.795 490.396V491.345H299.744V490.396H298.795ZM298.795 392.136H299.744V391.187H298.795V392.136ZM275.867 392.136H274.918V393.085H275.867V392.136ZM275.867 388.861V387.911H274.918V388.861H275.867ZM298.795 388.861V389.81H299.744V388.861H298.795ZM298.795 359.383H299.744V358.434H298.795V359.383ZM232.196 359.383H231.247V360.332H232.196V359.383ZM91.3573 595.206H90.4079V596.155H91.3573V595.206ZM91.3573 563.544V562.595H90.4079V563.544H91.3573ZM125.202 595.206H126.152V594.256H125.202V595.206ZM125.202 609.399H124.253V610.348H125.202V609.399ZM138.303 609.399H139.253V608.449H138.303V609.399ZM138.303 615.949H137.354V616.899H138.303V615.949ZM142.671 615.949V616.899H143.62V615.949H142.671ZM142.671 595.206V594.256H141.721V595.206H142.671ZM205.994 595.206H206.943V594.256H205.994V595.206ZM205.994 669.446H205.045V670.396H205.994V669.446ZM257.307 669.446V670.396H258.257V669.446H257.307ZM257.307 642.152V641.203H256.358V642.152H257.307ZM286.785 642.152V643.101H287.734V642.152H286.785ZM286.785 638.332H287.734V637.382H286.785V638.332ZM223.462 638.332H222.513V639.281H223.462V638.332ZM223.462 495.854V494.905H222.513V495.854H223.462ZM243.114 495.854V496.804H244.064V495.854H243.114ZM243.114 490.396H244.064V489.446H243.114V490.396ZM223.462 490.396H222.513V491.345H223.462V490.396ZM223.462 434.715H224.412V433.766H223.462V434.715ZM157.955 434.715V433.766H157.006V434.715H157.955ZM157.955 456.551V457.5H158.905V456.551H157.955ZM91.3573 456.551V455.601H90.4079V456.551H91.3573ZM91.3573 514.415H90.4079V515.364H91.3573V514.415ZM125.202 514.415H126.152V513.465H125.202V514.415ZM125.202 563.544V564.494H126.152V563.544H125.202ZM305.345 583.196V582.247H304.396V583.196H305.345ZM305.345 595.206H304.396V596.155H305.345V595.206ZM352.291 583.196H353.241V582.247H352.291V583.196ZM352.291 586.472V587.421H353.241V586.472H352.291ZM330.456 586.472V585.522H329.507V586.472H330.456ZM330.456 617.041H329.507V617.994L330.46 617.991L330.456 617.041ZM409.662 616.699H410.611V615.744L409.658 615.75L409.662 616.699ZM409.662 642.947H408.712V643.897H409.662V642.947ZM416.176 642.947H417.126V641.998H416.176V642.947ZM416.176 645.919V646.868H417.126V645.919H416.176ZM398.146 645.919V644.97H397.196V645.919H398.146ZM398.146 668.354L398.151 669.304L399.095 669.296V668.354H398.146ZM346.191 668.74H345.241V669.697L346.198 669.689L346.191 668.74ZM346.191 642.568H347.14V641.618H346.191V642.568ZM319.538 642.568H318.589V643.517H319.538V642.568ZM319.538 595.206H320.488V594.256H319.538V595.206ZM284.601 703.682V702.733H283.652V703.682H284.601ZM284.601 763.339H283.652V764.288H284.601V763.339ZM374.127 703.682H375.076V702.733H374.127V703.682ZM374.127 763.339V764.288H375.076V763.339H374.127ZM499.681 455.459V454.51H498.731V455.459H499.681ZM499.681 512.231L500.351 512.903L500.63 512.624V512.231H499.681ZM519.333 455.459V456.408H520.282V455.459H519.333ZM519.333 435.807V434.858H518.383V435.807H519.333ZM524.791 435.807H525.741V434.858H524.791V435.807ZM524.791 446.725H523.842V447.674H524.791V446.725ZM553.177 446.725V447.674H554.127V446.725H553.177ZM553.177 442.912V441.963H552.228V442.912H553.177ZM617.592 442.912H618.541V441.963H617.592V442.912ZM617.592 470.108H616.643V471.057H617.592V470.108ZM673.272 470.108V471.057H674.222V470.108H673.272ZM673.272 416.155V415.206H672.323V416.155H673.272ZM685.282 416.155H686.231V415.206H685.282V416.155ZM685.282 475.111L685.764 475.927L686.231 475.652V475.111H685.282ZM607.766 520.965V521.915H608.026L608.248 521.782L607.766 520.965ZM559.728 520.965H558.779V521.915H559.728V520.965ZM559.728 501.313H560.677V500.364H559.728V501.313ZM524.364 501.313V500.364H523.415V501.313H524.364ZM524.364 534.401V535.35H525.314V534.401H524.364ZM520.058 534.401H519.108V535.35H520.058V534.401ZM520.058 525.332H521.007V524.383H520.058V525.332ZM490.946 525.332H489.997V526.282H490.946V525.332ZM490.946 520.965L490.274 520.293L489.997 520.572V520.965H490.946ZM138.304 670.538H139.253V644.335H138.304H137.354V670.538H138.304ZM29.1266 670.538V671.487H138.304V670.538V669.589H29.1266V670.538ZM29.1266 593.535H28.1772V670.538H29.1266H30.076V593.535H29.1266ZM32.9322 593.535V592.585H29.1266V593.535V594.484H32.9322V593.535ZM32.9322 574.903H31.9829V593.535H32.9322H33.8816V574.903H32.9322ZM59.6962 574.903V573.953H32.9322V574.903V575.852H59.6962V574.903ZM59.6962 522.498H58.7469V574.903H59.6962H60.6456V522.498H59.6962ZM54.2374 522.498V523.447H59.6962V522.498V521.548H54.2374V522.498ZM54.2374 457.137H53.288V522.498H54.2374H55.1867V457.137H54.2374ZM18.824 457.137V458.087H54.2374V457.137V456.188H18.824V457.137ZM18.824 376.187H17.8746V457.137H18.824H19.7733V376.187H18.824ZM2.34537 376.187V377.136H18.824V376.187V375.237H2.34537V376.187ZM2.34537 280.775H1.396V376.187H2.34537H3.29474V280.775H2.34537ZM136.12 280.775V279.826H2.34537V280.775V281.725H136.12V280.775ZM136.12 246.93H135.171V280.775H136.12H137.069V246.93H136.12ZM230.013 246.93V245.981H136.12V246.93V247.88H230.013V246.93ZM230.013 194.525H229.064V246.93H230.013H230.962V194.525H230.013ZM330.456 194.525V193.576H230.013V194.525V195.475H330.456V194.525ZM330.456 124.652H329.507V194.525H330.456H331.405V124.652H330.456ZM361.026 124.652V123.703H330.456V124.652V125.601H361.026V124.652ZM361.026 126.835H361.975V124.652H361.026H360.076V126.835H361.026ZM410.155 126.835V125.886H361.026V126.835V127.785H410.155V126.835ZM410.155 91.8988H409.206V126.835H410.155H411.105V91.8988H410.155ZM472.386 35.1266L471.746 34.4252L409.515 91.1974L410.155 91.8988L410.795 92.6002L473.026 35.828L472.386 35.1266ZM513.874 65.6962L514.436 64.932L472.948 34.3624L472.386 35.1266L471.822 35.8908L513.31 66.4605L513.874 65.6962ZM513.874 126.835H514.823V65.6962H513.874H512.924V126.835H513.874ZM559.728 126.835V125.886H513.874V126.835V127.785H559.728V126.835ZM559.728 194.525H560.677V126.835H559.728H558.779V194.525H559.728ZM686.374 194.525V193.576H559.728V194.525V195.475H686.374V194.525ZM686.374 263.801H687.323V194.525H686.374H685.424V263.801H686.374ZM733.32 263.801V262.851H686.374V263.801V264.75H733.32V263.801ZM733.32 294.968H734.269V263.801H733.32H732.37V294.968H733.32ZM747.513 294.968V294.019H733.32V294.968V295.918H747.513V294.968ZM747.513 416.155H748.462V294.968H747.513H746.564V416.155H747.513ZM721.31 416.155V417.104H747.513V416.155V415.206H721.31V416.155ZM721.31 475.111H722.26V416.155H721.31H720.361V475.111H721.31ZM747.513 475.111V474.161H721.31V475.111V476.06H747.513V475.111ZM747.513 530.791H748.462V475.111H747.513H746.564V530.791H747.513ZM685.282 530.791V531.741H747.513V530.791V529.842H685.282V530.791ZM607.766 577.737L608.258 578.55L685.774 531.604L685.282 530.791L684.79 529.979L607.274 576.925L607.766 577.737ZM587.022 577.737V578.687H607.766V577.737V576.788H587.022V577.737ZM587.022 596.297H587.972V577.737H587.022H586.073V596.297H587.022ZM524.791 596.297V597.247H587.022V596.297V595.348H524.791V596.297ZM524.791 564.636H523.842V596.297H524.791H525.741V564.636H524.791ZM520.424 564.636V565.585H524.791V564.636V563.687H520.424V564.636ZM520.424 606.123H521.374V564.636H520.424H519.475V606.123H520.424ZM493.13 606.123V607.073H520.424V606.123V605.174H493.13V606.123ZM493.13 609.399H494.079V606.123H493.13H492.181V609.399H493.13ZM519.333 609.399V608.449H493.13V609.399V610.348H519.333V609.399ZM519.333 710.934H520.282V609.399H519.333H518.383V710.934H519.333ZM399.238 710.934V711.883H519.333V710.934V709.984H399.238V710.934ZM399.238 762.471H400.187V710.934H399.238H398.288V762.471H399.238ZM446.586 762.471V761.522H399.238V762.471V763.42H446.586V762.471ZM446.586 829.937H447.536V762.471H446.586H445.637V829.937H446.586ZM391.595 864.873L392.104 865.675L447.095 830.738L446.586 829.937L446.077 829.135L391.086 864.072L391.595 864.873ZM304.253 864.873V865.823H391.595V864.873V863.924H304.253V864.873ZM257.307 829.937L256.739 830.698L303.686 865.635L304.253 864.873L304.819 864.112L257.873 829.175L257.307 829.937ZM257.307 718.042H256.358V829.937H257.307H258.257V718.042H257.307ZM123.019 718.042V718.992H257.307V718.042V717.093H123.019V718.042ZM123.019 682.548H122.069V718.042H123.019H123.968V682.548H123.019ZM142.671 682.548V681.598H123.019V682.548V683.497H142.671V682.548ZM142.671 644.335H141.721V682.548H142.671H143.62V644.335H142.671ZM138.304 644.335V645.285H142.671V644.335V643.386H138.304V644.335ZM259.491 301.519H260.44V232.737H259.491H258.541V301.519H259.491ZM298.795 301.519V300.57H259.491V301.519V302.468H298.795V301.519ZM298.795 315.712H299.744V301.519H298.795H297.845V315.712H298.795ZM311.896 315.712V314.763H298.795V315.712V316.661H311.896V315.712ZM311.896 306.978H310.946V315.712H311.896H312.845V306.978H311.896ZM332.639 286.234L331.967 285.562L311.224 306.306L311.896 306.978L312.566 307.65L333.31 286.906L332.639 286.234ZM351.2 286.234V285.285H332.639V286.234V287.184H351.2V286.234ZM351.2 246.93H350.25V286.234H351.2H352.149V246.93H351.2ZM406.88 246.93V245.981H351.2V246.93V247.88H406.88V246.93ZM406.88 286.234H407.829V246.93H406.88H405.931V286.234H406.88ZM424.348 286.234V285.285H406.88V286.234V287.184H424.348V286.234ZM446.184 308.07L446.854 307.397L425.019 285.562L424.348 286.234L423.676 286.906L445.512 308.742L446.184 308.07ZM446.184 341.915H447.133V308.07H446.184H445.234V341.915H446.184ZM457.102 341.915V340.965H446.184V341.915V342.864H457.102V341.915ZM457.102 327.722H456.152V341.915H457.102H458.051V327.722H457.102ZM518.241 327.722V326.772H457.102V327.722V328.671H518.241V327.722ZM518.241 229.462H517.291V327.722H518.241H519.19V229.462H518.241ZM476.753 229.462V230.411H518.241V229.462V228.513H476.753V229.462ZM476.753 169.415H475.804V229.462H476.753H477.703V169.415H476.753ZM405.788 169.415V170.364H476.753V169.415V168.465H405.788V169.415ZM405.788 232.737H406.738V169.415H405.788H404.839V232.737H405.788ZM259.491 232.737V233.687H405.788V232.737V231.788H259.491V232.737ZM223.462 408.513V407.563H157.955V408.513V409.462H223.462V408.513ZM223.462 392.136H222.513V408.513H223.462H224.412V392.136H223.462ZM246.389 392.136V391.187H223.462V392.136V393.085H246.389V392.136ZM246.389 388.861H245.44V392.136H246.389H247.339V388.861H246.389ZM210.361 388.861V389.81H246.389V388.861V387.911H210.361V388.861ZM210.361 359.383H209.412V388.861H210.361H211.31V359.383H210.361ZM215.82 359.383V358.434H210.361V359.383V360.332H215.82V359.383ZM215.82 356.108H214.87V359.383H215.82H216.769V356.108H215.82ZM210.361 356.108V357.057H215.82V356.108V355.158H210.361V356.108ZM210.361 349.557H209.412V356.108H210.361H211.31V349.557H210.361ZM204.902 349.557V350.506H210.361V349.557V348.608H204.902V349.557ZM204.902 313.529H203.953V349.557H204.902H205.851V313.529H204.902ZM210.361 313.529V312.579H204.902V313.529V314.478H210.361V313.529ZM210.361 281.867H209.412V313.529H210.361H211.31V281.867H210.361ZM177.85 281.867V282.816H210.361V281.867V280.918H177.85V281.867ZM177.85 375.76H178.799V281.867H177.85H176.901V375.76H177.85ZM157.955 375.76V376.709H177.85V375.76V374.81H157.955V375.76ZM157.955 408.513H158.905V375.76H157.955H157.006V408.513H157.955ZM559.728 253.481H560.677V229.462H559.728H558.779V253.481H559.728ZM605.583 253.481V252.532H559.728V253.481V254.43H605.583V253.481ZM605.583 241.472H604.633V253.481H605.583H606.532V241.472H605.583ZM645.978 241.472V240.522H605.583V241.472V242.421H645.978V241.472ZM645.978 294.968H646.927V241.472H645.978H645.029V294.968H645.978ZM659.079 294.968V294.019H645.978V294.968V295.918H659.079V294.968ZM659.079 229.462H658.13V294.968H659.079H660.029V229.462H659.079ZM559.728 229.462V230.411H659.079V229.462V228.513H559.728V229.462ZM433.083 646.519H434.032V643.244H433.083H432.133V646.519H433.083ZM444 646.519V645.57H433.083V646.519V647.468H444V646.519ZM444 629.051H443.051V646.519H444H444.95V629.051H444ZM464.744 609.399L464.091 608.71L443.347 628.361L444 629.051L444.653 629.74L465.397 610.088L464.744 609.399ZM471.295 609.399V608.449H464.744V609.399V610.348H471.295V609.399ZM471.295 606.123H470.345V609.399H471.295H472.244V606.123H471.295ZM446.184 606.123V607.073H471.295V606.123V605.174H446.184V606.123ZM446.184 525.332H445.234V606.123H446.184H447.133V525.332H446.184ZM470.203 525.332V524.383H446.184V525.332V526.282H470.203V525.332ZM470.203 522.057H469.253V525.332H470.203H471.152V522.057H470.203ZM464.744 522.057V523.006H470.203V522.057V521.108H464.744V522.057ZM464.744 456.551H463.795V522.057H464.744H465.693V456.551H464.744ZM458.193 456.551V457.5H464.744V456.551V455.601H458.193V456.551ZM458.193 448.908H457.244V456.551H458.193H459.143V448.908H458.193ZM451.643 448.908V449.858H458.193V448.908V447.959H451.643V448.908ZM451.643 400.87H450.693V448.908H451.643H452.592V400.87H451.643ZM519.333 400.87V399.921H451.643V400.87V401.82H519.333V400.87ZM519.333 421.614H520.282V400.87H519.333H518.383V421.614H519.333ZM525.883 421.614V420.665H519.333V421.614V422.563H525.883V421.614ZM525.883 400.87H524.934V421.614H525.883H526.833V400.87H525.883ZM553.177 400.87V399.921H525.883V400.87V401.82H553.177V400.87ZM553.177 415.063H554.127V400.87H553.177H552.228V415.063H553.177ZM605.583 415.063V414.114H553.177V415.063V416.013H605.583V415.063ZM605.583 403.054H604.633V415.063H605.583H606.532V403.054H605.583ZM571.738 403.054V404.003H605.583V403.054V402.104H571.738V403.054ZM571.738 308.07H570.788V403.054H571.738H572.687V308.07H571.738ZM605.583 308.07V307.12H571.738V308.07V309.019H605.583V308.07ZM605.583 282.12H604.633V308.07H605.583H606.532V282.12H605.583ZM559.891 282.12V283.069H605.583V282.12V281.17H559.891V282.12ZM559.891 382.018H560.841V282.12H559.891H558.942V382.018H559.891ZM457.102 381.218L457.094 382.168L559.884 382.967L559.891 382.018L559.899 381.068L457.109 380.269L457.102 381.218ZM457.102 369.209H456.152V381.218H457.102H458.051V369.209H457.102ZM446.184 369.209V370.158H457.102V369.209V368.26H446.184V369.209ZM446.184 422.22H447.133V369.209H446.184H445.234V422.22H446.184ZM385.455 422.22V423.169H446.184V422.22V421.27H385.455V422.22ZM385.455 428.165H386.404V422.22H385.455H384.505V428.165H385.455ZM405.788 428.165V427.215H385.455V428.165V429.114H405.788V428.165ZM405.788 521.185H406.738V428.165H405.788H404.839V521.185H405.788ZM438.921 521.185V520.236H405.788V521.185V522.135H438.921V521.185ZM438.921 583.196H439.87V521.185H438.921H437.972V583.196H438.921ZM392.687 583.196V584.146H438.921V583.196V582.247H392.687V583.196ZM392.687 586.472H393.636V583.196H392.687H391.738V586.472H392.687ZM438.921 586.472V585.522H392.687V586.472V587.421H438.921V586.472ZM438.921 643.244H439.87V586.472H438.921H437.972V643.244H438.921ZM433.083 643.244V644.193H438.921V643.244V642.294H433.083V643.244ZM285.693 356.108V355.158H232.196V356.108V357.057H285.693V356.108ZM285.693 346.282H284.744V356.108H285.693H286.643V346.282H285.693ZM298.795 346.282V345.332H285.693V346.282V347.231H298.795V346.282ZM298.795 343.202H297.845V346.282H298.795H299.744V343.202H298.795ZM310.804 343.202V342.253H298.795V343.202V344.151H310.804V343.202ZM310.804 421.614H311.753V343.202H310.804H309.855V421.614H310.804ZM356.658 421.614V420.665H310.804V421.614V422.563H356.658V421.614ZM356.658 428.165H357.608V421.614H356.658H355.709V428.165H356.658ZM310.804 428.165V429.114H356.658V428.165V427.215H310.804V428.165ZM310.804 469.652H311.753V428.165H310.804H309.855V469.652H310.804ZM337.007 469.652V468.703H310.804V469.652V470.601H337.007V469.652ZM337.007 522.057H337.956V469.652H337.007H336.057V522.057H337.007ZM298.795 522.057V523.006H337.007V522.057V521.108H298.795V522.057ZM298.795 495.854H297.845V522.057H298.795H299.744V495.854H298.795ZM279.143 495.854V496.804H298.795V495.854V494.905H279.143V495.854ZM279.143 490.396H278.193V495.854H279.143H280.092V490.396H279.143ZM298.795 490.396V489.446H279.143V490.396V491.345H298.795V490.396ZM298.795 392.136H297.845V490.396H298.795H299.744V392.136H298.795ZM275.867 392.136V393.085H298.795V392.136V391.187H275.867V392.136ZM275.867 388.861H274.918V392.136H275.867H276.817V388.861H275.867ZM298.795 388.861V387.911H275.867V388.861V389.81H298.795V388.861ZM298.795 359.383H297.845V388.861H298.795H299.744V359.383H298.795ZM232.196 359.383V360.332H298.795V359.383V358.434H232.196V359.383ZM232.196 356.108H231.247V359.383H232.196H233.146V356.108H232.196ZM91.3573 595.206H92.3066V563.544H91.3573H90.4079V595.206H91.3573ZM125.202 595.206V594.256H91.3573V595.206V596.155H125.202V595.206ZM125.202 609.399H126.152V595.206H125.202H124.253V609.399H125.202ZM138.303 609.399V608.449H125.202V609.399V610.348H138.303V609.399ZM138.303 615.949H139.253V609.399H138.303H137.354V615.949H138.303ZM142.671 615.949V615H138.303V615.949V616.899H142.671V615.949ZM142.671 595.206H141.721V615.949H142.671H143.62V595.206H142.671ZM205.994 595.206V594.256H142.671V595.206V596.155H205.994V595.206ZM205.994 669.446H206.943V595.206H205.994H205.045V669.446H205.994ZM257.307 669.446V668.497H205.994V669.446V670.396H257.307V669.446ZM257.307 642.152H256.358V669.446H257.307H258.257V642.152H257.307ZM286.785 642.152V641.203H257.307V642.152V643.101H286.785V642.152ZM286.785 638.332H285.836V642.152H286.785H287.734V638.332H286.785ZM223.462 638.332V639.281H286.785V638.332V637.382H223.462V638.332ZM223.462 495.854H222.513V638.332H223.462H224.412V495.854H223.462ZM243.114 495.854V494.905H223.462V495.854V496.804H243.114V495.854ZM243.114 490.396H242.165V495.854H243.114H244.064V490.396H243.114ZM223.462 490.396V491.345H243.114V490.396V489.446H223.462V490.396ZM223.462 434.715H222.513V490.396H223.462H224.412V434.715H223.462ZM157.955 434.715V435.665H223.462V434.715V433.766H157.955V434.715ZM157.955 456.551H158.905V434.715H157.955H157.006V456.551H157.955ZM91.3573 456.551V457.5H157.955V456.551V455.601H91.3573V456.551ZM91.3573 514.415H92.3066V456.551H91.3573H90.4079V514.415H91.3573ZM125.202 514.415V513.465H91.3573V514.415V515.364H125.202V514.415ZM125.202 563.544H126.152V514.415H125.202H124.253V563.544H125.202ZM91.3573 563.544V564.494H125.202V563.544V562.595H91.3573V563.544ZM305.345 583.196H304.396V595.206H305.345H306.295V583.196H305.345ZM352.291 583.196V582.247H305.345V583.196V584.146H352.291V583.196ZM352.291 586.472H353.241V583.196H352.291H351.342V586.472H352.291ZM330.456 586.472V587.421H352.291V586.472V585.522H330.456V586.472ZM330.456 617.041H331.405V586.472H330.456H329.507V617.041H330.456ZM409.662 616.699L409.658 615.75L330.452 616.092L330.456 617.041L330.46 617.991L409.665 617.649L409.662 616.699ZM409.662 642.947H410.611V616.699H409.662H408.712V642.947H409.662ZM416.176 642.947V641.998H409.662V642.947V643.897H416.176V642.947ZM416.176 645.919H417.126V642.947H416.176H415.227V645.919H416.176ZM398.146 645.919V646.868H416.176V645.919V644.97H398.146V645.919ZM398.146 668.354H399.095V645.919H398.146H397.196V668.354H398.146ZM346.191 668.74L346.198 669.689L398.151 669.304L398.146 668.354L398.138 667.405L346.183 667.791L346.191 668.74ZM346.191 642.568H345.241V668.74H346.191H347.14V642.568H346.191ZM319.538 642.568V643.517H346.191V642.568V641.618H319.538V642.568ZM319.538 595.206H318.589V642.568H319.538H320.488V595.206H319.538ZM305.345 595.206V596.155H319.538V595.206V594.256H305.345V595.206ZM284.601 703.682H283.652V763.339H284.601H285.551V703.682H284.601ZM374.127 703.682V702.733H284.601V703.682V704.632H374.127V703.682ZM374.127 763.339H375.076V703.682H374.127H373.177V763.339H374.127ZM284.601 763.339V764.288H374.127V763.339V762.389H284.601V763.339ZM499.681 455.459H498.731V512.231H499.681H500.63V455.459H499.681ZM519.333 455.459V454.51H499.681V455.459V456.408H519.333V455.459ZM519.333 435.807H518.383V455.459H519.333H520.282V435.807H519.333ZM524.791 435.807V434.858H519.333V435.807V436.756H524.791V435.807ZM524.791 446.725H525.741V435.807H524.791H523.842V446.725H524.791ZM553.177 446.725V445.775H524.791V446.725V447.674H553.177V446.725ZM553.177 442.912H552.228V446.725H553.177H554.127V442.912H553.177ZM617.592 442.912V441.963H553.177V442.912V443.861H617.592V442.912ZM617.592 470.108H618.541V442.912H617.592H616.643V470.108H617.592ZM673.272 470.108V469.158H617.592V470.108V471.057H673.272V470.108ZM673.272 416.155H672.323V470.108H673.272H674.222V416.155H673.272ZM685.282 416.155V415.206H673.272V416.155V417.104H685.282V416.155ZM685.282 475.111H686.231V416.155H685.282H684.333V475.111H685.282ZM607.766 520.965L608.248 521.782L685.764 475.927L685.282 475.111L684.798 474.294L607.282 520.149L607.766 520.965ZM559.728 520.965V521.915H607.766V520.965V520.016H559.728V520.965ZM559.728 501.313H558.779V520.965H559.728H560.677V501.313H559.728ZM524.364 501.313V502.263H559.728V501.313V500.364H524.364V501.313ZM524.364 534.401H525.314V501.313H524.364H523.415V534.401H524.364ZM520.058 534.401V535.35H524.364V534.401V533.451H520.058V534.401ZM520.058 525.332H519.108V534.401H520.058H521.007V525.332H520.058ZM490.946 525.332V526.282H520.058V525.332V524.383H490.946V525.332ZM490.946 520.965H489.997V525.332H490.946H491.896V520.965H490.946ZM499.681 512.231L499.008 511.559L490.274 520.293L490.946 520.965L491.617 521.637L500.351 512.903L499.681 512.231Z" fill="#674A81"/>
<path d="M274.775 648.56C276.506 648.56 277.908 647.157 277.908 645.427C277.908 643.697 276.506 642.294 274.775 642.294C273.045 642.294 271.643 643.697 271.643 645.427C271.643 647.157 273.045 648.56 274.775 648.56Z" stroke="#674A81"/>
<path d="M353.383 583.196H391.595M391.595 586.471H353.383M352.291 583.196V569.003H392.687V583.196M347.298 583.196V563.544H398.649V583.196M351.2 254.573H406.88M177.607 349.557H164.506M164.506 349.557V375.759M164.506 349.557V335.364H177.607M19.3004 375.759H43.3194V335.364H9.47446M9.47446 335.364H2.92383M9.47446 335.364V323.354H2.92383M91.3574 514.415V549.351H104.459M244.206 493.671L258.399 488.212M279.143 492.579L263.858 498.038M246.389 388.861H276.959M243.114 392.136V405.237H279.143V392.136M505.139 609.399V695.649H451.643V710.934M445.092 710.934V689.098H498.589V609.399M587.022 577.737H579.38V583.196M579.38 583.196V596.297M579.38 583.196H576.105V596.297M733.32 294.968V304.794M733.32 304.794V308.07H747.513M733.32 304.794H747.513M695.108 294.968H715.851M238.747 555.902H244.206V562.453H237.655M246.389 392.136H275.867V400.87H246.389V392.136Z" stroke="#674A81" stroke-width="0.5"/>
<path d="M518.24 299.335H524.791M524.791 299.335H531.342V311.345H518.24M524.791 299.335V292.785H518.24M635.06 241.472V252.389H645.978M605.582 403.054H616.5V412.88H605.582M673.272 427.073H659.079V401.962H685.282V415.063M659.079 294.968H696.199M714.759 294.968H733.319M674.364 537.342L667.813 525.332L678.731 518.782L687.465 530.791M298.794 446.725H284.601V457.642H298.794M223.462 549.351H237.655V562.453H223.462M639.427 348.465L690.74 334.272L695.107 349.557L643.794 363.75L639.427 348.465Z" stroke="#674A81"/>
<path d="M399.237 710.934V697.832H411.247V710.934M506.231 606.123V593.022H520.424M446.183 563.544H464.743V575.554H446.183M451.642 415.063H464.743V400.87M430.899 422.706V409.604H438.541M438.541 409.604H446.183M438.541 409.604V401.962H446.183M323.905 422.706V362.658H310.804M137.211 362.658V348.465H83.7144V362.658H125.202M137.211 362.658V374.668H125.202V362.658M137.211 362.658H125.202M64.0625 280.775V293.877H77.1638V280.775M136.119 262.215H151.404V246.93M104.458 456.551V442.358H116.468V456.551M112.1 595.206L125.202 608.307M142.67 609.399H156.863V602.301M156.863 602.301V595.206M156.863 602.301H164.506V595.206M205.993 669.446V681.456H216.911V669.446M257.307 656.345H271.5V642.152M319.538 602.848H291.152V583.196H305.345M345.74 335.364V368.117H365.392V381.218H391.595V368.117H411.247V335.364H345.74ZM365.392 288.418V285.142H391.595V288.418H365.392Z" stroke="#674A81"/>
<path d="M291.152 595.206H305.345M405.788 510.047H392.687V521.206H405.788" stroke="#674A81"/>
<path d="M293.336 489.161C295.669 489.161 297.56 487.27 297.56 484.937C297.56 482.603 295.669 480.712 293.336 480.712C291.002 480.712 289.111 482.603 289.111 484.937C289.111 487.27 291.002 489.161 293.336 489.161Z" stroke="#674A81"/>
<path d="M719.127 294.968V264.399M668.905 294.968V234.921H686.374" stroke="#674A81" stroke-width="0.5"/>
<path d="M62.9714 296.06H78.2558V281.867H135.029V375.759L135.027 347.373H82.6225V363.75H124.109V375.759H3.44873V375.342H43.3185V335.364H10.0071V322.779H3.44873V281.867H62.9714V296.06Z" fill="#4F276A"/>
<path d="M73.1039 319.982H70.3299C70.2509 319.528 70.1049 319.124 69.8924 318.775C69.6797 318.418 69.4152 318.116 69.0987 317.869C68.7822 317.622 68.4212 317.436 68.0159 317.313C67.6152 317.184 67.1827 317.119 66.7179 317.119C65.8921 317.119 65.1604 317.328 64.5224 317.744C63.8846 318.154 63.3852 318.756 63.0243 319.553C62.6633 320.343 62.4828 321.309 62.4828 322.453C62.4828 323.615 62.6633 324.594 63.0243 325.39C63.3902 326.182 63.8895 326.78 64.5224 327.184C65.1604 327.585 65.8897 327.786 66.7105 327.786C67.1654 327.786 67.5905 327.725 67.9862 327.608C68.3867 327.484 68.7452 327.304 69.0617 327.066C69.383 326.829 69.6526 326.537 69.87 326.191C70.0925 325.844 70.2459 325.449 70.3299 325.004L73.1039 325.02C73 325.741 72.775 326.419 72.4289 327.051C72.0877 327.684 71.6402 328.242 71.0865 328.728C70.5326 329.206 69.885 329.582 69.1431 329.854C68.4015 330.122 67.5782 330.254 66.6733 330.254C65.3383 330.254 64.1466 329.947 63.0983 329.328C62.0502 328.711 61.2245 327.818 60.6211 326.651C60.0178 325.483 59.7163 324.084 59.7163 322.453C59.7163 320.816 60.0203 319.416 60.6286 318.254C61.2368 317.087 62.065 316.194 63.1131 315.577C64.1614 314.958 65.3481 314.651 66.6733 314.651C67.519 314.651 68.305 314.768 69.0319 315.006C69.7587 315.243 70.4066 315.592 70.9752 316.052C71.5439 316.506 72.011 317.066 72.3771 317.728C72.7479 318.385 72.9902 319.137 73.1039 319.982Z" fill="white"/>
<path d="M425.44 396.503H331.547V313.528H425.44V396.503ZM344.649 368.117H366.484V381.218H390.503V368.117H410.155V335.364H344.649V368.117Z" fill="#4F276A"/>
<path d="M372.35 362.801V347.611H378.165C379.263 347.611 380.174 347.784 380.902 348.129C381.633 348.471 382.179 348.938 382.54 349.532C382.907 350.125 383.089 350.797 383.089 351.549C383.089 352.168 382.971 352.696 382.734 353.136C382.496 353.571 382.177 353.926 381.777 354.197C381.376 354.469 380.928 354.665 380.434 354.782V354.93C380.974 354.961 381.49 355.126 381.984 355.428C382.483 355.724 382.891 356.146 383.208 356.689C383.524 357.234 383.683 357.89 383.683 358.661C383.683 359.447 383.491 360.156 383.112 360.784C382.73 361.407 382.157 361.899 381.391 362.259C380.624 362.62 379.66 362.801 378.498 362.801H372.35ZM375.101 360.501H378.061C379.06 360.501 379.779 360.311 380.22 359.93C380.664 359.544 380.886 359.051 380.886 358.447C380.886 357.997 380.776 357.592 380.552 357.23C380.33 356.865 380.013 356.578 379.603 356.37C379.193 356.157 378.703 356.051 378.135 356.051H375.101V360.501ZM375.101 354.07H377.824C378.298 354.07 378.726 353.985 379.107 353.812C379.487 353.634 379.787 353.383 380.003 353.062C380.226 352.735 380.338 352.35 380.338 351.906C380.338 351.317 380.131 350.833 379.715 350.451C379.305 350.071 378.693 349.88 377.883 349.88H375.101V354.07Z" fill="white"/>
<path d="M732.811 308.595H746.421V296.06H746.482L746.434 377.396H649.265L649.272 362.113L649.585 363.233L696.207 350.246L691.43 333.093L649.284 344.835L649.312 296.06H732.811V308.595Z" fill="#4F276A"/>
<path d="M708.382 334.414H705.444L710.793 319.225H714.19L719.544 334.414H716.607L712.549 322.34H712.432L708.382 334.414ZM708.478 328.458H716.489V330.668H708.478V328.458Z" fill="white"/>
<rect width="27" height="6" transform="translate(59 294)" fill="#4F276A"/>
<rect width="5" height="12" transform="translate(77 282)" fill="#4F276A"/>
<rect width="5" height="12" transform="translate(59 282)" fill="#4F276A"/>
</svg>
