<svg width="750" height="917" viewBox="0 0 750 917" fill="none" xmlns="http://www.w3.org/2000/svg">
<path fill-rule="evenodd" clip-rule="evenodd" d="M748.952 348.479V539.818H723.45L691.57 565.331V595.094L725.574 622.732H739.388V690.765L724.512 714.151H640.566V746.041L621.438 757.733L595.936 722.654H590.622L581.06 727.97H578.934L573.62 722.654H522.616L508.802 713.087H499.238L486.486 720.527H435.483V739.662L414.231 754.544V757.733L400.417 761.984L391.915 769.427V782.182L384.477 798.127H358.975V821.514L378.101 847.025V882.104H262.277V839.584L276.091 822.576V797.065H241.025L232.523 789.622H224.023L215.521 797.065L207.021 798.127L196.395 803.441L187.894 792.811L140.077 773.678L119.887 771.552L101.823 777.93V690.765H106.073V685.449H1.9375V544.072L51.88 524.937V514.809H1.9375V317.652H22.1271V310.803H21.0645V305.96H20.0019V248.559H22.1271V185.842H260.151V213.479H263.339V175.811H194.269V145.448H234.649V136.944H239.961V34.8964H332.409V136.944H337.721V145.448H357.911L430.169 135.881V176.275L302.655 175.811V213.479H306.907V185.842H430.169V253.873H475.86V304.898H527.928V340.418H596.998V326.157H642.69V348.479H748.952ZM234.649 690.765V628.048H230.399V685.449H134.764V690.765H234.649ZM306.907 606.788V544.072H278.215V606.788H306.907ZM185.769 317.652V311.276H235.711V401.63H318.262V425.674H339.244V496.237H316.469V493.047H235.711V582.34H170.892V536.631H147.515V516.434H137.952V502.615H147.515V490.921H229.335V317.652H185.769ZM627.814 418.639V486.669H499.238V462.22H404.667V384.622H375.977V356.984H314.345V291.079H336.659V286.827H401.479V373.993H431.231V418.639H627.814ZM498.176 325.095V344.228H430.169V273.008H434.419V332.536H486.486L493.926 325.095H498.176ZM140.077 317.652V311.276H65.694V317.652H140.077ZM196.395 393.125V347.417L131.267 346.987V393.125H196.395ZM540.68 522.812V587.653H453.546V522.812H540.68ZM644.816 654.622V586.591H622.981V606.788H475.86V609.978H484.362V654.622H551.306H578.934H644.816ZM459.922 631.237V654.622H352.599V586.591H373.851L358.975 623.796V643.992H431.231L459.922 631.237Z" fill="#26003A"/>
<path d="M748.952 539.818V540.788H749.921V539.818H748.952ZM748.952 348.479H749.921V347.51H748.952V348.479ZM723.45 539.818V538.849H723.109L722.843 539.062L723.45 539.818ZM691.57 565.331L690.965 564.573L690.601 564.864V565.331H691.57ZM691.57 595.094H690.601V595.556L690.96 595.846L691.57 595.094ZM725.574 622.732L724.963 623.484L725.231 623.701H725.574V622.732ZM739.388 622.732H740.357V621.763H739.388V622.732ZM739.388 690.765L740.206 691.284L740.357 691.046V690.765H739.388ZM724.512 714.151V715.12H725.043L725.33 714.671L724.512 714.151ZM640.566 714.151V713.182H639.597V714.151H640.566ZM640.566 746.04L641.07 746.866L641.535 746.583V746.04H640.566ZM621.438 757.733L620.655 758.303L621.18 759.026L621.944 758.561L621.438 757.733ZM595.936 722.654L596.719 722.084L596.43 721.685H595.936V722.654ZM590.622 722.654V721.685H590.372L590.153 721.807L590.622 722.654ZM581.06 727.97V728.939H581.31L581.529 728.817L581.06 727.97ZM578.934 727.97L578.248 728.654L578.533 728.939H578.934V727.97ZM573.62 722.654L574.306 721.97L574.024 721.685H573.62V722.654ZM522.617 722.654L522.064 723.451L522.314 723.623H522.617V722.654ZM508.803 713.087L509.353 712.29L509.105 712.117H508.803V713.087ZM499.239 713.087V712.117H498.977L498.75 712.249L499.239 713.087ZM486.487 720.527V721.497H486.75L486.975 721.365L486.487 720.527ZM435.483 720.527V719.558H434.514V720.527H435.483ZM435.483 739.662L436.037 740.457L436.452 740.166V739.662H435.483ZM414.231 754.544L413.675 753.751L413.262 754.04V754.544H414.231ZM414.231 757.733L414.516 758.659L415.2 758.448V757.733H414.231ZM400.417 761.984L400.132 761.06L399.934 761.12L399.777 761.255L400.417 761.984ZM391.915 769.427L391.277 768.696L390.946 768.987V769.427H391.915ZM391.915 782.182L392.793 782.593L392.884 782.397V782.182H391.915ZM384.477 798.127V799.097H385.093L385.355 798.536L384.477 798.127ZM358.975 798.127V797.158H358.006V798.127H358.975ZM358.975 821.514H358.006V821.835L358.2 822.095L358.975 821.514ZM378.101 847.025H379.07V846.701L378.876 846.443L378.101 847.025ZM378.101 882.104V883.073H379.07V882.104H378.101ZM262.277 882.104H261.308V883.073H262.277V882.104ZM262.277 839.584L261.525 838.972L261.308 839.239V839.584H262.277ZM276.091 822.576L276.843 823.187L277.06 822.919V822.576H276.091ZM276.091 797.065H277.06V796.096H276.091V797.065ZM241.025 797.065L240.386 797.794L240.661 798.034H241.025V797.065ZM232.523 789.622L233.161 788.893L232.888 788.653H232.523V789.622ZM224.023 789.622V788.653H223.659L223.384 788.893L224.023 789.622ZM215.522 797.065L215.642 798.026L215.936 797.99L216.161 797.794L215.522 797.065ZM207.022 798.127L206.901 797.166L206.737 797.185L206.587 797.261L207.022 798.127ZM196.396 803.441L195.638 804.048L196.128 804.659L196.828 804.31L196.396 803.441ZM187.894 792.811L188.651 792.207L188.491 792.007L188.254 791.912L187.894 792.811ZM140.077 773.678L140.437 772.779L140.312 772.729L140.178 772.715L140.077 773.678ZM119.887 771.552L119.989 770.588L119.771 770.565L119.565 770.639L119.887 771.552ZM101.823 777.93H100.854V779.301L102.145 778.843L101.823 777.93ZM101.823 690.765V689.795H100.854V690.765H101.823ZM106.073 690.765V691.734H107.042V690.765H106.073ZM106.073 685.449H107.042V684.479H106.073V685.449ZM1.93774 685.449H0.96875V686.418H1.93774V685.449ZM1.93774 544.072L1.59117 543.166L0.96875 543.405V544.072H1.93774ZM51.8803 524.937L52.227 525.842L52.8493 525.604V524.937H51.8803ZM51.8803 514.809H52.8493V513.84H51.8803V514.809ZM1.93774 514.809H0.96875V515.779H1.93774V514.809ZM1.93774 317.652V316.683H0.96875V317.652H1.93774ZM22.1274 317.652V318.622H23.0964V317.652H22.1274ZM22.1274 310.803H23.0964V309.833H22.1274V310.803ZM21.0648 310.803H20.0958V311.772H21.0648V310.803ZM21.0648 305.96H22.0338V304.991H21.0648V305.96ZM20.0022 305.96H19.0331V306.929H20.0022V305.96ZM20.0022 248.559V247.59H19.0331V248.559H20.0022ZM22.1274 248.559V249.529H23.0964V248.559H22.1274ZM22.1274 185.842V184.872H21.1584V185.842H22.1274ZM260.151 185.842H261.12V184.872H260.151V185.842ZM260.151 213.479H259.182V214.448H260.151V213.479ZM263.339 213.479V214.448H264.308V213.479H263.339ZM263.339 175.811H264.308V174.842H263.339V175.811ZM194.27 175.811H193.301V176.78H194.27V175.811ZM194.27 145.448V144.478H193.301V145.448H194.27ZM234.649 145.448V146.417H235.618V145.448H234.649ZM234.649 136.944V135.975H233.68V136.944H234.649ZM239.961 136.944V137.913H240.93V136.944H239.961ZM239.961 34.8963V33.927H238.992V34.8963H239.961ZM332.409 34.8963H333.378V33.927H332.409V34.8963ZM332.409 136.944H331.44V137.913H332.409V136.944ZM337.721 136.944H338.69V135.975H337.721V136.944ZM337.721 145.448H336.752V146.417H337.721V145.448ZM357.911 145.448V146.417H357.975L358.039 146.409L357.911 145.448ZM430.169 135.881H431.138V134.775L430.043 134.92L430.169 135.881ZM430.169 176.275L430.165 177.244L431.138 177.248V176.275H430.169ZM302.655 175.811L302.659 174.842L301.686 174.838V175.811H302.655ZM302.655 213.479H301.686V214.448H302.655V213.479ZM306.907 213.479V214.448H307.876V213.479H306.907ZM306.907 185.842V184.872H305.938V185.842H306.907ZM430.169 185.842H431.138V184.872H430.169V185.842ZM430.169 253.873H429.2V254.843H430.169V253.873ZM475.861 253.873H476.83V252.904H475.861V253.873ZM475.861 304.898H474.892V305.867H475.861V304.898ZM527.929 304.898H528.898V303.928H527.929V304.898ZM527.929 340.418H526.96V341.388H527.929V340.418ZM596.998 340.418V341.388H597.967V340.418H596.998ZM596.998 326.157V325.188H596.029V326.157H596.998ZM642.69 326.157H643.659V325.188H642.69V326.157ZM642.69 348.479H641.721V349.449H642.69V348.479ZM234.649 628.048H235.618V627.079H234.649V628.048ZM234.649 690.765V691.734H235.618V690.765H234.649ZM230.399 628.048V627.079H229.43V628.048H230.399ZM230.399 685.449V686.418H231.368V685.449H230.399ZM134.764 685.449V684.479H133.795V685.449H134.764ZM134.764 690.765H133.795V691.734H134.764V690.765ZM306.907 544.072H307.876V543.102H306.907V544.072ZM306.907 606.788V607.758H307.876V606.788H306.907ZM278.215 544.072V543.102H277.246V544.072H278.215ZM278.215 606.788H277.246V607.758H278.215V606.788ZM185.769 311.276V310.307H184.8V311.276H185.769ZM185.769 317.652H184.8V318.622H185.769V317.652ZM235.711 311.276H236.68V310.307H235.711V311.276ZM235.711 401.63H234.742V402.6H235.711V401.63ZM318.262 401.63H319.231V400.661H318.262V401.63ZM318.262 425.674H317.293V426.643H318.262V425.674ZM339.244 425.674H340.213V424.705H339.244V425.674ZM339.244 496.237V497.206H340.213V496.237H339.244ZM316.469 496.237H315.5V497.206H316.469V496.237ZM316.469 493.047H317.438V492.078H316.469V493.047ZM235.711 493.047V492.078H234.742V493.047H235.711ZM235.711 582.34V583.309H236.68V582.34H235.711ZM170.893 582.34H169.924V583.309H170.893V582.34ZM170.893 536.631H171.862V535.662H170.893V536.631ZM147.515 536.631H146.546V537.6H147.515V536.631ZM147.515 516.434H148.484V515.464H147.515V516.434ZM137.952 516.434H136.983V517.403H137.952V516.434ZM137.952 502.615V501.645H136.983V502.615H137.952ZM147.515 502.615V503.584H148.484V502.615H147.515ZM147.515 490.921V489.951H146.546V490.921H147.515ZM229.335 490.921V491.89H230.304V490.921H229.335ZM229.335 317.652H230.304V316.683H229.335V317.652ZM627.814 486.669V487.638H628.783V486.669H627.814ZM627.814 418.639H628.783V417.669H627.814V418.639ZM499.239 486.669H498.27V487.638H499.239V486.669ZM499.239 462.22H500.208V461.251H499.239V462.22ZM404.667 462.22H403.698V463.19H404.667V462.22ZM404.667 384.622H405.636V383.653H404.667V384.622ZM375.977 384.622H375.008V385.592H375.977V384.622ZM375.977 356.984H376.946V356.015H375.977V356.984ZM314.345 356.984H313.376V357.954H314.345V356.984ZM314.345 291.079V290.109H313.376V291.079H314.345ZM336.659 291.079V292.048H337.628V291.079H336.659ZM336.659 286.827V285.858H335.69V286.827H336.659ZM401.479 286.827H402.448V285.858H401.479V286.827ZM401.479 373.992H400.51V374.962H401.479V373.992ZM431.231 373.992H432.2V373.023H431.231V373.992ZM431.231 418.639H430.262V419.608H431.231V418.639ZM498.177 344.228V345.197H499.146V344.228H498.177ZM498.177 325.095H499.146V324.126H498.177V325.095ZM430.169 344.228H429.2V345.197H430.169V344.228ZM430.169 273.008V272.039H429.2V273.008H430.169ZM434.419 273.008H435.388V272.039H434.419V273.008ZM434.419 332.536H433.45V333.505H434.419V332.536ZM486.487 332.536V333.505H486.888L487.173 333.22L486.487 332.536ZM493.927 325.095V324.126H493.523L493.241 324.409L493.927 325.095ZM140.077 311.276H141.046V310.307H140.077V311.276ZM140.077 317.652V318.622H141.046V317.652H140.077ZM65.6942 311.276V310.307H64.7252V311.276H65.6942ZM65.6942 317.652H64.7252V318.622H65.6942V317.652ZM196.396 347.417H197.365V346.453L196.401 346.448L196.396 347.417ZM196.396 393.125V394.095H197.365V393.125H196.396ZM131.268 346.987L131.274 346.017L130.299 346.011V346.987H131.268ZM131.268 393.125H130.299V394.095H131.268V393.125ZM540.68 587.653V588.623H541.649V587.653H540.68ZM540.68 522.812H541.649V521.843H540.68V522.812ZM453.547 587.653H452.578V588.623H453.547V587.653ZM453.547 522.812V521.843H452.578V522.812H453.547ZM644.816 586.591H645.785V585.622H644.816V586.591ZM644.816 654.622V655.591H645.785V654.622H644.816ZM622.981 586.591V585.622H622.012V586.591H622.981ZM622.981 606.788V607.758H623.95V606.788H622.981ZM475.861 606.788V605.819H474.892V606.788H475.861ZM475.861 609.977H474.892V610.947H475.861V609.977ZM484.363 609.977H485.332V609.008H484.363V609.977ZM484.363 654.622H483.394V655.591H484.363V654.622ZM459.923 654.622V655.591H460.892V654.622H459.923ZM459.923 631.237H460.892V629.744L459.529 630.351L459.923 631.237ZM352.599 654.622H351.63V655.591H352.599V654.622ZM352.599 586.591V585.622H351.63V586.591H352.599ZM373.851 586.591L374.75 586.952L375.281 585.622H373.851V586.591ZM358.975 623.796L358.074 623.436L358.006 623.608V623.796H358.975ZM358.975 643.992H358.006V644.961H358.975V643.992ZM431.231 643.992V644.961H431.438L431.626 644.878L431.231 643.992ZM748.952 539.818H749.921V348.479H748.952H747.983V539.818H748.952ZM723.45 539.818V540.788H748.952V539.818V538.849H723.45V539.818ZM691.57 565.331L692.177 566.087L724.054 540.576L723.45 539.818L722.843 539.062L690.965 564.573L691.57 565.331ZM691.57 595.094H692.539V565.331H691.57H690.601V595.094H691.57ZM725.574 622.732L726.186 621.98L692.182 594.342L691.57 595.094L690.96 595.846L724.963 623.484L725.574 622.732ZM739.388 622.732V621.763H725.574V622.732V623.701H739.388V622.732ZM739.388 690.765H740.357V622.732H739.388H738.419V690.765H739.388ZM724.512 714.151L725.33 714.671L740.206 691.284L739.388 690.765L738.57 690.243L723.694 713.63L724.512 714.151ZM640.566 714.151V715.12H724.512V714.151V713.182H640.566V714.151ZM640.566 746.04H641.535V714.151H640.566H639.597V746.04H640.566ZM621.438 757.733L621.944 758.561L641.07 746.866L640.566 746.04L640.06 745.213L620.934 756.907L621.438 757.733ZM595.936 722.654L595.153 723.224L620.655 758.303L621.438 757.733L622.223 757.163L596.719 722.084L595.936 722.654ZM590.622 722.654V723.623H595.936V722.654V721.685H590.622V722.654ZM581.06 727.97L581.529 728.817L591.093 723.501L590.622 722.654L590.153 721.807L580.589 727.123L581.06 727.97ZM578.934 727.97V728.939H581.06V727.97V727.001H578.934V727.97ZM573.62 722.654L572.936 723.34L578.248 728.654L578.934 727.97L579.62 727.284L574.306 721.97L573.62 722.654ZM522.617 722.654V723.623H573.62V722.654V721.685H522.617V722.654ZM508.803 713.087L508.25 713.883L522.064 723.451L522.617 722.654L523.167 721.857L509.353 712.29L508.803 713.087ZM499.239 713.087V714.056H508.803V713.087V712.117H499.239V713.087ZM486.487 720.527L486.975 721.365L499.727 713.924L499.239 713.087L498.75 712.249L485.998 719.692L486.487 720.527ZM435.483 720.527V721.497H486.487V720.527V719.558H435.483V720.527ZM435.483 739.662H436.452V720.527H435.483H434.514V739.662H435.483ZM414.231 754.544L414.785 755.338L436.037 740.457L435.483 739.662L434.927 738.867L413.675 753.751L414.231 754.544ZM414.231 757.733H415.2V754.544H414.231H413.262V757.733H414.231ZM400.417 761.984L400.702 762.911L414.516 758.659L414.231 757.733L413.944 756.806L400.132 761.06L400.417 761.984ZM391.915 769.427L392.553 770.156L401.054 762.715L400.417 761.984L399.777 761.255L391.277 768.696L391.915 769.427ZM391.915 782.182H392.884V769.427H391.915H390.946V782.182H391.915ZM384.477 798.127L385.355 798.536L392.793 782.593L391.915 782.182L391.037 781.772L383.599 797.716L384.477 798.127ZM358.975 798.127V799.097H384.477V798.127V797.158H358.975V798.127ZM358.975 821.514H359.944V798.127H358.975H358.006V821.514H358.975ZM378.101 847.025L378.876 846.443L359.75 820.932L358.975 821.514L358.2 822.095L377.326 847.606L378.101 847.025ZM378.101 882.104H379.07V847.025H378.101H377.132V882.104H378.101ZM262.277 882.104V883.073H378.101V882.104V881.134H262.277V882.104ZM262.277 839.584H261.308V882.104H262.277H263.246V839.584H262.277ZM276.091 822.576L275.339 821.965L261.525 838.972L262.277 839.584L263.029 840.195L276.843 823.187L276.091 822.576ZM276.091 797.065H275.122V822.576H276.091H277.06V797.065H276.091ZM241.025 797.065V798.034H276.091V797.065V796.096H241.025V797.065ZM232.523 789.622L231.886 790.353L240.386 797.794L241.025 797.065L241.663 796.334L233.161 788.893L232.523 789.622ZM224.023 789.622V790.592H232.523V789.622V788.653H224.023V789.622ZM215.522 797.065L216.161 797.794L224.661 790.353L224.023 789.622L223.384 788.893L214.884 796.334L215.522 797.065ZM207.022 798.127L207.142 799.089L215.642 798.026L215.522 797.065L215.401 796.101L206.901 797.166L207.022 798.127ZM196.396 803.441L196.828 804.31L207.454 798.994L207.022 798.127L206.587 797.261L195.961 802.575L196.396 803.441ZM187.894 792.811L187.138 793.418L195.638 804.048L196.396 803.441L197.151 802.836L188.651 792.207L187.894 792.811ZM140.077 773.678L139.717 774.578L187.534 793.713L187.894 792.811L188.254 791.912L140.437 772.779L140.077 773.678ZM119.887 771.552L119.786 772.515L139.975 774.642L140.077 773.678L140.178 772.715L119.989 770.588L119.887 771.552ZM101.823 777.93L102.145 778.843L120.21 772.467L119.887 771.552L119.565 770.639L101.5 777.015L101.823 777.93ZM101.823 690.765H100.854V777.93H101.823H102.792V690.765H101.823ZM106.073 690.765V689.795H101.823V690.765V691.734H106.073V690.765ZM106.073 685.449H105.104V690.765H106.073H107.042V685.449H106.073ZM1.93774 685.449V686.418H106.073V685.449V684.479H1.93774V685.449ZM1.93774 544.072H0.96875V685.449H1.93774H2.90674V544.072H1.93774ZM51.8803 524.937L51.5338 524.032L1.59117 543.166L1.93774 544.072L2.28432 544.977L52.227 525.842L51.8803 524.937ZM51.8803 514.809H50.9113V524.937H51.8803H52.8493V514.809H51.8803ZM1.93774 514.809V515.779H51.8803V514.809V513.84H1.93774V514.809ZM1.93774 317.652H0.96875V514.809H1.93774H2.90674V317.652H1.93774ZM22.1274 317.652V316.683H1.93774V317.652V318.622H22.1274V317.652ZM22.1274 310.803H21.1584V317.652H22.1274H23.0964V310.803H22.1274ZM21.0648 310.803V311.772H22.1274V310.803V309.833H21.0648V310.803ZM21.0648 305.96H20.0958V310.803H21.0648H22.0338V305.96H21.0648ZM20.0022 305.96V306.929H21.0648V305.96V304.991H20.0022V305.96ZM20.0022 248.559H19.0331V305.96H20.0022H20.9712V248.559H20.0022ZM22.1274 248.559V247.59H20.0022V248.559V249.529H22.1274V248.559ZM22.1274 185.842H21.1584V248.559H22.1274H23.0964V185.842H22.1274ZM260.151 185.842V184.872H22.1274V185.842V186.811H260.151V185.842ZM260.151 213.479H261.12V185.842H260.151H259.182V213.479H260.151ZM263.339 213.479V212.509H260.151V213.479V214.448H263.339V213.479ZM263.339 175.811H262.37V213.479H263.339H264.308V175.811H263.339ZM194.27 175.811V176.78H263.339V175.811V174.842H194.27V175.811ZM194.27 145.448H193.301V175.811H194.27H195.239V145.448H194.27ZM234.649 145.448V144.478H194.27V145.448V146.417H234.649V145.448ZM234.649 136.944H233.68V145.448H234.649H235.618V136.944H234.649ZM239.961 136.944V135.975H234.649V136.944V137.913H239.961V136.944ZM239.961 34.8963H238.992V136.944H239.961H240.93V34.8963H239.961ZM332.409 34.8963V33.927H239.961V34.8963V35.8657H332.409V34.8963ZM332.409 136.944H333.378V34.8963H332.409H331.44V136.944H332.409ZM337.721 136.944V135.975H332.409V136.944V137.913H337.721V136.944ZM337.721 145.448H338.69V136.944H337.721H336.752V145.448H337.721ZM357.911 145.448V144.478H337.721V145.448V146.417H357.911V145.448ZM430.169 135.881L430.043 134.92L357.785 144.487L357.911 145.448L358.039 146.409L430.297 136.842L430.169 135.881ZM430.169 176.275H431.138V135.881H430.169H429.2V176.275H430.169ZM302.655 175.811L302.653 176.78L430.165 177.244L430.169 176.275L430.173 175.305L302.659 174.842L302.655 175.811ZM302.655 213.479H303.624V175.811H302.655H301.686V213.479H302.655ZM306.907 213.479V212.509H302.655V213.479V214.448H306.907V213.479ZM306.907 185.842H305.938V213.479H306.907H307.876V185.842H306.907ZM430.169 185.842V184.872H306.907V185.842V186.811H430.169V185.842ZM430.169 253.873H431.138V185.842H430.169H429.2V253.873H430.169ZM475.861 253.873V252.904H430.169V253.873V254.843H475.861V253.873ZM475.861 304.898H476.83V253.873H475.861H474.892V304.898H475.861ZM527.929 304.898V303.928H475.861V304.898V305.867H527.929V304.898ZM527.929 340.418H528.898V304.898H527.929H526.96V340.418H527.929ZM596.998 340.418V339.449H527.929V340.418V341.388H596.998V340.418ZM596.998 326.157H596.029V340.418H596.998H597.967V326.157H596.998ZM642.69 326.157V325.188H596.998V326.157V327.127H642.69V326.157ZM642.69 348.479H643.659V326.157H642.69H641.721V348.479H642.69ZM748.952 348.479V347.51H642.69V348.479V349.449H748.952V348.479ZM234.649 628.048H233.68V690.765H234.649H235.618V628.048H234.649ZM230.399 628.048V629.017H234.649V628.048V627.079H230.399V628.048ZM230.399 685.449H231.368V628.048H230.399H229.43V685.449H230.399ZM134.764 685.449V686.418H230.399V685.449V684.479H134.764V685.449ZM134.764 690.765H135.733V685.449H134.764H133.795V690.765H134.764ZM234.649 690.765V689.795H134.764V690.765V691.734H234.649V690.765ZM306.907 544.072H305.938V606.788H306.907H307.876V544.072H306.907ZM278.215 544.072V545.041H306.907V544.072V543.102H278.215V544.072ZM278.215 606.788H279.184V544.072H278.215H277.246V606.788H278.215ZM306.907 606.788V605.819H278.215V606.788V607.758H306.907V606.788ZM185.769 311.276H184.8V317.652H185.769H186.738V311.276H185.769ZM235.711 311.276V310.307H185.769V311.276V312.245H235.711V311.276ZM235.711 401.63H236.68V311.276H235.711H234.742V401.63H235.711ZM318.262 401.63V400.661H235.711V401.63V402.6H318.262V401.63ZM318.262 425.674H319.231V401.63H318.262H317.293V425.674H318.262ZM339.244 425.674V424.705H318.262V425.674V426.643H339.244V425.674ZM339.244 496.237H340.213V425.674H339.244H338.275V496.237H339.244ZM316.469 496.237V497.206H339.244V496.237V495.267H316.469V496.237ZM316.469 493.047H315.5V496.237H316.469H317.438V493.047H316.469ZM235.711 493.047V494.017H316.469V493.047V492.078H235.711V493.047ZM235.711 582.34H236.68V493.047H235.711H234.742V582.34H235.711ZM170.893 582.34V583.309H235.711V582.34V581.37H170.893V582.34ZM170.893 536.631H169.924V582.34H170.893H171.862V536.631H170.893ZM147.515 536.631V537.6H170.893V536.631V535.662H147.515V536.631ZM147.515 516.434H146.546V536.631H147.515H148.484V516.434H147.515ZM137.952 516.434V517.403H147.515V516.434V515.464H137.952V516.434ZM137.952 502.615H136.983V516.434H137.952H138.921V502.615H137.952ZM147.515 502.615V501.645H137.952V502.615V503.584H147.515V502.615ZM147.515 490.921H146.546V502.615H147.515H148.484V490.921H147.515ZM229.335 490.921V489.951H147.515V490.921V491.89H229.335V490.921ZM229.335 317.652H228.367V490.921H229.335H230.304V317.652H229.335ZM185.769 317.652V318.622H229.335V317.652V316.683H185.769V317.652ZM627.814 486.669H628.783V418.639H627.814H626.845V486.669H627.814ZM499.239 486.669V487.638H627.814V486.669V485.7H499.239V486.669ZM499.239 462.22H498.27V486.669H499.239H500.208V462.22H499.239ZM404.667 462.22V463.19H499.239V462.22V461.251H404.667V462.22ZM404.667 384.622H403.698V462.22H404.667H405.636V384.622H404.667ZM375.977 384.622V385.592H404.667V384.622V383.653H375.977V384.622ZM375.977 356.984H375.008V384.622H375.977H376.946V356.984H375.977ZM314.345 356.984V357.954H375.977V356.984V356.015H314.345V356.984ZM314.345 291.079H313.376V356.984H314.345H315.314V291.079H314.345ZM336.659 291.079V290.109H314.345V291.079V292.048H336.659V291.079ZM336.659 286.827H335.69V291.079H336.659H337.628V286.827H336.659ZM401.479 286.827V285.858H336.659V286.827V287.796H401.479V286.827ZM401.479 373.992H402.448V286.827H401.479H400.51V373.992H401.479ZM431.231 373.992V373.023H401.479V373.992V374.962H431.231V373.992ZM431.231 418.639H432.2V373.992H431.231H430.262V418.639H431.231ZM627.814 418.639V417.669H431.231V418.639V419.608H627.814V418.639ZM498.177 344.228H499.146V325.095H498.177H497.208V344.228H498.177ZM430.169 344.228V345.197H498.177V344.228V343.258H430.169V344.228ZM430.169 273.008H429.2V344.228H430.169H431.138V273.008H430.169ZM434.419 273.008V272.039H430.169V273.008V273.977H434.419V273.008ZM434.419 332.536H435.388V273.008H434.419H433.45V332.536H434.419ZM486.487 332.536V331.566H434.419V332.536V333.505H486.487V332.536ZM493.927 325.095L493.241 324.409L485.803 331.849L486.487 332.536L487.173 333.22L494.611 325.779L493.927 325.095ZM498.177 325.095V324.126H493.927V325.095V326.064H498.177V325.095ZM140.077 311.276H139.108V317.652H140.077H141.046V311.276H140.077ZM65.6942 311.276V312.245H140.077V311.276V310.307H65.6942V311.276ZM65.6942 317.652H66.6632V311.276H65.6942H64.7252V317.652H65.6942ZM140.077 317.652V316.683H65.6942V317.652V318.622H140.077V317.652ZM196.396 347.417H195.427V393.125H196.396H197.365V347.417H196.396ZM131.268 346.987L131.261 347.956L196.39 348.386L196.396 347.417L196.401 346.448L131.274 346.017L131.268 346.987ZM131.268 393.125H132.237V346.987H131.268H130.299V393.125H131.268ZM196.396 393.125V392.156H131.268V393.125V394.095H196.396V393.125ZM540.68 587.653H541.649V522.812H540.68H539.711V587.653H540.68ZM453.547 587.653V588.623H540.68V587.653V586.684H453.547V587.653ZM453.547 522.812H452.578V587.653H453.547H454.516V522.812H453.547ZM540.68 522.812V521.843H453.547V522.812V523.781H540.68V522.812ZM644.816 586.591H643.847V654.622H644.816H645.785V586.591H644.816ZM622.981 586.591V587.56H644.816V586.591V585.622H622.981V586.591ZM622.981 606.788H623.95V586.591H622.981H622.012V606.788H622.981ZM475.861 606.788V607.758H622.981V606.788V605.819H475.861V606.788ZM475.861 609.977H476.83V606.788H475.861H474.892V609.977H475.861ZM484.363 609.977V609.008H475.861V609.977V610.947H484.363V609.977ZM484.363 654.622H485.332V609.977H484.363H483.394V654.622H484.363ZM551.306 654.622V653.652H484.363V654.622V655.591H551.306V654.622ZM578.934 654.622V653.652H551.306V654.622V655.591H578.934V654.622ZM644.816 654.622V653.652H578.934V654.622V655.591H644.816V654.622ZM459.923 654.622H460.892V631.237H459.923H458.954V654.622H459.923ZM352.599 654.622V655.591H459.923V654.622V653.652H352.599V654.622ZM352.599 586.591H351.63V654.622H352.599H353.568V586.591H352.599ZM373.851 586.591V585.622H352.599V586.591V587.56H373.851V586.591ZM358.975 623.796L359.874 624.155L374.75 586.952L373.851 586.591L372.952 586.231L358.074 623.436L358.975 623.796ZM358.975 643.992H359.944V623.796H358.975H358.006V643.992H358.975ZM431.231 643.992V643.022H358.975V643.992V644.961H431.231V643.992ZM459.923 631.237L459.529 630.351L430.837 643.108L431.231 643.992L431.626 644.878L460.316 632.123L459.923 631.237Z" fill="#674A81"/>
<path d="M437.606 719.465V696.079H435.482M435.482 680.135H437.606V654.622" stroke="#674A81" stroke-opacity="0.23" stroke-width="0.5"/>
<path d="M484.362 716.276H459.922M459.922 716.276V720.527M459.922 716.276C459.922 715.427 459.922 710.962 459.922 708.835M459.922 697.143V679.072M459.922 667.378V658.875M459.922 658.875V654.622M459.922 658.875H484.362" stroke="#674A81" stroke-opacity="0.23"/>
<path d="M143.264 618.481V641.867M66.7562 618.481V641.867M230.397 665.253H1.93701M114.574 716.276C114.574 717.978 114.574 726.906 114.574 731.159H107.135M107.135 731.159H101.822M107.135 731.159V736.473H101.822M451.42 635.489L448.232 629.11L417.416 643.992M366.413 643.992V606.788" stroke="#674A81" stroke-width="0.5"/>
<path d="M63.5693 413.323V442.023M63.5693 442.023H140.077M63.5693 442.023V463.283H76.3205M92.2596 463.283H140.077M260.151 208.165C258.452 208.165 246.692 208.165 241.025 208.165M241.025 208.165V216.668H227.211V215.606M241.025 208.165V201.787M227.211 215.606V201.787M227.211 215.606H210.209V212.416M241.025 201.787H227.211M241.025 201.787V185.842M227.211 201.787H226.149M226.149 201.787H210.209M226.149 201.787V185.842M210.209 201.787V212.416M210.209 201.787H201.708M210.209 212.416H201.708M201.708 201.787V212.416M201.708 201.787V185.842M201.708 212.416H197.458V185.842M303.719 263.441V213.479M262.277 263.441V220.921M262.277 220.921V213.479M262.277 220.921H258.027C256.149 215.297 254.306 214.109 250.589 213.479V209.227M306.907 212.416C307.213 212.416 312.773 212.416 320.721 212.416M320.721 212.416C328.244 212.416 337.911 212.416 347.285 212.416M320.721 212.416V197.535M369.601 185.842V212.416C368.432 212.416 367.196 212.416 365.905 212.416M365.905 212.416V199.129M365.905 212.416C360.419 212.416 353.925 212.416 347.285 212.416M365.905 199.129V185.842M365.905 199.129H347.285M347.285 212.416V199.129M347.285 199.129V189.031M347.285 189.031V185.842M347.285 189.031H320.721M320.721 189.031V185.842M320.721 189.031V197.535M320.721 197.535H306.907M476.925 304.898H464.173V294.268H475.861M259.089 401.631V336.787H255.901M255.901 336.787V329.346H249.525M255.901 336.787H249.525M235.711 336.787H249.525M249.525 336.787V329.346M249.525 329.346V324.031H243.149M243.149 324.031H242.618H235.711M243.149 324.031V316.59H235.711M262.277 493.047V506.866H249.525M249.525 506.866H236.775M249.525 506.866V493.047M358.975 798.127V785.371M358.975 785.371V746.041M358.975 785.371H374.913M275.029 746.041V797.065M374.913 785.371H385.539V796.001M374.913 785.371V798.127" stroke="#674A81"/>
<path d="M93.3218 463.283H74.1948M101.823 558.953V582.34M96.5096 618.481V608.913H92.2592M92.2592 608.913H77.3826V617.418M92.2592 608.913V617.418M77.3826 617.418V618.481M77.3826 617.418H92.2592M92.2592 617.418V618.481" stroke="#674A81" stroke-width="0.5"/>
<path d="M634.19 522.812H578.934M658.63 549.386H615.062M598.062 549.386H592.748M592.748 549.386V541.945H586.372V549.386M592.748 549.386H586.372M578.934 549.386H586.372M622.502 586.591H615.062V588.718H622.502M540.68 587.654H582.122M509.864 486.669V499.426H499.238V486.669M453.546 587.654H441.858V585.529H453.546M402.541 585.529V587.654H428.044V585.529H404.667M402.541 585.529V408.009M402.541 585.529H404.667M404.667 585.529V476.039M378.101 408.009V522.812M375.977 408.009V447.339M375.977 476.039V522.812M375.977 543.007V587.654H373.851M378.101 543.007V551.512M378.101 551.512V588.718M378.101 551.512H385.539V544.072H379.165M327.097 645.056V606.788H306.907M391.915 673.757H436.544M474.798 654.624H484.362M463.11 654.624H458.858M592.748 722.654V685.449H536.43V722.654M208.083 716.276C207.234 716.276 137.597 716.276 102.885 716.276M144.327 641.867H65.6941M65.6941 618.481H78.4454M91.1966 618.481H111.386M127.325 618.481H144.327M1.9375 604.662H24.2522V590.843H1.9375M52.9427 590.843V558.953H62.5063M62.5063 558.953V582.34H127.325V558.953M62.5063 558.953H127.325M139.014 590.843V558.953H127.325M598.062 586.591H579.996V588.718H598.062V586.591ZM39.1287 646.119L40.1913 632.3L26.3776 631.237L25.315 645.056L39.1287 646.119Z" stroke="#674A81"/>
<path d="M110.324 582.34C110.324 581.488 110.324 566.394 110.324 558.953M184.707 582.34V621.67H170.893V582.34M229.335 469.661C228.487 469.661 220.481 469.661 216.585 469.661V470.725M216.585 470.725H209.148M216.585 470.725V478.166M216.585 490.921V478.166M216.585 478.166H209.148M209.148 478.166V470.725M209.148 478.166H202.772M209.148 470.725H202.772V478.166M202.772 478.166V490.921M183.644 490.921V473.913H168.768V490.921M44.4423 346.355C46.1425 346.355 103.24 346.355 131.576 346.355M119.888 368.677H1.93799M131.576 393.125H78.4458M78.4458 393.125H65.6946V405.882M78.4458 393.125V405.882H65.6946M51.8807 516.434V490.921H21.065V413.323H65.6946V405.882" stroke="#674A81"/>
<path d="M536.43 418.639V405.882H523.678V418.639M497.114 418.639V396.315M497.114 396.315V373.993H431.232M497.114 396.315H431.232" stroke="#674A81"/>
<path d="M658.63 522.812H651.192" stroke="#674A81"/>
<path d="M682.008 450.528H707.51V385.685H682.008V438.834M682.008 450.528H668.194V438.834H682.008M682.008 450.528V438.834M748.952 367.614H741.514V359.109M741.514 359.109H734.076V348.479M741.514 359.109H748.952M582.122 373.993H627.814V395.252H564.058V373.993H569.37M582.122 373.993V360.174H569.37V373.993M582.122 373.993H569.37" stroke="#674A81"/>
<path d="M569.37 366.552C565.297 366.306 564.376 368.326 564.058 373.993" stroke="#674A81"/>
<path d="M147.515 490.921C146.665 490.921 112.449 490.921 95.4473 490.921V536.631H147.515M147.515 524.937H108.198V516.434H137.952M107.136 516.434H105.011V502.615H137.952" stroke="#674A81"/>
<path d="M657.568 549.386V522.812M579.996 522.812V549.386M616.126 549.386V587.654M596.998 549.386V587.654M530.054 606.788V600.41H523.678V606.788M422.73 587.654V594.032H415.292V587.654M441.858 586.591H428.044M420.604 585.529V570.645H453.546M375.976 544.072V521.748M352.599 586.591H306.907M327.095 622.732C326.246 622.732 311.864 622.732 304.781 622.732M304.781 622.732H297.343V606.788H304.781V622.732ZM435.482 720.527V673.757" stroke="#674A81" stroke-width="0.5"/>
<path d="M484.362 720.529V654.624M640.566 718.403L626.752 748.165M626.752 748.165H620.376L617.188 752.419M626.752 748.165L627.176 749.23M627.176 749.23L628.878 753.481M627.176 749.23L631.002 746.041H632.064M632.064 746.041H633.128L635.252 749.23M632.064 746.041V739.662L635.252 735.411H640.566M736.2 695.016L733.014 691.827V683.324L739.388 679.072M384.477 286.827V280.449H377.039V286.827M131.576 346.355V337.85H123.075V346.355M139.014 463.283V442.023M201.707 311.276H193.207C191.462 307.835 191.276 306.152 193.207 303.835H201.707C204.5 305.993 204.808 307.542 201.707 311.276Z" stroke="#674A81" stroke-width="0.5"/>
<path d="M275.029 785.371H261.215M261.215 785.371V791.749M261.215 785.371H247.401V791.749M261.215 791.749V797.065H253.775V791.749M261.215 791.749H253.775M247.401 791.749H253.775M247.401 791.749V797.065M11.5015 317.652V330.409H1.93799M128.388 618.481H110.324M184.707 621.67C185.557 621.67 192.853 621.67 196.396 621.67M221.898 791.749L219.773 786.433L211.272 788.56V792.811M211.272 792.811L214.46 797.065M211.272 792.811L207.022 796.001M207.022 796.001L208.084 798.127M207.022 796.001L202.772 788.56L194.27 787.497L190.02 790.687V796.001M174.081 787.497L168.767 781.119H167.705L165.58 778.992H161.329M161.329 778.992V782.182M161.329 778.992V774.741L154.954 770.489L148.578 776.868M134.764 773.679V768.363L130.514 766.238H123.075L122.474 766.839M122.474 766.839L120.95 768.363V771.552M122.474 766.839L117.762 760.922L111.387 757.733L101.823 761.984M110.324 185.842V212.416H105.011V185.842" stroke="#674A81" stroke-width="0.5"/>
<path d="M652.254 522.812C650.554 522.812 638.795 522.812 633.126 522.812" stroke="#674A81" stroke-width="0.5"/>
<path d="M402.54 476.039H378.101M378.101 448.401H403.603" stroke="#674A81" stroke-opacity="0.23" stroke-width="0.5"/>
<path d="M117.762 685.449H106.073M117.762 685.449V671.63H102.885V685.449M117.762 685.449C118.612 685.449 129.451 685.449 134.764 685.449M643.754 522.812V536.629H593.81V522.812" stroke="#674A81" stroke-opacity="0.23"/>
<path fill-rule="evenodd" clip-rule="evenodd" d="M169.83 684.386H3.0006V604.662H24.2527V590.843H169.83V684.386ZM3.0006 590.843H1.93799V604.662H3.0006V590.843ZM39.1292 646.119L40.1918 632.3L26.3779 631.237L25.3153 645.056L39.1292 646.119Z" fill="#4F276A" fill-opacity="0.5"/>
<path d="M50.485 620.673H53.4829L48.0247 605.164H44.5575L39.0918 620.673H42.0897L46.2306 608.343H46.3517L50.485 620.673ZM50.3866 614.592H42.2108V616.848H50.3866V614.592Z" fill="white"/>
<path d="M644.816 586.591H566.182V486.671H627.814V473.913H672.444V597.221H644.816V586.591Z" fill="#4F276A" fill-opacity="0.5"/>
<path d="M642.095 571.774V556.264H648.029C649.149 556.264 650.081 556.443 650.823 556.795C651.57 557.144 652.128 557.621 652.496 558.226C652.87 558.833 653.056 559.519 653.056 560.287C653.056 560.917 652.936 561.458 652.694 561.908C652.451 562.352 652.126 562.712 651.717 562.99C651.308 563.267 650.851 563.466 650.347 563.589V563.74C650.895 563.771 651.424 563.939 651.928 564.248C652.438 564.55 652.854 564.979 653.178 565.535C653.5 566.089 653.663 566.762 653.663 567.549C653.663 568.352 653.467 569.073 653.079 569.715C652.69 570.351 652.104 570.853 651.323 571.221C650.54 571.59 649.556 571.774 648.37 571.774H642.095ZM644.903 569.428H647.924C648.944 569.428 649.678 569.232 650.126 568.844C650.581 568.451 650.808 567.945 650.808 567.328C650.808 566.871 650.694 566.456 650.467 566.088C650.24 565.713 649.916 565.421 649.498 565.209C649.079 564.992 648.579 564.884 648 564.884H644.903V569.428ZM644.903 562.862H647.682C648.166 562.862 648.602 562.772 648.99 562.596C649.38 562.414 649.684 562.16 649.907 561.832C650.133 561.499 650.248 561.105 650.248 560.65C650.248 560.049 650.035 559.554 649.612 559.166C649.194 558.777 648.569 558.583 647.742 558.583H644.903V562.862Z" fill="white"/>
<path d="M84.8208 463.283V617.418" stroke="#674A81" stroke-opacity="0.23" stroke-dasharray="3 3"/>
</svg>
