<svg width="750" height="917" viewBox="0 0 750 917" fill="none" xmlns="http://www.w3.org/2000/svg">
<path fill-rule="evenodd" clip-rule="evenodd" d="M1.93799 568.521V377.182H27.4405L59.3188 351.668V321.906L25.3153 294.268H11.5015V226.235L26.3779 202.849H110.324V170.96L129.451 159.267L154.954 194.346H160.267L169.83 189.031H171.955L177.268 194.346H228.273L242.087 203.913H251.651L264.403 196.473H315.407V177.338L336.659 162.456V159.267L350.473 155.015L358.975 147.574V134.818L366.413 118.873H391.915V95.4872L372.789 69.9752V34.8964H488.612V77.4161L474.798 94.424V119.936H509.864L518.366 127.377H526.866L535.368 119.936L543.868 118.873L554.494 113.558L562.996 124.188L610.812 143.322L631.002 145.448L649.066 139.07V226.235H644.816V231.551H748.952V372.928L699.01 392.063V402.191H748.952V599.348H728.762V606.197H729.826V611.04H730.888V668.441H728.762V731.159H490.738V703.521H487.55V741.19H556.62V771.552H516.24V780.057H510.928V882.104H418.481V780.057H413.167V771.552H392.979L320.721 781.119V740.725L448.235 741.19V703.521H443.983V731.159H320.721V663.127H275.029V612.102H222.961V576.582H153.891V590.843H108.199V568.521H1.93799ZM516.24 226.235V288.952H520.49V231.551H616.126V226.235H516.24ZM443.983 310.212V372.928H472.674V310.212H443.983ZM565.12 599.348V605.724H515.178V515.369H432.628V491.326H411.645V420.763H434.421V423.953H515.178V334.66H579.998V380.369H603.374V400.566H612.938V414.385H603.374V426.079H521.554V599.348H565.12ZM123.075 498.361V430.331H251.651V454.78H346.223V532.378H374.913V560.016H436.545V625.921H414.231V630.173H349.411V543.007H319.659V498.361H123.075ZM252.713 591.905V572.772H320.721V643.992H316.471V584.464H264.403L256.963 591.905H252.713ZM610.812 599.348V605.724H685.196V599.348H610.812ZM554.494 523.875V569.583L619.622 570.013V523.875H554.494ZM210.209 394.188V329.346H297.343V394.188H210.209ZM106.074 262.378V330.409H127.908V310.212H275.029V307.022H266.527V262.378H199.583H171.955H106.074ZM290.967 285.763V262.378H398.291V330.409H377.039L391.915 293.203V273.008H319.659L290.967 285.763Z" fill="#26003A"/>
<path d="M1.93774 377.182V376.212H0.96875V377.182H1.93774ZM1.93774 568.521H0.96875V569.49H1.93774V568.521ZM27.4403 377.182V378.151H27.7802L28.0457 377.938L27.4403 377.182ZM59.3186 351.668L59.924 352.426L60.2876 352.136V351.668H59.3186ZM59.3186 321.906H60.2876V321.444L59.9296 321.154L59.3186 321.906ZM25.3151 294.268L25.9261 293.516L25.6593 293.298H25.3151V294.268ZM11.5012 294.268H10.5322V295.237H11.5012V294.268ZM11.5012 226.235L10.6837 225.716L10.5322 225.954V226.235H11.5012ZM26.3777 202.849V201.88H25.8459L25.5602 202.329L26.3777 202.849ZM110.324 202.849V203.818H111.293V202.849H110.324ZM110.324 170.96L109.819 170.133L109.355 170.416V170.96H110.324ZM129.451 159.267L130.234 158.697L129.708 157.973L128.946 158.44L129.451 159.267ZM154.953 194.346L154.17 194.916L154.46 195.315H154.953V194.346ZM160.266 194.346V195.315H160.518L160.737 195.193L160.266 194.346ZM169.83 189.031V188.061H169.579L169.359 188.183L169.83 189.031ZM171.955 189.031L172.64 188.345L172.357 188.061H171.955V189.031ZM177.268 194.346L176.583 195.03L176.867 195.315H177.268V194.346ZM228.273 194.346L228.825 193.549L228.575 193.376H228.273V194.346ZM242.087 203.913L241.537 204.71L241.785 204.883H242.087V203.913ZM251.651 203.913V204.883H251.913L252.139 204.751L251.651 203.913ZM264.403 196.473V195.503H264.139L263.914 195.635L264.403 196.473ZM315.407 196.473V197.442H316.376V196.473H315.407ZM315.407 177.338L314.852 176.544L314.438 176.833V177.338H315.407ZM336.659 162.456L337.215 163.25L337.628 162.961V162.456H336.659ZM336.659 159.267L336.374 158.34L335.69 158.551V159.267H336.659ZM350.473 155.015L350.758 155.941L350.955 155.88L351.112 155.744L350.473 155.015ZM358.975 147.574L359.612 148.303L359.944 148.014V147.574H358.975ZM358.975 134.818L358.097 134.408L358.006 134.603V134.818H358.975ZM366.413 118.873V117.904H365.796L365.535 118.463L366.413 118.873ZM391.914 118.873V119.842H392.883V118.873H391.914ZM391.914 95.4872H392.883V95.164L392.69 94.9056L391.914 95.4872ZM372.789 69.9752H371.82V70.2984L372.013 70.5568L372.789 69.9752ZM372.789 34.8963V33.927H371.82V34.8963H372.789ZM488.612 34.8963H489.581V33.927H488.612V34.8963ZM488.612 77.4161L489.364 78.0273L489.581 77.7604V77.4161H488.612ZM474.798 94.424L474.046 93.8127L473.829 94.0799V94.424H474.798ZM474.798 119.936H473.829V120.905H474.798V119.936ZM509.864 119.936L510.504 119.206L510.228 118.967H509.864V119.936ZM518.366 127.377L517.728 128.106L518.002 128.346H518.366V127.377ZM526.866 127.377V128.346H527.23L527.506 128.106L526.866 127.377ZM535.368 119.936L535.248 118.974L534.953 119.011L534.728 119.206L535.368 119.936ZM543.868 118.873L543.988 119.835L544.153 119.814L544.302 119.74L543.868 118.873ZM554.494 113.558L555.252 112.952L554.761 112.341L554.062 112.691L554.494 113.558ZM562.996 124.188L562.238 124.794L562.399 124.993L562.635 125.088L562.996 124.188ZM610.812 143.322L610.453 144.222L610.577 144.272L610.711 144.286L610.812 143.322ZM631.002 145.448L630.901 146.412L631.118 146.435L631.325 146.362L631.002 145.448ZM649.066 139.07H650.035V137.7L648.744 138.156L649.066 139.07ZM649.066 226.235V227.205H650.035V226.235H649.066ZM644.816 226.235V225.266H643.847V226.235H644.816ZM644.816 231.551H643.847V232.521H644.816V231.551ZM748.951 231.551H749.92V230.582H748.951V231.551ZM748.951 372.928L749.298 373.834L749.92 373.595V372.928H748.951ZM699.009 392.063L698.663 391.158L698.04 391.396V392.063H699.009ZM699.009 402.191H698.04V403.16H699.009V402.191ZM748.951 402.191H749.92V401.221H748.951V402.191ZM748.951 599.348V600.317H749.92V599.348H748.951ZM728.761 599.348V598.378H727.792V599.348H728.761ZM728.761 606.197H727.792V607.166H728.761V606.197ZM729.825 606.197H730.794V605.228H729.825V606.197ZM729.825 611.04H728.856V612.009H729.825V611.04ZM730.887 611.04H731.856V610.071H730.887V611.04ZM730.887 668.441V669.41H731.856V668.441H730.887ZM728.761 668.441V667.471H727.792V668.441H728.761ZM728.761 731.159V732.128H729.73V731.159H728.761ZM490.738 731.159H489.769V732.128H490.738V731.159ZM490.738 703.521H491.707V702.552H490.738V703.521ZM487.55 703.521V702.552H486.581V703.521H487.55ZM487.55 741.19H486.581V742.159H487.55V741.19ZM556.62 741.19H557.589V740.221H556.62V741.19ZM556.62 771.552V772.521H557.589V771.552H556.62ZM516.24 771.552V770.582H515.271V771.552H516.24ZM516.24 780.057V781.026H517.209V780.057H516.24ZM510.928 780.057V779.087H509.959V780.057H510.928ZM510.928 882.104V883.073H511.897V882.104H510.928ZM418.48 882.104H417.511V883.073H418.48V882.104ZM418.48 780.057H419.449V779.087H418.48V780.057ZM413.166 780.057H412.197V781.026H413.166V780.057ZM413.166 771.552H414.135V770.582H413.166V771.552ZM392.978 771.552V770.582H392.915L392.851 770.59L392.978 771.552ZM320.721 781.119H319.752V782.224L320.847 782.081L320.721 781.119ZM320.721 740.725L320.725 739.755L319.752 739.751V740.725H320.721ZM448.234 741.19L448.23 742.159L449.203 742.161V741.19H448.234ZM448.234 703.521H449.203V702.552H448.234V703.521ZM443.982 703.521V702.552H443.013V703.521H443.982ZM443.982 731.159V732.128H444.951V731.159H443.982ZM320.721 731.159H319.752V732.128H320.721V731.159ZM320.721 663.127H321.69V662.157H320.721V663.127ZM275.029 663.127H274.06V664.096H275.029V663.127ZM275.029 612.102H275.998V611.133H275.029V612.102ZM222.961 612.102H221.992V613.072H222.961V612.102ZM222.961 576.582H223.93V575.612H222.961V576.582ZM153.891 576.582V575.612H152.922V576.582H153.891ZM153.891 590.843V591.812H154.86V590.843H153.891ZM108.199 590.843H107.23V591.812H108.199V590.843ZM108.199 568.521H109.168V567.551H108.199V568.521ZM516.24 288.952H515.271V289.921H516.24V288.952ZM516.24 226.235V225.266H515.271V226.235H516.24ZM520.49 288.952V289.921H521.459V288.952H520.49ZM520.49 231.551V230.582H519.521V231.551H520.49ZM616.126 231.551V232.521H617.095V231.551H616.126ZM616.126 226.235H617.095V225.266H616.126V226.235ZM443.982 372.928H443.013V373.897H443.982V372.928ZM443.982 310.212V309.242H443.013V310.212H443.982ZM472.674 372.928V373.897H473.643V372.928H472.674ZM472.674 310.212H473.643V309.242H472.674V310.212ZM565.12 605.724V606.693H566.089V605.724H565.12ZM565.12 599.348H566.089V598.378H565.12V599.348ZM515.178 605.724H514.209V606.693H515.178V605.724ZM515.178 515.369H516.147V514.4H515.178V515.369ZM432.628 515.369H431.659V516.339H432.628V515.369ZM432.628 491.326H433.597V490.356H432.628V491.326ZM411.645 491.326H410.676V492.295H411.645V491.326ZM411.645 420.763V419.794H410.676V420.763H411.645ZM434.42 420.763H435.389V419.794H434.42V420.763ZM434.42 423.952H433.451V424.922H434.42V423.952ZM515.178 423.952V424.922H516.147V423.952H515.178ZM515.178 334.66V333.691H514.209V334.66H515.178ZM579.998 334.66H580.967V333.691H579.998V334.66ZM579.998 380.369H579.029V381.338H579.998V380.369ZM603.374 380.369H604.343V379.399H603.374V380.369ZM603.374 400.566H602.405V401.535H603.374V400.566ZM612.938 400.566H613.907V399.597H612.938V400.566ZM612.938 414.385V415.354H613.907V414.385H612.938ZM603.374 414.385V413.416H602.405V414.385H603.374ZM603.374 426.079V427.049H604.343V426.079H603.374ZM521.554 426.079V425.11H520.585V426.079H521.554ZM521.554 599.348H520.585V600.317H521.554V599.348ZM123.075 430.331V429.361H122.106V430.331H123.075ZM123.075 498.361H122.106V499.331H123.075V498.361ZM251.651 430.331H252.62V429.361H251.651V430.331ZM251.651 454.78H250.682V455.749H251.651V454.78ZM346.223 454.78H347.192V453.81H346.223V454.78ZM346.223 532.378H345.254V533.347H346.223V532.378ZM374.913 532.378H375.882V531.408H374.913V532.378ZM374.913 560.016H373.944V560.985H374.913V560.016ZM436.544 560.016H437.513V559.046H436.544V560.016ZM436.544 625.921V626.891H437.513V625.921H436.544ZM414.23 625.921V624.952H413.261V625.921H414.23ZM414.23 630.173V631.142H415.199V630.173H414.23ZM349.411 630.173H348.442V631.142H349.411V630.173ZM349.411 543.007H350.38V542.038H349.411V543.007ZM319.659 543.007H318.69V543.977H319.659V543.007ZM319.659 498.361H320.628V497.392H319.659V498.361ZM252.713 572.772V571.803H251.744V572.772H252.713ZM252.713 591.905H251.744V592.874H252.713V591.905ZM320.721 572.772H321.69V571.803H320.721V572.772ZM320.721 643.992V644.961H321.69V643.992H320.721ZM316.471 643.992H315.502V644.961H316.471V643.992ZM316.471 584.464H317.44V583.495H316.471V584.464ZM264.403 584.464V583.495H264.002L263.717 583.78L264.403 584.464ZM256.963 591.905V592.874H257.366L257.649 592.591L256.963 591.905ZM610.812 605.724H609.843V606.693H610.812V605.724ZM610.812 599.348V598.378H609.843V599.348H610.812ZM685.196 605.724V606.693H686.165V605.724H685.196ZM685.196 599.348H686.165V598.378H685.196V599.348ZM554.494 569.583H553.525V570.547L554.488 570.552L554.494 569.583ZM554.494 523.874V522.905H553.525V523.874H554.494ZM619.622 570.013L619.616 570.983L620.591 570.989V570.013H619.622ZM619.622 523.874H620.591V522.905H619.622V523.874ZM210.209 329.346V328.377H209.24V329.346H210.209ZM210.209 394.188H209.24V395.157H210.209V394.188ZM297.343 329.346H298.312V328.377H297.343V329.346ZM297.343 394.188V395.157H298.312V394.188H297.343ZM106.073 330.409H105.104V331.378H106.073V330.409ZM106.073 262.378V261.409H105.104V262.378H106.073ZM127.908 330.409V331.378H128.877V330.409H127.908ZM127.908 310.212V309.242H126.939V310.212H127.908ZM275.029 310.212V311.181H275.998V310.212H275.029ZM275.029 307.022H275.998V306.053H275.029V307.022ZM266.527 307.022H265.558V307.992H266.527V307.022ZM266.527 262.378H267.496V261.409H266.527V262.378ZM290.967 262.378V261.409H289.998V262.378H290.967ZM290.967 285.763H289.998V287.256L291.36 286.649L290.967 285.763ZM398.29 262.378H399.259V261.409H398.29V262.378ZM398.29 330.409V331.378H399.259V330.409H398.29ZM377.039 330.409L376.139 330.048L375.608 331.378H377.039V330.409ZM391.914 293.203L392.816 293.564L392.883 293.391V293.203H391.914ZM391.914 273.008H392.883V272.039H391.914V273.008ZM319.659 273.008V272.039H319.451L319.263 272.122L319.659 273.008ZM1.93774 377.182H0.96875V568.521H1.93774H2.90673V377.182H1.93774ZM27.4403 377.182V376.212H1.93774V377.182V378.151H27.4403V377.182ZM59.3186 351.668L58.7133 350.912L26.835 376.424L27.4403 377.182L28.0457 377.938L59.924 352.426L59.3186 351.668ZM59.3186 321.906H58.3496V351.668H59.3186H60.2876V321.906H59.3186ZM25.3151 294.268L24.704 295.02L58.7075 322.658L59.3186 321.906L59.9296 321.154L25.9261 293.516L25.3151 294.268ZM11.5012 294.268V295.237H25.3151V294.268V293.298H11.5012V294.268ZM11.5012 226.235H10.5322V294.268H11.5012H12.4702V226.235H11.5012ZM26.3777 202.849L25.5602 202.329L10.6837 225.716L11.5012 226.235L12.3187 226.757L27.1953 203.37L26.3777 202.849ZM110.324 202.849V201.88H26.3777V202.849V203.818H110.324V202.849ZM110.324 170.96H109.355V202.849H110.324H111.293V170.96H110.324ZM129.451 159.267L128.946 158.44L109.819 170.133L110.324 170.96L110.829 171.787L129.956 160.094L129.451 159.267ZM154.953 194.346L155.737 193.775L130.234 158.697L129.451 159.267L128.667 159.837L154.17 194.916L154.953 194.346ZM160.266 194.346V193.376H154.953V194.346V195.315H160.266V194.346ZM169.83 189.031L169.359 188.183L159.796 193.498L160.266 194.346L160.737 195.193L170.301 189.878L169.83 189.031ZM171.955 189.031V188.061H169.83V189.031V190H171.955V189.031ZM177.268 194.346L177.953 193.66L172.64 188.345L171.955 189.031L171.27 189.716L176.583 195.03L177.268 194.346ZM228.273 194.346V193.376H177.268V194.346V195.315H228.273V194.346ZM242.087 203.913L242.639 203.116L228.825 193.549L228.273 194.346L227.723 195.143L241.537 204.71L242.087 203.913ZM251.651 203.913V202.944H242.087V203.913V204.883H251.651V203.913ZM264.403 196.473L263.914 195.635L251.163 203.076L251.651 203.913L252.139 204.751L264.891 197.308L264.403 196.473ZM315.407 196.473V195.503H264.403V196.473V197.442H315.407V196.473ZM315.407 177.338H314.438V196.473H315.407H316.376V177.338H315.407ZM336.659 162.456L336.104 161.662L314.852 176.544L315.407 177.338L315.963 178.132L337.215 163.25L336.659 162.456ZM336.659 159.267H335.69V162.456H336.659H337.628V159.267H336.659ZM350.473 155.015L350.188 154.088L336.374 158.34L336.659 159.267L336.944 160.193L350.758 155.941L350.473 155.015ZM358.975 147.574L358.337 146.844L349.835 154.285L350.473 155.015L351.112 155.744L359.612 148.303L358.975 147.574ZM358.975 134.818H358.006V147.574H358.975H359.944V134.818H358.975ZM366.413 118.873L365.535 118.463L358.097 134.408L358.975 134.818L359.852 135.228L367.29 119.283L366.413 118.873ZM391.914 118.873V117.904H366.413V118.873V119.842H391.914V118.873ZM391.914 95.4872H390.946V118.873H391.914H392.883V95.4872H391.914ZM372.789 69.9752L372.013 70.5568L391.139 96.0688L391.914 95.4872L392.69 94.9056L373.564 69.3936L372.789 69.9752ZM372.789 34.8963H371.82V69.9752H372.789H373.758V34.8963H372.789ZM488.612 34.8963V33.927H372.789V34.8963V35.8657H488.612V34.8963ZM488.612 77.4161H489.581V34.8963H488.612H487.643V77.4161H488.612ZM474.798 94.424L475.55 95.0353L489.364 78.0273L488.612 77.4161L487.86 76.805L474.046 93.8127L474.798 94.424ZM474.798 119.936H475.767V94.424H474.798H473.829V119.936H474.798ZM509.864 119.936V118.967H474.798V119.936V120.905H509.864V119.936ZM518.366 127.377L519.004 126.647L510.504 119.206L509.864 119.936L509.226 120.666L517.728 128.106L518.366 127.377ZM526.866 127.377V126.408H518.366V127.377V128.346H526.866V127.377ZM535.368 119.936L534.728 119.206L526.228 126.647L526.866 127.377L527.506 128.106L536.006 120.666L535.368 119.936ZM543.868 118.873L543.748 117.911L535.248 118.974L535.368 119.936L535.488 120.898L543.988 119.835L543.868 118.873ZM554.494 113.558L554.062 112.691L543.436 118.006L543.868 118.873L544.302 119.74L554.928 114.425L554.494 113.558ZM562.996 124.188L563.752 123.582L555.252 112.952L554.494 113.558L553.738 114.164L562.238 124.794L562.996 124.188ZM610.812 143.322L611.172 142.422L563.354 123.288L562.996 124.188L562.635 125.088L610.453 144.222L610.812 143.322ZM631.002 145.448L631.104 144.484L610.915 142.358L610.812 143.322L610.711 144.286L630.901 146.412L631.002 145.448ZM649.066 139.07L648.744 138.156L630.68 144.534L631.002 145.448L631.325 146.362L649.389 139.984L649.066 139.07ZM649.066 226.235H650.035V139.07H649.066H648.097V226.235H649.066ZM644.816 226.235V227.205H649.066V226.235V225.266H644.816V226.235ZM644.816 231.551H645.785V226.235H644.816H643.847V231.551H644.816ZM748.951 231.551V230.582H644.816V231.551V232.521H748.951V231.551ZM748.951 372.928H749.92V231.551H748.951H747.982V372.928H748.951ZM699.009 392.063L699.356 392.968L749.298 373.834L748.951 372.928L748.604 372.023L698.663 391.158L699.009 392.063ZM699.009 402.191H699.978V392.063H699.009H698.04V402.191H699.009ZM748.951 402.191V401.221H699.009V402.191V403.16H748.951V402.191ZM748.951 599.348H749.92V402.191H748.951H747.982V599.348H748.951ZM728.761 599.348V600.317H748.951V599.348V598.378H728.761V599.348ZM728.761 606.197H729.73V599.348H728.761H727.792V606.197H728.761ZM729.825 606.197V605.228H728.761V606.197V607.166H729.825V606.197ZM729.825 611.04H730.794V606.197H729.825H728.856V611.04H729.825ZM730.887 611.04V610.071H729.825V611.04V612.009H730.887V611.04ZM730.887 668.441H731.856V611.04H730.887H729.918V668.441H730.887ZM728.761 668.441V669.41H730.887V668.441V667.471H728.761V668.441ZM728.761 731.159H729.73V668.441H728.761H727.792V731.159H728.761ZM490.738 731.159V732.128H728.761V731.159V730.19H490.738V731.159ZM490.738 703.521H489.769V731.159H490.738H491.707V703.521H490.738ZM487.55 703.521V704.491H490.738V703.521V702.552H487.55V703.521ZM487.55 741.19H488.519V703.521H487.55H486.581V741.19H487.55ZM556.62 741.19V740.221H487.55V741.19V742.159H556.62V741.19ZM556.62 771.552H557.589V741.19H556.62H555.651V771.552H556.62ZM516.24 771.552V772.521H556.62V771.552V770.582H516.24V771.552ZM516.24 780.057H517.209V771.552H516.24H515.271V780.057H516.24ZM510.928 780.057V781.026H516.24V780.057V779.087H510.928V780.057ZM510.928 882.104H511.897V780.057H510.928H509.959V882.104H510.928ZM418.48 882.104V883.073H510.928V882.104V881.134H418.48V882.104ZM418.48 780.057H417.511V882.104H418.48H419.449V780.057H418.48ZM413.166 780.057V781.026H418.48V780.057V779.087H413.166V780.057ZM413.166 771.552H412.197V780.057H413.166H414.135V771.552H413.166ZM392.978 771.552V772.521H413.166V771.552V770.582H392.978V771.552ZM320.721 781.119L320.847 782.081L393.104 772.513L392.978 771.552L392.851 770.59L320.593 780.158L320.721 781.119ZM320.721 740.725H319.752V781.119H320.721H321.69V740.725H320.721ZM448.234 741.19L448.236 740.221L320.725 739.755L320.721 740.725L320.717 741.694L448.23 742.159L448.234 741.19ZM448.234 703.521H447.265V741.19H448.234H449.203V703.521H448.234ZM443.982 703.521V704.491H448.234V703.521V702.552H443.982V703.521ZM443.982 731.159H444.951V703.521H443.982H443.013V731.159H443.982ZM320.721 731.159V732.128H443.982V731.159V730.19H320.721V731.159ZM320.721 663.127H319.752V731.159H320.721H321.69V663.127H320.721ZM275.029 663.127V664.096H320.721V663.127V662.157H275.029V663.127ZM275.029 612.102H274.06V663.127H275.029H275.998V612.102H275.029ZM222.961 612.102V613.072H275.029V612.102V611.133H222.961V612.102ZM222.961 576.582H221.992V612.102H222.961H223.93V576.582H222.961ZM153.891 576.582V577.551H222.961V576.582V575.612H153.891V576.582ZM153.891 590.843H154.86V576.582H153.891H152.922V590.843H153.891ZM108.199 590.843V591.812H153.891V590.843V589.873H108.199V590.843ZM108.199 568.521H107.23V590.843H108.199H109.168V568.521H108.199ZM1.93774 568.521V569.49H108.199V568.521V567.551H1.93774V568.521ZM516.24 288.952H517.209V226.235H516.24H515.271V288.952H516.24ZM520.49 288.952V287.983H516.24V288.952V289.921H520.49V288.952ZM520.49 231.551H519.521V288.952H520.49H521.459V231.551H520.49ZM616.126 231.551V230.582H520.49V231.551V232.521H616.126V231.551ZM616.126 226.235H615.157V231.551H616.126H617.095V226.235H616.126ZM516.24 226.235V227.205H616.126V226.235V225.266H516.24V226.235ZM443.982 372.928H444.951V310.212H443.982H443.013V372.928H443.982ZM472.674 372.928V371.959H443.982V372.928V373.897H472.674V372.928ZM472.674 310.212H471.705V372.928H472.674H473.643V310.212H472.674ZM443.982 310.212V311.181H472.674V310.212V309.242H443.982V310.212ZM565.12 605.724H566.089V599.348H565.12H564.151V605.724H565.12ZM515.178 605.724V606.693H565.12V605.724V604.755H515.178V605.724ZM515.178 515.369H514.209V605.724H515.178H516.147V515.369H515.178ZM432.628 515.369V516.339H515.178V515.369V514.4H432.628V515.369ZM432.628 491.326H431.659V515.369H432.628H433.597V491.326H432.628ZM411.645 491.326V492.295H432.628V491.326V490.356H411.645V491.326ZM411.645 420.763H410.676V491.326H411.645H412.614V420.763H411.645ZM434.42 420.763V419.794H411.645V420.763V421.733H434.42V420.763ZM434.42 423.952H435.389V420.763H434.42H433.451V423.952H434.42ZM515.178 423.952V422.983H434.42V423.952V424.922H515.178V423.952ZM515.178 334.66H514.209V423.952H515.178H516.147V334.66H515.178ZM579.998 334.66V333.691H515.178V334.66V335.63H579.998V334.66ZM579.998 380.369H580.967V334.66H579.998H579.029V380.369H579.998ZM603.374 380.369V379.399H579.998V380.369V381.338H603.374V380.369ZM603.374 400.566H604.343V380.369H603.374H602.405V400.566H603.374ZM612.938 400.566V399.597H603.374V400.566V401.535H612.938V400.566ZM612.938 414.385H613.907V400.566H612.938H611.969V414.385H612.938ZM603.374 414.385V415.354H612.938V414.385V413.416H603.374V414.385ZM603.374 426.079H604.343V414.385H603.374H602.405V426.079H603.374ZM521.554 426.079V427.049H603.374V426.079V425.11H521.554V426.079ZM521.554 599.348H522.523V426.079H521.554H520.585V599.348H521.554ZM565.12 599.348V598.378H521.554V599.348V600.317H565.12V599.348ZM123.075 430.331H122.106V498.361H123.075H124.044V430.331H123.075ZM251.651 430.331V429.361H123.075V430.331V431.3H251.651V430.331ZM251.651 454.78H252.62V430.331H251.651H250.682V454.78H251.651ZM346.223 454.78V453.81H251.651V454.78V455.749H346.223V454.78ZM346.223 532.378H347.192V454.78H346.223H345.254V532.378H346.223ZM374.913 532.378V531.408H346.223V532.378V533.347H374.913V532.378ZM374.913 560.016H375.882V532.378H374.913H373.944V560.016H374.913ZM436.544 560.016V559.046H374.913V560.016V560.985H436.544V560.016ZM436.544 625.921H437.513V560.016H436.544H435.575V625.921H436.544ZM414.23 625.921V626.891H436.544V625.921V624.952H414.23V625.921ZM414.23 630.173H415.199V625.921H414.23H413.261V630.173H414.23ZM349.411 630.173V631.142H414.23V630.173V629.203H349.411V630.173ZM349.411 543.007H348.442V630.173H349.411H350.38V543.007H349.411ZM319.659 543.007V543.977H349.411V543.007V542.038H319.659V543.007ZM319.659 498.361H318.69V543.007H319.659H320.628V498.361H319.659ZM123.075 498.361V499.331H319.659V498.361V497.392H123.075V498.361ZM252.713 572.772H251.744V591.905H252.713H253.682V572.772H252.713ZM320.721 572.772V571.803H252.713V572.772V573.741H320.721V572.772ZM320.721 643.992H321.69V572.772H320.721H319.752V643.992H320.721ZM316.471 643.992V644.961H320.721V643.992V643.022H316.471V643.992ZM316.471 584.464H315.502V643.992H316.471H317.44V584.464H316.471ZM264.403 584.464V585.434H316.471V584.464V583.495H264.403V584.464ZM256.963 591.905L257.649 592.591L265.087 585.151L264.403 584.464L263.717 583.78L256.279 591.221L256.963 591.905ZM252.713 591.905V592.874H256.963V591.905V590.936H252.713V591.905ZM610.812 605.724H611.781V599.348H610.812H609.843V605.724H610.812ZM685.196 605.724V604.755H610.812V605.724V606.693H685.196V605.724ZM685.196 599.348H684.227V605.724H685.196H686.165V599.348H685.196ZM610.812 599.348V600.317H685.196V599.348V598.378H610.812V599.348ZM554.494 569.583H555.463V523.874H554.494H553.525V569.583H554.494ZM619.622 570.013L619.628 569.044L554.5 568.614L554.494 569.583L554.488 570.552L619.616 570.983L619.622 570.013ZM619.622 523.874H618.653V570.013H619.622H620.591V523.874H619.622ZM554.494 523.874V524.844H619.622V523.874V522.905H554.494V523.874ZM210.209 329.346H209.24V394.188H210.209H211.178V329.346H210.209ZM297.343 329.346V328.377H210.209V329.346V330.316H297.343V329.346ZM297.343 394.188H298.312V329.346H297.343H296.374V394.188H297.343ZM210.209 394.188V395.157H297.343V394.188V393.218H210.209V394.188ZM106.073 330.409H107.042V262.378H106.073H105.104V330.409H106.073ZM127.908 330.409V329.439H106.073V330.409V331.378H127.908V330.409ZM127.908 310.212H126.939V330.409H127.908H128.877V310.212H127.908ZM275.029 310.212V309.242H127.908V310.212V311.181H275.029V310.212ZM275.029 307.022H274.06V310.212H275.029H275.998V307.022H275.029ZM266.527 307.022V307.992H275.029V307.022V306.053H266.527V307.022ZM266.527 262.378H265.558V307.022H266.527H267.496V262.378H266.527ZM199.583 262.378V263.348H266.527V262.378V261.409H199.583V262.378ZM171.955 262.378V263.348H199.583V262.378V261.409H171.955V262.378ZM106.073 262.378V263.348H171.955V262.378V261.409H106.073V262.378ZM290.967 262.378H289.998V285.763H290.967H291.936V262.378H290.967ZM398.29 262.378V261.409H290.967V262.378V263.348H398.29V262.378ZM398.29 330.409H399.259V262.378H398.29H397.321V330.409H398.29ZM377.039 330.409V331.378H398.29V330.409V329.439H377.039V330.409ZM391.914 293.203L391.015 292.845L376.139 330.048L377.039 330.409L377.938 330.769L392.816 293.564L391.914 293.203ZM391.914 273.008H390.946V293.203H391.914H392.883V273.008H391.914ZM319.659 273.008V273.977H391.914V273.008V272.039H319.659V273.008ZM290.967 285.763L291.36 286.649L320.052 273.892L319.659 273.008L319.263 272.122L290.573 284.877L290.967 285.763Z" fill="#674A81"/>
<path d="M313.283 197.535V220.921H315.407M315.407 236.865H313.283V262.378" stroke="#674A81" stroke-opacity="0.23" stroke-width="0.5"/>
<path d="M266.527 200.724H290.967M290.967 200.724V196.473M290.967 200.724C290.967 201.573 290.967 206.038 290.967 208.165M290.967 219.857V237.928M290.967 249.622V258.125M290.967 258.125V262.378M290.967 258.125H266.527" stroke="#674A81" stroke-opacity="0.23"/>
<path d="M607.624 298.519V275.133M684.132 298.519V275.133M520.49 251.747H748.951M636.316 200.724C636.316 199.022 636.316 190.094 636.316 185.842H643.754M643.754 185.842H649.066M643.754 185.842V180.527H649.066M299.469 281.511L302.657 287.889L333.471 273.008M384.476 273.008V310.212" stroke="#674A81" stroke-width="0.5"/>
<path d="M687.322 503.677V474.977M687.322 474.977H610.814M687.322 474.977V453.717H674.57M658.63 453.717H610.814M490.739 708.835C492.438 708.835 504.198 708.835 509.865 708.835M509.865 708.835V700.332H523.678V701.394M509.865 708.835V715.213M523.678 701.394V715.213M523.678 701.394H540.68V704.584M509.865 715.213H523.678M509.865 715.213V731.159M523.678 715.213H524.742M524.742 715.213H540.68M524.742 715.213V731.159M540.68 715.213V704.584M540.68 715.213H549.182M540.68 704.584H549.182M549.182 715.213V704.584M549.182 715.213V731.159M549.182 704.584H553.432V731.159M447.171 653.559V703.521M488.613 653.559V696.079M488.613 696.079V703.521M488.613 696.079H492.865C494.741 701.703 496.584 702.891 500.303 703.521V707.773M443.983 704.584C443.677 704.584 438.118 704.584 430.169 704.584M430.169 704.584C422.646 704.584 412.981 704.584 403.605 704.584M430.169 704.584V719.465M381.289 731.159V704.584C382.458 704.584 383.694 704.584 384.987 704.584M384.987 704.584V717.871M384.987 704.584C390.471 704.584 396.965 704.584 403.605 704.584M384.987 717.871V731.159M384.987 717.871H403.605M403.605 704.584V717.871M403.605 717.871V727.97M403.605 727.97V731.159M403.605 727.97H430.169M430.169 727.97V731.159M430.169 727.97V719.465M430.169 719.465H443.983M273.965 612.102H286.717V622.732H275.029M491.801 515.37V580.213H494.989M494.989 580.213V587.654H501.365M494.989 580.213H501.365M515.179 580.213H501.365M501.365 580.213V587.654M501.365 587.654V592.969H507.741M507.741 592.969H508.272H515.179M507.741 592.969V600.41H515.179M488.613 423.953V410.134H501.365M501.365 410.134H514.116M501.365 410.134V423.953M391.915 118.873V131.629M391.915 131.629V170.96M391.915 131.629H375.977M475.863 170.96V119.936M375.977 131.629H365.351V120.999M375.977 131.629V118.873" stroke="#674A81"/>
<path d="M657.568 453.717H676.694M649.066 358.047V334.66M654.38 298.519V308.087H658.63M658.63 308.087H673.506V299.582M658.63 308.087V299.582M673.506 299.582V298.519M673.506 299.582H658.63M658.63 299.582V298.519" stroke="#674A81" stroke-width="0.5"/>
<path d="M116.7 394.188H171.955M92.2598 367.614H135.827M152.828 367.614H158.141M158.141 367.614V375.055H164.517V367.614M158.141 367.614H164.517M171.955 367.614H164.517M128.388 330.409H135.827V328.282H128.388M210.209 329.346H168.768M241.025 430.331V417.574H251.651V430.331M297.343 329.346H309.031V331.471H297.343M348.349 331.471V329.346H322.845V331.471H346.223M348.349 331.471V508.993M348.349 331.471H346.223M346.223 331.471V440.961M372.789 508.993V394.188M374.913 508.993V469.661M374.913 440.961V394.188M374.913 373.993V329.346H377.039M372.789 373.993V365.487M372.789 365.487V328.282M372.789 365.487H365.351V372.928H371.725M423.793 271.944V310.212H443.983M358.975 243.243H314.345M276.091 262.378H266.527M287.779 262.378H292.031M158.141 194.346V231.551H214.459V194.346M542.806 200.724C543.655 200.724 613.293 200.724 648.004 200.724M606.562 275.133H685.196M685.196 298.519H672.444M659.692 298.519H639.504M623.564 298.519H606.562M748.952 312.338H726.638V326.157H748.952M697.946 326.157V358.047H688.384M688.384 358.047V334.66H623.564V358.047M688.384 358.047H623.564M611.876 326.157V358.047H623.564M152.828 330.409H170.893V328.282H152.828V330.409ZM711.76 270.881L710.698 284.7L724.512 285.763L725.574 271.944L711.76 270.881Z" stroke="#674A81"/>
<path d="M640.566 334.66C640.566 335.511 640.566 350.606 640.566 358.047M566.182 334.66V295.33H579.996V334.66M521.554 447.339C522.403 447.339 530.409 447.339 534.304 447.339V446.275M534.304 446.275H541.742M534.304 446.275V438.834M534.304 426.079V438.834M534.304 438.834H541.742M541.742 438.834V446.275M541.742 438.834H548.118M541.742 446.275H548.118V438.834M548.118 438.834V426.079M567.246 426.079V443.087H582.122V426.079M706.448 570.645C704.748 570.645 647.649 570.645 619.314 570.645M631.002 548.323H748.951M619.314 523.875H672.444M672.444 523.875H685.196V511.118M672.444 523.875V511.118H685.196M699.01 400.566V426.079H729.825V503.677H685.196V511.118" stroke="#674A81"/>
<path d="M214.459 498.361V511.118H227.211V498.361M253.775 498.361V520.685M253.775 520.685V543.007H319.657M253.775 520.685H319.657" stroke="#674A81"/>
<path d="M92.2598 394.188H99.6979" stroke="#674A81"/>
<path d="M68.8824 466.472H43.3797V531.315H68.8824V478.166M68.8824 466.472H82.6963V478.166H68.8824M68.8824 466.472V478.166M1.93799 549.386H9.37624V557.891M9.37624 557.891H16.8145V568.521M9.37624 557.891H1.93799M168.768 543.007H123.075V521.748H186.832V543.007H181.519M168.768 543.007V556.826H181.519V543.007M168.768 543.007H181.519" stroke="#674A81"/>
<path d="M181.519 550.448C185.593 550.694 186.515 548.674 186.832 543.007" stroke="#674A81"/>
<path d="M603.374 426.079C604.225 426.079 638.44 426.079 655.442 426.079V380.369H603.374M603.374 392.063H642.692V400.566H612.938M643.754 400.566H645.88V414.385H612.938" stroke="#674A81"/>
<path d="M93.3223 367.614V394.188M170.893 394.188V367.614M134.764 367.614V329.346M153.891 367.614V329.346M220.835 310.212V316.59H227.211V310.212M328.159 329.346V322.968H335.597V329.346M309.031 330.409H322.845M330.285 331.471V346.355H297.343M374.913 372.928V395.252M398.291 330.409H443.983M423.793 294.268C424.643 294.268 439.025 294.268 446.109 294.268M446.109 294.268H453.547V310.212H446.109V294.268ZM315.407 196.473V243.243" stroke="#674A81" stroke-width="0.5"/>
<path d="M266.527 196.473V262.378M110.324 198.597L124.138 168.834M124.138 168.834H130.514L133.701 164.582M124.138 168.834L123.713 167.771M123.713 167.771L122.013 163.519M123.713 167.771L119.887 170.96H118.825M118.825 170.96H117.762L115.637 167.771M118.825 170.96V177.338L115.637 181.59H110.324M14.6893 221.984L17.8771 225.173V233.676L11.5015 237.928M366.413 630.173V636.551H373.851V630.173M619.314 570.645V579.151H627.814V570.645M611.876 453.717V474.977M549.182 605.724H557.682C559.428 609.165 559.614 610.848 557.682 613.167H549.182C546.389 611.007 546.081 609.458 549.182 605.724Z" stroke="#674A81" stroke-width="0.5"/>
<path d="M475.86 131.629H489.674M489.674 131.629V125.251M489.674 131.629H503.488V125.251M489.674 125.251V119.936H497.114V125.251M489.674 125.251H497.114M503.488 125.251H497.114M503.488 125.251V119.936M739.387 599.348V586.591H748.951M622.502 298.519H640.566M566.182 295.33C565.333 295.33 558.037 295.33 554.494 295.33M528.992 125.251L531.116 130.566L539.618 128.44V124.188M539.618 124.188L536.43 119.936M539.618 124.188L543.868 120.999M543.868 120.999L542.806 118.873M543.868 120.999L548.118 128.44L556.62 129.503L560.87 126.314V120.999M576.81 129.503L582.122 135.881H583.184L585.31 138.007H589.56M589.56 138.007V134.818M589.56 138.007V142.259L595.936 146.511L602.312 140.133M616.126 143.322V148.637L620.376 150.763H627.814L628.415 150.162M628.415 150.162L629.94 148.637V145.448M628.415 150.162L633.128 156.078L639.504 159.267L649.066 155.015M640.566 731.159V704.584H645.878V731.159" stroke="#674A81" stroke-width="0.5"/>
<path d="M98.6353 394.188C100.335 394.188 112.095 394.188 117.762 394.188" stroke="#674A81" stroke-width="0.5"/>
<path d="M348.349 440.961H372.789M372.789 468.599H347.285" stroke="#674A81" stroke-opacity="0.23" stroke-width="0.5"/>
<path d="M633.128 231.551H644.816M633.128 231.551V245.37H648.004V231.551M633.128 231.551C632.277 231.551 621.438 231.551 616.126 231.551M107.136 394.188V380.369H157.079V394.188" stroke="#674A81" stroke-opacity="0.23"/>
<path fill-rule="evenodd" clip-rule="evenodd" d="M581.06 232.614H747.89V312.338H726.638V326.157H581.06V232.614ZM747.89 326.157H748.952V312.338H747.89V326.157ZM711.762 270.881L710.698 284.7L724.512 285.763L725.574 271.944L711.762 270.881Z" fill="#4F276A" fill-opacity="0.5"/>
<path d="M700.405 311.34H697.407L702.865 295.83H706.332L711.799 311.34H708.801L704.659 299.012H704.539L700.405 311.34ZM700.502 305.26H708.679V307.517H700.502V305.26Z" fill="white"/>
<path d="M106.074 330.409H184.708V430.329H123.076V443.087H78.4458V319.779H106.074V330.409Z" fill="#4F276A" fill-opacity="0.5"/>
<path d="M94.8516 360.239V344.73H100.787C101.907 344.73 102.838 344.906 103.58 345.259C104.327 345.608 104.885 346.085 105.253 346.69C105.627 347.297 105.813 347.983 105.813 348.751C105.813 349.381 105.692 349.922 105.45 350.372C105.208 350.816 104.882 351.176 104.473 351.453C104.065 351.733 103.608 351.93 103.103 352.052V352.204C103.653 352.235 104.181 352.403 104.685 352.712C105.195 353.014 105.611 353.442 105.934 353.999C106.257 354.553 106.419 355.226 106.419 356.013C106.419 356.816 106.224 357.537 105.836 358.179C105.447 358.815 104.862 359.317 104.08 359.685C103.297 360.055 102.313 360.239 101.127 360.239H94.8516ZM97.6601 357.892H100.681C101.7 357.892 102.434 357.696 102.884 357.308C103.338 356.915 103.565 356.409 103.565 355.794C103.565 355.335 103.451 354.92 103.224 354.551C102.997 354.177 102.674 353.884 102.255 353.673C101.836 353.456 101.337 353.347 100.756 353.347H97.6601V357.892ZM97.6601 351.325H100.438C100.923 351.325 101.359 351.236 101.748 351.06C102.137 350.878 102.442 350.624 102.664 350.296C102.891 349.963 103.005 349.569 103.005 349.113C103.005 348.512 102.793 348.018 102.369 347.63C101.95 347.241 101.327 347.047 100.499 347.047H97.6601V351.325Z" fill="white"/>
<path d="M666.068 453.717V299.582" stroke="#674A81" stroke-opacity="0.23" stroke-dasharray="3 3"/>
</svg>
