<svg width="750" height="718" viewBox="0 0 750 718" fill="none" xmlns="http://www.w3.org/2000/svg">
<path fill-rule="evenodd" clip-rule="evenodd" d="M634.491 285.468V309.718H606.325V225.235L574.247 193.162V170.476H605.543V139.968L456.107 68.7831H408.381V27.3235H291.025V125.106H183.838C183.577 156.395 183.211 218.976 183.838 218.976H224.522V223.67H66.48V356.653H38.3142L0.759766 394.983V613.233H182.273V690.677H352.833C355.405 688.749 357.167 688.139 360.656 687.548L373.957 684.418C377.411 683.48 378.471 682.36 379.433 679.724C382.348 674.343 384.043 670.362 385.739 666.374C386.694 664.13 387.649 661.884 388.822 659.387L398.993 627.313V622.62L406.034 614.016V596.805H601.631V531.879H713.511V483.379H697.863C697.603 459.389 697.863 411.411 697.863 411.411H747.937V312.064C743.363 293.72 736.345 288.694 718.988 285.468H634.491ZM449.848 542.048V498.242V497.459H437.331V488.072H375.521V441.919H358.309V458.347H370.827V503.717H323.885V491.983H307.455V502.152H320.754V613.233H362.221V542.048H449.848ZM309.802 383.25H319.972V455.218H338.75V458.347H258.946V536.572H179.144V520.145L185.402 510.758V499.805C180.8 495.579 179.926 492.765 179.926 484.943C182.273 477.903 183.289 476.464 188.533 472.427V412.976H236.258V424.71C236.258 425.335 285.287 424.971 309.802 424.71V383.25ZM133.765 519.363V469.299H117.335V531.097H136.112V578.031H235.474V567.08H140.024V519.363H133.765ZM668.133 473.209V483.379H567.989V542.048H478.796V497.459H545.299V420.798H610.238V473.209H668.133ZM634.491 384.033V349.613H605.543V355.871L593.024 367.605H528.869V324.58H503.833V337.097H438.894V359H463.148V441.919H414.641V464.605H436.547V445.831H507.744V372.299H557.817V384.033H634.491ZM715.859 358.218V372.299H697.863V358.218H715.859ZM665.004 440.354V417.67H655.616V440.354H665.004ZM145.501 270.606V284.686V285.468H130.636V270.606H145.501ZM109.511 349.613H105.599V397.33H96.2107C94.4621 399.173 94.0223 400.4 93.8635 402.806C94.0208 405.125 94.5968 406.112 96.2107 407.499H105.599V424.71H34.4023V432.532H135.33V397.33H109.511V349.613ZM82.9102 515.451H88.3868V479.468H39.879V515.451H44.5733V503.717H82.9102V515.451ZM91.5163 567.08V578.031H21.1018V567.08H91.5163ZM265.988 163.435H338.75V340.226H384.128V321.452H406.034V359H236.258V396.549H231.563V335.532H173.666V329.274H191.662V311.283C196.027 308.503 197.903 306.615 200.267 302.677L212.003 285.468C213.633 282.696 214.942 281.58 219.044 281.556V272.952L228.433 267.476L247.21 261.218H251.123V218.976C252.249 215.667 254.188 215.247 258.164 215.065C258.688 209.697 260.596 208.164 265.988 207.242V163.435ZM437.331 114.936V182.993H524.174V193.944H514.786V285.468H377.868V259.653H427.159V180.646H382.562V176.734H408.381V114.936H437.331Z" fill="#26003A"/>
<path d="M634.491 309.718V310.477H635.25V309.718H634.491ZM634.491 285.468V284.709H633.732V285.468H634.491ZM606.325 309.718H605.566V310.477H606.325V309.718ZM606.325 225.235H607.084V224.919L606.861 224.698L606.325 225.235ZM574.247 193.162H573.487V193.476L573.711 193.699L574.247 193.162ZM574.247 170.476V169.717H573.487V170.476H574.247ZM605.543 170.476V171.235H606.302V170.476H605.543ZM605.543 139.968H606.302V139.489L605.87 139.283L605.543 139.968ZM456.106 68.783L456.434 68.0978L456.278 68.024H456.106V68.783ZM408.381 68.783H407.622V69.542H408.381V68.783ZM408.381 27.3234H409.14V26.5645H408.381V27.3234ZM291.024 27.3234V26.5645H290.265V27.3234H291.024ZM291.024 125.105V125.864H291.783V125.105H291.024ZM183.838 125.105V124.346H183.085L183.079 125.099L183.838 125.105ZM224.522 218.976H225.281V218.217H224.522V218.976ZM224.522 223.67V224.429H225.281V223.67H224.522ZM66.4798 223.67V222.911H65.7207V223.67H66.4798ZM66.4798 356.653V357.412H67.2389V356.653H66.4798ZM38.314 356.653V355.894H37.995L37.7718 356.122L38.314 356.653ZM0.759598 394.983L0.217324 394.452L0.000488281 394.674V394.983H0.759598ZM0.759598 613.233H0.000488281V613.992H0.759598V613.233ZM182.273 613.233H183.032V612.474H182.273V613.233ZM182.273 690.677H181.514V691.436H182.273V690.677ZM352.833 690.677V691.436H353.085L353.288 691.284L352.833 690.677ZM360.656 687.548L360.783 688.296L360.806 688.292L360.831 688.286L360.656 687.548ZM373.957 684.418L374.13 685.157L374.144 685.154L374.156 685.151L373.957 684.418ZM379.433 679.724L378.765 679.363L378.739 679.412L378.721 679.465L379.433 679.724ZM388.822 659.387L389.51 659.708L389.531 659.663L389.546 659.616L388.822 659.387ZM398.992 627.313L399.717 627.543L399.752 627.432V627.313H398.992ZM398.992 622.62L398.405 622.14L398.233 622.35V622.62H398.992ZM406.034 614.016L406.622 614.496L406.793 614.286V614.016H406.034ZM406.034 596.805V596.046H405.275V596.805H406.034ZM601.631 596.805V597.564H602.39V596.805H601.631ZM601.631 531.879V531.12H600.872V531.879H601.631ZM713.511 531.879V532.638H714.27V531.879H713.511ZM713.511 483.379H714.27V482.62H713.511V483.379ZM697.863 483.379L697.105 483.387L697.113 484.138H697.863V483.379ZM697.863 411.411V410.652H697.108L697.105 411.406L697.863 411.411ZM747.937 411.411V412.17H748.696V411.411H747.937ZM747.937 312.064H748.696V311.972L748.673 311.881L747.937 312.064ZM718.987 285.468L719.127 284.721L719.057 284.709H718.987V285.468ZM449.848 542.047V542.806H450.607V542.047H449.848ZM449.848 497.459H450.607V496.7H449.848V497.459ZM437.331 497.459H436.571V498.218H437.331V497.459ZM437.331 488.071H438.09V487.312H437.331V488.071ZM375.521 488.071H374.762V488.83H375.521V488.071ZM375.521 441.919H376.28V441.16H375.521V441.919ZM358.309 441.919V441.16H357.55V441.919H358.309ZM358.309 458.347H357.55V459.106H358.309V458.347ZM370.827 458.347H371.586V457.588H370.827V458.347ZM370.827 503.717V504.476H371.586V503.717H370.827ZM323.885 503.717H323.126V504.476H323.885V503.717ZM323.885 491.983H324.644V491.224H323.885V491.983ZM307.455 491.983V491.224H306.695V491.983H307.455ZM307.455 502.152H306.695V502.911H307.455V502.152ZM320.754 502.152H321.513V501.393H320.754V502.152ZM320.754 613.233H319.995V613.992H320.754V613.233ZM362.221 613.233V613.992H362.98V613.233H362.221ZM362.221 542.047V541.289H361.462V542.047H362.221ZM319.972 383.25H320.731V382.491H319.972V383.25ZM309.802 383.25V382.491H309.043V383.25H309.802ZM319.972 455.218H319.213V455.977H319.972V455.218ZM338.75 455.218H339.509V454.459H338.75V455.218ZM338.75 458.347V459.106H339.509V458.347H338.75ZM258.946 458.347V457.588H258.187V458.347H258.946ZM258.946 536.572V537.331H259.705V536.572H258.946ZM179.144 536.572H178.385V537.331H179.144V536.572ZM179.144 520.145L178.512 519.724L178.385 519.915V520.145H179.144ZM185.402 510.758L186.033 511.178L186.161 510.987V510.758H185.402ZM185.402 499.805H186.161V499.473L185.915 499.247L185.402 499.805ZM179.926 484.943L179.206 484.703L179.167 484.82V484.943H179.926ZM188.532 472.427L188.996 473.028L189.292 472.801V472.427H188.532ZM188.532 412.976V412.217H187.773V412.976H188.532ZM236.258 412.976H237.017V412.217H236.258V412.976ZM309.802 424.71L309.809 425.469L310.561 425.46V424.71H309.802ZM133.765 469.299H134.524V468.54H133.765V469.299ZM133.765 519.363H133.006V520.122H133.765V519.363ZM117.335 469.299V468.54H116.576V469.299H117.335ZM117.335 531.097H116.576V531.856H117.335V531.097ZM136.112 531.097H136.871V530.338H136.112V531.097ZM136.112 578.031H135.353V578.79H136.112V578.031ZM235.474 578.031V578.79H236.233V578.031H235.474ZM235.474 567.08H236.233V566.321H235.474V567.08ZM140.024 567.08H139.265V567.839H140.024V567.08ZM140.024 519.363H140.783V518.604H140.024V519.363ZM668.133 483.379V484.138H668.892V483.379H668.133ZM668.133 473.209H668.892V472.45H668.133V473.209ZM567.988 483.379V482.62H567.229V483.379H567.988ZM567.988 542.047V542.806H568.748V542.047H567.988ZM478.796 542.047H478.037V542.806H478.796V542.047ZM478.796 497.459V496.7H478.037V497.459H478.796ZM545.299 497.459V498.218H546.058V497.459H545.299ZM545.299 420.798V420.039H544.54V420.798H545.299ZM610.237 420.798H610.997V420.039H610.237V420.798ZM610.237 473.209H609.478V473.968H610.237V473.209ZM634.491 349.613H635.25V348.854H634.491V349.613ZM634.491 384.033V384.792H635.25V384.033H634.491ZM605.543 349.613V348.854H604.784V349.613H605.543ZM605.543 355.871L606.062 356.424L606.302 356.199V355.871H605.543ZM593.024 367.605V368.364H593.324L593.543 368.158L593.024 367.605ZM528.868 367.605H528.109V368.364H528.868V367.605ZM528.868 324.58H529.628V323.821H528.868V324.58ZM503.833 324.58V323.821H503.074V324.58H503.833ZM503.833 337.097V337.856H504.592V337.097H503.833ZM438.894 337.097V336.338H438.135V337.097H438.894ZM438.894 359H438.135V359.759H438.894V359ZM463.148 359H463.907V358.241H463.148V359ZM463.148 441.919V442.678H463.907V441.919H463.148ZM414.641 441.919V441.16H413.882V441.919H414.641ZM414.641 464.605H413.882V465.364H414.641V464.605ZM436.547 464.605V465.364H437.306V464.605H436.547ZM436.547 445.831V445.072H435.788V445.831H436.547ZM507.744 445.831V446.59H508.503V445.831H507.744ZM507.744 372.299V371.54H506.985V372.299H507.744ZM557.816 372.299H558.575V371.54H557.816V372.299ZM557.816 384.033H557.057V384.792H557.816V384.033ZM715.858 372.299V373.058H716.617V372.299H715.858ZM715.858 358.218H716.617V357.459H715.858V358.218ZM697.863 372.299H697.104V373.058H697.863V372.299ZM697.863 358.218V357.459H697.104V358.218H697.863ZM665.004 417.67H665.763V416.911H665.004V417.67ZM665.004 440.354V441.113H665.763V440.354H665.004ZM655.615 417.67V416.911H654.856V417.67H655.615ZM655.615 440.354H654.856V441.113H655.615V440.354ZM145.501 270.606H146.26V269.847H145.501V270.606ZM145.501 285.468V286.227H146.26V285.468H145.501ZM130.635 285.468H129.876V286.227H130.635V285.468ZM130.635 270.606V269.847H129.876V270.606H130.635ZM105.599 349.613V348.854H104.84V349.613H105.599ZM109.511 349.613H110.27V348.854H109.511V349.613ZM105.599 397.33V398.089H106.358V397.33H105.599ZM96.2105 397.33V396.571H95.8844L95.6598 396.808L96.2105 397.33ZM93.8633 402.806L93.1059 402.757L93.1026 402.807L93.1059 402.857L93.8633 402.806ZM96.2105 407.499L95.7153 408.074L95.9289 408.258H96.2105V407.499ZM105.599 407.499H106.358V406.74H105.599V407.499ZM105.599 424.71V425.469H106.358V424.71H105.599ZM34.4021 424.71V423.951H33.643V424.71H34.4021ZM34.4021 432.532H33.643V433.291H34.4021V432.532ZM135.33 432.532V433.291H136.089V432.532H135.33ZM135.33 397.33H136.089V396.571H135.33V397.33ZM109.511 397.33H108.752V398.089H109.511V397.33ZM88.3867 515.451V516.21H89.1458V515.451H88.3867ZM82.91 515.451H82.1509V516.21H82.91V515.451ZM88.3867 479.468H89.1458V478.709H88.3867V479.468ZM39.8788 479.468V478.709H39.1197V479.468H39.8788ZM39.8788 515.451H39.1197V516.21H39.8788V515.451ZM44.5731 515.451V516.21H45.3323V515.451H44.5731ZM44.5731 503.717V502.958H43.814V503.717H44.5731ZM82.91 503.717H83.6691V502.958H82.91V503.717ZM91.5162 578.031V578.79H92.2753V578.031H91.5162ZM91.5162 567.08H92.2753V566.321H91.5162V567.08ZM21.1016 578.031H20.3425V578.79H21.1016V578.031ZM21.1016 567.08V566.321H20.3425V567.08H21.1016ZM338.75 163.435H339.509V162.676H338.75V163.435ZM265.987 163.435V162.676H265.228V163.435H265.987ZM338.75 340.226H337.99V340.985H338.75V340.226ZM384.128 340.226V340.985H384.887V340.226H384.128ZM384.128 321.451V320.692H383.368V321.451H384.128ZM406.034 321.451H406.793V320.692H406.034V321.451ZM406.034 359V359.759H406.793V359H406.034ZM236.258 359V358.241H235.499V359H236.258ZM236.258 396.548V397.307H237.017V396.548H236.258ZM231.563 396.548H230.804V397.307H231.563V396.548ZM231.563 335.532H232.322V334.773H231.563V335.532ZM173.666 335.532H172.907V336.291H173.666V335.532ZM173.666 329.274V328.515H172.907V329.274H173.666ZM191.662 329.274V330.033H192.421V329.274H191.662ZM191.662 311.283L191.253 310.642L190.902 310.865V311.283H191.662ZM200.267 302.677L199.64 302.251L199.628 302.267L199.617 302.287L200.267 302.677ZM212.003 285.468L212.631 285.896L212.645 285.875L212.657 285.852L212.003 285.468ZM219.044 281.556L219.049 282.315L219.803 282.311V281.556H219.044ZM219.044 272.952L218.662 272.297L218.285 272.517V272.952H219.044ZM228.433 267.475L228.193 266.756L228.118 266.78L228.05 266.82L228.433 267.475ZM247.21 261.218V260.459H247.087L246.97 260.497L247.21 261.218ZM251.123 261.218V261.977H251.882V261.218H251.123ZM251.123 218.976L250.404 218.732L250.363 218.85V218.976H251.123ZM258.164 215.065L258.199 215.823L258.855 215.793L258.92 215.139L258.164 215.065ZM265.987 207.242L266.115 207.991L266.747 207.883V207.242H265.987ZM437.331 182.993H436.571V183.752H437.331V182.993ZM437.331 114.936H438.09V114.177H437.331V114.936ZM524.174 182.993H524.933V182.234H524.174V182.993ZM524.174 193.943V194.702H524.933V193.943H524.174ZM514.785 193.943V193.184H514.026V193.943H514.785ZM514.785 285.468V286.227H515.545V285.468H514.785ZM377.868 285.468H377.109V286.227H377.868V285.468ZM377.868 259.653V258.894H377.109V259.653H377.868ZM427.158 259.653V260.412H427.918V259.653H427.158ZM427.158 180.646H427.918V179.887H427.158V180.646ZM382.562 180.646H381.803V181.405H382.562V180.646ZM382.562 176.734V175.975H381.803V176.734H382.562ZM408.381 176.734V177.493H409.14V176.734H408.381ZM408.381 114.936V114.177H407.622V114.936H408.381ZM634.491 309.718H635.25V285.468H634.491H633.732V309.718H634.491ZM606.325 309.718V310.477H634.491V309.718V308.959H606.325V309.718ZM606.325 225.235H605.566V309.718H606.325H607.084V225.235H606.325ZM574.247 193.162L573.711 193.699L605.788 225.771L606.325 225.235L606.861 224.698L574.784 192.624L574.247 193.162ZM574.247 170.476H573.487V193.162H574.247H575.006V170.476H574.247ZM605.543 170.476V169.717H574.247V170.476V171.235H605.543V170.476ZM605.543 139.968H604.784V170.476H605.543H606.302V139.968H605.543ZM456.106 68.783L455.78 69.4682L605.215 140.653L605.543 139.968L605.87 139.283L456.434 68.0978L456.106 68.783ZM408.381 68.783V69.542H456.106V68.783V68.024H408.381V68.783ZM408.381 27.3234H407.622V68.783H408.381H409.14V27.3234H408.381ZM291.024 27.3234V28.0824H408.381V27.3234V26.5645H291.024V27.3234ZM291.024 125.105H291.783V27.3234H291.024H290.265V125.105H291.024ZM183.838 125.105V125.864H291.024V125.105V124.346H183.838V125.105ZM183.838 218.976V218.217C184.254 218.217 184.445 218.53 184.465 218.56C184.514 218.638 184.532 218.7 184.535 218.708C184.543 218.733 184.54 218.735 184.532 218.685C184.52 218.595 184.505 218.442 184.489 218.214C184.458 217.763 184.43 217.089 184.406 216.204C184.357 214.441 184.321 211.88 184.295 208.703C184.247 202.352 184.242 193.553 184.265 183.776C184.31 164.222 184.467 140.756 184.597 125.112L183.838 125.105L183.079 125.099C182.948 140.745 182.792 164.214 182.747 183.773C182.724 193.552 182.728 202.355 182.777 208.715C182.803 211.893 182.839 214.466 182.888 216.247C182.914 217.135 182.941 217.835 182.974 218.318C182.991 218.554 183.009 218.756 183.03 218.906C183.041 218.976 183.056 219.067 183.084 219.154C183.096 219.192 183.123 219.277 183.181 219.368C183.21 219.415 183.412 219.735 183.838 219.735V218.976ZM224.522 218.976V218.217H183.838V218.976V219.735H224.522V218.976ZM224.522 223.67H225.281V218.976H224.522H223.763V223.67H224.522ZM66.4798 223.67V224.429H224.522V223.67V222.911H66.4798V223.67ZM66.4798 356.653H67.2389V223.67H66.4798H65.7207V356.653H66.4798ZM38.314 356.653V357.412H66.4798V356.653V355.894H38.314V356.653ZM0.759598 394.983L1.30187 395.515L38.8563 357.184L38.314 356.653L37.7718 356.122L0.217324 394.452L0.759598 394.983ZM0.759598 613.233H1.5187V394.983H0.759598H0.000488281V613.233H0.759598ZM182.273 613.233V612.474H0.759598V613.233V613.992H182.273V613.233ZM182.273 690.677H183.032V613.233H182.273H181.514V690.677H182.273ZM352.833 690.677V689.918H182.273V690.677V691.436H352.833V690.677ZM360.656 687.548L360.53 686.8C358.767 687.097 357.395 687.408 356.124 687.903C354.846 688.403 353.703 689.077 352.377 690.069L352.833 690.677L353.288 691.284C354.534 690.349 355.558 689.754 356.677 689.318C357.802 688.878 359.056 688.588 360.783 688.296L360.656 687.548ZM373.957 684.418L373.782 683.68L360.483 686.809L360.656 687.548L360.831 688.286L374.13 685.157L373.957 684.418ZM379.433 679.724L378.721 679.465C378.255 680.735 377.804 681.537 377.124 682.141C376.438 682.753 375.442 683.228 373.758 683.686L373.957 684.418L374.156 685.151C375.926 684.67 377.188 684.117 378.134 683.275C379.089 682.425 379.647 681.349 380.147 679.985L379.433 679.724ZM385.738 666.374L385.04 666.076C383.346 670.061 381.664 674.015 378.765 679.363L379.433 679.724L380.101 680.086C383.034 674.671 384.739 670.661 386.437 666.671L385.738 666.374ZM388.822 659.387L388.136 659.063C386.955 661.576 385.994 663.834 385.04 666.076L385.738 666.374L386.437 666.671C387.392 664.426 388.342 662.192 389.51 659.708L388.822 659.387ZM398.992 627.313L398.27 627.084L388.098 659.157L388.822 659.387L389.546 659.616L399.717 627.543L398.992 627.313ZM398.992 622.62H398.233V627.313H398.992H399.752V622.62H398.992ZM406.034 614.016L405.446 613.535L398.405 622.14L398.992 622.62L399.58 623.101L406.622 614.496L406.034 614.016ZM406.034 596.805H405.275V614.016H406.034H406.793V596.805H406.034ZM601.631 596.805V596.046H406.034V596.805V597.564H601.631V596.805ZM601.631 531.879H600.872V596.805H601.631H602.39V531.879H601.631ZM713.511 531.879V531.12H601.631V531.879V532.638H713.511V531.879ZM713.511 483.379H712.752V531.879H713.511H714.27V483.379H713.511ZM697.863 483.379V484.138H713.511V483.379V482.62H697.863V483.379ZM697.863 411.411C697.105 411.406 697.105 411.408 697.104 411.408C697.104 411.408 697.104 411.408 697.104 411.409C697.104 411.411 697.104 411.412 697.104 411.415C697.104 411.422 697.104 411.431 697.104 411.441C697.104 411.466 697.104 411.499 697.104 411.546C697.104 411.637 697.102 411.774 697.102 411.951C697.099 412.31 697.098 412.836 697.093 413.516C697.087 414.875 697.078 416.842 697.067 419.28C697.048 424.153 697.023 430.9 697.007 438.397C696.975 453.39 696.975 471.387 697.105 483.387L697.863 483.379L698.622 483.37C698.493 471.381 698.493 453.393 698.525 438.4C698.542 430.905 698.566 424.159 698.586 419.286C698.596 416.85 698.605 414.883 698.611 413.524C698.616 412.844 698.617 412.317 698.621 411.96C698.621 411.781 698.622 411.645 698.622 411.554C698.622 411.508 698.622 411.473 698.622 411.45C698.622 411.438 698.622 411.429 698.622 411.425C698.622 411.422 698.622 411.419 698.622 411.417V411.415C698.622 411.415 698.622 411.416 697.863 411.411ZM747.937 411.411V410.652H697.863V411.411V412.17H747.937V411.411ZM747.937 312.064H747.178V411.411H747.937H748.696V312.064H747.937ZM718.987 285.468L718.849 286.215C727.497 287.822 733.42 289.855 737.754 293.667C742.08 297.469 744.928 303.136 747.199 312.248L747.937 312.064L748.673 311.881C746.372 302.648 743.423 296.628 738.756 292.527C734.1 288.433 727.836 286.341 719.127 284.721L718.987 285.468ZM634.491 285.468V286.227H718.987V285.468V284.709H634.491V285.468ZM449.848 498.242H449.089V542.047H449.848H450.607V498.242H449.848ZM449.848 497.459H449.089V498.242H449.848H450.607V497.459H449.848ZM437.331 497.459V498.218H449.848V497.459V496.7H437.331V497.459ZM437.331 488.071H436.571V497.459H437.331H438.09V488.071H437.331ZM375.521 488.071V488.83H437.331V488.071V487.312H375.521V488.071ZM375.521 441.919H374.762V488.071H375.521H376.28V441.919H375.521ZM358.309 441.919V442.678H375.521V441.919V441.16H358.309V441.919ZM358.309 458.347H359.068V441.919H358.309H357.55V458.347H358.309ZM370.827 458.347V457.588H358.309V458.347V459.106H370.827V458.347ZM370.827 503.717H371.586V458.347H370.827H370.067V503.717H370.827ZM323.885 503.717V504.476H370.827V503.717V502.958H323.885V503.717ZM323.885 491.983H323.126V503.717H323.885H324.644V491.983H323.885ZM307.455 491.983V492.742H323.885V491.983V491.224H307.455V491.983ZM307.455 502.152H308.214V491.983H307.455H306.695V502.152H307.455ZM320.754 502.152V501.393H307.455V502.152V502.911H320.754V502.152ZM320.754 613.233H321.513V502.152H320.754H319.995V613.233H320.754ZM362.221 613.233V612.474H320.754V613.233V613.992H362.221V613.233ZM362.221 542.047H361.462V613.233H362.221H362.98V542.047H362.221ZM449.848 542.047V541.289H362.221V542.047V542.806H449.848V542.047ZM319.972 383.25V382.491H309.802V383.25V384.009H319.972V383.25ZM319.972 455.218H320.731V383.25H319.972H319.213V455.218H319.972ZM338.75 455.218V454.459H319.972V455.218V455.977H338.75V455.218ZM338.75 458.347H339.509V455.218H338.75H337.99V458.347H338.75ZM258.946 458.347V459.106H338.75V458.347V457.588H258.946V458.347ZM258.946 536.572H259.705V458.347H258.946H258.187V536.572H258.946ZM179.144 536.572V537.331H258.946V536.572V535.813H179.144V536.572ZM179.144 520.145H178.385V536.572H179.144H179.903V520.145H179.144ZM185.402 510.758L184.77 510.337L178.512 519.724L179.144 520.145L179.775 520.565L186.033 511.178L185.402 510.758ZM185.402 499.805H184.643V510.758H185.402H186.161V499.805H185.402ZM179.926 484.943H179.167C179.167 488.862 179.382 491.637 180.223 493.979C181.076 496.352 182.542 498.21 184.889 500.366L185.402 499.805L185.915 499.247C183.66 497.175 182.388 495.514 181.652 493.466C180.906 491.39 180.685 488.847 180.685 484.943H179.926ZM188.532 472.427L188.068 471.826C185.443 473.848 183.794 475.278 182.517 477.128C181.248 478.971 180.378 481.184 179.206 484.703L179.926 484.943L180.645 485.183C181.82 481.661 182.633 479.636 183.768 477.989C184.898 476.351 186.378 475.044 188.996 473.028L188.532 472.427ZM188.532 412.976H187.773V472.427H188.532H189.292V412.976H188.532ZM236.258 412.976V412.217H188.532V412.976V413.735H236.258V412.976ZM236.258 424.71H237.017V412.976H236.258H235.499V424.71H236.258ZM309.802 424.71L309.793 423.951C297.538 424.081 279.153 424.238 263.835 424.283C256.174 424.306 249.282 424.302 244.309 424.251C241.82 424.226 239.818 424.191 238.439 424.141C237.747 424.116 237.225 424.089 236.879 424.059C236.703 424.044 236.595 424.03 236.54 424.019C236.505 424.013 236.526 424.015 236.57 424.031C236.589 424.039 236.66 424.068 236.74 424.132C236.812 424.189 237.017 424.379 237.017 424.71H236.258H235.499C235.499 425.05 235.708 425.25 235.792 425.316C235.884 425.39 235.974 425.428 236.015 425.445C236.106 425.481 236.198 425.499 236.258 425.511C236.39 425.536 236.56 425.555 236.748 425.572C237.134 425.605 237.688 425.633 238.385 425.659C239.783 425.709 241.802 425.744 244.294 425.769C249.278 425.82 256.177 425.824 263.839 425.801C279.163 425.756 297.551 425.599 309.809 425.469L309.802 424.71ZM309.802 383.25H309.043V424.71H309.802H310.561V383.25H309.802ZM133.765 469.299H133.006V519.363H133.765H134.524V469.299H133.765ZM117.335 469.299V470.058H133.765V469.299V468.54H117.335V469.299ZM117.335 531.097H118.094V469.299H117.335H116.576V531.097H117.335ZM136.112 531.097V530.338H117.335V531.097V531.856H136.112V531.097ZM136.112 578.031H136.871V531.097H136.112H135.353V578.031H136.112ZM235.474 578.031V577.272H136.112V578.031V578.79H235.474V578.031ZM235.474 567.08H234.715V578.031H235.474H236.233V567.08H235.474ZM140.024 567.08V567.839H235.474V567.08V566.321H140.024V567.08ZM140.024 519.363H139.265V567.08H140.024H140.783V519.363H140.024ZM133.765 519.363V520.122H140.024V519.363V518.604H133.765V519.363ZM668.133 483.379H668.892V473.209H668.133H667.374V483.379H668.133ZM567.988 483.379V484.138H668.133V483.379V482.62H567.988V483.379ZM567.988 542.047H568.748V483.379H567.988H567.229V542.047H567.988ZM478.796 542.047V542.806H567.988V542.047V541.289H478.796V542.047ZM478.796 497.459H478.037V542.047H478.796H479.555V497.459H478.796ZM545.299 497.459V496.7H478.796V497.459V498.218H545.299V497.459ZM545.299 420.798H544.54V497.459H545.299H546.058V420.798H545.299ZM610.237 420.798V420.039H545.299V420.798V421.557H610.237V420.798ZM610.237 473.209H610.997V420.798H610.237H609.478V473.209H610.237ZM668.133 473.209V472.45H610.237V473.209V473.968H668.133V473.209ZM634.491 349.613H633.732V384.033H634.491H635.25V349.613H634.491ZM605.543 349.613V350.372H634.491V349.613V348.854H605.543V349.613ZM605.543 355.871H606.302V349.613H605.543H604.784V355.871H605.543ZM593.024 367.605L593.543 368.158L606.062 356.424L605.543 355.871L605.024 355.317L592.505 367.051L593.024 367.605ZM528.868 367.605V368.364H593.024V367.605V366.846H528.868V367.605ZM528.868 324.58H528.109V367.605H528.868H529.628V324.58H528.868ZM503.833 324.58V325.339H528.868V324.58V323.821H503.833V324.58ZM503.833 337.097H504.592V324.58H503.833H503.074V337.097H503.833ZM438.894 337.097V337.856H503.833V337.097V336.338H438.894V337.097ZM438.894 359H439.653V337.097H438.894H438.135V359H438.894ZM463.148 359V358.241H438.894V359V359.759H463.148V359ZM463.148 441.919H463.907V359H463.148H462.389V441.919H463.148ZM414.641 441.919V442.678H463.148V441.919V441.16H414.641V441.919ZM414.641 464.605H415.4V441.919H414.641H413.882V464.605H414.641ZM436.547 464.605V463.846H414.641V464.605V465.364H436.547V464.605ZM436.547 445.831H435.788V464.605H436.547H437.306V445.831H436.547ZM507.744 445.831V445.072H436.547V445.831V446.59H507.744V445.831ZM507.744 372.299H506.985V445.831H507.744H508.503V372.299H507.744ZM557.816 372.299V371.54H507.744V372.299V373.058H557.816V372.299ZM557.816 384.033H558.575V372.299H557.816H557.057V384.033H557.816ZM634.491 384.033V383.274H557.816V384.033V384.792H634.491V384.033ZM715.858 372.299H716.617V358.218H715.858H715.099V372.299H715.858ZM697.863 372.299V373.058H715.858V372.299V371.54H697.863V372.299ZM697.863 358.218H697.104V372.299H697.863H698.622V358.218H697.863ZM715.858 358.218V357.459H697.863V358.218V358.977H715.858V358.218ZM665.004 417.67H664.245V440.354H665.004H665.763V417.67H665.004ZM655.615 417.67V418.429H665.004V417.67V416.911H655.615V417.67ZM655.615 440.354H656.375V417.67H655.615H654.856V440.354H655.615ZM665.004 440.354V439.595H655.615V440.354V441.113H665.004V440.354ZM145.501 284.686H146.26V270.606H145.501H144.742V284.686H145.501ZM145.501 285.468H146.26V284.686H145.501H144.742V285.468H145.501ZM130.635 285.468V286.227H145.501V285.468V284.709H130.635V285.468ZM130.635 270.606H129.876V285.468H130.635H131.394V270.606H130.635ZM145.501 270.606V269.847H130.635V270.606V271.365H145.501V270.606ZM105.599 349.613V350.372H109.511V349.613V348.854H105.599V349.613ZM105.599 397.33H106.358V349.613H105.599H104.84V397.33H105.599ZM96.2105 397.33V398.089H105.599V397.33V396.571H96.2105V397.33ZM93.8633 402.806L94.6208 402.856C94.6981 401.685 94.8402 400.873 95.1417 400.148C95.4415 399.427 95.9223 398.736 96.761 397.852L96.2105 397.33L95.6598 396.808C94.7501 397.766 94.1368 398.61 93.7397 399.565C93.3446 400.515 93.1874 401.52 93.1059 402.757L93.8633 402.806ZM96.2105 407.499L96.7056 406.924C95.9278 406.256 95.4655 405.737 95.1657 405.155C94.8667 404.574 94.6958 403.864 94.6206 402.755L93.8633 402.806L93.1059 402.857C93.188 404.069 93.3839 405.011 93.8157 405.849C94.2467 406.687 94.8795 407.356 95.7153 408.074L96.2105 407.499ZM105.599 407.499V406.74H96.2105V407.499V408.258H105.599V407.499ZM105.599 424.71H106.358V407.499H105.599H104.84V424.71H105.599ZM34.4021 424.71V425.469H105.599V424.71V423.951H34.4021V424.71ZM34.4021 432.532H35.1613V424.71H34.4021H33.643V432.532H34.4021ZM135.33 432.532V431.773H34.4021V432.532V433.291H135.33V432.532ZM135.33 397.33H134.571V432.532H135.33H136.089V397.33H135.33ZM109.511 397.33V398.089H135.33V397.33V396.571H109.511V397.33ZM109.511 349.613H108.752V397.33H109.511H110.27V349.613H109.511ZM88.3867 515.451V514.692H82.91V515.451V516.21H88.3867V515.451ZM88.3867 479.468H87.6276V515.451H88.3867H89.1458V479.468H88.3867ZM39.8788 479.468V480.227H88.3867V479.468V478.709H39.8788V479.468ZM39.8788 515.451H40.6379V479.468H39.8788H39.1197V515.451H39.8788ZM44.5731 515.451V514.692H39.8788V515.451V516.21H44.5731V515.451ZM44.5731 503.717H43.814V515.451H44.5731H45.3323V503.717H44.5731ZM82.91 503.717V502.958H44.5731V503.717V504.476H82.91V503.717ZM82.91 515.451H83.6691V503.717H82.91H82.1509V515.451H82.91ZM91.5162 578.031H92.2753V567.08H91.5162H90.7571V578.031H91.5162ZM21.1016 578.031V578.79H91.5162V578.031V577.272H21.1016V578.031ZM21.1016 567.08H20.3425V578.031H21.1016H21.8607V567.08H21.1016ZM91.5162 567.08V566.321H21.1016V567.08V567.839H91.5162V567.08ZM338.75 163.435V162.676H265.987V163.435V164.194H338.75V163.435ZM338.75 340.226H339.509V163.435H338.75H337.99V340.226H338.75ZM384.128 340.226V339.467H338.75V340.226V340.985H384.128V340.226ZM384.128 321.451H383.368V340.226H384.128H384.887V321.451H384.128ZM406.034 321.451V320.692H384.128V321.451V322.21H406.034V321.451ZM406.034 359H406.793V321.451H406.034H405.275V359H406.034ZM236.258 359V359.759H406.034V359V358.241H236.258V359ZM236.258 396.548H237.017V359H236.258H235.499V396.548H236.258ZM231.563 396.548V397.307H236.258V396.548V395.79H231.563V396.548ZM231.563 335.532H230.804V396.548H231.563H232.322V335.532H231.563ZM173.666 335.532V336.291H231.563V335.532V334.773H173.666V335.532ZM173.666 329.274H172.907V335.532H173.666H174.425V329.274H173.666ZM191.662 329.274V328.515H173.666V329.274V330.033H191.662V329.274ZM191.662 311.283H190.902V329.274H191.662H192.421V311.283H191.662ZM200.267 302.677L199.617 302.287C198.453 304.224 197.429 305.625 196.177 306.877C194.923 308.134 193.414 309.267 191.253 310.642L191.662 311.283L192.068 311.923C194.274 310.519 195.885 309.318 197.252 307.951C198.621 306.58 199.717 305.068 200.918 303.069L200.267 302.677ZM212.003 285.468L211.376 285.04L199.64 302.251L200.267 302.677L200.895 303.105L212.631 285.896L212.003 285.468ZM219.044 281.556L219.04 280.797C216.932 280.811 215.419 281.101 214.206 281.832C212.992 282.563 212.179 283.672 211.348 285.084L212.003 285.468L212.657 285.852C213.459 284.49 214.113 283.659 214.987 283.132C215.862 282.607 217.054 282.327 219.049 282.315L219.044 281.556ZM219.044 272.952H218.285V281.556H219.044H219.803V272.952H219.044ZM228.433 267.475L228.05 266.82L218.662 272.297L219.044 272.952L219.427 273.608L228.815 268.131L228.433 267.475ZM247.21 261.218L246.97 260.497L228.193 266.756L228.433 267.475L228.673 268.197L247.45 261.938L247.21 261.218ZM251.123 261.218V260.459H247.21V261.218V261.977H251.123V261.218ZM251.123 218.976H250.363V261.218H251.123H251.882V218.976H251.123ZM258.164 215.065L258.129 214.307C256.16 214.397 254.528 214.545 253.245 215.163C251.889 215.817 251.012 216.945 250.404 218.732L251.123 218.976L251.841 219.221C252.36 217.698 253.016 216.96 253.904 216.531C254.866 216.066 256.192 215.915 258.199 215.823L258.164 215.065ZM265.987 207.242L265.86 206.494C263.144 206.959 261.117 207.601 259.725 208.939C258.311 210.298 257.677 212.246 257.408 214.992L258.164 215.065L258.92 215.139C259.175 212.516 259.757 211.015 260.777 210.034C261.817 209.034 263.44 208.448 266.115 207.991L265.987 207.242ZM265.987 163.435H265.228V207.242H265.987H266.747V163.435H265.987ZM437.331 182.993H438.09V114.936H437.331H436.571V182.993H437.331ZM524.174 182.993V182.234H437.331V182.993V183.752H524.174V182.993ZM524.174 193.943H524.933V182.993H524.174H523.415V193.943H524.174ZM514.785 193.943V194.702H524.174V193.943V193.184H514.785V193.943ZM514.785 285.468H515.545V193.943H514.785H514.026V285.468H514.785ZM377.868 285.468V286.227H514.785V285.468V284.709H377.868V285.468ZM377.868 259.653H377.109V285.468H377.868H378.627V259.653H377.868ZM427.158 259.653V258.894H377.868V259.653V260.412H427.158V259.653ZM427.158 180.646H426.399V259.653H427.158H427.918V180.646H427.158ZM382.562 180.646V181.405H427.158V180.646V179.887H382.562V180.646ZM382.562 176.734H381.803V180.646H382.562H383.321V176.734H382.562ZM408.381 176.734V175.975H382.562V176.734V177.493H408.381V176.734ZM408.381 114.936H407.622V176.734H408.381H409.14V114.936H408.381ZM437.331 114.936V114.177H408.381V114.936V115.695H437.331V114.936Z" fill="#674A81"/>
<path d="M437.33 285.468C437.33 286.093 437.33 294.073 437.33 297.984H426.376V285.468" stroke="#674A81"/>
<path d="M338.75 180.646H351.267V169.694M351.267 169.694V163.435H338.75V169.694H351.267Z" stroke="#674A81"/>
<path d="M375.522 441.919V438.007M375.522 438.007V417.67H326.232M375.522 438.007H383.346V454.435H375.522M319.972 417.67H326.232M326.232 417.67V394.983H319.972" stroke="#674A81"/>
<path d="M463.149 429.404H456.889M456.889 429.404H438.112V441.919M456.889 429.404V423.145H463.149M449.848 497.459V488.073H436.547M567.988 542.048V555.346H557.034V542.048M601.63 518.58H713.511" stroke="#674A81"/>
<path d="M629.797 473.209C629.797 472.584 629.797 467.734 629.797 465.387H622.755M622.755 465.387V473.209M622.755 465.387V459.912H610.237M715.858 359V333.185H704.906V358.218M654.05 285.468V291.727H647.791M634.491 297.984H647.009V285.468M528.868 335.532H542.17V324.58H528.868M524.174 193.943H535.91V182.993H524.174M471.755 182.993V150.138M471.755 150.138V137.621M471.755 150.138H466.278V137.621M471.755 137.621V114.154H460.019V137.621H466.278M471.755 137.621H466.278M402.123 232.274H399.776V229.927M402.123 232.274V229.927H399.776M402.123 232.274L399.776 229.927M402.123 207.242H399.776V204.896M402.123 207.242V204.896H399.776M402.123 207.242L399.776 204.896M578.159 282.339L592.242 268.259L582.071 244.008L550.776 232.274L531.999 240.879L525.739 264.347L535.128 281.556L562.511 288.597L578.159 282.339Z" stroke="#674A81"/>
<path d="M32.8374 567.08V554.565H21.1016V567.08M46.1379 578.031V613.233M91.5162 567.08L117.335 530.314M136.112 578.031V589.765H147.065V578.031M182.273 659.387H196.356V664.08M196.356 664.08V670.337M196.356 664.08L213.568 678.161V690.677M196.356 690.677V670.337M196.356 670.337H182.273" stroke="#674A81"/>
<path d="M183.838 277.646V274.516L190.096 268.259H196.356C199.249 268.889 200.201 270.188 201.05 273.734M130.635 285.468L125.159 287.033H121.247C120.204 286.511 117.804 285.468 116.553 285.468C115.301 285.468 95.6889 285.468 86.0396 285.468V276.081H86.8219V270.606H130.635" stroke="#674A81"/>
<path d="M133.765 487.29H154.107M69.6094 479.468V466.169H57.8735V479.468M188.532 423.927H176.013V412.976H188.532M190.096 335.532V348.048H183.838M183.838 348.048H173.666V335.532M183.838 348.048V335.532M194.008 309.718C192.326 305.958 190.854 302.691 188.813 299.549C185.936 292.921 184.542 286.795 183.838 277.646L226.087 269.041" stroke="#674A81"/>
<path d="M655.236 418.049V357.839H698.244V359.379H656.777V418.049H655.236Z" stroke="#674A81" stroke-width="0.5"/>
<path d="M374.739 438.681C389.558 435.154 400.58 421.832 400.58 405.934C400.58 387.345 385.507 372.275 366.915 372.275C348.322 372.276 333.25 387.345 333.25 405.934C333.25 410.359 334.105 414.582 335.657 418.451H334.84C333.323 414.573 332.491 410.351 332.491 405.934L332.502 405.046C332.972 386.448 348.2 371.517 366.915 371.516L367.803 371.526C386.11 371.991 400.864 386.744 401.329 405.046L401.339 405.934C401.339 422.252 389.982 435.92 374.739 439.462V438.681Z" fill="#674A81"/>
<path d="M376.304 455.218H384.128V437.226H376.304V400.368H437.329V441.136H413.857V465.387H376.304V455.218Z" fill="#4F276A"/>
<path d="M320.754 416.888H327.014V400.459H320.754L376.304 400.398V416.888L320.754 416.948V416.888Z" fill="#4F276A"/>
<path d="M407.232 430.455V418.312H411.882C412.76 418.312 413.489 418.45 414.07 418.728C414.656 418.999 415.092 419.373 415.38 419.848C415.673 420.321 415.819 420.86 415.819 421.46C415.819 421.955 415.725 422.378 415.535 422.729C415.345 423.077 415.09 423.36 414.77 423.577C414.45 423.795 414.091 423.951 413.697 424.045V424.165C414.128 424.188 414.541 424.32 414.935 424.561C415.335 424.799 415.661 425.135 415.915 425.569C416.168 426.005 416.294 426.53 416.294 427.146C416.294 427.775 416.142 428.341 415.837 428.843C415.534 429.341 415.075 429.734 414.462 430.023C413.848 430.311 413.077 430.455 412.149 430.455H407.232ZM409.432 428.617H411.799C412.597 428.617 413.173 428.465 413.525 428.16C413.88 427.852 414.058 427.457 414.058 426.975C414.058 426.615 413.97 426.292 413.792 426.003C413.613 425.71 413.361 425.481 413.033 425.314C412.704 425.144 412.313 425.059 411.858 425.059H409.432V428.617ZM409.432 423.476H411.609C411.989 423.476 412.33 423.407 412.635 423.269C412.939 423.127 413.179 422.926 413.352 422.67C413.531 422.409 413.619 422.1 413.619 421.745C413.619 421.275 413.454 420.888 413.121 420.583C412.793 420.279 412.304 420.126 411.656 420.126H409.432V423.476Z" fill="white"/>
<path d="M89.1692 504.501V478.686H70.3916V468.516H116.552V531.097L91.5162 566.297H33.6192V553.781H20.3186V566.297H1.54102V468.516H57.0909V478.686H39.0976L39.0962 504.501V516.233H45.3558V504.501H82.1266V516.233H89.1692V504.501Z" fill="#4F276A"/>
<path d="M66.8517 543.101H69.2001L64.9242 530.957H62.2081L57.9263 543.101H60.2747L63.5186 533.447H63.6135L66.8517 543.101ZM66.7746 538.339H60.3695V540.106H66.7746V538.339Z" fill="white"/>
<path d="M697.082 416.886H657.181V359.782H697.082V416.886Z" fill="#4F276A"/>
<path d="M697.083 441.137H665.786V416.886H697.083V441.137Z" fill="#4F276A"/>
<path d="M747.153 410.629H697.081V373.081H747.153V410.629Z" fill="#4F276A"/>
<path d="M693.029 394.247H690.811C690.747 393.884 690.63 393.563 690.46 393.282C690.29 392.996 690.079 392.755 689.825 392.558C689.573 392.36 689.283 392.212 688.96 392.113C688.64 392.011 688.293 391.96 687.921 391.96C687.261 391.96 686.676 392.125 686.166 392.458C685.656 392.785 685.257 393.268 684.968 393.904C684.68 394.537 684.536 395.31 684.536 396.222C684.536 397.151 684.68 397.934 684.968 398.57C685.261 399.203 685.661 399.682 686.166 400.005C686.676 400.325 687.259 400.486 687.915 400.486C688.28 400.486 688.62 400.439 688.936 400.343C689.256 400.245 689.543 400.101 689.796 399.911C690.053 399.721 690.269 399.487 690.442 399.211C690.621 398.935 690.742 398.618 690.811 398.262L693.029 398.274C692.945 398.851 692.764 399.393 692.488 399.899C692.215 400.404 691.858 400.852 691.415 401.239C690.971 401.623 690.454 401.922 689.862 402.141C689.268 402.353 688.609 402.461 687.886 402.461C686.819 402.461 685.866 402.214 685.028 401.719C684.19 401.225 683.529 400.512 683.046 399.578C682.565 398.646 682.324 397.528 682.324 396.222C682.324 394.914 682.567 393.795 683.052 392.866C683.54 391.934 684.202 391.22 685.04 390.726C685.878 390.232 686.827 389.985 687.886 389.985C688.562 389.985 689.191 390.079 689.772 390.269C690.354 390.458 690.871 390.738 691.327 391.105C691.781 391.469 692.154 391.916 692.447 392.445C692.743 392.971 692.938 393.572 693.029 394.247Z" fill="white"/>
</svg>
