<svg width="750" height="718" viewBox="0 0 750 718" fill="none" xmlns="http://www.w3.org/2000/svg">
<path fill-rule="evenodd" clip-rule="evenodd" d="M114.205 432.532V408.282H142.371V492.765L174.448 524.838V547.524H143.153V578.031L292.588 649.218H340.313V690.677H457.672V592.895H564.858C565.119 561.605 565.483 499.024 564.858 499.024H524.174V494.33H682.216V361.347H710.381L747.935 323.017V104.767H566.423V27.3235H395.864C393.29 29.2518 391.529 29.862 388.039 30.4525L374.739 33.5815C371.284 34.5197 370.225 35.6403 369.263 38.275C366.346 43.6572 364.654 47.6391 362.958 51.6259C362.003 53.8701 361.048 56.1159 359.874 58.6137L349.702 90.6862V95.3797L342.661 103.985V121.194H147.065V186.121H35.1841V234.621H50.8318C51.0926 258.611 50.8318 306.589 50.8318 306.589H0.759277V405.936C5.33344 424.28 12.351 429.306 29.7075 432.532H114.205ZM298.848 175.953V219.758V220.541H311.366V229.929H373.174V276.081H390.386V259.653H377.868V214.283H424.811V226.017H441.242V215.848H427.94V104.767H386.475V175.953H298.848ZM438.894 334.75H428.724V262.782H409.947V259.653H489.749V181.428H569.552V197.855L563.293 207.242V218.195C567.896 222.421 568.77 225.235 568.77 233.057C566.423 240.097 565.406 241.536 560.164 245.573V305.024H512.438V293.29C512.438 292.665 463.409 293.029 438.894 293.29V334.75ZM614.93 198.637V248.701H631.36V186.903H612.583V139.968H513.22V150.92H608.672V198.637H614.93ZM80.5625 244.791V234.621H180.708V175.953H269.9V220.541H203.397V297.202H138.459V244.791H80.5625ZM114.205 333.967V368.387H143.153V362.129L155.671 350.395H219.826V393.42H244.863V380.903H309.8V359H285.547V276.081H334.055V253.395H312.147V272.169H240.951V345.701H190.878V333.967H114.205ZM32.837 359.782V345.701H50.8318V359.782H32.837ZM83.692 277.646V300.33H93.0806V277.646H83.692ZM603.194 447.394V433.314V432.532H618.061V447.394H603.194ZM639.184 368.387H643.096V320.67H652.485C654.234 318.827 654.673 317.6 654.832 315.194C654.674 312.875 654.099 311.888 652.485 310.501H643.096V293.29H714.293V285.468H613.367V320.67H639.184V368.387ZM665.786 202.549H660.308V238.532H708.817V202.549H704.123V214.283H665.786V202.549ZM657.179 150.92V139.968H727.594V150.92H657.179ZM482.707 554.565H409.947V377.774H364.568V396.549H342.661V359H512.438V321.452H517.133V382.468H575.029V388.726H557.035V406.717C552.668 409.497 550.793 411.385 548.428 415.323L536.692 432.532C535.063 435.304 533.754 436.42 529.65 436.444V445.048L520.262 450.525L501.484 456.782H497.574V499.024C496.447 502.333 494.507 502.753 490.532 502.936C490.007 508.303 488.1 509.836 482.707 510.758V554.565ZM311.366 603.064V535.007H224.52V524.057H233.909V432.532H370.827V458.347H321.536V537.354H366.132V541.266H340.313V603.064H311.366Z" fill="#26003A"/>
<path d="M114.205 408.282V407.523H113.446V408.282H114.205ZM114.205 432.532V433.291H114.964V432.532H114.205ZM142.371 408.282H143.13V407.523H142.371V408.282ZM142.371 492.765H141.612V493.081L141.834 493.302L142.371 492.765ZM174.448 524.838H175.207V524.524L174.985 524.301L174.448 524.838ZM174.448 547.524V548.283H175.207V547.524H174.448ZM143.153 547.524V546.765H142.394V547.524H143.153ZM143.153 578.031H142.394V578.511L142.826 578.717L143.153 578.031ZM292.588 649.218L292.262 649.902L292.416 649.977H292.588V649.218ZM340.313 649.218H341.072V648.459H340.313V649.218ZM340.313 690.677H339.554V691.436H340.313V690.677ZM457.672 690.677V691.436H458.431V690.677H457.672ZM457.672 592.895V592.136H456.912V592.895H457.672ZM564.858 592.895V593.654H565.611L565.617 592.901L564.858 592.895ZM524.174 499.024H523.415V499.783H524.174V499.024ZM524.174 494.33V493.571H523.415V494.33H524.174ZM682.216 494.33V495.089H682.975V494.33H682.216ZM682.216 361.347V360.588H681.457V361.347H682.216ZM710.381 361.347V362.106H710.701L710.924 361.878L710.381 361.347ZM747.935 323.016L748.479 323.548L748.694 323.326V323.016H747.935ZM747.935 104.767H748.694V104.008H747.935V104.767ZM566.423 104.767H565.664V105.526H566.423V104.767ZM566.423 27.3234H567.182V26.5645H566.423V27.3234ZM395.863 27.3234V26.5645H395.61L395.408 26.7161L395.863 27.3234ZM388.038 30.4524L387.912 29.7041L387.888 29.7082L387.865 29.7136L388.038 30.4524ZM374.739 33.5814L374.564 32.8426L374.552 32.8457L374.54 32.849L374.739 33.5814ZM369.263 38.275L369.929 38.6364L369.956 38.5877L369.975 38.5356L369.263 38.275ZM359.874 58.6137L359.186 58.2908L359.165 58.3363L359.15 58.3843L359.874 58.6137ZM349.702 90.6861L348.979 90.4567L348.943 90.5688V90.6861H349.702ZM349.702 95.3797L350.289 95.8603L350.461 95.6506V95.3797H349.702ZM342.66 103.985L342.073 103.504L341.901 103.714V103.985H342.66ZM342.66 121.194V121.953H343.42V121.194H342.66ZM147.065 121.194V120.435H146.306V121.194H147.065ZM147.065 186.121V186.88H147.824V186.121H147.065ZM35.184 186.121V185.362H34.4248V186.121H35.184ZM35.184 234.621H34.4248V235.379H35.184V234.621ZM50.8316 234.621L51.5907 234.613L51.5825 233.862H50.8316V234.621ZM50.8316 306.589V307.348H51.5866L51.5907 306.594L50.8316 306.589ZM0.759109 306.589V305.83H0V306.589H0.759109ZM0.759109 405.936H0V406.028L0.0225424 406.119L0.759109 405.936ZM29.7073 432.532L29.5685 433.279L29.6373 433.291H29.7073V432.532ZM298.848 175.952V175.193H298.089V175.952H298.848ZM298.848 220.541H298.089V221.3H298.848V220.541ZM311.365 220.541H312.124V219.782H311.365V220.541ZM311.365 229.928H310.606V230.687H311.365V229.928ZM373.174 229.928H373.933V229.169H373.174V229.928ZM373.174 276.081H372.414V276.84H373.174V276.081ZM390.386 276.081V276.84H391.145V276.081H390.386ZM390.386 259.653H391.145V258.894H390.386V259.653ZM377.868 259.653H377.109V260.412H377.868V259.653ZM377.868 214.283V213.524H377.109V214.283H377.868ZM424.811 214.283H425.57V213.524H424.811V214.283ZM424.811 226.017H424.052V226.776H424.811V226.017ZM441.241 226.017V226.776H442.001V226.017H441.241ZM441.241 215.848H442.001V215.089H441.241V215.848ZM427.94 215.848H427.181V216.607H427.94V215.848ZM427.94 104.767H428.699V104.008H427.94V104.767ZM386.475 104.767V104.008H385.716V104.767H386.475ZM386.475 175.952V176.711H387.234V175.952H386.475ZM428.724 334.75H427.965V335.509H428.724V334.75ZM438.894 334.75V335.509H439.653V334.75H438.894ZM428.724 262.782H429.483V262.023H428.724V262.782ZM409.946 262.782H409.187V263.541H409.946V262.782ZM409.946 259.653V258.894H409.187V259.653H409.946ZM489.748 259.653V260.412H490.508V259.653H489.748ZM489.748 181.428V180.669H488.989V181.428H489.748ZM569.552 181.428H570.311V180.669H569.552V181.428ZM569.552 197.855L570.184 198.276L570.311 198.084V197.855H569.552ZM563.293 207.242L562.661 206.822L562.533 207.013V207.242H563.293ZM563.293 218.195H562.533V218.527L562.779 218.753L563.293 218.195ZM568.77 233.057L569.49 233.297L569.529 233.18V233.057H568.77ZM560.163 245.573L559.7 244.972L559.404 245.199V245.573H560.163ZM560.163 305.024V305.783H560.923V305.024H560.163ZM512.438 305.024H511.679V305.783H512.438V305.024ZM438.894 293.29L438.887 292.531L438.135 292.54V293.29H438.894ZM614.93 248.701H614.171V249.46H614.93V248.701ZM614.93 198.637H615.689V197.878H614.93V198.637ZM631.36 248.701V249.46H632.119V248.701H631.36ZM631.36 186.903H632.119V186.144H631.36V186.903ZM612.583 186.903H611.824V187.662H612.583V186.903ZM612.583 139.968H613.342V139.209H612.583V139.968ZM513.22 139.968V139.209H512.461V139.968H513.22ZM513.22 150.92H512.461V151.679H513.22V150.92ZM608.672 150.92H609.431V150.161H608.672V150.92ZM608.672 198.637H607.913V199.396H608.672V198.637ZM80.5623 234.621V233.862H79.8032V234.621H80.5623ZM80.5623 244.791H79.8032V245.55H80.5623V244.791ZM180.707 234.621V235.379H181.467V234.621H180.707ZM180.707 175.952V175.193H179.948V175.952H180.707ZM269.9 175.952H270.659V175.193H269.9V175.952ZM269.9 220.541V221.3H270.659V220.541H269.9ZM203.397 220.541V219.782H202.638V220.541H203.397ZM203.397 297.202V297.961H204.156V297.202H203.397ZM138.459 297.202H137.7V297.961H138.459V297.202ZM138.459 244.791H139.218V244.032H138.459V244.791ZM114.205 368.387H113.446V369.146H114.205V368.387ZM114.205 333.967V333.208H113.446V333.967H114.205ZM143.153 368.387V369.146H143.912V368.387H143.153ZM143.153 362.129L142.634 361.576L142.394 361.801V362.129H143.153ZM155.671 350.395V349.636H155.371L155.151 349.842L155.671 350.395ZM219.826 350.395H220.585V349.636H219.826V350.395ZM219.826 393.42H219.067V394.179H219.826V393.42ZM244.863 393.42V394.179H245.622V393.42H244.863ZM244.863 380.903V380.144H244.104V380.903H244.863ZM309.8 380.903V381.662H310.559V380.903H309.8ZM309.8 359H310.559V358.241H309.8V359ZM285.547 359H284.787V359.759H285.547V359ZM285.547 276.081V275.322H284.787V276.081H285.547ZM334.055 276.081V276.84H334.814V276.081H334.055ZM334.055 253.395H334.814V252.636H334.055V253.395ZM312.147 253.395V252.636H311.388V253.395H312.147ZM312.147 272.169V272.928H312.906V272.169H312.147ZM240.95 272.169V271.41H240.191V272.169H240.95ZM240.95 345.701V346.46H241.71V345.701H240.95ZM190.878 345.701H190.119V346.46H190.878V345.701ZM190.878 333.967H191.637V333.208H190.878V333.967ZM32.8368 345.701V344.942H32.0777V345.701H32.8368ZM32.8368 359.782H32.0777V360.541H32.8368V359.782ZM50.8316 345.701H51.5907V344.942H50.8316V345.701ZM50.8316 359.782V360.541H51.5907V359.782H50.8316ZM83.6918 300.33H82.9327V301.089H83.6918V300.33ZM83.6918 277.646V276.887H82.9327V277.646H83.6918ZM93.0805 300.33V301.089H93.8396V300.33H93.0805ZM93.0805 277.646H93.8396V276.887H93.0805V277.646ZM603.194 447.394H602.435V448.153H603.194V447.394ZM603.194 432.532V431.773H602.435V432.532H603.194ZM618.061 432.532H618.82V431.773H618.061V432.532ZM618.061 447.394V448.153H618.82V447.394H618.061ZM643.096 368.387V369.146H643.855V368.387H643.096ZM639.184 368.387H638.425V369.146H639.184V368.387ZM643.096 320.67V319.911H642.337V320.67H643.096ZM652.485 320.67V321.429H652.811L653.036 321.192L652.485 320.67ZM654.832 315.194L655.59 315.243L655.593 315.193L655.59 315.143L654.832 315.194ZM652.485 310.501L652.98 309.926L652.767 309.742H652.485V310.501ZM643.096 310.501H642.337V311.26H643.096V310.501ZM643.096 293.29V292.531H642.337V293.29H643.096ZM714.293 293.29V294.049H715.052V293.29H714.293ZM714.293 285.468H715.052V284.709H714.293V285.468ZM613.366 285.468V284.709H612.607V285.468H613.366ZM613.366 320.67H612.607V321.429H613.366V320.67ZM639.184 320.67H639.943V319.911H639.184V320.67ZM660.308 202.549V201.79H659.549V202.549H660.308ZM665.786 202.549H666.545V201.79H665.786V202.549ZM660.308 238.532H659.549V239.291H660.308V238.532ZM708.817 238.532V239.291H709.576V238.532H708.817ZM708.817 202.549H709.576V201.79H708.817V202.549ZM704.122 202.549V201.79H703.363V202.549H704.122ZM704.122 214.283V215.042H704.882V214.283H704.122ZM665.786 214.283H665.027V215.042H665.786V214.283ZM657.179 139.968V139.209H656.42V139.968H657.179ZM657.179 150.92H656.42V151.679H657.179V150.92ZM727.594 139.968H728.353V139.209H727.594V139.968ZM727.594 150.92V151.679H728.353V150.92H727.594ZM409.946 554.565H409.187V555.324H409.946V554.565ZM482.707 554.565V555.324H483.466V554.565H482.707ZM409.946 377.774H410.705V377.015H409.946V377.774ZM364.568 377.774V377.015H363.809V377.774H364.568ZM364.568 396.548V397.307H365.327V396.548H364.568ZM342.66 396.548H341.901V397.307H342.66V396.548ZM342.66 359V358.241H341.901V359H342.66ZM512.438 359V359.759H513.197V359H512.438ZM512.438 321.451V320.692H511.679V321.451H512.438ZM517.133 321.451H517.892V320.692H517.133V321.451ZM517.133 382.468H516.374V383.227H517.133V382.468ZM575.028 382.468H575.787V381.709H575.028V382.468ZM575.028 388.726V389.485H575.787V388.726H575.028ZM557.034 388.726V387.967H556.275V388.726H557.034ZM557.034 406.717L557.441 407.358L557.794 407.135V406.717H557.034ZM548.428 415.323L549.055 415.749L549.067 415.733L549.079 415.713L548.428 415.323ZM536.692 432.532L536.065 432.104L536.051 432.125L536.037 432.148L536.692 432.532ZM529.65 436.444L529.646 435.685L528.891 435.689V436.444H529.65ZM529.65 445.048L530.033 445.703L530.409 445.483V445.048H529.65ZM520.262 450.524L520.502 451.244L520.576 451.22L520.644 451.18L520.262 450.524ZM501.484 456.782V457.541H501.607L501.724 457.503L501.484 456.782ZM497.573 456.782V456.023H496.814V456.782H497.573ZM497.573 499.024L498.292 499.268L498.332 499.15V499.024H497.573ZM490.532 502.935L490.497 502.176L489.84 502.207L489.776 502.861L490.532 502.935ZM482.707 510.758L482.579 510.009L481.948 510.117V510.758H482.707ZM311.365 535.007H312.124V534.248H311.365V535.007ZM311.365 603.064H310.606V603.823H311.365V603.064ZM224.52 535.007H223.761V535.766H224.52V535.007ZM224.52 524.056V523.297H223.761V524.056H224.52ZM233.909 524.056V524.815H234.668V524.056H233.909ZM233.909 432.532V431.773H233.15V432.532H233.909ZM370.826 432.532H371.586V431.773H370.826V432.532ZM370.826 458.347V459.106H371.586V458.347H370.826ZM321.536 458.347V457.588H320.777V458.347H321.536ZM321.536 537.354H320.777V538.113H321.536V537.354ZM366.132 537.354H366.891V536.595H366.132V537.354ZM366.132 541.266V542.025H366.891V541.266H366.132ZM340.313 541.266V540.507H339.554V541.266H340.313ZM340.313 603.064V603.823H341.072V603.064H340.313ZM114.205 408.282H113.446V432.532H114.205H114.964V408.282H114.205ZM142.371 408.282V407.523H114.205V408.282V409.041H142.371V408.282ZM142.371 492.765H143.13V408.282H142.371H141.612V492.765H142.371ZM174.448 524.838L174.985 524.301L142.907 492.229L142.371 492.765L141.834 493.302L173.912 525.376L174.448 524.838ZM174.448 547.524H175.207V524.838H174.448H173.689V547.524H174.448ZM143.153 547.524V548.283H174.448V547.524V546.765H143.153V547.524ZM143.153 578.031H143.912V547.524H143.153H142.394V578.031H143.153ZM292.588 649.218L292.914 648.532L143.48 577.346L143.153 578.031L142.826 578.717L292.262 649.902L292.588 649.218ZM340.313 649.218V648.459H292.588V649.218V649.977H340.313V649.218ZM340.313 690.677H341.072V649.218H340.313H339.554V690.677H340.313ZM457.672 690.677V689.918H340.313V690.677V691.436H457.672V690.677ZM457.672 592.895H456.912V690.677H457.672H458.431V592.895H457.672ZM564.858 592.895V592.136H457.672V592.895V593.654H564.858V592.895ZM564.858 499.024V499.783C564.442 499.783 564.249 499.47 564.229 499.44C564.182 499.364 564.164 499.3 564.161 499.292C564.153 499.267 564.155 499.265 564.162 499.315C564.176 499.405 564.191 499.558 564.206 499.786C564.237 500.237 564.264 500.91 564.29 501.795C564.339 503.559 564.375 506.12 564.399 509.297C564.449 515.648 564.454 524.447 564.431 534.224C564.386 553.778 564.229 577.245 564.099 592.889L564.858 592.895L565.617 592.901C565.747 577.255 565.904 553.786 565.949 534.227C565.972 524.448 565.968 515.645 565.918 509.285C565.893 506.106 565.857 503.534 565.807 501.753C565.782 500.865 565.754 500.165 565.722 499.682C565.705 499.446 565.687 499.244 565.664 499.093C565.655 499.024 565.638 498.933 565.612 498.846C565.6 498.808 565.573 498.723 565.515 498.632C565.486 498.585 565.284 498.265 564.858 498.265V499.024ZM524.174 499.024V499.783H564.858V499.024V498.265H524.174V499.024ZM524.174 494.33H523.415V499.024H524.174H524.933V494.33H524.174ZM682.216 494.33V493.571H524.174V494.33V495.089H682.216V494.33ZM682.216 361.347H681.457V494.33H682.216H682.975V361.347H682.216ZM710.381 361.347V360.588H682.216V361.347V362.106H710.381V361.347ZM747.935 323.016L747.393 322.485L709.839 360.815L710.381 361.347L710.924 361.878L748.479 323.548L747.935 323.016ZM747.935 104.767H747.176V323.016H747.935H748.694V104.767H747.935ZM566.423 104.767V105.526H747.935V104.767V104.008H566.423V104.767ZM566.423 27.3234H565.664V104.767H566.423H567.182V27.3234H566.423ZM395.863 27.3234V28.0824H566.423V27.3234V26.5645H395.863V27.3234ZM388.038 30.4524L388.166 31.2008C389.927 30.9027 391.3 30.5924 392.57 30.0968C393.85 29.598 394.993 28.924 396.319 27.9308L395.863 27.3234L395.408 26.7161C394.16 27.6512 393.137 28.2465 392.019 28.6826C390.893 29.1218 389.64 29.4117 387.912 29.7041L388.038 30.4524ZM374.739 33.5814L374.912 34.3204L388.213 31.1912L388.038 30.4524L387.865 29.7136L374.564 32.8426L374.739 33.5814ZM369.263 38.275L369.975 38.5356C370.439 37.2642 370.892 36.4633 371.57 35.859C372.258 35.2475 373.253 34.7714 374.938 34.314L374.739 33.5814L374.54 32.849C372.77 33.3297 371.508 33.883 370.561 34.7251C369.607 35.5744 369.047 36.6511 368.549 38.0144L369.263 38.275ZM362.957 51.6258L363.656 51.9229C365.35 47.9395 367.032 43.9853 369.929 38.6364L369.263 38.275L368.595 37.9136C365.661 43.3291 363.956 47.3388 362.259 51.3289L362.957 51.6258ZM359.874 58.6137L360.56 58.9365C361.741 56.4241 362.701 54.1662 363.656 51.9229L362.957 51.6258L362.259 51.3289C361.304 53.574 360.354 55.8074 359.186 58.2908L359.874 58.6137ZM349.702 90.6861L350.426 90.9156L360.597 58.843L359.874 58.6137L359.15 58.3843L348.979 90.4567L349.702 90.6861ZM349.702 95.3797H350.461V90.6861H349.702H348.943V95.3797H349.702ZM342.66 103.985L343.248 104.465L350.289 95.8603L349.702 95.3797L349.114 94.8991L342.073 103.504L342.66 103.985ZM342.66 121.194H343.42V103.985H342.66H341.901V121.194H342.66ZM147.065 121.194V121.953H342.66V121.194V120.435H147.065V121.194ZM147.065 186.121H147.824V121.194H147.065H146.306V186.121H147.065ZM35.184 186.121V186.88H147.065V186.121V185.362H35.184V186.121ZM35.184 234.621H35.9431V186.121H35.184H34.4248V234.621H35.184ZM50.8316 234.621V233.862H35.184V234.621V235.379H50.8316V234.621ZM50.8316 306.589C51.5907 306.594 51.5907 306.594 51.5907 306.594C51.5907 306.594 51.5907 306.592 51.5907 306.591C51.5907 306.589 51.5907 306.587 51.5909 306.584C51.5909 306.578 51.5909 306.569 51.5909 306.559C51.591 306.534 51.5913 306.501 51.5915 306.454C51.592 306.363 51.5927 306.226 51.5936 306.049C51.5954 305.69 51.5982 305.164 51.6015 304.484C51.608 303.125 51.6173 301.158 51.6275 298.72C51.6478 293.847 51.6723 287.1 51.6885 279.603C51.7212 264.61 51.7212 246.612 51.5907 234.613L50.8316 234.621L50.0727 234.63C50.2029 246.619 50.2029 264.606 50.1703 279.599C50.1541 287.095 50.1296 293.841 50.1093 298.714C50.0991 301.15 50.0898 303.117 50.0833 304.476C50.08 305.156 50.0772 305.683 50.0754 306.039C50.0745 306.219 50.0737 306.355 50.0733 306.446C50.0731 306.492 50.0728 306.527 50.0728 306.55C50.0727 306.562 50.0727 306.571 50.0727 306.575C50.0727 306.578 50.0727 306.581 50.0725 306.583V306.584C50.0725 306.584 50.0725 306.584 50.8316 306.589ZM0.759109 306.589V307.348H50.8316V306.589V305.83H0.759109V306.589ZM0.759109 405.936H1.51822V306.589H0.759109H0V405.936H0.759109ZM29.7073 432.532L29.8461 431.785C21.1978 430.178 15.2762 428.145 10.9411 424.333C6.61544 420.531 3.76784 414.864 1.49568 405.752L0.759109 405.936L0.0225424 406.119C2.32454 415.352 5.27283 421.372 9.93858 425.473C14.595 429.567 20.8603 431.659 29.5685 433.279L29.7073 432.532ZM114.205 432.532V431.773H29.7073V432.532V433.291H114.205V432.532ZM298.848 219.758H299.607V175.952H298.848H298.089V219.758H298.848ZM298.848 220.541H299.607V219.758H298.848H298.089V220.541H298.848ZM311.365 220.541V219.782H298.848V220.541V221.3H311.365V220.541ZM311.365 229.928H312.124V220.541H311.365H310.606V229.928H311.365ZM373.174 229.928V229.169H311.365V229.928V230.687H373.174V229.928ZM373.174 276.081H373.933V229.928H373.174H372.414V276.081H373.174ZM390.386 276.081V275.322H373.174V276.081V276.84H390.386V276.081ZM390.386 259.653H389.627V276.081H390.386H391.145V259.653H390.386ZM377.868 259.653V260.412H390.386V259.653V258.894H377.868V259.653ZM377.868 214.283H377.109V259.653H377.868H378.627V214.283H377.868ZM424.811 214.283V213.524H377.868V214.283V215.042H424.811V214.283ZM424.811 226.017H425.57V214.283H424.811H424.052V226.017H424.811ZM441.241 226.017V225.258H424.811V226.017V226.776H441.241V226.017ZM441.241 215.848H440.482V226.017H441.241H442.001V215.848H441.241ZM427.94 215.848V216.607H441.241V215.848V215.089H427.94V215.848ZM427.94 104.767H427.181V215.848H427.94H428.699V104.767H427.94ZM386.475 104.767V105.526H427.94V104.767V104.008H386.475V104.767ZM386.475 175.952H387.234V104.767H386.475H385.716V175.952H386.475ZM298.848 175.952V176.711H386.475V175.952V175.193H298.848V175.952ZM428.724 334.75V335.509H438.894V334.75V333.991H428.724V334.75ZM428.724 262.782H427.965V334.75H428.724H429.483V262.782H428.724ZM409.946 262.782V263.541H428.724V262.782V262.023H409.946V262.782ZM409.946 259.653H409.187V262.782H409.946H410.705V259.653H409.946ZM489.748 259.653V258.894H409.946V259.653V260.412H489.748V259.653ZM489.748 181.428H488.989V259.653H489.748H490.508V181.428H489.748ZM569.552 181.428V180.669H489.748V181.428V182.187H569.552V181.428ZM569.552 197.855H570.311V181.428H569.552H568.793V197.855H569.552ZM563.293 207.242L563.924 207.663L570.184 198.276L569.552 197.855L568.921 197.435L562.661 206.822L563.293 207.242ZM563.293 218.195H564.052V207.242H563.293H562.533V218.195H563.293ZM568.77 233.057H569.529C569.529 229.138 569.314 226.363 568.471 224.021C567.619 221.648 566.153 219.79 563.807 217.634L563.293 218.195L562.779 218.753C565.035 220.825 566.308 222.486 567.043 224.534C567.789 226.61 568.011 229.153 568.011 233.057H568.77ZM560.163 245.573L560.627 246.174C563.253 244.152 564.902 242.722 566.177 240.872C567.448 239.029 568.316 236.816 569.49 233.297L568.77 233.057L568.049 232.817C566.876 236.339 566.063 238.364 564.928 240.011C563.798 241.649 562.318 242.957 559.7 244.972L560.163 245.573ZM560.163 305.024H560.923V245.573H560.163H559.404V305.024H560.163ZM512.438 305.024V305.783H560.163V305.024V304.265H512.438V305.024ZM512.438 293.29H511.679V305.024H512.438H513.197V293.29H512.438ZM438.894 293.29L438.902 294.049C451.158 293.919 469.543 293.762 484.861 293.717C492.521 293.694 499.412 293.698 504.387 293.749C506.875 293.774 508.878 293.809 510.257 293.859C510.947 293.884 511.471 293.911 511.816 293.941C511.992 293.956 512.101 293.97 512.156 293.981C512.189 293.987 512.168 293.985 512.126 293.969C512.107 293.961 512.034 293.932 511.954 293.868C511.884 293.811 511.679 293.621 511.679 293.29H512.438H513.197C513.197 292.95 512.986 292.75 512.904 292.684C512.812 292.61 512.722 292.572 512.68 292.555C512.589 292.519 512.497 292.501 512.438 292.489C512.306 292.464 512.136 292.445 511.946 292.428C511.562 292.394 511.008 292.367 510.311 292.341C508.911 292.291 506.894 292.256 504.402 292.231C499.417 292.18 492.519 292.176 484.857 292.199C469.532 292.244 451.145 292.401 438.887 292.531L438.894 293.29ZM438.894 334.75H439.653V293.29H438.894H438.135V334.75H438.894ZM614.93 248.701H615.689V198.637H614.93H614.171V248.701H614.93ZM631.36 248.701V247.942H614.93V248.701V249.46H631.36V248.701ZM631.36 186.903H630.601V248.701H631.36H632.119V186.903H631.36ZM612.583 186.903V187.662H631.36V186.903V186.144H612.583V186.903ZM612.583 139.968H611.824V186.903H612.583H613.342V139.968H612.583ZM513.22 139.968V140.727H612.583V139.968V139.209H513.22V139.968ZM513.22 150.92H513.979V139.968H513.22H512.461V150.92H513.22ZM608.672 150.92V150.161H513.22V150.92V151.679H608.672V150.92ZM608.672 198.637H609.431V150.92H608.672H607.913V198.637H608.672ZM614.93 198.637V197.878H608.672V198.637V199.396H614.93V198.637ZM80.5623 234.621H79.8032V244.791H80.5623H81.3214V234.621H80.5623ZM180.707 234.621V233.862H80.5623V234.621V235.379H180.707V234.621ZM180.707 175.952H179.948V234.621H180.707H181.467V175.952H180.707ZM269.9 175.952V175.193H180.707V175.952V176.711H269.9V175.952ZM269.9 220.541H270.659V175.952H269.9H269.141V220.541H269.9ZM203.397 220.541V221.3H269.9V220.541V219.782H203.397V220.541ZM203.397 297.202H204.156V220.541H203.397H202.638V297.202H203.397ZM138.459 297.202V297.961H203.397V297.202V296.443H138.459V297.202ZM138.459 244.791H137.7V297.202H138.459H139.218V244.791H138.459ZM80.5623 244.791V245.55H138.459V244.791V244.032H80.5623V244.791ZM114.205 368.387H114.964V333.967H114.205H113.446V368.387H114.205ZM143.153 368.387V367.628H114.205V368.387V369.146H143.153V368.387ZM143.153 362.129H142.394V368.387H143.153H143.912V362.129H143.153ZM155.671 350.395L155.151 349.842L142.634 361.576L143.153 362.129L143.672 362.683L156.19 350.949L155.671 350.395ZM219.826 350.395V349.636H155.671V350.395V351.154H219.826V350.395ZM219.826 393.42H220.585V350.395H219.826H219.067V393.42H219.826ZM244.863 393.42V392.661H219.826V393.42V394.179H244.863V393.42ZM244.863 380.903H244.104V393.42H244.863H245.622V380.903H244.863ZM309.8 380.903V380.144H244.863V380.903V381.662H309.8V380.903ZM309.8 359H309.041V380.903H309.8H310.559V359H309.8ZM285.547 359V359.759H309.8V359V358.241H285.547V359ZM285.547 276.081H284.787V359H285.547H286.306V276.081H285.547ZM334.055 276.081V275.322H285.547V276.081V276.84H334.055V276.081ZM334.055 253.395H333.296V276.081H334.055H334.814V253.395H334.055ZM312.147 253.395V254.154H334.055V253.395V252.636H312.147V253.395ZM312.147 272.169H312.906V253.395H312.147H311.388V272.169H312.147ZM240.95 272.169V272.928H312.147V272.169V271.41H240.95V272.169ZM240.95 345.701H241.71V272.169H240.95H240.191V345.701H240.95ZM190.878 345.701V346.46H240.95V345.701V344.942H190.878V345.701ZM190.878 333.967H190.119V345.701H190.878H191.637V333.967H190.878ZM114.205 333.967V334.726H190.878V333.967V333.208H114.205V333.967ZM32.8368 345.701H32.0777V359.782H32.8368H33.5959V345.701H32.8368ZM50.8316 345.701V344.942H32.8368V345.701V346.46H50.8316V345.701ZM50.8316 359.782H51.5907V345.701H50.8316H50.0725V359.782H50.8316ZM32.8368 359.782V360.541H50.8316V359.782V359.023H32.8368V359.782ZM83.6918 300.33H84.4509V277.646H83.6918H82.9327V300.33H83.6918ZM93.0805 300.33V299.571H83.6918V300.33V301.089H93.0805V300.33ZM93.0805 277.646H92.3214V300.33H93.0805H93.8396V277.646H93.0805ZM83.6918 277.646V278.405H93.0805V277.646V276.887H83.6918V277.646ZM603.194 433.314H602.435V447.394H603.194H603.953V433.314H603.194ZM603.194 432.532H602.435V433.314H603.194H603.953V432.532H603.194ZM618.061 432.532V431.773H603.194V432.532V433.291H618.061V432.532ZM618.061 447.394H618.82V432.532H618.061H617.302V447.394H618.061ZM603.194 447.394V448.153H618.061V447.394V446.635H603.194V447.394ZM643.096 368.387V367.628H639.184V368.387V369.146H643.096V368.387ZM643.096 320.67H642.337V368.387H643.096H643.855V320.67H643.096ZM652.485 320.67V319.911H643.096V320.67V321.429H652.485V320.67ZM654.832 315.194L654.074 315.144C653.997 316.315 653.856 317.127 653.554 317.852C653.255 318.573 652.773 319.264 651.934 320.148L652.485 320.67L653.036 321.192C653.945 320.234 654.559 319.39 654.955 318.435C655.351 317.485 655.508 316.48 655.59 315.243L654.832 315.194ZM652.485 310.501L651.99 311.076C652.767 311.744 653.23 312.263 653.529 312.845C653.828 313.426 654 314.136 654.074 315.244L654.832 315.194L655.59 315.143C655.508 313.931 655.312 312.989 654.879 312.151C654.448 311.313 653.816 310.644 652.98 309.926L652.485 310.501ZM643.096 310.501V311.26H652.485V310.501V309.742H643.096V310.501ZM643.096 293.29H642.337V310.501H643.096H643.855V293.29H643.096ZM714.293 293.29V292.531H643.096V293.29V294.049H714.293V293.29ZM714.293 285.468H713.534V293.29H714.293H715.052V285.468H714.293ZM613.366 285.468V286.227H714.293V285.468V284.709H613.366V285.468ZM613.366 320.67H614.126V285.468H613.366H612.607V320.67H613.366ZM639.184 320.67V319.911H613.366V320.67V321.429H639.184V320.67ZM639.184 368.387H639.943V320.67H639.184H638.425V368.387H639.184ZM660.308 202.549V203.308H665.786V202.549V201.79H660.308V202.549ZM660.308 238.532H661.067V202.549H660.308H659.549V238.532H660.308ZM708.817 238.532V237.773H660.308V238.532V239.291H708.817V238.532ZM708.817 202.549H708.058V238.532H708.817H709.576V202.549H708.817ZM704.122 202.549V203.308H708.817V202.549V201.79H704.122V202.549ZM704.122 214.283H704.882V202.549H704.122H703.363V214.283H704.122ZM665.786 214.283V215.042H704.122V214.283V213.524H665.786V214.283ZM665.786 202.549H665.027V214.283H665.786H666.545V202.549H665.786ZM657.179 139.968H656.42V150.92H657.179H657.938V139.968H657.179ZM727.594 139.968V139.209H657.179V139.968V140.727H727.594V139.968ZM727.594 150.92H728.353V139.968H727.594H726.835V150.92H727.594ZM657.179 150.92V151.679H727.594V150.92V150.161H657.179V150.92ZM409.946 554.565V555.324H482.707V554.565V553.806H409.946V554.565ZM409.946 377.774H409.187V554.565H409.946H410.705V377.774H409.946ZM364.568 377.774V378.533H409.946V377.774V377.015H364.568V377.774ZM364.568 396.548H365.327V377.774H364.568H363.809V396.548H364.568ZM342.66 396.548V397.307H364.568V396.548V395.79H342.66V396.548ZM342.66 359H341.901V396.548H342.66H343.42V359H342.66ZM512.438 359V358.241H342.66V359V359.759H512.438V359ZM512.438 321.451H511.679V359H512.438H513.197V321.451H512.438ZM517.133 321.451V320.692H512.438V321.451V322.21H517.133V321.451ZM517.133 382.468H517.892V321.451H517.133H516.374V382.468H517.133ZM575.028 382.468V381.709H517.133V382.468V383.227H575.028V382.468ZM575.028 388.726H575.787V382.468H575.028H574.269V388.726H575.028ZM557.034 388.726V389.485H575.028V388.726V387.967H557.034V388.726ZM557.034 406.717H557.794V388.726H557.034H556.275V406.717H557.034ZM548.428 415.323L549.079 415.713C550.242 413.776 551.267 412.375 552.518 411.123C553.773 409.866 555.281 408.733 557.441 407.358L557.034 406.717L556.626 406.077C554.422 407.481 552.809 408.682 551.444 410.049C550.075 411.42 548.979 412.932 547.778 414.931L548.428 415.323ZM536.692 432.532L537.319 432.96L549.055 415.749L548.428 415.323L547.801 414.895L536.065 432.104L536.692 432.532ZM529.65 436.444L529.655 437.203C531.762 437.189 533.276 436.899 534.49 436.168C535.703 435.437 536.517 434.328 537.346 432.916L536.692 432.532L536.037 432.148C535.237 433.51 534.581 434.341 533.707 434.868C532.834 435.393 531.642 435.673 529.646 435.685L529.65 436.444ZM529.65 445.048H530.409V436.444H529.65H528.891V445.048H529.65ZM520.262 450.524L520.644 451.18L530.033 445.703L529.65 445.048L529.268 444.392L519.879 449.869L520.262 450.524ZM501.484 456.782L501.724 457.503L520.502 451.244L520.262 450.524L520.022 449.803L501.244 456.062L501.484 456.782ZM497.573 456.782V457.541H501.484V456.782V456.023H497.573V456.782ZM497.573 499.024H498.332V456.782H497.573H496.814V499.024H497.573ZM490.532 502.935L490.565 503.693C492.536 503.603 494.168 503.455 495.451 502.837C496.807 502.183 497.683 501.055 498.292 499.268L497.573 499.024L496.854 498.779C496.336 500.302 495.68 501.04 494.791 501.469C493.828 501.934 492.503 502.085 490.497 502.176L490.532 502.935ZM482.707 510.758L482.836 511.506C485.552 511.041 487.577 510.399 488.971 509.06C490.383 507.702 491.019 505.754 491.286 503.008L490.532 502.935L489.776 502.861C489.519 505.484 488.939 506.985 487.919 507.966C486.879 508.966 485.256 509.552 482.579 510.009L482.707 510.758ZM482.707 554.565H483.466V510.758H482.707H481.948V554.565H482.707ZM311.365 535.007H310.606V603.064H311.365H312.124V535.007H311.365ZM224.52 535.007V535.766H311.365V535.007V534.248H224.52V535.007ZM224.52 524.056H223.761V535.007H224.52H225.279V524.056H224.52ZM233.909 524.056V523.297H224.52V524.056V524.815H233.909V524.056ZM233.909 432.532H233.15V524.056H233.909H234.668V432.532H233.909ZM370.826 432.532V431.773H233.909V432.532V433.291H370.826V432.532ZM370.826 458.347H371.586V432.532H370.826H370.067V458.347H370.826ZM321.536 458.347V459.106H370.826V458.347V457.588H321.536V458.347ZM321.536 537.354H322.295V458.347H321.536H320.777V537.354H321.536ZM366.132 537.354V536.595H321.536V537.354V538.113H366.132V537.354ZM366.132 541.266H366.891V537.354H366.132H365.373V541.266H366.132ZM340.313 541.266V542.025H366.132V541.266V540.507H340.313V541.266ZM340.313 603.064H341.072V541.266H340.313H339.554V603.064H340.313ZM311.365 603.064V603.823H340.313V603.064V602.305H311.365V603.064Z" fill="#674A81"/>
<path d="M311.365 432.532C311.365 431.907 311.365 423.927 311.365 420.016H322.319V432.532" stroke="#674A81"/>
<path d="M409.946 537.354H397.427V548.306M397.427 548.306V554.565H409.946V548.306H397.427Z" stroke="#674A81"/>
<path d="M373.174 276.081V279.993M373.174 279.993V300.33H422.464M373.174 279.993H365.351V263.565H373.174M428.724 300.33H422.464M422.464 300.33V323.016H428.724" stroke="#674A81"/>
<path d="M285.547 288.597H291.806M291.806 288.597H310.583V276.081M291.806 288.597V294.855H285.547M298.848 220.541V229.928H312.147M180.707 175.953V162.654H191.661V175.953M147.065 199.42H35.1841" stroke="#674A81"/>
<path d="M118.899 244.791C118.899 245.416 118.899 250.266 118.899 252.613H125.941M125.941 252.613V244.791M125.941 252.613V258.088H138.459M32.8369 359V384.815H43.7904V359.782M94.6453 432.532V426.273H100.904M114.205 420.016H101.687V432.532M219.826 382.468H206.526V393.42H219.826M224.52 524.056H212.785V535.007H224.52M276.941 535.007V567.862M276.941 567.862V580.378M276.941 567.862H282.418V580.378M276.941 580.378V603.846H288.677V580.378H282.418M276.941 580.378H282.418M346.573 485.725H348.92V488.072M346.573 485.725V488.072H348.92M346.573 485.725L348.92 488.072M346.573 510.758H348.92V513.104M346.573 510.758V513.104H348.92M346.573 510.758L348.92 513.104M170.537 435.661L156.454 449.741L166.625 473.992L197.92 485.725L216.697 477.121L222.957 453.653L213.568 436.444L186.184 429.403L170.537 435.661Z" stroke="#674A81"/>
<path d="M715.859 150.92V163.435H727.595V150.92M702.558 139.968V104.767M657.18 150.92L631.361 187.686M612.583 139.968V128.235H601.631V139.968M566.424 58.6137H552.341V53.9201M552.341 53.9201V47.6622M552.341 53.9201L535.127 39.8396V27.3235M552.341 27.3235V47.6622M552.341 47.6622H566.424" stroke="#674A81"/>
<path d="M564.858 440.354V443.484L558.598 449.741H552.34C549.445 449.111 548.494 447.812 547.646 444.266M618.06 432.532L623.537 430.967H627.449C628.492 431.489 630.891 432.532 632.142 432.532C633.394 432.532 653.007 432.532 662.655 432.532V441.919H661.873V447.394H618.06" stroke="#674A81"/>
<path d="M614.93 230.71H594.589M679.085 238.532V251.831H690.821V238.532M560.163 294.073H572.681V305.024H560.163M558.598 382.468V369.952H564.857M564.857 369.952H575.028V382.468M564.857 369.952V382.468M554.687 408.282C556.369 412.042 557.842 415.309 559.882 418.451C562.759 425.079 564.153 431.205 564.857 440.354L522.608 448.959" stroke="#674A81"/>
<path d="M93.4604 299.951V360.161H50.4521V358.62H91.9185V299.951H93.4604Z" stroke="#674A81" stroke-width="0.5"/>
<path d="M373.957 279.319C359.136 282.846 348.114 296.168 348.114 312.066C348.115 330.655 363.188 345.725 381.78 345.725C400.372 345.724 415.445 330.655 415.445 312.066C415.445 307.642 414.59 303.418 413.039 299.549H413.855C415.371 303.427 416.204 307.65 416.204 312.066L416.194 312.954C415.723 331.552 400.495 346.483 381.78 346.484L380.89 346.474C362.585 346.009 347.831 331.256 347.367 312.954L347.354 312.066C347.354 295.748 358.714 282.08 373.957 278.538V279.319Z" fill="#674A81"/>
<path d="M372.39 262.782H364.567V280.774H372.39V317.632H311.365V276.864H334.837V252.613H372.39V262.782Z" fill="#4F276A"/>
<path d="M427.942 301.112H421.682V317.541H427.942L372.392 317.602V301.112L427.942 301.052V301.112Z" fill="#4F276A"/>
<path d="M331.341 300.601V288.457H335.991C336.869 288.457 337.597 288.595 338.179 288.873C338.763 289.145 339.201 289.519 339.489 289.993C339.782 290.468 339.928 291.006 339.928 291.607C339.928 292.1 339.834 292.524 339.644 292.874C339.454 293.223 339.199 293.506 338.879 293.723C338.558 293.94 338.2 294.096 337.805 294.192V294.31C338.237 294.333 338.65 294.467 339.044 294.706C339.444 294.945 339.77 295.28 340.024 295.716C340.276 296.15 340.403 296.675 340.403 297.293C340.403 297.921 340.251 298.486 339.946 298.989C339.641 299.486 339.182 299.88 338.571 300.168C337.957 300.456 337.186 300.601 336.257 300.601H331.341ZM333.541 298.762H335.908C336.706 298.762 337.282 298.611 337.634 298.307C337.989 297.997 338.167 297.603 338.167 297.12C338.167 296.76 338.079 296.437 337.9 296.148C337.722 295.855 337.47 295.626 337.14 295.461C336.812 295.291 336.421 295.206 335.967 295.206H333.541V298.762ZM333.541 293.623H335.718C336.097 293.623 336.439 293.553 336.744 293.415C337.048 293.272 337.288 293.073 337.461 292.815C337.638 292.555 337.728 292.246 337.728 291.891C337.728 291.42 337.562 291.033 337.23 290.728C336.902 290.424 336.413 290.272 335.765 290.272H333.541V293.623Z" fill="white"/>
<path d="M659.526 213.499H659.528L659.526 239.314H678.303V249.484H632.144V186.903L657.179 151.702H715.076V164.219H728.376V151.702H747.153V249.484H691.605V239.314H709.597L709.599 213.499V201.767H703.339V213.499H666.568V201.767H659.526V213.499Z" fill="#4F276A"/>
<path d="M681.844 187.957H679.495L683.77 175.813H686.486L690.769 187.957H688.421L685.176 178.302H685.081L681.844 187.957ZM681.92 183.195H688.325V184.962H681.92V183.195Z" fill="white"/>
<path d="M51.6143 301.114H91.5158V358.218H51.6143V301.114Z" fill="#4F276A"/>
<path d="M51.6143 276.863H82.9096V301.114H51.6143V276.863Z" fill="#4F276A"/>
<path d="M1.5415 307.371H51.6141V344.919H1.5415V307.371Z" fill="#4F276A"/>
<path d="M64.773 320.715H62.5551C62.4917 320.352 62.3751 320.031 62.2051 319.75C62.0351 319.464 61.8236 319.223 61.5705 319.026C61.3176 318.828 61.0289 318.68 60.7046 318.581C60.3845 318.478 60.0385 318.428 59.6668 318.428C59.0065 318.428 58.4214 318.593 57.9114 318.926C57.4013 319.253 57.002 319.736 56.7134 320.372C56.4248 321.005 56.2806 321.778 56.2806 322.69C56.2806 323.619 56.4248 324.402 56.7134 325.038C57.006 325.671 57.4054 326.15 57.9114 326.473C58.4214 326.793 59.0045 326.954 59.6609 326.954C60.0246 326.954 60.3647 326.907 60.681 326.811C61.0012 326.713 61.2878 326.569 61.5409 326.379C61.7979 326.189 62.0134 325.955 62.1873 325.679C62.3653 325.403 62.4878 325.085 62.5551 324.73L64.773 324.742C64.69 325.319 64.5101 325.861 64.2333 326.367C63.9606 326.872 63.6028 327.32 63.1599 327.707C62.7172 328.09 62.1992 328.39 61.6062 328.609C61.0131 328.821 60.3548 328.929 59.6313 328.929C58.5638 328.929 57.611 328.682 56.7728 328.187C55.9346 327.693 55.2743 326.98 54.7919 326.046C54.3096 325.114 54.0684 323.996 54.0684 322.69C54.0684 321.382 54.3116 320.263 54.7979 319.334C55.2841 318.402 55.9464 317.688 56.7846 317.194C57.6228 316.7 58.5717 316.453 59.6313 316.453C60.3073 316.453 60.936 316.547 61.5172 316.737C62.0984 316.926 62.6162 317.206 63.0709 317.573C63.5257 317.937 63.8993 318.384 64.1918 318.913C64.4883 319.439 64.6821 320.04 64.773 320.715Z" fill="white"/>
</svg>
