<svg width="750" height="760" viewBox="0 0 750 760" fill="none" xmlns="http://www.w3.org/2000/svg">
<path fill-rule="evenodd" clip-rule="evenodd" d="M722.21 283.475V415.876H748.676V589.28H696.596V543.152H624.877V582.446H631.707V621.739H525.836V579.883H420.819V731.078H357.639V625.157H243.229V668.721H91.254V623.449H126.26V618.323H121.137V606.364H47.7104V578.175H1.60547V550.841H5.02065V456.879H1.60547V431.253H18.6814L66.494 465.42H122.845V383.418H104.915V409.897H54.5407V309.955H30.6345V264.682H67.3477V181.367H216.763V121.176H351.661V28.9218H381.544L405.451 30.6302V33.1929L436.188 30.6302V33.1929H454.972V115.196H451.556V124.089H463.509V117.759H576.21V138.26H641.099V297.142H621.461V308.247H665.006V283.475H722.21ZM277.381 597.823V585.009H197.979V548.278H166.389V582.446H160.412L151.874 592.697V618.323H146.751V623.449H187.733V639.679H192.432V597.823H277.381ZM119.429 585.009V543.152H67.3477V585.009H119.429ZM205.663 506.422L226.154 467.983V464.566H214.201V438.086L222.738 421.001V388.542H174.926V416.731H150.166V440.649H186.88V499.588L196.272 520.089H197.979V506.422H205.663ZM362.76 412.46V334.728H366.176V297.142H301.288V308.247H279.942V260.412H165.534V297.142H115.16V291.162H111.745V309.955H99.7921V346.685H111.745L136.505 321.061H174.926V361.207H205.663V335.581H256.89L276.528 355.228V466.275H295.312V421.856H370.445V416.731C369.852 414.488 369.196 413.48 367.031 412.46H362.76ZM563.404 207.451H513.883V245.89H490.831V219.41H447.287V245.89H443.018V226.244H366.176V270.661H301.288V233.077H139.067V270.661H115.16V276.642H111.745V259.557H124.552V222.826H278.235V155.344H351.661V174.136H368.738V151.927H518.152L524.129 158.761V189.512H563.404V207.451ZM478.024 401.355H488.269V491.217H446.433V548.278H420.819V538.029H378.13V579.883L363.615 597.823H297.873V532.048H269.698V489.339H326.047V444.92H338.001V467.128H408.013V447.482L392.234 431.253V420.148H426.796V401.355H431.919V426.127H478.024V401.355ZM601.824 543.152V582.446H583.04V595.26H559.134V548.278H470.915V508.985H515.59V470.546H565.964V543.152H601.824ZM624.877 488.484H684.642V460.295C684.642 459.612 644.799 460.01 624.877 460.295V488.484ZM564.257 297.142V231.368H553.158V296.287H447.287V272.371H443.018V335.581H426.796V374.874H487.415L516.445 345.832H536.935V397.938H595.848L612.923 415.876H684.642V366.333H590.725V308.247H594.994V297.142H564.257Z" fill="#26003A"/>
<path d="M205.664 361.207H224.446" stroke="#674A81"/>
<path d="M295.312 443.212H303.85V437.231V436.378M303.85 436.378H304.704V421.856M303.85 436.378H295.312M186.88 485.921H174.927M174.927 485.921V497.88M174.927 485.921H162.119V497.88H174.927M174.927 497.88V548.278" stroke="#674A81" stroke-width="0.5"/>
<path d="M162.118 416.731V391.959H174.926M66.4941 264.682H79.301V252.723M79.301 252.723V245.89H67.3479M79.301 252.723H67.3479" stroke="#674A81"/>
<path d="M67.3477 232.223H74.178V204.463H67.3477M67.3477 189.512H79.3008V181.825M262.013 222.826V209.159H250.06M250.06 209.159H238.106V222.826M250.06 209.159V222.826" stroke="#674A81"/>
<path d="M197.979 548.278V539.737H196.272V548.278M79.3012 543.153V530.34H67.3481V543.153M51.126 515.818V491.902H39.1729V515.818H51.126Z" stroke="#674A81"/>
<path d="M276.528 421.856H268.843M268.843 421.856H259.452V410.752H276.528M268.843 421.856V428.69H276.528M276.528 466.275H253.476V464.566H276.528" stroke="#674A81"/>
<path d="M269.698 514.11H256.89V520.944H269.698M256.037 520.944V532.048H269.698" stroke="#674A81"/>
<path d="M577.918 515.818H589.871V504.714H577.918M710.256 589.28V577.322H704.281M704.281 577.322H696.596M704.281 577.322V570.488H696.596M559.134 560.237H546.328V548.278M488.269 435.523H501.077V423.564H488.269M431.918 401.355H458.387M641.099 152.781H624.023L591.578 148.51V151.073H576.21V138.26M563.404 189.512H577.918V201.471H563.404M544.62 296.287V231.368H554.012M513.029 296.287V284.328M459.241 296.287V284.328H447.287M366.177 297.142H390.936V308.247H366.177M366.177 327.894H373.861V334.728H366.177M362.761 362.915H377.276V374.874H362.761M391.791 421.856H389.229V420.148H391.791" stroke="#674A81"/>
<path d="M370.445 421.856H373.007V419.637M370.445 421.856V419.637H373.007M370.445 421.856L373.007 419.637" stroke="#674A81"/>
<path d="M640.245 366.333V353.519H627.438V366.333M722.21 365.478H710.256V378.292H722.21" stroke="#674A81"/>
<path d="M748.677 428.69H734.163M734.163 428.69V415.877M734.163 428.69V444.92H748.677M734.163 428.69H722.21V415.877" stroke="#674A81"/>
<path d="M637.683 460.295V447.483H624.877V460.295M748.676 511.548H715.379V497.026H748.676M659.028 488.484V500.443H647.075V488.484M538.643 397.938V426.127H536.936V397.938" stroke="#674A81"/>
<path d="M691.473 283.475V286.891H709.402M709.402 286.891V283.475M709.402 286.891V296.288H722.21M621.461 297.142V258.704M621.461 258.704V251.869M621.461 258.704H615.485V251.869H621.461M621.461 251.869H641.099" stroke="#674A81"/>
<path d="M295.714 488.937V422.258H325.648V488.937H295.714Z" stroke="#674A81" stroke-width="0.5"/>
<path d="M66.4941 409.897V308.838M139.067 270.661V297.142M373.007 334.728H390.083V375.729M567.673 447.483H538.643V397.938H595.847L612.923 415.876H567.673V447.483Z" stroke="#674A81" stroke-width="0.5"/>
<path d="M538.643 447.483V456.879H565.111V447.483H577.917V543.153" stroke="#674A81" stroke-width="0.5"/>
<path d="M435.334 226.193C431.533 226.193 428.453 229.275 428.453 233.077C428.453 236.88 431.533 239.962 435.334 239.962C439.134 239.962 442.215 236.88 442.215 233.077C442.215 229.275 439.134 226.193 435.334 226.193Z" stroke="#674A81"/>
<path d="M425.942 227.499C424.278 227.499 422.929 228.849 422.929 230.515C422.929 232.18 424.278 233.53 425.942 233.53C427.607 233.53 428.956 232.18 428.956 230.515C428.956 228.849 427.607 227.499 425.942 227.499Z" stroke="#674A81" stroke-width="0.5"/>
<path d="M623.168 359.046C621.032 359.046 619.3 360.778 619.3 362.915C619.3 365.052 621.032 366.785 623.168 366.785C625.304 366.785 627.035 365.052 627.035 362.915C627.035 360.778 625.304 359.046 623.168 359.046Z" stroke="#674A81" stroke-width="0.5"/>
<path d="M685.496 542.299H671.835V525.438H685.496V542.299Z" fill="#4F276A"/>
<path d="M624.023 489.339H578.342V478.672H624.023V489.339Z" fill="#4F276A"/>
<path d="M577.918 516.673H590.724V503.859H577.918V489.339H646.221V501.296H659.883V489.339H671.835V542.299H577.918V516.673Z" fill="#4F276A"/>
<path d="M625.29 511.284V498.43H630.209C631.137 498.43 631.908 498.576 632.523 498.868C633.142 499.158 633.604 499.553 633.909 500.056C634.219 500.557 634.374 501.126 634.374 501.762C634.374 502.286 634.274 502.733 634.073 503.106C633.873 503.473 633.603 503.772 633.264 504.004C632.925 504.233 632.546 504.399 632.128 504.499V504.624C632.585 504.65 633.021 504.789 633.439 505.045C633.861 505.296 634.207 505.652 634.475 506.112C634.743 506.571 634.876 507.129 634.876 507.781C634.876 508.446 634.716 509.046 634.393 509.576C634.072 510.103 633.587 510.521 632.938 510.826C632.289 511.131 631.473 511.284 630.49 511.284H625.29ZM627.617 509.338H630.121C630.966 509.338 631.574 509.177 631.947 508.855C632.323 508.528 632.511 508.111 632.511 507.6C632.511 507.219 632.417 506.875 632.228 506.57C632.04 506.26 631.773 506.017 631.425 505.842C631.078 505.662 630.665 505.572 630.184 505.572H627.617V509.338ZM627.617 503.896H629.92C630.322 503.896 630.683 503.824 631.006 503.676C631.327 503.526 631.581 503.314 631.764 503.043C631.953 502.766 632.046 502.44 632.046 502.064C632.046 501.566 631.871 501.155 631.52 500.834C631.173 500.511 630.656 500.35 629.97 500.35H627.617V503.896Z" fill="white"/>
<path d="M66.4946 577.322H2.45996V551.696H66.4946V577.322Z" fill="#4F276A"/>
<path d="M5.65527 456.024H66.7773V456.026L54.5408 456.077L66.7773 464.608V466.275H87.55V456.024H87.6191V542.299H80.1554V529.485H66.4933V551.696H5.65527V456.024ZM51.9798 491.047H38.3195V516.673H51.9798V491.047Z" fill="#4F276A"/>
<path d="M2.45898 432.106H18.682L51.9798 456.024H2.45898V432.106Z" fill="#4F276A"/>
<path d="M37.1095 547.16H39.5938L35.0706 534.306H32.1974L27.668 547.16H30.1523L33.5838 536.942H33.6842L37.1095 547.16ZM37.028 542.121H30.2527V543.991H37.028V542.121Z" fill="white"/>
<path d="M722.21 415.876H721.407V416.679H722.21V415.876ZM722.21 283.475H723.013V282.672H722.21V283.475ZM748.677 415.876H749.48V415.072H748.677V415.876ZM748.677 589.28V590.083H749.48V589.28H748.677ZM696.596 589.28H695.793V590.083H696.596V589.28ZM696.596 543.153H697.399V542.349H696.596V543.153ZM624.877 543.153V542.349H624.074V543.153H624.877ZM624.877 582.446H624.074V583.249H624.877V582.446ZM631.707 582.446H632.51V581.643H631.707V582.446ZM631.707 621.739V622.543H632.51V621.739H631.707ZM525.837 621.739H525.034V622.543H525.837V621.739ZM525.837 579.883H526.64V579.08H525.837V579.883ZM420.819 579.883V579.08H420.016V579.883H420.819ZM420.819 731.078V731.882H421.622V731.078H420.819ZM357.639 731.078H356.836V731.882H357.639V731.078ZM357.639 625.157H358.442V624.354H357.639V625.157ZM243.23 625.157V624.354H242.427V625.157H243.23ZM243.23 668.721V669.525H244.033V668.721H243.23ZM91.2542 668.721H90.4512V669.525H91.2542V668.721ZM91.2542 623.449V622.646H90.4512V623.449H91.2542ZM126.26 623.449V624.252H127.063V623.449H126.26ZM126.26 618.323H127.063V617.52H126.26V618.323ZM121.137 618.323H120.334V619.127H121.137V618.323ZM121.137 606.364H121.94V605.561H121.137V606.364ZM47.7107 606.364H46.9077V607.168H47.7107V606.364ZM47.7107 578.175H48.5137V577.372H47.7107V578.175ZM1.60573 578.175H0.802734V578.979H1.60573V578.175ZM1.60573 550.841V550.038H0.802734V550.841H1.60573ZM5.02092 550.841V551.644H5.82392V550.841H5.02092ZM5.02092 456.879H5.82392V456.075H5.02092V456.879ZM1.60573 456.879H0.802734V457.682H1.60573V456.879ZM1.60573 431.253V430.449H0.802734V431.253H1.60573ZM18.6817 431.253L19.1484 430.599L18.939 430.449H18.6817V431.253ZM66.4943 465.42L66.0276 466.074L66.237 466.224H66.4943V465.42ZM122.845 465.42V466.224H123.648V465.42H122.845ZM122.845 383.418H123.648V382.614H122.845V383.418ZM104.915 383.418V382.614H104.112V383.418H104.915ZM104.915 409.897V410.7H105.718V409.897H104.915ZM54.541 409.897H53.738V410.7H54.541V409.897ZM54.541 309.955H55.344V309.151H54.541V309.955ZM30.6348 309.955H29.8318V310.758H30.6348V309.955ZM30.6348 264.682V263.879H29.8318V264.682H30.6348ZM67.348 264.682V265.486H68.151V264.682H67.348ZM67.348 181.367V180.563H66.545V181.367H67.348ZM216.763 181.367V182.17H217.566V181.367H216.763ZM216.763 121.176V120.373H215.96V121.176H216.763ZM351.662 121.176V121.979H352.465V121.176H351.662ZM351.662 28.9218V28.1184H350.859V28.9218H351.662ZM381.544 28.9218L381.602 28.1205L381.573 28.1184H381.544V28.9218ZM405.451 30.6303H406.254V29.8822L405.509 29.8288L405.451 30.6303ZM405.451 33.1929H404.648V34.066L405.517 33.9934L405.451 33.1929ZM436.188 30.6303H436.991V29.7571L436.121 29.8296L436.188 30.6303ZM436.188 33.1929H435.385V33.9963H436.188V33.1929ZM454.972 33.1929H455.775V32.3895H454.972V33.1929ZM454.972 115.196V116H455.775V115.196H454.972ZM451.556 115.196V114.393H450.753V115.196H451.556ZM451.556 124.089H450.753V124.892H451.556V124.089ZM463.51 124.089V124.892H464.313V124.089H463.51ZM463.51 117.759V116.956H462.707V117.759H463.51ZM576.21 117.759H577.013V116.956H576.21V117.759ZM576.21 138.26H575.407V139.063H576.21V138.26ZM641.099 138.26H641.902V137.457H641.099V138.26ZM641.099 297.142V297.946H641.902V297.142H641.099ZM621.461 297.142V296.339H620.658V297.142H621.461ZM621.461 308.247H620.658V309.05H621.461V308.247ZM665.006 308.247V309.05H665.809V308.247H665.006ZM665.006 283.475V282.672H664.203V283.475H665.006ZM277.381 585.009H278.184V584.205H277.381V585.009ZM277.381 597.823V598.626H278.184V597.823H277.381ZM197.979 585.009H197.176V585.812H197.979V585.009ZM197.979 548.278H198.782V547.475H197.979V548.278ZM166.389 548.278V547.475H165.586V548.278H166.389ZM166.389 582.446V583.249H167.192V582.446H166.389ZM160.412 582.446V581.643H160.036L159.795 581.932L160.412 582.446ZM151.874 592.697L151.257 592.183L151.071 592.406V592.697H151.874ZM151.874 618.323V619.127H152.677V618.323H151.874ZM146.751 618.323V617.52H145.948V618.323H146.751ZM146.751 623.449H145.948V624.252H146.751V623.449ZM187.733 623.449H188.536V622.646H187.733V623.449ZM187.733 639.679H186.93V640.482H187.733V639.679ZM192.432 639.679V640.482H193.235V639.679H192.432ZM192.432 597.823V597.019H191.629V597.823H192.432ZM119.43 543.153H120.233V542.349H119.43V543.153ZM119.43 585.009V585.812H120.233V585.009H119.43ZM67.348 543.153V542.349H66.545V543.153H67.348ZM67.348 585.009H66.545V585.812H67.348V585.009ZM226.155 467.983L226.863 468.361L226.958 468.184V467.983H226.155ZM205.664 506.422V507.225H206.146L206.372 506.801L205.664 506.422ZM226.155 464.566H226.958V463.762H226.155V464.566ZM214.201 464.566H213.398V465.369H214.201V464.566ZM214.201 438.086L213.483 437.726L213.398 437.897V438.086H214.201ZM222.739 421.001L223.457 421.361L223.542 421.191V421.001H222.739ZM222.739 388.542H223.542V387.738H222.739V388.542ZM174.927 388.542V387.738H174.124V388.542H174.927ZM174.927 416.731V417.534H175.73V416.731H174.927ZM150.166 416.731V415.927H149.363V416.731H150.166ZM150.166 440.649H149.363V441.452H150.166V440.649ZM186.88 440.649H187.683V439.846H186.88V440.649ZM186.88 499.588H186.077V499.763L186.149 499.924L186.88 499.588ZM196.272 520.089L195.541 520.425L195.756 520.892H196.272V520.089ZM197.979 520.089V520.892H198.782V520.089H197.979ZM197.979 506.422V505.619H197.176V506.422H197.979ZM362.761 334.728V333.924H361.958V334.728H362.761ZM362.761 412.46H361.958V413.263H362.761V412.46ZM366.177 334.728V335.531H366.98V334.728H366.177ZM366.177 297.142H366.98V296.339H366.177V297.142ZM301.288 297.142V296.339H300.485V297.142H301.288ZM301.288 308.247V309.05H302.091V308.247H301.288ZM279.943 308.247H279.14V309.05H279.943V308.247ZM279.943 260.412H280.746V259.608H279.943V260.412ZM165.535 260.412V259.608H164.732V260.412H165.535ZM165.535 297.142V297.946H166.338V297.142H165.535ZM115.161 297.142H114.358V297.946H115.161V297.142ZM115.161 291.162H115.964V290.359H115.161V291.162ZM111.745 291.162V290.359H110.942V291.162H111.745ZM111.745 309.955V310.758H112.548V309.955H111.745ZM99.7923 309.955V309.151H98.9893V309.955H99.7923ZM99.7923 346.685H98.9893V347.489H99.7923V346.685ZM111.745 346.685V347.489H112.086L112.323 347.244L111.745 346.685ZM136.506 321.061V320.257H136.165L135.928 320.501L136.506 321.061ZM174.927 321.061H175.73V320.257H174.927V321.061ZM174.927 361.207H174.124V362.011H174.927V361.207ZM205.664 361.207V362.011H206.467V361.207H205.664ZM205.664 335.581V334.778H204.861V335.581H205.664ZM256.89 335.581L257.459 335.014L257.223 334.778H256.89V335.581ZM276.528 355.228H277.331V354.896L277.095 354.66L276.528 355.228ZM276.528 466.275H275.725V467.079H276.528V466.275ZM295.312 466.275V467.079H296.115V466.275H295.312ZM295.312 421.856V421.053H294.509V421.856H295.312ZM370.445 421.856V422.66H371.248V421.856H370.445ZM370.445 416.731H371.248V416.626L371.223 416.525L370.445 416.731ZM367.031 412.46L367.373 411.734L367.209 411.656H367.031V412.46ZM513.883 207.451V206.648H513.08V207.451H513.883ZM563.404 207.451V208.254H564.207V207.451H563.404ZM513.883 245.89V246.693H514.686V245.89H513.883ZM490.831 245.89H490.028V246.693H490.831V245.89ZM490.831 219.41H491.634V218.607H490.831V219.41ZM447.287 219.41V218.607H446.484V219.41H447.287ZM447.287 245.89V246.693H448.09V245.89H447.287ZM443.019 245.89H442.216V246.693H443.019V245.89ZM443.019 226.244H443.822V225.44H443.019V226.244ZM366.177 226.244V225.44H365.374V226.244H366.177ZM366.177 270.661V271.465H366.98V270.661H366.177ZM301.288 270.661H300.485V271.465H301.288V270.661ZM301.288 233.077H302.091V232.274H301.288V233.077ZM139.067 233.077V232.274H138.264V233.077H139.067ZM139.067 270.661V271.465H139.87V270.661H139.067ZM115.161 270.661V269.858H114.358V270.661H115.161ZM115.161 276.642V277.445H115.964V276.642H115.161ZM111.745 276.642H110.942V277.445H111.745V276.642ZM111.745 259.557V258.753H110.942V259.557H111.745ZM124.552 259.557V260.36H125.355V259.557H124.552ZM124.552 222.826V222.023H123.749V222.826H124.552ZM278.235 222.826V223.63H279.038V222.826H278.235ZM278.235 155.344V154.541H277.432V155.344H278.235ZM351.662 155.344H352.465V154.541H351.662V155.344ZM351.662 174.136H350.859V174.94H351.662V174.136ZM368.738 174.136V174.94H369.541V174.136H368.738ZM368.738 151.927V151.124H367.935V151.927H368.738ZM518.152 151.927L518.756 151.398L518.517 151.124H518.152V151.927ZM524.129 158.761H524.932V158.459L524.733 158.232L524.129 158.761ZM524.129 189.512H523.326V190.315H524.129V189.512ZM563.404 189.512H564.207V188.708H563.404V189.512ZM488.269 401.356H489.072V400.552H488.269V401.356ZM478.025 401.356V400.552H477.222V401.356H478.025ZM488.269 491.217V492.02H489.072V491.217H488.269ZM446.433 491.217V490.414H445.63V491.217H446.433ZM446.433 548.278V549.081H447.236V548.278H446.433ZM420.819 548.278H420.016V549.081H420.819V548.278ZM420.819 538.029H421.622V537.225H420.819V538.029ZM378.13 538.029V537.225H377.327V538.029H378.13ZM378.13 579.883L378.753 580.389L378.933 580.168V579.883H378.13ZM363.615 597.823V598.626H363.999L364.24 598.327L363.615 597.823ZM297.874 597.823H297.071V598.626H297.874V597.823ZM297.874 532.048H298.677V531.245H297.874V532.048ZM269.698 532.048H268.895V532.852H269.698V532.048ZM269.698 489.339V488.535H268.895V489.339H269.698ZM326.048 489.339V490.142H326.851V489.339H326.048ZM326.048 444.92V444.116H325.245V444.92H326.048ZM338.001 444.92H338.804V444.116H338.001V444.92ZM338.001 467.128H337.198V467.932H338.001V467.128ZM408.013 467.128V467.932H408.816V467.128H408.013ZM408.013 447.483H408.816V447.156L408.588 446.922L408.013 447.483ZM392.234 431.253H391.431V431.579L391.659 431.812L392.234 431.253ZM392.234 420.148V419.345H391.431V420.148H392.234ZM426.797 420.148V420.952H427.6V420.148H426.797ZM426.797 401.356V400.552H425.994V401.356H426.797ZM431.92 401.356H432.723V400.552H431.92V401.356ZM431.92 426.127H431.117V426.93H431.92V426.127ZM478.025 426.127V426.93H478.828V426.127H478.025ZM601.824 582.446V583.249H602.627V582.446H601.824ZM601.824 543.153H602.627V542.349H601.824V543.153ZM583.041 582.446V581.643H582.238V582.446H583.041ZM583.041 595.26V596.063H583.844V595.26H583.041ZM559.134 595.26H558.331V596.063H559.134V595.26ZM559.134 548.278H559.937V547.475H559.134V548.278ZM470.915 548.278H470.112V549.081H470.915V548.278ZM470.915 508.985V508.181H470.112V508.985H470.915ZM515.59 508.985V509.788H516.393V508.985H515.59ZM515.59 470.546V469.743H514.787V470.546H515.59ZM565.964 470.546H566.767V469.743H565.964V470.546ZM565.964 543.153H565.161V543.956H565.964V543.153ZM684.642 488.484V489.287H685.445V488.484H684.642ZM624.877 488.484H624.074V489.287H624.877V488.484ZM624.877 460.295L624.866 459.491L624.074 459.503V460.295H624.877ZM564.257 231.368H565.06V230.564H564.257V231.368ZM564.257 297.142H563.454V297.946H564.257V297.142ZM553.158 231.368V230.564H552.355V231.368H553.158ZM553.158 296.288V297.091H553.961V296.288H553.158ZM447.287 296.288H446.484V297.091H447.287V296.288ZM447.287 272.371H448.09V271.567H447.287V272.371ZM443.019 272.371V271.567H442.216V272.371H443.019ZM443.019 335.581V336.384H443.822V335.581H443.019ZM426.797 335.581V334.778H425.994V335.581H426.797ZM426.797 374.874H425.994V375.678H426.797V374.874ZM487.415 374.874V375.678H487.749L487.983 375.443L487.415 374.874ZM516.445 345.832V345.029H516.112L515.876 345.263L516.445 345.832ZM536.936 345.832H537.739V345.029H536.936V345.832ZM536.936 397.938H536.133V398.741H536.936V397.938ZM595.848 397.938L596.43 397.384L596.192 397.135H595.848V397.938ZM612.923 415.876L612.342 416.43L612.58 416.679H612.923V415.876ZM684.642 415.876V416.679H685.445V415.876H684.642ZM684.642 366.333H685.445V365.529H684.642V366.333ZM590.725 366.333H589.922V367.136H590.725V366.333ZM590.725 308.247V307.443H589.922V308.247H590.725ZM594.994 308.247V309.05H595.797V308.247H594.994ZM594.994 297.142H595.797V296.339H594.994V297.142ZM722.21 415.876H723.013V283.475H722.21H721.407V415.876H722.21ZM748.677 415.876V415.072H722.21V415.876V416.679H748.677V415.876ZM748.677 589.28H749.48V415.876H748.677H747.874V589.28H748.677ZM696.596 589.28V590.083H748.677V589.28V588.476H696.596V589.28ZM696.596 543.153H695.793V589.28H696.596H697.399V543.153H696.596ZM624.877 543.153V543.956H696.596V543.153V542.349H624.877V543.153ZM624.877 582.446H625.68V543.153H624.877H624.074V582.446H624.877ZM631.707 582.446V581.643H624.877V582.446V583.249H631.707V582.446ZM631.707 621.739H632.51V582.446H631.707H630.904V621.739H631.707ZM525.837 621.739V622.543H631.707V621.739V620.936H525.837V621.739ZM525.837 579.883H525.034V621.739H525.837H526.64V579.883H525.837ZM420.819 579.883V580.687H525.837V579.883V579.08H420.819V579.883ZM420.819 731.078H421.622V579.883H420.819H420.016V731.078H420.819ZM357.639 731.078V731.882H420.819V731.078V730.275H357.639V731.078ZM357.639 625.157H356.836V731.078H357.639H358.442V625.157H357.639ZM243.23 625.157V625.96H357.639V625.157V624.354H243.23V625.157ZM243.23 668.721H244.033V625.157H243.23H242.427V668.721H243.23ZM91.2542 668.721V669.525H243.23V668.721V667.918H91.2542V668.721ZM91.2542 623.449H90.4512V668.721H91.2542H92.0572V623.449H91.2542ZM126.26 623.449V622.646H91.2542V623.449V624.252H126.26V623.449ZM126.26 618.323H125.457V623.449H126.26H127.063V618.323H126.26ZM121.137 618.323V619.127H126.26V618.323V617.52H121.137V618.323ZM121.137 606.364H120.334V618.323H121.137H121.94V606.364H121.137ZM47.7107 606.364V607.168H121.137V606.364V605.561H47.7107V606.364ZM47.7107 578.175H46.9077V606.364H47.7107H48.5137V578.175H47.7107ZM1.60573 578.175V578.979H47.7107V578.175V577.372H1.60573V578.175ZM1.60573 550.841H0.802734V578.175H1.60573H2.40873V550.841H1.60573ZM5.02092 550.841V550.038H1.60573V550.841V551.644H5.02092V550.841ZM5.02092 456.879H4.21792V550.841H5.02092H5.82392V456.879H5.02092ZM1.60573 456.879V457.682H5.02092V456.879V456.075H1.60573V456.879ZM1.60573 431.253H0.802734V456.879H1.60573H2.40873V431.253H1.60573ZM18.6817 431.253V430.449H1.60573V431.253V432.056H18.6817V431.253ZM66.4943 465.42L66.961 464.767L19.1484 430.599L18.6817 431.253L18.215 431.907L66.0276 466.074L66.4943 465.42ZM122.845 465.42V464.617H66.4943V465.42V466.224H122.845V465.42ZM122.845 383.418H122.042V465.42H122.845H123.648V383.418H122.845ZM104.915 383.418V384.221H122.845V383.418V382.614H104.915V383.418ZM104.915 409.897H105.718V383.418H104.915H104.112V409.897H104.915ZM54.541 409.897V410.7H104.915V409.897V409.094H54.541V409.897ZM54.541 309.955H53.738V409.897H54.541H55.344V309.955H54.541ZM30.6348 309.955V310.758H54.541V309.955V309.151H30.6348V309.955ZM30.6348 264.682H29.8318V309.955H30.6348H31.4378V264.682H30.6348ZM67.348 264.682V263.879H30.6348V264.682V265.486H67.348V264.682ZM67.348 181.367H66.545V264.682H67.348H68.151V181.367H67.348ZM216.763 181.367V180.563H67.348V181.367V182.17H216.763V181.367ZM216.763 121.176H215.96V181.367H216.763H217.566V121.176H216.763ZM351.662 121.176V120.373H216.763V121.176V121.979H351.662V121.176ZM351.662 28.9218H350.859V121.176H351.662H352.465V28.9218H351.662ZM381.544 28.9218V28.1184H351.662V28.9218V29.7252H381.544V28.9218ZM405.451 30.6303L405.509 29.8288L381.602 28.1205L381.544 28.9218L381.488 29.7231L405.393 31.4316L405.451 30.6303ZM405.451 33.1929H406.254V30.6303H405.451H404.648V33.1929H405.451ZM436.188 30.6303L436.121 29.8296L405.384 32.3922L405.451 33.1929L405.517 33.9934L436.254 31.4308L436.188 30.6303ZM436.188 33.1929H436.991V30.6303H436.188H435.385V33.1929H436.188ZM454.972 33.1929V32.3895H436.188V33.1929V33.9963H454.972V33.1929ZM454.972 115.196H455.775V33.1929H454.972H454.169V115.196H454.972ZM451.556 115.196V116H454.972V115.196V114.393H451.556V115.196ZM451.556 124.089H452.359V115.196H451.556H450.753V124.089H451.556ZM463.51 124.089V123.286H451.556V124.089V124.892H463.51V124.089ZM463.51 117.759H462.707V124.089H463.51H464.313V117.759H463.51ZM576.21 117.759V116.956H463.51V117.759V118.563H576.21V117.759ZM576.21 138.26H577.013V117.759H576.21H575.407V138.26H576.21ZM641.099 138.26V137.457H576.21V138.26V139.063H641.099V138.26ZM641.099 297.142H641.902V138.26H641.099H640.296V297.142H641.099ZM621.461 297.142V297.946H641.099V297.142V296.339H621.461V297.142ZM621.461 308.247H622.264V297.142H621.461H620.658V308.247H621.461ZM665.006 308.247V307.443H621.461V308.247V309.05H665.006V308.247ZM665.006 283.475H664.203V308.247H665.006H665.809V283.475H665.006ZM722.21 283.475V282.672H665.006V283.475V284.279H722.21V283.475ZM277.381 585.009H276.578V597.823H277.381H278.184V585.009H277.381ZM197.979 585.009V585.812H277.381V585.009V584.205H197.979V585.009ZM197.979 548.278H197.176V585.009H197.979H198.782V548.278H197.979ZM166.389 548.278V549.081H197.979V548.278V547.475H166.389V548.278ZM166.389 582.446H167.192V548.278H166.389H165.586V582.446H166.389ZM160.412 582.446V583.249H166.389V582.446V581.643H160.412V582.446ZM151.874 592.697L152.491 593.211L161.028 582.96L160.412 582.446L159.795 581.932L151.257 592.183L151.874 592.697ZM151.874 618.323H152.677V592.697H151.874H151.071V618.323H151.874ZM146.751 618.323V619.127H151.874V618.323V617.52H146.751V618.323ZM146.751 623.449H147.554V618.323H146.751H145.948V623.449H146.751ZM187.733 623.449V622.646H146.751V623.449V624.252H187.733V623.449ZM187.733 639.679H188.536V623.449H187.733H186.93V639.679H187.733ZM192.432 639.679V638.876H187.733V639.679V640.482H192.432V639.679ZM192.432 597.823H191.629V639.679H192.432H193.235V597.823H192.432ZM277.381 597.823V597.019H192.432V597.823V598.626H277.381V597.823ZM119.43 543.153H118.627V585.009H119.43H120.233V543.153H119.43ZM67.348 543.153V543.956H119.43V543.153V542.349H67.348V543.153ZM67.348 585.009H68.151V543.153H67.348H66.545V585.009H67.348ZM119.43 585.009V584.205H67.348V585.009V585.812H119.43V585.009ZM226.155 467.983L225.446 467.606L204.954 506.044L205.664 506.422L206.372 506.801L226.863 468.361L226.155 467.983ZM226.155 464.566H225.352V467.983H226.155H226.958V464.566H226.155ZM214.201 464.566V465.369H226.155V464.566V463.762H214.201V464.566ZM214.201 438.086H213.398V464.566H214.201H215.004V438.086H214.201ZM222.739 421.001L222.021 420.643L213.483 437.726L214.201 438.086L214.919 438.444L223.457 421.361L222.739 421.001ZM222.739 388.542H221.936V421.001H222.739H223.542V388.542H222.739ZM174.927 388.542V389.345H222.739V388.542V387.738H174.927V388.542ZM174.927 416.731H175.73V388.542H174.927H174.124V416.731H174.927ZM150.166 416.731V417.534H174.927V416.731V415.927H150.166V416.731ZM150.166 440.649H150.969V416.731H150.166H149.363V440.649H150.166ZM186.88 440.649V439.846H150.166V440.649V441.452H186.88V440.649ZM186.88 499.588H187.683V440.649H186.88H186.077V499.588H186.88ZM196.272 520.089L197.001 519.755L187.609 499.254L186.88 499.588L186.149 499.924L195.541 520.425L196.272 520.089ZM197.979 520.089V519.286H196.272V520.089V520.892H197.979V520.089ZM197.979 506.422H197.176V520.089H197.979H198.782V506.422H197.979ZM205.664 506.422V505.619H197.979V506.422V507.225H205.664V506.422ZM362.761 334.728H361.958V412.46H362.761H363.564V334.728H362.761ZM366.177 334.728V333.924H362.761V334.728V335.531H366.177V334.728ZM366.177 297.142H365.374V334.728H366.177H366.98V297.142H366.177ZM301.288 297.142V297.946H366.177V297.142V296.339H301.288V297.142ZM301.288 308.247H302.091V297.142H301.288H300.485V308.247H301.288ZM279.943 308.247V309.05H301.288V308.247V307.443H279.943V308.247ZM279.943 260.412H279.14V308.247H279.943H280.746V260.412H279.943ZM165.535 260.412V261.215H279.943V260.412V259.608H165.535V260.412ZM165.535 297.142H166.338V260.412H165.535H164.732V297.142H165.535ZM115.161 297.142V297.946H165.535V297.142V296.339H115.161V297.142ZM115.161 291.162H114.358V297.142H115.161H115.964V291.162H115.161ZM111.745 291.162V291.965H115.161V291.162V290.359H111.745V291.162ZM111.745 309.955H112.548V291.162H111.745H110.942V309.955H111.745ZM99.7923 309.955V310.758H111.745V309.955V309.151H99.7923V309.955ZM99.7923 346.685H100.595V309.955H99.7923H98.9893V346.685H99.7923ZM111.745 346.685V345.882H99.7923V346.685V347.489H111.745V346.685ZM136.506 321.061L135.928 320.501L111.168 346.128L111.745 346.685L112.323 347.244L137.083 321.618L136.506 321.061ZM174.927 321.061V320.257H136.506V321.061V321.864H174.927V321.061ZM174.927 361.207H175.73V321.061H174.927H174.124V361.207H174.927ZM205.664 361.207V360.404H174.927V361.207V362.011H205.664V361.207ZM205.664 335.581H204.861V361.207H205.664H206.467V335.581H205.664ZM256.89 335.581V334.778H205.664V335.581V336.384H256.89V335.581ZM276.528 355.228L277.095 354.66L257.459 335.014L256.89 335.581L256.323 336.15L275.96 355.796L276.528 355.228ZM276.528 466.275H277.331V355.228H276.528H275.725V466.275H276.528ZM295.312 466.275V465.472H276.528V466.275V467.079H295.312V466.275ZM295.312 421.856H294.509V466.275H295.312H296.115V421.856H295.312ZM370.445 421.856V421.053H295.312V421.856V422.66H370.445V421.856ZM370.445 416.731H369.642V421.856H370.445H371.248V416.731H370.445ZM367.031 412.46L366.689 413.186C367.709 413.668 368.29 414.107 368.692 414.627C369.101 415.158 369.381 415.845 369.67 416.936L370.445 416.731L371.223 416.525C370.917 415.373 370.572 414.435 369.964 413.646C369.347 412.847 368.518 412.272 367.373 411.734L367.031 412.46ZM362.761 412.46V413.263H367.031V412.46V411.656H362.761V412.46ZM513.883 207.451V208.254H563.404V207.451V206.648H513.883V207.451ZM513.883 245.89H514.686V207.451H513.883H513.08V245.89H513.883ZM490.831 245.89V246.693H513.883V245.89V245.086H490.831V245.89ZM490.831 219.41H490.028V245.89H490.831H491.634V219.41H490.831ZM447.287 219.41V220.214H490.831V219.41V218.607H447.287V219.41ZM447.287 245.89H448.09V219.41H447.287H446.484V245.89H447.287ZM443.019 245.89V246.693H447.287V245.89V245.086H443.019V245.89ZM443.019 226.244H442.216V245.89H443.019H443.822V226.244H443.019ZM366.177 226.244V227.047H443.019V226.244V225.44H366.177V226.244ZM366.177 270.661H366.98V226.244H366.177H365.374V270.661H366.177ZM301.288 270.661V271.465H366.177V270.661V269.858H301.288V270.661ZM301.288 233.077H300.485V270.661H301.288H302.091V233.077H301.288ZM139.067 233.077V233.881H301.288V233.077V232.274H139.067V233.077ZM139.067 270.661H139.87V233.077H139.067H138.264V270.661H139.067ZM115.161 270.661V271.465H139.067V270.661V269.858H115.161V270.661ZM115.161 276.642H115.964V270.661H115.161H114.358V276.642H115.161ZM111.745 276.642V277.445H115.161V276.642V275.838H111.745V276.642ZM111.745 259.557H110.942V276.642H111.745H112.548V259.557H111.745ZM124.552 259.557V258.753H111.745V259.557V260.36H124.552V259.557ZM124.552 222.826H123.749V259.557H124.552H125.355V222.826H124.552ZM278.235 222.826V222.023H124.552V222.826V223.63H278.235V222.826ZM278.235 155.344H277.432V222.826H278.235H279.038V155.344H278.235ZM351.662 155.344V154.541H278.235V155.344V156.148H351.662V155.344ZM351.662 174.136H352.465V155.344H351.662H350.859V174.136H351.662ZM368.738 174.136V173.333H351.662V174.136V174.94H368.738V174.136ZM368.738 151.927H367.935V174.136H368.738H369.541V151.927H368.738ZM518.152 151.927V151.124H368.738V151.927V152.731H518.152V151.927ZM524.129 158.761L524.733 158.232L518.756 151.398L518.152 151.927L517.548 152.456L523.524 159.29L524.129 158.761ZM524.129 189.512H524.932V158.761H524.129H523.326V189.512H524.129ZM563.404 189.512V188.708H524.129V189.512V190.315H563.404V189.512ZM563.404 207.451H564.207V189.512H563.404H562.601V207.451H563.404ZM488.269 401.356V400.552H478.025V401.356V402.159H488.269V401.356ZM488.269 491.217H489.072V401.356H488.269H487.466V491.217H488.269ZM446.433 491.217V492.02H488.269V491.217V490.414H446.433V491.217ZM446.433 548.278H447.236V491.217H446.433H445.63V548.278H446.433ZM420.819 548.278V549.081H446.433V548.278V547.475H420.819V548.278ZM420.819 538.029H420.016V548.278H420.819H421.622V538.029H420.819ZM378.13 538.029V538.832H420.819V538.029V537.225H378.13V538.029ZM378.13 579.883H378.933V538.029H378.13H377.327V579.883H378.13ZM363.615 597.823L364.24 598.327L378.753 580.389L378.13 579.883L377.505 579.379L362.99 597.317L363.615 597.823ZM297.874 597.823V598.626H363.615V597.823V597.019H297.874V597.823ZM297.874 532.048H297.071V597.823H297.874H298.677V532.048H297.874ZM269.698 532.048V532.852H297.874V532.048V531.245H269.698V532.048ZM269.698 489.339H268.895V532.048H269.698H270.501V489.339H269.698ZM326.048 489.339V488.535H269.698V489.339V490.142H326.048V489.339ZM326.048 444.92H325.245V489.339H326.048H326.851V444.92H326.048ZM338.001 444.92V444.116H326.048V444.92V445.723H338.001V444.92ZM338.001 467.128H338.804V444.92H338.001H337.198V467.128H338.001ZM408.013 467.128V466.325H338.001V467.128V467.932H408.013V467.128ZM408.013 447.483H407.21V467.128H408.013H408.816V447.483H408.013ZM392.234 431.253L391.659 431.812L407.436 448.042L408.013 447.483L408.588 446.922L392.809 430.692L392.234 431.253ZM392.234 420.148H391.431V431.253H392.234H393.037V420.148H392.234ZM426.797 420.148V419.345H392.234V420.148V420.952H426.797V420.148ZM426.797 401.356H425.994V420.148H426.797H427.6V401.356H426.797ZM431.92 401.356V400.552H426.797V401.356V402.159H431.92V401.356ZM431.92 426.127H432.723V401.356H431.92H431.117V426.127H431.92ZM478.025 426.127V425.324H431.92V426.127V426.93H478.025V426.127ZM478.025 401.356H477.222V426.127H478.025H478.828V401.356H478.025ZM601.824 582.446H602.627V543.153H601.824H601.021V582.446H601.824ZM583.041 582.446V583.249H601.824V582.446V581.643H583.041V582.446ZM583.041 595.26H583.844V582.446H583.041H582.238V595.26H583.041ZM559.134 595.26V596.063H583.041V595.26V594.457H559.134V595.26ZM559.134 548.278H558.331V595.26H559.134H559.937V548.278H559.134ZM470.915 548.278V549.081H559.134V548.278V547.475H470.915V548.278ZM470.915 508.985H470.112V548.278H470.915H471.718V508.985H470.915ZM515.59 508.985V508.181H470.915V508.985V509.788H515.59V508.985ZM515.59 470.546H514.787V508.985H515.59H516.393V470.546H515.59ZM565.964 470.546V469.743H515.59V470.546V471.349H565.964V470.546ZM565.964 543.153H566.767V470.546H565.964H565.161V543.153H565.964ZM601.824 543.153V542.349H565.964V543.153V543.956H601.824V543.153ZM684.642 488.484V487.681H624.877V488.484V489.287H684.642V488.484ZM684.642 460.295H683.839V488.484H684.642H685.445V460.295H684.642ZM624.877 460.295L624.888 461.098C634.848 460.957 649.786 460.785 662.234 460.735C668.459 460.711 674.056 460.716 678.095 460.771C680.117 460.798 681.739 460.836 682.853 460.889C683.414 460.917 683.828 460.946 684.098 460.978C684.238 460.994 684.307 461.007 684.331 461.013C684.348 461.018 684.303 461.008 684.239 460.975C684.207 460.957 684.127 460.913 684.047 460.827C683.961 460.734 683.839 460.554 683.839 460.295H684.642H685.445C685.445 460.027 685.318 459.835 685.224 459.732C685.134 459.636 685.039 459.58 684.988 459.554C684.885 459.498 684.784 459.471 684.724 459.456C684.596 459.422 684.44 459.4 684.283 459.382C683.958 459.344 683.499 459.312 682.93 459.284C681.787 459.23 680.142 459.191 678.116 459.164C674.062 459.109 668.454 459.104 662.227 459.128C649.771 459.178 634.828 459.35 624.866 459.491L624.877 460.295ZM624.877 488.484H625.68V460.295H624.877H624.074V488.484H624.877ZM564.257 231.368H563.454V297.142H564.257H565.06V231.368H564.257ZM553.158 231.368V232.171H564.257V231.368V230.564H553.158V231.368ZM553.158 296.288H553.961V231.368H553.158H552.355V296.288H553.158ZM447.287 296.288V297.091H553.158V296.288V295.484H447.287V296.288ZM447.287 272.371H446.484V296.288H447.287H448.09V272.371H447.287ZM443.019 272.371V273.174H447.287V272.371V271.567H443.019V272.371ZM443.019 335.581H443.822V272.371H443.019H442.216V335.581H443.019ZM426.797 335.581V336.384H443.019V335.581V334.778H426.797V335.581ZM426.797 374.874H427.6V335.581H426.797H425.994V374.874H426.797ZM487.415 374.874V374.071H426.797V374.874V375.678H487.415V374.874ZM516.445 345.832L515.876 345.263L486.848 374.307L487.415 374.874L487.983 375.443L517.012 346.399L516.445 345.832ZM536.936 345.832V345.029H516.445V345.832V346.636H536.936V345.832ZM536.936 397.938H537.739V345.832H536.936H536.133V397.938H536.936ZM595.848 397.938V397.135H536.936V397.938V398.741H595.848V397.938ZM612.923 415.876L613.505 415.323L596.43 397.384L595.848 397.938L595.265 398.492L612.342 416.43L612.923 415.876ZM684.642 415.876V415.072H612.923V415.876V416.679H684.642V415.876ZM684.642 366.333H683.839V415.876H684.642H685.445V366.333H684.642ZM590.725 366.333V367.136H684.642V366.333V365.529H590.725V366.333ZM590.725 308.247H589.922V366.333H590.725H591.528V308.247H590.725ZM594.994 308.247V307.443H590.725V308.247V309.05H594.994V308.247ZM594.994 297.142H594.191V308.247H594.994H595.797V297.142H594.994ZM564.257 297.142V297.946H594.994V297.142V296.339H564.257V297.142Z" fill="#674A81"/>
</svg>
