<svg width="750" height="760" viewBox="0 0 750 760" fill="none" xmlns="http://www.w3.org/2000/svg">
<path fill-rule="evenodd" clip-rule="evenodd" d="M28.0741 476.525V344.124H1.60645V170.72H53.6879V216.847H125.407V177.554H118.576V138.26H224.446V180.117H329.464V28.9218H392.646V134.843H507.053V91.2787H659.029V136.552H624.023V141.677H629.146V153.636H702.572V181.825H748.677V209.159H745.263V303.121H748.677V328.747H731.602L683.788 294.58H627.439V376.582H645.368V350.103H695.742V450.045H719.649V495.317H682.936V578.633H533.522V638.824H398.621V731.078H368.739L344.832 729.37V726.807L314.096 729.37V726.807H295.313V644.803H298.727V635.911H286.773V642.24H174.073V621.739H109.185V462.858H128.822V451.753H85.2785V476.525H28.0741ZM472.902 162.177V174.991H552.304V211.722H583.896V177.554H589.871L598.409 167.303V141.677H603.532V136.552H562.55V120.322H557.851V162.177H472.902ZM630.853 174.991V216.847H682.936V174.991H630.853ZM544.621 253.578L524.13 292.017V295.434H536.082V321.914L527.544 338.999V371.458H575.356V343.269H600.118V319.351H563.405V260.412L554.013 239.911H552.304V253.578H544.621ZM387.522 347.54V425.272H384.106V462.858H448.995V451.753H470.34V499.588H584.748V462.858H635.124V468.838H638.538V450.045H650.491V413.315H638.538L613.778 438.939H575.356V398.793H544.621V424.419H493.393L473.755 404.771V293.725H454.973V338.144H379.838V343.269C380.43 345.512 381.087 346.52 383.254 347.54H387.522ZM186.881 552.549H236.4V514.11H259.452V540.59H302.996V514.11H307.266V533.756H384.106V489.339H448.995V526.923H611.217V489.339H635.124V483.358H638.538V500.443H625.732V537.174H472.048V604.656H398.621V585.864H381.545V608.072H232.131L226.155 601.239V570.488H186.881V552.549ZM272.26 358.644H262.014V268.783H303.85V211.722H329.464V221.971H372.153V180.117L386.668 162.177H452.411V227.952H480.585V270.661H424.235V315.08H412.282V292.872H342.27V312.517L358.049 328.747V339.852H323.488V358.644H318.365V333.873H272.26V358.644ZM148.459 216.847V177.554H167.242V164.74H191.149V211.722H279.37V251.015H234.693V289.454H184.319V216.847H148.459ZM125.407 271.516H65.641V299.705C65.641 300.388 105.485 299.989 125.407 299.705V271.516ZM186.026 462.858V528.632H197.125V463.712H302.996V487.629H307.266V424.419H323.488V385.126H262.868L233.838 414.168H213.347V362.062H154.436L137.36 344.124H65.641V393.667H159.559V451.753H155.29V462.858H186.026Z" fill="#26003A"/>
<path d="M544.621 398.793H525.837" stroke="#674A81"/>
<path d="M454.972 316.788H446.433V322.769V323.622M446.433 323.622H445.58V338.144M446.433 323.622H454.972M563.404 274.079H575.357M575.357 274.079V262.12M575.357 274.079H588.164V262.12H575.357M575.357 262.12V211.722" stroke="#674A81" stroke-width="0.5"/>
<path d="M588.164 343.269V368.041H575.356M683.788 495.317H670.982V507.277M670.982 507.277V514.11H682.936M670.982 507.277H682.936" stroke="#674A81"/>
<path d="M682.935 527.777H676.105V555.537H682.935M682.935 570.488H670.982V578.175M488.27 537.174V550.841H500.223M500.223 550.841H512.176V537.174M500.223 550.841V537.174" stroke="#674A81"/>
<path d="M552.304 211.722V220.264H554.012V211.722M670.982 216.848V229.66H682.935V216.848M699.158 244.182V268.099H711.111V244.182H699.158Z" stroke="#674A81"/>
<path d="M473.754 338.144H481.439M481.439 338.144H490.83V349.248H473.754M481.439 338.144V331.31H473.754M473.754 293.725H496.806V295.434H473.754" stroke="#674A81"/>
<path d="M480.586 245.89H493.392V239.056H480.586M494.247 239.056V227.952H480.586" stroke="#674A81"/>
<path d="M172.365 244.182H160.412V255.286H172.365M40.0264 170.72V182.678H46.0031M46.0031 182.678H53.6871M46.0031 182.678V189.512H53.6871M191.148 199.763H203.955V211.722M262.013 324.477H249.207V336.436H262.013M318.364 358.645H291.896M109.184 607.219H126.26L158.704 611.49V608.927H174.072V621.739M186.88 570.488H172.365V558.529H186.88M205.663 463.713V528.632H196.272M237.253 463.713V475.672M291.043 463.713V475.672H302.995M384.106 462.858H359.346V451.753H384.106M384.106 432.106H376.423V425.272H384.106M387.522 397.085H373.007V385.126H387.522M358.492 338.144H361.053V339.852H358.492" stroke="#674A81"/>
<path d="M379.837 338.144H377.275V340.363M379.837 338.144V340.363H377.275M379.837 338.144L377.275 340.363" stroke="#674A81"/>
<path d="M110.038 393.667V406.481H122.844V393.667M28.0732 394.522H40.0263V381.708H28.0732" stroke="#674A81"/>
<path d="M1.60645 331.31H16.121M16.121 331.31V344.124M16.121 331.31V315.08H1.60645M16.121 331.31H28.0741V344.124" stroke="#674A81"/>
<path d="M112.6 299.705V312.517H125.407V299.705M1.60645 248.453H34.9045V262.974H1.60645M91.2551 271.516V259.557H103.208V271.516M211.64 362.062V333.873H213.347V362.062" stroke="#674A81"/>
<path d="M58.8099 476.525V473.109H40.8801M40.8801 473.109V476.525M40.8801 473.109V463.712H28.0732M128.821 462.858V501.296M128.821 501.296V508.131M128.821 501.296H134.798V508.131H128.821M128.821 508.131H109.184" stroke="#674A81"/>
<path d="M454.571 271.063V337.742H424.637V271.063H454.571Z" stroke="#674A81" stroke-width="0.5"/>
<path d="M683.789 350.103V451.162M611.216 489.339V462.858M377.275 425.272H360.2V384.271M182.611 312.517H211.639V362.062H154.435L137.359 344.124H182.611V312.517Z" stroke="#674A81" stroke-width="0.5"/>
<path d="M211.64 312.517V303.121H185.171V312.517H172.365V216.847" stroke="#674A81" stroke-width="0.5"/>
<path d="M314.949 533.807C318.749 533.807 321.83 530.725 321.83 526.923C321.83 523.12 318.749 520.038 314.949 520.038C311.148 520.038 308.067 523.12 308.067 526.923C308.067 530.725 311.148 533.807 314.949 533.807Z" stroke="#674A81"/>
<path d="M324.341 532.5C326.005 532.5 327.355 531.151 327.355 529.485C327.355 527.82 326.005 526.47 324.341 526.47C322.676 526.47 321.327 527.82 321.327 529.485C321.327 531.151 322.676 532.5 324.341 532.5Z" stroke="#674A81" stroke-width="0.5"/>
<path d="M127.114 400.954C129.25 400.954 130.981 399.222 130.981 397.085C130.981 394.948 129.25 393.215 127.114 393.215C124.978 393.215 123.246 394.948 123.246 397.085C123.246 399.222 124.978 400.954 127.114 400.954Z" stroke="#674A81" stroke-width="0.5"/>
<path d="M64.7871 217.701H78.4479V234.562H64.7871V217.701Z" fill="#4F276A"/>
<path d="M126.26 270.661H171.941V281.329H126.26V270.661Z" fill="#4F276A"/>
<path d="M172.365 243.327H159.558V256.141H172.365V270.661H104.062V258.704H90.3997V270.661H78.4473V217.701H172.365V243.327Z" fill="#4F276A"/>
<path d="M113.866 261.856V249.002H118.785C119.713 249.002 120.485 249.148 121.099 249.441C121.718 249.73 122.181 250.125 122.486 250.628C122.795 251.129 122.95 251.698 122.95 252.334C122.95 252.858 122.85 253.305 122.649 253.678C122.448 254.046 122.179 254.344 121.84 254.576C121.501 254.806 121.122 254.971 120.704 255.071V255.196C121.16 255.222 121.597 255.362 122.015 255.617C122.438 255.868 122.783 256.224 123.05 256.684C123.318 257.145 123.452 257.701 123.452 258.353C123.452 259.019 123.291 259.618 122.969 260.148C122.647 260.675 122.162 261.093 121.513 261.398C120.865 261.703 120.05 261.856 119.067 261.856H113.866ZM116.194 259.91H118.697C119.541 259.91 120.15 259.75 120.522 259.427C120.899 259.1 121.087 258.683 121.087 258.172C121.087 257.791 120.993 257.447 120.805 257.142C120.616 256.833 120.349 256.589 120.002 256.414C119.654 256.234 119.24 256.144 118.76 256.144H116.194V259.91ZM116.194 254.468H118.496C118.897 254.468 119.259 254.396 119.581 254.248C119.903 254.099 120.156 253.887 120.34 253.615C120.529 253.339 120.623 253.012 120.623 252.636C120.623 252.138 120.447 251.727 120.096 251.406C119.748 251.083 119.232 250.922 118.546 250.922H116.194V254.468Z" fill="white"/>
<path d="M683.788 182.678H747.824V208.304H683.788V182.678Z" fill="#4F276A"/>
<path d="M744.628 303.976H683.505L695.741 303.923L683.505 295.392V293.725H662.733V303.976H662.664V217.701H670.127V230.515H683.789V208.304H744.628V303.976ZM698.303 268.953H711.963V243.327H698.303V268.953Z" fill="#4F276A"/>
<path d="M747.824 327.894H731.601L698.303 303.976H747.824V327.894Z" fill="#4F276A"/>
<path d="M713.173 225.979H710.688L715.213 213.125H718.086L722.615 225.979H720.13L716.7 215.761H716.599L713.173 225.979ZM713.255 220.94H720.031V222.81H713.255V220.94Z" fill="white"/>
<path d="M28.0733 344.124H28.8763V343.321H28.0733V344.124ZM28.0733 476.525H27.2703V477.328H28.0733V476.525ZM1.60573 344.124H0.802734V344.928H1.60573V344.124ZM1.60573 170.72V169.917H0.802734V170.72H1.60573ZM53.6872 170.72H54.4902V169.917H53.6872V170.72ZM53.6872 216.847H52.8842V217.651H53.6872V216.847ZM125.406 216.847V217.651H126.209V216.847H125.406ZM125.406 177.554H126.209V176.751H125.406V177.554ZM118.576 177.554H117.773V178.357H118.576V177.554ZM118.576 138.26V137.457H117.773V138.26H118.576ZM224.446 138.26H225.249V137.457H224.446V138.26ZM224.446 180.117H223.643V180.92H224.446V180.117ZM329.463 180.117V180.92H330.266V180.117H329.463ZM329.463 28.9218V28.1184H328.66V28.9218H329.463ZM392.645 28.9218H393.448V28.1184H392.645V28.9218ZM392.645 134.843H391.842V135.647H392.645V134.843ZM507.053 134.843V135.647H507.856V134.843H507.053ZM507.053 91.2787V90.4754H506.25V91.2787H507.053ZM659.028 91.2787H659.831V90.4754H659.028V91.2787ZM659.028 136.552V137.355H659.831V136.552H659.028ZM624.022 136.552V135.748H623.219V136.552H624.022ZM624.022 141.677H623.219V142.48H624.022V141.677ZM629.145 141.677H629.948V140.873H629.145V141.677ZM629.145 153.636H628.342V154.439H629.145V153.636ZM702.571 153.636H703.374V152.832H702.571V153.636ZM702.571 181.825H701.768V182.628H702.571V181.825ZM748.676 181.825H749.479V181.021H748.676V181.825ZM748.676 209.159V209.962H749.479V209.159H748.676ZM745.262 209.159V208.356H744.459V209.159H745.262ZM745.262 303.121H744.459V303.924H745.262V303.121ZM748.676 303.121H749.479V302.318H748.676V303.121ZM748.676 328.747V329.551H749.479V328.747H748.676ZM731.601 328.747L731.134 329.401L731.344 329.551H731.601V328.747ZM683.788 294.58L684.255 293.926L684.046 293.776H683.788V294.58ZM627.438 294.58V293.776H626.635V294.58H627.438ZM627.438 376.582H626.635V377.386H627.438V376.582ZM645.367 376.582V377.386H646.17V376.582H645.367ZM645.367 350.103V349.3H644.564V350.103H645.367ZM695.741 350.103H696.544V349.3H695.741V350.103ZM695.741 450.045H694.938V450.849H695.741V450.045ZM719.648 450.045H720.451V449.242H719.648V450.045ZM719.648 495.318V496.121H720.451V495.318H719.648ZM682.935 495.318V494.514H682.132V495.318H682.935ZM682.935 578.633V579.437H683.738V578.633H682.935ZM533.521 578.633V577.83H532.718V578.633H533.521ZM533.521 638.824V639.628H534.324V638.824H533.521ZM398.621 638.824V638.021H397.818V638.824H398.621ZM398.621 731.078V731.882H399.424V731.078H398.621ZM368.738 731.078L368.68 731.88L368.709 731.882H368.738V731.078ZM344.831 729.37H344.028V730.117L344.775 730.17L344.831 729.37ZM344.831 726.807H345.634V725.933L344.765 726.007L344.831 726.807ZM314.096 729.37H313.293V730.243L314.161 730.17L314.096 729.37ZM314.096 726.807H314.899V726.004H314.096V726.807ZM295.312 726.807H294.509V727.611H295.312V726.807ZM295.312 644.803V644H294.509V644.803H295.312ZM298.726 644.803V645.606H299.529V644.803H298.726ZM298.726 635.911H299.529V635.108H298.726V635.911ZM286.773 635.911V635.108H285.97V635.911H286.773ZM286.773 642.24V643.044H287.576V642.24H286.773ZM174.072 642.24H173.269V643.044H174.072V642.24ZM174.072 621.739H174.875V620.936H174.072V621.739ZM109.184 621.739H108.381V622.543H109.184V621.739ZM109.184 462.858V462.054H108.381V462.858H109.184ZM128.821 462.858V463.661H129.624V462.858H128.821ZM128.821 451.753H129.624V450.95H128.821V451.753ZM85.2778 451.753V450.95H84.4748V451.753H85.2778ZM85.2778 476.525V477.328H86.0808V476.525H85.2778ZM472.901 174.991H472.098V175.795H472.901V174.991ZM472.901 162.177V161.374H472.098V162.177H472.901ZM552.303 174.991H553.106V174.188H552.303V174.991ZM552.303 211.722H551.5V212.525H552.303V211.722ZM583.895 211.722V212.525H584.698V211.722H583.895ZM583.895 177.554V176.751H583.092V177.554H583.895ZM589.871 177.554V178.357H590.247L590.487 178.068L589.871 177.554ZM598.408 167.303L599.026 167.817L599.211 167.594V167.303H598.408ZM598.408 141.677V140.873H597.605V141.677H598.408ZM603.531 141.677V142.48H604.334V141.677H603.531ZM603.531 136.552H604.334V135.748H603.531V136.552ZM562.55 136.552H561.747V137.355H562.55V136.552ZM562.55 120.322H563.353V119.518H562.55V120.322ZM557.85 120.322V119.518H557.047V120.322H557.85ZM557.85 162.177V162.981H558.653V162.177H557.85ZM630.853 216.847H630.05V217.651H630.853V216.847ZM630.853 174.991V174.188H630.05V174.991H630.853ZM682.935 216.847V217.651H683.738V216.847H682.935ZM682.935 174.991H683.738V174.188H682.935V174.991ZM524.129 292.017L523.419 291.639L523.326 291.816V292.017H524.129ZM544.62 253.578V252.775H544.138L543.912 253.199L544.62 253.578ZM524.129 295.434H523.326V296.238H524.129V295.434ZM536.081 295.434H536.884V294.631H536.081V295.434ZM536.081 321.914L536.801 322.274L536.884 322.103V321.914H536.081ZM527.544 338.999L526.826 338.639L526.741 338.809V338.999H527.544ZM527.544 371.458H526.741V372.262H527.544V371.458ZM575.356 371.458V372.262H576.159V371.458H575.356ZM575.356 343.269V342.466H574.553V343.269H575.356ZM600.117 343.269V344.073H600.92V343.269H600.117ZM600.117 319.351H600.92V318.548H600.117V319.351ZM563.404 319.351H562.601V320.154H563.404V319.351ZM563.404 260.412H564.207V260.237L564.133 260.076L563.404 260.412ZM554.012 239.911L554.741 239.575L554.528 239.108H554.012V239.911ZM552.303 239.911V239.108H551.5V239.911H552.303ZM552.303 253.578V254.381H553.106V253.578H552.303ZM387.522 425.272V426.076H388.325V425.272H387.522ZM387.522 347.54H388.325V346.737H387.522V347.54ZM384.106 425.272V424.469H383.303V425.272H384.106ZM384.106 462.858H383.303V463.661H384.106V462.858ZM448.994 462.858V463.661H449.797V462.858H448.994ZM448.994 451.753V450.95H448.191V451.753H448.994ZM470.34 451.753H471.143V450.95H470.34V451.753ZM470.34 499.588H469.537V500.392H470.34V499.588ZM584.748 499.588V500.392H585.551V499.588H584.748ZM584.748 462.858V462.054H583.945V462.858H584.748ZM635.123 462.858H635.926V462.054H635.123V462.858ZM635.123 468.838H634.32V469.641H635.123V468.838ZM638.537 468.838V469.641H639.34V468.838H638.537ZM638.537 450.045V449.242H637.734V450.045H638.537ZM650.491 450.045V450.849H651.294V450.045H650.491ZM650.491 413.315H651.294V412.511H650.491V413.315ZM638.537 413.315V412.511H638.197L637.961 412.755L638.537 413.315ZM613.778 438.939V439.743H614.118L614.354 439.499L613.778 438.939ZM575.356 438.939H574.553V439.743H575.356V438.939ZM575.356 398.793H576.159V397.989H575.356V398.793ZM544.62 398.793V397.989H543.817V398.793H544.62ZM544.62 424.419V425.222H545.423V424.419H544.62ZM493.392 424.419L492.824 424.986L493.06 425.222H493.392V424.419ZM473.754 404.772H472.951V405.104L473.187 405.34L473.754 404.772ZM473.754 293.725H474.557V292.921H473.754V293.725ZM454.972 293.725V292.921H454.169V293.725H454.972ZM454.972 338.144V338.947H455.775V338.144H454.972ZM379.837 338.144V337.34H379.034V338.144H379.837ZM379.837 343.269H379.034V343.374L379.061 343.475L379.837 343.269ZM383.253 347.54L382.911 348.266L383.073 348.344H383.253V347.54ZM236.399 552.549V553.352H237.202V552.549H236.399ZM186.88 552.549V551.746H186.077V552.549H186.88ZM236.399 514.11V513.307H235.596V514.11H236.399ZM259.452 514.11H260.255V513.307H259.452V514.11ZM259.452 540.59H258.649V541.393H259.452V540.59ZM302.995 540.59V541.393H303.798V540.59H302.995ZM302.995 514.11V513.307H302.192V514.11H302.995ZM307.265 514.11H308.068V513.307H307.265V514.11ZM307.265 533.756H306.462V534.56H307.265V533.756ZM384.106 533.756V534.56H384.909V533.756H384.106ZM384.106 489.339V488.535H383.303V489.339H384.106ZM448.994 489.339H449.797V488.535H448.994V489.339ZM448.994 526.923H448.191V527.726H448.994V526.923ZM611.216 526.923V527.726H612.019V526.923H611.216ZM611.216 489.339V488.535H610.413V489.339H611.216ZM635.123 489.339V490.142H635.926V489.339H635.123ZM635.123 483.358V482.555H634.32V483.358H635.123ZM638.537 483.358H639.34V482.555H638.537V483.358ZM638.537 500.443V501.246H639.34V500.443H638.537ZM625.731 500.443V499.64H624.928V500.443H625.731ZM625.731 537.174V537.977H626.534V537.174H625.731ZM472.047 537.174V536.37H471.244V537.174H472.047ZM472.047 604.656V605.46H472.85V604.656H472.047ZM398.621 604.656H397.818V605.46H398.621V604.656ZM398.621 585.864H399.424V585.06H398.621V585.864ZM381.544 585.864V585.06H380.741V585.864H381.544ZM381.544 608.072V608.876H382.347V608.072H381.544ZM232.13 608.072L231.526 608.603L231.766 608.876H232.13V608.072ZM226.154 601.239H225.351V601.541L225.549 601.767L226.154 601.239ZM226.154 570.488H226.957V569.685H226.154V570.488ZM186.88 570.488H186.077V571.292H186.88V570.488ZM262.013 358.644H261.21V359.448H262.013V358.644ZM272.259 358.644V359.448H273.062V358.644H272.259ZM262.013 268.783V267.98H261.21V268.783H262.013ZM303.849 268.783V269.586H304.652V268.783H303.849ZM303.849 211.722V210.918H303.046V211.722H303.849ZM329.463 211.722H330.266V210.918H329.463V211.722ZM329.463 221.971H328.66V222.775H329.463V221.971ZM372.152 221.971V222.775H372.955V221.971H372.152ZM372.152 180.117L371.529 179.611L371.349 179.832V180.117H372.152ZM386.667 162.177V161.374H386.285L386.044 161.673L386.667 162.177ZM452.41 162.177H453.213V161.374H452.41V162.177ZM452.41 227.952H451.607V228.755H452.41V227.952ZM480.584 227.952H481.387V227.148H480.584V227.952ZM480.584 270.661V271.465H481.387V270.661H480.584ZM424.235 270.661V269.858H423.432V270.661H424.235ZM424.235 315.08V315.884H425.038V315.08H424.235ZM412.281 315.08H411.478V315.884H412.281V315.08ZM412.281 292.872H413.084V292.068H412.281V292.872ZM342.27 292.872V292.068H341.467V292.872H342.27ZM342.27 312.517H341.467V312.844L341.695 313.078L342.27 312.517ZM358.048 328.747H358.851V328.421L358.625 328.188L358.048 328.747ZM358.048 339.852V340.655H358.851V339.852H358.048ZM323.487 339.852V339.048H322.684V339.852H323.487ZM323.487 358.644V359.448H324.29V358.644H323.487ZM318.364 358.644H317.561V359.448H318.364V358.644ZM318.364 333.873H319.167V333.07H318.364V333.873ZM272.259 333.873V333.07H271.456V333.873H272.259ZM148.458 177.554V176.751H147.655V177.554H148.458ZM148.458 216.847H147.655V217.651H148.458V216.847ZM167.242 177.554V178.357H168.045V177.554H167.242ZM167.242 164.74V163.937H166.439V164.74H167.242ZM191.149 164.74H191.952V163.937H191.149V164.74ZM191.149 211.722H190.346V212.525H191.149V211.722ZM279.369 211.722H280.172V210.918H279.369V211.722ZM279.369 251.015V251.819H280.172V251.015H279.369ZM234.692 251.015V250.212H233.889V251.015H234.692ZM234.692 289.454V290.257H235.495V289.454H234.692ZM184.318 289.454H183.515V290.257H184.318V289.454ZM184.318 216.847H185.121V216.044H184.318V216.847ZM65.6403 271.516V270.713H64.8373V271.516H65.6403ZM125.406 271.516H126.209V270.713H125.406V271.516ZM125.406 299.705L125.418 300.508L126.209 300.497V299.705H125.406ZM186.025 528.632H185.222V529.436H186.025V528.632ZM186.025 462.858H186.828V462.054H186.025V462.858ZM197.124 528.632V529.436H197.927V528.632H197.124ZM197.124 463.712V462.909H196.321V463.712H197.124ZM302.995 463.712H303.798V462.909H302.995V463.712ZM302.995 487.629H302.192V488.433H302.995V487.629ZM307.265 487.629V488.433H308.068V487.629H307.265ZM307.265 424.419V423.616H306.462V424.419H307.265ZM323.487 424.419V425.222H324.29V424.419H323.487ZM323.487 385.126H324.29V384.322H323.487V385.126ZM262.868 385.126V384.322H262.535L262.299 384.557L262.868 385.126ZM233.838 414.168V414.971H234.17L234.406 414.737L233.838 414.168ZM213.347 414.168H212.544V414.971H213.347V414.168ZM213.347 362.062H214.15V361.259H213.347V362.062ZM154.435 362.062L153.854 362.616L154.091 362.865H154.435V362.062ZM137.359 344.124L137.941 343.57L137.703 343.321H137.359V344.124ZM65.6403 344.124V343.321H64.8373V344.124H65.6403ZM65.6403 393.667H64.8373V394.471H65.6403V393.667ZM159.558 393.667H160.361V392.864H159.558V393.667ZM159.558 451.753V452.557H160.361V451.753H159.558ZM155.289 451.753V450.95H154.486V451.753H155.289ZM155.289 462.858H154.486V463.661H155.289V462.858ZM28.0733 344.124H27.2703V476.525H28.0733H28.8763V344.124H28.0733ZM1.60573 344.124V344.928H28.0733V344.124V343.321H1.60573V344.124ZM1.60573 170.72H0.802734V344.124H1.60573H2.40873V170.72H1.60573ZM53.6872 170.72V169.917H1.60573V170.72V171.524H53.6872V170.72ZM53.6872 216.847H54.4902V170.72H53.6872H52.8842V216.847H53.6872ZM125.406 216.847V216.044H53.6872V216.847V217.651H125.406V216.847ZM125.406 177.554H124.603V216.847H125.406H126.209V177.554H125.406ZM118.576 177.554V178.357H125.406V177.554V176.751H118.576V177.554ZM118.576 138.26H117.773V177.554H118.576H119.379V138.26H118.576ZM224.446 138.26V137.457H118.576V138.26V139.063H224.446V138.26ZM224.446 180.117H225.249V138.26H224.446H223.643V180.117H224.446ZM329.463 180.117V179.313H224.446V180.117V180.92H329.463V180.117ZM329.463 28.9218H328.66V180.117H329.463H330.266V28.9218H329.463ZM392.645 28.9218V28.1184H329.463V28.9218V29.7252H392.645V28.9218ZM392.645 134.843H393.448V28.9218H392.645H391.842V134.843H392.645ZM507.053 134.843V134.04H392.645V134.843V135.647H507.053V134.843ZM507.053 91.2787H506.25V134.843H507.053H507.856V91.2787H507.053ZM659.028 91.2787V90.4754H507.053V91.2787V92.0821H659.028V91.2787ZM659.028 136.552H659.831V91.2787H659.028H658.225V136.552H659.028ZM624.022 136.552V137.355H659.028V136.552V135.748H624.022V136.552ZM624.022 141.677H624.825V136.552H624.022H623.219V141.677H624.022ZM629.145 141.677V140.873H624.022V141.677V142.48H629.145V141.677ZM629.145 153.636H629.948V141.677H629.145H628.342V153.636H629.145ZM702.571 153.636V152.832H629.145V153.636V154.439H702.571V153.636ZM702.571 181.825H703.374V153.636H702.571H701.768V181.825H702.571ZM748.676 181.825V181.021H702.571V181.825V182.628H748.676V181.825ZM748.676 209.159H749.479V181.825H748.676H747.873V209.159H748.676ZM745.262 209.159V209.962H748.676V209.159V208.356H745.262V209.159ZM745.262 303.121H746.065V209.159H745.262H744.459V303.121H745.262ZM748.676 303.121V302.318H745.262V303.121V303.924H748.676V303.121ZM748.676 328.747H749.479V303.121H748.676H747.873V328.747H748.676ZM731.601 328.747V329.551H748.676V328.747V327.944H731.601V328.747ZM683.788 294.58L683.322 295.233L731.134 329.401L731.601 328.747L732.067 328.093L684.255 293.926L683.788 294.58ZM627.438 294.58V295.383H683.788V294.58V293.776H627.438V294.58ZM627.438 376.582H628.241V294.58H627.438H626.635V376.582H627.438ZM645.367 376.582V375.779H627.438V376.582V377.386H645.367V376.582ZM645.367 350.103H644.564V376.582H645.367H646.17V350.103H645.367ZM695.741 350.103V349.3H645.367V350.103V350.906H695.741V350.103ZM695.741 450.045H696.544V350.103H695.741H694.938V450.045H695.741ZM719.648 450.045V449.242H695.741V450.045V450.849H719.648V450.045ZM719.648 495.318H720.451V450.045H719.648H718.845V495.318H719.648ZM682.935 495.318V496.121H719.648V495.318V494.514H682.935V495.318ZM682.935 578.633H683.738V495.318H682.935H682.132V578.633H682.935ZM533.521 578.633V579.437H682.935V578.633V577.83H533.521V578.633ZM533.521 638.824H534.324V578.633H533.521H532.718V638.824H533.521ZM398.621 638.824V639.628H533.521V638.824V638.021H398.621V638.824ZM398.621 731.078H399.424V638.824H398.621H397.818V731.078H398.621ZM368.738 731.078V731.882H398.621V731.078V730.275H368.738V731.078ZM344.831 729.37L344.775 730.17L368.68 731.88L368.738 731.078L368.796 730.276L344.889 728.568L344.831 729.37ZM344.831 726.807H344.028V729.37H344.831H345.634V726.807H344.831ZM314.096 729.37L314.161 730.17L344.899 727.608L344.831 726.807L344.765 726.007L314.028 728.568L314.096 729.37ZM314.096 726.807H313.293V729.37H314.096H314.899V726.807H314.096ZM295.312 726.807V727.611H314.096V726.807V726.004H295.312V726.807ZM295.312 644.803H294.509V726.807H295.312H296.115V644.803H295.312ZM298.726 644.803V644H295.312V644.803V645.606H298.726V644.803ZM298.726 635.911H297.923V644.803H298.726H299.529V635.911H298.726ZM286.773 635.911V636.714H298.726V635.911V635.108H286.773V635.911ZM286.773 642.24H287.576V635.911H286.773H285.97V642.24H286.773ZM174.072 642.24V643.044H286.773V642.24V641.437H174.072V642.24ZM174.072 621.739H173.269V642.24H174.072H174.875V621.739H174.072ZM109.184 621.739V622.543H174.072V621.739V620.936H109.184V621.739ZM109.184 462.858H108.381V621.739H109.184H109.987V462.858H109.184ZM128.821 462.858V462.054H109.184V462.858V463.661H128.821V462.858ZM128.821 451.753H128.018V462.858H128.821H129.624V451.753H128.821ZM85.2778 451.753V452.557H128.821V451.753V450.95H85.2778V451.753ZM85.2778 476.525H86.0808V451.753H85.2778H84.4748V476.525H85.2778ZM28.0733 476.525V477.328H85.2778V476.525V475.721H28.0733V476.525ZM472.901 174.991H473.704V162.177H472.901H472.098V174.991H472.901ZM552.303 174.991V174.188H472.901V174.991V175.795H552.303V174.991ZM552.303 211.722H553.106V174.991H552.303H551.5V211.722H552.303ZM583.895 211.722V210.918H552.303V211.722V212.525H583.895V211.722ZM583.895 177.554H583.092V211.722H583.895H584.698V177.554H583.895ZM589.871 177.554V176.751H583.895V177.554V178.357H589.871V177.554ZM598.408 167.303L597.791 166.789L589.254 177.04L589.871 177.554L590.487 178.068L599.026 167.817L598.408 167.303ZM598.408 141.677H597.605V167.303H598.408H599.211V141.677H598.408ZM603.531 141.677V140.873H598.408V141.677V142.48H603.531V141.677ZM603.531 136.552H602.728V141.677H603.531H604.334V136.552H603.531ZM562.55 136.552V137.355H603.531V136.552V135.748H562.55V136.552ZM562.55 120.322H561.747V136.552H562.55H563.353V120.322H562.55ZM557.85 120.322V121.125H562.55V120.322V119.518H557.85V120.322ZM557.85 162.177H558.653V120.322H557.85H557.047V162.177H557.85ZM472.901 162.177V162.981H557.85V162.177V161.374H472.901V162.177ZM630.853 216.847H631.656V174.991H630.853H630.05V216.847H630.853ZM682.935 216.847V216.044H630.853V216.847V217.651H682.935V216.847ZM682.935 174.991H682.132V216.847H682.935H683.738V174.991H682.935ZM630.853 174.991V175.795H682.935V174.991V174.188H630.853V174.991ZM524.129 292.017L524.838 292.394L545.328 253.956L544.62 253.578L543.912 253.199L523.419 291.639L524.129 292.017ZM524.129 295.434H524.932V292.017H524.129H523.326V295.434H524.129ZM536.081 295.434V294.631H524.129V295.434V296.238H536.081V295.434ZM536.081 321.914H536.884V295.434H536.081H535.278V321.914H536.081ZM527.544 338.999L528.261 339.357L536.801 322.274L536.081 321.914L535.363 321.556L526.826 338.639L527.544 338.999ZM527.544 371.458H528.347V338.999H527.544H526.741V371.458H527.544ZM575.356 371.458V370.655H527.544V371.458V372.262H575.356V371.458ZM575.356 343.269H574.553V371.458H575.356H576.159V343.269H575.356ZM600.117 343.269V342.466H575.356V343.269V344.073H600.117V343.269ZM600.117 319.351H599.314V343.269H600.117H600.92V319.351H600.117ZM563.404 319.351V320.154H600.117V319.351V318.548H563.404V319.351ZM563.404 260.412H562.601V319.351H563.404H564.207V260.412H563.404ZM554.012 239.911L553.281 240.245L562.673 260.746L563.404 260.412L564.133 260.076L554.741 239.575L554.012 239.911ZM552.303 239.911V240.714H554.012V239.911V239.108H552.303V239.911ZM552.303 253.578H553.106V239.911H552.303H551.5V253.578H552.303ZM544.62 253.578V254.381H552.303V253.578V252.775H544.62V253.578ZM387.522 425.272H388.325V347.54H387.522H386.719V425.272H387.522ZM384.106 425.272V426.076H387.522V425.272V424.469H384.106V425.272ZM384.106 462.858H384.909V425.272H384.106H383.303V462.858H384.106ZM448.994 462.858V462.054H384.106V462.858V463.661H448.994V462.858ZM448.994 451.753H448.191V462.858H448.994H449.797V451.753H448.994ZM470.34 451.753V450.95H448.994V451.753V452.557H470.34V451.753ZM470.34 499.588H471.143V451.753H470.34H469.537V499.588H470.34ZM584.748 499.588V498.785H470.34V499.588V500.392H584.748V499.588ZM584.748 462.858H583.945V499.588H584.748H585.551V462.858H584.748ZM635.123 462.858V462.054H584.748V462.858V463.661H635.123V462.858ZM635.123 468.838H635.926V462.858H635.123H634.32V468.838H635.123ZM638.537 468.838V468.035H635.123V468.838V469.641H638.537V468.838ZM638.537 450.045H637.734V468.838H638.537H639.34V450.045H638.537ZM650.491 450.045V449.242H638.537V450.045V450.849H650.491V450.045ZM650.491 413.315H649.688V450.045H650.491H651.294V413.315H650.491ZM638.537 413.315V414.118H650.491V413.315V412.511H638.537V413.315ZM613.778 438.939L614.354 439.499L639.115 413.872L638.537 413.315L637.961 412.755L613.199 438.382L613.778 438.939ZM575.356 438.939V439.743H613.778V438.939V438.136H575.356V438.939ZM575.356 398.793H574.553V438.939H575.356H576.159V398.793H575.356ZM544.62 398.793V399.596H575.356V398.793V397.989H544.62V398.793ZM544.62 424.419H545.423V398.793H544.62H543.817V424.419H544.62ZM493.392 424.419V425.222H544.62V424.419V423.616H493.392V424.419ZM473.754 404.772L473.187 405.34L492.824 424.986L493.392 424.419L493.959 423.85L474.323 404.204L473.754 404.772ZM473.754 293.725H472.951V404.772H473.754H474.557V293.725H473.754ZM454.972 293.725V294.528H473.754V293.725V292.921H454.972V293.725ZM454.972 338.144H455.775V293.725H454.972H454.169V338.144H454.972ZM379.837 338.144V338.947H454.972V338.144V337.34H379.837V338.144ZM379.837 343.269H380.64V338.144H379.837H379.034V343.269H379.837ZM383.253 347.54L383.595 346.814C382.574 346.332 381.992 345.893 381.591 345.373C381.181 344.842 380.902 344.155 380.614 343.064L379.837 343.269L379.061 343.475C379.365 344.627 379.71 345.565 380.319 346.354C380.935 347.153 381.766 347.728 382.911 348.266L383.253 347.54ZM387.522 347.54V346.737H383.253V347.54V348.344H387.522V347.54ZM236.399 552.549V551.746H186.88V552.549V553.352H236.399V552.549ZM236.399 514.11H235.596V552.549H236.399H237.202V514.11H236.399ZM259.452 514.11V513.307H236.399V514.11V514.914H259.452V514.11ZM259.452 540.59H260.255V514.11H259.452H258.649V540.59H259.452ZM302.995 540.59V539.786H259.452V540.59V541.393H302.995V540.59ZM302.995 514.11H302.192V540.59H302.995H303.798V514.11H302.995ZM307.265 514.11V513.307H302.995V514.11V514.914H307.265V514.11ZM307.265 533.756H308.068V514.11H307.265H306.462V533.756H307.265ZM384.106 533.756V532.953H307.265V533.756V534.56H384.106V533.756ZM384.106 489.339H383.303V533.756H384.106H384.909V489.339H384.106ZM448.994 489.339V488.535H384.106V489.339V490.142H448.994V489.339ZM448.994 526.923H449.797V489.339H448.994H448.191V526.923H448.994ZM611.216 526.923V526.119H448.994V526.923V527.726H611.216V526.923ZM611.216 489.339H610.413V526.923H611.216H612.019V489.339H611.216ZM635.123 489.339V488.535H611.216V489.339V490.142H635.123V489.339ZM635.123 483.358H634.32V489.339H635.123H635.926V483.358H635.123ZM638.537 483.358V482.555H635.123V483.358V484.162H638.537V483.358ZM638.537 500.443H639.34V483.358H638.537H637.734V500.443H638.537ZM625.731 500.443V501.246H638.537V500.443V499.64H625.731V500.443ZM625.731 537.174H626.534V500.443H625.731H624.928V537.174H625.731ZM472.047 537.174V537.977H625.731V537.174V536.37H472.047V537.174ZM472.047 604.656H472.85V537.174H472.047H471.244V604.656H472.047ZM398.621 604.656V605.46H472.047V604.656V603.853H398.621V604.656ZM398.621 585.864H397.818V604.656H398.621H399.424V585.864H398.621ZM381.544 585.864V586.667H398.621V585.864V585.06H381.544V585.864ZM381.544 608.072H382.347V585.864H381.544H380.741V608.072H381.544ZM232.13 608.072V608.876H381.544V608.072V607.269H232.13V608.072ZM226.154 601.239L225.549 601.767L231.526 608.603L232.13 608.072L232.734 607.544L226.758 600.71L226.154 601.239ZM226.154 570.488H225.351V601.239H226.154H226.957V570.488H226.154ZM186.88 570.488V571.292H226.154V570.488V569.685H186.88V570.488ZM186.88 552.549H186.077V570.488H186.88H187.683V552.549H186.88ZM262.013 358.644V359.448H272.259V358.644V357.841H262.013V358.644ZM262.013 268.783H261.21V358.644H262.013H262.816V268.783H262.013ZM303.849 268.783V267.98H262.013V268.783V269.586H303.849V268.783ZM303.849 211.722H303.046V268.783H303.849H304.652V211.722H303.849ZM329.463 211.722V210.918H303.849V211.722V212.525H329.463V211.722ZM329.463 221.971H330.266V211.722H329.463H328.66V221.971H329.463ZM372.152 221.971V221.168H329.463V221.971V222.775H372.152V221.971ZM372.152 180.117H371.349V221.971H372.152H372.955V180.117H372.152ZM386.667 162.177L386.044 161.673L371.529 179.611L372.152 180.117L372.777 180.621L387.292 162.683L386.667 162.177ZM452.41 162.177V161.374H386.667V162.177V162.981H452.41V162.177ZM452.41 227.952H453.213V162.177H452.41H451.607V227.952H452.41ZM480.584 227.952V227.148H452.41V227.952V228.755H480.584V227.952ZM480.584 270.661H481.387V227.952H480.584H479.781V270.661H480.584ZM424.235 270.661V271.465H480.584V270.661V269.858H424.235V270.661ZM424.235 315.08H425.038V270.661H424.235H423.432V315.08H424.235ZM412.281 315.08V315.884H424.235V315.08V314.277H412.281V315.08ZM412.281 292.872H411.478V315.08H412.281H413.084V292.872H412.281ZM342.27 292.872V293.675H412.281V292.872V292.068H342.27V292.872ZM342.27 312.517H343.073V292.872H342.27H341.467V312.517H342.27ZM358.048 328.747L358.625 328.188L342.846 311.958L342.27 312.517L341.695 313.078L357.474 329.308L358.048 328.747ZM358.048 339.852H358.851V328.747H358.048H357.245V339.852H358.048ZM323.487 339.852V340.655H358.048V339.852V339.048H323.487V339.852ZM323.487 358.644H324.29V339.852H323.487H322.684V358.644H323.487ZM318.364 358.644V359.448H323.487V358.644V357.841H318.364V358.644ZM318.364 333.873H317.561V358.644H318.364H319.167V333.873H318.364ZM272.259 333.873V334.676H318.364V333.873V333.07H272.259V333.873ZM272.259 358.644H273.062V333.873H272.259H271.456V358.644H272.259ZM148.458 177.554H147.655V216.847H148.458H149.261V177.554H148.458ZM167.242 177.554V176.751H148.458V177.554V178.357H167.242V177.554ZM167.242 164.74H166.439V177.554H167.242H168.045V164.74H167.242ZM191.149 164.74V163.937H167.242V164.74V165.543H191.149V164.74ZM191.149 211.722H191.952V164.74H191.149H190.346V211.722H191.149ZM279.369 211.722V210.918H191.149V211.722V212.525H279.369V211.722ZM279.369 251.015H280.172V211.722H279.369H278.566V251.015H279.369ZM234.692 251.015V251.819H279.369V251.015V250.212H234.692V251.015ZM234.692 289.454H235.495V251.015H234.692H233.889V289.454H234.692ZM184.318 289.454V290.257H234.692V289.454V288.651H184.318V289.454ZM184.318 216.847H183.515V289.454H184.318H185.121V216.847H184.318ZM148.458 216.847V217.651H184.318V216.847V216.044H148.458V216.847ZM65.6403 271.516V272.319H125.406V271.516V270.713H65.6403V271.516ZM65.6403 299.705H66.4433V271.516H65.6403H64.8373V299.705H65.6403ZM125.406 299.705L125.395 298.902C115.435 299.043 100.497 299.215 88.0493 299.265C81.8247 299.289 76.2274 299.284 72.188 299.23C70.1666 299.202 68.5438 299.164 67.4296 299.111C66.8695 299.083 66.4541 299.054 66.1855 299.022C66.046 299.006 65.9755 298.993 65.9525 298.987C65.9345 298.982 65.9787 298.992 66.0441 299.025C66.076 299.043 66.1555 299.087 66.236 299.173C66.3213 299.266 66.4433 299.446 66.4433 299.705H65.6403H64.8373C64.8373 299.973 64.9642 300.165 65.0593 300.267C65.1494 300.364 65.2433 300.42 65.2944 300.446C65.3983 300.502 65.4999 300.529 65.5579 300.544C65.6869 300.578 65.8427 300.6 65.9999 300.618C66.3246 300.656 66.7846 300.688 67.3529 300.716C68.4956 300.77 70.1411 300.809 72.1664 300.836C76.2203 300.891 81.8289 300.896 88.0557 300.872C100.511 300.822 115.455 300.65 125.418 300.508L125.406 299.705ZM125.406 271.516H124.603V299.705H125.406H126.209V271.516H125.406ZM186.025 528.632H186.828V462.858H186.025H185.222V528.632H186.025ZM197.124 528.632V527.829H186.025V528.632V529.436H197.124V528.632ZM197.124 463.712H196.321V528.632H197.124H197.927V463.712H197.124ZM302.995 463.712V462.909H197.124V463.712V464.516H302.995V463.712ZM302.995 487.629H303.798V463.712H302.995H302.192V487.629H302.995ZM307.265 487.629V486.826H302.995V487.629V488.433H307.265V487.629ZM307.265 424.419H306.462V487.629H307.265H308.068V424.419H307.265ZM323.487 424.419V423.616H307.265V424.419V425.222H323.487V424.419ZM323.487 385.126H322.684V424.419H323.487H324.29V385.126H323.487ZM262.868 385.126V385.929H323.487V385.126V384.322H262.868V385.126ZM233.838 414.168L234.406 414.737L263.434 385.693L262.868 385.126L262.299 384.557L233.271 413.601L233.838 414.168ZM213.347 414.168V414.971H233.838V414.168V413.365H213.347V414.168ZM213.347 362.062H212.544V414.168H213.347H214.15V362.062H213.347ZM154.435 362.062V362.865H213.347V362.062V361.259H154.435V362.062ZM137.359 344.124L136.778 344.677L153.854 362.616L154.435 362.062L155.017 361.508L137.941 343.57L137.359 344.124ZM65.6403 344.124V344.928H137.359V344.124V343.321H65.6403V344.124ZM65.6403 393.667H66.4433V344.124H65.6403H64.8373V393.667H65.6403ZM159.558 393.667V392.864H65.6403V393.667V394.471H159.558V393.667ZM159.558 451.753H160.361V393.667H159.558H158.755V451.753H159.558ZM155.289 451.753V452.557H159.558V451.753V450.95H155.289V451.753ZM155.289 462.858H156.092V451.753H155.289H154.486V462.858H155.289ZM186.025 462.858V462.054H155.289V462.858V463.661H186.025V462.858Z" fill="#674A81"/>
</svg>
