<svg width="750" height="853" viewBox="0 0 750 853" fill="none" xmlns="http://www.w3.org/2000/svg">
<path d="M385.112 818.608C362.421 809.966 349.72 805.714 327.182 803.155H254.769V710.439L247.525 703.68H101.252C85.9616 698.906 80.4639 693.76 78.0787 678.568V650.561H106.08V627.384H97.3894V623.52L82.9064 609.033H78.0787V599.374H54.9071V603.239H2.76953V525.01H27.8727V501.532H2.76953V399.458H81.9415L93.5265 411.049V424.569H116.7V299.017H217.114V249.761H191.045V199.541L292.423 98.1346L292.698 33.426H407.32V198.574H506.768V196.644H530.906L545.389 211.129V237.206L537.665 245.898L544.424 252.659L549.251 248.796H596.562V311.572H619.733V285.998H738.49V351.169H715.32V374.348H747.182V426.5H722.079V474.789H747.182V552.052H665.113V563.642H684.424V604.204C681.018 619.166 677.034 625.236 662.216 627.384H482.631V664.081H507.734V750.036L499.044 772.25L472.976 794.462L467.182 807.019C455.836 808.484 449.495 809.629 438.215 812.813H422.767L413.113 820.539L385.112 818.608ZM280.772 350.139V322.548L301.509 299.919H457.057V248.86H356.084V153.247H341.73V160.975H293.016L292.752 161.239L256.062 197.937L255.799 198.201V350.139H280.772ZM495.117 450.582V400.36H619.239L625.731 410.565L626.176 411.265L626.912 410.881L647.187 400.257L647.942 399.862L647.587 399.085L643.078 389.161L645.337 387.653L645.739 387.386V375.25H676.635V350.267H520.222V279.11L524.456 274.873L523.819 274.233L515.457 265.871L506.832 274.498V350.267H405.454V375.25H456.626V450.582H495.117ZM356.084 443.82V330.953H331.109V350.139H343.661V425.598H330.143V443.82H356.084ZM356.084 576.134V551.988H361.877V526.04H356.084V494.697L355.819 494.433L337.477 476.082L337.212 475.819H293.324V400.36H305.877V375.378H255.799V378.276H191.946V350.267H166.971V400.36H191.946V397.462H242.281V576.134H356.084ZM626.429 564.544V551.15H594.566V433.324H582.144V564.544H626.429ZM695.946 500.801V450.709H689.315V463.264H652.496V450.709H644.901V500.801H695.946ZM78.9819 554.885V475.642L168.837 475.691H168.841L191.048 475.64L194.895 475.691H194.966L195.034 475.682C198.633 475.168 201.269 473.529 202.99 471.235C204.7 468.957 205.464 466.097 205.464 463.201C205.464 459.309 204.454 456.411 202.57 454.357C200.697 452.314 198.067 451.223 195.054 450.721L194.98 450.709H54.0057V554.885H78.9819ZM557.877 602.209V500.48L557.6 500.215L532.496 476.07L532.235 475.819H455.146V483.811H456.626V526.04H399.66V551.988H506.832V602.209H557.877ZM274.015 651.463V626.483H218.445L191.946 600.925V557.783H205.464V545.356H191.946V526.04H167.936V576.26H154.42V626.483H151.523V651.463H274.015ZM456.498 715.205V602.337H431.522V613.927H306.004V715.205H330.981V690.095H431.522V715.205H456.498Z" fill="#26003A"/>
<mask id="mask0_163_450" style="mask-type:luminance" maskUnits="userSpaceOnUse" x="0" y="30" width="749" height="795">
<path d="M748.984 30.6575H0.787109V824.146H748.984V30.6575Z" fill="white"/>
<path d="M385.112 818.608C362.421 809.966 349.72 805.714 327.182 803.155H254.769V710.439L247.525 703.68H101.252C85.9616 698.906 80.4639 693.76 78.0787 678.568V650.561H106.08V627.384H97.3894V623.52L82.9064 609.033H78.0787V599.374H54.9071V603.239H2.76953V525.01H27.8727V501.532H2.76953V399.458H81.9415L93.5265 411.049V424.569H116.7V299.017H217.114V249.761H191.045V199.541L292.423 98.1346L292.698 33.426H407.32V198.574H506.768V196.644H530.906L545.389 211.129V237.206L537.665 245.898L544.424 252.659L549.251 248.796H596.562V311.572H619.733V285.998H738.49V351.169H715.32V374.348H747.182V426.5H722.079V474.789H747.182V552.052H665.113V563.642H684.424V604.204C681.018 619.166 677.034 625.236 662.216 627.384H482.631V664.081H507.734V750.036L499.044 772.25L472.976 794.462L467.182 807.019C455.836 808.484 449.495 809.629 438.215 812.813H422.767L413.113 820.539L385.112 818.608ZM280.772 350.139V322.548L301.509 299.919H457.057V248.86H356.084V153.247H341.73V160.975H293.016L292.752 161.239L256.062 197.937L255.799 198.201V350.139H280.772ZM495.117 450.582V400.36H619.239L625.731 410.565L626.176 411.265L626.912 410.881L647.187 400.257L647.942 399.862L647.587 399.085L643.078 389.161L645.337 387.653L645.739 387.386V375.25H676.635V350.267H520.222V279.11L524.456 274.873L523.819 274.233L515.457 265.871L506.832 274.498V350.267H405.454V375.25H456.626V450.582H495.117ZM356.084 443.82V330.953H331.109V350.139H343.661V425.598H330.143V443.82H356.084ZM356.084 576.134V551.988H361.877V526.04H356.084V494.697L355.819 494.433L337.477 476.082L337.212 475.819H293.324V400.36H305.877V375.378H255.799V378.276H191.946V350.267H166.971V400.36H191.946V397.462H242.281V576.134H356.084ZM626.429 564.544V551.15H594.566V433.324H582.144V564.544H626.429ZM695.946 500.801V450.709H689.315V463.264H652.496V450.709H644.901V500.801H695.946ZM78.9819 554.885V475.642L168.837 475.691H168.841L191.048 475.64L194.895 475.691H194.966L195.034 475.682C198.633 475.168 201.269 473.529 202.99 471.235C204.7 468.957 205.464 466.097 205.464 463.201C205.464 459.309 204.454 456.411 202.57 454.357C200.697 452.314 198.067 451.223 195.054 450.721L194.98 450.709H54.0057V554.885H78.9819ZM557.877 602.209V500.48L557.6 500.215L532.496 476.07L532.235 475.819H455.146V483.811H456.626V526.04H399.66V551.988H506.832V602.209H557.877ZM274.015 651.463V626.483H218.445L191.946 600.925V557.783H205.464V545.356H191.946V526.04H167.936V576.26H154.42V626.483H151.523V651.463H274.015ZM456.498 715.205V602.337H431.522V613.927H306.004V715.205H330.981V690.095H431.522V715.205H456.498Z" fill="black"/>
</mask>
<g mask="url(#mask0_163_450)">
<path d="M385.113 818.608L384.473 820.292L384.721 820.388L384.99 820.406L385.113 818.608ZM327.182 803.155L327.384 801.364L327.283 801.351H327.182V803.155ZM254.769 803.155H252.967V804.958H254.769V803.155ZM254.769 710.439H256.572V709.656L255.999 709.121L254.769 710.439ZM247.525 703.68L248.755 702.362L248.236 701.877H247.525V703.68ZM101.252 703.68L100.715 705.402L100.977 705.483H101.252V703.68ZM78.0788 678.568H76.2759V678.709L76.2977 678.849L78.0788 678.568ZM78.0788 650.561V648.758H76.2759V650.561H78.0788ZM106.08 650.561V652.365H107.883V650.561H106.08ZM106.08 627.384H107.883V625.581H106.08V627.384ZM97.3895 627.384H95.5866V629.188H97.3895V627.384ZM97.3895 623.52H99.1924V622.773L98.6642 622.245L97.3895 623.52ZM82.9066 609.033L84.1812 607.758L83.6533 607.23H82.9066V609.033ZM78.0788 609.033H76.2759V610.836H78.0788V609.033ZM78.0788 599.374H79.8817V597.571H78.0788V599.374ZM54.9072 599.374V597.571H53.1044V599.374H54.9072ZM54.9072 603.239V605.042H56.7101V603.239H54.9072ZM2.76968 603.239H0.966797V605.042H2.76968V603.239ZM2.76968 525.01V523.206H0.966797V525.01H2.76968ZM27.8728 525.01V526.813H29.6757V525.01H27.8728ZM27.8728 501.532H29.6757V499.728H27.8728V501.532ZM2.76968 501.532H0.966797V503.335H2.76968V501.532ZM2.76968 399.458V397.655H0.966797V399.458H2.76968ZM81.9417 399.458L83.2165 398.183L82.6884 397.655H81.9417V399.458ZM93.5267 411.049H95.3295V410.3L94.8015 409.774L93.5267 411.049ZM93.5267 424.569H91.7238V426.372H93.5267V424.569ZM116.7 424.569V426.372H118.503V424.569H116.7ZM116.7 299.017V297.214H114.897V299.017H116.7ZM217.114 299.017V300.82H218.917V299.017H217.114ZM217.114 249.761H218.917V247.958H217.114V249.761ZM191.045 249.761H189.242V251.565H191.045V249.761ZM191.045 199.541L189.77 198.266L189.242 198.794V199.541H191.045ZM292.423 98.1347L293.697 99.4099L294.224 98.8849L294.226 98.1423L292.423 98.1347ZM292.699 33.4261V31.6227H290.903L290.896 33.4183L292.699 33.4261ZM407.321 33.4261H409.123V31.6227H407.321V33.4261ZM407.321 198.574H405.518V200.377H407.321V198.574ZM506.768 198.574V200.377H508.571V198.574H506.768ZM506.768 196.644V194.841H504.965V196.644H506.768ZM530.907 196.644L532.181 195.369L531.653 194.841H530.907V196.644ZM545.389 211.129H547.192V210.383L546.664 209.854L545.389 211.129ZM545.389 237.206L546.736 238.404L547.192 237.891V237.206H545.389ZM537.666 245.898L536.317 244.701L535.188 245.972L536.391 247.175L537.666 245.898ZM544.425 252.659L543.15 253.934L544.289 255.074L545.55 254.066L544.425 252.659ZM549.251 248.796V246.993H548.62L548.126 247.388L549.251 248.796ZM596.562 248.796H598.365V246.993H596.562V248.796ZM596.562 311.572H594.759V313.376H596.562V311.572ZM619.733 311.572V313.376H621.536V311.572H619.733ZM619.733 285.998V284.195H617.93V285.998H619.733ZM738.491 285.998H740.294V284.195H738.491V285.998ZM738.491 351.169V352.972H740.294V351.169H738.491ZM715.32 351.169V349.366H713.517V351.169H715.32ZM715.32 374.348H713.517V376.151H715.32V374.348ZM747.182 374.348H748.985V372.545H747.182V374.348ZM747.182 426.5V428.303H748.985V426.5H747.182ZM722.079 426.5V424.697H720.276V426.5H722.079ZM722.079 474.789H720.276V476.593H722.079V474.789ZM747.182 474.789H748.985V472.986H747.182V474.789ZM747.182 552.052V553.855H748.985V552.052H747.182ZM665.113 552.052V550.248H663.31V552.052H665.113ZM665.113 563.642H663.31V565.445H665.113V563.642ZM684.424 563.642H686.227V561.839H684.424V563.642ZM684.424 604.204L686.182 604.604L686.227 604.406V604.204H684.424ZM662.216 627.384V629.188H662.346L662.474 629.168L662.216 627.384ZM482.631 627.384V625.581H480.828V627.384H482.631ZM482.631 664.081H480.828V665.885H482.631V664.081ZM507.734 664.081H509.537V662.278H507.734V664.081ZM507.734 750.036L509.412 750.694L509.537 750.377V750.036H507.734ZM499.044 772.25L500.212 773.622L500.557 773.328L500.723 772.906L499.044 772.25ZM472.976 794.462L471.806 793.09L471.505 793.346L471.339 793.707L472.976 794.462ZM467.182 807.019L467.412 808.808L468.4 808.68L468.819 807.775L467.182 807.019ZM438.215 812.813V814.617H438.465L438.705 814.548L438.215 812.813ZM422.768 812.813V811.01H422.135L421.641 811.405L422.768 812.813ZM413.113 820.539L412.989 822.339L413.69 822.386L414.238 821.948L413.113 820.539ZM280.772 350.139V351.943H282.575V350.139H280.772ZM280.772 322.548L279.444 321.33L278.97 321.846V322.548H280.772ZM301.509 299.919V298.115H300.716L300.181 298.7L301.509 299.919ZM457.057 299.919V301.722H458.86V299.919H457.057ZM457.057 248.86H458.86V247.056H457.057V248.86ZM356.084 248.86H354.281V250.663H356.084V248.86ZM356.084 153.247H357.887V151.444H356.084V153.247ZM341.73 153.247V151.444H339.927V153.247H341.73ZM341.73 160.975V162.778H343.533V160.975H341.73ZM293.016 160.975V159.171H292.269L291.741 159.7L293.016 160.975ZM255.799 198.201L254.524 196.926L253.996 197.454V198.201H255.799ZM255.799 350.139H253.996V351.943H255.799V350.139ZM495.117 450.582V452.386H496.92V450.582H495.117ZM495.117 400.36V398.557H493.315V400.36H495.117ZM619.239 400.36L620.759 399.392L620.229 398.557H619.239V400.36ZM626.176 411.265L624.657 412.233L625.545 413.629L627.013 412.863L626.176 411.265ZM626.912 410.881L627.747 412.479H627.748L626.912 410.881ZM647.943 399.862L648.779 401.458L650.29 400.667L649.583 399.114L647.943 399.862ZM643.078 389.161L642.078 387.661L640.803 388.512L641.438 389.908L643.078 389.161ZM645.337 387.653L644.339 386.153H644.337L645.337 387.653ZM645.739 387.386L646.74 388.887L647.542 388.351V387.386H645.739ZM645.739 375.25V373.446H643.937V375.25H645.739ZM676.635 375.25V377.053H678.438V375.25H676.635ZM676.635 350.267H678.438V348.464H676.635V350.267ZM520.223 350.267H518.42V352.071H520.223V350.267ZM520.223 279.11L518.948 277.833L518.42 278.361V279.11H520.223ZM524.456 274.873L525.732 276.148L527.005 274.875L525.734 273.6L524.456 274.873ZM523.819 274.233L525.096 272.96L525.094 272.958L523.819 274.233ZM515.458 265.871L516.732 264.596L515.458 263.319L514.183 264.596L515.458 265.871ZM506.833 274.498L505.558 273.223L505.03 273.752V274.498H506.833ZM506.833 350.267V352.071H508.635V350.267H506.833ZM405.455 350.267V348.464H403.652V350.267H405.455ZM405.455 375.25H403.652V377.053H405.455V375.25ZM456.626 375.25H458.429V373.446H456.626V375.25ZM456.626 450.582H454.823V452.386H456.626V450.582ZM356.084 443.82V445.623H357.887V443.82H356.084ZM356.084 330.953H357.887V329.15H356.084V330.953ZM331.109 330.953V329.15H329.306V330.953H331.109ZM331.109 350.139H329.306V351.943H331.109V350.139ZM343.661 350.139H345.464V348.336H343.661V350.139ZM343.661 425.598V427.402H345.464V425.598H343.661ZM330.143 425.598V423.795H328.34V425.598H330.143ZM330.143 443.82H328.34V445.623H330.143V443.82ZM356.084 576.134V577.937H357.887V576.134H356.084ZM356.084 551.988V550.185H354.281V551.988H356.084ZM361.877 551.988V553.792H363.68V551.988H361.877ZM361.877 526.04H363.68V524.236H361.877V526.04ZM356.084 526.04H354.281V527.843H356.084V526.04ZM356.084 494.697H357.887V493.95L357.359 493.422L356.084 494.697ZM337.212 475.819L338.486 474.544L337.958 474.016H337.212V475.819ZM293.324 475.819H291.521V477.622H293.324V475.819ZM293.324 400.36V398.557H291.521V400.36H293.324ZM305.878 400.36V402.163H307.681V400.36H305.878ZM305.878 375.378H307.681V373.574H305.878V375.378ZM255.799 375.378V373.574H253.996V375.378H255.799ZM255.799 378.276V380.079H257.602V378.276H255.799ZM191.946 378.276H190.143V380.079H191.946V378.276ZM191.946 350.267H193.749V348.464H191.946V350.267ZM166.971 350.267V348.464H165.168V350.267H166.971ZM166.971 400.36H165.168V402.163H166.971V400.36ZM191.946 400.36V402.163H193.749V400.36H191.946ZM191.946 397.462V395.659H190.143V397.462H191.946ZM242.281 397.462H244.084V395.659H242.281V397.462ZM242.281 576.134H240.478V577.937H242.281V576.134ZM626.429 564.544V566.347H628.232V564.544H626.429ZM626.429 551.15H628.232V549.346H626.429V551.15ZM594.566 551.15H592.763V552.953H594.566V551.15ZM594.566 433.324H596.369V431.521H594.566V433.324ZM582.144 433.324V431.521H580.342V433.324H582.144ZM582.144 564.544H580.342V566.347H582.144V564.544ZM695.946 500.801V502.605H697.749V500.801H695.946ZM695.946 450.709H697.749V448.905H695.946V450.709ZM689.315 450.709V448.905H687.512V450.709H689.315ZM689.315 463.264V465.067H691.118V463.264H689.315ZM652.497 463.264H650.694V465.067H652.497V463.264ZM652.497 450.709H654.3V448.905H652.497V450.709ZM644.901 450.709V448.905H643.098V450.709H644.901ZM644.901 500.801H643.098V502.605H644.901V500.801ZM78.9821 554.885V556.688H80.785V554.885H78.9821ZM78.9821 475.642L78.983 473.839L77.1792 473.837V475.642H78.9821ZM168.841 475.691V477.494H168.845L168.841 475.691ZM191.048 475.64L191.072 473.837H191.057H191.043L191.048 475.64ZM194.896 475.691L194.87 477.494H194.896V475.691ZM194.966 475.691V477.494H195.08L195.195 477.48L194.966 475.691ZM195.034 475.682L195.263 477.471L195.276 477.469L195.289 477.467L195.034 475.682ZM194.98 450.709L195.278 448.929L195.13 448.905H194.98V450.709ZM54.0058 450.709V448.905H52.2029V450.709H54.0058ZM54.0058 554.885H52.2029V556.688H54.0058V554.885ZM557.878 602.209V604.012H559.681V602.209H557.878ZM557.878 500.48H559.681V499.714L559.127 499.182L557.878 500.48ZM532.497 476.07L533.748 474.769H533.746L532.497 476.07ZM532.235 475.819L533.483 474.517L532.96 474.016H532.235V475.819ZM455.146 475.819V474.016H453.343V475.819H455.146ZM455.146 483.812H453.343V485.615H455.146V483.812ZM456.626 483.812H458.429V482.008H456.626V483.812ZM456.626 526.04V527.843H458.429V526.04H456.626ZM399.66 526.04V524.236H397.857V526.04H399.66ZM399.66 551.988H397.857V553.792H399.66V551.988ZM506.833 551.988H508.635V550.185H506.833V551.988ZM506.833 602.209H505.03V604.012H506.833V602.209ZM274.015 651.463V653.266H275.818V651.463H274.015ZM274.015 626.483H275.818V624.679H274.015V626.483ZM218.445 626.483L217.194 627.779L217.717 628.286H218.445V626.483ZM191.946 600.925H190.143V601.691L190.695 602.223L191.946 600.925ZM191.946 557.783V555.979H190.143V557.783H191.946ZM205.464 557.783V559.586H207.267V557.783H205.464ZM205.464 545.356H207.267V543.552H205.464V545.356ZM191.946 545.356H190.143V547.159H191.946V545.356ZM191.946 526.04H193.749V524.236H191.946V526.04ZM167.936 526.04V524.236H166.133V526.04H167.936ZM167.936 576.26V578.064H169.739V576.26H167.936ZM154.42 576.26V574.457H152.617V576.26H154.42ZM154.42 626.483V628.286H156.223V626.483H154.42ZM151.523 626.483V624.679H149.721V626.483H151.523ZM151.523 651.463H149.721V653.266H151.523V651.463ZM456.498 715.205V717.009H458.301V715.205H456.498ZM456.498 602.337H458.301V600.534H456.498V602.337ZM431.522 602.337V600.534H429.72V602.337H431.522ZM431.522 613.927V615.731H433.325V613.927H431.522ZM306.004 613.927V612.124H304.201V613.927H306.004ZM306.004 715.205H304.201V717.009H306.004V715.205ZM330.981 715.205V717.009H332.784V715.205H330.981ZM330.981 690.095V688.292H329.178V690.095H330.981ZM431.522 690.095H433.325V688.292H431.522V690.095ZM431.522 715.205H429.72V717.009H431.522V715.205ZM385.113 818.608L385.754 816.922C363.007 808.26 350.144 803.946 327.384 801.364L327.182 803.155L326.979 804.947C349.296 807.479 361.834 811.674 384.473 820.292L385.113 818.608ZM327.182 803.155V801.351H254.769V803.155V804.958H327.182V803.155ZM254.769 803.155H256.572V710.439H254.769H252.967V803.155H254.769ZM254.769 710.439L255.999 709.121L248.755 702.362L247.525 703.68L246.296 704.998L253.538 711.757L254.769 710.439ZM247.525 703.68V701.877H101.252V703.68V705.483H247.525V703.68ZM101.252 703.68L101.789 701.96C94.2128 699.594 89.3885 697.224 86.1347 693.79C82.9129 690.391 81.0276 685.725 79.8599 678.288L78.0788 678.568L76.2977 678.849C77.5154 686.604 79.5716 692.108 83.5176 696.272C87.4315 700.401 93.0011 702.993 100.715 705.402L101.252 703.68ZM78.0788 678.568H79.8817V650.561H78.0788H76.2759V678.568H78.0788ZM78.0788 650.561V652.365H106.08V650.561V648.758H78.0788V650.561ZM106.08 650.561H107.883V627.384H106.08H104.277V650.561H106.08ZM106.08 627.384V625.581H97.3895V627.384V629.188H106.08V627.384ZM97.3895 627.384H99.1924V623.52H97.3895H95.5866V627.384H97.3895ZM97.3895 623.52L98.6642 622.245L84.1812 607.758L82.9066 609.033L81.6318 610.308L96.1147 624.795L97.3895 623.52ZM82.9066 609.033V607.23H78.0788V609.033V610.836H82.9066V609.033ZM78.0788 609.033H79.8817V599.374H78.0788H76.2759V609.033H78.0788ZM78.0788 599.374V597.571H54.9072V599.374V601.177H78.0788V599.374ZM54.9072 599.374H53.1044V603.239H54.9072H56.7101V599.374H54.9072ZM54.9072 603.239V601.435H2.76968V603.239V605.042H54.9072V603.239ZM2.76968 603.239H4.57256V525.01H2.76968H0.966797V603.239H2.76968ZM2.76968 525.01V526.813H27.8728V525.01V523.206H2.76968V525.01ZM27.8728 525.01H29.6757V501.532H27.8728H26.0699V525.01H27.8728ZM27.8728 501.532V499.728H2.76968V501.532V503.335H27.8728V501.532ZM2.76968 501.532H4.57256V399.458H2.76968H0.966797V501.532H2.76968ZM2.76968 399.458V401.262H81.9417V399.458V397.655H2.76968V399.458ZM81.9417 399.458L80.6667 400.733L92.2517 412.324L93.5267 411.049L94.8015 409.774L83.2165 398.183L81.9417 399.458ZM93.5267 411.049H91.7238V424.569H93.5267H95.3295V411.049H93.5267ZM93.5267 424.569V426.372H116.7V424.569V422.765H93.5267V424.569ZM116.7 424.569H118.503V299.017H116.7H114.897V424.569H116.7ZM116.7 299.017V300.82H217.114V299.017V297.214H116.7V299.017ZM217.114 299.017H218.917V249.761H217.114H215.312V299.017H217.114ZM217.114 249.761V247.958H191.045V249.761V251.565H217.114V249.761ZM191.045 249.761H192.848V199.541H191.045H189.242V249.761H191.045ZM191.045 199.541L192.319 200.817L293.697 99.4099L292.423 98.1347L291.148 96.8595L189.77 198.266L191.045 199.541ZM292.423 98.1347L294.226 98.1423L294.501 33.4336L292.699 33.4261L290.896 33.4183L290.62 98.1271L292.423 98.1347ZM292.699 33.4261V35.2294H407.321V33.4261V31.6227H292.699V33.4261ZM407.321 33.4261H405.518V198.574H407.321H409.123V33.4261H407.321ZM407.321 198.574V200.377H506.768V198.574V196.771H407.321V198.574ZM506.768 198.574H508.571V196.644H506.768H504.965V198.574H506.768ZM506.768 196.644V198.448H530.907V196.644V194.841H506.768V196.644ZM530.907 196.644L529.632 197.919L544.114 212.404L545.389 211.129L546.664 209.854L532.181 195.369L530.907 196.644ZM545.389 211.129H543.586V237.206H545.389H547.192V211.129H545.389ZM545.389 237.206L544.04 236.009L536.317 244.701L537.666 245.898L539.012 247.098L546.736 238.404L545.389 237.206ZM537.666 245.898L536.391 247.175L543.15 253.934L544.425 252.659L545.699 251.383L538.94 244.623L537.666 245.898ZM544.425 252.659L545.55 254.066L550.378 250.205L549.251 248.796L548.126 247.388L543.298 251.251L544.425 252.659ZM549.251 248.796V250.6H596.562V248.796V246.993H549.251V248.796ZM596.562 248.796H594.759V311.572H596.562H598.365V248.796H596.562ZM596.562 311.572V313.376H619.733V311.572V309.769H596.562V311.572ZM619.733 311.572H621.536V285.998H619.733H617.93V311.572H619.733ZM619.733 285.998V287.802H738.491V285.998V284.195H619.733V285.998ZM738.491 285.998H736.688V351.169H738.491H740.294V285.998H738.491ZM738.491 351.169V349.366H715.32V351.169V352.972H738.491V351.169ZM715.32 351.169H713.517V374.348H715.32H717.123V351.169H715.32ZM715.32 374.348V376.151H747.182V374.348V372.545H715.32V374.348ZM747.182 374.348H745.379V426.5H747.182H748.985V374.348H747.182ZM747.182 426.5V424.697H722.079V426.5V428.303H747.182V426.5ZM722.079 426.5H720.276V474.789H722.079H723.882V426.5H722.079ZM722.079 474.789V476.593H747.182V474.789V472.986H722.079V474.789ZM747.182 474.789H745.379V552.052H747.182H748.985V474.789H747.182ZM747.182 552.052V550.248H665.113V552.052V553.855H747.182V552.052ZM665.113 552.052H663.31V563.642H665.113H666.916V552.052H665.113ZM665.113 563.642V565.445H684.424V563.642V561.839H665.113V563.642ZM684.424 563.642H682.621V604.204H684.424H686.227V563.642H684.424ZM684.424 604.204L682.666 603.803C680.97 611.262 679.197 616.111 676.257 619.395C673.383 622.605 669.164 624.555 661.956 625.599L662.216 627.384L662.474 629.168C670.084 628.066 675.267 625.905 678.943 621.803C682.551 617.774 684.474 612.108 686.182 604.604L684.424 604.204ZM662.216 627.384V625.581H482.631V627.384V629.188H662.216V627.384ZM482.631 627.384H480.828V664.081H482.631H484.434V627.384H482.631ZM482.631 664.081V665.885H507.734V664.081V662.278H482.631V664.081ZM507.734 664.081H505.931V750.036H507.734H509.537V664.081H507.734ZM507.734 750.036L506.055 749.379L497.366 771.592L499.044 772.25L500.723 772.906L509.412 750.694L507.734 750.036ZM499.044 772.25L497.874 770.876L471.806 793.09L472.976 794.462L474.144 795.835L500.212 773.622L499.044 772.25ZM472.976 794.462L471.339 793.707L465.545 806.264L467.182 807.019L468.819 807.775L474.613 795.218L472.976 794.462ZM467.182 807.019L466.951 805.23C455.537 806.704 449.108 807.865 437.726 811.077L438.215 812.813L438.705 814.548C449.885 811.394 456.135 810.263 467.412 808.808L467.182 807.019ZM438.215 812.813V811.01H422.768V812.813V814.617H438.215V812.813ZM422.768 812.813L421.641 811.405L411.986 819.131L413.113 820.539L414.238 821.948L423.894 814.222L422.768 812.813ZM413.113 820.539L413.236 818.739L385.237 816.808L385.113 818.608L384.99 820.406L412.989 822.339L413.113 820.539ZM280.772 350.139H282.575V322.548H280.772H278.97V350.139H280.772ZM280.772 322.548L282.103 323.767L302.838 301.136L301.509 299.919L300.181 298.7L279.444 321.33L280.772 322.548ZM301.509 299.919V301.722H457.057V299.919V298.115H301.509V299.919ZM457.057 299.919H458.86V248.86H457.057H455.254V299.919H457.057ZM457.057 248.86V247.056H356.084V248.86V250.663H457.057V248.86ZM356.084 248.86H357.887V153.247H356.084H354.281V248.86H356.084ZM356.084 153.247V151.444H341.73V153.247V155.05H356.084V153.247ZM341.73 153.247H339.927V160.975H341.73H343.533V153.247H341.73ZM341.73 160.975V159.171H293.016V160.975V162.778H341.73V160.975ZM293.016 160.975L291.741 159.7L291.478 159.964L292.753 161.239L294.027 162.514L294.29 162.25L293.016 160.975ZM292.753 161.239L291.478 159.964L254.787 196.662L256.062 197.937L257.337 199.212L294.027 162.514L292.753 161.239ZM256.062 197.937L254.787 196.662L254.524 196.926L255.799 198.201L257.074 199.476L257.337 199.212L256.062 197.937ZM255.799 198.201H253.996V350.139H255.799H257.602V198.201H255.799ZM255.799 350.139V351.943H280.772V350.139V348.336H255.799V350.139ZM495.117 450.582H496.92V400.36H495.117H493.315V450.582H495.117ZM495.117 400.36V402.163H619.239V400.36V398.557H495.117V400.36ZM619.239 400.36L617.717 401.328L624.211 411.534L625.731 410.565L627.253 409.597L620.759 399.392L619.239 400.36ZM625.731 410.565L624.211 411.534L624.657 412.233L626.176 411.265L627.698 410.295L627.253 409.597L625.731 410.565ZM626.176 411.265L627.013 412.863L627.747 412.479L626.912 410.881L626.075 409.283L625.342 409.667L626.176 411.265ZM626.912 410.881L627.748 412.479L648.024 401.855L647.187 400.257L646.351 398.659L626.075 409.283L626.912 410.881ZM647.187 400.257L648.024 401.855L648.779 401.458L647.943 399.862L647.104 398.264L646.349 398.661L647.187 400.257ZM647.943 399.862L649.583 399.114L649.228 398.337L647.587 399.085L645.947 399.832L646.302 400.609L647.943 399.862ZM647.587 399.085L649.23 398.338L644.721 388.414L643.078 389.161L641.438 389.908L645.947 399.832L647.587 399.085ZM643.078 389.161L644.079 390.661L646.338 389.154L645.337 387.653L644.337 386.153L642.078 387.661L643.078 389.161ZM645.337 387.653L646.338 389.154L646.74 388.887L645.739 387.386L644.739 385.886L644.339 386.153L645.337 387.653ZM645.739 387.386H647.542V375.25H645.739H643.937V387.386H645.739ZM645.739 375.25V377.053H676.635V375.25V373.446H645.739V375.25ZM676.635 375.25H678.438V350.267H676.635H674.833V375.25H676.635ZM676.635 350.267V348.464H520.223V350.267V352.071H676.635V350.267ZM520.223 350.267H522.025V279.11H520.223H518.42V350.267H520.223ZM520.223 279.11L521.497 280.385L525.732 276.148L524.456 274.873L523.181 273.598L518.948 277.833L520.223 279.11ZM524.456 274.873L525.734 273.6L525.096 272.96L523.819 274.233L522.543 275.508L523.179 276.147L524.456 274.873ZM523.819 274.233L525.094 272.958L516.732 264.596L515.458 265.871L514.183 267.146L522.545 275.508L523.819 274.233ZM515.458 265.871L514.183 264.596L505.558 273.223L506.833 274.498L508.107 275.773L516.732 267.146L515.458 265.871ZM506.833 274.498H505.03V350.267H506.833H508.635V274.498H506.833ZM506.833 350.267V348.464H405.455V350.267V352.071H506.833V350.267ZM405.455 350.267H403.652V375.25H405.455H407.257V350.267H405.455ZM405.455 375.25V377.053H456.626V375.25V373.446H405.455V375.25ZM456.626 375.25H454.823V450.582H456.626H458.429V375.25H456.626ZM456.626 450.582V452.386H495.117V450.582V448.779H456.626V450.582ZM356.084 443.82H357.887V330.953H356.084H354.281V443.82H356.084ZM356.084 330.953V329.15H331.109V330.953V332.757H356.084V330.953ZM331.109 330.953H329.306V350.139H331.109H332.912V330.953H331.109ZM331.109 350.139V351.943H343.661V350.139V348.336H331.109V350.139ZM343.661 350.139H341.858V425.598H343.661H345.464V350.139H343.661ZM343.661 425.598V423.795H330.143V425.598V427.402H343.661V425.598ZM330.143 425.598H328.34V443.82H330.143H331.946V425.598H330.143ZM330.143 443.82V445.623H356.084V443.82V442.016H330.143V443.82ZM356.084 576.134H357.887V551.988H356.084H354.281V576.134H356.084ZM356.084 551.988V553.792H361.877V551.988V550.185H356.084V551.988ZM361.877 551.988H363.68V526.04H361.877H360.074V551.988H361.877ZM361.877 526.04V524.236H356.084V526.04V527.843H361.877V526.04ZM356.084 526.04H357.887V494.697H356.084H354.281V526.04H356.084ZM356.084 494.697L357.359 493.422L357.094 493.158L355.819 494.434L354.545 495.708L354.81 495.974L356.084 494.697ZM355.819 494.434L357.094 493.158L338.751 474.807L337.477 476.082L336.2 477.357L354.545 495.708L355.819 494.434ZM337.477 476.082L338.751 474.807L338.486 474.544L337.212 475.819L335.937 477.094L336.2 477.357L337.477 476.082ZM337.212 475.819V474.016H293.324V475.819V477.622H337.212V475.819ZM293.324 475.819H295.127V400.36H293.324H291.521V475.819H293.324ZM293.324 400.36V402.163H305.878V400.36V398.557H293.324V400.36ZM305.878 400.36H307.681V375.378H305.878H304.075V400.36H305.878ZM305.878 375.378V373.574H255.799V375.378V377.181H305.878V375.378ZM255.799 375.378H253.996V378.276H255.799H257.602V375.378H255.799ZM255.799 378.276V376.472H191.946V378.276V380.079H255.799V378.276ZM191.946 378.276H193.749V350.267H191.946H190.143V378.276H191.946ZM191.946 350.267V348.464H166.971V350.267V352.071H191.946V350.267ZM166.971 350.267H165.168V400.36H166.971H168.774V350.267H166.971ZM166.971 400.36V402.163H191.946V400.36V398.557H166.971V400.36ZM191.946 400.36H193.749V397.462H191.946H190.143V400.36H191.946ZM191.946 397.462V399.265H242.281V397.462V395.659H191.946V397.462ZM242.281 397.462H240.478V576.134H242.281H244.084V397.462H242.281ZM242.281 576.134V577.937H356.084V576.134V574.331H242.281V576.134ZM626.429 564.544H628.232V551.15H626.429H624.626V564.544H626.429ZM626.429 551.15V549.346H594.566V551.15V552.953H626.429V551.15ZM594.566 551.15H596.369V433.324H594.566H592.763V551.15H594.566ZM594.566 433.324V431.521H582.144V433.324V435.127H594.566V433.324ZM582.144 433.324H580.342V564.544H582.144H583.947V433.324H582.144ZM582.144 564.544V566.347H626.429V564.544V562.74H582.144V564.544ZM695.946 500.801H697.749V450.709H695.946H694.143V500.801H695.946ZM695.946 450.709V448.905H689.315V450.709V452.512H695.946V450.709ZM689.315 450.709H687.512V463.264H689.315H691.118V450.709H689.315ZM689.315 463.264V461.46H652.497V463.264V465.067H689.315V463.264ZM652.497 463.264H654.3V450.709H652.497H650.694V463.264H652.497ZM652.497 450.709V448.905H644.901V450.709V452.512H652.497V450.709ZM644.901 450.709H643.098V500.801H644.901H646.704V450.709H644.901ZM644.901 500.801V502.605H695.946V500.801V498.998H644.901V500.801ZM78.9821 554.885H80.785V475.642H78.9821H77.1792V554.885H78.9821ZM78.9821 475.642L78.981 477.446L168.837 477.494L168.837 475.691L168.839 473.888L78.983 473.839L78.9821 475.642ZM168.837 475.691L168.837 477.494H168.841V475.691V473.888H168.839L168.837 475.691ZM168.841 475.691L168.845 477.494L191.052 477.444L191.048 475.64L191.043 473.837L168.839 473.888L168.841 475.691ZM191.048 475.64L191.023 477.444L194.87 477.494L194.896 475.691L194.919 473.888L191.072 473.837L191.048 475.64ZM194.896 475.691V477.494H194.966V475.691V473.888H194.896V475.691ZM194.966 475.691L195.195 477.48L195.263 477.471L195.034 475.682L194.806 473.895L194.735 473.902L194.966 475.691ZM195.034 475.682L195.289 477.467C199.327 476.89 202.403 475.018 204.431 472.317L202.991 471.235L201.548 470.151C200.133 472.037 197.939 473.446 194.778 473.898L195.034 475.682ZM202.991 471.235L204.431 472.317C206.423 469.664 207.267 466.4 207.267 463.201H205.464H203.661C203.661 465.796 202.976 468.25 201.548 470.151L202.991 471.235ZM205.464 463.201H207.267C207.267 458.995 206.169 455.614 203.899 453.138L202.571 454.357L201.242 455.576C202.738 457.208 203.661 459.623 203.661 463.201H205.464ZM202.571 454.357L203.899 453.138C201.66 450.694 198.593 449.482 195.352 448.941L195.054 450.721L194.759 452.499C197.539 452.963 199.736 453.933 201.242 455.576L202.571 454.357ZM195.054 450.721L195.352 448.941L195.278 448.929L194.98 450.709L194.685 452.487L194.759 452.499L195.054 450.721ZM194.98 450.709V448.905H54.0058V450.709V452.512H194.98V450.709ZM54.0058 450.709H52.2029V554.885H54.0058H55.8087V450.709H54.0058ZM54.0058 554.885V556.688H78.9821V554.885V553.081H54.0058V554.885ZM557.878 602.209H559.681V500.48H557.878H556.075V602.209H557.878ZM557.878 500.48L559.127 499.182L558.849 498.915L557.6 500.215L556.351 501.515L556.626 501.78L557.878 500.48ZM557.6 500.215L558.849 498.915L533.748 474.769L532.497 476.07L531.247 477.37L556.351 501.515L557.6 500.215ZM532.497 476.07L533.746 474.769L533.483 474.517L532.235 475.819L530.986 477.119L531.249 477.372L532.497 476.07ZM532.235 475.819V474.016H455.146V475.819V477.622H532.235V475.819ZM455.146 475.819H453.343V483.812H455.146H456.949V475.819H455.146ZM455.146 483.812V485.615H456.626V483.812V482.008H455.146V483.812ZM456.626 483.812H454.823V526.04H456.626H458.429V483.812H456.626ZM456.626 526.04V524.236H399.66V526.04V527.843H456.626V526.04ZM399.66 526.04H397.857V551.988H399.66H401.463V526.04H399.66ZM399.66 551.988V553.792H506.833V551.988V550.185H399.66V551.988ZM506.833 551.988H505.03V602.209H506.833H508.635V551.988H506.833ZM506.833 602.209V604.012H557.878V602.209V600.406H506.833V602.209ZM274.015 651.463H275.818V626.483H274.015H272.212V651.463H274.015ZM274.015 626.483V624.679H218.445V626.483V628.286H274.015V626.483ZM218.445 626.483L219.696 625.184L193.197 599.627L191.946 600.925L190.695 602.223L217.194 627.779L218.445 626.483ZM191.946 600.925H193.749V557.783H191.946H190.143V600.925H191.946ZM191.946 557.783V559.586H205.464V557.783V555.979H191.946V557.783ZM205.464 557.783H207.267V545.356H205.464H203.661V557.783H205.464ZM205.464 545.356V543.552H191.946V545.356V547.159H205.464V545.356ZM191.946 545.356H193.749V526.04H191.946H190.143V545.356H191.946ZM191.946 526.04V524.236H167.936V526.04V527.843H191.946V526.04ZM167.936 526.04H166.133V576.26H167.936H169.739V526.04H167.936ZM167.936 576.26V574.457H154.42V576.26V578.064H167.936V576.26ZM154.42 576.26H152.617V626.483H154.42H156.223V576.26H154.42ZM154.42 626.483V624.679H151.523V626.483V628.286H154.42V626.483ZM151.523 626.483H149.721V651.463H151.523H153.326V626.483H151.523ZM151.523 651.463V653.266H274.015V651.463V649.66H151.523V651.463ZM456.498 715.205H458.301V602.337H456.498H454.695V715.205H456.498ZM456.498 602.337V600.534H431.522V602.337V604.14H456.498V602.337ZM431.522 602.337H429.72V613.927H431.522H433.325V602.337H431.522ZM431.522 613.927V612.124H306.004V613.927V615.731H431.522V613.927ZM306.004 613.927H304.201V715.205H306.004H307.807V613.927H306.004ZM306.004 715.205V717.009H330.981V715.205V713.402H306.004V715.205ZM330.981 715.205H332.784V690.095H330.981H329.178V715.205H330.981ZM330.981 690.095V691.898H431.522V690.095V688.292H330.981V690.095ZM431.522 690.095H429.72V715.205H431.522H433.325V690.095H431.522ZM431.522 715.205V717.009H456.498V715.205V713.402H431.522V715.205Z" fill="#674A81"/>
</g>
<path d="M714.354 553.018V539.496H701.802V553.018M593.663 520.18H607.181V507.625H594.629" stroke="#674A81" stroke-width="0.5"/>
<path d="M594.629 478.652H633.25V476.721H594.629" stroke="#674A81" stroke-width="0.5"/>
<path d="M633.251 475.756V464.165H644.836V475.756H633.251Z" stroke="#674A81"/>
<path d="M633.25 469.96H626.491V476.721" stroke="#674A81" stroke-width="0.5"/>
<path d="M619.732 563.642V576.197H590.767V563.642M455.596 602.272V577.162H444.009V602.272M416.975 447.443L422.767 441.953L413.113 432.294L399.595 445.816M416.975 447.443L408.285 438.089M416.975 447.443L408.285 455.677M399.595 445.816L394.768 450.644L404.423 459.336L408.285 455.677M399.595 445.816L408.285 455.677M437.25 374.348V386.903H425.664V374.348M355.182 368.554H368.699V355.999H355.182M456.56 299.017V311.572H432.423V299.017M186.216 350.202V337.647H173.665V350.202M205.527 459.336L214.217 449.679L205.527 440.987L195.872 450.644M186.216 475.756V487.344H173.665V475.756M167.872 570.401H129.251V581.991H154.355M16.2858 501.831V489.276H2.76855M418.905 197.609V210.164H408.285V197.609M675.734 351.169C675.734 350.397 675.734 341.833 675.734 337.647H664.146V350.202M701.801 285.495V299.017H690.216V285.495M255.734 576.197V587.786H243.182V576.197M166.906 651.528V670.842H155.32V651.528M246.079 704.645L255.734 694.021L263.457 701.748L254.767 712.372M544.422 453.542V422.637H532.837V453.542H544.422ZM127.32 503.762L106.079 525.01L97.3891 516.317L118.63 494.105L128.286 502.798L127.32 503.762ZM561.802 295.154V328.957H550.215V295.154H561.802Z" stroke="#674A81"/>
<path d="M619.733 576.197V588.752H608.146V582.475M608.146 582.475V576.197M608.146 582.475H601.389V576.197" stroke="#674A81" stroke-width="0.5"/>
<path d="M450.769 311.572V318.333H438.217V311.572M456.561 513.421H406.354V525.976M748.147 526.941H670.906M431.458 602.272H393.803M393.803 602.272V599.376H368.699V602.272M393.803 602.272H368.699M305.941 602.272H368.699M242.216 501.831H230.631V552.052H205.528M103.182 628.349V620.622L85.803 603.239H77.1133M399.595 32.4609V38.2556H388.01V37.2899M388.01 37.2899V32.4609M388.01 37.2899C387.237 37.2899 379.32 37.2899 375.458 37.2899M375.458 37.2899V32.4609M375.458 37.2899V38.2556H362.907V32.4609M336.837 32.4609V38.2556H324.285V32.4609M300.147 32.4609V34.3924M300.147 34.3924V38.2556H311.734V32.4609M300.147 34.3924L295.32 40.1872H291.458" stroke="#674A81" stroke-width="0.5"/>
<path d="M335.872 476.721H357.112" stroke="#674A81" stroke-width="0.5"/>
<path d="M324.285 37.2898H311.733M399.595 35.3582L404.423 40.1871H408.285M10.4924 489.276V481.55H1.80273" stroke="#674A81" stroke-width="0.5"/>
<path d="M79.0449 475.756H167.872V569.436H79.0449V475.756ZM129.253 502.798L118.633 493.139L96.4258 516.317L106.081 525.975L129.253 502.798Z" fill="#4F276A"/>
<path d="M128.287 577.162H79.0449V569.436H128.287V577.162Z" fill="#4F276A"/>
<path d="M139.494 546.778H142.282L137.205 532.351H133.979L128.895 546.778H131.683L135.535 535.311H135.648L139.494 546.778ZM139.402 541.121H131.796V543.222H139.402V541.121Z" fill="white"/>
<path d="M747.182 526.398H696.009V474.789H747.182V526.398Z" fill="#4F276A"/>
<path d="M696.009 526.424H620.699V500.866H696.009V526.424Z" fill="#4F276A"/>
<path d="M644.838 500.866H633.251V476.721H644.838V500.866Z" fill="#4F276A"/>
<path d="M633.251 500.866H620.699V479.148H633.251V500.866Z" fill="#4F276A"/>
<path d="M670.906 463.201H652.562V438.09H670.906V463.201Z" fill="#4F276A"/>
<path d="M652.561 450.645H644.836V438.09H652.561V450.645Z" fill="#4F276A"/>
<path d="M644.838 463.201H620.699V438.09H644.838V463.201Z" fill="#4F276A"/>
<path d="M632.286 469.473H620.699V463.201H632.286V469.473Z" fill="#4F276A"/>
<path d="M626.009 476.237H620.699V469.478H626.009V476.237Z" fill="#4F276A"/>
<path d="M708.053 515.874V501.447H713.575C714.617 501.447 715.482 501.611 716.173 501.939C716.867 502.264 717.386 502.707 717.729 503.272C718.077 503.834 718.25 504.473 718.25 505.187C718.25 505.775 718.138 506.276 717.913 506.695C717.687 507.108 717.384 507.443 717.004 507.703C716.624 507.961 716.198 508.146 715.729 508.258V508.399C716.241 508.428 716.732 508.585 717.201 508.871C717.675 509.153 718.062 509.553 718.363 510.069C718.665 510.586 718.814 511.21 718.814 511.942C718.814 512.689 718.634 513.362 718.271 513.957C717.911 514.55 717.366 515.017 716.638 515.36C715.91 515.703 714.994 515.874 713.89 515.874H708.053ZM710.665 513.69H713.476C714.424 513.69 715.107 513.51 715.526 513.147C715.948 512.781 716.159 512.312 716.159 511.739C716.159 511.311 716.054 510.925 715.841 510.583C715.63 510.236 715.331 509.964 714.94 509.766C714.55 509.564 714.087 509.463 713.546 509.463H710.665V513.69ZM710.665 507.582H713.25C713.701 507.582 714.107 507.501 714.469 507.337C714.83 507.167 715.115 506.929 715.32 506.624C715.533 506.314 715.637 505.948 715.637 505.526C715.637 504.967 715.441 504.507 715.046 504.145C714.657 503.784 714.076 503.602 713.306 503.602H710.665V507.582Z" fill="white"/>
</svg>
