<svg width="750" height="853" viewBox="0 0 750 853" fill="none" xmlns="http://www.w3.org/2000/svg">
<path d="M364.835 34.3929C387.528 43.0334 400.229 47.2874 422.767 49.8448H495.18V142.561L502.424 149.32H648.698C663.988 154.094 669.485 159.24 671.87 174.432V202.439H643.869V225.616H652.559V229.48L667.042 243.967H671.87V253.626H695.043V249.761H747.18V327.99H722.077V351.469H747.18V453.542H668.007L656.423 441.951V428.431H633.249V553.983H532.835V603.239H558.905V653.459L457.525 754.865L457.251 819.574H342.629V654.426H243.182V656.356H219.043L204.561 641.871V615.794L212.284 607.102L205.525 600.341L200.697 604.204H153.388V541.428H130.216V567.002H11.458V501.831H34.6297V478.652H2.76758V426.5H27.8707V378.211H2.76758V300.949H84.8359V289.358H65.5252V248.797C68.9299 233.834 72.9156 227.764 87.7338 225.616H267.317V188.919H242.216V102.964L250.906 80.7507L276.973 58.5378L282.768 45.9811C294.113 44.5173 300.452 43.3707 311.733 40.187H327.182L336.836 32.4609L364.835 34.3929ZM469.175 502.861V530.452L448.439 553.081H292.893V604.14H393.865V699.752H408.22V692.025H456.932L457.197 691.761L493.886 655.063L494.151 654.799V502.861H469.175ZM254.832 402.418V452.64H130.711L124.218 442.435L123.772 441.735L123.038 442.119L102.762 452.743L102.007 453.138L102.361 453.915L106.87 463.839L104.611 465.347L104.21 465.614V477.75H73.3142V502.733H229.727V573.891L225.492 578.127L226.13 578.767L234.49 587.129L243.117 578.502V502.733H344.495V477.75H293.322V402.418H254.832ZM393.865 409.18V522.047H418.839V502.861H406.287V427.402H419.807V409.18H393.865ZM393.865 276.866V301.012H388.073V326.961H393.865V358.303L394.128 358.567L412.473 376.918L412.738 377.181H456.624V452.64H444.072V477.622H494.151V474.724H558.004V502.733H582.977V452.64H558.004V455.538H507.669V276.866H393.865ZM123.52 288.457V301.85H155.382V419.676H167.806V288.457H123.52ZM54.0036 352.199V402.291H60.6341V389.736H97.4524V402.291H105.048V352.199H54.0036ZM670.967 298.115V377.358L581.111 377.309H581.107L558.901 377.36L555.054 377.309H554.984L554.915 377.318C551.317 377.832 548.681 379.471 546.959 381.765C545.248 384.043 544.485 386.903 544.485 389.799C544.485 393.691 545.495 396.589 547.377 398.643C549.25 400.686 551.883 401.777 554.894 402.279L554.967 402.291H695.944V298.115H670.967ZM192.072 250.791V352.52L192.348 352.785L217.451 376.93L217.714 377.181H294.804V369.189H293.322V326.961H350.29V301.012H243.117V250.791H192.072ZM475.933 201.537V226.518H531.505L558.004 252.075V295.217H544.485V307.645H558.004V326.961H582.013V276.74H595.529V226.518H598.426V201.537H475.933ZM293.452 137.795V250.663H318.427V239.073H443.944V137.795H418.969V162.905H318.427V137.795H293.452Z" fill="#26003A"/>
<mask id="mask0_163_479" style="mask-type:luminance" maskUnits="userSpaceOnUse" x="0" y="28" width="750" height="795">
<path d="M749.162 28.8541H0.964844V822.342H749.162V28.8541Z" fill="white"/>
<path d="M364.835 34.3929C387.528 43.0334 400.229 47.2874 422.767 49.8448H495.18V142.561L502.424 149.32H648.698C663.988 154.094 669.485 159.24 671.87 174.432V202.439H643.869V225.616H652.559V229.48L667.042 243.967H671.87V253.626H695.043V249.761H747.18V327.99H722.077V351.469H747.18V453.542H668.007L656.423 441.951V428.431H633.249V553.983H532.835V603.239H558.905V653.459L457.525 754.865L457.251 819.574H342.629V654.426H243.182V656.356H219.043L204.561 641.871V615.794L212.284 607.102L205.525 600.341L200.697 604.204H153.388V541.428H130.216V567.002H11.458V501.831H34.6297V478.652H2.76758V426.5H27.8707V378.211H2.76758V300.949H84.8359V289.358H65.5252V248.797C68.9299 233.834 72.9156 227.764 87.7338 225.616H267.317V188.919H242.216V102.964L250.906 80.7507L276.973 58.5378L282.768 45.9811C294.113 44.5173 300.452 43.3707 311.733 40.187H327.182L336.836 32.4609L364.835 34.3929ZM469.175 502.861V530.452L448.439 553.081H292.893V604.14H393.865V699.752H408.22V692.025H456.932L457.197 691.761L493.886 655.063L494.151 654.799V502.861H469.175ZM254.832 402.418V452.64H130.711L124.218 442.435L123.772 441.735L123.038 442.119L102.762 452.743L102.007 453.138L102.361 453.915L106.87 463.839L104.611 465.347L104.21 465.614V477.75H73.3142V502.733H229.727V573.891L225.492 578.127L226.13 578.767L234.49 587.129L243.117 578.502V502.733H344.495V477.75H293.322V402.418H254.832ZM393.865 409.18V522.047H418.839V502.861H406.287V427.402H419.807V409.18H393.865ZM393.865 276.866V301.012H388.073V326.961H393.865V358.303L394.128 358.567L412.473 376.918L412.738 377.181H456.624V452.64H444.072V477.622H494.151V474.724H558.004V502.733H582.977V452.64H558.004V455.538H507.669V276.866H393.865ZM123.52 288.457V301.85H155.382V419.676H167.806V288.457H123.52ZM54.0036 352.199V402.291H60.6341V389.736H97.4524V402.291H105.048V352.199H54.0036ZM670.967 298.115V377.358L581.111 377.309H581.107L558.901 377.36L555.054 377.309H554.984L554.915 377.318C551.317 377.832 548.681 379.471 546.959 381.765C545.248 384.043 544.485 386.903 544.485 389.799C544.485 393.691 545.495 396.589 547.377 398.643C549.25 400.686 551.883 401.777 554.894 402.279L554.967 402.291H695.944V298.115H670.967ZM192.072 250.791V352.52L192.348 352.785L217.451 376.93L217.714 377.181H294.804V369.189H293.322V326.961H350.29V301.012H243.117V250.791H192.072ZM475.933 201.537V226.518H531.505L558.004 252.075V295.217H544.485V307.645H558.004V326.961H582.013V276.74H595.529V226.518H598.426V201.537H475.933ZM293.452 137.795V250.663H318.427V239.073H443.944V137.795H418.969V162.905H318.427V137.795H293.452Z" fill="black"/>
</mask>
<g mask="url(#mask0_163_479)">
<path d="M364.835 34.3928L365.477 32.7074L365.227 32.6122L364.96 32.5938L364.835 34.3928ZM422.767 49.8447L422.564 51.6368L422.666 51.6481H422.767V49.8447ZM495.18 49.8447H496.983V48.0414H495.18V49.8447ZM495.18 142.561H493.377V143.344L493.951 143.879L495.18 142.561ZM502.424 149.32L501.195 150.638L501.714 151.123H502.424V149.32ZM648.698 149.32L649.233 147.598L648.972 147.516H648.698V149.32ZM671.87 174.431H673.673V174.291L673.652 174.152L671.87 174.431ZM671.87 202.439V204.242H673.673V202.439H671.87ZM643.87 202.439V200.635H642.067V202.439H643.87ZM643.87 225.616H642.067V227.419H643.87V225.616ZM652.56 225.616H654.362V223.812H652.56V225.616ZM652.56 229.48H650.757V230.227L651.285 230.755L652.56 229.48ZM667.042 243.967L665.767 245.242L666.296 245.77H667.042V243.967ZM671.87 243.967H673.673V242.164H671.87V243.967ZM671.87 253.626H670.067V255.429H671.87V253.626ZM695.043 253.626V255.429H696.846V253.626H695.043ZM695.043 249.761V247.958H693.24V249.761H695.043ZM747.18 249.761H748.983V247.958H747.18V249.761ZM747.18 327.99V329.794H748.983V327.99H747.18ZM722.077 327.99V326.187H720.274V327.99H722.077ZM722.077 351.468H720.274V353.272H722.077V351.468ZM747.18 351.468H748.983V349.665H747.18V351.468ZM747.18 453.542V455.345H748.983V453.542H747.18ZM668.007 453.542L666.732 454.817L667.26 455.345H668.007V453.542ZM656.423 441.951H654.62V442.7L655.148 443.226L656.423 441.951ZM656.423 428.431H658.226V426.628H656.423V428.431ZM633.249 428.431V426.628H631.446V428.431H633.249ZM633.249 553.983V555.786H635.052V553.983H633.249ZM532.835 553.983V552.18H531.032V553.983H532.835ZM532.835 603.239H531.032V605.042H532.835V603.239ZM558.905 603.239H560.708V601.435H558.905V603.239ZM558.905 653.459L560.18 654.734L560.708 654.206V653.459H558.905ZM457.525 754.865L456.251 753.59L455.726 754.115L455.722 754.858L457.525 754.865ZM457.251 819.574V821.378H459.047L459.054 819.581L457.251 819.574ZM342.629 819.574H340.826V821.378H342.629V819.574ZM342.629 654.426H344.432V652.623H342.629V654.426ZM243.182 654.426V652.623H241.379V654.426H243.182ZM243.182 656.356V658.159H244.985V656.356H243.182ZM219.043 656.356L217.769 657.631L218.297 658.159H219.043V656.356ZM204.561 641.871H202.758V642.617L203.286 643.146L204.561 641.871ZM204.561 615.794L203.212 614.596L202.758 615.109V615.794H204.561ZM212.284 607.102L213.633 608.299L214.761 607.028L213.559 605.825L212.284 607.102ZM205.525 600.341L206.8 599.066L205.659 597.926L204.398 598.934L205.525 600.341ZM200.697 604.203V606.007H201.33L201.824 605.612L200.697 604.203ZM153.388 604.203H151.585V606.007H153.388V604.203ZM153.388 541.428H155.191V539.624H153.388V541.428ZM130.216 541.428V539.624H128.413V541.428H130.216ZM130.216 567.002V568.805H132.019V567.002H130.216ZM11.4582 567.002H9.65531V568.805H11.4582V567.002ZM11.4582 501.831V500.027H9.65531V501.831H11.4582ZM34.6298 501.831V503.634H36.4327V501.831H34.6298ZM34.6298 478.652H36.4327V476.849H34.6298V478.652ZM2.76774 478.652H0.964844V480.455H2.76774V478.652ZM2.76774 426.5V424.697H0.964844V426.5H2.76774ZM27.8708 426.5V428.303H29.6737V426.5H27.8708ZM27.8708 378.211H29.6737V376.407H27.8708V378.211ZM2.76774 378.211H0.964844V380.014H2.76774V378.211ZM2.76774 300.948V299.145H0.964844V300.948H2.76774ZM84.836 300.948V302.752H86.6389V300.948H84.836ZM84.836 289.358H86.6389V287.555H84.836V289.358ZM65.5253 289.358H63.7224V291.162H65.5253V289.358ZM65.5253 248.796L63.7675 248.396L63.7224 248.594V248.796H65.5253ZM87.734 225.616V223.812H87.604L87.4754 223.832L87.734 225.616ZM267.317 225.616V227.419H269.12V225.616H267.317ZM267.317 188.919H269.12V187.115H267.317V188.919ZM242.216 188.919H240.413V190.722H242.216V188.919ZM242.216 102.964L240.535 102.306L240.413 102.623V102.964H242.216ZM250.906 80.7506L249.736 79.3778L249.391 79.6716L249.227 80.0934L250.906 80.7506ZM276.974 58.5378L278.142 59.9105L278.445 59.6533L278.611 59.2934L276.974 58.5378ZM282.768 45.981L282.537 44.1924L281.549 44.3199L281.131 45.2252L282.768 45.981ZM311.733 40.1869V38.3835H311.484L311.245 38.4513L311.733 40.1869ZM327.182 40.1869V41.9903H327.813L328.307 41.5952L327.182 40.1869ZM336.837 32.4608L336.961 30.6618L336.26 30.6133L335.71 31.0526L336.837 32.4608ZM469.176 502.861V501.057H467.373V502.861H469.176ZM469.176 530.452L470.506 531.67L470.978 531.154V530.452H469.176ZM448.439 553.081V554.885H449.232L449.769 554.3L448.439 553.081ZM292.893 553.081V551.278H291.09V553.081H292.893ZM292.893 604.14H291.09V605.944H292.893V604.14ZM393.865 604.14H395.668V602.337H393.865V604.14ZM393.865 699.752H392.063V701.555H393.865V699.752ZM408.22 699.752V701.555H410.023V699.752H408.22ZM408.22 692.025V690.221H406.417V692.025H408.22ZM456.932 692.025V693.828H457.68L458.207 693.3L456.932 692.025ZM494.151 654.799L495.426 656.074L495.954 655.546V654.799H494.151ZM494.151 502.861H495.954V501.057H494.151V502.861ZM254.832 402.418V400.614H253.029V402.418H254.832ZM254.832 452.64V454.443H256.635V452.64H254.832ZM130.711 452.64L129.19 453.608L129.721 454.443H130.711V452.64ZM123.772 441.735L125.293 440.767L124.403 439.371L122.937 440.137L123.772 441.735ZM102.007 453.138L101.17 451.542L99.6595 452.333L100.367 453.886L102.007 453.138ZM102.361 453.915L104.003 453.168L104.002 453.167L102.361 453.915ZM106.87 463.839L107.871 465.339L109.146 464.488L108.511 463.092L106.87 463.839ZM104.21 465.614L103.21 464.113L102.407 464.649V465.614H104.21ZM104.21 477.75V479.554H106.013V477.75H104.21ZM73.3143 477.75V475.947H71.5114V477.75H73.3143ZM73.3143 502.733H71.5114V504.536H73.3143V502.733ZM229.727 502.733H231.53V500.929H229.727V502.733ZM229.727 573.89L231.002 575.167L231.53 574.639V573.89H229.727ZM225.492 578.127L224.218 576.852L222.945 578.125L224.216 579.4L225.492 578.127ZM226.13 578.767L224.854 580.04L224.856 580.042L226.13 578.767ZM234.49 587.129L233.216 588.404L234.49 589.681L235.767 588.404L234.49 587.129ZM243.117 578.502L244.392 579.777L244.92 579.248V578.502H243.117ZM243.117 502.733V500.929H241.314V502.733H243.117ZM344.495 502.733V504.536H346.298V502.733H344.495ZM344.495 477.75H346.298V475.947H344.495V477.75ZM293.322 477.75H291.519V479.554H293.322V477.75ZM293.322 402.418H295.125V400.614H293.322V402.418ZM393.865 409.18V407.377H392.063V409.18H393.865ZM393.865 522.047H392.063V523.85H393.865V522.047ZM418.839 522.047V523.85H420.642V522.047H418.839ZM418.839 502.861H420.642V501.057H418.839V502.861ZM406.287 502.861H404.484V504.664H406.287V502.861ZM406.287 427.402V425.598H404.484V427.402H406.287ZM419.807 427.402V429.205H421.61V427.402H419.807ZM419.807 409.18H421.61V407.377H419.807V409.18ZM393.865 276.866V275.063H392.063V276.866H393.865ZM393.865 301.012V302.815H395.668V301.012H393.865ZM388.073 301.012V299.208H386.27V301.012H388.073ZM388.073 326.96H386.27V328.764H388.073V326.96ZM393.865 326.96H395.668V325.157H393.865V326.96ZM393.865 358.303H392.063V359.05L392.591 359.578L393.865 358.303ZM412.738 377.181L411.463 378.456L411.99 378.984H412.738V377.181ZM456.624 377.181H458.427V375.378H456.624V377.181ZM456.624 452.64V454.443H458.427V452.64H456.624ZM444.072 452.64V450.837H442.269V452.64H444.072ZM444.072 477.622H442.269V479.426H444.072V477.622ZM494.151 477.622V479.426H495.954V477.622H494.151ZM494.151 474.724V472.921H492.348V474.724H494.151ZM558.004 474.724H559.807V472.921H558.004V474.724ZM558.004 502.733H556.201V504.536H558.004V502.733ZM582.977 502.733V504.536H584.78V502.733H582.977ZM582.977 452.64H584.78V450.837H582.977V452.64ZM558.004 452.64V450.837H556.201V452.64H558.004ZM558.004 455.538V457.341H559.807V455.538H558.004ZM507.669 455.538H505.866V457.341H507.669V455.538ZM507.669 276.866H509.472V275.063H507.669V276.866ZM123.521 288.456V286.653H121.718V288.456H123.521ZM123.521 301.85H121.718V303.654H123.521V301.85ZM155.383 301.85H157.185V300.047H155.383V301.85ZM155.383 419.676H153.58V421.479H155.383V419.676ZM167.806 419.676V421.479H169.609V419.676H167.806ZM167.806 288.456H169.609V286.653H167.806V288.456ZM54.0038 352.199V350.395H52.2009V352.199H54.0038ZM54.0038 402.291H52.2009V404.095H54.0038V402.291ZM60.6343 402.291V404.095H62.4372V402.291H60.6343ZM60.6343 389.736V387.933H58.8314V389.736H60.6343ZM97.4526 389.736H99.2555V387.933H97.4526V389.736ZM97.4526 402.291H95.6497V404.095H97.4526V402.291ZM105.048 402.291V404.095H106.851V402.291H105.048ZM105.048 352.199H106.851V350.395H105.048V352.199ZM670.967 298.115V296.312H669.164V298.115H670.967ZM670.967 377.358V379.161L672.77 379.163V377.358H670.967ZM581.111 377.309L581.113 375.506H581.111V377.309ZM581.108 377.309V375.506H581.104L581.108 377.309ZM558.901 377.36L558.878 379.163H558.891H558.905L558.901 377.36ZM555.054 377.309L555.078 375.506H555.054V377.309ZM554.984 377.309V375.506H554.868L554.755 375.52L554.984 377.309ZM554.915 377.318L554.686 375.529L554.674 375.531L554.661 375.533L554.915 377.318ZM554.968 402.291L554.672 404.071L554.82 404.095H554.968V402.291ZM695.944 402.291V404.095H697.747V402.291H695.944ZM695.944 298.115H697.747V296.312H695.944V298.115ZM192.072 250.791V248.988H190.269V250.791H192.072ZM192.072 352.52H190.269V353.286L190.823 353.818L192.072 352.52ZM217.715 377.181L216.465 378.483L216.99 378.984H217.715V377.181ZM294.804 377.181V378.984H296.607V377.181H294.804ZM294.804 369.188H296.607V367.385H294.804V369.188ZM293.322 369.188H291.519V370.992H293.322V369.188ZM293.322 326.96V325.157H291.519V326.96H293.322ZM350.29 326.96V328.764H352.093V326.96H350.29ZM350.29 301.012H352.093V299.208H350.29V301.012ZM243.117 301.012H241.314V302.815H243.117V301.012ZM243.117 250.791H244.92V248.988H243.117V250.791ZM475.933 201.537V199.734H474.13V201.537H475.933ZM475.933 226.517H474.13V228.321H475.933V226.517ZM531.505 226.517L532.756 225.221L532.231 224.714H531.505V226.517ZM558.004 252.075H559.807V251.309L559.255 250.777L558.004 252.075ZM558.004 295.217V297.021H559.807V295.217H558.004ZM544.486 295.217V293.414H542.683V295.217H544.486ZM544.486 307.644H542.683V309.448H544.486V307.644ZM558.004 307.644H559.807V305.841H558.004V307.644ZM558.004 326.96H556.201V328.764H558.004V326.96ZM582.013 326.96V328.764H583.816V326.96H582.013ZM582.013 276.74V274.936H580.21V276.74H582.013ZM595.529 276.74V278.543H597.332V276.74H595.529ZM595.529 226.517V224.714H593.726V226.517H595.529ZM598.426 226.517V228.321H600.229V226.517H598.426ZM598.426 201.537H600.229V199.734H598.426V201.537ZM293.452 137.795V135.992H291.649V137.795H293.452ZM293.452 250.663H291.649V252.466H293.452V250.663ZM318.427 250.663V252.466H320.23V250.663H318.427ZM318.427 239.073V237.269H316.624V239.073H318.427ZM443.944 239.073V240.876H445.747V239.073H443.944ZM443.944 137.795H445.747V135.992H443.944V137.795ZM418.969 137.795V135.992H417.166V137.795H418.969ZM418.969 162.905V164.708H420.772V162.905H418.969ZM318.427 162.905H316.624V164.708H318.427V162.905ZM318.427 137.795H320.23V135.992H318.427V137.795ZM364.835 34.3928L364.195 36.0783C386.941 44.7395 399.806 49.0541 422.564 51.6368L422.767 49.8447L422.971 48.0529C400.651 45.5204 388.114 41.327 365.477 32.7074L364.835 34.3928ZM422.767 49.8447V51.6481H495.18V49.8447V48.0414H422.767V49.8447ZM495.18 49.8447H493.377V142.561H495.18H496.983V49.8447H495.18ZM495.18 142.561L493.951 143.879L501.195 150.638L502.424 149.32L503.654 148.001L496.41 141.242L495.18 142.561ZM502.424 149.32V151.123H648.698V149.32V147.516H502.424V149.32ZM648.698 149.32L648.161 151.041C655.736 153.407 660.561 155.775 663.815 159.209C667.037 162.61 668.923 167.274 670.089 174.711L671.87 174.431L673.652 174.152C672.435 166.397 670.377 160.893 666.431 156.728C662.519 152.598 656.948 150.007 649.233 147.598L648.698 149.32ZM671.87 174.431H670.067V202.439H671.87H673.673V174.431H671.87ZM671.87 202.439V200.635H643.87V202.439V204.242H671.87V202.439ZM643.87 202.439H642.067V225.616H643.87H645.673V202.439H643.87ZM643.87 225.616V227.419H652.56V225.616V223.812H643.87V225.616ZM652.56 225.616H650.757V229.48H652.56H654.362V225.616H652.56ZM652.56 229.48L651.285 230.755L665.767 245.242L667.042 243.967L668.317 242.692L653.834 228.205L652.56 229.48ZM667.042 243.967V245.77H671.87V243.967V242.164H667.042V243.967ZM671.87 243.967H670.067V253.626H671.87H673.673V243.967H671.87ZM671.87 253.626V255.429H695.043V253.626V251.823H671.87V253.626ZM695.043 253.626H696.846V249.761H695.043H693.24V253.626H695.043ZM695.043 249.761V251.565H747.18V249.761V247.958H695.043V249.761ZM747.18 249.761H745.377V327.99H747.18H748.983V249.761H747.18ZM747.18 327.99V326.187H722.077V327.99V329.794H747.18V327.99ZM722.077 327.99H720.274V351.468H722.077H723.88V327.99H722.077ZM722.077 351.468V353.272H747.18V351.468V349.665H722.077V351.468ZM747.18 351.468H745.377V453.542H747.18H748.983V351.468H747.18ZM747.18 453.542V451.738H668.007V453.542V455.345H747.18V453.542ZM668.007 453.542L669.283 452.267L657.698 440.676L656.423 441.951L655.148 443.226L666.732 454.817L668.007 453.542ZM656.423 441.951H658.226V428.431H656.423H654.62V441.951H656.423ZM656.423 428.431V426.628H633.249V428.431V430.235H656.423V428.431ZM633.249 428.431H631.446V553.983H633.249H635.052V428.431H633.249ZM633.249 553.983V552.18H532.835V553.983V555.786H633.249V553.983ZM532.835 553.983H531.032V603.239H532.835H534.638V553.983H532.835ZM532.835 603.239V605.042H558.905V603.239V601.435H532.835V603.239ZM558.905 603.239H557.102V653.459H558.905H560.708V603.239H558.905ZM558.905 653.459L557.63 652.183L456.251 753.59L457.525 754.865L458.802 756.14L560.18 654.734L558.905 653.459ZM457.525 754.865L455.722 754.858L455.448 819.567L457.251 819.574L459.054 819.581L459.328 754.873L457.525 754.865ZM457.251 819.574V817.771H342.629V819.574V821.378H457.251V819.574ZM342.629 819.574H344.432V654.426H342.629H340.826V819.574H342.629ZM342.629 654.426V652.623H243.182V654.426V656.229H342.629V654.426ZM243.182 654.426H241.379V656.356H243.182H244.985V654.426H243.182ZM243.182 656.356V654.552H219.043V656.356V658.159H243.182V656.356ZM219.043 656.356L220.318 655.081L205.835 640.596L204.561 641.871L203.286 643.146L217.769 657.631L219.043 656.356ZM204.561 641.871H206.364V615.794H204.561H202.758V641.871H204.561ZM204.561 615.794L205.907 616.991L213.633 608.299L212.284 607.102L210.938 605.902L203.212 614.596L204.561 615.794ZM212.284 607.102L213.559 605.825L206.8 599.066L205.525 600.341L204.251 601.617L211.01 608.377L212.284 607.102ZM205.525 600.341L204.398 598.934L199.572 602.795L200.697 604.203L201.824 605.612L206.652 601.749L205.525 600.341ZM200.697 604.203V602.4H153.388V604.203V606.007H200.697V604.203ZM153.388 604.203H155.191V541.428H153.388H151.585V604.203H153.388ZM153.388 541.428V539.624H130.216V541.428V543.231H153.388V541.428ZM130.216 541.428H128.413V567.002H130.216H132.019V541.428H130.216ZM130.216 567.002V565.198H11.4582V567.002V568.805H130.216V567.002ZM11.4582 567.002H13.2611V501.831H11.4582H9.65531V567.002H11.4582ZM11.4582 501.831V503.634H34.6298V501.831V500.027H11.4582V501.831ZM34.6298 501.831H36.4327V478.652H34.6298H32.8269V501.831H34.6298ZM34.6298 478.652V476.849H2.76774V478.652V480.455H34.6298V478.652ZM2.76774 478.652H4.57062V426.5H2.76774H0.964844V478.652H2.76774ZM2.76774 426.5V428.303H27.8708V426.5V424.697H2.76774V426.5ZM27.8708 426.5H29.6737V378.211H27.8708H26.0679V426.5H27.8708ZM27.8708 378.211V376.407H2.76774V378.211V380.014H27.8708V378.211ZM2.76774 378.211H4.57062V300.948H2.76774H0.964844V378.211H2.76774ZM2.76774 300.948V302.752H84.836V300.948V299.145H2.76774V300.948ZM84.836 300.948H86.6389V289.358H84.836H83.0331V300.948H84.836ZM84.836 289.358V287.555H65.5253V289.358V291.162H84.836V289.358ZM65.5253 289.358H67.3282V248.796H65.5253H63.7224V289.358H65.5253ZM65.5253 248.796L67.2833 249.197C68.9804 241.738 70.7519 236.889 73.6926 233.605C76.5666 230.395 80.7844 228.445 87.9925 227.401L87.734 225.616L87.4754 223.832C79.8651 224.934 74.6813 227.095 71.0066 231.197C67.3987 235.226 65.475 240.892 63.7675 248.396L65.5253 248.796ZM87.734 225.616V227.419H267.317V225.616V223.812H87.734V225.616ZM267.317 225.616H269.12V188.919H267.317H265.514V225.616H267.317ZM267.317 188.919V187.115H242.216V188.919V190.722H267.317V188.919ZM242.216 188.919H244.019V102.964H242.216H240.413V188.919H242.216ZM242.216 102.964L243.894 103.621L252.584 81.4079L250.906 80.7506L249.227 80.0934L240.535 102.306L242.216 102.964ZM250.906 80.7506L252.074 82.1235L278.142 59.9105L276.974 58.5378L275.804 57.1648L249.736 79.3778L250.906 80.7506ZM276.974 58.5378L278.611 59.2934L284.405 46.7368L282.768 45.981L281.131 45.2252L275.337 57.782L276.974 58.5378ZM282.768 45.981L282.999 47.7696C294.413 46.2969 300.842 45.1348 312.224 41.9225L311.733 40.1869L311.245 38.4513C300.065 41.6063 293.814 42.7374 282.537 44.1924L282.768 45.981ZM311.733 40.1869V41.9903H327.182V40.1869V38.3835H311.733V40.1869ZM327.182 40.1869L328.307 41.5952L337.963 33.8691L336.837 32.4608L335.71 31.0526L326.055 38.7786L327.182 40.1869ZM336.837 32.4608L336.712 34.2599L364.711 36.1919L364.835 34.3928L364.96 32.5938L336.961 30.6618L336.837 32.4608ZM469.176 502.861H467.373V530.452H469.176H470.978V502.861H469.176ZM469.176 530.452L467.847 529.233L447.11 551.864L448.439 553.081L449.769 554.3L470.506 531.67L469.176 530.452ZM448.439 553.081V551.278H292.893V553.081V554.885H448.439V553.081ZM292.893 553.081H291.09V604.14H292.893H294.696V553.081H292.893ZM292.893 604.14V605.944H393.865V604.14V602.337H292.893V604.14ZM393.865 604.14H392.063V699.752H393.865H395.668V604.14H393.865ZM393.865 699.752V701.555H408.22V699.752V697.949H393.865V699.752ZM408.22 699.752H410.023V692.025H408.22H406.417V699.752H408.22ZM408.22 692.025V693.828H456.932V692.025V690.221H408.22V692.025ZM456.932 692.025L458.207 693.3L458.472 693.036L457.197 691.761L455.923 690.486L455.658 690.75L456.932 692.025ZM457.197 691.761L458.472 693.036L495.16 656.337L493.886 655.062L492.611 653.787L455.923 690.486L457.197 691.761ZM493.886 655.062L495.16 656.337L495.426 656.074L494.151 654.799L492.876 653.524L492.611 653.787L493.886 655.062ZM494.151 654.799H495.954V502.861H494.151H492.348V654.799H494.151ZM494.151 502.861V501.057H469.176V502.861V504.664H494.151V502.861ZM254.832 402.418H253.029V452.64H254.832H256.635V402.418H254.832ZM254.832 452.64V450.837H130.711V452.64V454.443H254.832V452.64ZM130.711 452.64L132.232 451.672L125.739 441.466L124.218 442.435L122.697 443.403L129.19 453.608L130.711 452.64ZM124.218 442.435L125.739 441.466L125.293 440.767L123.772 441.735L122.252 442.705L122.697 443.403L124.218 442.435ZM123.772 441.735L122.937 440.137L122.203 440.521L123.038 442.119L123.873 443.717L124.607 443.333L123.772 441.735ZM123.038 442.119L122.203 440.521L101.926 451.145L102.763 452.743L103.599 454.341L123.873 443.717L123.038 442.119ZM102.763 452.743L101.926 451.145L101.17 451.542L102.007 453.138L102.845 454.736L103.6 454.339L102.763 452.743ZM102.007 453.138L100.367 453.886L100.721 454.663L102.361 453.915L104.002 453.167L103.648 452.391L102.007 453.138ZM102.361 453.915L100.72 454.662L105.229 464.586L106.87 463.839L108.511 463.092L104.003 453.168L102.361 453.915ZM106.87 463.839L105.87 462.339L103.611 463.846L104.611 465.347L105.611 466.847L107.871 465.339L106.87 463.839ZM104.611 465.347L103.611 463.846L103.21 464.113L104.21 465.614L105.21 467.116L105.611 466.847L104.611 465.347ZM104.21 465.614H102.407V477.75H104.21H106.013V465.614H104.21ZM104.21 477.75V475.947H73.3143V477.75V479.554H104.21V477.75ZM73.3143 477.75H71.5114V502.733H73.3143H75.1172V477.75H73.3143ZM73.3143 502.733V504.536H229.727V502.733V500.929H73.3143V502.733ZM229.727 502.733H227.924V573.89H229.727H231.53V502.733H229.727ZM229.727 573.89L228.453 572.615L224.218 576.852L225.492 578.127L226.767 579.402L231.002 575.167L229.727 573.89ZM225.492 578.127L224.216 579.4L224.854 580.04L226.13 578.767L227.407 577.492L226.769 576.853L225.492 578.127ZM226.13 578.767L224.856 580.042L233.216 588.404L234.49 587.129L235.767 585.854L227.405 577.49L226.13 578.767ZM234.49 587.129L235.767 588.404L244.392 579.777L243.117 578.502L241.843 577.227L233.216 585.854L234.49 587.129ZM243.117 578.502H244.92V502.733H243.117H241.314V578.502H243.117ZM243.117 502.733V504.536H344.495V502.733V500.929H243.117V502.733ZM344.495 502.733H346.298V477.75H344.495H342.692V502.733H344.495ZM344.495 477.75V475.947H293.322V477.75V479.554H344.495V477.75ZM293.322 477.75H295.125V402.418H293.322H291.519V477.75H293.322ZM293.322 402.418V400.614H254.832V402.418V404.221H293.322V402.418ZM393.865 409.18H392.063V522.047H393.865H395.668V409.18H393.865ZM393.865 522.047V523.85H418.839V522.047V520.243H393.865V522.047ZM418.839 522.047H420.642V502.861H418.839H417.036V522.047H418.839ZM418.839 502.861V501.057H406.287V502.861V504.664H418.839V502.861ZM406.287 502.861H408.09V427.402H406.287H404.484V502.861H406.287ZM406.287 427.402V429.205H419.807V427.402V425.598H406.287V427.402ZM419.807 427.402H421.61V409.18H419.807H418.004V427.402H419.807ZM419.807 409.18V407.377H393.865V409.18V410.984H419.807V409.18ZM393.865 276.866H392.063V301.012H393.865H395.668V276.866H393.865ZM393.865 301.012V299.208H388.073V301.012V302.815H393.865V301.012ZM388.073 301.012H386.27V326.96H388.073H389.876V301.012H388.073ZM388.073 326.96V328.764H393.865V326.96V325.157H388.073V326.96ZM393.865 326.96H392.063V358.303H393.865H395.668V326.96H393.865ZM393.865 358.303L392.591 359.578L392.854 359.842L394.129 358.567L395.403 357.292L395.14 357.026L393.865 358.303ZM394.129 358.567L392.854 359.842L411.198 378.193L412.473 376.918L413.748 375.643L395.403 357.292L394.129 358.567ZM412.473 376.918L411.198 378.193L411.463 378.456L412.738 377.181L414.013 375.906L413.748 375.643L412.473 376.918ZM412.738 377.181V378.984H456.624V377.181V375.378H412.738V377.181ZM456.624 377.181H454.821V452.64H456.624H458.427V377.181H456.624ZM456.624 452.64V450.837H444.072V452.64V454.443H456.624V452.64ZM444.072 452.64H442.269V477.622H444.072H445.875V452.64H444.072ZM444.072 477.622V479.426H494.151V477.622V475.819H444.072V477.622ZM494.151 477.622H495.954V474.724H494.151H492.348V477.622H494.151ZM494.151 474.724V476.528H558.004V474.724V472.921H494.151V474.724ZM558.004 474.724H556.201V502.733H558.004H559.807V474.724H558.004ZM558.004 502.733V504.536H582.977V502.733V500.929H558.004V502.733ZM582.977 502.733H584.78V452.64H582.977H581.174V502.733H582.977ZM582.977 452.64V450.837H558.004V452.64V454.443H582.977V452.64ZM558.004 452.64H556.201V455.538H558.004H559.807V452.64H558.004ZM558.004 455.538V453.735H507.669V455.538V457.341H558.004V455.538ZM507.669 455.538H509.472V276.866H507.669H505.866V455.538H507.669ZM507.669 276.866V275.063H393.865V276.866V278.669H507.669V276.866ZM123.521 288.456H121.718V301.85H123.521H125.323V288.456H123.521ZM123.521 301.85V303.654H155.383V301.85V300.047H123.521V301.85ZM155.383 301.85H153.58V419.676H155.383H157.185V301.85H155.383ZM155.383 419.676V421.479H167.806V419.676V417.873H155.383V419.676ZM167.806 419.676H169.609V288.456H167.806H166.003V419.676H167.806ZM167.806 288.456V286.653H123.521V288.456V290.26H167.806V288.456ZM54.0038 352.199H52.2009V402.291H54.0038H55.8067V352.199H54.0038ZM54.0038 402.291V404.095H60.6343V402.291V400.488H54.0038V402.291ZM60.6343 402.291H62.4372V389.736H60.6343H58.8314V402.291H60.6343ZM60.6343 389.736V391.54H97.4526V389.736V387.933H60.6343V389.736ZM97.4526 389.736H95.6497V402.291H97.4526H99.2555V389.736H97.4526ZM97.4526 402.291V404.095H105.048V402.291V400.488H97.4526V402.291ZM105.048 402.291H106.851V352.199H105.048H103.245V402.291H105.048ZM105.048 352.199V350.395H54.0038V352.199V354.002H105.048V352.199ZM670.967 298.115H669.164V377.358H670.967H672.77V298.115H670.967ZM670.967 377.358L670.969 375.554L581.113 375.506L581.111 377.309V379.112L670.967 379.161V377.358ZM581.111 377.309V375.506H581.108V377.309V379.112H581.111V377.309ZM581.108 377.309L581.104 375.506L558.898 375.556L558.901 377.36L558.905 379.163L581.113 379.112L581.108 377.309ZM558.901 377.36L558.925 375.556L555.078 375.506L555.054 377.309L555.031 379.112L558.878 379.163L558.901 377.36ZM555.054 377.309V375.506H554.984V377.309V379.112H555.054V377.309ZM554.984 377.309L554.755 375.52L554.686 375.529L554.915 377.318L555.144 379.105L555.213 379.098L554.984 377.309ZM554.915 377.318L554.661 375.533C550.621 376.11 547.545 377.982 545.517 380.683L546.959 381.765L548.401 382.849C549.817 380.963 552.011 379.554 555.169 379.102L554.915 377.318ZM546.959 381.765L545.517 380.683C543.525 383.336 542.683 386.6 542.683 389.799H544.486H546.288C546.288 387.204 546.974 384.75 548.401 382.849L546.959 381.765ZM544.486 389.799H542.683C542.683 394.005 543.781 397.386 546.049 399.862L547.377 398.643L548.706 397.424C547.212 395.792 546.288 393.377 546.288 389.799H544.486ZM547.377 398.643L546.049 399.862C548.29 402.306 551.356 403.518 554.598 404.059L554.894 402.279L555.191 400.501C552.409 400.037 550.212 399.067 548.706 397.424L547.377 398.643ZM554.894 402.279L554.598 404.059L554.672 404.071L554.968 402.291L555.265 400.513L555.191 400.501L554.894 402.279ZM554.968 402.291V404.095H695.944V402.291V400.488H554.968V402.291ZM695.944 402.291H697.747V298.115H695.944H694.141V402.291H695.944ZM695.944 298.115V296.312H670.967V298.115V299.919H695.944V298.115ZM192.072 250.791H190.269V352.52H192.072H193.875V250.791H192.072ZM192.072 352.52L190.823 353.818L191.099 354.085L192.348 352.785L193.599 351.485L193.322 351.22L192.072 352.52ZM192.348 352.785L191.099 354.085L216.202 378.231L217.451 376.93L218.701 375.63L193.599 351.485L192.348 352.785ZM217.451 376.93L216.202 378.231L216.465 378.483L217.715 377.181L218.962 375.881L218.701 375.628L217.451 376.93ZM217.715 377.181V378.984H294.804V377.181V375.378H217.715V377.181ZM294.804 377.181H296.607V369.188H294.804H293.001V377.181H294.804ZM294.804 369.188V367.385H293.322V369.188V370.992H294.804V369.188ZM293.322 369.188H295.125V326.96H293.322H291.519V369.188H293.322ZM293.322 326.96V328.764H350.29V326.96V325.157H293.322V326.96ZM350.29 326.96H352.093V301.012H350.29H348.487V326.96H350.29ZM350.29 301.012V299.208H243.117V301.012V302.815H350.29V301.012ZM243.117 301.012H244.92V250.791H243.117H241.314V301.012H243.117ZM243.117 250.791V248.988H192.072V250.791V252.594H243.117V250.791ZM475.933 201.537H474.13V226.517H475.933H477.736V201.537H475.933ZM475.933 226.517V228.321H531.505V226.517V224.714H475.933V226.517ZM531.505 226.517L530.254 227.816L556.752 253.373L558.004 252.075L559.255 250.777L532.756 225.221L531.505 226.517ZM558.004 252.075H556.201V295.217H558.004H559.807V252.075H558.004ZM558.004 295.217V293.414H544.486V295.217V297.021H558.004V295.217ZM544.486 295.217H542.683V307.644H544.486H546.288V295.217H544.486ZM544.486 307.644V309.448H558.004V307.644V305.841H544.486V307.644ZM558.004 307.644H556.201V326.96H558.004H559.807V307.644H558.004ZM558.004 326.96V328.764H582.013V326.96V325.157H558.004V326.96ZM582.013 326.96H583.816V276.74H582.013H580.21V326.96H582.013ZM582.013 276.74V278.543H595.529V276.74V274.936H582.013V276.74ZM595.529 276.74H597.332V226.517H595.529H593.726V276.74H595.529ZM595.529 226.517V228.321H598.426V226.517V224.714H595.529V226.517ZM598.426 226.517H600.229V201.537H598.426H596.623V226.517H598.426ZM598.426 201.537V199.734H475.933V201.537V203.34H598.426V201.537ZM293.452 137.795H291.649V250.663H293.452H295.255V137.795H293.452ZM293.452 250.663V252.466H318.427V250.663V248.86H293.452V250.663ZM318.427 250.663H320.23V239.073H318.427H316.624V250.663H318.427ZM318.427 239.073V240.876H443.944V239.073V237.269H318.427V239.073ZM443.944 239.073H445.747V137.795H443.944H442.141V239.073H443.944ZM443.944 137.795V135.992H418.969V137.795V139.598H443.944V137.795ZM418.969 137.795H417.166V162.905H418.969H420.772V137.795H418.969ZM418.969 162.905V161.102H318.427V162.905V164.708H418.969V162.905ZM318.427 162.905H320.23V137.795H318.427H316.624V162.905H318.427ZM318.427 137.795V135.992H293.452V137.795V139.598H318.427V137.795Z" fill="#674A81"/>
</g>
<path d="M35.5967 299.982V313.504H48.1485V299.982M156.286 332.82H142.769V345.375H155.321" stroke="#674A81" stroke-width="0.5"/>
<path d="M155.32 374.348H116.699V376.279H155.32" stroke="#674A81" stroke-width="0.5"/>
<path d="M116.699 377.244V388.835H105.112V377.244H116.699Z" stroke="#674A81"/>
<path d="M116.699 383.04H123.458V376.279" stroke="#674A81" stroke-width="0.5"/>
<path d="M130.216 289.358V276.803H159.182V289.358M294.354 250.728V275.838H305.941V250.728M332.975 405.557L327.181 411.047L336.837 420.706L350.353 407.184M332.975 405.557L341.663 414.911M332.975 405.557L341.663 397.323M350.353 407.184L355.181 402.356L345.527 393.664L341.663 397.323M350.353 407.184L341.663 397.323M312.698 478.652V466.097H324.285V478.652M394.767 484.446H381.251V497.001H394.767M293.389 553.983V541.428H317.526V553.983M563.734 502.798V515.353H576.285V502.798M544.423 393.664L535.733 403.321L544.423 412.013L554.077 402.356M563.734 377.244V365.656H576.285V377.244M582.078 282.599H620.697V271.009H595.594M733.663 351.169V363.724H747.181M331.044 655.391V642.836H341.663V655.391M74.2163 501.831C74.2163 502.605 74.2163 511.167 74.2163 515.353H85.8025V502.798M48.1475 567.505V553.983H59.7335V567.505M494.216 276.803V265.215H506.768V276.803M583.042 201.472V182.158H594.63V201.472M503.871 148.355L494.216 158.978L486.491 151.252L495.181 140.629M205.526 399.458V430.363H217.113V399.458H205.526ZM622.628 349.238L643.87 327.99L652.56 336.683L631.318 358.895L621.664 350.203L622.628 349.238ZM188.148 557.846V524.043H199.733V557.846H188.148Z" stroke="#674A81"/>
<path d="M130.216 276.803V264.248H141.802V270.525M141.802 270.525V276.803M141.802 270.525H148.561V276.803" stroke="#674A81" stroke-width="0.5"/>
<path d="M299.181 541.428V534.667H311.733V541.428M293.389 339.579H343.595V327.024M1.80273 326.059H79.0439M318.492 250.728H356.147M356.147 250.728V253.624H381.25V250.728M356.147 250.728H381.25M444.009 250.728H381.25M507.734 351.169H519.319V300.949H544.422M646.767 224.651V232.378L664.147 249.761H672.836M350.354 820.539V814.745H361.94V815.71M361.94 815.71V820.539M361.94 815.71C362.713 815.71 370.63 815.71 374.491 815.71M374.491 815.71V820.539M374.491 815.71V814.745H387.043V820.539M413.113 820.539V814.745H425.665V820.539M449.802 820.539V818.608M449.802 818.608V814.745H438.216V820.539M449.802 818.608L454.63 812.813H458.491" stroke="#674A81" stroke-width="0.5"/>
<path d="M414.078 376.279H392.836" stroke="#674A81" stroke-width="0.5"/>
<path d="M425.665 815.71H438.217M350.355 817.641L345.527 812.813H341.665M739.457 363.724V371.45H748.147" stroke="#674A81" stroke-width="0.5"/>
<path d="M670.905 377.244H582.077V283.564H670.905V377.244ZM620.697 350.203L631.317 359.861L653.524 336.683L643.869 327.025L620.697 350.203Z" fill="#4F276A"/>
<path d="M621.663 275.838H670.905V283.564H621.663V275.838Z" fill="#4F276A"/>
<path d="M610.455 320.786H607.666L612.745 306.359H615.97L621.054 320.786H618.265L614.412 309.316H614.301L610.455 320.786ZM610.547 315.128H618.153V317.228H610.547V315.128Z" fill="white"/>
<path d="M2.76758 326.602H53.9398V378.211H2.76758V326.602Z" fill="#4F276A"/>
<path d="M53.9395 326.576H129.25V352.134H53.9395V326.576Z" fill="#4F276A"/>
<path d="M105.111 352.134H116.697V376.279H105.111V352.134Z" fill="#4F276A"/>
<path d="M116.697 352.134H129.249V373.852H116.697V352.134Z" fill="#4F276A"/>
<path d="M79.043 389.799H97.3877V414.91H79.043V389.799Z" fill="#4F276A"/>
<path d="M97.3887 402.354H105.113V414.91H97.3887V402.354Z" fill="#4F276A"/>
<path d="M105.111 389.799H129.249V414.91H105.111V389.799Z" fill="#4F276A"/>
<path d="M117.664 383.527H129.25V389.799H117.664V383.527Z" fill="#4F276A"/>
<path d="M123.94 376.763H129.251V383.522H123.94V376.763Z" fill="#4F276A"/>
<path d="M29.293 351.69V337.263H34.8143C35.8567 337.263 36.7228 337.427 37.4132 337.757C38.108 338.08 38.6267 338.524 38.9694 339.088C39.3168 339.651 39.4906 340.289 39.4906 341.003C39.4906 341.591 39.3779 342.093 39.1526 342.511C38.9272 342.924 38.6243 343.261 38.2441 343.519C37.8639 343.777 37.4389 343.963 36.9695 344.075V344.217C37.4811 344.244 37.9717 344.401 38.4413 344.688C38.9155 344.971 39.3028 345.369 39.6033 345.885C39.9038 346.403 40.054 347.027 40.054 347.759C40.054 348.505 39.8732 349.178 39.5117 349.775C39.1502 350.367 38.6056 350.834 37.8779 351.176C37.1501 351.519 36.2346 351.69 35.1313 351.69H29.293ZM31.9059 349.506H34.7159C35.6642 349.506 36.3473 349.326 36.7652 348.964C37.1878 348.597 37.3989 348.129 37.3989 347.555C37.3989 347.128 37.2933 346.744 37.0822 346.401C36.8709 346.053 36.5703 345.781 36.1807 345.582C35.7909 345.38 35.3261 345.279 34.7862 345.279H31.9059V349.506ZM31.9059 343.398H34.4905C34.9412 343.398 35.3472 343.317 35.7087 343.153C36.0704 342.984 36.3543 342.745 36.5609 342.441C36.7722 342.131 36.8779 341.764 36.8779 341.342C36.8779 340.783 36.6807 340.324 36.2864 339.961C35.8966 339.6 35.3168 339.418 34.5468 339.418H31.9059V343.398Z" fill="white"/>
</svg>
